 0
SECTION
 2
ENTITIES
  0
LINE
 8
GROUP0
10
903.776640730573
20
1964.16422942128
30
0.000142525098465313
11
903.776640730573
21
1989.16422942128
31
0.000141998269958976
  0
LINE
 8
GROUP0
10
1222.7766407304
20
1964.16422942128
30
0.00013582425305077
11
903.776640730573
21
1964.16422942128
31
0.000142525098465313
  0
LINE
 8
GROUP0
10
1222.7766407304
20
1989.16422942128
30
0.000133570725047094
11
1222.7766407304
21
1964.16422942128
31
0.00013582425305077
  0
LINE
 8
GROUP0
10
1222.7766407304
20
1989.16422942128
30
0.000133570725047094
11
1232.7766407304
21
1989.16422942128
31
0.000135297425085867
  0
LINE
 8
GROUP0
10
1257.7766407304
20
2014.16424679142
30
0.000112568905344962
11
1232.7766407304
21
1989.16422942128
31
0.000135297425085867
  0
LINE
 8
GROUP0
10
1257.7766407304
20
2024.16424679141
30
0.000102906473603132
11
1257.7766407304
21
2014.16424679142
31
0.000112568905344962
  0
LINE
 8
GROUP0
10
1232.7766407304
20
2049.16426416155
30
7.73228006951787e-005
11
1257.7766407304
21
2024.16424679141
31
0.000102906473603132
  0
LINE
 8
GROUP0
10
1222.7766407304
20
2049.16426416155
30
7.55961006564054e-005
11
1232.7766407304
21
2049.16426416155
31
7.73228006951787e-005
  0
LINE
 8
GROUP0
10
1222.7766407304
20
2054.16422942128
30
0.000133927670426831
11
1222.7766407304
21
2049.16426416155
31
7.55961006564054e-005
  0
LINE
 8
GROUP0
10
1180.77723338693
20
2054.16422942128
30
0.000149264365766671
11
1222.7766407304
21
2054.16422942128
31
0.000133927670426831
  0
LINE
 8
GROUP0
10
1180.77723338693
20
2074.16424644122
30
0.000148842902602198
11
1180.77723338693
21
2054.16422942128
31
0.000149264365766671
  0
LINE
 8
GROUP0
10
945.776303141651
20
2074.16426147
30
3.52273457984664e-005
11
1180.77723338693
21
2074.16424644122
31
0.000148842902602198
  0
LINE
 8
GROUP0
10
945.776303141651
20
2054.16426147
30
3.56488086040996e-005
11
945.776303141651
21
2074.16426147
31
3.52273457984664e-005
  0
LINE
 8
GROUP0
10
903.776640730573
20
2054.16426416155
30
8.05823849501341e-005
11
945.776303141651
21
2054.16426147
31
3.56488086040996e-005
  0
LINE
 8
GROUP0
10
903.776640730573
20
2049.16426416155
30
8.40236455682874e-005
11
903.776640730573
21
2054.16426416155
31
8.05823849501341e-005
  0
LINE
 8
GROUP0
10
903.776640730573
20
2049.16426416155
30
8.40236455682874e-005
11
893.776640730574
21
2049.16426416155
31
8.22969453490363e-005
  0
LINE
 8
GROUP0
10
868.776640730573
20
2024.16434190927
30
0.000104702570877391
11
893.776640730574
21
2049.16426416155
31
8.22969453490363e-005
  0
LINE
 8
GROUP0
10
868.776640730573
20
2014.16424679141
30
0.000114365094591723
11
868.776640730573
21
2024.16434190927
31
0.000104702570877391
  0
LINE
 8
GROUP0
10
893.776640730574
20
1989.16422942127
30
0.000140271569739725
11
868.776640730573
21
2014.16424679141
31
0.000114365094591723
  0
LINE
 8
GROUP0
10
903.776640730573
20
1989.16422942128
30
0.000141998269958976
11
893.776640730574
21
1989.16422942127
31
0.000140271569739725
  0
LINE
 8
GROUP0
10
1161.2948714772
20
2062.23238576987
30
0.000275166849589825
11
1161.777233387
21
2062.43218661488
31
0.000275283379565328
  0
LINE
 8
GROUP0
10
1160.77723338699
20
2062.16423742245
30
0.000275066130892149
11
1161.2948714772
21
2062.23238576987
31
0.000275166849589825
  0
LINE
 8
GROUP0
10
1160.25959529679
20
2062.23238576987
30
0.000274988088440298
11
1160.77723338699
21
2062.16423742245
31
0.000275066130892149
  0
LINE
 8
GROUP0
10
1159.777233387
20
2062.43218661488
30
0.000274938039521477
11
1160.25959529679
21
2062.23238576987
31
0.000274988088440298
  0
LINE
 8
GROUP0
10
1159.36301982462
20
2062.75002386008
30
0.000274919395502016
11
1159.777233387
21
2062.43218661488
31
0.000274938039521477
  0
LINE
 8
GROUP0
10
1159.04518257943
20
2063.16423742245
30
0.000274933427144819
11
1159.36301982462
21
2062.75002386008
31
0.000274919395502016
  0
LINE
 8
GROUP0
10
1158.84538173442
20
2063.64659933225
30
0.000274979177913731
11
1159.04518257943
21
2063.16423742245
31
0.000274933427144819
  0
LINE
 8
GROUP0
10
1158.777233387
20
2064.16423742245
30
0.000275053530280112
11
1158.84538173442
21
2063.64659933225
31
0.000274979177913731
  0
LINE
 8
GROUP0
10
1158.84538173442
20
2064.68187551266
30
0.000275151416958769
11
1158.777233387
21
2064.16423742245
31
0.000275053530280112
  0
LINE
 8
GROUP0
10
1159.04518257943
20
2065.16423742245
30
0.000275266166576632
11
1158.84538173442
21
2064.68187551266
31
0.000275151416958769
  0
LINE
 8
GROUP0
10
1159.36301982462
20
2065.57845098482
30
0.000275389960519307
11
1159.04518257943
21
2065.16423742245
31
0.000275266166576632
  0
LINE
 8
GROUP0
10
1159.777233387
20
2065.89628823002
30
0.000275514361082596
11
1159.36301982462
21
2065.57845098482
31
0.000275389960519307
  0
LINE
 8
GROUP0
10
1160.25959529679
20
2066.09608907503
30
0.000275630891058098
11
1159.777233387
21
2065.89628823002
31
0.000275514361082596
  0
LINE
 8
GROUP0
10
1160.77723338699
20
2066.16423742245
30
0.000275731609755775
11
1160.25959529679
21
2066.09608907503
31
0.000275630891058098
  0
LINE
 8
GROUP0
10
1161.2948714772
20
2066.09608907503
30
0.000275809652207626
11
1160.77723338699
21
2066.16423742245
31
0.000275731609755775
  0
LINE
 8
GROUP0
10
1161.777233387
20
2065.89628823002
30
0.000275859701126446
11
1161.2948714772
21
2066.09608907503
31
0.000275809652207626
  0
LINE
 8
GROUP0
10
1162.19144694937
20
2065.57845098482
30
0.000275878345145203
11
1161.777233387
21
2065.89628823002
31
0.000275859701126446
  0
LINE
 8
GROUP0
10
1162.50928419456
20
2065.16423742245
30
0.0002758643135024
11
1162.19144694937
21
2065.57845098482
31
0.000275878345145203
  0
LINE
 8
GROUP0
10
1162.70908503957
20
2064.68187551266
30
0.000275818562734192
11
1162.50928419456
21
2065.16423742245
31
0.0002758643135024
  0
LINE
 8
GROUP0
10
1162.777233387
20
2064.16423742245
30
0.000275744210367812
11
1162.70908503957
21
2064.68187551266
31
0.000275818562734192
  0
LINE
 8
GROUP0
10
1162.70908503957
20
2063.64659933225
30
0.000275646323689155
11
1162.777233387
21
2064.16423742245
31
0.000275744210367812
  0
LINE
 8
GROUP0
10
1162.50928419456
20
2063.16423742245
30
0.000275531574070587
11
1162.70908503957
21
2063.64659933225
31
0.000275646323689155
  0
LINE
 8
GROUP0
10
1162.19144694937
20
2062.75002386008
30
0.000275407780127912
11
1162.50928419456
21
2063.16423742245
31
0.000275531574070587
  0
LINE
 8
GROUP0
10
1161.777233387
20
2062.43218661488
30
0.000275283379565328
11
1162.19144694937
21
2062.75002386008
31
0.000275407780127912
  0
LINE
 8
GROUP0
10
965.776303141795
20
2066.16420049144
30
0.000302467084782426
11
965.258665051591
21
2066.09605214402
31
0.00030236636608475
  0
LINE
 8
GROUP0
10
966.293941232001
20
2066.09605214402
30
0.000302545127234277
11
965.776303141795
21
2066.16420049144
31
0.000302467084782426
  0
LINE
 8
GROUP0
10
966.776303141796
20
2065.89625129901
30
0.000302595176153098
11
966.293941232001
21
2066.09605214402
31
0.000302545127234277
  0
LINE
 8
GROUP0
10
967.190516704169
20
2065.57841405381
30
0.000302613820171854
11
966.776303141796
21
2065.89625129901
31
0.000302595176153098
  0
LINE
 8
GROUP0
10
967.508353949364
20
2065.16420049144
30
0.000302599788529051
11
967.190516704169
21
2065.57841405381
31
0.000302613820171854
  0
LINE
 8
GROUP0
10
967.708154794374
20
2064.68183858165
30
0.000302554037760844
11
967.508353949364
21
2065.16420049144
31
0.000302599788529051
  0
LINE
 8
GROUP0
10
967.776303141796
20
2064.16420049144
30
0.000302479685394463
11
967.708154794374
21
2064.68183858165
31
0.000302554037760844
  0
LINE
 8
GROUP0
10
967.708154794374
20
2063.64656240124
30
0.000302381798715806
11
967.776303141796
21
2064.16420049144
31
0.000302479685394463
  0
LINE
 8
GROUP0
10
967.508353949364
20
2063.16420049144
30
0.000302267049097238
11
967.708154794374
21
2063.64656240124
31
0.000302381798715806
  0
LINE
 8
GROUP0
10
967.190516704169
20
2062.74998692907
30
0.000302143255154563
11
967.508353949364
21
2063.16420049144
31
0.000302267049097238
  0
LINE
 8
GROUP0
10
966.776303141796
20
2062.43214968387
30
0.000302018854591979
11
967.190516704169
21
2062.74998692907
31
0.000302143255154563
  0
LINE
 8
GROUP0
10
966.293941232001
20
2062.23234883886
30
0.000301902324616476
11
966.776303141796
21
2062.43214968387
31
0.000302018854591979
  0
LINE
 8
GROUP0
10
965.776303141795
20
2062.16420049144
30
0.0003018016059188
11
966.293941232001
21
2062.23234883886
31
0.000301902324616476
  0
LINE
 8
GROUP0
10
965.258665051591
20
2062.23234883886
30
0.000301723563466949
11
965.776303141795
21
2062.16420049144
31
0.0003018016059188
  0
LINE
 8
GROUP0
10
964.776303141796
20
2062.43214968387
30
0.000301673514548129
11
965.258665051591
21
2062.23234883886
31
0.000301723563466949
  0
LINE
 8
GROUP0
10
964.362089579423
20
2062.74998692907
30
0.000301654870528667
11
964.776303141796
21
2062.43214968387
31
0.000301673514548129
  0
LINE
 8
GROUP0
10
964.044252334227
20
2063.16420049144
30
0.00030166890217147
11
964.362089579423
21
2062.74998692907
31
0.000301654870528667
  0
LINE
 8
GROUP0
10
963.844451489218
20
2063.64656240124
30
0.000301714652940382
11
964.044252334227
21
2063.16420049144
31
0.00030166890217147
  0
LINE
 8
GROUP0
10
963.776303141796
20
2064.16420049144
30
0.000301789005306763
11
963.844451489218
21
2063.64656240124
31
0.000301714652940382
  0
LINE
 8
GROUP0
10
963.844451489218
20
2064.68183858165
30
0.00030188689198542
11
963.776303141796
21
2064.16420049144
31
0.000301789005306763
  0
LINE
 8
GROUP0
10
964.044252334227
20
2065.16420049144
30
0.000302001641603283
11
963.844451489218
21
2064.68183858165
31
0.00030188689198542
  0
LINE
 8
GROUP0
10
964.362089579423
20
2065.57841405381
30
0.000302125435545958
11
964.044252334227
21
2065.16420049144
31
0.000302001641603283
  0
LINE
 8
GROUP0
10
964.776303141796
20
2065.89625129901
30
0.000302249836109247
11
964.362089579423
21
2065.57841405381
31
0.000302125435545958
  0
LINE
 8
GROUP0
10
965.258665051591
20
2066.09605214402
30
0.00030236636608475
11
964.776303141796
21
2065.89625129901
31
0.000302249836109247
  0
LINE
 8
GROUP0
10
931.258522743681
20
1975.16422942128
30
0.000138248137279068
11
930.940685498486
21
1975.57844298365
31
0.000138262168921871
  0
LINE
 8
GROUP0
10
931.45832358869
20
1974.68186751148
30
0.000138202386510156
11
931.258522743681
21
1975.16422942128
31
0.000138248137279068
  0
LINE
 8
GROUP0
10
931.526471936112
20
1974.16422942128
30
0.00013812803414448
11
931.45832358869
21
1974.68186751148
31
0.000138202386510156
  0
LINE
 8
GROUP0
10
931.45832358869
20
1973.64659133107
30
0.000138030147465823
11
931.526471936112
21
1974.16422942128
31
0.00013812803414448
  0
LINE
 8
GROUP0
10
931.258522743682
20
1973.16422942128
30
0.000137915397847255
11
931.45832358869
21
1973.64659133107
31
0.000138030147465823
  0
LINE
 8
GROUP0
10
930.940685498486
20
1972.7500158589
30
0.00013779160390458
11
931.258522743682
21
1973.16422942128
31
0.000137915397847255
  0
LINE
 8
GROUP0
10
930.526471936112
20
1972.43217861371
30
0.000137667203341291
11
930.940685498486
21
1972.7500158589
31
0.00013779160390458
  0
LINE
 8
GROUP0
10
930.044110026317
20
1972.2323777687
30
0.000137550673365788
11
930.526471936112
21
1972.43217861371
31
0.000137667203341291
  0
LINE
 8
GROUP0
10
929.526471936113
20
1972.16422942128
30
0.000137449954668112
11
930.044110026317
21
1972.2323777687
31
0.000137550673365788
  0
LINE
 8
GROUP0
10
929.008833845908
20
1972.2323777687
30
0.000137371912216261
11
929.526471936113
21
1972.16422942128
31
0.000137449954668112
  0
LINE
 8
GROUP0
10
928.526471936113
20
1972.43217861371
30
0.00013732186329744
11
929.008833845908
21
1972.2323777687
31
0.000137371912216261
  0
LINE
 8
GROUP0
10
928.11225837374
20
1972.7500158589
30
0.000137303219278684
11
928.526471936113
21
1972.43217861371
31
0.00013732186329744
  0
LINE
 8
GROUP0
10
927.794421128544
20
1973.16422942127
30
0.000137317250921487
11
928.11225837374
21
1972.7500158589
31
0.000137303219278684
  0
LINE
 8
GROUP0
10
927.594620283534
20
1973.64659133107
30
0.000137363001690399
11
927.794421128544
21
1973.16422942127
31
0.000137317250921487
  0
LINE
 8
GROUP0
10
927.526471936112
20
1974.16422942127
30
0.00013743735405678
11
927.594620283534
21
1973.64659133107
31
0.000137363001690399
  0
LINE
 8
GROUP0
10
927.594620283534
20
1974.68186751148
30
0.000137535240734732
11
927.526471936112
21
1974.16422942127
31
0.00013743735405678
  0
LINE
 8
GROUP0
10
927.794421128543
20
1975.16422942127
30
0.0001376499903533
11
927.594620283534
21
1974.68186751148
31
0.000137535240734732
  0
LINE
 8
GROUP0
10
928.112258373739
20
1975.57844298365
30
0.000137773784295975
11
927.794421128543
21
1975.16422942127
31
0.0001376499903533
  0
LINE
 8
GROUP0
10
928.526471936112
20
1975.89628022884
30
0.000137898184859264
11
928.112258373739
21
1975.57844298365
31
0.000137773784295975
  0
LINE
 8
GROUP0
10
929.008833845907
20
1976.09608107385
30
0.000138014714834767
11
928.526471936112
21
1975.89628022884
31
0.000137898184859264
  0
LINE
 8
GROUP0
10
929.526471936112
20
1976.16422942127
30
0.000138115433532443
11
929.008833845907
21
1976.09608107385
31
0.000138014714834767
  0
LINE
 8
GROUP0
10
930.044110026317
20
1976.09608107385
30
0.000138193475984294
11
929.526471936112
21
1976.16422942127
31
0.000138115433532443
  0
LINE
 8
GROUP0
10
930.526471936112
20
1975.89628022884
30
0.000138243524903114
11
930.044110026317
21
1976.09608107385
31
0.000138193475984294
  0
LINE
 8
GROUP0
10
930.940685498486
20
1975.57844298365
30
0.000138262168921871
11
930.526471936112
21
1975.89628022884
31
0.000138243524903114
  0
LINE
 8
GROUP0
10
1198.44068549787
20
1975.57844298314
30
9.58949748935955e-007
11
1198.02647193565
21
1975.89628022821
31
9.40305730179336e-007
  0
LINE
 8
GROUP0
10
1198.75852274296
20
1975.16422942093
30
9.4491810613273e-007
11
1198.44068549787
21
1975.57844298314
31
9.58949748935955e-007
  0
LINE
 8
GROUP0
10
1198.9583235879
20
1974.68186751133
30
8.99167337220508e-007
11
1198.75852274296
21
1975.16422942093
31
9.4491810613273e-007
  0
LINE
 8
GROUP0
10
1199.02647193531
20
1974.16422942132
30
8.24814971545074e-007
11
1198.9583235879
21
1974.68186751133
31
8.99167337220508e-007
  0
LINE
 8
GROUP0
10
1198.95832358793
20
1973.64659133131
30
7.26928292887896e-007
11
1199.02647193531
21
1974.16422942132
31
8.24814971545074e-007
  0
LINE
 8
GROUP0
10
1198.758522743
20
1973.1642294217
30
6.12178674319619e-007
11
1198.95832358793
21
1973.64659133131
31
7.26928292887896e-007
  0
LINE
 8
GROUP0
10
1198.44068549794
20
1972.75001585948
30
4.88384731645031e-007
11
1198.758522743
21
1973.1642294217
31
6.12178674319619e-007
  0
LINE
 8
GROUP0
10
1198.02647193573
20
1972.43217861439
30
3.63984168355591e-007
11
1198.44068549794
21
1972.75001585948
31
4.88384731645031e-007
  0
LINE
 8
GROUP0
10
1197.54411002613
20
1972.23237776945
30
2.47454192853214e-007
11
1198.02647193573
21
1972.43217861439
31
3.63984168355591e-007
  0
LINE
 8
GROUP0
10
1197.02647193612
20
1972.16422942204
30
1.46735495176742e-007
11
1197.54411002613
21
1972.23237776945
31
2.47454192853214e-007
  0
LINE
 8
GROUP0
10
1196.50883384611
20
1972.23237776943
30
6.8693043325796e-008
11
1197.02647193612
21
1972.16422942204
31
1.46735495176742e-007
  0
LINE
 8
GROUP0
10
1196.0264719365
20
1972.43217861435
30
1.86441245053626e-008
11
1196.50883384611
21
1972.23237776943
31
6.8693043325796e-008
  0
LINE
 8
GROUP0
10
1195.61225837427
20
1972.75001585941
30
1.05748743095546e-013
11
1196.0264719365
21
1972.43217861435
31
1.86441245053626e-008
  0
LINE
 8
GROUP0
10
1195.29442112919
20
1973.16422942162
30
1.40317485519681e-008
11
1195.61225837427
21
1972.75001585941
31
1.05748743095546e-013
  0
LINE
 8
GROUP0
10
1195.09462028424
20
1973.64659133123
30
5.97825174641908e-008
11
1195.29442112919
21
1973.16422942162
31
1.40317485519681e-008
  0
LINE
 8
GROUP0
10
1195.02647193684
20
1974.16422942123
30
1.34134883844617e-007
11
1195.09462028424
21
1973.64659133123
31
5.97825174641908e-008
  0
LINE
 8
GROUP0
10
1195.09462028422
20
1974.68186751124
30
2.32021561796802e-007
11
1195.02647193684
21
1974.16422942123
31
1.34134883844617e-007
  0
LINE
 8
GROUP0
10
1195.29442112914
20
1975.16422942085
30
3.4677118036508e-007
11
1195.09462028422
21
1974.68186751124
31
2.32021561796802e-007
  0
LINE
 8
GROUP0
10
1195.61225837421
20
1975.57844298308
30
4.70565123039668e-007
11
1195.29442112914
21
1975.16422942085
31
3.4677118036508e-007
  0
LINE
 8
GROUP0
10
1196.02647193642
20
1975.89628022816
30
5.94965686329108e-007
11
1195.61225837421
21
1975.57844298308
31
4.70565123039668e-007
  0
LINE
 8
GROUP0
10
1196.50883384602
20
1976.0960810731
30
7.11495661831485e-007
11
1196.02647193642
21
1975.89628022816
31
5.94965686329108e-007
  0
LINE
 8
GROUP0
10
1197.02647193603
20
1976.16422942051
30
8.12214359507957e-007
11
1196.50883384602
21
1976.0960810731
31
7.11495661831485e-007
  0
LINE
 8
GROUP0
10
1197.54411002604
20
1976.09608107313
30
8.90256811358903e-007
11
1197.02647193603
21
1976.16422942051
31
8.12214359507957e-007
  0
LINE
 8
GROUP0
10
1198.02647193565
20
1975.89628022821
30
9.40305730179336e-007
11
1197.54411002604
21
1976.09608107313
31
8.90256811358903e-007
  0
LINE
 8
GROUP0
10
998.776641421254
20
1984.16423038163
30
0.000124893282738908
11
923.776641421254
21
1984.16423038163
31
0.000124893282738908
  0
LINE
 8
GROUP0
10
923.776641421254
20
1984.16423038163
30
0.000124893282738908
11
923.776641421254
21
2004.16423038163
31
0.000123418835515038
  0
LINE
 8
GROUP0
10
923.776641421254
20
2004.16423038163
30
0.000123418835515038
11
998.776641421254
21
2004.16423038163
31
0.000123418835515038
  0
LINE
 8
GROUP0
10
998.776641421254
20
2004.16423038163
30
0.000123418835515038
11
998.776641421254
21
1984.16423038163
31
0.000124893282738908
  0
LINE
 8
GROUP0
10
1183.2767682643
20
1984.16422942127
30
4.13270540377875e-005
11
1063.27676895497
21
1984.1642303817
31
4.44350336481547e-005
  0
LINE
 8
GROUP0
10
1063.27676895497
20
2034.1642303817
30
4.07489155440643e-005
11
1063.27676895497
21
1984.1642303817
31
4.44350336481547e-005
  0
LINE
 8
GROUP0
10
1183.27676895497
20
2034.1642303817
30
4.07489154538254e-005
11
1063.27676895497
21
2034.1642303817
31
4.07489155440643e-005
  0
LINE
 8
GROUP0
10
1183.2767682643
20
1984.16422942127
30
4.13270540377875e-005
11
1183.27676895497
21
2034.1642303817
31
4.07489154538254e-005
  0
LINE
 8
GROUP0
10
1062.27664073049
20
1972.43217861371
30
0.000135524319564379
11
1062.75900264028
21
1972.2323777687
31
0.000135574368483199
  0
LINE
 8
GROUP0
10
1061.86242716811
20
1972.7500158589
30
0.000135505675545622
11
1062.27664073049
21
1972.43217861371
31
0.000135524319564379
  0
LINE
 8
GROUP0
10
1061.54458992292
20
1973.16422942127
30
0.000135519707188425
11
1061.86242716811
21
1972.7500158589
31
0.000135505675545622
  0
LINE
 8
GROUP0
10
1061.34478907791
20
1973.64659133107
30
0.000135565457957337
11
1061.54458992292
21
1973.16422942127
31
0.000135519707188425
  0
LINE
 8
GROUP0
10
1061.27664073049
20
1974.16422942127
30
0.000135639810323718
11
1061.34478907791
21
1973.64659133107
31
0.000135565457957337
  0
LINE
 8
GROUP0
10
1061.34478907791
20
1974.68186751148
30
0.00013573769700167
11
1061.27664073049
21
1974.16422942127
31
0.000135639810323718
  0
LINE
 8
GROUP0
10
1061.54458992292
20
1975.16422942127
30
0.000135852446620238
11
1061.34478907791
21
1974.68186751148
31
0.00013573769700167
  0
LINE
 8
GROUP0
10
1061.86242716811
20
1975.57844298365
30
0.000135976240562913
11
1061.54458992292
21
1975.16422942127
31
0.000135852446620238
  0
LINE
 8
GROUP0
10
1062.27664073049
20
1975.89628022884
30
0.000136100641126202
11
1061.86242716811
21
1975.57844298365
31
0.000135976240562913
  0
LINE
 8
GROUP0
10
1062.75900264028
20
1976.09608107385
30
0.000136217171101705
11
1062.27664073049
21
1975.89628022884
31
0.000136100641126202
  0
LINE
 8
GROUP0
10
1063.27664073049
20
1976.16422942127
30
0.000136317889799381
11
1062.75900264028
21
1976.09608107385
31
0.000136217171101705
  0
LINE
 8
GROUP0
10
1063.79427882069
20
1976.09608107385
30
0.000136395932251232
11
1063.27664073049
21
1976.16422942127
31
0.000136317889799381
  0
LINE
 8
GROUP0
10
1064.27664073049
20
1975.89628022884
30
0.000136445981170052
11
1063.79427882069
21
1976.09608107385
31
0.000136395932251232
  0
LINE
 8
GROUP0
10
1064.69085429286
20
1975.57844298365
30
0.000136464625188809
11
1064.27664073049
21
1975.89628022884
31
0.000136445981170052
  0
LINE
 8
GROUP0
10
1065.00869153806
20
1975.16422942127
30
0.000136450593546006
11
1064.69085429286
21
1975.57844298365
31
0.000136464625188809
  0
LINE
 8
GROUP0
10
1065.20849238307
20
1974.68186751148
30
0.000136404842777094
11
1065.00869153806
21
1975.16422942127
31
0.000136450593546006
  0
LINE
 8
GROUP0
10
1065.27664073049
20
1974.16422942127
30
0.000136330490411418
11
1065.20849238307
21
1974.68186751148
31
0.000136404842777094
  0
LINE
 8
GROUP0
10
1065.20849238307
20
1973.64659133107
30
0.000136232603732761
11
1065.27664073049
21
1974.16422942127
31
0.000136330490411418
  0
LINE
 8
GROUP0
10
1065.00869153806
20
1973.16422942127
30
0.000136117854114193
11
1065.20849238307
21
1973.64659133107
31
0.000136232603732761
  0
LINE
 8
GROUP0
10
1064.69085429286
20
1972.7500158589
30
0.000135994060171518
11
1065.00869153806
21
1973.16422942127
31
0.000136117854114193
  0
LINE
 8
GROUP0
10
1064.27664073049
20
1972.43217861371
30
0.000135869659608229
11
1064.69085429286
21
1972.7500158589
31
0.000135994060171518
  0
LINE
 8
GROUP0
10
1063.79427882069
20
1972.2323777687
30
0.000135753129632726
11
1064.27664073049
21
1972.43217861371
31
0.000135869659608229
  0
LINE
 8
GROUP0
10
1063.27664073049
20
1972.16422942127
30
0.00013565241093505
11
1063.79427882069
21
1972.2323777687
31
0.000135753129632726
  0
LINE
 8
GROUP0
10
1062.75900264028
20
1972.2323777687
30
0.000135574368483199
11
1063.27664073049
21
1972.16422942127
31
0.00013565241093505
 0
ENDSEC
 0
EOF
