 0
SECTION
 2
ENTITIES
  0
LINE
 8
GROUP0
10
1188.52360471799
20
1953.9004110734
30
0.000135006152965789
11
869.523604718156
21
1953.9004110734
31
0.000147217086823448
  0
LINE
 8
GROUP0
10
1188.52360471799
20
1978.9004110734
30
0.000133279454310914
11
1188.52360471799
21
1953.9004110734
31
0.000135006152965789
  0
LINE
 8
GROUP0
10
1188.52360471799
20
1978.9004110734
30
0.000133279454310914
11
1198.52360471799
21
1978.9004110734
31
0.000135006148032962
  0
LINE
 8
GROUP0
10
1223.52360471799
20
2003.90042844354
30
0.000107199301320215
11
1198.52360471799
21
1978.9004110734
31
0.000135006148032962
  0
LINE
 8
GROUP0
10
1223.52360471799
20
2013.90042844354
30
0.000107199301657201
11
1223.52360471799
21
2003.90042844354
31
0.000107199301320215
  0
LINE
 8
GROUP0
10
1198.52360471799
20
2038.90044581367
30
7.82959155347818e-005
11
1223.52360471799
21
2013.90042844354
31
0.000107199301657201
  0
LINE
 8
GROUP0
10
1188.52360471799
20
2038.90044581367
30
7.65692218127334e-005
11
1198.52360471799
21
2038.90044581367
31
7.82959155347818e-005
  0
LINE
 8
GROUP0
10
1188.52360471799
20
2043.9004110734
30
0.000135006156720574
11
1188.52360471799
21
2038.90044581367
31
7.65692218127334e-005
  0
LINE
 8
GROUP0
10
1146.52419737451
20
2043.9004110734
30
0.000150342850075158
11
1188.52360471799
21
2043.9004110734
31
0.000135006156720574
  0
LINE
 8
GROUP0
10
1146.52419737451
20
2063.90042809334
30
0.00015034285074913
11
1146.52419737451
21
2043.9004110734
31
0.000150342850075158
  0
LINE
 8
GROUP0
10
911.523267129233
20
2063.90044312212
30
4.22373845098356e-005
11
1146.52419737451
21
2063.90042809334
31
0.00015034285074913
  0
LINE
 8
GROUP0
10
911.523267129233
20
2043.90044312212
30
4.22373838358636e-005
11
911.523267129233
21
2063.90044312212
31
4.22373845098356e-005
  0
LINE
 8
GROUP0
10
869.523604718156
20
2043.90044581367
30
8.71709604194803e-005
11
911.523267129233
21
2043.90044312212
31
4.22373838358636e-005
  0
LINE
 8
GROUP0
10
869.523604718156
20
2038.90044581367
30
9.05068551677324e-005
11
869.523604718156
21
2043.90044581367
31
8.71709604194803e-005
  0
LINE
 8
GROUP0
10
869.523604718156
20
2038.90044581367
30
9.05068551677324e-005
11
859.523604718156
21
2038.90044581367
31
8.87801542265698e-005
  0
LINE
 8
GROUP0
10
834.523604718156
20
2013.90042844353
30
0.000116497006017935
11
859.523604718156
21
2038.90044581367
31
8.87801542265698e-005
  0
LINE
 8
GROUP0
10
834.523604718156
20
2003.90042844353
30
0.000116497005680949
11
834.523604718156
21
2013.90042844353
31
0.000116497006017935
  0
LINE
 8
GROUP0
10
859.523604718155
20
1978.9004110734
30
0.00014549038167137
11
834.523604718156
21
2003.90042844353
31
0.000116497005680949
  0
LINE
 8
GROUP0
10
869.523604718155
20
1978.9004110734
30
0.000147217087665913
11
859.523604718155
21
1978.9004110734
31
0.00014549038167137
  0
LINE
 8
GROUP0
10
869.523604718156
20
1953.9004110734
30
0.000147217086823448
11
869.523604718155
21
1978.9004110734
31
0.000147217087665913
  0
LINE
 8
GROUP0
10
1127.04183546478
20
2051.96856742199
30
0.00027641535050732
11
1127.52419737458
21
2052.168368267
31
0.000276536091642404
  0
LINE
 8
GROUP0
10
1126.52419737458
20
2051.90041907457
30
0.000276313195707167
11
1127.04183546478
21
2051.96856742199
31
0.00027641535050732
  0
LINE
 8
GROUP0
10
1126.00655928437
20
2051.96856742199
30
0.000276236589357792
11
1126.52419737458
21
2051.90041907457
31
0.000276313195707167
  0
LINE
 8
GROUP0
10
1125.52419737458
20
2052.168368267
30
0.000276190750876643
11
1126.00655928437
21
2051.96856742199
31
0.000276236589357792
  0
LINE
 8
GROUP0
10
1125.1099838122
20
2052.4862055122
30
0.000276178804697047
11
1125.52419737458
21
2052.168368267
31
0.000276190750876643
  0
LINE
 8
GROUP0
10
1124.79214656701
20
2052.90041907457
30
0.000276201565134382
11
1125.1099838122
21
2052.4862055122
31
0.000276178804697047
  0
LINE
 8
GROUP0
10
1124.592345722
20
2053.38278098436
30
0.000276257480799597
11
1124.79214656701
21
2052.90041907457
31
0.000276201565134382
  0
LINE
 8
GROUP0
10
1124.52419737458
20
2053.90041907457
30
0.000276342747940717
11
1124.592345722
21
2053.38278098436
31
0.000276257480799597
  0
LINE
 8
GROUP0
10
1124.592345722
20
2054.41805716477
30
0.000276451536399708
11
1124.52419737458
21
2053.90041907457
31
0.000276342747940717
  0
LINE
 8
GROUP0
10
1124.79214656701
20
2054.90041907457
30
0.000276576450914578
11
1124.592345722
21
2054.41805716477
31
0.000276451536399708
  0
LINE
 8
GROUP0
10
1125.1099838122
20
2055.31463263694
30
0.000276708973651785
11
1124.79214656701
21
2054.90041907457
31
0.000276576450914578
  0
LINE
 8
GROUP0
10
1125.52419737458
20
2055.63246988214
30
0.000276840072054235
11
1125.1099838122
21
2055.31463263694
31
0.000276708973651785
  0
LINE
 8
GROUP0
10
1126.00655928437
20
2055.83227072715
30
0.000276960812467408
11
1125.52419737458
21
2055.63246988214
31
0.000276840072054235
  0
LINE
 8
GROUP0
10
1126.52419737458
20
2055.90041907457
30
0.000277062967989472
11
1126.00655928437
21
2055.83227072715
31
0.000276960812467408
  0
LINE
 8
GROUP0
10
1127.04183546478
20
2055.83227072715
30
0.000277139574338847
11
1126.52419737458
21
2055.90041907457
31
0.000277062967989472
  0
LINE
 8
GROUP0
10
1127.52419737458
20
2055.63246988214
30
0.000277185412819997
11
1127.04183546478
21
2055.83227072715
31
0.000277139574338847
  0
LINE
 8
GROUP0
10
1127.93841093695
20
2055.31463263694
30
0.000277197358999592
11
1127.52419737458
21
2055.63246988214
31
0.000277185412819997
  0
LINE
 8
GROUP0
10
1128.25624818215
20
2054.90041907457
30
0.000277174598562258
11
1127.93841093695
21
2055.31463263694
31
0.000277197358999592
  0
LINE
 8
GROUP0
10
1128.45604902715
20
2054.41805716477
30
0.000277118682897043
11
1128.25624818215
21
2054.90041907457
31
0.000277174598562258
  0
LINE
 8
GROUP0
10
1128.52419737458
20
2053.90041907457
30
0.000277033422253126
11
1128.45604902715
21
2054.41805716477
31
0.000277118682897043
  0
LINE
 8
GROUP0
10
1128.45604902716
20
2053.38278098436
30
0.000276924627296932
11
1128.52419737458
21
2053.90041907457
31
0.000277033422253126
  0
LINE
 8
GROUP0
10
1128.25624818215
20
2052.90041907457
30
0.000276799712782061
11
1128.45604902716
21
2053.38278098436
31
0.000276924627296932
  0
LINE
 8
GROUP0
10
1127.93841093695
20
2052.4862055122
30
0.000276667190044855
11
1128.25624818215
21
2052.90041907457
31
0.000276799712782061
  0
LINE
 8
GROUP0
10
1127.52419737458
20
2052.168368267
30
0.000276536091642404
11
1127.93841093695
21
2052.4862055122
31
0.000276667190044855
  0
LINE
 8
GROUP0
10
931.523267129378
20
2055.90038214356
30
0.000309308536997654
11
931.005629039172
21
2055.83223379614
31
0.000309206382197502
  0
LINE
 8
GROUP0
10
932.040905219582
20
2055.83223379614
30
0.00030938514334703
11
931.523267129378
21
2055.90038214356
31
0.000309308536997654
  0
LINE
 8
GROUP0
10
932.523267129377
20
2055.63243295113
30
0.000309430981828179
11
932.040905219582
21
2055.83223379614
31
0.00030938514334703
  0
LINE
 8
GROUP0
10
932.93748069175
20
2055.31459570593
30
0.000309442928007775
11
932.523267129377
21
2055.63243295113
31
0.000309430981828179
  0
LINE
 8
GROUP0
10
933.255317936946
20
2054.90038214356
30
0.00030942016757044
11
932.93748069175
21
2055.31459570593
31
0.000309442928007775
  0
LINE
 8
GROUP0
10
933.455118781956
20
2054.41802023377
30
0.000309364251905225
11
933.255317936946
21
2054.90038214356
31
0.00030942016757044
  0
LINE
 8
GROUP0
10
933.523267129377
20
2053.90038214356
30
0.000309278991261308
11
933.455118781956
21
2054.41802023377
31
0.000309364251905225
  0
LINE
 8
GROUP0
10
933.455118781956
20
2053.38274405336
30
0.000309170196305114
11
933.523267129377
21
2053.90038214356
31
0.000309278991261308
  0
LINE
 8
GROUP0
10
933.255317936946
20
2052.90038214356
30
0.000309045281790243
11
933.455118781956
21
2053.38274405336
31
0.000309170196305114
  0
LINE
 8
GROUP0
10
932.93748069175
20
2052.48616858119
30
0.000308912759053037
11
933.255317936946
21
2052.90038214356
31
0.000309045281790243
  0
LINE
 8
GROUP0
10
932.523267129377
20
2052.16833133599
30
0.000308781660650587
11
932.93748069175
21
2052.48616858119
31
0.000308912759053037
  0
LINE
 8
GROUP0
10
932.040905219582
20
2051.96853049098
30
0.000308660920237414
11
932.523267129377
21
2052.16833133599
31
0.000308781660650587
  0
LINE
 8
GROUP0
10
931.523267129378
20
2051.90038214356
30
0.000308558765437261
11
932.040905219582
21
2051.96853049098
31
0.000308660920237414
  0
LINE
 8
GROUP0
10
931.005629039173
20
2051.96853049098
30
0.000308482159087886
11
931.523267129378
21
2051.90038214356
31
0.000308558765437261
  0
LINE
 8
GROUP0
10
930.523267129378
20
2052.16833133599
30
0.000308436320606736
11
931.005629039173
21
2051.96853049098
31
0.000308482159087886
  0
LINE
 8
GROUP0
10
930.109053567005
20
2052.48616858119
30
0.000308424374427141
11
930.523267129378
21
2052.16833133599
31
0.000308436320606736
  0
LINE
 8
GROUP0
10
929.791216321809
20
2052.90038214356
30
0.000308447134864476
11
930.109053567005
21
2052.48616858119
31
0.000308424374427141
  0
LINE
 8
GROUP0
10
929.591415476799
20
2053.38274405336
30
0.00030850305052969
11
929.791216321809
21
2052.90038214356
31
0.000308447134864476
  0
LINE
 8
GROUP0
10
929.523267129377
20
2053.90038214356
30
0.000308588311173608
11
929.591415476799
21
2053.38274405336
31
0.00030850305052969
  0
LINE
 8
GROUP0
10
929.591415476799
20
2054.41802023377
30
0.000308697106129802
11
929.523267129377
21
2053.90038214356
31
0.000308588311173608
  0
LINE
 8
GROUP0
10
929.791216321809
20
2054.90038214356
30
0.000308822020644672
11
929.591415476799
21
2054.41802023377
31
0.000308697106129802
  0
LINE
 8
GROUP0
10
930.109053567005
20
2055.31459570593
30
0.000308954543381879
11
929.791216321809
21
2054.90038214356
31
0.000308822020644672
  0
LINE
 8
GROUP0
10
930.523267129378
20
2055.63243295113
30
0.000309085641784329
11
930.109053567005
21
2055.31459570593
31
0.000308954543381879
  0
LINE
 8
GROUP0
10
931.005629039172
20
2055.83223379614
30
0.000309206382197502
11
930.523267129378
21
2055.63243295113
31
0.000309085641784329
  0
LINE
 8
GROUP0
10
887.005486731263
20
1964.9004110734
30
0.000142800937745657
11
886.687649486067
21
1965.31462463577
31
0.000142823698182992
  0
LINE
 8
GROUP0
10
887.205287576273
20
1964.4180491636
30
0.000142745022080443
11
887.005486731263
21
1964.9004110734
31
0.000142800937745657
  0
LINE
 8
GROUP0
10
887.273435923694
20
1963.9004110734
30
0.000142659761436525
11
887.205287576273
21
1964.4180491636
31
0.000142745022080443
  0
LINE
 8
GROUP0
10
887.205287576273
20
1963.38277298319
30
0.000142550966480332
11
887.273435923694
21
1963.9004110734
31
0.000142659761436525
  0
LINE
 8
GROUP0
10
887.005486731263
20
1962.9004110734
30
0.000142426051965461
11
887.205287576273
21
1963.38277298319
31
0.000142550966480332
  0
LINE
 8
GROUP0
10
886.687649486068
20
1962.48619751103
30
0.000142293529228255
11
887.005486731263
21
1962.9004110734
31
0.000142426051965461
  0
LINE
 8
GROUP0
10
886.273435923695
20
1962.16836026583
30
0.000142162430825804
11
886.687649486068
21
1962.48619751103
31
0.000142293529228255
  0
LINE
 8
GROUP0
10
885.7910740139
20
1961.96855942082
30
0.000142041690412631
11
886.273435923695
21
1962.16836026583
31
0.000142162430825804
  0
LINE
 8
GROUP0
10
885.273435923695
20
1961.9004110734
30
0.000141939535612479
11
885.7910740139
21
1961.96855942082
31
0.000142041690412631
  0
LINE
 8
GROUP0
10
884.75579783349
20
1961.96855942082
30
0.000141862929263104
11
885.273435923695
21
1961.9004110734
31
0.000141939535612479
  0
LINE
 8
GROUP0
10
884.273435923695
20
1962.16836026583
30
0.000141817090781954
11
884.75579783349
21
1961.96855942082
31
0.000141862929263104
  0
LINE
 8
GROUP0
10
883.859222361321
20
1962.48619751103
30
0.000141805143880447
11
884.273435923695
21
1962.16836026583
31
0.000141817090781954
  0
LINE
 8
GROUP0
10
883.541385116126
20
1962.9004110734
30
0.000141827904317782
11
883.859222361321
21
1962.48619751103
31
0.000141805143880447
  0
LINE
 8
GROUP0
10
883.341584271117
20
1963.38277298319
30
0.000141883819982996
11
883.541385116126
21
1962.9004110734
31
0.000141827904317782
  0
LINE
 8
GROUP0
10
883.273435923695
20
1963.9004110734
30
0.000141969080626914
11
883.341584271117
21
1963.38277298319
31
0.000141883819982996
  0
LINE
 8
GROUP0
10
883.341584271117
20
1964.4180491636
30
0.000142077875583108
11
883.273435923695
21
1963.9004110734
31
0.000141969080626914
  0
LINE
 8
GROUP0
10
883.541385116126
20
1964.9004110734
30
0.00014220279081989
11
883.341584271117
21
1964.4180491636
31
0.000142077875583108
  0
LINE
 8
GROUP0
10
883.859222361321
20
1965.31462463577
30
0.000142335313557096
11
883.541385116126
21
1964.9004110734
31
0.00014220279081989
  0
LINE
 8
GROUP0
10
884.273435923694
20
1965.63246188097
30
0.000142466411959546
11
883.859222361321
21
1965.31462463577
31
0.000142335313557096
  0
LINE
 8
GROUP0
10
884.75579783349
20
1965.83226272598
30
0.00014258715237272
11
884.273435923694
21
1965.63246188097
31
0.000142466411959546
  0
LINE
 8
GROUP0
10
885.273435923694
20
1965.9004110734
30
0.000142689307172872
11
884.75579783349
21
1965.83226272598
31
0.00014258715237272
  0
LINE
 8
GROUP0
10
885.791074013899
20
1965.83226272598
30
0.000142765913522247
11
885.273435923694
21
1965.9004110734
31
0.000142689307172872
  0
LINE
 8
GROUP0
10
886.273435923694
20
1965.63246188097
30
0.000142811752003397
11
885.791074013899
21
1965.83226272598
31
0.000142765913522247
  0
LINE
 8
GROUP0
10
886.687649486067
20
1965.31462463577
30
0.000142823698182992
11
886.273435923694
21
1965.63246188097
31
0.000142811752003397
  0
LINE
 8
GROUP0
10
1174.18764948546
20
1965.31462463527
30
1.01855430254538e-006
11
1173.77343592323
21
1965.63246188033
31
1.00660812294984e-006
  0
LINE
 8
GROUP0
10
1174.50548673054
20
1964.90041107306
30
9.95793865210537e-007
11
1174.18764948546
21
1965.31462463527
31
1.01855430254538e-006
  0
LINE
 8
GROUP0
10
1174.70528757548
20
1964.41804916345
30
9.39878199995858e-007
11
1174.50548673054
21
1964.90041107306
31
9.95793865210537e-007
  0
LINE
 8
GROUP0
10
1174.77343592289
20
1963.90041107345
30
8.5461755607863e-007
11
1174.70528757548
21
1964.41804916345
31
9.39878199995858e-007
  0
LINE
 8
GROUP0
10
1174.70528757551
20
1963.38277298344
30
7.45822599884649e-007
11
1174.77343592289
21
1963.90041107345
31
8.5461755607863e-007
  0
LINE
 8
GROUP0
10
1174.50548673059
20
1962.90041107382
30
6.20908085013916e-007
11
1174.70528757551
21
1963.38277298344
31
7.45822599884649e-007
  0
LINE
 8
GROUP0
10
1174.18764948552
20
1962.4861975116
30
4.88385347807707e-007
11
1174.50548673059
21
1962.90041107382
31
6.20908085013916e-007
  0
LINE
 8
GROUP0
10
1173.77343592331
20
1962.16836026652
30
3.57286945357194e-007
11
1174.18764948552
21
1962.4861975116
31
4.88385347807707e-007
  0
LINE
 8
GROUP0
10
1173.29107401371
20
1961.96855942157
30
2.36546532184079e-007
11
1173.77343592331
21
1962.16836026652
31
3.57286945357194e-007
  0
LINE
 8
GROUP0
10
1172.7734359237
20
1961.90041107416
30
1.3439173203178e-007
11
1173.29107401371
21
1961.96855942157
31
2.36546532184079e-007
  0
LINE
 8
GROUP0
10
1172.25579783369
20
1961.96855942155
30
5.77846607452415e-008
11
1172.7734359237
21
1961.90041107416
31
1.3439173203178e-007
  0
LINE
 8
GROUP0
10
1171.77343592408
20
1962.16836026647
30
1.19461795955456e-008
11
1172.25579783369
21
1961.96855942155
31
5.77846607452415e-008
  0
LINE
 8
GROUP0
10
1171.35922236186
20
1962.48619751154
30
0.0
11
1171.77343592408
21
1962.16836026647
31
1.19461795955456e-008
  0
LINE
 8
GROUP0
10
1171.04138511677
20
1962.90041107374
30
2.27604373348456e-008
11
1171.35922236186
21
1962.48619751154
31
0.0
  0
LINE
 8
GROUP0
10
1170.84158427183
20
1963.38277298335
30
7.86761025495242e-008
11
1171.04138511677
21
1962.90041107374
31
2.27604373348456e-008
  0
LINE
 8
GROUP0
10
1170.77343592442
20
1963.90041107335
30
1.63936746466753e-007
11
1170.84158427183
21
1963.38277298335
31
7.86761025495242e-008
  0
LINE
 8
GROUP0
10
1170.8415842718
20
1964.41804916336
30
2.72731702660733e-007
11
1170.77343592442
21
1963.90041107335
31
1.63936746466753e-007
  0
LINE
 8
GROUP0
10
1171.04138511673
20
1964.90041107298
30
3.97646217531467e-007
11
1170.8415842718
21
1964.41804916336
31
2.72731702660733e-007
  0
LINE
 8
GROUP0
10
1171.35922236179
20
1965.3146246352
30
5.30168954737675e-007
11
1171.04138511673
21
1964.90041107298
31
3.97646217531467e-007
  0
LINE
 8
GROUP0
10
1171.773435924
20
1965.63246188028
30
6.61267357188189e-007
11
1171.35922236179
21
1965.3146246352
31
5.30168954737675e-007
  0
LINE
 8
GROUP0
10
1172.2557978336
20
1965.83226272523
30
7.82008492272723e-007
11
1171.773435924
21
1965.63246188028
31
6.61267357188189e-007
  0
LINE
 8
GROUP0
10
1172.77343592361
20
1965.90041107264
30
8.84163292425022e-007
11
1172.2557978336
21
1965.83226272523
31
7.82008492272723e-007
  0
LINE
 8
GROUP0
10
1173.29107401362
20
1965.83226272525
30
9.60769641800141e-007
11
1172.77343592361
21
1965.90041107264
31
8.84163292425022e-007
  0
LINE
 8
GROUP0
10
1173.77343592323
20
1965.63246188033
30
1.00660812294984e-006
11
1173.29107401362
21
1965.83226272525
31
9.60769641800141e-007
 0
ENDSEC
 0
EOF
