 0
SECTION
 2
ENTITIES
  0
LINE
 8
GROUP0
10
778.396604717986
20
1953.9004110734
30
0.000135006152965789
11
459.396604718156
21
1953.9004110734
31
0.000147217086823448
  0
LINE
 8
GROUP0
10
778.396604717986
20
1978.9004110734
30
0.000133279454310914
11
778.396604717986
21
1953.9004110734
31
0.000135006152965789
  0
LINE
 8
GROUP0
10
778.396604717986
20
1978.9004110734
30
0.000133279454310914
11
788.396604717985
21
1978.9004110734
31
0.000135006148032962
  0
LINE
 8
GROUP0
10
813.396604717985
20
2003.90042844354
30
0.000107199301320215
11
788.396604717985
21
1978.9004110734
31
0.000135006148032962
  0
LINE
 8
GROUP0
10
813.396604717985
20
2013.90042844354
30
0.000107199301657201
11
813.396604717985
21
2003.90042844354
31
0.000107199301320215
  0
LINE
 8
GROUP0
10
788.396604717986
20
2038.90044581367
30
7.82959155347818e-005
11
813.396604717985
21
2013.90042844354
31
0.000107199301657201
  0
LINE
 8
GROUP0
10
778.396604717986
20
2038.90044581367
30
7.65692218127334e-005
11
788.396604717986
21
2038.90044581367
31
7.82959155347818e-005
  0
LINE
 8
GROUP0
10
778.396604717986
20
2043.9004110734
30
0.000135006156720574
11
778.396604717986
21
2038.90044581367
31
7.65692218127334e-005
  0
LINE
 8
GROUP0
10
736.397197374509
20
2043.9004110734
30
0.000150342850075158
11
778.396604717986
21
2043.9004110734
31
0.000135006156720574
  0
LINE
 8
GROUP0
10
736.397197374509
20
2063.90042809334
30
0.00015034285074913
11
736.397197374509
21
2043.9004110734
31
0.000150342850075158
  0
LINE
 8
GROUP0
10
501.396267129234
20
2063.90044312212
30
4.22373845098356e-005
11
736.397197374509
21
2063.90042809334
31
0.00015034285074913
  0
LINE
 8
GROUP0
10
501.396267129233
20
2043.90044312212
30
4.22373838358636e-005
11
501.396267129234
21
2063.90044312212
31
4.22373845098356e-005
  0
LINE
 8
GROUP0
10
459.396604718156
20
2043.90044581367
30
8.71709604194803e-005
11
501.396267129233
21
2043.90044312212
31
4.22373838358636e-005
  0
LINE
 8
GROUP0
10
459.396604718156
20
2038.90044581367
30
9.05068551677324e-005
11
459.396604718156
21
2043.90044581367
31
8.71709604194803e-005
  0
LINE
 8
GROUP0
10
459.396604718156
20
2038.90044581367
30
9.05068551677324e-005
11
449.396604718156
21
2038.90044581367
31
8.87801542265698e-005
  0
LINE
 8
GROUP0
10
424.396604718156
20
2013.90042844353
30
0.000116497006017935
11
449.396604718156
21
2038.90044581367
31
8.87801542265698e-005
  0
LINE
 8
GROUP0
10
424.396604718156
20
2003.90042844353
30
0.000116497005680949
11
424.396604718156
21
2013.90042844353
31
0.000116497006017935
  0
LINE
 8
GROUP0
10
449.396604718155
20
1978.9004110734
30
0.00014549038167137
11
424.396604718156
21
2003.90042844353
31
0.000116497005680949
  0
LINE
 8
GROUP0
10
459.396604718155
20
1978.9004110734
30
0.000147217087665913
11
449.396604718155
21
1978.9004110734
31
0.00014549038167137
  0
LINE
 8
GROUP0
10
459.396604718156
20
1953.9004110734
30
0.000147217086823448
11
459.396604718155
21
1978.9004110734
31
0.000147217087665913
  0
LINE
 8
GROUP0
10
716.914835464782
20
2051.96856742199
30
0.00027641535050732
11
717.397197374577
21
2052.168368267
31
0.000276536091642404
  0
LINE
 8
GROUP0
10
716.397197374577
20
2051.90041907457
30
0.000276313195707167
11
716.914835464782
21
2051.96856742199
31
0.00027641535050732
  0
LINE
 8
GROUP0
10
715.879559284372
20
2051.96856742199
30
0.000276236589357792
11
716.397197374577
21
2051.90041907457
31
0.000276313195707167
  0
LINE
 8
GROUP0
10
715.397197374577
20
2052.168368267
30
0.000276190750876643
11
715.879559284372
21
2051.96856742199
31
0.000276236589357792
  0
LINE
 8
GROUP0
10
714.982983812204
20
2052.4862055122
30
0.000276178804697047
11
715.397197374577
21
2052.168368267
31
0.000276190750876643
  0
LINE
 8
GROUP0
10
714.665146567008
20
2052.90041907457
30
0.000276201565134382
11
714.982983812204
21
2052.4862055122
31
0.000276178804697047
  0
LINE
 8
GROUP0
10
714.465345721999
20
2053.38278098436
30
0.000276257480799597
11
714.665146567008
21
2052.90041907457
31
0.000276201565134382
  0
LINE
 8
GROUP0
10
714.397197374577
20
2053.90041907457
30
0.000276342747940717
11
714.465345721999
21
2053.38278098436
31
0.000276257480799597
  0
LINE
 8
GROUP0
10
714.465345721998
20
2054.41805716477
30
0.000276451536399708
11
714.397197374577
21
2053.90041907457
31
0.000276342747940717
  0
LINE
 8
GROUP0
10
714.665146567009
20
2054.90041907457
30
0.000276576450914578
11
714.465345721998
21
2054.41805716477
31
0.000276451536399708
  0
LINE
 8
GROUP0
10
714.982983812204
20
2055.31463263694
30
0.000276708973651785
11
714.665146567009
21
2054.90041907457
31
0.000276576450914578
  0
LINE
 8
GROUP0
10
715.397197374577
20
2055.63246988214
30
0.000276840072054235
11
714.982983812204
21
2055.31463263694
31
0.000276708973651785
  0
LINE
 8
GROUP0
10
715.879559284372
20
2055.83227072715
30
0.000276960812467408
11
715.397197374577
21
2055.63246988214
31
0.000276840072054235
  0
LINE
 8
GROUP0
10
716.397197374577
20
2055.90041907457
30
0.000277062967989472
11
715.879559284372
21
2055.83227072715
31
0.000276960812467408
  0
LINE
 8
GROUP0
10
716.914835464782
20
2055.83227072715
30
0.000277139574338847
11
716.397197374577
21
2055.90041907457
31
0.000277062967989472
  0
LINE
 8
GROUP0
10
717.397197374577
20
2055.63246988214
30
0.000277185412819997
11
716.914835464782
21
2055.83227072715
31
0.000277139574338847
  0
LINE
 8
GROUP0
10
717.811410936951
20
2055.31463263694
30
0.000277197358999592
11
717.397197374577
21
2055.63246988214
31
0.000277185412819997
  0
LINE
 8
GROUP0
10
718.129248182146
20
2054.90041907457
30
0.000277174598562258
11
717.811410936951
21
2055.31463263694
31
0.000277197358999592
  0
LINE
 8
GROUP0
10
718.329049027155
20
2054.41805716477
30
0.000277118682897043
11
718.129248182146
21
2054.90041907457
31
0.000277174598562258
  0
LINE
 8
GROUP0
10
718.397197374577
20
2053.90041907457
30
0.000277033422253126
11
718.329049027155
21
2054.41805716477
31
0.000277118682897043
  0
LINE
 8
GROUP0
10
718.329049027155
20
2053.38278098436
30
0.000276924627296932
11
718.397197374577
21
2053.90041907457
31
0.000277033422253126
  0
LINE
 8
GROUP0
10
718.129248182146
20
2052.90041907457
30
0.000276799712782061
11
718.329049027155
21
2053.38278098436
31
0.000276924627296932
  0
LINE
 8
GROUP0
10
717.81141093695
20
2052.4862055122
30
0.000276667190044855
11
718.129248182146
21
2052.90041907457
31
0.000276799712782061
  0
LINE
 8
GROUP0
10
717.397197374577
20
2052.168368267
30
0.000276536091642404
11
717.81141093695
21
2052.4862055122
31
0.000276667190044855
  0
LINE
 8
GROUP0
10
521.396267129378
20
2055.90038214356
30
0.000309308536997654
11
520.878629039172
21
2055.83223379614
31
0.000309206382197502
  0
LINE
 8
GROUP0
10
521.913905219582
20
2055.83223379614
30
0.00030938514334703
11
521.396267129378
21
2055.90038214356
31
0.000309308536997654
  0
LINE
 8
GROUP0
10
522.396267129378
20
2055.63243295113
30
0.000309430981828179
11
521.913905219582
21
2055.83223379614
31
0.00030938514334703
  0
LINE
 8
GROUP0
10
522.81048069175
20
2055.31459570593
30
0.000309442928007775
11
522.396267129378
21
2055.63243295113
31
0.000309430981828179
  0
LINE
 8
GROUP0
10
523.128317936946
20
2054.90038214356
30
0.00030942016757044
11
522.81048069175
21
2055.31459570593
31
0.000309442928007775
  0
LINE
 8
GROUP0
10
523.328118781956
20
2054.41802023377
30
0.000309364251905225
11
523.128317936946
21
2054.90038214356
31
0.00030942016757044
  0
LINE
 8
GROUP0
10
523.396267129377
20
2053.90038214356
30
0.000309278991261308
11
523.328118781956
21
2054.41802023377
31
0.000309364251905225
  0
LINE
 8
GROUP0
10
523.328118781956
20
2053.38274405336
30
0.000309170196305114
11
523.396267129377
21
2053.90038214356
31
0.000309278991261308
  0
LINE
 8
GROUP0
10
523.128317936946
20
2052.90038214356
30
0.000309045281790243
11
523.328118781956
21
2053.38274405336
31
0.000309170196305114
  0
LINE
 8
GROUP0
10
522.810480691751
20
2052.48616858119
30
0.000308912759053037
11
523.128317936946
21
2052.90038214356
31
0.000309045281790243
  0
LINE
 8
GROUP0
10
522.396267129377
20
2052.16833133599
30
0.000308781660650587
11
522.810480691751
21
2052.48616858119
31
0.000308912759053037
  0
LINE
 8
GROUP0
10
521.913905219582
20
2051.96853049098
30
0.000308660920237414
11
522.396267129377
21
2052.16833133599
31
0.000308781660650587
  0
LINE
 8
GROUP0
10
521.396267129378
20
2051.90038214356
30
0.000308558765437261
11
521.913905219582
21
2051.96853049098
31
0.000308660920237414
  0
LINE
 8
GROUP0
10
520.878629039173
20
2051.96853049098
30
0.000308482159087886
11
521.396267129378
21
2051.90038214356
31
0.000308558765437261
  0
LINE
 8
GROUP0
10
520.396267129378
20
2052.16833133599
30
0.000308436320606736
11
520.878629039173
21
2051.96853049098
31
0.000308482159087886
  0
LINE
 8
GROUP0
10
519.982053567005
20
2052.48616858119
30
0.000308424374427141
11
520.396267129378
21
2052.16833133599
31
0.000308436320606736
  0
LINE
 8
GROUP0
10
519.664216321809
20
2052.90038214356
30
0.000308447134864476
11
519.982053567005
21
2052.48616858119
31
0.000308424374427141
  0
LINE
 8
GROUP0
10
519.464415476799
20
2053.38274405336
30
0.00030850305052969
11
519.664216321809
21
2052.90038214356
31
0.000308447134864476
  0
LINE
 8
GROUP0
10
519.396267129377
20
2053.90038214356
30
0.000308588311173608
11
519.464415476799
21
2053.38274405336
31
0.00030850305052969
  0
LINE
 8
GROUP0
10
519.464415476799
20
2054.41802023377
30
0.000308697106129802
11
519.396267129377
21
2053.90038214356
31
0.000308588311173608
  0
LINE
 8
GROUP0
10
519.664216321809
20
2054.90038214356
30
0.000308822020644672
11
519.464415476799
21
2054.41802023377
31
0.000308697106129802
  0
LINE
 8
GROUP0
10
519.982053567005
20
2055.31459570593
30
0.000308954543381879
11
519.664216321809
21
2054.90038214356
31
0.000308822020644672
  0
LINE
 8
GROUP0
10
520.396267129378
20
2055.63243295113
30
0.000309085641784329
11
519.982053567005
21
2055.31459570593
31
0.000308954543381879
  0
LINE
 8
GROUP0
10
520.878629039172
20
2055.83223379614
30
0.000309206382197502
11
520.396267129378
21
2055.63243295113
31
0.000309085641784329
  0
LINE
 8
GROUP0
10
476.878486731263
20
1964.9004110734
30
0.000142800937745657
11
476.560649486067
21
1965.31462463577
31
0.000142823698182992
  0
LINE
 8
GROUP0
10
477.078287576273
20
1964.4180491636
30
0.000142745022080443
11
476.878486731263
21
1964.9004110734
31
0.000142800937745657
  0
LINE
 8
GROUP0
10
477.146435923695
20
1963.9004110734
30
0.000142659761436525
11
477.078287576273
21
1964.4180491636
31
0.000142745022080443
  0
LINE
 8
GROUP0
10
477.078287576273
20
1963.38277298319
30
0.000142550966480332
11
477.146435923695
21
1963.9004110734
31
0.000142659761436525
  0
LINE
 8
GROUP0
10
476.878486731263
20
1962.9004110734
30
0.000142426051965461
11
477.078287576273
21
1963.38277298319
31
0.000142550966480332
  0
LINE
 8
GROUP0
10
476.560649486068
20
1962.48619751103
30
0.000142293529228255
11
476.878486731263
21
1962.9004110734
31
0.000142426051965461
  0
LINE
 8
GROUP0
10
476.146435923695
20
1962.16836026583
30
0.000142162430825804
11
476.560649486068
21
1962.48619751103
31
0.000142293529228255
  0
LINE
 8
GROUP0
10
475.6640740139
20
1961.96855942082
30
0.000142041690412631
11
476.146435923695
21
1962.16836026583
31
0.000142162430825804
  0
LINE
 8
GROUP0
10
475.146435923695
20
1961.9004110734
30
0.000141939535612479
11
475.6640740139
21
1961.96855942082
31
0.000142041690412631
  0
LINE
 8
GROUP0
10
474.62879783349
20
1961.96855942082
30
0.000141862929263104
11
475.146435923695
21
1961.9004110734
31
0.000141939535612479
  0
LINE
 8
GROUP0
10
474.146435923695
20
1962.16836026583
30
0.000141817090781954
11
474.62879783349
21
1961.96855942082
31
0.000141862929263104
  0
LINE
 8
GROUP0
10
473.732222361321
20
1962.48619751103
30
0.000141805143880447
11
474.146435923695
21
1962.16836026583
31
0.000141817090781954
  0
LINE
 8
GROUP0
10
473.414385116126
20
1962.9004110734
30
0.000141827904317782
11
473.732222361321
21
1962.48619751103
31
0.000141805143880447
  0
LINE
 8
GROUP0
10
473.214584271117
20
1963.38277298319
30
0.000141883819982996
11
473.414385116126
21
1962.9004110734
31
0.000141827904317782
  0
LINE
 8
GROUP0
10
473.146435923695
20
1963.9004110734
30
0.000141969080626914
11
473.214584271117
21
1963.38277298319
31
0.000141883819982996
  0
LINE
 8
GROUP0
10
473.214584271117
20
1964.4180491636
30
0.000142077875583108
11
473.146435923695
21
1963.9004110734
31
0.000141969080626914
  0
LINE
 8
GROUP0
10
473.414385116126
20
1964.9004110734
30
0.00014220279081989
11
473.214584271117
21
1964.4180491636
31
0.000142077875583108
  0
LINE
 8
GROUP0
10
473.732222361321
20
1965.31462463577
30
0.000142335313557096
11
473.414385116126
21
1964.9004110734
31
0.00014220279081989
  0
LINE
 8
GROUP0
10
474.146435923695
20
1965.63246188097
30
0.000142466411959546
11
473.732222361321
21
1965.31462463577
31
0.000142335313557096
  0
LINE
 8
GROUP0
10
474.62879783349
20
1965.83226272598
30
0.00014258715237272
11
474.146435923695
21
1965.63246188097
31
0.000142466411959546
  0
LINE
 8
GROUP0
10
475.146435923694
20
1965.9004110734
30
0.000142689307172872
11
474.62879783349
21
1965.83226272598
31
0.00014258715237272
  0
LINE
 8
GROUP0
10
475.664074013899
20
1965.83226272598
30
0.000142765913522247
11
475.146435923694
21
1965.9004110734
31
0.000142689307172872
  0
LINE
 8
GROUP0
10
476.146435923694
20
1965.63246188097
30
0.000142811752003397
11
475.664074013899
21
1965.83226272598
31
0.000142765913522247
  0
LINE
 8
GROUP0
10
476.560649486067
20
1965.31462463577
30
0.000142823698182992
11
476.146435923694
21
1965.63246188097
31
0.000142811752003397
  0
LINE
 8
GROUP0
10
764.060649485456
20
1965.31462463527
30
1.01855430254538e-006
11
763.646435923233
21
1965.63246188033
31
1.00660812294984e-006
  0
LINE
 8
GROUP0
10
764.37848673054
20
1964.90041107306
30
9.95793865210537e-007
11
764.060649485456
21
1965.31462463527
31
1.01855430254538e-006
  0
LINE
 8
GROUP0
10
764.578287575484
20
1964.41804916345
30
9.39878199995858e-007
11
764.37848673054
21
1964.90041107306
31
9.95793865210537e-007
  0
LINE
 8
GROUP0
10
764.646435922891
20
1963.90041107345
30
8.5461755607863e-007
11
764.578287575484
21
1964.41804916345
31
9.39878199995858e-007
  0
LINE
 8
GROUP0
10
764.578287575508
20
1963.38277298344
30
7.45822599884649e-007
11
764.646435922891
21
1963.90041107345
31
8.5461755607863e-007
  0
LINE
 8
GROUP0
10
764.378486730586
20
1962.90041107382
30
6.20908085013916e-007
11
764.578287575508
21
1963.38277298344
31
7.45822599884649e-007
  0
LINE
 8
GROUP0
10
764.060649485521
20
1962.4861975116
30
4.88385347807707e-007
11
764.378486730586
21
1962.90041107382
31
6.20908085013916e-007
  0
LINE
 8
GROUP0
10
763.646435923313
20
1962.16836026652
30
3.57286945357194e-007
11
764.060649485521
21
1962.4861975116
31
4.88385347807707e-007
  0
LINE
 8
GROUP0
10
763.164074013707
20
1961.96855942157
30
2.36546532184079e-007
11
763.646435923313
21
1962.16836026652
31
3.57286945357194e-007
  0
LINE
 8
GROUP0
10
762.646435923701
20
1961.90041107416
30
1.3439173203178e-007
11
763.164074013707
21
1961.96855942157
31
2.36546532184079e-007
  0
LINE
 8
GROUP0
10
762.128797833692
20
1961.96855942155
30
5.77846607452415e-008
11
762.646435923701
21
1961.90041107416
31
1.3439173203178e-007
  0
LINE
 8
GROUP0
10
761.646435924077
20
1962.16836026647
30
1.19461795955456e-008
11
762.128797833692
21
1961.96855942155
31
5.77846607452415e-008
  0
LINE
 8
GROUP0
10
761.232222361855
20
1962.48619751154
30
0.0
11
761.646435924077
21
1962.16836026647
31
1.19461795955456e-008
  0
LINE
 8
GROUP0
10
760.914385116772
20
1962.90041107374
30
2.27604373348456e-008
11
761.232222361855
21
1962.48619751154
31
0.0
  0
LINE
 8
GROUP0
10
760.714584271827
20
1963.38277298335
30
7.86761025495242e-008
11
760.914385116772
21
1962.90041107374
31
2.27604373348456e-008
  0
LINE
 8
GROUP0
10
760.64643592442
20
1963.90041107335
30
1.63936746466753e-007
11
760.714584271827
21
1963.38277298335
31
7.86761025495242e-008
  0
LINE
 8
GROUP0
10
760.714584271804
20
1964.41804916336
30
2.72731702660733e-007
11
760.64643592442
21
1963.90041107335
31
1.63936746466753e-007
  0
LINE
 8
GROUP0
10
760.914385116725
20
1964.90041107298
30
3.97646217531467e-007
11
760.714584271804
21
1964.41804916336
31
2.72731702660733e-007
  0
LINE
 8
GROUP0
10
761.23222236179
20
1965.3146246352
30
5.30168954737675e-007
11
760.914385116725
21
1964.90041107298
31
3.97646217531467e-007
  0
LINE
 8
GROUP0
10
761.646435923998
20
1965.63246188028
30
6.61267357188189e-007
11
761.23222236179
21
1965.3146246352
31
5.30168954737675e-007
  0
LINE
 8
GROUP0
10
762.128797833604
20
1965.83226272523
30
7.82008492272723e-007
11
761.646435923998
21
1965.63246188028
31
6.61267357188189e-007
  0
LINE
 8
GROUP0
10
762.646435923609
20
1965.90041107264
30
8.84163292425022e-007
11
762.128797833604
21
1965.83226272523
31
7.82008492272723e-007
  0
LINE
 8
GROUP0
10
763.164074013618
20
1965.83226272525
30
9.60769641800141e-007
11
762.646435923609
21
1965.90041107264
31
8.84163292425022e-007
  0
LINE
 8
GROUP0
10
763.646435923233
20
1965.63246188033
30
1.00660812294984e-006
11
763.164074013618
21
1965.83226272525
31
9.60769641800141e-007
  0
LINE
 8
GROUP0
10
595.896743058135
20
1983.90043191088
30
0.000432637827645976
11
595.828594710714
21
1984.41807000109
31
0.000432602647476304
  0
LINE
 8
GROUP0
10
595.828594710714
20
1983.38279382067
30
0.000432679414057585
11
595.896743058135
21
1983.90043191088
31
0.000432637827645976
  0
LINE
 8
GROUP0
10
595.628793865705
20
1982.90043191088
30
0.000432724572488308
11
595.828594710714
21
1983.38279382067
31
0.000432679414057585
  0
LINE
 8
GROUP0
10
595.310956620508
20
1982.48621834851
30
0.000432770226152379
11
595.628793865705
21
1982.90043191088
31
0.000432724572488308
  0
LINE
 8
GROUP0
10
594.896743058135
20
1982.16838110331
30
0.00043281326289108
11
595.310956620508
21
1982.48621834851
31
0.000432770226152379
  0
LINE
 8
GROUP0
10
594.414381148341
20
1981.9685802583
30
0.000432850750300928
11
594.896743058135
21
1982.16838110331
31
0.00043281326289108
  0
LINE
 8
GROUP0
10
593.896743058135
20
1981.90043191088
30
0.000432880134258617
11
594.414381148341
21
1981.9685802583
31
0.000432850750300928
  0
LINE
 8
GROUP0
10
593.37910496793
20
1981.9685802583
30
0.000432899410740162
11
593.896743058135
21
1981.90043191088
31
0.000432880134258617
  0
LINE
 8
GROUP0
10
592.896743058135
20
1982.16838110331
30
0.000432907268030397
11
593.37910496793
21
1981.9685802583
31
0.000432899410740162
  0
LINE
 8
GROUP0
10
592.482529495762
20
1982.48621834851
30
0.000432903169027932
11
592.896743058135
21
1982.16838110331
31
0.000432907268030397
  0
LINE
 8
GROUP0
10
592.164692250567
20
1982.90043191088
30
0.000432887394555603
11
592.482529495762
21
1982.48621834851
31
0.000432903169027932
  0
LINE
 8
GROUP0
10
591.964891405558
20
1983.38279382067
30
0.000432861018094283
11
592.164692250567
21
1982.90043191088
31
0.000432887394555603
  0
LINE
 8
GROUP0
10
591.896743058136
20
1983.90043191088
30
0.000432825837924611
11
591.964891405558
21
1983.38279382067
31
0.000432861018094283
  0
LINE
 8
GROUP0
10
591.964891405558
20
1984.41807000109
30
0.000432784251513002
11
591.896743058136
21
1983.90043191088
31
0.000432825837924611
  0
LINE
 8
GROUP0
10
592.164692250566
20
1984.90043191088
30
0.000432739093082279
11
591.964891405558
21
1984.41807000109
31
0.000432784251513002
  0
LINE
 8
GROUP0
10
592.482529495762
20
1985.31464547325
30
0.000432693439418208
11
592.164692250566
21
1984.90043191088
31
0.000432739093082279
  0
LINE
 8
GROUP0
10
592.896743058135
20
1985.63248271845
30
0.000432650402679508
11
592.482529495762
21
1985.31464547325
31
0.000432693439418208
  0
LINE
 8
GROUP0
10
593.37910496793
20
1985.83228356346
30
0.000432612915269659
11
592.896743058135
21
1985.63248271845
31
0.000432650402679508
  0
LINE
 8
GROUP0
10
593.896743058135
20
1985.90043191088
30
0.00043258353131197
11
593.37910496793
21
1985.83228356346
31
0.000432612915269659
  0
LINE
 8
GROUP0
10
594.414381148341
20
1985.83228356346
30
0.000432564254830425
11
593.896743058135
21
1985.90043191088
31
0.00043258353131197
  0
LINE
 8
GROUP0
10
594.896743058136
20
1985.63248271845
30
0.00043255639754019
11
594.414381148341
21
1985.83228356346
31
0.000432564254830425
  0
LINE
 8
GROUP0
10
595.310956620509
20
1985.31464547325
30
0.000432560496542655
11
594.896743058136
21
1985.63248271845
31
0.00043255639754019
  0
LINE
 8
GROUP0
10
595.628793865704
20
1984.90043191088
30
0.000432576271014984
11
595.310956620509
21
1985.31464547325
31
0.000432560496542655
  0
LINE
 8
GROUP0
10
595.828594710714
20
1984.41807000109
30
0.000432602647476304
11
595.628793865704
21
1984.90043191088
31
0.000432576271014984
  0
LINE
 8
GROUP0
10
592.896743058136
20
2035.63249022993
30
0.000424864586095225
11
592.482529495763
21
2035.31465298474
31
0.000424907622833925
  0
LINE
 8
GROUP0
10
593.379104967931
20
2035.83229107494
30
0.000424827098685376
11
592.896743058136
21
2035.63249022993
31
0.000424864586095225
  0
LINE
 8
GROUP0
10
593.896743058136
20
2035.90043942236
30
0.000424797714727687
11
593.379104967931
21
2035.83229107494
31
0.000424827098685376
  0
LINE
 8
GROUP0
10
594.414381148341
20
2035.83229107494
30
0.000424778438246143
11
593.896743058136
21
2035.90043942236
31
0.000424797714727687
  0
LINE
 8
GROUP0
10
594.896743058136
20
2035.63249022993
30
0.000424770580955908
11
594.414381148341
21
2035.83229107494
31
0.000424778438246143
  0
LINE
 8
GROUP0
10
595.310956620509
20
2035.31465298474
30
0.000424774679958373
11
594.896743058136
21
2035.63249022993
31
0.000424770580955908
  0
LINE
 8
GROUP0
10
595.628793865705
20
2034.90043942236
30
0.000424790454430701
11
595.310956620509
21
2035.31465298474
31
0.000424774679958373
  0
LINE
 8
GROUP0
10
595.828594710714
20
2034.41807751257
30
0.000424816830892022
11
595.628793865705
21
2034.90043942236
31
0.000424790454430701
  0
LINE
 8
GROUP0
10
595.896743058136
20
2033.90043942236
30
0.000424852011061694
11
595.828594710714
21
2034.41807751257
31
0.000424816830892022
  0
LINE
 8
GROUP0
10
595.828594710714
20
2033.38280133216
30
0.000424893597473303
11
595.896743058136
21
2033.90043942236
31
0.000424852011061694
  0
LINE
 8
GROUP0
10
595.628793865705
20
2032.90043942236
30
0.000424938755904025
11
595.828594710714
21
2033.38280133216
31
0.000424893597473303
  0
LINE
 8
GROUP0
10
595.310956620509
20
2032.48622585999
30
0.000424984409568097
11
595.628793865705
21
2032.90043942236
31
0.000424938755904025
  0
LINE
 8
GROUP0
10
594.896743058136
20
2032.1683886148
30
0.000425027446306797
11
595.310956620509
21
2032.48622585999
31
0.000424984409568097
  0
LINE
 8
GROUP0
10
594.414381148341
20
2031.96858776979
30
0.000425064933716646
11
594.896743058136
21
2032.1683886148
31
0.000425027446306797
  0
LINE
 8
GROUP0
10
593.896743058135
20
2031.90043942236
30
0.000425094317674335
11
594.414381148341
21
2031.96858776979
31
0.000425064933716646
  0
LINE
 8
GROUP0
10
593.37910496793
20
2031.96858776979
30
0.000425113594155879
11
593.896743058135
21
2031.90043942236
31
0.000425094317674335
  0
LINE
 8
GROUP0
10
592.896743058135
20
2032.1683886148
30
0.000425121451446114
11
593.37910496793
21
2031.96858776979
31
0.000425113594155879
  0
LINE
 8
GROUP0
10
592.482529495763
20
2032.48622585999
30
0.000425117352443649
11
592.896743058135
21
2032.1683886148
31
0.000425121451446114
  0
LINE
 8
GROUP0
10
592.164692250567
20
2032.90043942236
30
0.000425101577971321
11
592.482529495763
21
2032.48622585999
31
0.000425117352443649
  0
LINE
 8
GROUP0
10
591.964891405558
20
2033.38280133216
30
0.00042507520151
11
592.164692250567
21
2032.90043942236
31
0.000425101577971321
  0
LINE
 8
GROUP0
10
591.896743058136
20
2033.90043942236
30
0.000425040021340328
11
591.964891405558
21
2033.38280133216
31
0.00042507520151
  0
LINE
 8
GROUP0
10
591.964891405558
20
2034.41807751257
30
0.000424998434928719
11
591.896743058136
21
2033.90043942236
31
0.000425040021340328
  0
LINE
 8
GROUP0
10
592.164692250567
20
2034.90043942236
30
0.000424953276497997
11
591.964891405558
21
2034.41807751257
31
0.000424998434928719
  0
LINE
 8
GROUP0
10
592.482529495763
20
2035.31465298474
30
0.000424907622833925
11
592.164692250567
21
2034.90043942236
31
0.000424953276497997
  0
LINE
 8
GROUP0
10
641.896735546773
20
2033.90043942236
30
0.0004261624102322
11
641.964883894195
21
2033.38280133216
31
0.000426197590401872
  0
LINE
 8
GROUP0
10
641.964883894195
20
2034.41807751257
30
0.000426120823820592
11
641.896735546773
21
2033.90043942236
31
0.0004261624102322
  0
LINE
 8
GROUP0
10
642.164684739204
20
2034.90043942236
30
0.000426075665389869
11
641.964883894195
21
2034.41807751257
31
0.000426120823820592
  0
LINE
 8
GROUP0
10
642.4825219844
20
2035.31465298474
30
0.000426030011725798
11
642.164684739204
21
2034.90043942236
31
0.000426075665389869
  0
LINE
 8
GROUP0
10
642.896735546773
20
2035.63249022993
30
0.000425986974987097
11
642.4825219844
21
2035.31465298474
31
0.000426030011725798
  0
LINE
 8
GROUP0
10
643.379097456568
20
2035.83229107494
30
0.000425949487577248
11
642.896735546773
21
2035.63249022993
31
0.000425986974987097
  0
LINE
 8
GROUP0
10
643.896735546773
20
2035.90043942236
30
0.000425920103619559
11
643.379097456568
21
2035.83229107494
31
0.000425949487577248
  0
LINE
 8
GROUP0
10
644.414373636978
20
2035.83229107494
30
0.000425900827138015
11
643.896735546773
21
2035.90043942236
31
0.000425920103619559
  0
LINE
 8
GROUP0
10
644.896735546773
20
2035.63249022993
30
0.00042589296984778
11
644.414373636978
21
2035.83229107494
31
0.000425900827138015
  0
LINE
 8
GROUP0
10
645.310949109146
20
2035.31465298474
30
0.000425897068850245
11
644.896735546773
21
2035.63249022993
31
0.00042589296984778
  0
LINE
 8
GROUP0
10
645.628786354342
20
2034.90043942236
30
0.000425912843322573
11
645.310949109146
21
2035.31465298474
31
0.000425897068850245
  0
LINE
 8
GROUP0
10
645.828587199351
20
2034.41807751257
30
0.000425939219783894
11
645.628786354342
21
2034.90043942236
31
0.000425912843322573
  0
LINE
 8
GROUP0
10
645.896735546773
20
2033.90043942236
30
0.000425974399953566
11
645.828587199351
21
2034.41807751257
31
0.000425939219783894
  0
LINE
 8
GROUP0
10
645.828587199351
20
2033.38280133216
30
0.000426015986365175
11
645.896735546773
21
2033.90043942236
31
0.000425974399953566
  0
LINE
 8
GROUP0
10
645.628786354342
20
2032.90043942236
30
0.000426061144795897
11
645.828587199351
21
2033.38280133216
31
0.000426015986365175
  0
LINE
 8
GROUP0
10
645.310949109146
20
2032.48622585999
30
0.000426106798459969
11
645.628786354342
21
2032.90043942236
31
0.000426061144795897
  0
LINE
 8
GROUP0
10
644.896735546773
20
2032.1683886148
30
0.000426149835198669
11
645.310949109146
21
2032.48622585999
31
0.000426106798459969
  0
LINE
 8
GROUP0
10
644.414373636978
20
2031.96858776979
30
0.000426187322608518
11
644.896735546773
21
2032.1683886148
31
0.000426149835198669
  0
LINE
 8
GROUP0
10
643.896735546773
20
2031.90043942236
30
0.000426216706566207
11
644.414373636978
21
2031.96858776979
31
0.000426187322608518
  0
LINE
 8
GROUP0
10
643.379097456568
20
2031.96858776979
30
0.000426235983047751
11
643.896735546773
21
2031.90043942236
31
0.000426216706566207
  0
LINE
 8
GROUP0
10
642.896735546773
20
2032.1683886148
30
0.000426243840337986
11
643.379097456568
21
2031.96858776979
31
0.000426235983047751
  0
LINE
 8
GROUP0
10
642.4825219844
20
2032.48622585999
30
0.000426239741335521
11
642.896735546773
21
2032.1683886148
31
0.000426243840337986
  0
LINE
 8
GROUP0
10
642.164684739204
20
2032.90043942236
30
0.000426223966863193
11
642.4825219844
21
2032.48622585999
31
0.000426239741335521
  0
LINE
 8
GROUP0
10
641.964883894195
20
2033.38280133216
30
0.000426197590401872
11
642.164684739204
21
2032.90043942236
31
0.000426223966863193
  0
LINE
 8
GROUP0
10
642.164684739204
20
1982.90043191088
30
0.000426594718669815
11
642.4825219844
21
1982.48621834851
31
0.000426610493142143
  0
LINE
 8
GROUP0
10
641.964883894195
20
1983.38279382067
30
0.000426568342208494
11
642.164684739204
21
1982.90043191088
31
0.000426594718669815
  0
LINE
 8
GROUP0
10
641.896735546773
20
1983.90043191088
30
0.000426533162038822
11
641.964883894195
21
1983.38279382067
31
0.000426568342208494
  0
LINE
 8
GROUP0
10
641.964883894195
20
1984.41807000109
30
0.000426491575627214
11
641.896735546773
21
1983.90043191088
31
0.000426533162038822
  0
LINE
 8
GROUP0
10
642.164684739204
20
1984.90043191088
30
0.000426446417196491
11
641.964883894195
21
1984.41807000109
31
0.000426491575627214
  0
LINE
 8
GROUP0
10
642.4825219844
20
1985.31464547325
30
0.00042640076353242
11
642.164684739204
21
1984.90043191088
31
0.000426446417196491
  0
LINE
 8
GROUP0
10
642.896735546773
20
1985.63248271845
30
0.000426357726793719
11
642.4825219844
21
1985.31464547325
31
0.00042640076353242
  0
LINE
 8
GROUP0
10
643.379097456568
20
1985.83228356346
30
0.000426320239383871
11
642.896735546773
21
1985.63248271845
31
0.000426357726793719
  0
LINE
 8
GROUP0
10
643.896735546773
20
1985.90043191088
30
0.000426290855426181
11
643.379097456568
21
1985.83228356346
31
0.000426320239383871
  0
LINE
 8
GROUP0
10
644.414373636978
20
1985.83228356346
30
0.000426271578944637
11
643.896735546773
21
1985.90043191088
31
0.000426290855426181
  0
LINE
 8
GROUP0
10
644.896735546773
20
1985.63248271845
30
0.000426263721654402
11
644.414373636978
21
1985.83228356346
31
0.000426271578944637
  0
LINE
 8
GROUP0
10
645.310949109146
20
1985.31464547325
30
0.000426267820656867
11
644.896735546773
21
1985.63248271845
31
0.000426263721654402
  0
LINE
 8
GROUP0
10
645.628786354342
20
1984.90043191088
30
0.000426283595129195
11
645.310949109146
21
1985.31464547325
31
0.000426267820656867
  0
LINE
 8
GROUP0
10
645.828587199351
20
1984.41807000109
30
0.000426309971590516
11
645.628786354342
21
1984.90043191088
31
0.000426283595129195
  0
LINE
 8
GROUP0
10
645.896735546773
20
1983.90043191088
30
0.000426345151760188
11
645.828587199351
21
1984.41807000109
31
0.000426309971590516
  0
LINE
 8
GROUP0
10
645.828587199351
20
1983.38279382067
30
0.000426386738171797
11
645.896735546773
21
1983.90043191088
31
0.000426345151760188
  0
LINE
 8
GROUP0
10
645.628786354342
20
1982.90043191088
30
0.000426431896602519
11
645.828587199351
21
1983.38279382067
31
0.000426386738171797
  0
LINE
 8
GROUP0
10
645.310949109146
20
1982.48621834851
30
0.000426477550266591
11
645.628786354342
21
1982.90043191088
31
0.000426431896602519
  0
LINE
 8
GROUP0
10
644.896735546773
20
1982.16838110331
30
0.000426520587005291
11
645.310949109146
21
1982.48621834851
31
0.000426477550266591
  0
LINE
 8
GROUP0
10
644.414373636978
20
1981.9685802583
30
0.00042655807441514
11
644.896735546773
21
1982.16838110331
31
0.000426520587005291
  0
LINE
 8
GROUP0
10
643.896735546773
20
1981.90043191088
30
0.000426587458372829
11
644.414373636978
21
1981.9685802583
31
0.00042655807441514
  0
LINE
 8
GROUP0
10
643.379097456568
20
1981.9685802583
30
0.000426606734854373
11
643.896735546773
21
1981.90043191088
31
0.000426587458372829
  0
LINE
 8
GROUP0
10
642.896735546773
20
1982.16838110331
30
0.000426614592144608
11
643.379097456568
21
1981.9685802583
31
0.000426606734854373
  0
LINE
 8
GROUP0
10
642.4825219844
20
1982.48621834851
30
0.000426610493142143
11
642.896735546773
21
1982.16838110331
31
0.000426614592144608
  0
LINE
 8
GROUP0
10
621.286613209173
20
2038.585799283
30
0.000422636773329244
11
621.229290951412
21
2038.5933459014
31
0.000422490815112708
  0
LINE
 8
GROUP0
10
616.101340768782
20
2030.61483489784
30
0.000425087786498718
11
621.286613209173
21
2038.585799283
31
0.000422636773329244
  0
LINE
 8
GROUP0
10
616.101340768782
20
2030.61483489784
30
0.000425087786498718
11
614.952535476732
21
2024.80340857997
31
0.00042508778630273
  0
LINE
 8
GROUP0
10
614.952535476732
20
2024.80340857997
30
0.00042508778630273
11
612.671144279907
21
2024.13049210932
31
0.000425087786280171
  0
LINE
 8
GROUP0
10
612.671144279907
20
2024.13049210932
30
0.000425087786280171
11
610.512217404115
21
2023.13219231031
31
0.000425087786246331
  0
LINE
 8
GROUP0
10
610.512217404115
20
2023.13219231031
30
0.000425087786246331
11
605.816758722619
21
2026.74399634807
31
0.000425087781314915
  0
LINE
 8
GROUP0
10
605.816758722619
20
2026.74399634807
30
0.000425087781314915
11
603.896741165784
21
2034.88119477035
31
0.000424100379304065
  0
LINE
 8
GROUP0
10
611.13216890691
20
2037.87820707029
30
0.000423538065274331
11
603.896741165784
21
2034.88119477035
31
0.000424100379304065
  0
LINE
 8
GROUP0
10
618.896739287944
20
2038.90043215365
30
0.000423097315286086
11
611.13216890691
21
2037.87820707029
31
0.000423538065274331
  0
LINE
 8
GROUP0
10
621.229290951412
20
2038.5933459014
30
0.000422490815112708
11
618.896739287944
21
2038.90043215365
31
0.000423097315286086
  0
LINE
 8
GROUP0
10
621.838612210165
20
2030.46460409251
30
0.000425087787215694
11
622.681692553018
21
2024.60101410898
31
0.000425087787017592
  0
LINE
 8
GROUP0
10
626.661309901231
20
2037.87820713416
30
0.000422808158685828
11
621.838612210165
21
2030.46460409251
31
0.000425087787215694
  0
LINE
 8
GROUP0
10
633.896737642357
20
2034.88119483421
30
0.000422690305101953
11
626.661309901231
21
2037.87820713416
31
0.000422808158685828
  0
LINE
 8
GROUP0
10
640.109940300126
20
2030.11363675313
30
0.000422751785805348
11
633.896737642357
21
2034.88119483421
31
0.000422690305101953
  0
LINE
 8
GROUP0
10
641.601359595591
20
2028.16998128573
30
0.000422817803095277
11
640.109940300126
21
2030.11363675313
31
0.000422751785805348
  0
LINE
 8
GROUP0
10
631.906512992376
20
2026.06081003855
30
0.000425087787788853
11
641.601359595591
21
2028.16998128573
31
0.000422817803095277
  0
LINE
 8
GROUP0
10
631.906512992376
20
2026.06081003855
30
0.000425087787788853
11
627.028462423228
21
2022.69970079074
31
0.000425087786954142
  0
LINE
 8
GROUP0
10
627.028462423228
20
2022.69970079074
30
0.000425087786954142
11
624.924740848473
21
2023.80961869819
31
0.000425087786991507
  0
LINE
 8
GROUP0
10
624.924740848473
20
2023.80961869819
30
0.000425087786991507
11
622.681692553018
21
2024.60101410898
31
0.000425087787017592
  0
LINE
 8
GROUP0
10
648.572600698003
20
2006.43838515399
30
0.000424486280426056
11
648.896735800039
21
2008.90043568836
31
0.000423911755247036
  0
LINE
 8
GROUP0
10
640.050033613406
20
2011.77005772806
30
0.000425087787307343
11
648.572600698003
21
2006.43838515399
31
0.000424486280426056
  0
LINE
 8
GROUP0
10
640.050033613406
20
2011.77005772806
30
0.000425087787307343
11
634.210523624486
21
2012.7663391085
31
0.000425087787341183
  0
LINE
 8
GROUP0
10
634.210523624486
20
2012.7663391085
30
0.000425087787341183
11
633.683335792811
21
2014.49811975106
31
0.000425087787399697
  0
LINE
 8
GROUP0
10
633.683335792811
20
2014.49811975106
30
0.000425087787399697
11
633.445696403257
21
2015.10848373225
31
0.000425087787420142
  0
LINE
 8
GROUP0
10
632.423644404942
20
2017.16139093826
30
0.000425087787489231
11
633.445696403257
21
2015.10848373225
31
0.000425087787420142
  0
LINE
 8
GROUP0
10
632.423644404942
20
2017.16139093826
30
0.000425087787489231
11
635.911299406326
21
2021.94978415888
31
0.000425087787650674
  0
LINE
 8
GROUP0
10
644.877498416738
20
2023.90043381052
30
0.000422988410833414
11
635.911299406326
21
2021.94978415888
31
0.000425087787650674
  0
LINE
 8
GROUP0
10
647.874510716682
20
2016.66500606939
30
0.000423384054864873
11
644.877498416738
21
2023.90043381052
31
0.000422988410833414
  0
LINE
 8
GROUP0
10
648.896735800039
20
2008.90043568836
30
0.000423911755247036
11
647.874510716682
21
2016.66500606939
31
0.000423384054864873
  0
LINE
 8
GROUP0
10
634.210523334069
20
2005.0345324374
30
0.000425087787080336
11
640.05003332299
21
2006.03081648593
31
0.000425087787114176
  0
LINE
 8
GROUP0
10
647.874510426268
20
2001.13586528592
30
0.000424535549980165
11
640.05003332299
21
2006.03081648593
31
0.000425087787114176
  0
LINE
 8
GROUP0
10
644.877498126324
20
1993.9004375448
30
0.000425212928606034
11
647.874510426268
21
2001.13586528592
31
0.000424535549980165
  0
LINE
 8
GROUP0
10
640.109940045235
20
1987.68723488703
30
0.000425897729237751
11
644.877498126324
21
1993.9004375448
31
0.000425212928606034
  0
LINE
 8
GROUP0
10
638.101179883297
20
1986.14585900239
30
0.000426689297837984
11
640.109940045235
21
1987.68723488703
31
0.000425897729237751
  0
LINE
 8
GROUP0
10
635.911299115904
20
1995.85108738702
30
0.000425087786770845
11
638.101179883297
21
1986.14585900239
31
0.000426689297837984
  0
LINE
 8
GROUP0
10
635.911299115904
20
1995.85108738702
30
0.000425087786770845
11
632.423644114522
21
2000.6394836569
31
0.000425087786210376
  0
LINE
 8
GROUP0
10
632.423644114522
20
2000.6394836569
30
0.000425087786210376
11
633.478115829516
21
2002.77153741728
31
0.000425087787004197
  0
LINE
 8
GROUP0
10
633.478115829516
20
2002.77153741728
30
0.000425087787004197
11
634.210523334069
21
2005.0345324374
31
0.000425087787080336
  0
LINE
 8
GROUP0
10
621.838611923318
20
1987.33627114499
30
0.00042508778504009
11
616.301096918689
21
1979.24216257371
31
0.000428149775662762
  0
LINE
 8
GROUP0
10
621.838611923318
20
1987.33627114499
30
0.00042508778504009
11
622.681692266174
21
1993.19985807925
31
0.000425087785238193
  0
LINE
 8
GROUP0
10
622.681692266174
20
1993.19985807925
30
0.000425087785238193
11
624.924740561629
21
1993.99125349004
31
0.000425087785264278
  0
LINE
 8
GROUP0
10
624.924740561629
20
1993.99125349004
30
0.000425087785264278
11
627.028462136386
21
1995.10117292213
31
0.000425087786023554
  0
LINE
 8
GROUP0
10
627.028462136386
20
1995.10117292213
30
0.000425087786023554
11
631.906512705531
21
1991.74005910043
31
0.000425087785910755
  0
LINE
 8
GROUP0
10
633.896737355524
20
1982.91967716344
30
0.00042654328320379
11
631.906512705531
21
1991.74005910043
31
0.000425087785910755
  0
LINE
 8
GROUP0
10
626.661309614398
20
1979.92266486349
30
0.000427105593623967
11
633.896737355524
21
1982.91967716344
31
0.00042654328320379
  0
LINE
 8
GROUP0
10
618.896739233364
20
1978.90043978014
30
0.000427546347221769
11
626.661309614398
21
1979.92266486349
31
0.000427105593623967
  0
LINE
 8
GROUP0
10
616.301096918689
20
1979.24216257371
30
0.000428149775662762
11
618.896739233364
21
1978.90043978014
31
0.000427546347221769
  0
LINE
 8
GROUP0
10
596.009523748563
20
1989.86885428215
30
0.000427986569896727
11
597.683538852507
21
1987.68723532417
31
0.000427891881033976
  0
LINE
 8
GROUP0
10
605.816759067098
20
1991.05687585596
30
0.00042508778083411
11
596.009523748563
21
1989.86885428215
31
0.000427986569896727
  0
LINE
 8
GROUP0
10
605.816759067098
20
1991.05687585596
30
0.00042508778083411
11
610.512217748597
21
1994.66867989371
31
0.000425087780956074
  0
LINE
 8
GROUP0
10
610.512217748597
20
1994.66867989371
30
0.000425087780956074
11
612.671144624388
21
1993.67038161933
31
0.000425087780922234
  0
LINE
 8
GROUP0
10
612.671144624388
20
1993.67038161933
30
0.000425087780922234
11
614.952535821213
21
1992.99746362405
31
0.000425087780899674
  0
LINE
 8
GROUP0
10
616.101341113259
20
1987.18603425692
30
0.000425087780703687
11
614.952535821213
21
1992.99746362405
31
0.000425087780899674
  0
LINE
 8
GROUP0
10
611.132169251402
20
1979.92266494313
30
0.000427835503822027
11
616.101341113259
21
1987.18603425692
31
0.000425087780703687
  0
LINE
 8
GROUP0
10
603.896741510276
20
1982.91967724308
30
0.000427953357405902
11
611.132169251402
21
1979.92266494313
31
0.000427835503822027
  0
LINE
 8
GROUP0
10
597.683538852507
20
1987.68723532417
30
0.000427891881033976
11
603.896741510276
21
1982.91967724308
31
0.000427953357405902
  0
LINE
 8
GROUP0
10
599.550044326845
20
2031.54585660976
30
0.000424032372247901
11
597.683538456766
21
2030.11363628243
31
0.000424745937601573
  0
LINE
 8
GROUP0
10
601.602306038812
20
2022.84819616115
30
0.000425087781183786
11
599.550044326845
21
2031.54585660976
31
0.000424032372247901
  0
LINE
 8
GROUP0
10
601.602306038812
20
2022.84819616115
30
0.000425087781183786
11
604.029494482932
21
2019.12033505684
31
0.000425087781780209
  0
LINE
 8
GROUP0
10
604.029494482932
20
2019.12033505684
30
0.000425087781780209
11
604.834578015259
21
2017.88383632934
31
0.000425087781737909
  0
LINE
 8
GROUP0
10
604.834578015259
20
2017.88383632934
30
0.000425087781737909
11
603.987853808462
21
2016.45070921487
31
0.00042508778168997
  0
LINE
 8
GROUP0
10
603.987853808462
20
2016.45070921487
30
0.00042508778168997
11
603.29196727331
21
2014.93858495969
31
0.000425087781639211
  0
LINE
 8
GROUP0
10
603.29196727331
20
2014.93858495969
30
0.000425087781639211
11
612.978738182746
21
2011.06797796299
31
0.000425087785840256
  0
LINE
 8
GROUP0
10
612.978738182746
20
2011.06797796299
30
0.000425087785840256
11
613.435782395854
21
2011.97417490813
31
0.00042508778587057
  0
LINE
 8
GROUP0
10
613.435782395854
20
2011.97417490813
30
0.00042508778587057
11
614.042773897116
21
2012.78759225459
31
0.000425087785898065
  0
LINE
 8
GROUP0
10
614.042773897116
20
2012.78759225459
30
0.000425087785898065
11
614.781395790549
21
2013.48366784377
31
0.00042508778592133
  0
LINE
 8
GROUP0
10
614.781395790549
20
2013.48366784377
30
0.00042508778592133
11
615.62935208837
21
2014.04139552424
31
0.000425087785940365
  0
LINE
 8
GROUP0
10
615.62935208837
20
2014.04139552424
30
0.000425087785940365
11
616.561037785555
21
2014.44393729041
31
0.000425087785953759
  0
LINE
 8
GROUP0
10
616.561037785555
20
2014.44393729041
30
0.000425087785953759
11
617.548341863016
21
2014.67914184703
31
0.000425087785961514
  0
LINE
 8
GROUP0
10
617.548341863016
20
2014.67914184703
30
0.000425087785961514
11
618.561451922606
21
2014.73991052024
31
0.000425087785963629
  0
LINE
 8
GROUP0
10
618.561451922606
20
2014.73991052024
30
0.000425087785963629
11
619.569789868777
21
2014.62440460717
31
0.000425087785960104
  0
LINE
 8
GROUP0
10
619.569789868777
20
2014.62440460717
30
0.000425087785960104
11
620.542915084657
21
2014.33611550883
31
0.000425087786672146
  0
LINE
 8
GROUP0
10
620.542915084657
20
2014.33611550883
30
0.000425087786672146
11
621.451456909608
21
2013.88374275978
31
0.000425087786656636
  0
LINE
 8
GROUP0
10
621.451456909608
20
2013.88374275978
30
0.000425087786656636
11
622.267984118615
21
2013.28094703826
31
0.000425087786636191
  0
LINE
 8
GROUP0
10
622.267984118615
20
2013.28094703826
30
0.000425087786636191
11
622.967856034664
21
2012.54591717137
31
0.000425087786611517
  0
LINE
 8
GROUP0
10
622.967856034664
20
2012.54591717137
30
0.000425087786611517
11
623.529941105572
21
2011.70084547212
31
0.000425087786583317
  0
LINE
 8
GROUP0
10
623.529941105572
20
2011.70084547212
30
0.000425087786583317
11
623.937273256884
21
2010.77123936925
31
0.000425087786551592
  0
LINE
 8
GROUP0
10
623.937273256884
20
2010.77123936925
30
0.000425087786551592
11
624.177557878212
21
2009.78516109372
31
0.000425087786518458
  0
LINE
 8
GROUP0
10
624.177557878212
20
2009.78516109372
30
0.000425087786518458
11
624.235194962923
21
2008.90043701522
31
0.000425087786488848
  0
LINE
 8
GROUP0
10
624.235194962923
20
2008.90043701522
30
0.000425087786488848
11
624.243537734258
21
2008.77237730479
31
0.000425087786484618
  0
LINE
 8
GROUP0
10
624.243537734258
20
2008.77237730479
30
0.000425087786484618
11
624.13322775772
21
2007.7634599995
31
0.000425087786450778
  0
LINE
 8
GROUP0
10
624.13322775772
20
2007.7634599995
30
0.000425087786450778
11
623.849951640393
21
2006.78885894249
31
0.000425087786417644
  0
LINE
 8
GROUP0
10
623.849951640393
20
2006.78885894249
30
0.000425087786417644
11
623.402262552451
21
2005.87800577957
31
0.000425087786387329
  0
LINE
 8
GROUP0
10
623.402262552451
20
2005.87800577957
30
0.000425087786387329
11
622.803677856953
21
2005.05838357316
31
0.000425087785637218
  0
LINE
 8
GROUP0
10
622.803677856953
20
2005.05838357316
30
0.000425087785637218
11
622.072261361424
21
2004.35473667505
31
0.000425087785613953
  0
LINE
 8
GROUP0
10
622.072261361424
20
2004.35473667505
30
0.000425087785613953
11
621.230092937448
21
2003.78830946
31
0.000425087785594919
  0
LINE
 8
GROUP0
10
621.230092937448
20
2003.78830946
30
0.000425087785594919
11
620.30259997074
21
2003.37619912057
31
0.000425087785580819
  0
LINE
 8
GROUP0
10
620.30259997074
20
2003.37619912057
30
0.000425087785580819
11
619.317768651367
21
2003.13084053305
31
0.000425087785572359
  0
LINE
 8
GROUP0
10
619.317768651367
20
2003.13084053305
30
0.000425087785572359
11
618.305338600251
21
2003.05964644492
31
0.000425087785570244
  0
LINE
 8
GROUP0
10
618.305338600251
20
2003.05964644492
30
0.000425087785570244
11
617.295866306085
21
2003.16476353419
31
0.000425087785573769
  0
LINE
 8
GROUP0
10
617.295866306085
20
2003.16476353419
30
0.000425087785573769
11
616.319823140371
21
2003.44301752272
31
0.000425087785582934
  0
LINE
 8
GROUP0
10
616.319823140371
20
2003.44301752272
30
0.000425087785582934
11
615.406670836525
21
2003.88601075252
31
0.000425087785597739
  0
LINE
 8
GROUP0
10
615.406670836525
20
2003.88601075252
30
0.000425087785597739
11
614.583977645615
21
2004.4803691757
31
0.000425087785618183
  0
LINE
 8
GROUP0
10
614.583977645615
20
2004.4803691757
30
0.000425087785618183
11
613.876577110259
21
2005.20815400432
31
0.000425087785642858
  0
LINE
 8
GROUP0
10
613.876577110259
20
2005.20815400432
30
0.000425087785642858
11
613.305822997354
21
2006.04739209085
31
0.000425087785671058
  0
LINE
 8
GROUP0
10
613.305822997354
20
2006.04739209085
30
0.000425087785671058
11
612.888943617588
21
2006.97275667511
31
0.000425087785702077
  0
LINE
 8
GROUP0
10
612.888943617588
20
2006.97275667511
30
0.000425087785702077
11
603.041821349895
21
2003.53047330659
31
0.000425087781254285
  0
LINE
 8
GROUP0
10
603.041821349895
20
2003.53047330659
30
0.000425087781254285
11
603.360965895296
21
2002.69239069846
31
0.000425087781226086
  0
LINE
 8
GROUP0
10
604.340308454027
20
2000.71240041166
30
0.000425087781159816
11
603.360965895296
21
2002.69239069846
31
0.000425087781226086
  0
LINE
 8
GROUP0
10
604.340308454027
20
2000.71240041166
30
0.000425087781159816
11
604.834578015253
21
1999.91703791552
31
0.000425087781133027
  0
LINE
 8
GROUP0
10
604.834578015253
20
1999.91703791552
30
0.000425087781133027
11
601.602306038803
21
1994.95267503446
31
0.000425087780965239
  0
LINE
 8
GROUP0
10
592.915980375677
20
1993.90043738034
30
0.00042765525600591
11
601.602306038803
21
1994.95267503446
31
0.000425087780965239
  0
LINE
 8
GROUP0
10
589.918968075732
20
2001.13586512147
30
0.000427259611974451
11
592.915980375677
21
1993.90043738034
31
0.00042765525600591
  0
LINE
 8
GROUP0
10
588.896742992376
20
2008.9004355025
30
0.000426731911592287
11
589.918968075732
21
2001.13586512147
31
0.000427259611974451
  0
LINE
 8
GROUP0
10
589.918968075732
20
2016.66500588354
30
0.000426108116859158
11
588.896742992376
21
2008.9004355025
31
0.000426731911592287
  0
LINE
 8
GROUP0
10
592.915980375676
20
2023.90043362466
30
0.00042543073823329
11
589.918968075732
21
2016.66500588354
31
0.000426108116859158
  0
LINE
 8
GROUP0
10
597.683538456766
20
2030.11363628243
30
0.000424745937601573
11
592.915980375676
21
2023.90043362466
31
0.00042543073823329
  0
LINE
 8
GROUP0
10
629.004523334656
20
2000.5817913886
30
0.000425087786208261
11
632.259942994911
21
1996.11224617299
31
0.000425087786058098
  0
LINE
 8
GROUP0
10
632.259942994911
20
1996.11224617299
30
0.000425087786058098
11
631.549862161307
21
1995.38332778251
31
0.000425087786033423
  0
LINE
 8
GROUP0
10
631.549862161307
20
1995.38332778251
30
0.000425087786033423
11
626.996632332313
21
1998.52063288902
31
0.000425087786139172
  0
LINE
 8
GROUP0
10
626.996632332313
20
1998.52063288902
30
0.000425087786139172
11
625.468822691264
21
1997.42594297866
31
0.000425087786102513
  0
LINE
 8
GROUP0
10
625.468822691264
20
1997.42594297866
30
0.000425087786102513
11
623.80356314814
21
1996.55447861279
31
0.000425087785350992
  0
LINE
 8
GROUP0
10
623.80356314814
20
1996.55447861279
30
0.000425087785350992
11
622.033245976294
21
1995.92318985726
31
0.000425087785329842
  0
LINE
 8
GROUP0
10
622.033245976294
20
1995.92318985726
30
0.000425087785329842
11
620.192317315275
21
1995.54436217467
31
0.000425087785317152
  0
LINE
 8
GROUP0
10
620.192317315275
20
1995.54436217467
30
0.000425087785317152
11
619.405370677386
21
1990.07121754873
31
0.000425087785132444
  0
LINE
 8
GROUP0
10
619.405370677386
20
1990.07121754873
30
0.000425087785132444
11
618.388107551502
21
1990.04458075085
31
0.000425087785131739
  0
LINE
 8
GROUP0
10
618.388107551502
20
1990.04458075085
30
0.000425087785131739
11
617.315802236093
21
1995.46903634124
31
0.000425087785314332
  0
LINE
 8
GROUP0
10
617.315802236093
20
1995.46903634124
30
0.000425087785314332
11
615.457565888376
21
1995.75099975277
31
0.000425087785323497
  0
LINE
 8
GROUP0
10
615.457565888376
20
1995.75099975277
30
0.000425087785323497
11
613.656633970322
21
1996.28877079848
31
0.000425087781010358
  0
LINE
 8
GROUP0
10
613.656633970322
20
1996.28877079848
30
0.000425087781010358
11
611.948049037392
21
1997.071888997
31
0.000425087781037148
  0
LINE
 8
GROUP0
10
611.948049037392
20
1997.071888997
30
0.000425087781037148
11
610.365041718454
21
1998.08511796576
31
0.000425087781070987
  0
LINE
 8
GROUP0
10
610.365041718454
20
1998.08511796576
30
0.000425087781070987
11
605.982247907983
21
1994.71381580901
31
0.000425087780957484
  0
LINE
 8
GROUP0
10
605.982247907983
20
1994.71381580901
30
0.000425087780957484
11
605.234988227453
21
1995.40457196668
31
0.000425087780980748
  0
LINE
 8
GROUP0
10
605.234988227453
20
1995.40457196668
30
0.000425087780980748
11
608.252027528333
21
2000.0383677799
31
0.000425087781136552
  0
LINE
 8
GROUP0
10
608.252027528333
20
2000.0383677799
30
0.000425087781136552
11
607.527298056757
21
2000.94448544432
31
0.000425087781167571
  0
LINE
 8
GROUP0
10
607.527298056757
20
2000.94448544432
30
0.000425087781167571
11
606.883203177717
21
2001.90959101498
31
0.000425087781200001
  0
LINE
 8
GROUP0
10
606.883203177717
20
2001.90959101498
30
0.000425087781200001
11
611.610630285631
21
2003.56217021651
31
0.000425087781255695
  0
LINE
 8
GROUP0
10
611.610630285631
20
2003.56217021651
30
0.000425087781255695
11
612.606652288514
21
2002.49447386727
31
0.000425087781219741
  0
LINE
 8
GROUP0
10
612.606652288514
20
2002.49447386727
30
0.000425087781219741
11
613.768249029512
21
2001.60976657161
31
0.000425087781190131
  0
LINE
 8
GROUP0
10
613.768249029512
20
2001.60976657161
30
0.000425087781190131
11
615.062250674348
21
2000.93331448569
31
0.000425087785498335
  0
LINE
 8
GROUP0
10
615.062250674348
20
2000.93331448569
30
0.000425087785498335
11
616.451691252456
21
2000.48444381007
31
0.00042508778548353
  0
LINE
 8
GROUP0
10
616.451691252456
20
2000.48444381007
30
0.00042508778548353
11
617.896875039861
21
2000.27597515223
31
0.00042508778547648
  0
LINE
 8
GROUP0
10
617.896875039861
20
2000.27597515223
30
0.00042508778547648
11
619.356533752792
21
2000.31386371408
31
0.00042508778547789
  0
LINE
 8
GROUP0
10
619.356533752792
20
2000.31386371408
30
0.00042508778547789
11
620.788959633092
21
2000.59702700884
31
0.000425087785487055
  0
LINE
 8
GROUP0
10
620.788959633092
20
2000.59702700884
30
0.000425087785487055
11
622.153240397921
21
2001.11737687827
31
0.00042508778550468
  0
LINE
 8
GROUP0
10
622.153240397921
20
2001.11737687827
30
0.00042508778550468
11
623.410403950471
21
2001.86004971165
31
0.000425087786251266
  0
LINE
 8
GROUP0
10
623.410403950471
20
2001.86004971165
30
0.000425087786251266
11
624.524542031727
21
2002.80383181742
31
0.000425087786283695
  0
LINE
 8
GROUP0
10
624.524542031727
20
2002.80383181742
30
0.000425087786283695
11
625.463826481167
21
2003.92176012703
31
0.00042508778632106
  0
LINE
 8
GROUP0
10
625.463826481167
20
2003.92176012703
30
0.00042508778632106
11
626.201429922251
21
2005.18190585442
31
0.00042508778636336
  0
LINE
 8
GROUP0
10
626.201429922251
20
2005.18190585442
30
0.00042508778636336
11
626.716281978549
21
2006.54827231208
31
0.000425087786409889
  0
LINE
 8
GROUP0
10
626.716281978549
20
2006.54827231208
30
0.000425087786409889
11
626.993671502285
21
2007.98182641804
31
0.000425087786457828
  0
LINE
 8
GROUP0
10
626.993671502285
20
2007.98182641804
30
0.000425087786457828
11
627.013814904127
21
2008.90043688274
31
0.000425087786488848
  0
LINE
 8
GROUP0
10
627.013814904127
20
2008.90043688274
30
0.000425087786488848
11
627.025681093692
21
2009.4416223476
31
0.000425087786507178
  0
LINE
 8
GROUP0
10
627.025681093692
20
2009.4416223476
30
0.000425087786507178
11
626.81139445058
21
2010.88595539188
31
0.000425087786555822
  0
LINE
 8
GROUP0
10
626.81139445058
20
2010.88595539188
30
0.000425087786555822
11
626.356931434818
21
2012.2735786119
31
0.000425087786602352
  0
LINE
 8
GROUP0
10
626.356931434818
20
2012.2735786119
30
0.000425087786602352
11
625.675272739962
21
2013.56484202258
31
0.000425087786646061
  0
LINE
 8
GROUP0
10
625.675272739962
20
2013.56484202258
30
0.000425087786646061
11
624.785893980235
21
2014.7228711311
31
0.000425087786684836
  0
LINE
 8
GROUP0
10
624.785893980235
20
2014.7228711311
30
0.000425087786684836
11
623.714192429925
21
2015.71458148243
31
0.000425087786718675
  0
LINE
 8
GROUP0
10
623.714192429925
20
2015.71458148243
30
0.000425087786718675
11
622.490790267807
21
2016.51164546482
31
0.000425087786745465
  0
LINE
 8
GROUP0
10
622.490790267807
20
2016.51164546482
30
0.000425087786745465
11
621.15062913794
21
2017.09129426486
31
0.000425087786765205
  0
LINE
 8
GROUP0
10
621.15062913794
20
2017.09129426486
30
0.000425087786765205
11
619.731992004708
21
2017.43697650723
31
0.000425087786776485
  0
LINE
 8
GROUP0
10
619.731992004708
20
2017.43697650723
30
0.000425087786776485
11
618.275400857769
21
2017.5388064958
31
0.000425087786058098
  0
LINE
 8
GROUP0
10
618.275400857769
20
2017.5388064958
30
0.000425087786058098
11
616.822465747983
21
2017.39388743496
31
0.000425087786053163
  0
LINE
 8
GROUP0
10
616.822465747983
20
2017.39388743496
30
0.000425087786053163
11
615.414687214951
21
2017.00635107002
31
0.000425087786039768
  0
LINE
 8
GROUP0
10
615.414687214951
20
2017.00635107002
30
0.000425087786039768
11
614.092278487081
21
2016.38726925869
31
0.000425087786019324
  0
LINE
 8
GROUP0
10
614.092278487081
20
2016.38726925869
30
0.000425087786019324
11
612.893014255476
21
2015.55432770045
31
0.000425087785991124
  0
LINE
 8
GROUP0
10
612.893014255476
20
2015.55432770045
30
0.000425087785991124
11
611.851152749128
21
2014.53131366107
31
0.000425087785956579
  0
LINE
 8
GROUP0
10
611.851152749128
20
2014.53131366107
30
0.000425087785956579
11
607.200707222034
21
2016.38952571001
31
0.000425087781687855
  0
LINE
 8
GROUP0
10
607.200707222034
20
2016.38952571001
30
0.000425087781687855
11
608.252027528338
21
2017.76250315074
31
0.000425087781734385
  0
LINE
 8
GROUP0
10
608.252027528338
20
2017.76250315074
30
0.000425087781734385
11
605.234988227461
21
2022.39629896395
31
0.000425087781890188
  0
LINE
 8
GROUP0
10
605.234988227461
20
2022.39629896395
30
0.000425087781890188
11
605.982247907992
21
2023.08705664626
31
0.000425087781913452
  0
LINE
 8
GROUP0
10
605.982247907992
20
2023.08705664626
30
0.000425087781913452
11
610.365041718462
21
2019.7157544895
31
0.000425087786131417
  0
LINE
 8
GROUP0
10
610.365041718462
20
2019.7157544895
30
0.000425087786131417
11
611.9480490374
21
2020.72898345826
31
0.000425087786165257
  0
LINE
 8
GROUP0
10
611.9480490374
20
2020.72898345826
30
0.000425087786165257
11
613.65663397033
21
2021.51210013215
31
0.000425087786192047
  0
LINE
 8
GROUP0
10
613.65663397033
20
2021.51210013215
30
0.000425087786192047
11
615.457565888384
21
2022.04987270249
31
0.000425087786210376
  0
LINE
 8
GROUP0
10
615.457565888384
20
2022.04987270249
30
0.000425087786210376
11
617.315802236102
21
2022.33183458939
31
0.000425087786219541
  0
LINE
 8
GROUP0
10
617.315802236102
20
2022.33183458939
30
0.000425087786219541
11
618.388107551514
21
2027.75629475366
31
0.000425087787124045
  0
LINE
 8
GROUP0
10
618.388107551514
20
2027.75629475366
30
0.000425087787124045
11
619.405370677398
21
2027.7296533819
31
0.00042508778712334
  0
LINE
 8
GROUP0
10
619.405370677398
20
2027.7296533819
30
0.00042508778712334
11
620.192317315284
21
2022.25650875595
31
0.000425087786938633
  0
LINE
 8
GROUP0
10
620.192317315284
20
2022.25650875595
30
0.000425087786938633
11
622.033245976302
21
2021.87768107337
31
0.000425087786925943
  0
LINE
 8
GROUP0
10
622.033245976302
20
2021.87768107337
30
0.000425087786925943
11
623.803563148148
21
2021.24639689172
31
0.000425087786904793
  0
LINE
 8
GROUP0
10
623.803563148148
20
2021.24639689172
30
0.000425087786904793
11
625.468822691271
21
2020.37493100122
31
0.000425087786875183
  0
LINE
 8
GROUP0
10
625.468822691271
20
2020.37493100122
30
0.000425087786875183
11
626.99663233232
21
2019.28024109086
31
0.000425087786838524
  0
LINE
 8
GROUP0
10
626.99663233232
20
2019.28024109086
30
0.000425087786838524
11
631.549862161315
21
2022.41754314811
31
0.000425087788388095
  0
LINE
 8
GROUP0
10
631.549862161315
20
2022.41754314811
30
0.000425087788388095
11
632.259942994919
21
2021.68862780689
31
0.000425087788363421
  0
LINE
 8
GROUP0
10
632.259942994919
20
2021.68862780689
30
0.000425087788363421
11
629.004523334662
21
2017.21908259128
31
0.000425087786769435
  0
LINE
 8
GROUP0
10
629.004523334662
20
2017.21908259128
30
0.000425087786769435
11
630.058844111358
21
2015.66314049104
31
0.000425087787438472
  0
LINE
 8
GROUP0
10
630.058844111358
20
2015.66314049104
30
0.000425087787438472
11
630.886420499222
21
2013.97563813158
31
0.000425087787382072
  0
LINE
 8
GROUP0
10
630.886420499222
20
2013.97563813158
30
0.000425087787382072
11
631.471150126278
21
2012.18940383021
31
0.000425087787321443
  0
LINE
 8
GROUP0
10
631.471150126278
20
2012.18940383021
30
0.000425087787321443
11
631.801657733587
21
2010.33918684185
31
0.000425087787259404
  0
LINE
 8
GROUP0
10
631.801657733587
20
2010.33918684185
30
0.000425087787259404
11
637.252324750284
21
2009.40924227128
31
0.000425087787949591
  0
LINE
 8
GROUP0
10
637.252324750284
20
2009.40924227128
30
0.000425087787949591
11
637.252324750284
21
2008.39162846876
31
0.000425087787915751
  0
LINE
 8
GROUP0
10
637.252324750284
20
2008.39162846876
30
0.000425087787915751
11
631.801657733586
21
2007.46168694745
31
0.000425087787162115
  0
LINE
 8
GROUP0
10
631.801657733586
20
2007.46168694745
30
0.000425087787162115
11
631.471150126277
21
2005.61146710041
31
0.000425087786378164
  0
LINE
 8
GROUP0
10
631.471150126277
20
2005.61146710041
30
0.000425087786378164
11
630.886420499219
21
2003.82523279904
31
0.000425087786317535
  0
LINE
 8
GROUP0
10
630.886420499219
20
2003.82523279904
30
0.000425087786317535
11
630.058844111353
21
2002.13773196421
31
0.000425087786261136
  0
LINE
 8
GROUP0
10
630.058844111353
20
2002.13773196421
30
0.000425087786261136
11
629.004523334656
21
2000.5817913886
31
0.000425087786208261
 0
ENDSEC
 0
EOF
