 0
SECTION
 2
ENTITIES
  0
LINE
 8
GROUP0
10
-169.567327445053
20
3048.13808318261
30
1.97989555613398e-005
11
-169.567327412723
21
3366.13853942034
31
1.56288350585621e-005
  0
LINE
 8
GROUP0
10
-169.567327412723
20
3366.13853942034
30
1.56288350585621e-005
11
-198.567327412723
21
3366.13853942223
31
1.60113697835251e-005
  0
LINE
 8
GROUP0
10
-198.567327412723
20
3366.13853942223
30
1.60113697835251e-005
11
-198.567327413894
21
3396.13853942223
31
1.60239689425745e-005
  0
LINE
 8
GROUP0
10
-198.567327413894
20
3396.13853942223
30
1.60239689425745e-005
11
-211.567327413494
21
3409.1385394213
31
1.61570084640184e-005
  0
LINE
 8
GROUP0
10
-241.567327413494
20
3409.13853942223
30
1.67245282978123e-005
11
-211.567327413494
21
3409.1385394213
31
1.61570084640184e-005
  0
LINE
 8
GROUP0
10
-241.567327413494
20
3409.13853942223
30
1.67245282978123e-005
11
-241.567327412902
21
3438.13853942055
31
1.70191618249882e-005
  0
LINE
 8
GROUP0
10
-241.567327412902
20
3438.13853942055
30
1.70191618249882e-005
11
-559.567806234861
21
3438.13853939213
31
3.17893083921328e-005
  0
LINE
 8
GROUP0
10
-559.567806234861
20
3438.13853939213
30
3.17893083921328e-005
11
-559.567806234682
21
3409.13853942223
31
3.17273907715909e-005
  0
LINE
 8
GROUP0
10
-559.567806234682
20
3409.13853942223
30
3.17273907715909e-005
11
-589.567806234682
21
3409.13853942223
31
3.18775736137533e-005
  0
LINE
 8
GROUP0
10
-589.567806234682
20
3409.13853942223
30
3.18775736137533e-005
11
-602.567806165225
21
3396.13853942223
31
3.19570065198727e-005
  0
LINE
 8
GROUP0
10
-602.567806234682
20
3366.13853942223
30
3.17312693309313e-005
11
-602.567806165225
21
3396.13853942223
31
3.19570065198727e-005
  0
LINE
 8
GROUP0
10
-602.567806234682
20
3366.13853942223
30
3.17312693309313e-005
11
-631.567806234683
21
3366.13853939247
31
3.15952779693873e-005
  0
LINE
 8
GROUP0
10
-631.567806234683
20
3366.13853939247
30
3.15952779693873e-005
11
-631.567806288501
21
3048.13808330078
31
0.0
  0
LINE
 8
GROUP0
10
-602.567806254707
20
3048.13808330045
30
1.68401574723864e-007
11
-631.567806288501
21
3048.13808330078
31
0.0
  0
LINE
 8
GROUP0
10
-602.567806254707
20
3048.13808330045
30
1.68401574723864e-007
11
-602.567806254707
21
3018.13808330045
31
4.97811068926324e-006
  0
LINE
 8
GROUP0
10
-589.567806254707
20
3005.13808322246
30
7.1329142163401e-006
11
-602.567806254707
21
3018.13808330045
31
4.97811068926324e-006
  0
LINE
 8
GROUP0
10
-559.567806254707
20
3005.13808330045
30
7.3863714502076e-006
11
-589.567806254707
21
3005.13808322246
31
7.1329142163401e-006
  0
LINE
 8
GROUP0
10
-559.567806289241
20
2976.13808330045
30
1.20658713153532e-005
11
-559.567806254707
21
3005.13808330045
31
7.3863714502076e-006
  0
LINE
 8
GROUP0
10
-559.567806289241
20
2976.13808330045
30
1.20658713153532e-005
11
-241.567327445792
21
2976.13808318282
31
3.00799443525179e-005
  0
LINE
 8
GROUP0
10
-241.567327445792
20
2976.13808318282
30
3.00799443525179e-005
11
-241.567327445052
21
3005.13808318282
31
2.63309744103546e-005
  0
LINE
 8
GROUP0
10
-241.567327445052
20
3005.13808318282
30
2.63309744103546e-005
11
-211.567327445052
21
3005.13808318281
31
2.60059193554818e-005
  0
LINE
 8
GROUP0
10
-211.567327445052
20
3005.13808318281
30
2.60059193554818e-005
11
-198.567327671064
21
3018.13808265915
31
2.21994449458529e-005
  0
LINE
 8
GROUP0
10
-198.567327488392
20
3048.13808265915
30
2.02357196404657e-005
11
-198.567327671064
21
3018.13808265915
31
2.21994449458529e-005
  0
LINE
 8
GROUP0
10
-198.567327488392
20
3048.13808265915
30
2.02357196404657e-005
11
-169.567327445053
21
3048.13808318261
31
1.97989555613398e-005
  0
LINE
 8
GROUP0
10
-185.499179062139
20
3335.6206729677
30
2.32244977088791e-005
11
-185.29937821713
21
3335.1383110579
31
2.32141476648573e-005
  0
LINE
 8
GROUP0
10
-185.567327409562
20
3336.1383110579
30
2.3236233100915e-005
11
-185.499179062139
21
3335.6206729677
31
2.32244977088791e-005
  0
LINE
 8
GROUP0
10
-185.499179062139
20
3336.65594914811
30
2.32485539631122e-005
11
-185.567327409562
21
3336.1383110579
31
2.3236233100915e-005
  0
LINE
 8
GROUP0
10
-185.29937821713
20
3337.1383110579
30
2.32606207124897e-005
11
-185.499179062139
21
3336.65594914811
31
2.32485539631122e-005
  0
LINE
 8
GROUP0
10
-184.981540971934
20
3337.55252462028
30
2.32716110919406e-005
11
-185.29937821713
21
3337.1383110579
31
2.32606207124897e-005
  0
LINE
 8
GROUP0
10
-184.567327409561
20
3337.87036186547
30
2.32807760281284e-005
11
-184.981540971934
21
3337.55252462028
31
2.32716110919406e-005
  0
LINE
 8
GROUP0
10
-184.084965499766
20
3338.07016271048
30
2.32874909774361e-005
11
-184.567327409561
21
3337.87036186547
31
2.32807760281284e-005
  0
LINE
 8
GROUP0
10
-183.567327409561
20
3338.1383110579
30
2.32912983382627e-005
11
-184.084965499766
21
3338.07016271048
31
2.32874909774361e-005
  0
LINE
 8
GROUP0
10
-183.049689319356
20
3338.07016271048
30
2.32919385834529e-005
11
-183.567327409561
21
3338.1383110579
31
2.32912983382627e-005
  0
LINE
 8
GROUP0
10
-182.567327409561
20
3337.87036186547
30
2.32893682178437e-005
11
-183.049689319356
21
3338.07016271048
31
2.32919385834529e-005
  0
LINE
 8
GROUP0
10
-182.153113847188
20
3337.55252462028
30
2.32837623049542e-005
11
-182.567327409561
21
3337.87036186547
31
2.32893682178437e-005
  0
LINE
 8
GROUP0
10
-181.835276601992
20
3337.1383110579
30
2.32755029164033e-005
11
-182.153113847188
21
3337.55252462028
31
2.32837623049542e-005
  0
LINE
 8
GROUP0
10
-181.635475756983
20
3336.65594914811
30
2.32651528723815e-005
11
-181.835276601992
21
3337.1383110579
31
2.32755029164033e-005
  0
LINE
 8
GROUP0
10
-181.567327409561
20
3336.1383110579
30
2.32534174803456e-005
11
-181.635475756983
21
3336.65594914811
31
2.32651528723815e-005
  0
LINE
 8
GROUP0
10
-181.635475756983
20
3335.6206729677
30
2.32410966181484e-005
11
-181.567327409561
21
3336.1383110579
31
2.32534174803456e-005
  0
LINE
 8
GROUP0
10
-181.835276601992
20
3335.1383110579
30
2.3229029868771e-005
11
-181.635475756983
21
3335.6206729677
31
2.32410966181484e-005
  0
LINE
 8
GROUP0
10
-182.153113847188
20
3334.72409749553
30
2.321803948932e-005
11
-181.835276601992
21
3335.1383110579
31
2.3229029868771e-005
  0
LINE
 8
GROUP0
10
-182.567327409561
20
3334.40626025033
30
2.32088745531323e-005
11
-182.153113847188
21
3334.72409749553
31
2.321803948932e-005
  0
LINE
 8
GROUP0
10
-183.049689319356
20
3334.20645940532
30
2.32021596038245e-005
11
-182.567327409561
21
3334.40626025033
31
2.32088745531323e-005
  0
LINE
 8
GROUP0
10
-183.567327409561
20
3334.1383110579
30
2.31983522429979e-005
11
-183.049689319356
21
3334.20645940532
31
2.32021596038245e-005
  0
LINE
 8
GROUP0
10
-184.084965499766
20
3334.20645940532
30
2.31977119075688e-005
11
-183.567327409561
21
3334.1383110579
31
2.31983522429979e-005
  0
LINE
 8
GROUP0
10
-184.567327409561
20
3334.40626025033
30
2.3200282363417e-005
11
-184.084965499766
21
3334.20645940532
31
2.31977119075688e-005
  0
LINE
 8
GROUP0
10
-184.981540971934
20
3334.72409749553
30
2.32058882763064e-005
11
-184.567327409561
21
3334.40626025033
31
2.3200282363417e-005
  0
LINE
 8
GROUP0
10
-185.29937821713
20
3335.1383110579
30
2.32141476648573e-005
11
-184.981540971934
21
3334.72409749553
31
2.32058882763064e-005
  0
LINE
 8
GROUP0
10
-185.49917906214
20
3206.6206729677
30
2.02269869487404e-005
11
-185.29937821713
21
3206.1383110579
31
2.02166369047185e-005
  0
LINE
 8
GROUP0
10
-185.567327409562
20
3207.1383110579
30
2.02387223407763e-005
11
-185.49917906214
21
3206.6206729677
31
2.02269869487404e-005
  0
LINE
 8
GROUP0
10
-185.49917906214
20
3207.65594914811
30
2.02510432029734e-005
11
-185.567327409562
21
3207.1383110579
31
2.02387223407763e-005
  0
LINE
 8
GROUP0
10
-185.29937821713
20
3208.1383110579
30
2.02631099523509e-005
11
-185.49917906214
21
3207.65594914811
31
2.02510432029734e-005
  0
LINE
 8
GROUP0
10
-184.981540971934
20
3208.55252462028
30
2.02741003318019e-005
11
-185.29937821713
21
3208.1383110579
31
2.02631099523509e-005
  0
LINE
 8
GROUP0
10
-184.567327409561
20
3208.87036186547
30
2.02832652679896e-005
11
-184.981540971934
21
3208.55252462028
31
2.02741003318019e-005
  0
LINE
 8
GROUP0
10
-184.084965499766
20
3209.07016271048
30
2.02899802172973e-005
11
-184.567327409561
21
3208.87036186547
31
2.02832652679896e-005
  0
LINE
 8
GROUP0
10
-183.567327409561
20
3209.1383110579
30
2.02937875781239e-005
11
-184.084965499766
21
3209.07016271048
31
2.02899802172973e-005
  0
LINE
 8
GROUP0
10
-183.049689319357
20
3209.07016271048
30
2.02944278233141e-005
11
-183.567327409561
21
3209.1383110579
31
2.02937875781239e-005
  0
LINE
 8
GROUP0
10
-182.567327409562
20
3208.87036186547
30
2.02918574577049e-005
11
-183.049689319357
21
3209.07016271048
31
2.02944278233141e-005
  0
LINE
 8
GROUP0
10
-182.153113847188
20
3208.55252462028
30
2.02862515448154e-005
11
-182.567327409562
21
3208.87036186547
31
2.02918574577049e-005
  0
LINE
 8
GROUP0
10
-181.835276601993
20
3208.1383110579
30
2.02779921562646e-005
11
-182.153113847188
21
3208.55252462028
31
2.02862515448154e-005
  0
LINE
 8
GROUP0
10
-181.635475756983
20
3207.65594914811
30
2.02676421122427e-005
11
-181.835276601993
21
3208.1383110579
31
2.02779921562646e-005
  0
LINE
 8
GROUP0
10
-181.567327409561
20
3207.1383110579
30
2.02559067202068e-005
11
-181.635475756983
21
3207.65594914811
31
2.02676421122427e-005
  0
LINE
 8
GROUP0
10
-181.635475756983
20
3206.6206729677
30
2.02435858580097e-005
11
-181.567327409561
21
3207.1383110579
31
2.02559067202068e-005
  0
LINE
 8
GROUP0
10
-181.835276601993
20
3206.1383110579
30
2.02315191086322e-005
11
-181.635475756983
21
3206.6206729677
31
2.02435858580097e-005
  0
LINE
 8
GROUP0
10
-182.153113847188
20
3205.72409749553
30
2.02205287291812e-005
11
-181.835276601993
21
3206.1383110579
31
2.02315191086322e-005
  0
LINE
 8
GROUP0
10
-182.567327409562
20
3205.40626025033
30
2.02113637929935e-005
11
-182.153113847188
21
3205.72409749553
31
2.02205287291812e-005
  0
LINE
 8
GROUP0
10
-183.049689319357
20
3205.20645940532
30
2.02046488436858e-005
11
-182.567327409562
21
3205.40626025033
31
2.02113637929935e-005
  0
LINE
 8
GROUP0
10
-183.567327409561
20
3205.1383110579
30
2.02008414828592e-005
11
-183.049689319357
21
3205.20645940532
31
2.02046488436858e-005
  0
LINE
 8
GROUP0
10
-184.084965499766
20
3205.20645940532
30
2.020020114743e-005
11
-183.567327409561
21
3205.1383110579
31
2.02008414828592e-005
  0
LINE
 8
GROUP0
10
-184.567327409561
20
3205.40626025033
30
2.02027716032782e-005
11
-184.084965499766
21
3205.20645940532
31
2.020020114743e-005
  0
LINE
 8
GROUP0
10
-184.981540971934
20
3205.72409749553
30
2.02083775161677e-005
11
-184.567327409561
21
3205.40626025033
31
2.02027716032782e-005
  0
LINE
 8
GROUP0
10
-185.29937821713
20
3206.1383110579
30
2.02166369047185e-005
11
-184.981540971934
21
3205.72409749553
31
2.02083775161677e-005
  0
LINE
 8
GROUP0
10
-185.49917906214
20
3078.65572076657
30
1.7253527118738e-005
11
-185.567327409562
21
3078.13808267637
31
1.72412062565408e-005
  0
LINE
 8
GROUP0
10
-185.29937821713
20
3079.13808267637
30
1.72655938681154e-005
11
-185.49917906214
21
3078.65572076657
31
1.7253527118738e-005
  0
LINE
 8
GROUP0
10
-184.981540971934
20
3079.55229623874
30
1.72765842475664e-005
11
-185.29937821713
21
3079.13808267637
31
1.72655938681154e-005
  0
LINE
 8
GROUP0
10
-184.567327409561
20
3079.87013348393
30
1.72857491837541e-005
11
-184.981540971934
21
3079.55229623874
31
1.72765842475664e-005
  0
LINE
 8
GROUP0
10
-184.084965499766
20
3080.06993432894
30
1.72924641330618e-005
11
-184.567327409561
21
3079.87013348393
31
1.72857491837541e-005
  0
LINE
 8
GROUP0
10
-183.567327409561
20
3080.13808267637
30
1.72962714938885e-005
11
-184.084965499766
21
3080.06993432894
31
1.72924641330618e-005
  0
LINE
 8
GROUP0
10
-183.049689319357
20
3080.06993432894
30
1.72969118293176e-005
11
-183.567327409561
21
3080.13808267637
31
1.72962714938885e-005
  0
LINE
 8
GROUP0
10
-182.567327409562
20
3079.87013348393
30
1.72943413734694e-005
11
-183.049689319357
21
3080.06993432894
31
1.72969118293176e-005
  0
LINE
 8
GROUP0
10
-182.153113847189
20
3079.55229623874
30
1.728873546058e-005
11
-182.567327409562
21
3079.87013348393
31
1.72943413734694e-005
  0
LINE
 8
GROUP0
10
-181.835276601993
20
3079.13808267637
30
1.72804760720291e-005
11
-182.153113847189
21
3079.55229623874
31
1.728873546058e-005
  0
LINE
 8
GROUP0
10
-181.635475756983
20
3078.65572076657
30
1.72701260280073e-005
11
-181.835276601993
21
3079.13808267637
31
1.72804760720291e-005
  0
LINE
 8
GROUP0
10
-181.567327409561
20
3078.13808267637
30
1.72583907262103e-005
11
-181.635475756983
21
3078.65572076657
31
1.72701260280073e-005
  0
LINE
 8
GROUP0
10
-181.635475756983
20
3077.62044458616
30
1.72460697737742e-005
11
-181.567327409561
21
3078.13808267637
31
1.72583907262103e-005
  0
LINE
 8
GROUP0
10
-181.835276601993
20
3077.13808267637
30
1.72340030243967e-005
11
-181.635475756983
21
3077.62044458616
31
1.72460697737742e-005
  0
LINE
 8
GROUP0
10
-182.153113847189
20
3076.72386911399
30
1.72230126449457e-005
11
-181.835276601993
21
3077.13808267637
31
1.72340030243967e-005
  0
LINE
 8
GROUP0
10
-182.567327409562
20
3076.4060318688
30
1.7213847708758e-005
11
-182.153113847189
21
3076.72386911399
31
1.72230126449457e-005
  0
LINE
 8
GROUP0
10
-183.049689319357
20
3076.20623102379
30
1.72071327594503e-005
11
-182.567327409562
21
3076.4060318688
31
1.7213847708758e-005
  0
LINE
 8
GROUP0
10
-183.567327409561
20
3076.13808267637
30
1.72033253986237e-005
11
-183.049689319357
21
3076.20623102379
31
1.72071327594503e-005
  0
LINE
 8
GROUP0
10
-184.084965499766
20
3076.20623102379
30
1.72026851534335e-005
11
-183.567327409561
21
3076.13808267637
31
1.72033253986237e-005
  0
LINE
 8
GROUP0
10
-184.567327409561
20
3076.4060318688
30
1.72052555190427e-005
11
-184.084965499766
21
3076.20623102379
31
1.72026851534335e-005
  0
LINE
 8
GROUP0
10
-184.981540971934
20
3076.72386911399
30
1.72108614319322e-005
11
-184.567327409561
21
3076.4060318688
31
1.72052555190427e-005
  0
LINE
 8
GROUP0
10
-185.29937821713
20
3077.13808267637
30
1.7219120820483e-005
11
-184.981540971934
21
3076.72386911399
31
1.72108614319322e-005
  0
LINE
 8
GROUP0
10
-185.49917906214
20
3077.62044458616
30
1.72294708645049e-005
11
-185.29937821713
21
3077.13808267637
31
1.7219120820483e-005
  0
LINE
 8
GROUP0
10
-185.567327409562
20
3078.13808267637
30
1.72412062565408e-005
11
-185.49917906214
21
3077.62044458616
31
1.72294708645049e-005
  0
LINE
 8
GROUP0
10
-270.567551063052
20
2991.87013829324
30
1.48714691253937e-005
11
-271.049912972847
21
2992.06993913825
31
1.48740395812419e-005
  0
LINE
 8
GROUP0
10
-270.153337500679
20
2991.55230104805
30
1.48658632125043e-005
11
-270.567551063052
21
2991.87013829324
31
1.48714691253937e-005
  0
LINE
 8
GROUP0
10
-269.835500255483
20
2991.13808748567
30
1.48576038239534e-005
11
-270.153337500679
21
2991.55230104805
31
1.48658632125043e-005
  0
LINE
 8
GROUP0
10
-269.635699410474
20
2990.65572557588
30
1.48472537799316e-005
11
-269.835500255483
21
2991.13808748567
31
1.48576038239534e-005
  0
LINE
 8
GROUP0
10
-269.567551063052
20
2990.13808748567
30
1.48355183878957e-005
11
-269.635699410474
21
2990.65572557588
31
1.48472537799316e-005
  0
LINE
 8
GROUP0
10
-269.635699410474
20
2989.62044939547
30
1.48231975256985e-005
11
-269.567551063052
21
2990.13808748567
31
1.48355183878957e-005
  0
LINE
 8
GROUP0
10
-269.835500255483
20
2989.13808748567
30
1.4811130776321e-005
11
-269.635699410474
21
2989.62044939547
31
1.48231975256985e-005
  0
LINE
 8
GROUP0
10
-270.153337500679
20
2988.7238739233
30
1.48001403968701e-005
11
-269.835500255483
21
2989.13808748567
31
1.4811130776321e-005
  0
LINE
 8
GROUP0
10
-270.567551063052
20
2988.40603667811
30
1.47909754606823e-005
11
-270.153337500679
21
2988.7238739233
31
1.48001403968701e-005
  0
LINE
 8
GROUP0
10
-271.049912972847
20
2988.2062358331
30
1.47842605113746e-005
11
-270.567551063052
21
2988.40603667811
31
1.47909754606823e-005
  0
LINE
 8
GROUP0
10
-271.567551063052
20
2988.13808748567
30
1.4780453150548e-005
11
-271.049912972847
21
2988.2062358331
31
1.47842605113746e-005
  0
LINE
 8
GROUP0
10
-272.085189153257
20
2988.2062358331
30
1.47798129053578e-005
11
-271.567551063052
21
2988.13808748567
31
1.4780453150548e-005
  0
LINE
 8
GROUP0
10
-272.567551063052
20
2988.40603667811
30
1.4782383270967e-005
11
-272.085189153257
21
2988.2062358331
31
1.47798129053578e-005
  0
LINE
 8
GROUP0
10
-272.981764625425
20
2988.7238739233
30
1.47879891838565e-005
11
-272.567551063052
21
2988.40603667811
31
1.4782383270967e-005
  0
LINE
 8
GROUP0
10
-273.299601870621
20
2989.13808748567
30
1.47962485724074e-005
11
-272.981764625425
21
2988.7238739233
31
1.47879891838565e-005
  0
LINE
 8
GROUP0
10
-273.49940271563
20
2989.62044939547
30
1.48065986164292e-005
11
-273.299601870621
21
2989.13808748567
31
1.47962485724074e-005
  0
LINE
 8
GROUP0
10
-273.567551063052
20
2990.13808748567
30
1.48183340084651e-005
11
-273.49940271563
21
2989.62044939547
31
1.48065986164292e-005
  0
LINE
 8
GROUP0
10
-273.49940271563
20
2990.65572557588
30
1.48306548706623e-005
11
-273.567551063052
21
2990.13808748567
31
1.48183340084651e-005
  0
LINE
 8
GROUP0
10
-273.299601870621
20
2991.13808748567
30
1.48427216200397e-005
11
-273.49940271563
21
2990.65572557588
31
1.48306548706623e-005
  0
LINE
 8
GROUP0
10
-272.981764625425
20
2991.55230104805
30
1.48537119994907e-005
11
-273.299601870621
21
2991.13808748567
31
1.48427216200397e-005
  0
LINE
 8
GROUP0
10
-272.567551063052
20
2991.87013829324
30
1.48628769356784e-005
11
-272.981764625425
21
2991.55230104805
31
1.48537119994907e-005
  0
LINE
 8
GROUP0
10
-272.085189153257
20
2992.06993913825
30
1.48695918849862e-005
11
-272.567551063052
21
2991.87013829324
31
1.48628769356784e-005
  0
LINE
 8
GROUP0
10
-271.567551063052
20
2992.13808748567
30
1.48733992458128e-005
11
-272.085189153257
21
2992.06993913825
31
1.48695918849862e-005
  0
LINE
 8
GROUP0
10
-271.049912972847
20
2992.06993913825
30
1.48740395812419e-005
11
-271.567551063052
21
2992.13808748567
31
1.48733992458128e-005
  0
LINE
 8
GROUP0
10
-401.085189153257
20
2992.06993913825
30
1.43153933923779e-005
11
-401.567551063052
21
2991.87013829324
31
1.43086784430702e-005
  0
LINE
 8
GROUP0
10
-400.567551063052
20
2992.13808748568
30
1.43192007532045e-005
11
-401.085189153257
21
2992.06993913825
31
1.43153933923779e-005
  0
LINE
 8
GROUP0
10
-400.049912972847
20
2992.06993913825
30
1.43198410886336e-005
11
-400.567551063052
21
2992.13808748568
31
1.43192007532045e-005
  0
LINE
 8
GROUP0
10
-399.567551063052
20
2991.87013829324
30
1.43172706327854e-005
11
-400.049912972847
21
2992.06993913825
31
1.43198410886336e-005
  0
LINE
 8
GROUP0
10
-399.153337500679
20
2991.55230104805
30
1.4311664719896e-005
11
-399.567551063052
21
2991.87013829324
31
1.43172706327854e-005
  0
LINE
 8
GROUP0
10
-398.835500255483
20
2991.13808748567
30
1.43034053313451e-005
11
-399.153337500679
21
2991.55230104805
31
1.4311664719896e-005
  0
LINE
 8
GROUP0
10
-398.635699410474
20
2990.65572557588
30
1.42930552873233e-005
11
-398.835500255483
21
2991.13808748567
31
1.43034053313451e-005
  0
LINE
 8
GROUP0
10
-398.567551063052
20
2990.13808748567
30
1.42813199855263e-005
11
-398.635699410474
21
2990.65572557588
31
1.42930552873233e-005
  0
LINE
 8
GROUP0
10
-398.635699410474
20
2989.62044939547
30
1.42689991233291e-005
11
-398.567551063052
21
2990.13808748567
31
1.42813199855263e-005
  0
LINE
 8
GROUP0
10
-398.835500255483
20
2989.13808748568
30
1.42569322837127e-005
11
-398.635699410474
21
2989.62044939547
31
1.42689991233291e-005
  0
LINE
 8
GROUP0
10
-399.153337500679
20
2988.7238739233
30
1.42459419945007e-005
11
-398.835500255483
21
2989.13808748568
31
1.42569322837127e-005
  0
LINE
 8
GROUP0
10
-399.567551063052
20
2988.40603667811
30
1.42367770583129e-005
11
-399.153337500679
21
2988.7238739233
31
1.42459419945007e-005
  0
LINE
 8
GROUP0
10
-400.049912972847
20
2988.2062358331
30
1.42300620187663e-005
11
-399.567551063052
21
2988.40603667811
31
1.42367770583129e-005
  0
LINE
 8
GROUP0
10
-400.567551063052
20
2988.13808748567
30
1.42262546579397e-005
11
-400.049912972847
21
2988.2062358331
31
1.42300620187663e-005
  0
LINE
 8
GROUP0
10
-401.085189153257
20
2988.2062358331
30
1.42256144127495e-005
11
-400.567551063052
21
2988.13808748567
31
1.42262546579397e-005
  0
LINE
 8
GROUP0
10
-401.567551063052
20
2988.40603667811
30
1.42281847783587e-005
11
-401.085189153257
21
2988.2062358331
31
1.42256144127495e-005
  0
LINE
 8
GROUP0
10
-401.981764625425
20
2988.7238739233
30
1.42337906912482e-005
11
-401.567551063052
21
2988.40603667811
31
1.42281847783587e-005
  0
LINE
 8
GROUP0
10
-402.299601870621
20
2989.13808748568
30
1.4242050170038e-005
11
-401.981764625425
21
2988.7238739233
31
1.42337906912482e-005
  0
LINE
 8
GROUP0
10
-402.49940271563
20
2989.62044939547
30
1.42524002140598e-005
11
-402.299601870621
21
2989.13808748568
31
1.4242050170038e-005
  0
LINE
 8
GROUP0
10
-402.567551063052
20
2990.13808748567
30
1.42641355158568e-005
11
-402.49940271563
21
2989.62044939547
31
1.42524002140598e-005
  0
LINE
 8
GROUP0
10
-402.49940271563
20
2990.65572557588
30
1.4276456378054e-005
11
-402.567551063052
21
2990.13808748567
31
1.42641355158568e-005
  0
LINE
 8
GROUP0
10
-402.299601870621
20
2991.13808748567
30
1.42885231274315e-005
11
-402.49940271563
21
2990.65572557588
31
1.4276456378054e-005
  0
LINE
 8
GROUP0
10
-401.981764625425
20
2991.55230104805
30
1.42995135068824e-005
11
-402.299601870621
21
2991.13808748567
31
1.42885231274315e-005
  0
LINE
 8
GROUP0
10
-401.567551063052
20
2991.87013829324
30
1.43086784430702e-005
11
-401.981764625425
21
2991.55230104805
31
1.42995135068824e-005
  0
LINE
 8
GROUP0
10
-527.635927792011
20
2990.65572557588
30
1.37388558923257e-005
11
-527.835728637019
21
2991.13808748567
31
1.37492059363475e-005
  0
LINE
 8
GROUP0
10
-527.567779444589
20
2990.13808748567
30
1.37271205002898e-005
11
-527.635927792011
21
2990.65572557588
31
1.37388558923257e-005
  0
LINE
 8
GROUP0
10
-527.635927792011
20
2989.62044939547
30
1.37147996380926e-005
11
-527.567779444589
21
2990.13808748567
31
1.37271205002898e-005
  0
LINE
 8
GROUP0
10
-527.835728637019
20
2989.13808748568
30
1.37027328887152e-005
11
-527.635927792011
21
2989.62044939547
31
1.37147996380926e-005
  0
LINE
 8
GROUP0
10
-528.153565882215
20
2988.7238739233
30
1.36917425092642e-005
11
-527.835728637019
21
2989.13808748568
31
1.37027328887152e-005
  0
LINE
 8
GROUP0
10
-528.567779444589
20
2988.40603667811
30
1.36825775730764e-005
11
-528.153565882215
21
2988.7238739233
31
1.36917425092642e-005
  0
LINE
 8
GROUP0
10
-529.050141354384
20
2988.2062358331
30
1.36758626237687e-005
11
-528.567779444589
21
2988.40603667811
31
1.36825775730764e-005
  0
LINE
 8
GROUP0
10
-529.567779444588
20
2988.13808748567
30
1.36720552629421e-005
11
-529.050141354384
21
2988.2062358331
31
1.36758626237687e-005
  0
LINE
 8
GROUP0
10
-530.085417534794
20
2988.2062358331
30
1.3671414927513e-005
11
-529.567779444588
21
2988.13808748567
31
1.36720552629421e-005
  0
LINE
 8
GROUP0
10
-530.567779444589
20
2988.40603667811
30
1.36739853833612e-005
11
-530.085417534794
21
2988.2062358331
31
1.3671414927513e-005
  0
LINE
 8
GROUP0
10
-530.981993006962
20
2988.7238739233
30
1.36795912962506e-005
11
-530.567779444589
21
2988.40603667811
31
1.36739853833612e-005
  0
LINE
 8
GROUP0
10
-531.299830252158
20
2989.13808748568
30
1.36878506848015e-005
11
-530.981993006962
21
2988.7238739233
31
1.36795912962506e-005
  0
LINE
 8
GROUP0
10
-531.499631097166
20
2989.62044939547
30
1.36982007288233e-005
11
-531.299830252158
21
2989.13808748568
31
1.36878506848015e-005
  0
LINE
 8
GROUP0
10
-531.567779444589
20
2990.13808748567
30
1.37099360306203e-005
11
-531.499631097166
21
2989.62044939547
31
1.36982007288233e-005
  0
LINE
 8
GROUP0
10
-531.499631097166
20
2990.65572557588
30
1.37222569830564e-005
11
-531.567779444589
21
2990.13808748567
31
1.37099360306203e-005
  0
LINE
 8
GROUP0
10
-531.299830252158
20
2991.13808748567
30
1.37343237324339e-005
11
-531.499631097166
21
2990.65572557588
31
1.37222569830564e-005
  0
LINE
 8
GROUP0
10
-530.981993006962
20
2991.55230104805
30
1.37453141118848e-005
11
-531.299830252158
21
2991.13808748567
31
1.37343237324339e-005
  0
LINE
 8
GROUP0
10
-530.567779444589
20
2991.87013829324
30
1.37544790480726e-005
11
-530.981993006962
21
2991.55230104805
31
1.37453141118848e-005
  0
LINE
 8
GROUP0
10
-530.085417534794
20
2992.06993913825
30
1.37611939973803e-005
11
-530.567779444589
21
2991.87013829324
31
1.37544790480726e-005
  0
LINE
 8
GROUP0
10
-529.567779444588
20
2992.13808748568
30
1.37650013582069e-005
11
-530.085417534794
21
2992.06993913825
31
1.37611939973803e-005
  0
LINE
 8
GROUP0
10
-529.050141354384
20
2992.06993913825
30
1.37656416033971e-005
11
-529.567779444588
21
2992.13808748568
31
1.37650013582069e-005
  0
LINE
 8
GROUP0
10
-528.567779444589
20
2991.87013829324
30
1.37630712377879e-005
11
-529.050141354384
21
2992.06993913825
31
1.37656416033971e-005
  0
LINE
 8
GROUP0
10
-528.153565882215
20
2991.55230104805
30
1.37574653248984e-005
11
-528.567779444589
21
2991.87013829324
31
1.37630712377879e-005
  0
LINE
 8
GROUP0
10
-527.835728637019
20
2991.13808748567
30
1.37492059363475e-005
11
-528.153565882215
21
2991.55230104805
31
1.37574653248984e-005
  0
LINE
 8
GROUP0
10
-619.299825442848
20
3079.13831113917
30
1.54010846391495e-005
11
-619.499626287858
21
3078.65594922937
31
1.53890177995331e-005
  0
LINE
 8
GROUP0
10
-618.981988197652
20
3079.55252470154
30
1.54120749283615e-005
11
-619.299825442848
21
3079.13831113917
31
1.54010846391495e-005
  0
LINE
 8
GROUP0
10
-618.567774635279
20
3079.87036194674
30
1.54212398645492e-005
11
-618.981988197652
21
3079.55252470154
31
1.54120749283615e-005
  0
LINE
 8
GROUP0
10
-618.085412725484
20
3080.07016279174
30
1.54279548138569e-005
11
-618.567774635279
21
3079.87036194674
31
1.54212398645492e-005
  0
LINE
 8
GROUP0
10
-617.56777463528
20
3080.13831113917
30
1.54317621746836e-005
11
-618.085412725484
21
3080.07016279174
31
1.54279548138569e-005
  0
LINE
 8
GROUP0
10
-617.050136545075
20
3080.07016279174
30
1.54324025101127e-005
11
-617.56777463528
21
3080.13831113917
31
1.54317621746836e-005
  0
LINE
 8
GROUP0
10
-616.56777463528
20
3079.87036194674
30
1.54298321445034e-005
11
-617.050136545075
21
3080.07016279174
31
1.54324025101127e-005
  0
LINE
 8
GROUP0
10
-616.153561072907
20
3079.55252470154
30
1.5424226231614e-005
11
-616.56777463528
21
3079.87036194674
31
1.54298321445034e-005
  0
LINE
 8
GROUP0
10
-615.835723827711
20
3079.13831113917
30
1.54159667528242e-005
11
-616.153561072907
21
3079.55252470154
31
1.5424226231614e-005
  0
LINE
 8
GROUP0
10
-615.635922982701
20
3078.65594922937
30
1.54056167088024e-005
11
-615.835723827711
21
3079.13831113917
31
1.54159667528242e-005
  0
LINE
 8
GROUP0
10
-615.567774635279
20
3078.13831113917
30
1.53938814070054e-005
11
-615.635922982701
21
3078.65594922937
31
1.54056167088024e-005
  0
LINE
 8
GROUP0
10
-615.635922982701
20
3077.62067304896
30
1.53815605448082e-005
11
-615.567774635279
21
3078.13831113917
31
1.53938814070054e-005
  0
LINE
 8
GROUP0
10
-615.835723827711
20
3077.13831113917
30
1.53694937954307e-005
11
-615.635922982701
21
3077.62067304896
31
1.53815605448082e-005
  0
LINE
 8
GROUP0
10
-616.153561072907
20
3076.72409757679
30
1.53585034159798e-005
11
-615.835723827711
21
3077.13831113917
31
1.53694937954307e-005
  0
LINE
 8
GROUP0
10
-616.56777463528
20
3076.4062603316
30
1.5349338479792e-005
11
-616.153561072907
21
3076.72409757679
31
1.53585034159798e-005
  0
LINE
 8
GROUP0
10
-617.050136545075
20
3076.20645948659
30
1.53426235304843e-005
11
-616.56777463528
21
3076.4062603316
31
1.5349338479792e-005
  0
LINE
 8
GROUP0
10
-617.56777463528
20
3076.13831113917
30
1.53388161696577e-005
11
-617.050136545075
21
3076.20645948659
31
1.53426235304843e-005
  0
LINE
 8
GROUP0
10
-618.085412725484
20
3076.20645948659
30
1.53381758342286e-005
11
-617.56777463528
21
3076.13831113917
31
1.53388161696577e-005
  0
LINE
 8
GROUP0
10
-618.567774635279
20
3076.4062603316
30
1.53407461998378e-005
11
-618.085412725484
21
3076.20645948659
31
1.53381758342286e-005
  0
LINE
 8
GROUP0
10
-618.981988197652
20
3076.72409757679
30
1.53463522029662e-005
11
-618.567774635279
21
3076.4062603316
31
1.53407461998378e-005
  0
LINE
 8
GROUP0
10
-619.299825442848
20
3077.13831113917
30
1.53546115915171e-005
11
-618.981988197652
21
3076.72409757679
31
1.53463522029662e-005
  0
LINE
 8
GROUP0
10
-619.499626287858
20
3077.62067304896
30
1.53649616355389e-005
11
-619.299825442848
21
3077.13831113917
31
1.53546115915171e-005
  0
LINE
 8
GROUP0
10
-619.56777463528
20
3078.13831113917
30
1.53766969373359e-005
11
-619.499626287858
21
3077.62067304896
31
1.53649616355389e-005
  0
LINE
 8
GROUP0
10
-619.499626287858
20
3078.65594922937
30
1.53890177995331e-005
11
-619.56777463528
21
3078.13831113917
31
1.53766969373359e-005
  0
LINE
 8
GROUP0
10
-616.56777463528
20
3205.4062603316
30
1.83468492399308e-005
11
-616.153561072907
21
3205.72409757679
31
1.83560141761185e-005
  0
LINE
 8
GROUP0
10
-617.050136545075
20
3205.20645948659
30
1.83401342906231e-005
11
-616.56777463528
21
3205.4062603316
31
1.83468492399308e-005
  0
LINE
 8
GROUP0
10
-617.56777463528
20
3205.13831113917
30
1.83363269297965e-005
11
-617.050136545075
21
3205.20645948659
31
1.83401342906231e-005
  0
LINE
 8
GROUP0
10
-618.085412725484
20
3205.20645948659
30
1.83356865943673e-005
11
-617.56777463528
21
3205.13831113917
31
1.83363269297965e-005
  0
LINE
 8
GROUP0
10
-618.567774635279
20
3205.4062603316
30
1.83382569599766e-005
11
-618.085412725484
21
3205.20645948659
31
1.83356865943673e-005
  0
LINE
 8
GROUP0
10
-618.981988197652
20
3205.72409757679
30
1.8343862963105e-005
11
-618.567774635279
21
3205.4062603316
31
1.83382569599766e-005
  0
LINE
 8
GROUP0
10
-619.299825442848
20
3206.13831113917
30
1.83521223516558e-005
11
-618.981988197652
21
3205.72409757679
31
1.8343862963105e-005
  0
LINE
 8
GROUP0
10
-619.499626287858
20
3206.62067304896
30
1.83624723956777e-005
11
-619.299825442848
21
3206.13831113917
31
1.83521223516558e-005
  0
LINE
 8
GROUP0
10
-619.56777463528
20
3207.13831113917
30
1.83742076974747e-005
11
-619.499626287858
21
3206.62067304896
31
1.83624723956777e-005
  0
LINE
 8
GROUP0
10
-619.499626287858
20
3207.65594922937
30
1.83865285596718e-005
11
-619.56777463528
21
3207.13831113917
31
1.83742076974747e-005
  0
LINE
 8
GROUP0
10
-619.299825442848
20
3208.13831113917
30
1.83985953992882e-005
11
-619.499626287858
21
3207.65594922937
31
1.83865285596718e-005
  0
LINE
 8
GROUP0
10
-618.981988197652
20
3208.55252470154
30
1.84095856885003e-005
11
-619.299825442848
21
3208.13831113917
31
1.83985953992882e-005
  0
LINE
 8
GROUP0
10
-618.567774635279
20
3208.87036194674
30
1.8418750624688e-005
11
-618.981988197652
21
3208.55252470154
31
1.84095856885003e-005
  0
LINE
 8
GROUP0
10
-618.085412725484
20
3209.07016279174
30
1.84254655739957e-005
11
-618.567774635279
21
3208.87036194674
31
1.8418750624688e-005
  0
LINE
 8
GROUP0
10
-617.56777463528
20
3209.13831113917
30
1.84292729348223e-005
11
-618.085412725484
21
3209.07016279174
31
1.84254655739957e-005
  0
LINE
 8
GROUP0
10
-617.050136545075
20
3209.07016279174
30
1.84299132702515e-005
11
-617.56777463528
21
3209.13831113917
31
1.84292729348223e-005
  0
LINE
 8
GROUP0
10
-616.56777463528
20
3208.87036194674
30
1.84273429046422e-005
11
-617.050136545075
21
3209.07016279174
31
1.84299132702515e-005
  0
LINE
 8
GROUP0
10
-616.153561072907
20
3208.55252470154
30
1.84217369917528e-005
11
-616.56777463528
21
3208.87036194674
31
1.84273429046422e-005
  0
LINE
 8
GROUP0
10
-615.835723827711
20
3208.13831113917
30
1.8413477512963e-005
11
-616.153561072907
21
3208.55252470154
31
1.84217369917528e-005
  0
LINE
 8
GROUP0
10
-615.635922982701
20
3207.65594922937
30
1.84031274689411e-005
11
-615.835723827711
21
3208.13831113917
31
1.8413477512963e-005
  0
LINE
 8
GROUP0
10
-615.567774635279
20
3207.13831113917
30
1.83913921671441e-005
11
-615.635922982701
21
3207.65594922937
31
1.84031274689411e-005
  0
LINE
 8
GROUP0
10
-615.635922982701
20
3206.62067304896
30
1.8379071304947e-005
11
-615.567774635279
21
3207.13831113917
31
1.83913921671441e-005
  0
LINE
 8
GROUP0
10
-615.835723827711
20
3206.13831113917
30
1.83670044653306e-005
11
-615.635922982701
21
3206.62067304896
31
1.8379071304947e-005
  0
LINE
 8
GROUP0
10
-616.153561072907
20
3205.72409757679
30
1.83560141761185e-005
11
-615.835723827711
21
3206.13831113917
31
1.83670044653306e-005
  0
LINE
 8
GROUP0
10
-615.835723827711
20
3335.1385395207
30
2.13645205495661e-005
11
-615.635922982701
21
3335.6209014305
31
2.13765873891825e-005
  0
LINE
 8
GROUP0
10
-616.153561072907
20
3334.72432595833
30
2.1353530260354e-005
11
-615.835723827711
21
3335.1385395207
31
2.13645205495661e-005
  0
LINE
 8
GROUP0
10
-616.56777463528
20
3334.40648871313
30
2.13443653241663e-005
11
-616.153561072907
21
3334.72432595833
31
2.1353530260354e-005
  0
LINE
 8
GROUP0
10
-617.050136545075
20
3334.20668786812
30
2.13376503748586e-005
11
-616.56777463528
21
3334.40648871313
31
2.13443653241663e-005
  0
LINE
 8
GROUP0
10
-617.56777463528
20
3334.1385395207
30
2.1333843014032e-005
11
-617.050136545075
21
3334.20668786812
31
2.13376503748586e-005
  0
LINE
 8
GROUP0
10
-618.085412725484
20
3334.20668786812
30
2.13332026786028e-005
11
-617.56777463528
21
3334.1385395207
31
2.1333843014032e-005
  0
LINE
 8
GROUP0
10
-618.567774635279
20
3334.40648871313
30
2.13357730442121e-005
11
-618.085412725484
21
3334.20668786812
31
2.13332026786028e-005
  0
LINE
 8
GROUP0
10
-618.981988197652
20
3334.72432595833
30
2.13413789571015e-005
11
-618.567774635279
21
3334.40648871313
31
2.13357730442121e-005
  0
LINE
 8
GROUP0
10
-619.299825442848
20
3335.1385395207
30
2.13496384358913e-005
11
-618.981988197652
21
3334.72432595833
31
2.13413789571015e-005
  0
LINE
 8
GROUP0
10
-619.499626287858
20
3335.6209014305
30
2.13599884799132e-005
11
-619.299825442848
21
3335.1385395207
31
2.13496384358913e-005
  0
LINE
 8
GROUP0
10
-619.56777463528
20
3336.1385395207
30
2.13717237817102e-005
11
-619.499626287858
21
3335.6209014305
31
2.13599884799132e-005
  0
LINE
 8
GROUP0
10
-619.499626287858
20
3336.65617761091
30
2.13840446439073e-005
11
-619.56777463528
21
3336.1385395207
31
2.13717237817102e-005
  0
LINE
 8
GROUP0
10
-619.299825442848
20
3337.1385395207
30
2.13961114835237e-005
11
-619.499626287858
21
3336.65617761091
31
2.13840446439073e-005
  0
LINE
 8
GROUP0
10
-618.981988197652
20
3337.55275308308
30
2.14071017727357e-005
11
-619.299825442848
21
3337.1385395207
31
2.13961114835237e-005
  0
LINE
 8
GROUP0
10
-618.567774635279
20
3337.87059032827
30
2.14162667089235e-005
11
-618.981988197652
21
3337.55275308308
31
2.14071017727357e-005
  0
LINE
 8
GROUP0
10
-618.085412725484
20
3338.07039117328
30
2.14229816582312e-005
11
-618.567774635279
21
3337.87059032827
31
2.14162667089235e-005
  0
LINE
 8
GROUP0
10
-617.56777463528
20
3338.1385395207
30
2.14267890190578e-005
11
-618.085412725484
21
3338.07039117328
31
2.14229816582312e-005
  0
LINE
 8
GROUP0
10
-617.050136545075
20
3338.07039117328
30
2.14274293544869e-005
11
-617.56777463528
21
3338.1385395207
31
2.14267890190578e-005
  0
LINE
 8
GROUP0
10
-616.56777463528
20
3337.87059032827
30
2.14248589888777e-005
11
-617.050136545075
21
3338.07039117328
31
2.14274293544869e-005
  0
LINE
 8
GROUP0
10
-616.153561072907
20
3337.55275308308
30
2.14192529857493e-005
11
-616.56777463528
21
3337.87059032827
31
2.14248589888777e-005
  0
LINE
 8
GROUP0
10
-615.835723827711
20
3337.1385395207
30
2.14109935971984e-005
11
-616.153561072907
21
3337.55275308308
31
2.14192529857493e-005
  0
LINE
 8
GROUP0
10
-615.635922982701
20
3336.65617761091
30
2.14006435531766e-005
11
-615.835723827711
21
3337.1385395207
31
2.14109935971984e-005
  0
LINE
 8
GROUP0
10
-615.567774635279
20
3336.1385395207
30
2.13889082513796e-005
11
-615.635922982701
21
3336.65617761091
31
2.14006435531766e-005
  0
LINE
 8
GROUP0
10
-615.635922982701
20
3335.6209014305
30
2.13765873891825e-005
11
-615.567774635279
21
3336.1385395207
31
2.13889082513796e-005
  0
LINE
 8
GROUP0
10
-528.567550981788
20
3422.40648390382
30
2.3767237572242e-005
11
-528.153337419415
21
3422.72432114902
31
2.37764025084297e-005
  0
LINE
 8
GROUP0
10
-529.049912891583
20
3422.20668305882
30
2.37605226229343e-005
11
-528.567550981788
21
3422.40648390382
31
2.3767237572242e-005
  0
LINE
 8
GROUP0
10
-529.567550981788
20
3422.13853471139
30
2.37567152621077e-005
11
-529.049912891583
21
3422.20668305882
31
2.37605226229343e-005
  0
LINE
 8
GROUP0
10
-530.085189071993
20
3422.20668305882
30
2.37560749266785e-005
11
-529.567550981788
21
3422.13853471139
31
2.37567152621077e-005
  0
LINE
 8
GROUP0
10
-530.567550981788
20
3422.40648390382
30
2.37586452922878e-005
11
-530.085189071993
21
3422.20668305882
31
2.37560749266785e-005
  0
LINE
 8
GROUP0
10
-530.981764544161
20
3422.72432114902
30
2.37642512051772e-005
11
-530.567550981788
21
3422.40648390382
31
2.37586452922878e-005
  0
LINE
 8
GROUP0
10
-531.299601789357
20
3423.13853471139
30
2.3772510683967e-005
11
-530.981764544161
21
3422.72432114902
31
2.37642512051772e-005
  0
LINE
 8
GROUP0
10
-531.499402634366
20
3423.62089662119
30
2.37828607279889e-005
11
-531.299601789357
21
3423.13853471139
31
2.3772510683967e-005
  0
LINE
 8
GROUP0
10
-531.567550981788
20
3424.13853471139
30
2.37945960297858e-005
11
-531.499402634366
21
3423.62089662119
31
2.37828607279889e-005
  0
LINE
 8
GROUP0
10
-531.499402634366
20
3424.6561728016
30
2.3806916891983e-005
11
-531.567550981788
21
3424.13853471139
31
2.37945960297858e-005
  0
LINE
 8
GROUP0
10
-531.299601789357
20
3425.13853471139
30
2.38189837315994e-005
11
-531.499402634366
21
3424.6561728016
31
2.3806916891983e-005
  0
LINE
 8
GROUP0
10
-530.981764544161
20
3425.55274827377
30
2.38299740208114e-005
11
-531.299601789357
21
3425.13853471139
31
2.38189837315994e-005
  0
LINE
 8
GROUP0
10
-530.567550981788
20
3425.87058551896
30
2.38391389569992e-005
11
-530.981764544161
21
3425.55274827377
31
2.38299740208114e-005
  0
LINE
 8
GROUP0
10
-530.085189071993
20
3426.07038636397
30
2.38458539063069e-005
11
-530.567550981788
21
3425.87058551896
31
2.38391389569992e-005
  0
LINE
 8
GROUP0
10
-529.567550981788
20
3426.13853471139
30
2.38496612671335e-005
11
-530.085189071993
21
3426.07038636397
31
2.38458539063069e-005
  0
LINE
 8
GROUP0
10
-529.049912891583
20
3426.07038636397
30
2.38503016025626e-005
11
-529.567550981788
21
3426.13853471139
31
2.38496612671335e-005
  0
LINE
 8
GROUP0
10
-528.567550981788
20
3425.87058551896
30
2.38477312369534e-005
11
-529.049912891583
21
3426.07038636397
31
2.38503016025626e-005
  0
LINE
 8
GROUP0
10
-528.153337419415
20
3425.55274827377
30
2.38421253240639e-005
11
-528.567550981788
21
3425.87058551896
31
2.38477312369534e-005
  0
LINE
 8
GROUP0
10
-527.835500174219
20
3425.13853471139
30
2.38338658452741e-005
11
-528.153337419415
21
3425.55274827377
31
2.38421253240639e-005
  0
LINE
 8
GROUP0
10
-527.63569932921
20
3424.6561728016
30
2.38235158012523e-005
11
-527.835500174219
21
3425.13853471139
31
2.38338658452741e-005
  0
LINE
 8
GROUP0
10
-527.567550981788
20
3424.13853471139
30
2.38117804994553e-005
11
-527.63569932921
21
3424.6561728016
31
2.38235158012523e-005
  0
LINE
 8
GROUP0
10
-527.63569932921
20
3423.62089662119
30
2.37994596372582e-005
11
-527.567550981788
21
3424.13853471139
31
2.38117804994553e-005
  0
LINE
 8
GROUP0
10
-527.835500174219
20
3423.13853471139
30
2.37873927976417e-005
11
-527.63569932921
21
3423.62089662119
31
2.37994596372582e-005
  0
LINE
 8
GROUP0
10
-528.153337419415
20
3422.72432114902
30
2.37764025084297e-005
11
-527.835500174219
21
3423.13853471139
31
2.37873927976417e-005
  0
LINE
 8
GROUP0
10
-402.299601789357
20
3425.13853471139
30
2.43731821339688e-005
11
-402.499402634366
21
3424.6561728016
31
2.43611153845913e-005
  0
LINE
 8
GROUP0
10
-401.981764544161
20
3425.55274827377
30
2.43841725134197e-005
11
-402.299601789357
21
3425.13853471139
31
2.43731821339688e-005
  0
LINE
 8
GROUP0
10
-401.567550981788
20
3425.87058551896
30
2.43933374496075e-005
11
-401.981764544161
21
3425.55274827377
31
2.43841725134197e-005
  0
LINE
 8
GROUP0
10
-401.085189071993
20
3426.07038636397
30
2.44000523989152e-005
11
-401.567550981788
21
3425.87058551896
31
2.43933374496075e-005
  0
LINE
 8
GROUP0
10
-400.567550981788
20
3426.13853471139
30
2.44038597597418e-005
11
-401.085189071993
21
3426.07038636397
31
2.44000523989152e-005
  0
LINE
 8
GROUP0
10
-400.049912891583
20
3426.07038636397
30
2.44045000951709e-005
11
-400.567550981788
21
3426.13853471139
31
2.44038597597418e-005
  0
LINE
 8
GROUP0
10
-399.567550981788
20
3425.87058551896
30
2.44019296393227e-005
11
-400.049912891583
21
3426.07038636397
31
2.44045000951709e-005
  0
LINE
 8
GROUP0
10
-399.153337419415
20
3425.55274827377
30
2.43963237264333e-005
11
-399.567550981788
21
3425.87058551896
31
2.44019296393227e-005
  0
LINE
 8
GROUP0
10
-398.835500174219
20
3425.13853471139
30
2.43880643378824e-005
11
-399.153337419415
21
3425.55274827377
31
2.43963237264333e-005
  0
LINE
 8
GROUP0
10
-398.63569932921
20
3424.6561728016
30
2.43777142938606e-005
11
-398.835500174219
21
3425.13853471139
31
2.43880643378824e-005
  0
LINE
 8
GROUP0
10
-398.567550981788
20
3424.13853471139
30
2.43659789920636e-005
11
-398.63569932921
21
3424.6561728016
31
2.43777142938606e-005
  0
LINE
 8
GROUP0
10
-398.63569932921
20
3423.62089662119
30
2.43536580396275e-005
11
-398.567550981788
21
3424.13853471139
31
2.43659789920636e-005
  0
LINE
 8
GROUP0
10
-398.835500174219
20
3423.13853471139
30
2.434159129025e-005
11
-398.63569932921
21
3423.62089662119
31
2.43536580396275e-005
  0
LINE
 8
GROUP0
10
-399.153337419415
20
3422.72432114902
30
2.43306009107991e-005
11
-398.835500174219
21
3423.13853471139
31
2.434159129025e-005
  0
LINE
 8
GROUP0
10
-399.567550981788
20
3422.40648390382
30
2.43214359746113e-005
11
-399.153337419415
21
3422.72432114902
31
2.43306009107991e-005
  0
LINE
 8
GROUP0
10
-400.049912891583
20
3422.20668305882
30
2.43147210253036e-005
11
-399.567550981788
21
3422.40648390382
31
2.43214359746113e-005
  0
LINE
 8
GROUP0
10
-400.567550981788
20
3422.13853471139
30
2.4310913664477e-005
11
-400.049912891583
21
3422.20668305882
31
2.43147210253036e-005
  0
LINE
 8
GROUP0
10
-401.085189071993
20
3422.20668305882
30
2.43102734192868e-005
11
-400.567550981788
21
3422.13853471139
31
2.4310913664477e-005
  0
LINE
 8
GROUP0
10
-401.567550981788
20
3422.40648390382
30
2.43128437848961e-005
11
-401.085189071993
21
3422.20668305882
31
2.43102734192868e-005
  0
LINE
 8
GROUP0
10
-401.981764544161
20
3422.72432114902
30
2.43184496977855e-005
11
-401.567550981788
21
3422.40648390382
31
2.43128437848961e-005
  0
LINE
 8
GROUP0
10
-402.299601789357
20
3423.13853471139
30
2.43267090863364e-005
11
-401.981764544161
21
3422.72432114902
31
2.43184496977855e-005
  0
LINE
 8
GROUP0
10
-402.499402634366
20
3423.62089662119
30
2.43370591303582e-005
11
-402.299601789357
21
3423.13853471139
31
2.43267090863364e-005
  0
LINE
 8
GROUP0
10
-402.567550981788
20
3424.13853471139
30
2.43487945223941e-005
11
-402.499402634366
21
3423.62089662119
31
2.43370591303582e-005
  0
LINE
 8
GROUP0
10
-402.499402634366
20
3424.6561728016
30
2.43611153845913e-005
11
-402.567550981788
21
3424.13853471139
31
2.43487945223941e-005
  0
LINE
 8
GROUP0
10
-271.567322600252
20
3422.13853471139
30
2.48651131497135e-005
11
-271.049684510046
21
3422.20668305881
31
2.48689205105401e-005
  0
LINE
 8
GROUP0
10
-272.084960690457
20
3422.20668305881
30
2.48644728142844e-005
11
-271.567322600252
21
3422.13853471139
31
2.48651131497135e-005
  0
LINE
 8
GROUP0
10
-272.567322600252
20
3422.40648390382
30
2.48670432701326e-005
11
-272.084960690457
21
3422.20668305881
31
2.48644728142844e-005
  0
LINE
 8
GROUP0
10
-272.981536162625
20
3422.72432114902
30
2.4872649183022e-005
11
-272.567322600252
21
3422.40648390382
31
2.48670432701326e-005
  0
LINE
 8
GROUP0
10
-273.299373407821
20
3423.13853471139
30
2.48809085715729e-005
11
-272.981536162625
21
3422.72432114902
31
2.4872649183022e-005
  0
LINE
 8
GROUP0
10
-273.499174252829
20
3423.62089662119
30
2.48912586155947e-005
11
-273.299373407821
21
3423.13853471139
31
2.48809085715729e-005
  0
LINE
 8
GROUP0
10
-273.567322600251
20
3424.13853471139
30
2.49029939173917e-005
11
-273.499174252829
21
3423.62089662119
31
2.48912586155947e-005
  0
LINE
 8
GROUP0
10
-273.499174252829
20
3424.6561728016
30
2.49153148698278e-005
11
-273.567322600251
21
3424.13853471139
31
2.49029939173917e-005
  0
LINE
 8
GROUP0
10
-273.299373407821
20
3425.13853471139
30
2.49273816192053e-005
11
-273.499174252829
21
3424.6561728016
31
2.49153148698278e-005
  0
LINE
 8
GROUP0
10
-272.981536162625
20
3425.55274827377
30
2.49383719986562e-005
11
-273.299373407821
21
3425.13853471139
31
2.49273816192053e-005
  0
LINE
 8
GROUP0
10
-272.567322600252
20
3425.87058551896
30
2.4947536934844e-005
11
-272.981536162625
21
3425.55274827377
31
2.49383719986562e-005
  0
LINE
 8
GROUP0
10
-272.084960690457
20
3426.07038636397
30
2.49542518841517e-005
11
-272.567322600252
21
3425.87058551896
31
2.4947536934844e-005
  0
LINE
 8
GROUP0
10
-271.567322600252
20
3426.13853471139
30
2.49580592449783e-005
11
-272.084960690457
21
3426.07038636397
31
2.49542518841517e-005
  0
LINE
 8
GROUP0
10
-271.049684510046
20
3426.07038636397
30
2.49586994901685e-005
11
-271.567322600252
21
3426.13853471139
31
2.49580592449783e-005
  0
LINE
 8
GROUP0
10
-270.567322600251
20
3425.87058551896
30
2.49561291245592e-005
11
-271.049684510046
21
3426.07038636397
31
2.49586994901685e-005
  0
LINE
 8
GROUP0
10
-270.153109037878
20
3425.55274827377
30
2.49505232116698e-005
11
-270.567322600251
21
3425.87058551896
31
2.49561291245592e-005
  0
LINE
 8
GROUP0
10
-269.835271792682
20
3425.13853471139
30
2.49422638231189e-005
11
-270.153109037878
21
3425.55274827377
31
2.49505232116698e-005
  0
LINE
 8
GROUP0
10
-269.635470947674
20
3424.6561728016
30
2.49319137790971e-005
11
-269.835271792682
21
3425.13853471139
31
2.49422638231189e-005
  0
LINE
 8
GROUP0
10
-269.567322600252
20
3424.13853471139
30
2.49201783870612e-005
11
-269.635470947674
21
3424.6561728016
31
2.49319137790971e-005
  0
LINE
 8
GROUP0
10
-269.635470947674
20
3423.62089662119
30
2.4907857524864e-005
11
-269.567322600252
21
3424.13853471139
31
2.49201783870612e-005
  0
LINE
 8
GROUP0
10
-269.835271792682
20
3423.13853471139
30
2.48957907754865e-005
11
-269.635470947674
21
3423.62089662119
31
2.4907857524864e-005
  0
LINE
 8
GROUP0
10
-270.153109037878
20
3422.72432114902
30
2.48848003960356e-005
11
-269.835271792682
21
3423.13853471139
31
2.48957907754865e-005
  0
LINE
 8
GROUP0
10
-270.567322600251
20
3422.40648390382
30
2.48756354598478e-005
11
-270.153109037878
21
3422.72432114902
31
2.48848003960356e-005
  0
LINE
 8
GROUP0
10
-271.049684510046
20
3422.20668305881
30
2.48689205105401e-005
11
-270.567322600251
21
3422.40648390382
31
2.48756354598478e-005
  0
LINE
 8
GROUP0
10
-343.06756686294
20
3132.13831137893
30
1.78193447756436e-005
11
-343.152752297399
21
3131.4912637662
31
1.78039436978972e-005
  0
LINE
 8
GROUP0
10
-343.152752297399
20
3131.4912637662
30
1.78039436978972e-005
11
-343.402503353831
21
3130.88831137902
31
1.77888602611753e-005
  0
LINE
 8
GROUP0
10
-343.402503353831
20
3130.88831137902
30
1.77888602611753e-005
11
-343.799799910471
21
3130.37054442617
31
1.77751222868616e-005
  0
LINE
 8
GROUP0
10
-343.799799910471
20
3130.37054442617
30
1.77751222868616e-005
11
-344.317566863549
21
3129.97324786982
31
1.77636660940672e-005
  0
LINE
 8
GROUP0
10
-344.317566863549
20
3129.97324786982
30
1.77636660940672e-005
11
-344.920519250863
21
3129.72349681373
31
1.77552724299923e-005
  0
LINE
 8
GROUP0
10
-344.920519250863
20
3129.72349681373
30
1.77552724299923e-005
11
-345.567566863644
21
3129.63831137963
31
1.7750513228959e-005
  0
LINE
 8
GROUP0
10
-345.567566863644
20
3129.63831137963
30
1.7750513228959e-005
11
-346.214614476376
21
3129.72349681409
31
1.77497128999116e-005
  0
LINE
 8
GROUP0
10
-346.214614476376
20
3129.72349681409
30
1.77497128999116e-005
11
-346.817566863549
21
3129.97324787052
31
1.77529258569231e-005
  0
LINE
 8
GROUP0
10
-346.817566863549
20
3129.97324787052
30
1.77529258569231e-005
11
-347.335333816404
21
3130.37054442716
31
1.77599332705947e-005
  0
LINE
 8
GROUP0
10
-347.335333816404
20
3130.37054442716
30
1.77599332705947e-005
11
-347.732630372753
21
3130.88831138024
31
1.77702575062832e-005
  0
LINE
 8
GROUP0
10
-347.732630372753
20
3130.88831138024
30
1.77702575062832e-005
11
-347.982381428845
21
3131.49126376756
31
1.77831950613105e-005
  0
LINE
 8
GROUP0
10
-347.982381428845
20
3131.49126376756
30
1.77831950613105e-005
11
-348.06756686294
21
3132.13831138034
31
1.77978642111165e-005
  0
LINE
 8
GROUP0
10
-348.06756686294
20
3132.13831138034
30
1.77978642111165e-005
11
-347.982381428481
21
3132.78535899307
31
1.78132653791019e-005
  0
LINE
 8
GROUP0
10
-347.982381428481
20
3132.78535899307
30
1.78132653791019e-005
11
-347.73263037205
21
3133.38831138024
31
1.78283488158237e-005
  0
LINE
 8
GROUP0
10
-347.73263037205
20
3133.38831138024
30
1.78283488158237e-005
11
-347.335333815409
21
3133.9060783331
31
1.78420867901374e-005
  0
LINE
 8
GROUP0
10
-347.335333815409
20
3133.9060783331
30
1.78420867901374e-005
11
-346.817566862331
21
3134.30337488945
31
1.78535428926929e-005
  0
LINE
 8
GROUP0
10
-346.817566862331
20
3134.30337488945
30
1.78535428926929e-005
11
-346.214614475017
21
3134.55312594554
31
1.78619366470067e-005
  0
LINE
 8
GROUP0
10
-346.214614475017
20
3134.55312594554
30
1.78619366470067e-005
11
-345.567566862236
21
3134.63831137963
31
1.786669584804e-005
  0
LINE
 8
GROUP0
10
-345.567566862236
20
3134.63831137963
30
1.786669584804e-005
11
-344.920519249505
21
3134.55312594517
31
1.78674961770875e-005
  0
LINE
 8
GROUP0
10
-344.920519249505
20
3134.55312594517
30
1.78674961770875e-005
11
-344.317566862331
21
3134.30337488874
31
1.78642832200759e-005
  0
LINE
 8
GROUP0
10
-344.317566862331
20
3134.30337488874
30
1.78642832200759e-005
11
-343.799799909476
21
3133.9060783321
31
1.78572758064044e-005
  0
LINE
 8
GROUP0
10
-343.799799909476
20
3133.9060783321
30
1.78572758064044e-005
11
-343.402503353127
21
3133.38831137902
31
1.78469515707158e-005
  0
LINE
 8
GROUP0
10
-343.402503353127
20
3133.38831137902
30
1.78469515707158e-005
11
-343.152752297035
21
3132.78535899171
31
1.78340140156885e-005
  0
LINE
 8
GROUP0
10
-343.152752297035
20
3132.78535899171
30
1.78340140156885e-005
11
-343.06756686294
21
3132.13831137893
31
1.78193447756436e-005
  0
LINE
 8
GROUP0
10
-453.402503353831
20
3130.88831137902
30
1.73162879318178e-005
11
-453.799799910471
21
3130.37054442617
31
1.73025499575041e-005
  0
LINE
 8
GROUP0
10
-453.799799910471
20
3130.37054442617
30
1.73025499575041e-005
11
-454.317566863549
21
3129.97324786982
31
1.72910937647097e-005
  0
LINE
 8
GROUP0
10
-454.317566863549
20
3129.97324786982
30
1.72910937647097e-005
11
-454.920519250863
21
3129.72349681373
31
1.72827001006348e-005
  0
LINE
 8
GROUP0
10
-454.920519250863
20
3129.72349681373
30
1.72827001006348e-005
11
-455.567566863644
21
3129.63831137963
31
1.72779408996016e-005
  0
LINE
 8
GROUP0
10
-455.567566863644
20
3129.63831137963
30
1.72779408996016e-005
11
-456.214614476376
21
3129.72349681409
31
1.72771404803151e-005
  0
LINE
 8
GROUP0
10
-456.214614476376
20
3129.72349681409
30
1.72771404803151e-005
11
-456.817566863549
21
3129.97324787052
31
1.72803535275656e-005
  0
LINE
 8
GROUP0
10
-456.817566863549
20
3129.97324787052
30
1.72803535275656e-005
11
-457.335333816404
21
3130.37054442716
31
1.72873609412372e-005
  0
LINE
 8
GROUP0
10
-457.335333816404
20
3130.37054442716
30
1.72873609412372e-005
11
-457.732630372753
21
3130.88831138024
31
1.72976851769258e-005
  0
LINE
 8
GROUP0
10
-457.732630372753
20
3130.88831138024
30
1.72976851769258e-005
11
-457.982381428845
21
3131.49126376756
31
1.73106227319531e-005
  0
LINE
 8
GROUP0
10
-457.982381428845
20
3131.49126376756
30
1.73106227319531e-005
11
-458.067566862941
21
3132.13831138034
31
1.7325291881759e-005
  0
LINE
 8
GROUP0
10
-458.067566862941
20
3132.13831138034
30
1.7325291881759e-005
11
-457.982381428481
21
3132.78535899307
31
1.73406930497444e-005
  0
LINE
 8
GROUP0
10
-457.982381428481
20
3132.78535899307
30
1.73406930497444e-005
11
-457.73263037205
21
3133.38831138024
31
1.73557764864662e-005
  0
LINE
 8
GROUP0
10
-457.73263037205
20
3133.38831138024
30
1.73557764864662e-005
11
-457.33533381541
21
3133.9060783331
31
1.7369514370541e-005
  0
LINE
 8
GROUP0
10
-457.33533381541
20
3133.9060783331
30
1.7369514370541e-005
11
-456.817566862332
21
3134.30337488945
31
1.73809705633354e-005
  0
LINE
 8
GROUP0
10
-456.817566862332
20
3134.30337488945
30
1.73809705633354e-005
11
-456.214614475017
21
3134.55312594554
31
1.73893643176493e-005
  0
LINE
 8
GROUP0
10
-456.214614475017
20
3134.55312594554
30
1.73893643176493e-005
11
-455.567566862237
21
3134.63831137963
31
1.73941235186825e-005
  0
LINE
 8
GROUP0
10
-455.567566862237
20
3134.63831137963
30
1.73941235186825e-005
11
-454.920519249505
21
3134.55312594517
31
1.739492384773e-005
  0
LINE
 8
GROUP0
10
-454.920519249505
20
3134.55312594517
30
1.739492384773e-005
11
-454.317566862331
21
3134.30337488874
31
1.73917108907184e-005
  0
LINE
 8
GROUP0
10
-454.317566862331
20
3134.30337488874
30
1.73917108907184e-005
11
-453.799799909476
21
3133.9060783321
31
1.73847034770469e-005
  0
LINE
 8
GROUP0
10
-453.799799909476
20
3133.9060783321
30
1.73847034770469e-005
11
-453.402503353128
21
3133.38831137902
31
1.73743791511194e-005
  0
LINE
 8
GROUP0
10
-453.402503353128
20
3133.38831137902
30
1.73743791511194e-005
11
-453.152752297036
21
3132.78535899171
31
1.73614415960921e-005
  0
LINE
 8
GROUP0
10
-453.152752297036
20
3132.78535899171
30
1.73614415960921e-005
11
-453.06756686294
21
3132.13831137893
31
1.73467724462861e-005
  0
LINE
 8
GROUP0
10
-453.06756686294
20
3132.13831137893
30
1.73467724462861e-005
11
-453.1527522974
21
3131.4912637662
31
1.73313713685397e-005
  0
LINE
 8
GROUP0
10
-453.1527522974
20
3131.4912637662
30
1.73313713685397e-005
11
-453.402503353831
21
3130.88831137902
31
1.73162879318178e-005
 0
ENDSEC
 0
EOF
