 0
SECTION
 2
ENTITIES
  0
LINE
 8
GROUP0
10
1126.26181166844
20
1677.78256317663
30
0.000555059278145931
11
1126.68227460622
21
1679.02120704926
31
0.000556171843775505
  0
LINE
 8
GROUP0
10
1126.00662131759
20
1676.49963464781
30
0.000553893349440388
11
1126.26181166844
21
1677.78256317663
31
0.000555059278145931
  0
LINE
 8
GROUP0
10
1125.92106993133
20
1675.19437272561
30
0.000552694007026017
11
1126.00662131759
21
1676.49963464781
31
0.000553893349440388
  0
LINE
 8
GROUP0
10
1167.92054674659
20
1273.194256836
30
0.00020078638569081
11
1125.92054673385
21
1273.19426374223
31
0.000214935761790125
  0
LINE
 8
GROUP0
10
1167.92054674659
20
1273.194256836
30
0.00020078638569081
11
1167.92112963214
21
1293.19420956533
31
0.000206624590032589
  0
LINE
 8
GROUP0
10
1167.92112963214
20
1293.19420956533
30
0.000206624590032589
11
1402.92056596701
21
1293.19420956533
31
0.000206624590026949
  0
LINE
 8
GROUP0
10
1402.92056596701
20
1293.19420956533
30
0.000206624590026949
11
1402.92056596694
21
1273.194218194
31
0.000122470490471427
  0
LINE
 8
GROUP0
10
1444.92054673368
20
1273.19421128777
30
0.0
11
1402.92056596694
21
1273.194218194
31
0.000122470490471427
  0
LINE
 8
GROUP0
10
1444.92056592176
20
1297.69439913799
30
0.000188414605129816
11
1444.92054673368
21
1273.19421128777
31
0.0
  0
LINE
 8
GROUP0
10
1444.92056592176
20
1297.69439913799
30
0.000188414605129816
11
1512.42067085774
21
1297.69440223813
31
0.000180712877261435
  0
LINE
 8
GROUP0
10
1512.42065161369
20
1719.69437753085
30
0.000554149854121089
11
1512.42067085774
21
1297.69440223813
31
0.000180712877261435
  0
LINE
 8
GROUP0
10
1512.42065161369
20
1719.69437753085
30
0.000554149854121089
11
1484.9206516137
21
1719.69437564472
31
0.000536825781944628
  0
LINE
 8
GROUP0
10
1484.9206516137
20
1719.69437564472
30
0.000536825781944628
11
1484.92065159345
21
1724.69437564472
31
0.000539322990751762
  0
LINE
 8
GROUP0
10
1484.92065159345
20
1724.69437564472
30
0.000539322990751762
11
1454.92064899227
21
1754.69437728693
31
0.000562067977896324
  0
LINE
 8
GROUP0
10
1444.92064899227
20
1754.6943771686
30
0.00056117448570781
11
1454.92064899227
21
1754.69437728693
31
0.000562067977896324
  0
LINE
 8
GROUP0
10
1444.92064883593
20
1775.19437716859
30
0.000573948170764033
11
1444.92064899227
21
1754.6943771686
31
0.00056117448570781
  0
LINE
 8
GROUP0
10
1125.92054673384
20
1775.1943703088
30
0.000595519209488388
11
1444.92064883593
21
1775.19437716859
31
0.000573948170764033
  0
LINE
 8
GROUP0
10
1125.92054673384
20
1775.1943703088
30
0.000595519209488388
11
1125.92058130216
21
1754.69438071087
31
0.000566068409776871
  0
LINE
 8
GROUP0
10
1125.92058130216
20
1754.69438071087
30
0.000566068409776871
11
1115.92058130216
21
1754.69438071087
31
0.000561236932478143
  0
LINE
 8
GROUP0
10
1115.92058130216
20
1754.69438071087
30
0.000561236932478143
11
1085.9206189248
21
1724.6943550452
31
0.000540864114935385
  0
LINE
 8
GROUP0
10
1085.9206189248
20
1719.6943550452
30
0.000538972454792064
11
1085.9206189248
21
1724.6943550452
31
0.000540864114935385
  0
LINE
 8
GROUP0
10
1085.9206189248
20
1719.6943550452
30
0.000538972454792064
11
1058.42066593624
21
1719.69429892992
31
0.000553824343458331
  0
LINE
 8
GROUP0
10
1058.42117133942
20
1297.69423278571
30
0.000227959153475443
11
1058.42066593624
21
1719.69429892992
31
0.000553824343458331
  0
LINE
 8
GROUP0
10
1125.92112832281
20
1297.69432203771
30
0.000215022256123554
11
1058.42117133942
21
1297.69423278571
31
0.000227959153475443
  0
LINE
 8
GROUP0
10
1125.92054673385
20
1273.19426374223
30
0.000214935761790125
11
1125.92112832281
21
1297.69432203771
31
0.000215022256123554
  0
LINE
 8
GROUP0
10
1434.92064759391
20
1763.19437584459
30
0.000569035647367749
11
1435.4382856836
21
1763.26252419596
31
0.000569360605690017
  0
LINE
 8
GROUP0
10
1434.40300950319
20
1763.26252418807
30
0.000568815756762442
11
1434.92064759391
21
1763.19437584459
31
0.000569035647367749
  0
LINE
 8
GROUP0
10
1433.92064759187
20
1763.4623250294
30
0.000568715919310636
11
1434.40300950319
21
1763.26252418807
31
0.000568815756762442
  0
LINE
 8
GROUP0
10
1433.50643402707
20
1763.78016227143
30
0.000568742938328109
11
1433.92064759187
21
1763.4623250294
31
0.000568715919310636
  0
LINE
 8
GROUP0
10
1433.18859677872
20
1764.19437583138
30
0.000568894972893508
11
1433.50643402707
21
1763.78016227143
31
0.000568742938328109
  0
LINE
 8
GROUP0
10
1432.98879593003
20
1764.67673773965
30
0.000569161661434786
11
1433.18859677872
21
1764.19437583138
31
0.000568894972893508
  0
LINE
 8
GROUP0
10
1432.92064757866
20
1765.19437582934
30
0.000569524829829138
11
1432.98879593003
21
1764.67673773965
31
0.000569161661434786
  0
LINE
 8
GROUP0
10
1432.98879592213
20
1765.71201392006
30
0.000569959728785957
11
1432.92064757866
21
1765.19437582934
31
0.000569524829829138
  0
LINE
 8
GROUP0
10
1433.18859676346
20
1766.19437583138
30
0.000570436721673623
11
1432.98879592213
21
1765.71201392006
31
0.000569959728785957
  0
LINE
 8
GROUP0
10
1433.5064340055
20
1766.60858939618
30
0.000570923300098297
11
1433.18859676346
21
1766.19437583138
31
0.000570436721673623
  0
LINE
 8
GROUP0
10
1433.92064756545
20
1766.92642664453
30
0.000571386306643806
11
1433.5064340055
21
1766.60858939618
31
0.000570923300098297
  0
LINE
 8
GROUP0
10
1434.40300947372
20
1767.12622749322
30
0.000571794186605712
11
1433.92064756545
21
1766.92642664453
31
0.000571386306643806
  0
LINE
 8
GROUP0
10
1434.92064756341
20
1767.19437584459
30
0.000572119144927979
11
1434.40300947372
21
1767.12622749322
31
0.000571794186605712
  0
LINE
 8
GROUP0
10
1435.43828565413
20
1767.12622750111
30
0.000572339035533287
11
1434.92064756341
21
1767.19437584459
31
0.000572119144927979
  0
LINE
 8
GROUP0
10
1435.92064756545
20
1766.92642665978
30
0.000572438872985093
11
1435.43828565413
21
1767.12622750111
31
0.000572339035533287
  0
LINE
 8
GROUP0
10
1436.33486113025
20
1766.60858941775
30
0.000572411853990179
11
1435.92064756545
21
1766.92642665978
31
0.000572438872985093
  0
LINE
 8
GROUP0
10
1436.6526983786
20
1766.1943758578
30
0.000572259819424076
11
1436.33486113025
21
1766.60858941775
31
0.000572411853990179
  0
LINE
 8
GROUP0
10
1436.85249922729
20
1765.71201394953
30
0.000571993130883502
11
1436.6526983786
21
1766.1943758578
31
0.000572259819424076
  0
LINE
 8
GROUP0
10
1436.92064757866
20
1765.19437585984
30
0.000571629962489151
11
1436.85249922729
21
1765.71201394953
31
0.000571993130883502
  0
LINE
 8
GROUP0
10
1436.85249923518
20
1764.67673776912
30
0.000571195063532331
11
1436.92064757866
21
1765.19437585984
31
0.000571629962489151
  0
LINE
 8
GROUP0
10
1436.65269839385
20
1764.1943758578
30
0.000570718070643961
11
1436.85249923518
21
1764.67673776912
31
0.000571195063532331
  0
LINE
 8
GROUP0
10
1436.33486115182
20
1763.780162293
30
0.000570231492219991
11
1436.65269839385
21
1764.1943758578
31
0.000570718070643961
  0
LINE
 8
GROUP0
10
1435.92064759187
20
1763.46232504465
30
0.000569768485651922
11
1436.33486115182
21
1763.780162293
31
0.000570231492219991
  0
LINE
 8
GROUP0
10
1435.4382856836
20
1763.26252419596
30
0.000569360605690017
11
1435.92064759187
21
1763.46232504465
31
0.000569768485651922
  0
LINE
 8
GROUP0
10
1136.920561391
20
1763.46232245935
30
0.000534892960828171
11
1137.33477495095
21
1763.7801597077
31
0.000535355967396239
  0
LINE
 8
GROUP0
10
1136.43819948273
20
1763.26252161066
30
0.000534485080866265
11
1136.920561391
21
1763.46232245935
31
0.000534892960828171
  0
LINE
 8
GROUP0
10
1135.92056139305
20
1763.19437325929
30
0.000534160122543997
11
1136.43819948273
21
1763.26252161066
31
0.000534485080866265
  0
LINE
 8
GROUP0
10
1135.40292330232
20
1763.26252160277
30
0.00053394023193869
11
1135.92056139305
21
1763.19437325929
31
0.000534160122543997
  0
LINE
 8
GROUP0
10
1134.92056139101
20
1763.4623224441
30
0.000533840394486884
11
1135.40292330232
21
1763.26252160277
31
0.00053394023193869
  0
LINE
 8
GROUP0
10
1134.50634782621
20
1763.78015968613
30
0.000533867413481798
11
1134.92056139101
21
1763.4623224441
31
0.000533840394486884
  0
LINE
 8
GROUP0
10
1134.18851057786
20
1764.19437324608
30
0.000534019448047196
11
1134.50634782621
21
1763.78015968613
31
0.000533867413481798
  0
LINE
 8
GROUP0
10
1133.98870972917
20
1764.67673515435
30
0.000534286136588474
11
1134.18851057786
21
1764.19437324608
31
0.000534019448047196
  0
LINE
 8
GROUP0
10
1133.9205613778
20
1765.19437324403
30
0.000534649304982826
11
1133.98870972917
21
1764.67673515435
31
0.000534286136588474
  0
LINE
 8
GROUP0
10
1133.98870972127
20
1765.71201133476
30
0.000535084203939645
11
1133.9205613778
21
1765.19437324403
31
0.000534649304982826
  0
LINE
 8
GROUP0
10
1134.1885105626
20
1766.19437324607
30
0.000535561196827311
11
1133.98870972127
21
1765.71201133476
31
0.000535084203939645
  0
LINE
 8
GROUP0
10
1134.50634780464
20
1766.60858681087
30
0.000536047775251985
11
1134.1885105626
21
1766.19437324607
31
0.000535561196827311
  0
LINE
 8
GROUP0
10
1134.92056136459
20
1766.92642405922
30
0.000536510781820054
11
1134.50634780464
21
1766.60858681087
31
0.000536047775251985
  0
LINE
 8
GROUP0
10
1135.40292327285
20
1767.12622490791
30
0.00053691866178196
11
1134.92056136459
21
1766.92642405922
31
0.000536510781820054
  0
LINE
 8
GROUP0
10
1135.92056136254
20
1767.19437325928
30
0.000537243620104227
11
1135.40292327285
21
1767.12622490791
31
0.00053691866178196
  0
LINE
 8
GROUP0
10
1136.43819945326
20
1767.12622491581
30
0.000537463510709535
11
1135.92056136254
21
1767.19437325928
31
0.000537243620104227
  0
LINE
 8
GROUP0
10
1136.92056136458
20
1766.92642407448
30
0.000537563348161341
11
1136.43819945326
21
1767.12622491581
31
0.000537463510709535
  0
LINE
 8
GROUP0
10
1137.33477492938
20
1766.60858683244
30
0.000537536329166427
11
1136.92056136458
21
1766.92642407448
31
0.000537563348161341
  0
LINE
 8
GROUP0
10
1137.65261217773
20
1766.19437327249
30
0.000537384294600324
11
1137.33477492938
21
1766.60858683244
31
0.000537536329166427
  0
LINE
 8
GROUP0
10
1137.85241302642
20
1765.71201136422
30
0.00053711760605975
11
1137.65261217773
21
1766.19437327249
31
0.000537384294600324
  0
LINE
 8
GROUP0
10
1137.92056137779
20
1765.19437327454
30
0.000536754437665399
11
1137.85241302642
21
1765.71201136422
31
0.00053711760605975
  0
LINE
 8
GROUP0
10
1137.85241303431
20
1764.67673518382
30
0.00053631953870858
11
1137.92056137779
21
1765.19437327454
31
0.000536754437665399
  0
LINE
 8
GROUP0
10
1137.65261219298
20
1764.1943732725
30
0.000535842545820209
11
1137.85241303431
21
1764.67673518382
31
0.00053631953870858
  0
LINE
 8
GROUP0
10
1137.33477495095
20
1763.7801597077
30
0.000535355967396239
11
1137.65261219298
21
1764.1943732725
31
0.000535842545820209
  0
LINE
 8
GROUP0
10
1066.42068058016
20
1709.69431683573
30
0.000490858705561109
11
1066.48882990019
21
1709.17667887357
31
0.000490495537888669
  0
LINE
 8
GROUP0
10
1066.48882795496
20
1710.21195505398
30
0.000491293604517928
11
1066.42068058016
21
1709.69431683573
31
0.000490858705561109
  0
LINE
 8
GROUP0
10
1066.68862789364
20
1710.69431733918
30
0.000491770596683683
11
1066.48882795496
21
1710.21195505398
31
0.000491293604517928
  0
LINE
 8
GROUP0
10
1067.00646436055
20
1711.10853149875
30
0.000492257175830268
11
1066.68862789364
21
1710.69431733918
31
0.000491770596683683
  0
LINE
 8
GROUP0
10
1067.42067732572
20
1711.42636952223
30
0.000492720181675721
11
1067.00646436055
21
1711.10853149875
31
0.000492257175830268
  0
LINE
 8
GROUP0
10
1067.9030388601
20
1711.62617127357
30
0.000493128063082154
11
1067.42067732572
21
1711.42636952223
31
0.000492720181675721
  0
LINE
 8
GROUP0
10
1068.42067682225
20
1711.69432059361
30
0.000493453021404422
11
1067.9030388601
21
1711.62617127357
31
0.000493128063082154
  0
LINE
 8
GROUP0
10
1068.9383150405
20
1711.6261732188
30
0.000493672912731641
11
1068.42067682225
21
1711.69432059361
31
0.000493453021404422
  0
LINE
 8
GROUP0
10
1069.42067732571
20
1711.42637328012
30
0.000493772750904653
11
1068.9383150405
21
1711.6261732188
31
0.000493672912731641
  0
LINE
 8
GROUP0
10
1069.83489148528
20
1711.10853681322
30
0.000493745733354267
11
1069.42067732571
21
1711.42637328012
31
0.000493772750904653
  0
LINE
 8
GROUP0
10
1070.15272950876
20
1710.69432384804
30
0.000493593699510075
11
1069.83489148528
21
1711.10853681322
31
0.000493745733354267
  0
LINE
 8
GROUP0
10
1070.3525312601
20
1710.21196231367
30
0.000493327011691413
11
1070.15272950876
21
1710.69432384804
31
0.000493593699510075
  0
LINE
 8
GROUP0
10
1070.42068058014
20
1709.69432435151
30
0.000492963844018973
11
1070.3525312601
21
1710.21196231367
31
0.000493327011691413
  0
LINE
 8
GROUP0
10
1070.35253320533
20
1709.17668613326
30
0.000492528945062154
11
1070.42068058014
21
1709.69432435151
31
0.000492963844018973
  0
LINE
 8
GROUP0
10
1070.15273326665
20
1708.69432384805
30
0.000492051952895695
11
1070.35253320533
21
1709.17668613326
31
0.000492528945062154
  0
LINE
 8
GROUP0
10
1069.83489679975
20
1708.28010968848
30
0.000491565373749109
11
1070.15273326665
21
1708.69432384805
31
0.000492051952895695
  0
LINE
 8
GROUP0
10
1069.42068383457
20
1707.962271665
30
0.000491102367903656
11
1069.83489679975
21
1708.28010968848
31
0.000491565373749109
  0
LINE
 8
GROUP0
10
1068.9383223002
20
1707.76246991366
30
0.000490694486497223
11
1069.42068383457
21
1707.962271665
31
0.000491102367903656
  0
LINE
 8
GROUP0
10
1068.42068433804
20
1707.69432059363
30
0.00049036952817566
11
1068.9383223002
21
1707.76246991366
31
0.000490694486497223
  0
LINE
 8
GROUP0
10
1067.90304611979
20
1707.76246796844
30
0.000490149636847736
11
1068.42068433804
21
1707.69432059363
31
0.00049036952817566
  0
LINE
 8
GROUP0
10
1067.42068383458
20
1707.96226790711
30
0.000490049798674724
11
1067.90304611979
21
1707.76246796844
31
0.000490149636847736
  0
LINE
 8
GROUP0
10
1067.00646967501
20
1708.28010437402
30
0.00049007681622511
11
1067.42068383458
21
1707.96226790711
31
0.000490049798674724
  0
LINE
 8
GROUP0
10
1066.68863165153
20
1708.69431733919
30
0.000490228850069302
11
1067.00646967501
21
1708.28010437402
31
0.00049007681622511
  0
LINE
 8
GROUP0
10
1066.48882990019
20
1709.17667887357
30
0.000490495537888669
11
1066.68863165153
21
1708.69431733919
31
0.000490228850069302
  0
LINE
 8
GROUP0
10
1501.00644006183
20
1708.28091983755
30
0.000448318812549148
11
1501.42065422111
21
1707.96308337087
31
0.00044829179427685
  0
LINE
 8
GROUP0
10
1500.68860203856
20
1708.69513280242
30
0.000448470845671428
11
1501.00644006183
21
1708.28091983755
31
0.000448318812549148
  0
LINE
 8
GROUP0
10
1500.48880028735
20
1709.17749433645
30
0.000448737533490795
11
1500.68860203856
21
1708.69513280242
31
0.000448470845671428
  0
LINE
 8
GROUP0
10
1500.42065096735
20
1709.69513229824
30
0.000449100701163235
11
1500.48880028735
21
1709.17749433645
31
0.000448737533490795
  0
LINE
 8
GROUP0
10
1500.4887983421
20
1710.21277051613
30
0.000449535600120055
11
1500.42065096735
21
1709.69513229824
31
0.000449100701163235
  0
LINE
 8
GROUP0
10
1500.68859828062
20
1710.695132801
30
0.000450012592285809
11
1500.4887983421
21
1710.21277051613
31
0.000449535600120055
  0
LINE
 8
GROUP0
10
1501.00643474729
20
1711.10934696029
30
0.000450499171432395
11
1500.68859828062
21
1710.695132801
31
0.000450012592285809
  0
LINE
 8
GROUP0
10
1501.42064771217
20
1711.42718498355
30
0.000450962177999759
11
1501.00643474729
21
1711.10934696029
31
0.000450499171432395
  0
LINE
 8
GROUP0
10
1501.9030092462
20
1711.62698673476
30
0.000451370058684281
11
1501.42064771217
21
1711.42718498355
31
0.000450962177999759
  0
LINE
 8
GROUP0
10
1502.42064720799
20
1711.69513605476
30
0.00045169501772846
11
1501.9030092462
21
1711.62698673476
31
0.000451370058684281
  0
LINE
 8
GROUP0
10
1502.93828542588
20
1711.62698868002
30
0.000451914909055678
11
1502.42064720799
21
1711.69513605476
31
0.00045169501772846
  0
LINE
 8
GROUP0
10
1503.42064771075
20
1711.42718874149
30
0.000452014747950602
11
1502.93828542588
21
1711.62698868002
31
0.000451914909055678
  0
LINE
 8
GROUP0
10
1503.83486187003
20
1711.10935227482
30
0.000451987729678305
11
1503.42064771075
21
1711.42718874149
31
0.000452014747950602
  0
LINE
 8
GROUP0
10
1504.1526998933
20
1710.69513930995
30
0.000451835696556024
11
1503.83486187003
21
1711.10935227482
31
0.000451987729678305
  0
LINE
 8
GROUP0
10
1504.35250164451
20
1710.21277777591
30
0.000451569008737362
11
1504.1526998933
21
1710.69513930995
31
0.000451835696556024
  0
LINE
 8
GROUP0
10
1504.42065096451
20
1709.69513981412
30
0.000451205841064922
11
1504.35250164451
21
1710.21277777591
31
0.000451569008737362
  0
LINE
 8
GROUP0
10
1504.35250358977
20
1709.17750159624
30
0.000450770942108103
11
1504.42065096451
21
1709.69513981412
31
0.000451205841064922
  0
LINE
 8
GROUP0
10
1504.15270365124
20
1708.69513931136
30
0.000450293949941644
11
1504.35250358977
21
1709.17750159624
31
0.000450770942108103
  0
LINE
 8
GROUP0
10
1503.83486718457
20
1708.28092515208
30
0.000449807370795058
11
1504.15270365124
21
1708.69513931136
31
0.000450293949941644
  0
LINE
 8
GROUP0
10
1503.4206542197
20
1707.96308712881
30
0.000449344364227694
11
1503.83486718457
21
1708.28092515208
31
0.000449807370795058
  0
LINE
 8
GROUP0
10
1502.93829268566
20
1707.7632853776
30
0.000448936483543172
11
1503.4206542197
21
1707.96308712881
31
0.000449344364227694
  0
LINE
 8
GROUP0
10
1502.42065472387
20
1707.6951360576
30
0.000448611524499698
11
1502.93829268566
21
1707.7632853776
31
0.000448936483543172
  0
LINE
 8
GROUP0
10
1501.90301650599
20
1707.76328343235
30
0.000448391633171774
11
1502.42065472387
21
1707.6951360576
31
0.000448611524499698
  0
LINE
 8
GROUP0
10
1501.42065422111
20
1707.96308337087
30
0.00044829179427685
11
1501.90301650599
21
1707.76328343235
31
0.000448391633171774
  0
LINE
 8
GROUP0
10
1067.00693464007
20
1308.10846149481
30
0.00027159919293806
11
1066.68909817406
21
1307.69424733455
31
0.000271112614513386
  0
LINE
 8
GROUP0
10
1067.42114760455
20
1308.4262995192
30
0.000272062199506129
11
1067.00693464007
21
1308.10846149481
31
0.00027159919293806
  0
LINE
 8
GROUP0
10
1067.90350913849
20
1308.62610127159
30
0.000272470080189946
11
1067.42114760455
21
1308.4262995192
31
0.000272062199506129
  0
LINE
 8
GROUP0
10
1068.42114710049
20
1308.69425059275
30
0.000272795039234125
11
1067.90350913849
21
1308.62610127159
31
0.000272470080189946
  0
LINE
 8
GROUP0
10
1068.93878531889
20
1308.62610321908
30
0.000273014930561344
11
1068.42114710049
21
1308.69425059275
31
0.000272795039234125
  0
LINE
 8
GROUP0
10
1069.42114760453
20
1308.42630328145
30
0.000273114768735061
11
1068.93878531889
21
1308.62610321908
31
0.000273014930561344
  0
LINE
 8
GROUP0
10
1069.8353617648
20
1308.10846681545
30
0.00027308775118397
11
1069.42114760453
21
1308.42630328145
31
0.000273114768735061
  0
LINE
 8
GROUP0
10
1070.15319978918
20
1307.69425385097
30
0.000272935717339778
11
1069.8353617648
21
1308.10846681545
31
0.00027308775118397
  0
LINE
 8
GROUP0
10
1070.35300154157
20
1307.21189231703
30
0.000272669030243028
11
1070.15319978918
21
1307.69425385097
31
0.000272935717339778
  0
LINE
 8
GROUP0
10
1070.42115086274
20
1306.69425435502
30
0.000272305861848676
11
1070.35300154157
21
1307.21189231703
31
0.000272669030243028
  0
LINE
 8
GROUP0
10
1070.35300348906
20
1306.17661613662
30
0.000271870962891857
11
1070.42115086274
21
1306.69425435502
31
0.000272305861848676
  0
LINE
 8
GROUP0
10
1070.15320355144
20
1305.69425385098
30
0.000271393970725398
11
1070.35300348906
21
1306.17661613662
31
0.000271870962891857
  0
LINE
 8
GROUP0
10
1069.83536708543
20
1305.28003969072
30
0.000270907392301428
11
1070.15320355144
21
1305.69425385098
31
0.000271393970725398
  0
LINE
 8
GROUP0
10
1069.42115412095
20
1304.96220166633
30
0.000270444385733359
11
1069.83536708543
21
1305.28003969072
31
0.000270907392301428
  0
LINE
 8
GROUP0
10
1068.93879258701
20
1304.76239991394
30
0.000270036505049542
11
1069.42115412095
21
1304.96220166633
31
0.000270444385733359
  0
LINE
 8
GROUP0
10
1068.42115462501
20
1304.69425059278
30
0.000269711546005363
11
1068.93879258701
21
1304.76239991394
31
0.000270036505049542
  0
LINE
 8
GROUP0
10
1067.90351640661
20
1304.76239796646
30
0.000269491654678145
11
1068.42115462501
21
1304.69425059278
31
0.000269711546005363
  0
LINE
 8
GROUP0
10
1067.42115412096
20
1304.96219790408
30
0.000269391816504427
11
1067.90351640661
21
1304.76239796646
31
0.000269491654678145
  0
LINE
 8
GROUP0
10
1067.0069399607
20
1305.28003437008
30
0.000269418834055518
11
1067.42115412096
21
1304.96219790408
31
0.000269391816504427
  0
LINE
 8
GROUP0
10
1066.68910193632
20
1305.69424733456
30
0.000269570867899005
11
1067.0069399607
21
1305.28003437008
31
0.000269418834055518
  0
LINE
 8
GROUP0
10
1066.48930018393
20
1306.1766088685
30
0.00026983755499646
11
1066.68910193632
21
1305.69424733456
31
0.000269570867899005
  0
LINE
 8
GROUP0
10
1066.42115086276
20
1306.69424683051
30
0.000270200723390812
11
1066.48930018393
21
1306.1766088685
31
0.00026983755499646
  0
LINE
 8
GROUP0
10
1066.48929823644
20
1307.21188504891
30
0.000270635622347631
11
1066.42115086276
21
1306.69424683051
31
0.000270200723390812
  0
LINE
 8
GROUP0
10
1066.68909817406
20
1307.69424733455
30
0.000271112614513386
11
1066.48929823644
21
1307.21188504891
31
0.000270635622347631
  0
LINE
 8
GROUP0
10
1500.48881643246
20
1307.21270402973
30
0.000365063647340985
11
1500.42066812078
21
1306.69506593699
31
0.000364628748384166
  0
LINE
 8
GROUP0
10
1500.6886172436
20
1307.69506595123
30
0.00036554063950674
11
1500.48881643246
21
1307.21270402973
31
0.000365063647340985
  0
LINE
 8
GROUP0
10
1501.00645445911
20
1308.10927953368
30
0.000366027218653325
11
1500.6886172436
21
1307.69506595123
31
0.00036554063950674
  0
LINE
 8
GROUP0
10
1501.42066799801
20
1308.42711680594
30
0.000366490225221394
11
1501.00645445911
21
1308.10927953368
31
0.000366027218653325
  0
LINE
 8
GROUP0
10
1501.90302989214
20
1308.62691768318
30
0.0003668981051833
11
1501.42066799801
21
1308.42711680594
31
0.000366490225221394
  0
LINE
 8
GROUP0
10
1502.42066797555
20
1308.69506606578
30
0.000367223063505567
11
1501.90302989214
21
1308.62691768318
31
0.0003668981051833
  0
LINE
 8
GROUP0
10
1502.93830606829
20
1308.6269177541
30
0.000367442954110875
11
1502.42066797555
21
1308.69506606578
31
0.000367223063505567
  0
LINE
 8
GROUP0
10
1503.4206679898
20
1308.42711694295
30
0.000367542791562681
11
1502.93830606829
21
1308.6269177541
31
0.000367442954110875
  0
LINE
 8
GROUP0
10
1503.83488157224
20
1308.10927972744
30
0.000367515772567767
11
1503.4206679898
21
1308.42711694295
31
0.000367542791562681
  0
LINE
 8
GROUP0
10
1504.15271884451
20
1307.69506618854
30
0.000367363738723575
11
1503.83488157224
21
1308.10927972744
31
0.000367515772567767
  0
LINE
 8
GROUP0
10
1504.35251972174
20
1307.21270429442
30
0.000367097050183002
11
1504.15271884451
21
1307.69506618854
31
0.000367363738723575
  0
LINE
 8
GROUP0
10
1504.42066810434
20
1306.69506621101
30
0.000366733881066739
11
1504.35251972174
21
1307.21270429442
31
0.000367097050183002
  0
LINE
 8
GROUP0
10
1504.35251979266
20
1306.17742811826
30
0.000366298982109919
11
1504.42066810434
21
1306.69506621101
31
0.000366733881066739
  0
LINE
 8
GROUP0
10
1504.15271898152
20
1305.69506619676
30
0.00036582198994346
11
1504.35251979266
21
1306.17742811826
31
0.000366298982109919
  0
LINE
 8
GROUP0
10
1503.834881766
20
1305.28085261431
30
0.000365335410797579
11
1504.15271898152
21
1305.69506619676
31
0.00036582198994346
  0
LINE
 8
GROUP0
10
1503.42066822711
20
1304.96301534205
30
0.00036487240422951
11
1503.834881766
21
1305.28085261431
31
0.000365335410797579
  0
LINE
 8
GROUP0
10
1502.93830633298
20
1304.76321446482
30
0.000364464524267605
11
1503.42066822711
21
1304.96301534205
31
0.00036487240422951
  0
LINE
 8
GROUP0
10
1502.42066824957
20
1304.69506608221
30
0.000364139565945337
11
1502.93830633298
21
1304.76321446482
31
0.000364464524267605
  0
LINE
 8
GROUP0
10
1501.90303015682
20
1304.76321439389
30
0.00036391967534003
11
1502.42066824957
21
1304.69506608221
31
0.000364139565945337
  0
LINE
 8
GROUP0
10
1501.42066823532
20
1304.96301520504
30
0.000363819837888224
11
1501.90303015682
21
1304.76321439389
31
0.00036391967534003
  0
LINE
 8
GROUP0
10
1501.00645465288
20
1305.28085242055
30
0.000363846856883138
11
1501.42066823532
21
1304.96301520504
31
0.000363819837888224
  0
LINE
 8
GROUP0
10
1500.68861738061
20
1305.69506595945
30
0.000363998890726624
11
1501.00645465288
21
1305.28085242055
31
0.000363846856883138
  0
LINE
 8
GROUP0
10
1500.48881650338
20
1306.17742785358
30
0.000364265579267903
11
1500.68861738061
21
1305.69506595945
31
0.000363998890726624
  0
LINE
 8
GROUP0
10
1500.42066812078
20
1306.69506593699
30
0.000364628748384166
11
1500.48881650338
21
1306.17742785358
31
0.000364265579267903
  0
LINE
 8
GROUP0
10
1141.6709346223
20
1285.1943480964
30
0.000197891623641144
11
1141.15329666034
21
1285.12619877524
31
0.000197566664596965
  0
LINE
 8
GROUP0
10
1142.18857284064
20
1285.12620072272
30
0.000198111514968363
11
1141.6709346223
21
1285.1943480964
31
0.000197891623641144
  0
LINE
 8
GROUP0
10
1142.67093512623
20
1284.92640078511
30
0.00019821135314208
11
1142.18857284064
21
1285.12620072272
31
0.000198111514968363
  0
LINE
 8
GROUP0
10
1143.08514928645
20
1284.60856431913
30
0.000198184334869078
11
1142.67093512623
21
1284.92640078511
31
0.00019821135314208
  0
LINE
 8
GROUP0
10
1143.40298731079
20
1284.19435135469
30
0.000198032301747503
11
1143.08514928645
21
1284.60856431913
31
0.000198184334869078
  0
LINE
 8
GROUP0
10
1143.60278906316
20
1283.7119898208
30
0.000197765613928136
11
1143.40298731079
21
1284.19435135469
31
0.000198032301747503
  0
LINE
 8
GROUP0
10
1143.67093838431
20
1283.19435185884
30
0.000197402445533784
11
1143.60278906316
21
1283.7119898208
31
0.000197765613928136
  0
LINE
 8
GROUP0
10
1143.60279101063
20
1282.6767136405
30
0.000196967546576965
11
1143.67093838431
21
1283.19435185884
31
0.000197402445533784
  0
LINE
 8
GROUP0
10
1143.40299107302
20
1282.19435135491
30
0.000196490554411211
11
1143.60279101063
21
1282.6767136405
31
0.000196967546576965
  0
LINE
 8
GROUP0
10
1143.08515460704
20
1281.78013719469
30
0.000196003975264625
11
1143.40299107302
21
1282.19435135491
31
0.000196490554411211
  0
LINE
 8
GROUP0
10
1142.6709416426
20
1281.46229917035
30
0.000195540968696556
11
1143.08515460704
21
1281.78013719469
31
0.000196003975264625
  0
LINE
 8
GROUP0
10
1142.18858010871
20
1281.26249741799
30
0.000195133088012739
11
1142.6709416426
21
1281.46229917035
31
0.000195540968696556
  0
LINE
 8
GROUP0
10
1141.67094214676
20
1281.19434809683
30
0.00019480812896856
11
1142.18858010871
21
1281.26249741799
31
0.000195133088012739
  0
LINE
 8
GROUP0
10
1141.15330392841
20
1281.26249547051
30
0.000194588237641341
11
1141.67094214676
21
1281.19434809683
31
0.00019480812896856
  0
LINE
 8
GROUP0
10
1140.67094164282
20
1281.46229540812
30
0.000194488399467624
11
1141.15330392841
21
1281.26249547051
31
0.000194588237641341
  0
LINE
 8
GROUP0
10
1140.25672748261
20
1281.7801318741
30
0.000194515417740626
11
1140.67094164282
21
1281.46229540812
31
0.000194488399467624
  0
LINE
 8
GROUP0
10
1139.93888945826
20
1282.19434483854
30
0.000194667450862906
11
1140.25672748261
21
1281.7801318741
31
0.000194515417740626
  0
LINE
 8
GROUP0
10
1139.7390877059
20
1282.67670637243
30
0.000194934138681568
11
1139.93888945826
21
1282.19434483854
31
0.000194667450862906
  0
LINE
 8
GROUP0
10
1139.67093838474
20
1283.19434433439
30
0.00019529730707592
11
1139.7390877059
21
1282.67670637243
31
0.000194934138681568
  0
LINE
 8
GROUP0
10
1139.73908575842
20
1283.71198255273
30
0.000195732206032739
11
1139.67093838474
21
1283.19434433439
31
0.00019529730707592
  0
LINE
 8
GROUP0
10
1139.93888569603
20
1284.19434483832
30
0.000196209198199199
11
1139.73908575842
21
1283.71198255273
31
0.000195732206032739
  0
LINE
 8
GROUP0
10
1140.25672216201
20
1284.60855899854
30
0.000196695777345079
11
1139.93888569603
21
1284.19434483832
31
0.000196209198199199
  0
LINE
 8
GROUP0
10
1140.67093512645
20
1284.92639702288
30
0.000197158783913148
11
1140.25672216201
21
1284.60855899854
31
0.000196695777345079
  0
LINE
 8
GROUP0
10
1141.15329666034
20
1285.12619877524
30
0.000197566664596965
11
1140.67093512645
21
1284.92639702288
31
0.000197158783913148
  0
LINE
 8
GROUP0
10
1428.6530118708
20
1285.12615020436
30
0.000201263687007375
11
1428.17064996468
21
1284.92634935662
31
0.000200855807045469
  0
LINE
 8
GROUP0
10
1429.17064995816
20
1285.19429855536
30
0.000201588645329642
11
1428.6530118708
21
1285.12615020436
31
0.000201263687007375
  0
LINE
 8
GROUP0
10
1429.68828804654
20
1285.12615021214
30
0.00020180853593495
11
1429.17064995816
21
1285.19429855536
31
0.000201588645329642
  0
LINE
 8
GROUP0
10
1430.17064995567
20
1284.92634937166
30
0.000201908373402265
11
1429.68828804654
21
1285.12615021214
31
0.00020180853593495
  0
LINE
 8
GROUP0
10
1430.58486351856
20
1284.60851213101
30
0.000201881354407352
11
1430.17064995567
21
1284.92634937166
31
0.000201908373402265
  0
LINE
 8
GROUP0
10
1430.90270076544
20
1284.19429857289
30
0.000201729320563865
11
1430.58486351856
21
1284.60851213101
31
0.000201881354407352
  0
LINE
 8
GROUP0
10
1431.10250161318
20
1283.71193666677
30
0.000201462631300675
11
1430.90270076544
21
1284.19429857289
31
0.000201729320563865
  0
LINE
 8
GROUP0
10
1431.17064996419
20
1283.19429857941
30
0.000201099462906323
11
1431.10250161318
21
1283.71193666677
31
0.000201462631300675
  0
LINE
 8
GROUP0
10
1431.10250162096
20
1282.67666049102
30
0.000200664563949504
11
1431.17064996419
21
1283.19429857941
31
0.000201099462906323
  0
LINE
 8
GROUP0
10
1430.90270078048
20
1282.1942985819
30
0.00020018757178375
11
1431.10250162096
21
1282.67666049102
31
0.000200664563949504
  0
LINE
 8
GROUP0
10
1430.58486353983
20
1281.780085019
30
0.000199700992637164
11
1430.90270078048
21
1282.1942985819
31
0.00020018757178375
  0
LINE
 8
GROUP0
10
1430.17064998171
20
1281.46224777213
30
0.000199237986069095
11
1430.58486353983
21
1281.780085019
31
0.000199700992637164
  0
LINE
 8
GROUP0
10
1429.68828807559
20
1281.26244692439
30
0.00019883010609168
11
1430.17064998171
21
1281.46224777213
31
0.000199237986069095
  0
LINE
 8
GROUP0
10
1429.17064998823
20
1281.19429857338
30
0.000198505147769412
11
1429.68828807559
21
1281.26244692439
31
0.00019883010609168
  0
LINE
 8
GROUP0
10
1428.65301189985
20
1281.26244691661
30
0.000198285257164105
11
1429.17064998823
21
1281.19429857338
31
0.000198505147769412
  0
LINE
 8
GROUP0
10
1428.17064999072
20
1281.46224775709
30
0.000198185419712299
11
1428.65301189985
21
1281.26244691661
31
0.000198285257164105
  0
LINE
 8
GROUP0
10
1427.75643642783
20
1281.78008499774
30
0.000198212438735412
11
1428.17064999072
21
1281.46224775709
31
0.000198185419712299
  0
LINE
 8
GROUP0
10
1427.43859918095
20
1282.19429855585
30
0.000198364472579604
11
1427.75643642783
21
1281.78008499774
31
0.000198212438735412
  0
LINE
 8
GROUP0
10
1427.23879833321
20
1282.67666046197
30
0.000198631161842089
11
1427.43859918095
21
1282.19429855585
31
0.000198364472579604
  0
LINE
 8
GROUP0
10
1427.1706499822
20
1283.19429854934
30
0.000198994330236441
11
1427.23879833321
21
1282.67666046197
31
0.000198631161842089
  0
LINE
 8
GROUP0
10
1427.23879832543
20
1283.71193663772
30
0.00019942922919326
11
1427.1706499822
21
1283.19429854934
31
0.000198994330236441
  0
LINE
 8
GROUP0
10
1427.43859916591
20
1284.19429854685
30
0.000199906221359719
11
1427.23879832543
21
1283.71193663772
31
0.00019942922919326
  0
LINE
 8
GROUP0
10
1427.75643640656
20
1284.60851210974
30
0.0002003928005056
11
1427.43859916591
21
1284.19429854685
31
0.000199906221359719
  0
LINE
 8
GROUP0
10
1428.17064996468
20
1284.92634935662
30
0.000200855807045469
11
1427.75643640656
21
1284.60851210974
31
0.0002003928005056
  0
LINE
 8
GROUP0
10
1444.92057738323
20
1343.19437527779
30
0.000219569874915126
11
1135.92106993133
21
1343.19437527775
31
0.000257466168871934
  0
LINE
 8
GROUP0
10
1135.92106993133
20
1343.19437527775
30
0.000257466168871934
11
1134.61580800913
21
1343.27992666402
31
0.000257628454880521
  0
LINE
 8
GROUP0
10
1134.61580800913
20
1343.27992666402
30
0.000257628454880521
11
1133.3328794803
21
1343.53511701486
31
0.000257944077349137
  0
LINE
 8
GROUP0
10
1133.3328794803
20
1343.53511701486
30
0.000257944077349137
11
1132.09423560768
21
1343.95557995264
31
0.0002584076358911
  0
LINE
 8
GROUP0
10
1132.09423560768
20
1343.95557995264
30
0.0002584076358911
11
1130.92106993133
21
1344.53412123991
31
0.000259011198891024
  0
LINE
 8
GROUP0
10
1130.92106993133
20
1344.53412123991
30
0.000259011198891024
11
1129.83345564124
21
1345.26084187484
31
0.000259744439210063
  0
LINE
 8
GROUP0
10
1129.83345564124
20
1345.26084187484
30
0.000259744439210063
11
1128.85000211946
21
1346.12330746589
31
0.000260594810918857
  0
LINE
 8
GROUP0
10
1128.85000211946
20
1346.12330746589
30
0.000260594810918857
11
1127.98753652842
21
1347.10676098766
31
0.000261547763913894
  0
LINE
 8
GROUP0
10
1127.98753652842
20
1347.10676098766
30
0.000261547763913894
11
1127.26081589348
21
1348.19437527775
31
0.000262586992906455
  0
LINE
 8
GROUP0
10
1127.26081589348
20
1348.19437527775
30
0.000262586992906455
11
1126.68227460622
21
1349.3675409541
31
0.000263694716399077
  0
LINE
 8
GROUP0
10
1126.68227460622
20
1349.3675409541
30
0.000263694716399077
11
1126.26181166844
21
1350.60618482672
31
0.000264851980943015
  0
LINE
 8
GROUP0
10
1126.26181166844
20
1350.60618482672
30
0.000264851980943015
11
1126.00662131759
21
1351.88911335555
31
0.000266038985404782
  0
LINE
 8
GROUP0
10
1126.00662131759
20
1351.88911335555
30
0.000266038985404782
11
1125.92106993133
21
1353.19437527775
31
0.000267235419818251
  0
LINE
 8
GROUP0
10
1125.92106993133
20
1353.19437527775
30
0.000267235419818251
11
1125.92106993133
21
1675.19437272561
31
0.000552694007026017
  0
LINE
 8
GROUP0
10
1126.68227460622
20
1679.02120704926
30
0.000556171843775505
11
1127.26081589349
21
1680.19437272561
31
0.000557212010031866
  0
LINE
 8
GROUP0
10
1127.26081589349
20
1680.19437272561
30
0.000557212010031866
11
1127.98753652842
21
1681.28198701569
31
0.000558161979378285
  0
LINE
 8
GROUP0
10
1127.98753652842
20
1681.28198701569
30
0.000558161979378285
11
1128.85000211947
21
1682.26544053747
31
0.000559005497574488
  0
LINE
 8
GROUP0
10
1128.85000211947
20
1682.26544053747
30
0.000559005497574488
11
1129.83345564125
21
1683.12790612852
31
0.0005597281317895
  0
LINE
 8
GROUP0
10
1129.83345564125
20
1683.12790612852
30
0.0005597281317895
11
1130.92106993133
21
1683.85462676345
31
0.00056031751756162
  0
LINE
 8
GROUP0
10
1130.92106993133
20
1683.85462676345
30
0.00056031751756162
11
1132.09423560768
21
1684.43316805072
31
0.000560763570319178
  0
LINE
 8
GROUP0
10
1132.09423560768
20
1684.43316805072
30
0.000560763570319178
11
1133.33287948031
21
1684.8536309885
31
0.000561058657985036
  0
LINE
 8
GROUP0
10
1133.33287948031
20
1684.8536309885
30
0.000561058657985036
11
1134.61580800913
21
1685.10882133934
31
0.000561197731526941
  0
LINE
 8
GROUP0
10
1134.61580800913
20
1685.10882133934
30
0.000561197731526941
11
1135.92106993133
21
1685.1943727256
31
0.000561178411357066
  0
LINE
 8
GROUP0
10
1135.92106993133
20
1685.1943727256
30
0.000561178411357066
11
1444.92057738324
21
1685.19437272561
31
0.00055616150028861
  0
LINE
 8
GROUP0
10
1444.92057738324
20
1685.19437272561
30
0.00055616150028861
11
1444.92057738323
21
1343.19437527779
31
0.000219569874915126
  0
LINE
 8
GROUP0
10
1457.83479094561
20
1628.60858628799
30
0.000539607146609578
11
1458.15262819081
21
1628.19437272562
31
0.000539214469691862
  0
LINE
 8
GROUP0
10
1458.15262819081
20
1628.19437272562
30
0.000539214469691862
11
1458.35242903581
21
1627.71201081582
31
0.00053876900412112
  0
LINE
 8
GROUP0
10
1458.35242903581
20
1627.71201081582
30
0.00053876900412112
11
1458.42057738324
21
1627.19437272562
31
0.000538301107639522
  0
LINE
 8
GROUP0
10
1458.42057738324
20
1627.19437272562
30
0.000538301107639522
11
1458.35242903581
21
1626.67673463541
31
0.000537842666619748
  0
LINE
 8
GROUP0
10
1458.35242903581
20
1626.67673463541
30
0.000537842666619748
11
1458.15262819081
21
1626.19437272562
31
0.000537424923058744
  0
LINE
 8
GROUP0
10
1458.15262819081
20
1626.19437272562
30
0.000537424923058744
11
1457.83479094561
21
1625.78015916325
31
0.000537076345490334
  0
LINE
 8
GROUP0
10
1457.83479094561
20
1625.78015916325
30
0.000537076345490334
11
1457.42057738324
21
1625.46232191805
31
0.000536820688901157
  0
LINE
 8
GROUP0
10
1457.42057738324
20
1625.46232191805
30
0.000536820688901157
11
1456.93821547344
21
1625.26252107304
31
0.000536675375862639
  0
LINE
 8
GROUP0
10
1456.93821547344
20
1625.26252107304
30
0.000536675375862639
11
1456.42057738324
21
1625.19437272562
31
0.00053665030921935
  0
LINE
 8
GROUP0
10
1456.42057738324
20
1625.19437272562
30
0.00053665030921935
11
1455.90293929303
21
1625.26252107304
31
0.000536747197222387
  0
LINE
 8
GROUP0
10
1455.90293929303
20
1625.26252107304
30
0.000536747197222387
11
1455.42057738324
21
1625.46232191805
31
0.000536959437114809
  0
LINE
 8
GROUP0
10
1455.42057738324
20
1625.46232191805
30
0.000536959437114809
11
1455.00636382086
21
1625.78015916325
31
0.000537272565096064
  0
LINE
 8
GROUP0
10
1455.00636382086
20
1625.78015916325
30
0.000537272565096064
11
1454.68852657567
21
1626.19437272562
31
0.000537665242013779
  0
LINE
 8
GROUP0
10
1454.68852657567
20
1626.19437272562
30
0.000537665242013779
11
1454.48872573066
21
1626.67673463541
31
0.000538110707585226
  0
LINE
 8
GROUP0
10
1454.48872573066
20
1626.67673463541
30
0.000538110707585226
11
1454.42057738324
21
1627.19437272562
31
0.000538578604066825
  0
LINE
 8
GROUP0
10
1454.42057738324
20
1627.19437272562
30
0.000538578604066825
11
1454.48872573066
21
1627.71201081582
31
0.000539037045086599
  0
LINE
 8
GROUP0
10
1454.48872573066
20
1627.71201081582
30
0.000539037045086599
11
1454.68852657567
21
1628.19437272562
31
0.000539454788646898
  0
LINE
 8
GROUP0
10
1454.68852657567
20
1628.19437272562
30
0.000539454788646898
11
1455.00636382087
21
1628.60858628799
31
0.000539803366215308
  0
LINE
 8
GROUP0
10
1455.00636382087
20
1628.60858628799
30
0.000539803366215308
11
1455.42057738324
21
1628.92642353319
31
0.000540059022804484
  0
LINE
 8
GROUP0
10
1455.42057738324
20
1628.92642353319
30
0.000540059022804484
11
1455.90293929303
21
1629.12622437819
31
0.000540204335843003
  0
LINE
 8
GROUP0
10
1455.90293929303
20
1629.12622437819
30
0.000540204335843003
11
1456.42057738324
21
1629.19437272562
31
0.000540229402486292
  0
LINE
 8
GROUP0
10
1456.42057738324
20
1629.19437272562
30
0.000540229402486292
11
1456.93821547344
21
1629.12622437819
31
0.000540132514483255
  0
LINE
 8
GROUP0
10
1456.93821547344
20
1629.12622437819
30
0.000540132514483255
11
1457.42057738324
21
1628.92642353319
31
0.000539920274590833
  0
LINE
 8
GROUP0
10
1457.42057738324
20
1628.92642353319
30
0.000539920274590833
11
1457.83479094561
21
1628.60858628799
31
0.000539607146609578
  0
LINE
 8
GROUP0
10
1456.42057738324
20
1639.69437272562
30
0.000536650309950426
11
1455.90293929303
21
1639.76252107304
31
0.000536747197953463
  0
LINE
 8
GROUP0
10
1455.90293929303
20
1639.76252107304
30
0.000536747197953463
11
1455.42057738324
21
1639.96232191805
31
0.000536959437845885
  0
LINE
 8
GROUP0
10
1455.42057738324
20
1639.96232191805
30
0.000536959437845885
11
1455.00636382086
21
1640.28015916325
31
0.00053727256582714
  0
LINE
 8
GROUP0
10
1455.00636382086
20
1640.28015916325
30
0.00053727256582714
11
1454.68852657567
21
1640.69437272562
31
0.000537665242744856
  0
LINE
 8
GROUP0
10
1454.68852657567
20
1640.69437272562
30
0.000537665242744856
11
1454.48872573066
21
1641.17673463542
31
0.000538110708315598
  0
LINE
 8
GROUP0
10
1454.48872573066
20
1641.17673463542
30
0.000538110708315598
11
1454.42057738324
21
1641.69437272562
31
0.000538578604797901
  0
LINE
 8
GROUP0
10
1454.42057738324
20
1641.69437272562
30
0.000538578604797901
11
1454.48872573066
21
1642.21201081583
31
0.000539037045817675
  0
LINE
 8
GROUP0
10
1454.48872573066
20
1642.21201081583
30
0.000539037045817675
11
1454.68852657567
21
1642.69437272562
31
0.000539454789377974
  0
LINE
 8
GROUP0
10
1454.68852657567
20
1642.69437272562
30
0.000539454789377974
11
1455.00636382087
21
1643.10858628799
31
0.000539803366946384
  0
LINE
 8
GROUP0
10
1455.00636382087
20
1643.10858628799
30
0.000539803366946384
11
1455.42057738324
21
1643.42642353319
31
0.000540059023535561
  0
LINE
 8
GROUP0
10
1455.42057738324
20
1643.42642353319
30
0.000540059023535561
11
1455.90293929303
21
1643.6262243782
31
0.000540204336574079
  0
LINE
 8
GROUP0
10
1455.90293929303
20
1643.6262243782
30
0.000540204336574079
11
1456.42057738324
21
1643.69437272562
31
0.000540229403217368
  0
LINE
 8
GROUP0
10
1456.42057738324
20
1643.69437272562
30
0.000540229403217368
11
1456.93821547344
21
1643.6262243782
31
0.000540132515214331
  0
LINE
 8
GROUP0
10
1456.93821547344
20
1643.6262243782
30
0.000540132515214331
11
1457.42057738324
21
1643.42642353319
31
0.000539920275321909
  0
LINE
 8
GROUP0
10
1457.42057738324
20
1643.42642353319
30
0.000539920275321909
11
1457.83479094561
21
1643.10858628799
31
0.000539607147340654
  0
LINE
 8
GROUP0
10
1457.83479094561
20
1643.10858628799
30
0.000539607147340654
11
1458.15262819081
21
1642.69437272562
31
0.000539214470422938
  0
LINE
 8
GROUP0
10
1458.15262819081
20
1642.69437272562
30
0.000539214470422938
11
1458.35242903581
21
1642.21201081583
31
0.000538769004852196
  0
LINE
 8
GROUP0
10
1458.35242903581
20
1642.21201081583
30
0.000538769004852196
11
1458.42057738324
21
1641.69437272562
31
0.000538301108370598
  0
LINE
 8
GROUP0
10
1458.42057738324
20
1641.69437272562
30
0.000538301108370598
11
1458.35242903581
21
1641.17673463542
31
0.000537842667350119
  0
LINE
 8
GROUP0
10
1458.35242903581
20
1641.17673463542
30
0.000537842667350119
11
1458.15262819081
21
1640.69437272562
31
0.00053742492378982
  0
LINE
 8
GROUP0
10
1458.15262819081
20
1640.69437272562
30
0.00053742492378982
11
1457.83479094561
21
1640.28015916325
31
0.00053707634622141
  0
LINE
 8
GROUP0
10
1457.83479094561
20
1640.28015916325
30
0.00053707634622141
11
1457.42057738324
21
1639.96232191805
31
0.000536820689632234
  0
LINE
 8
GROUP0
10
1457.42057738324
20
1639.96232191805
30
0.000536820689632234
11
1456.93821547344
21
1639.76252107304
31
0.000536675376593715
  0
LINE
 8
GROUP0
10
1456.93821547344
20
1639.76252107304
30
0.000536675376593715
11
1456.42057738324
21
1639.69437272562
31
0.000536650309950426
  0
LINE
 8
GROUP0
10
1458.35242903581
20
1387.21201336797
30
0.000538768991995264
11
1458.42057738324
21
1386.69437527777
31
0.000538301095513666
  0
LINE
 8
GROUP0
10
1458.42057738324
20
1386.69437527777
30
0.000538301095513666
11
1458.35242903581
21
1386.17673718756
31
0.000537842654493892
  0
LINE
 8
GROUP0
10
1458.35242903581
20
1386.17673718756
30
0.000537842654493892
11
1458.15262819081
21
1385.69437527777
31
0.000537424910932888
  0
LINE
 8
GROUP0
10
1458.15262819081
20
1385.69437527777
30
0.000537424910932888
11
1457.83479094561
21
1385.2801617154
31
0.000537076333365183
  0
LINE
 8
GROUP0
10
1457.83479094561
20
1385.2801617154
30
0.000537076333365183
11
1457.42057738324
21
1384.9623244702
31
0.000536820676775301
  0
LINE
 8
GROUP0
10
1457.42057738324
20
1384.9623244702
30
0.000536820676775301
11
1456.93821547344
21
1384.76252362519
31
0.000536675363737488
  0
LINE
 8
GROUP0
10
1456.93821547344
20
1384.76252362519
30
0.000536675363737488
11
1456.42057738324
21
1384.69437527777
31
0.000536650297094199
  0
LINE
 8
GROUP0
10
1456.42057738324
20
1384.69437527777
30
0.000536650297094199
11
1455.90293929303
21
1384.76252362519
31
0.000536747185097236
  0
LINE
 8
GROUP0
10
1455.90293929303
20
1384.76252362519
30
0.000536747185097236
11
1455.42057738324
21
1384.9623244702
31
0.000536959424988953
  0
LINE
 8
GROUP0
10
1455.42057738324
20
1384.9623244702
30
0.000536959424988953
11
1455.00636382086
21
1385.2801617154
31
0.000537272552970913
  0
LINE
 8
GROUP0
10
1455.00636382086
20
1385.2801617154
30
0.000537272552970913
11
1454.68852657567
21
1385.69437527777
31
0.000537665229887924
  0
LINE
 8
GROUP0
10
1454.68852657567
20
1385.69437527777
30
0.000537665229887924
11
1454.48872573066
21
1386.17673718756
31
0.000538110695459371
  0
LINE
 8
GROUP0
10
1454.48872573066
20
1386.17673718756
30
0.000538110695459371
11
1454.42057738324
21
1386.69437527777
31
0.000538578591940969
  0
LINE
 8
GROUP0
10
1454.42057738324
20
1386.69437527777
30
0.000538578591940969
11
1454.48872573066
21
1387.21201336797
31
0.000539037032960743
  0
LINE
 8
GROUP0
10
1454.48872573066
20
1387.21201336797
30
0.000539037032960743
11
1454.68852657567
21
1387.69437527777
31
0.000539454776521747
  0
LINE
 8
GROUP0
10
1454.68852657567
20
1387.69437527777
30
0.000539454776521747
11
1455.00636382086
21
1388.10858884014
31
0.000539803354089452
  0
LINE
 8
GROUP0
10
1455.00636382086
20
1388.10858884014
30
0.000539803354089452
11
1455.42057738324
21
1388.42642608534
31
0.000540059010679333
  0
LINE
 8
GROUP0
10
1455.42057738324
20
1388.42642608534
30
0.000540059010679333
11
1455.90293929303
21
1388.62622693035
31
0.000540204323717147
  0
LINE
 8
GROUP0
10
1455.90293929303
20
1388.62622693035
30
0.000540204323717147
11
1456.42057738324
21
1388.69437527777
31
0.000540229390360436
  0
LINE
 8
GROUP0
10
1456.42057738324
20
1388.69437527777
30
0.000540229390360436
11
1456.93821547344
21
1388.62622693035
31
0.000540132502357399
  0
LINE
 8
GROUP0
10
1456.93821547344
20
1388.62622693035
30
0.000540132502357399
11
1457.42057738324
21
1388.42642608534
31
0.000539920262465682
  0
LINE
 8
GROUP0
10
1457.42057738324
20
1388.42642608534
30
0.000539920262465682
11
1457.83479094561
21
1388.10858884014
31
0.000539607134483722
  0
LINE
 8
GROUP0
10
1457.83479094561
20
1388.10858884014
30
0.000539607134483722
11
1458.15262819081
21
1387.69437527777
31
0.000539214457566711
  0
LINE
 8
GROUP0
10
1458.15262819081
20
1387.69437527777
30
0.000539214457566711
11
1458.35242903581
21
1387.21201336797
31
0.000538768991995264
  0
LINE
 8
GROUP0
10
1454.68852657567
20
1400.19437527777
30
0.000537665230619
11
1454.48872573066
21
1400.67673718757
31
0.000538110696190447
  0
LINE
 8
GROUP0
10
1454.48872573066
20
1400.67673718757
30
0.000538110696190447
11
1454.42057738324
21
1401.19437527777
31
0.000538578592672045
  0
LINE
 8
GROUP0
10
1454.42057738324
20
1401.19437527777
30
0.000538578592672045
11
1454.48872573066
21
1401.71201336798
31
0.000539037033691819
  0
LINE
 8
GROUP0
10
1454.48872573066
20
1401.71201336798
30
0.000539037033691819
11
1454.68852657567
21
1402.19437527777
31
0.000539454777252119
  0
LINE
 8
GROUP0
10
1454.68852657567
20
1402.19437527777
30
0.000539454777252119
11
1455.00636382086
21
1402.60858884014
31
0.000539803354820528
  0
LINE
 8
GROUP0
10
1455.00636382086
20
1402.60858884014
30
0.000539803354820528
11
1455.42057738324
21
1402.92642608534
31
0.00054005901141041
  0
LINE
 8
GROUP0
10
1455.42057738324
20
1402.92642608534
30
0.00054005901141041
11
1455.90293929303
21
1403.12622693035
31
0.000540204324448223
  0
LINE
 8
GROUP0
10
1455.90293929303
20
1403.12622693035
30
0.000540204324448223
11
1456.42057738324
21
1403.19437527777
31
0.000540229391091512
  0
LINE
 8
GROUP0
10
1456.42057738324
20
1403.19437527777
30
0.000540229391091512
11
1456.93821547344
21
1403.12622693035
31
0.000540132503088475
  0
LINE
 8
GROUP0
10
1456.93821547344
20
1403.12622693035
30
0.000540132503088475
11
1457.42057738324
21
1402.92642608534
31
0.000539920263196758
  0
LINE
 8
GROUP0
10
1457.42057738324
20
1402.92642608534
30
0.000539920263196758
11
1457.83479094561
21
1402.60858884014
31
0.000539607135214798
  0
LINE
 8
GROUP0
10
1457.83479094561
20
1402.60858884014
30
0.000539607135214798
11
1458.15262819081
21
1402.19437527777
31
0.000539214458297083
  0
LINE
 8
GROUP0
10
1458.15262819081
20
1402.19437527777
30
0.000539214458297083
11
1458.35242903581
21
1401.71201336798
31
0.000538768992726341
  0
LINE
 8
GROUP0
10
1458.35242903581
20
1401.71201336798
30
0.000538768992726341
11
1458.42057738324
21
1401.19437527777
31
0.000538301096244742
  0
LINE
 8
GROUP0
10
1458.42057738324
20
1401.19437527777
30
0.000538301096244742
11
1458.35242903581
21
1400.67673718757
31
0.000537842655224968
  0
LINE
 8
GROUP0
10
1458.35242903581
20
1400.67673718757
30
0.000537842655224968
11
1458.15262819081
21
1400.19437527777
31
0.000537424911663964
  0
LINE
 8
GROUP0
10
1458.15262819081
20
1400.19437527777
30
0.000537424911663964
11
1457.83479094561
21
1399.7801617154
31
0.000537076334096259
  0
LINE
 8
GROUP0
10
1457.83479094561
20
1399.7801617154
30
0.000537076334096259
11
1457.42057738324
21
1399.4623244702
31
0.000536820677506378
  0
LINE
 8
GROUP0
10
1457.42057738324
20
1399.4623244702
30
0.000536820677506378
11
1456.93821547344
21
1399.2625236252
31
0.000536675364468564
  0
LINE
 8
GROUP0
10
1456.93821547344
20
1399.2625236252
30
0.000536675364468564
11
1456.42057738324
21
1399.19437527777
31
0.000536650297825275
  0
LINE
 8
GROUP0
10
1456.42057738324
20
1399.19437527777
30
0.000536650297825275
11
1455.90293929303
21
1399.2625236252
31
0.000536747185828312
  0
LINE
 8
GROUP0
10
1455.90293929303
20
1399.2625236252
30
0.000536747185828312
11
1455.42057738324
21
1399.4623244702
31
0.000536959425720029
  0
LINE
 8
GROUP0
10
1455.42057738324
20
1399.4623244702
30
0.000536959425720029
11
1455.00636382086
21
1399.7801617154
31
0.00053727255370199
  0
LINE
 8
GROUP0
10
1455.00636382086
20
1399.7801617154
30
0.00053727255370199
11
1454.68852657567
21
1400.19437527777
31
0.000537665230619
  0
LINE
 8
GROUP0
10
1146.92106993133
20
1574.34582217924
30
0.000462601239040877
11
1147.3352834937
21
1574.02798493405
31
0.000462276412903129
  0
LINE
 8
GROUP0
10
1147.3352834937
20
1574.02798493405
30
0.000462276412903129
11
1147.6531207389
21
1573.61377137167
31
0.000461869817199784
  0
LINE
 8
GROUP0
10
1147.6531207389
20
1573.61377137167
30
0.000461869817199784
11
1147.85292158391
21
1573.13140946188
31
0.000461409160755122
  0
LINE
 8
GROUP0
10
1147.85292158391
20
1573.13140946188
30
0.000461409160755122
11
1147.92106993133
21
1572.61377137167
31
0.000460925836549914
  0
LINE
 8
GROUP0
10
1147.92106993133
20
1572.61377137167
30
0.000460925836549914
11
1147.85292158391
21
1572.09613328147
31
0.000460452782324239
  0
LINE
 8
GROUP0
10
1147.85292158391
20
1572.09613328147
30
0.000460452782324239
11
1147.6531207389
21
1571.61377137167
31
0.000460022235948321
  0
LINE
 8
GROUP0
10
1147.6531207389
20
1571.61377137167
30
0.000460022235948321
11
1147.3352834937
21
1571.1995578093
31
0.000459663538438104
  0
LINE
 8
GROUP0
10
1147.3352834937
20
1571.1995578093
30
0.000459663538438104
11
1146.92106993133
21
1570.88172056411
31
0.000459401134443921
  0
LINE
 8
GROUP0
10
1146.92106993133
20
1570.88172056411
30
0.000459401134443921
11
1146.43870802154
21
1570.6819197191
31
0.000459252906358815
  0
LINE
 8
GROUP0
10
1146.43870802154
20
1570.6819197191
30
0.000459252906358815
11
1145.92106993133
21
1570.61377137167
31
0.000459228955683422
  0
LINE
 8
GROUP0
10
1145.92106993133
20
1570.61377137167
30
0.000459228955683422
11
1145.40343184113
21
1570.6819197191
31
0.000459330914617867
  0
LINE
 8
GROUP0
10
1145.40343184113
20
1570.6819197191
30
0.000459330914617867
11
1144.92106993133
21
1570.8817205641
31
0.000459551834828892
  0
LINE
 8
GROUP0
10
1144.92106993133
20
1570.8817205641
30
0.000459551834828892
11
1144.50685636896
21
1571.1995578093
31
0.00045987666096946
  0
LINE
 8
GROUP0
10
1144.50685636896
20
1571.1995578093
30
0.00045987666096946
11
1144.18901912376
21
1571.61377137167
31
0.00046028325667351
  0
LINE
 8
GROUP0
10
1144.18901912376
20
1571.61377137167
30
0.00046028325667351
11
1143.98921827875
21
1572.09613328147
31
0.000460743913114647
  0
LINE
 8
GROUP0
10
1143.98921827875
20
1572.09613328147
30
0.000460743913114647
11
1143.92106993133
21
1572.61377137167
31
0.000461227237322676
  0
LINE
 8
GROUP0
10
1143.92106993133
20
1572.61377137167
30
0.000461227237322676
11
1143.98921827875
21
1573.13140946188
31
0.00046170029154553
  0
LINE
 8
GROUP0
10
1143.98921827875
20
1573.13140946188
30
0.00046170029154553
11
1144.18901912376
21
1573.61377137167
31
0.000462130837924973
  0
LINE
 8
GROUP0
10
1144.18901912376
20
1573.61377137167
30
0.000462130837924973
11
1144.50685636896
21
1574.02798493405
31
0.000462489535431665
  0
LINE
 8
GROUP0
10
1144.50685636896
20
1574.02798493405
30
0.000462489535431665
11
1144.92106993133
21
1574.34582217924
31
0.000462751939428668
  0
LINE
 8
GROUP0
10
1144.92106993133
20
1574.34582217924
30
0.000462751939428668
11
1145.40343184113
21
1574.54562302425
31
0.000462900167513774
  0
LINE
 8
GROUP0
10
1145.40343184113
20
1574.54562302425
30
0.000462900167513774
11
1145.92106993133
21
1574.61377137167
31
0.000462924118186347
  0
LINE
 8
GROUP0
10
1145.92106993133
20
1574.61377137167
30
0.000462924118186347
11
1146.43870802154
21
1574.54562302425
31
0.000462822159251902
  0
LINE
 8
GROUP0
10
1146.43870802154
20
1574.54562302425
30
0.000462822159251902
11
1146.92106993133
21
1574.34582217924
31
0.000462601239040877
  0
LINE
 8
GROUP0
10
1145.92106993133
20
1453.69277062236
30
0.000360420349894641
11
1145.40343184113
21
1453.76091896978
31
0.000360522308829086
  0
LINE
 8
GROUP0
10
1145.40343184113
20
1453.76091896978
30
0.000360522308829086
11
1144.92106993133
21
1453.96071981479
31
0.000360743229040816
  0
LINE
 8
GROUP0
10
1144.92106993133
20
1453.96071981479
30
0.000360743229040816
11
1144.50685636896
21
1454.27855705998
31
0.00036106805518068
  0
LINE
 8
GROUP0
10
1144.50685636896
20
1454.27855705998
30
0.00036106805518068
11
1144.18901912376
21
1454.69277062236
31
0.00036147465088473
  0
LINE
 8
GROUP0
10
1144.18901912376
20
1454.69277062236
30
0.00036147465088473
11
1143.98921827875
21
1455.17513253215
31
0.000361935307328687
  0
LINE
 8
GROUP0
10
1143.98921827875
20
1455.17513253215
30
0.000361935307328687
11
1143.92106993133
21
1455.69277062236
31
0.000362418631533895
  0
LINE
 8
GROUP0
10
1143.92106993133
20
1455.69277062236
30
0.000362418631533895
11
1143.98921827875
21
1456.21040871256
31
0.00036289168575957
  0
LINE
 8
GROUP0
10
1143.98921827875
20
1456.21040871256
30
0.00036289168575957
11
1144.18901912376
21
1456.69277062236
31
0.000363322232139013
  0
LINE
 8
GROUP0
10
1144.18901912376
20
1456.69277062236
30
0.000363322232139013
11
1144.50685636896
21
1457.10698418473
31
0.000363680929646409
  0
LINE
 8
GROUP0
10
1144.50685636896
20
1457.10698418473
30
0.000363680929646409
11
1144.92106993133
21
1457.42482142992
31
0.000363943333642708
  0
LINE
 8
GROUP0
10
1144.92106993133
20
1457.42482142992
30
0.000363943333642708
11
1145.40343184113
21
1457.62462227493
31
0.000364091561728519
  0
LINE
 8
GROUP0
10
1145.40343184113
20
1457.62462227493
30
0.000364091561728519
11
1145.92106993133
21
1457.69277062236
31
0.000364115512400387
  0
LINE
 8
GROUP0
10
1145.92106993133
20
1457.69277062236
30
0.000364115512400387
11
1146.43870802154
21
1457.62462227493
31
0.000364013553466647
  0
LINE
 8
GROUP0
10
1146.43870802154
20
1457.62462227493
30
0.000364013553466647
11
1146.92106993133
21
1457.42482142992
31
0.000363792633254917
  0
LINE
 8
GROUP0
10
1146.92106993133
20
1457.42482142992
30
0.000363792633254917
11
1147.3352834937
21
1457.10698418473
31
0.000363467807117873
  0
LINE
 8
GROUP0
10
1147.3352834937
20
1457.10698418473
30
0.000363467807117873
11
1147.6531207389
21
1456.69277062236
31
0.000363061211411003
  0
LINE
 8
GROUP0
10
1147.6531207389
20
1456.69277062236
30
0.000363061211411003
11
1147.85292158391
21
1456.21040871256
31
0.000362600554969161
  0
LINE
 8
GROUP0
10
1147.85292158391
20
1456.21040871256
30
0.000362600554969161
11
1147.92106993133
21
1455.69277062236
31
0.000362117230761133
  0
LINE
 8
GROUP0
10
1147.92106993133
20
1455.69277062236
30
0.000362117230761133
11
1147.85292158391
21
1455.17513253215
31
0.000361644176538278
  0
LINE
 8
GROUP0
10
1147.85292158391
20
1455.17513253215
30
0.000361644176538278
11
1147.6531207389
21
1454.69277062236
31
0.00036121363015954
  0
LINE
 8
GROUP0
10
1147.6531207389
20
1454.69277062236
30
0.00036121363015954
11
1147.3352834937
21
1454.27855705998
31
0.000360854932649324
  0
LINE
 8
GROUP0
10
1147.3352834937
20
1454.27855705998
30
0.000360854932649324
11
1146.92106993133
21
1453.96071981479
31
0.000360592528655845
  0
LINE
 8
GROUP0
10
1146.92106993133
20
1453.96071981479
30
0.000360592528655845
11
1146.43870802154
21
1453.76091896978
31
0.000360444300570034
  0
LINE
 8
GROUP0
10
1146.43870802154
20
1453.76091896978
30
0.000360444300570034
11
1145.92106993133
21
1453.69277062236
31
0.000360420349894641
  0
LINE
 8
GROUP0
10
1433.42057738324
20
1643.69437272562
30
0.000540229403217368
11
1433.93821547344
21
1643.6262243782
31
0.000540132515214331
  0
LINE
 8
GROUP0
10
1433.93821547344
20
1643.6262243782
30
0.000540132515214331
11
1434.42057738324
21
1643.42642353319
31
0.000539920275321909
  0
LINE
 8
GROUP0
10
1434.42057738324
20
1643.42642353319
30
0.000539920275321909
11
1434.83479094561
21
1643.10858628799
31
0.000539607147340654
  0
LINE
 8
GROUP0
10
1434.83479094561
20
1643.10858628799
30
0.000539607147340654
11
1435.1526281908
21
1642.69437272562
31
0.000539214470422938
  0
LINE
 8
GROUP0
10
1435.1526281908
20
1642.69437272562
30
0.000539214470422938
11
1435.35242903581
21
1642.21201081583
31
0.000538769004852196
  0
LINE
 8
GROUP0
10
1435.35242903581
20
1642.21201081583
30
0.000538769004852196
11
1435.42057738323
21
1641.69437272562
31
0.000538301108370598
  0
LINE
 8
GROUP0
10
1435.42057738323
20
1641.69437272562
30
0.000538301108370598
11
1435.35242903581
21
1641.17673463542
31
0.000537842667350119
  0
LINE
 8
GROUP0
10
1435.35242903581
20
1641.17673463542
30
0.000537842667350119
11
1435.1526281908
21
1640.69437272562
31
0.00053742492378982
  0
LINE
 8
GROUP0
10
1435.1526281908
20
1640.69437272562
30
0.00053742492378982
11
1434.83479094561
21
1640.28015916325
31
0.00053707634622141
  0
LINE
 8
GROUP0
10
1434.83479094561
20
1640.28015916325
30
0.00053707634622141
11
1434.42057738324
21
1639.96232191805
31
0.000536820689632234
  0
LINE
 8
GROUP0
10
1434.42057738324
20
1639.96232191805
30
0.000536820689632234
11
1433.93821547344
21
1639.76252107304
31
0.000536675376593715
  0
LINE
 8
GROUP0
10
1433.93821547344
20
1639.76252107304
30
0.000536675376593715
11
1433.42057738324
21
1639.69437272562
31
0.000536650309950426
  0
LINE
 8
GROUP0
10
1433.42057738324
20
1639.69437272562
30
0.000536650309950426
11
1432.90293929303
21
1639.76252107304
31
0.000536747197953463
  0
LINE
 8
GROUP0
10
1432.90293929303
20
1639.76252107304
30
0.000536747197953463
11
1432.42057738324
21
1639.96232191805
31
0.000536959437845885
  0
LINE
 8
GROUP0
10
1432.42057738324
20
1639.96232191805
30
0.000536959437845885
11
1432.00636382086
21
1640.28015916325
31
0.00053727256582714
  0
LINE
 8
GROUP0
10
1432.00636382086
20
1640.28015916325
30
0.00053727256582714
11
1431.68852657567
21
1640.69437272562
31
0.000537665242744856
  0
LINE
 8
GROUP0
10
1431.68852657567
20
1640.69437272562
30
0.000537665242744856
11
1431.48872573066
21
1641.17673463542
31
0.000538110708315598
  0
LINE
 8
GROUP0
10
1431.48872573066
20
1641.17673463542
30
0.000538110708315598
11
1431.42057738324
21
1641.69437272562
31
0.000538578604797901
  0
LINE
 8
GROUP0
10
1431.42057738324
20
1641.69437272562
30
0.000538578604797901
11
1431.48872573066
21
1642.21201081583
31
0.000539037045817675
  0
LINE
 8
GROUP0
10
1431.48872573066
20
1642.21201081583
30
0.000539037045817675
11
1431.68852657567
21
1642.69437272562
31
0.000539454789377974
  0
LINE
 8
GROUP0
10
1431.68852657567
20
1642.69437272562
30
0.000539454789377974
11
1432.00636382086
21
1643.10858628799
31
0.000539803366946384
  0
LINE
 8
GROUP0
10
1432.00636382086
20
1643.10858628799
30
0.000539803366946384
11
1432.42057738324
21
1643.42642353319
31
0.000540059023535561
  0
LINE
 8
GROUP0
10
1432.42057738324
20
1643.42642353319
30
0.000540059023535561
11
1432.90293929303
21
1643.6262243782
31
0.000540204336574079
  0
LINE
 8
GROUP0
10
1432.90293929303
20
1643.6262243782
30
0.000540204336574079
11
1433.42057738324
21
1643.69437272562
31
0.000540229403217368
  0
LINE
 8
GROUP0
10
1432.90293929303
20
1625.26252107304
30
0.000536747197222387
11
1432.42057738324
21
1625.46232191805
31
0.000536959437114809
  0
LINE
 8
GROUP0
10
1432.42057738324
20
1625.46232191805
30
0.000536959437114809
11
1432.00636382086
21
1625.78015916325
31
0.000537272565096064
  0
LINE
 8
GROUP0
10
1432.00636382086
20
1625.78015916325
30
0.000537272565096064
11
1431.68852657567
21
1626.19437272562
31
0.000537665242013779
  0
LINE
 8
GROUP0
10
1431.68852657567
20
1626.19437272562
30
0.000537665242013779
11
1431.48872573066
21
1626.67673463541
31
0.000538110707585226
  0
LINE
 8
GROUP0
10
1431.48872573066
20
1626.67673463541
30
0.000538110707585226
11
1431.42057738324
21
1627.19437272562
31
0.000538578604066825
  0
LINE
 8
GROUP0
10
1431.42057738324
20
1627.19437272562
30
0.000538578604066825
11
1431.48872573066
21
1627.71201081582
31
0.000539037045086599
  0
LINE
 8
GROUP0
10
1431.48872573066
20
1627.71201081582
30
0.000539037045086599
11
1431.68852657567
21
1628.19437272562
31
0.000539454788646898
  0
LINE
 8
GROUP0
10
1431.68852657567
20
1628.19437272562
30
0.000539454788646898
11
1432.00636382086
21
1628.60858628799
31
0.000539803366215308
  0
LINE
 8
GROUP0
10
1432.00636382086
20
1628.60858628799
30
0.000539803366215308
11
1432.42057738324
21
1628.92642353319
31
0.000540059022804484
  0
LINE
 8
GROUP0
10
1432.42057738324
20
1628.92642353319
30
0.000540059022804484
11
1432.90293929303
21
1629.12622437819
31
0.000540204335843003
  0
LINE
 8
GROUP0
10
1432.90293929303
20
1629.12622437819
30
0.000540204335843003
11
1433.42057738324
21
1629.19437272562
31
0.000540229402486292
  0
LINE
 8
GROUP0
10
1433.42057738324
20
1629.19437272562
30
0.000540229402486292
11
1433.93821547344
21
1629.12622437819
31
0.000540132514483255
  0
LINE
 8
GROUP0
10
1433.93821547344
20
1629.12622437819
30
0.000540132514483255
11
1434.42057738324
21
1628.92642353319
31
0.000539920274590833
  0
LINE
 8
GROUP0
10
1434.42057738324
20
1628.92642353319
30
0.000539920274590833
11
1434.83479094561
21
1628.60858628799
31
0.000539607146609578
  0
LINE
 8
GROUP0
10
1434.83479094561
20
1628.60858628799
30
0.000539607146609578
11
1435.1526281908
21
1628.19437272562
31
0.000539214469691862
  0
LINE
 8
GROUP0
10
1435.1526281908
20
1628.19437272562
30
0.000539214469691862
11
1435.35242903581
21
1627.71201081582
31
0.00053876900412112
  0
LINE
 8
GROUP0
10
1435.35242903581
20
1627.71201081582
30
0.00053876900412112
11
1435.42057738323
21
1627.19437272562
31
0.000538301107639522
  0
LINE
 8
GROUP0
10
1435.42057738323
20
1627.19437272562
30
0.000538301107639522
11
1435.35242903581
21
1626.67673463541
31
0.000537842666619748
  0
LINE
 8
GROUP0
10
1435.35242903581
20
1626.67673463541
30
0.000537842666619748
11
1435.1526281908
21
1626.19437272562
31
0.000537424923058744
  0
LINE
 8
GROUP0
10
1435.1526281908
20
1626.19437272562
30
0.000537424923058744
11
1434.83479094561
21
1625.78015916325
31
0.000537076345490334
  0
LINE
 8
GROUP0
10
1434.83479094561
20
1625.78015916325
30
0.000537076345490334
11
1434.42057738324
21
1625.46232191805
31
0.000536820688901157
  0
LINE
 8
GROUP0
10
1434.42057738324
20
1625.46232191805
30
0.000536820688901157
11
1433.93821547344
21
1625.26252107304
31
0.000536675375862639
  0
LINE
 8
GROUP0
10
1433.93821547344
20
1625.26252107304
30
0.000536675375862639
11
1433.42057738324
21
1625.19437272562
31
0.00053665030921935
  0
LINE
 8
GROUP0
10
1433.42057738324
20
1625.19437272562
30
0.00053665030921935
11
1432.90293929303
21
1625.26252107304
31
0.000536747197222387
  0
LINE
 8
GROUP0
10
1432.42057738324
20
1388.42642608534
30
0.000540059010679333
11
1432.90293929303
21
1388.62622693035
31
0.000540204323717147
  0
LINE
 8
GROUP0
10
1432.90293929303
20
1388.62622693035
30
0.000540204323717147
11
1433.42057738324
21
1388.69437527777
31
0.000540229390360436
  0
LINE
 8
GROUP0
10
1433.42057738324
20
1388.69437527777
30
0.000540229390360436
11
1433.93821547344
21
1388.62622693035
31
0.000540132502357399
  0
LINE
 8
GROUP0
10
1433.93821547344
20
1388.62622693035
30
0.000540132502357399
11
1434.42057738324
21
1388.42642608534
31
0.000539920262465682
  0
LINE
 8
GROUP0
10
1434.42057738324
20
1388.42642608534
30
0.000539920262465682
11
1434.83479094561
21
1388.10858884014
31
0.000539607134483722
  0
LINE
 8
GROUP0
10
1434.83479094561
20
1388.10858884014
30
0.000539607134483722
11
1435.1526281908
21
1387.69437527777
31
0.000539214457566711
  0
LINE
 8
GROUP0
10
1435.1526281908
20
1387.69437527777
30
0.000539214457566711
11
1435.35242903581
21
1387.21201336797
31
0.000538768991995264
  0
LINE
 8
GROUP0
10
1435.35242903581
20
1387.21201336797
30
0.000538768991995264
11
1435.42057738323
21
1386.69437527777
31
0.000538301095513666
  0
LINE
 8
GROUP0
10
1435.42057738323
20
1386.69437527777
30
0.000538301095513666
11
1435.35242903581
21
1386.17673718756
31
0.000537842654493892
  0
LINE
 8
GROUP0
10
1435.35242903581
20
1386.17673718756
30
0.000537842654493892
11
1435.1526281908
21
1385.69437527777
31
0.000537424910932888
  0
LINE
 8
GROUP0
10
1435.1526281908
20
1385.69437527777
30
0.000537424910932888
11
1434.83479094561
21
1385.2801617154
31
0.000537076333365183
  0
LINE
 8
GROUP0
10
1434.83479094561
20
1385.2801617154
30
0.000537076333365183
11
1434.42057738324
21
1384.9623244702
31
0.000536820676775301
  0
LINE
 8
GROUP0
10
1434.42057738324
20
1384.9623244702
30
0.000536820676775301
11
1433.93821547344
21
1384.76252362519
31
0.000536675363737488
  0
LINE
 8
GROUP0
10
1433.93821547344
20
1384.76252362519
30
0.000536675363737488
11
1433.42057738324
21
1384.69437527777
31
0.000536650297094199
  0
LINE
 8
GROUP0
10
1433.42057738324
20
1384.69437527777
30
0.000536650297094199
11
1432.90293929303
21
1384.76252362519
31
0.000536747185097236
  0
LINE
 8
GROUP0
10
1432.90293929303
20
1384.76252362519
30
0.000536747185097236
11
1432.42057738324
21
1384.9623244702
31
0.000536959424988953
  0
LINE
 8
GROUP0
10
1432.42057738324
20
1384.9623244702
30
0.000536959424988953
11
1432.00636382086
21
1385.2801617154
31
0.000537272552970913
  0
LINE
 8
GROUP0
10
1432.00636382086
20
1385.2801617154
30
0.000537272552970913
11
1431.68852657567
21
1385.69437527777
31
0.000537665229887924
  0
LINE
 8
GROUP0
10
1431.68852657567
20
1385.69437527777
30
0.000537665229887924
11
1431.48872573066
21
1386.17673718756
31
0.000538110695459371
  0
LINE
 8
GROUP0
10
1431.48872573066
20
1386.17673718756
30
0.000538110695459371
11
1431.42057738324
21
1386.69437527777
31
0.000538578591940969
  0
LINE
 8
GROUP0
10
1431.42057738324
20
1386.69437527777
30
0.000538578591940969
11
1431.48872573066
21
1387.21201336797
31
0.000539037032960743
  0
LINE
 8
GROUP0
10
1431.48872573066
20
1387.21201336797
30
0.000539037032960743
11
1431.68852657567
21
1387.69437527777
31
0.000539454776521747
  0
LINE
 8
GROUP0
10
1431.68852657567
20
1387.69437527777
30
0.000539454776521747
11
1432.00636382086
21
1388.10858884014
31
0.000539803354089452
  0
LINE
 8
GROUP0
10
1432.00636382086
20
1388.10858884014
30
0.000539803354089452
11
1432.42057738324
21
1388.42642608534
31
0.000540059010679333
  0
LINE
 8
GROUP0
10
1435.35242903581
20
1401.71201336798
30
0.000538768992726341
11
1435.42057738323
21
1401.19437527777
31
0.000538301096244742
  0
LINE
 8
GROUP0
10
1435.42057738323
20
1401.19437527777
30
0.000538301096244742
11
1435.35242903581
21
1400.67673718757
31
0.000537842655224968
  0
LINE
 8
GROUP0
10
1435.35242903581
20
1400.67673718757
30
0.000537842655224968
11
1435.1526281908
21
1400.19437527777
31
0.000537424911663964
  0
LINE
 8
GROUP0
10
1435.1526281908
20
1400.19437527777
30
0.000537424911663964
11
1434.83479094561
21
1399.7801617154
31
0.000537076334096259
  0
LINE
 8
GROUP0
10
1434.83479094561
20
1399.7801617154
30
0.000537076334096259
11
1434.42057738324
21
1399.4623244702
31
0.000536820677506378
  0
LINE
 8
GROUP0
10
1434.42057738324
20
1399.4623244702
30
0.000536820677506378
11
1433.93821547344
21
1399.2625236252
31
0.000536675364468564
  0
LINE
 8
GROUP0
10
1433.93821547344
20
1399.2625236252
30
0.000536675364468564
11
1433.42057738324
21
1399.19437527777
31
0.000536650297825275
  0
LINE
 8
GROUP0
10
1433.42057738324
20
1399.19437527777
30
0.000536650297825275
11
1432.90293929303
21
1399.2625236252
31
0.000536747185828312
  0
LINE
 8
GROUP0
10
1432.90293929303
20
1399.2625236252
30
0.000536747185828312
11
1432.42057738324
21
1399.4623244702
31
0.000536959425720029
  0
LINE
 8
GROUP0
10
1432.42057738324
20
1399.4623244702
30
0.000536959425720029
11
1432.00636382086
21
1399.7801617154
31
0.00053727255370199
  0
LINE
 8
GROUP0
10
1432.00636382086
20
1399.7801617154
30
0.00053727255370199
11
1431.68852657567
21
1400.19437527777
31
0.000537665230619
  0
LINE
 8
GROUP0
10
1431.68852657567
20
1400.19437527777
30
0.000537665230619
11
1431.48872573066
21
1400.67673718757
31
0.000538110696190447
  0
LINE
 8
GROUP0
10
1431.48872573066
20
1400.67673718757
30
0.000538110696190447
11
1431.42057738324
21
1401.19437527777
31
0.000538578592672045
  0
LINE
 8
GROUP0
10
1431.42057738324
20
1401.19437527777
30
0.000538578592672045
11
1431.48872573066
21
1401.71201336798
31
0.000539037033691819
  0
LINE
 8
GROUP0
10
1431.48872573066
20
1401.71201336798
30
0.000539037033691819
11
1431.68852657567
21
1402.19437527777
31
0.000539454777252119
  0
LINE
 8
GROUP0
10
1431.68852657567
20
1402.19437527777
30
0.000539454777252119
11
1432.00636382086
21
1402.60858884014
31
0.000539803354820528
  0
LINE
 8
GROUP0
10
1432.00636382086
20
1402.60858884014
30
0.000539803354820528
11
1432.42057738324
21
1402.92642608534
31
0.00054005901141041
  0
LINE
 8
GROUP0
10
1432.42057738324
20
1402.92642608534
30
0.00054005901141041
11
1432.90293929303
21
1403.12622693035
31
0.000540204324448223
  0
LINE
 8
GROUP0
10
1432.90293929303
20
1403.12622693035
30
0.000540204324448223
11
1433.42057738324
21
1403.19437527777
31
0.000540229391091512
  0
LINE
 8
GROUP0
10
1433.42057738324
20
1403.19437527777
30
0.000540229391091512
11
1433.93821547344
21
1403.12622693035
31
0.000540132503088475
  0
LINE
 8
GROUP0
10
1433.93821547344
20
1403.12622693035
30
0.000540132503088475
11
1434.42057738324
21
1402.92642608534
31
0.000539920263196758
  0
LINE
 8
GROUP0
10
1434.42057738324
20
1402.92642608534
30
0.000539920263196758
11
1434.83479094561
21
1402.60858884014
31
0.000539607135214798
  0
LINE
 8
GROUP0
10
1434.83479094561
20
1402.60858884014
30
0.000539607135214798
11
1435.1526281908
21
1402.19437527777
31
0.000539214458297083
  0
LINE
 8
GROUP0
10
1435.1526281908
20
1402.19437527777
30
0.000539214458297083
11
1435.35242903581
21
1401.71201336798
31
0.000538768992726341
 0
ENDSEC
 0
EOF
