 0
SECTION
 2
ENTITIES
  0
LINE
 8
GROUP0
10
-3557.82996436958
20
-1000.06742212348
30
4.05508341894123e-007
11
-3557.92986479208
21
-999.826241168579
31
3.99003626727623e-007
  0
LINE
 8
GROUP0
10
-3558.53707115076
20
-999.360315342289
30
3.59467553529003e-007
11
-3558.79589019586
21
-999.326241168578
31
3.42614901560623e-007
  0
LINE
 8
GROUP0
10
-3558.79589019586
20
-999.326241168578
30
3.42614901560623e-007
11
-3559.05470924097
21
-999.360315342289
31
3.25758982661073e-007
  0
LINE
 8
GROUP0
10
-3558.08878341468
20
-999.619134387393
30
3.88652554828006e-007
11
-3558.29589019586
21
-999.460215764795
31
3.75167294630607e-007
  0
LINE
 8
GROUP0
10
-3557.92986479208
20
-999.826241168579
30
3.99003626727623e-007
11
-3558.08878341468
21
-999.619134387393
31
3.88652554828006e-007
  0
LINE
 8
GROUP0
10
-3558.29589019586
20
-999.460215764795
30
3.75167294630607e-007
11
-3558.53707115076
21
-999.360315342289
31
3.59467553529003e-007
  0
LINE
 8
GROUP0
10
-3559.05470924097
20
-999.360315342289
30
3.25758982661073e-007
11
-3559.29589019586
21
-999.460215764795
31
3.10055216057314e-007
  0
LINE
 8
GROUP0
10
-3563.8129272827
20
-1000.19683164602
30
1.70549909084272e-008
11
-3563.79589019586
21
-1000.32624116858
31
1.70524303788611e-008
  0
LINE
 8
GROUP0
10
-3559.29589019586
20
-999.460215764795
30
3.10055216057314e-007
11
-3559.50299697705
21
-999.619134387392
31
2.96573836133795e-007
  0
LINE
 8
GROUP0
10
-3559.50299697705
20
-999.619134387392
30
2.96573836133795e-007
11
-3559.66191559965
21
-999.826241168578
31
2.86222293299776e-007
  0
LINE
 8
GROUP0
10
-3564.29589019581
20
-999.826241168519
30
1.71175391749934e-008
11
-3564.16648067326
21
-999.84327825539
31
1.70998460002902e-008
  0
LINE
 8
GROUP0
10
-3564.77885310899
20
-1000.19683164591
30
1.7183491141104e-008
11
-3564.72890289773
21
-1000.07624116847
31
1.71806380400152e-008
  0
LINE
 8
GROUP0
10
-3564.04589019581
20
-999.893228466656
30
1.70835910084932e-008
11
-3563.94233680523
21
-999.972687777966
31
1.70687685596693e-008
  0
LINE
 8
GROUP0
10
-3564.42529971836
20
-999.843278255361
30
1.71352196598473e-008
11
-3564.29589019581
21
-999.826241168519
31
1.71175391749934e-008
  0
LINE
 8
GROUP0
10
-3564.16648067326
20
-999.84327825539
30
1.70998460002902e-008
11
-3564.04589019581
21
-999.893228466656
31
1.70835910084932e-008
  0
LINE
 8
GROUP0
10
-3477.79589019587
20
-1000.32624116859
30
4.07727067552877e-007
11
-3477.82996436958
21
-1000.06742212348
31
4.05517365786867e-007
  0
LINE
 8
GROUP0
10
-3559.66191559965
20
-999.826241168578
30
2.86222293299776e-007
11
-3559.76181602215
21
-1000.06742212348
31
2.79717803730595e-007
  0
LINE
 8
GROUP0
10
-3563.94233680523
20
-999.972687777966
30
1.70687685596693e-008
11
-3563.86287749394
21
-1000.07624116857
31
1.70618836115022e-008
  0
LINE
 8
GROUP0
10
-3472.862877494
20
-1000.0762411685
30
6.68069329251564e-007
11
-3472.81292728273
21
-1000.19683164595
31
6.68063519415618e-007
  0
LINE
 8
GROUP0
10
-3564.64944358642
20
-999.972687777887
30
1.71698361584038e-008
11
-3564.54589019581
21
-999.8932284666
31
1.71557821504464e-008
  0
LINE
 8
GROUP0
10
-3559.76181602215
20
-1000.06742212348
30
2.79717803730595e-007
11
-3559.79589019586
21
-1000.32624116858
31
2.77499661804903e-007
  0
LINE
 8
GROUP0
10
-3564.72890289773
20
-1000.07624116847
30
1.71806380400152e-008
11
-3564.64944358642
21
-999.972687777887
31
1.71698361584038e-008
  0
LINE
 8
GROUP0
10
-3473.79589019586
20
-1000.32624116859
30
6.68175381846048e-007
11
-3473.77885310902
21
-1000.19683164603
31
6.68182273844131e-007
  0
LINE
 8
GROUP0
10
-3564.54589019581
20
-999.8932284666
30
1.71557821504464e-008
11
-3564.42529971836
21
-999.843278255361
31
1.71352196598473e-008
  0
LINE
 8
GROUP0
10
-3557.79589019587
20
-1000.32624116858
30
4.07727067552877e-007
11
-3557.82996436958
21
-1000.06742212348
31
4.05508341894123e-007
  0
LINE
 8
GROUP0
10
-3564.79589019586
20
-1000.32624116846
30
1.71859839914745e-008
11
-3564.77885310899
21
-1000.19683164591
31
1.7183491141104e-008
  0
LINE
 8
GROUP0
10
-3563.86287749394
20
-1000.07624116857
30
1.70618836115022e-008
11
-3563.8129272827
21
-1000.19683164602
31
1.70549909084272e-008
  0
LINE
 8
GROUP0
10
-3473.64944358649
20
-999.97268777798
30
6.6816970172856e-007
11
-3473.5458901959
21
-999.893228466672
31
6.68156730587732e-007
  0
LINE
 8
GROUP0
10
-3473.5458901959
20
-999.893228466672
30
6.68156730587732e-007
11
-3473.42529971846
21
-999.843278255409
31
6.68137611919972e-007
  0
LINE
 8
GROUP0
10
-3473.04589019591
20
-999.893228466627
30
6.68089592825716e-007
11
-3472.9423368053
21
-999.972687777916
31
6.68076214199731e-007
  0
LINE
 8
GROUP0
10
-3473.72890289778
20
-1000.07624116858
30
6.68175811185945e-007
11
-3473.64944358649
21
-999.97268777798
31
6.6816970172856e-007
  0
LINE
 8
GROUP0
10
-3479.50299697705
20
-999.6191343874
30
2.9658286002654e-007
11
-3479.66191559965
21
-999.826241168586
31
2.86234926749618e-007
  0
LINE
 8
GROUP0
10
-3473.42529971846
20
-999.843278255409
30
6.68137611919972e-007
11
-3473.29589019591
21
-999.826241168541
31
6.68121014302248e-007
  0
LINE
 8
GROUP0
10
-3483.94233680523
20
-999.972687777974
30
1.70777924524135e-008
11
-3483.86287749394
21
-1000.07624116858
31
1.70709075042463e-008
  0
LINE
 8
GROUP0
10
-3478.08878341468
20
-999.619134387401
30
3.8866157872075e-007
11
-3478.29589019586
21
-999.460215764803
31
3.75176318523351e-007
  0
LINE
 8
GROUP0
10
-3479.05470924097
20
-999.360315342297
30
3.25768006553817e-007
11
-3479.29589019586
21
-999.460215764803
31
3.10063878994349e-007
  0
LINE
 8
GROUP0
10
-3484.79589019586
20
-1000.32624116847
30
1.71856230357648e-008
11
-3484.77885310899
21
-1000.19683164592
31
1.71961245909458e-008
  0
LINE
 8
GROUP0
10
-3484.42529971836
20
-999.843278255369
30
1.71438825968817e-008
11
-3484.29589019581
21
-999.826241168527
31
1.71265630677375e-008
  0
LINE
 8
GROUP0
10
-3477.92986479208
20
-999.826241168587
30
3.99012650620367e-007
11
-3478.08878341468
21
-999.619134387401
31
3.8866157872075e-007
  0
LINE
 8
GROUP0
10
-3484.72890289773
20
-1000.07624116848
30
1.71896619327594e-008
11
-3484.64944358642
21
-999.972687777894
31
1.7178860051148e-008
  0
LINE
 8
GROUP0
10
-3472.9423368053
20
-999.972687777916
30
6.68076214199731e-007
11
-3472.862877494
21
-1000.0762411685
31
6.68069329251564e-007
  0
LINE
 8
GROUP0
10
-3478.53707115076
20
-999.360315342297
30
3.59472967864649e-007
11
-3478.79589019586
21
-999.326241168586
31
3.42623925453367e-007
  0
LINE
 8
GROUP0
10
-3484.16648067326
20
-999.843278255398
30
1.71088698930344e-008
11
-3484.04589019581
21
-999.893228466663
31
1.70926149012374e-008
  0
LINE
 8
GROUP0
10
-3473.29589019591
20
-999.826241168541
30
6.68121014302248e-007
11
-3473.16648067336
21
-999.843278255386
31
6.68104764950383e-007
  0
LINE
 8
GROUP0
10
-3479.76181602215
20
-1000.06742212348
30
2.79726827623339e-007
11
-3479.79589019586
21
-1000.32624116859
31
2.77499661804903e-007
  0
LINE
 8
GROUP0
10
-3484.04589019581
20
-999.893228466663
30
1.70926149012374e-008
11
-3483.94233680523
21
-999.972687777974
31
1.70777924524135e-008
  0
LINE
 8
GROUP0
10
-3472.81292728273
20
-1000.19683164595
30
6.68063519415618e-007
11
-3472.79589019586
21
-1000.3262411685
31
6.68052295949018e-007
  0
LINE
 8
GROUP0
10
-3483.8129272827
20
-1000.19683164603
30
1.70640148011714e-008
11
-3483.79589019586
21
-1000.32624116858
31
1.70524303788611e-008
  0
LINE
 8
GROUP0
10
-3473.77885310902
20
-1000.19683164603
30
6.68182273844131e-007
11
-3473.72890289778
21
-1000.07624116858
31
6.68175811185945e-007
  0
LINE
 8
GROUP0
10
-3484.77885310899
20
-1000.19683164592
30
1.71961245909458e-008
11
-3484.72890289773
21
-1000.07624116848
31
1.71896619327594e-008
  0
LINE
 8
GROUP0
10
-3473.16648067336
20
-999.843278255386
30
6.68104764950383e-007
11
-3473.04589019591
21
-999.893228466627
31
6.68089592825716e-007
  0
LINE
 8
GROUP0
10
-3483.86287749394
20
-1000.07624116858
30
1.70709075042463e-008
11
-3483.8129272827
21
-1000.19683164603
31
1.70640148011714e-008
  0
LINE
 8
GROUP0
10
-3477.82996436958
20
-1000.06742212348
30
4.05517365786867e-007
11
-3477.92986479208
21
-999.826241168587
31
3.99012650620367e-007
  0
LINE
 8
GROUP0
10
-3478.29589019586
20
-999.460215764803
30
3.75176318523351e-007
11
-3478.53707115076
21
-999.360315342297
31
3.59472967864649e-007
  0
LINE
 8
GROUP0
10
-3484.64944358642
20
-999.972687777894
30
1.7178860051148e-008
11
-3484.54589019581
21
-999.893228466607
31
1.71648060431906e-008
  0
LINE
 8
GROUP0
10
-3484.29589019581
20
-999.826241168527
30
1.71265630677375e-008
11
-3484.16648067326
21
-999.843278255398
31
1.71088698930344e-008
  0
LINE
 8
GROUP0
10
-3479.29589019586
20
-999.460215764803
30
3.10063878994349e-007
11
-3479.50299697705
21
-999.6191343874
31
2.9658286002654e-007
  0
LINE
 8
GROUP0
10
-3484.54589019581
20
-999.893228466607
30
1.71648060431906e-008
11
-3484.42529971836
21
-999.843278255369
31
1.71438825968817e-008
  0
LINE
 8
GROUP0
10
-3479.66191559965
20
-999.826241168586
30
2.86234926749618e-007
11
-3479.76181602215
21
-1000.06742212348
31
2.79726827623339e-007
  0
LINE
 8
GROUP0
10
-3433.79589079992
20
-994.926359099965
30
1.76552595487767e-008
11
-3429.79589079992
21
-994.926359099964
31
2.44787662861956e-008
  0
LINE
 8
GROUP0
10
-3429.79589079992
20
-983.926359099964
30
2.44817744854409e-008
11
-3433.79589079992
21
-983.926359099964
31
1.76582677480219e-008
  0
LINE
 8
GROUP0
10
-3603.79589019608
20
-854.926359099905
30
2.45166899004445e-008
11
-3603.79589019608
21
-843.926359099905
31
2.45196980996898e-008
  0
LINE
 8
GROUP0
10
-3433.79589019608
20
-854.926359099922
30
1.76928222073158e-008
11
-3429.79589019608
21
-854.92635909992
31
2.45163289447348e-008
  0
LINE
 8
GROUP0
10
-3607.79589079992
20
-994.926359099947
30
1.76552595487767e-008
11
-3603.79589079992
21
-994.926359099948
31
2.44791272419054e-008
  0
LINE
 8
GROUP0
10
-3603.79589079992
20
-994.926359099948
30
2.44791272419054e-008
11
-3603.79589079992
21
-983.926359099948
31
2.44821354411506e-008
  0
LINE
 8
GROUP0
10
-3478.79589019586
20
-999.326241168586
30
3.42623925453367e-007
11
-3479.05470924097
21
-999.360315342297
31
3.25768006553817e-007
  0
LINE
 8
GROUP0
10
-3433.79589019608
20
-843.926359099922
30
1.76958304065611e-008
11
-3433.79589019608
21
-854.926359099922
31
1.76928222073158e-008
  0
LINE
 8
GROUP0
10
-3603.79589079992
20
-983.926359099948
30
2.44821354411506e-008
11
-3607.79589079992
21
-983.926359099946
31
1.76582677480219e-008
  0
LINE
 8
GROUP0
10
-3479.54589019586
20
-990.725397235755
30
1.88970931236376e-008
11
-3479.85655036764
21
-990.487019301858
31
1.82561161521377e-008
  0
LINE
 8
GROUP0
10
-3607.79589019608
20
-854.926359099903
30
1.76928222073158e-008
11
-3603.79589019608
21
-854.926359099905
31
2.45166899004445e-008
  0
LINE
 8
GROUP0
10
-3429.79589079992
20
-994.926359099964
30
2.44787662861956e-008
11
-3429.79589079992
21
-983.926359099964
31
2.44817744854409e-008
  0
LINE
 8
GROUP0
10
-3429.79589019608
20
-854.92635909992
30
2.45163289447348e-008
11
-3429.79589019608
21
-843.926359099921
31
2.45189761882703e-008
  0
LINE
 8
GROUP0
10
-3429.79589019608
20
-843.926359099921
30
2.45189761882703e-008
11
-3433.79589019608
21
-843.926359099922
31
1.76958304065611e-008
  0
LINE
 8
GROUP0
10
-3603.79589019608
20
-843.926359099905
30
2.45196980996898e-008
11
-3607.79589019608
21
-843.926359099903
31
1.76958304065611e-008
  0
LINE
 8
GROUP0
10
-3433.79589079992
20
-983.926359099964
30
1.76582677480219e-008
11
-3433.79589079992
21
-994.926359099965
31
1.76552595487767e-008
  0
LINE
 8
GROUP0
10
-3552.79589019586
20
-1000.32624116849
30
6.68052295949018e-007
11
-3552.79589019608
21
-1011.22635004911
31
6.64896728075348e-007
  0
LINE
 8
GROUP0
10
-3484.79589019608
20
-1011.22635004909
30
1.40300551620953e-008
11
-3552.79589019608
21
-1011.22635004911
31
6.64896728075348e-007
  0
LINE
 8
GROUP0
10
-3484.79589019586
20
-1000.32624116847
30
1.71856230357648e-008
11
-3484.79589019608
21
-1011.22635004909
31
1.40300551620953e-008
  0
LINE
 8
GROUP0
10
-3483.79589019586
20
-1000.32624116858
30
1.70524303788611e-008
11
-3483.79589019587
21
-1015.42634924904
31
5.19563258194466e-008
  0
LINE
 8
GROUP0
10
-3483.79589019587
20
-1015.42634924904
30
5.19563258194466e-008
11
-3484.79589019587
21
-1015.42634924892
31
0.0
  0
LINE
 8
GROUP0
10
-3484.79589019587
20
-1015.42634924892
30
0.0
11
-3484.29589019587
21
-1017.42634924892
31
4.93733690598574e-009
  0
LINE
 8
GROUP0
10
-3484.29589019587
20
-1017.42634924892
30
4.93733690598574e-009
11
-3479.79589019587
21
-1017.42634924904
31
3.1702721588478e-007
  0
LINE
 8
GROUP0
10
-3479.79589019587
20
-1017.42634924904
30
3.1702721588478e-007
11
-3479.79589019586
21
-1000.32624116859
31
2.77499661804903e-007
  0
LINE
 8
GROUP0
10
-3477.79589019587
20
-1000.32624116859
30
4.07727067552877e-007
11
-3477.79589019587
21
-1017.42634924904
31
4.47255704499883e-007
  0
LINE
 8
GROUP0
10
-3477.79589019587
20
-1017.42634924904
30
4.47255704499883e-007
11
-3473.29589019587
21
-1017.42634924895
31
7.59670451372374e-007
  0
LINE
 8
GROUP0
10
-3473.29589019587
20
-1017.42634924895
30
7.59670451372374e-007
11
-3472.79589019587
21
-1015.42634924895
31
7.55047875600212e-007
  0
LINE
 8
GROUP0
10
-3472.79589019587
20
-1015.42634924895
30
7.55047875600212e-007
11
-3473.79589019587
21
-1015.42634924904
31
7.03080721109472e-007
  0
LINE
 8
GROUP0
10
-3473.79589019587
20
-1015.42634924904
30
7.03080721109472e-007
11
-3473.79589019586
21
-1000.32624116859
31
6.68175381846048e-007
  0
LINE
 8
GROUP0
10
-3472.79589019586
20
-1000.3262411685
30
6.68052295949018e-007
11
-3472.79589019621
21
-1011.2263500817
31
6.64664994509678e-007
  0
LINE
 8
GROUP0
10
-3425.7958901964
20
-1011.2263500818
30
1.36568269581971e-008
11
-3472.79589019621
21
-1011.2263500817
31
6.64664994509678e-007
  0
LINE
 8
GROUP0
10
-3425.79589019603
20
-828.426359130138
30
1.70972748958498e-008
11
-3425.7958901964
21
-1011.2263500818
31
1.36568269581971e-008
  0
LINE
 8
GROUP0
10
-3491.29589019603
20
-828.426359130133
30
1.709691394014e-008
11
-3425.79589019603
21
-828.426359130138
31
1.70972748958498e-008
  0
LINE
 8
GROUP0
10
-3491.29589019603
20
-824.426359130133
30
1.70980080871352e-008
11
-3491.29589019603
21
-828.426359130133
31
1.709691394014e-008
  0
LINE
 8
GROUP0
10
-3546.29589019603
20
-824.426359130127
30
1.71016176442329e-008
11
-3491.29589019603
21
-824.426359130133
31
1.70980080871352e-008
  0
LINE
 8
GROUP0
10
-3546.29589019603
20
-824.426359130127
30
1.71016176442329e-008
11
-3546.29589019603
21
-828.426359130127
31
1.71005234972377e-008
  0
LINE
 8
GROUP0
10
-3611.79589019603
20
-828.42635913012
30
1.709691394014e-008
11
-3546.29589019603
21
-828.426359130127
31
1.71005234972377e-008
  0
LINE
 8
GROUP0
10
-3611.79589019645
20
-1011.22635158494
30
2.22944970929007e-008
11
-3611.79589019603
21
-828.42635913012
31
1.709691394014e-008
  0
LINE
 8
GROUP0
10
-3564.79589019626
20
-1011.22635158483
30
2.24269678383848e-008
11
-3611.79589019645
21
-1011.22635158494
31
2.22944970929007e-008
  0
LINE
 8
GROUP0
10
-3564.79589019586
20
-1000.32624116846
30
1.71859839914745e-008
11
-3564.79589019626
21
-1011.22635158483
31
2.24269678383848e-008
  0
LINE
 8
GROUP0
10
-3563.79589019586
20
-1000.32624116858
30
1.70524303788611e-008
11
-3563.79589019587
21
-1015.42634924903
31
5.19563258194466e-008
  0
LINE
 8
GROUP0
10
-3563.79589019587
20
-1015.42634924903
30
5.19563258194466e-008
11
-3564.79589019587
21
-1015.42634924892
31
3.60955709766131e-013
  0
LINE
 8
GROUP0
10
-3564.79589019587
20
-1015.42634924892
30
3.60955709766131e-013
11
-3564.29589019587
21
-1017.42634924891
31
4.54264029725593e-009
  0
LINE
 8
GROUP0
10
-3564.29589019587
20
-1017.42634924891
30
4.54264029725593e-009
11
-3559.79589019587
21
-1017.42634924903
31
3.1702721588478e-007
  0
LINE
 8
GROUP0
10
-3559.79589019587
20
-1017.42634924903
30
3.1702721588478e-007
11
-3559.79589019586
21
-1000.32624116858
31
2.77499661804903e-007
  0
LINE
 8
GROUP0
10
-3557.79589019587
20
-1000.32624116858
30
4.07727067552877e-007
11
-3557.79589019587
21
-1017.42634924903
31
4.47255704499883e-007
  0
LINE
 8
GROUP0
10
-3557.79589019587
20
-1017.42634924903
30
4.47255704499883e-007
11
-3553.29589019587
21
-1017.42634924894
31
7.59356253526855e-007
  0
LINE
 8
GROUP0
10
-3553.29589019587
20
-1017.42634924894
30
7.59356253526855e-007
11
-3552.79589019587
21
-1015.42634924894
31
7.55047875600212e-007
  0
LINE
 8
GROUP0
10
-3552.79589019587
20
-1015.42634924894
30
7.55047875600212e-007
11
-3553.79589019587
21
-1015.42634924903
31
7.03080721109472e-007
  0
LINE
 8
GROUP0
10
-3553.79589019587
20
-1015.42634924903
30
7.03080721109472e-007
11
-3553.79589019586
21
-1000.32624116858
31
6.68175381846048e-007
  0
LINE
 8
GROUP0
10
-3553.79589019586
20
-1000.32624116858
30
6.68175381846048e-007
11
-3553.77885310902
21
-1000.19683164603
31
6.68173249951387e-007
  0
LINE
 8
GROUP0
10
-3553.77885310902
20
-1000.19683164603
30
6.68173249951387e-007
11
-3553.72890289778
21
-1000.07624116857
31
6.68166787293201e-007
  0
LINE
 8
GROUP0
10
-3553.72890289778
20
-1000.07624116857
30
6.68166787293201e-007
11
-3553.64944358649
21
-999.972687777973
31
6.68160677835816e-007
  0
LINE
 8
GROUP0
10
-3553.64944358649
20
-999.972687777973
30
6.68160677835816e-007
11
-3553.5458901959
21
-999.893228466664
31
6.68147706694988e-007
  0
LINE
 8
GROUP0
10
-3553.5458901959
20
-999.893228466664
30
6.68147706694988e-007
11
-3553.42529971846
21
-999.843278255401
31
6.68132197584326e-007
  0
LINE
 8
GROUP0
10
-3553.42529971846
20
-999.843278255401
30
6.68132197584326e-007
11
-3553.29589019591
21
-999.826241168533
31
6.68111990409503e-007
  0
LINE
 8
GROUP0
10
-3553.29589019591
20
-999.826241168533
30
6.68111990409503e-007
11
-3553.16648067336
21
-999.843278255378
31
6.68095741057639e-007
  0
LINE
 8
GROUP0
10
-3553.16648067336
20
-999.843278255378
30
6.68095741057639e-007
11
-3553.04589019591
21
-999.893228466619
31
6.68080568932972e-007
  0
LINE
 8
GROUP0
10
-3553.04589019591
20
-999.893228466619
30
6.68080568932972e-007
11
-3552.9423368053
21
-999.972687777908
31
6.68067190306987e-007
  0
LINE
 8
GROUP0
10
-3552.9423368053
20
-999.972687777908
30
6.68067190306987e-007
11
-3552.862877494
21
-1000.07624116849
31
6.68056695801722e-007
  0
LINE
 8
GROUP0
10
-3552.862877494
20
-1000.07624116849
30
6.68056695801722e-007
11
-3552.81292728273
21
-1000.19683164594
31
6.68054495522874e-007
  0
LINE
 8
GROUP0
10
-3552.81292728273
20
-1000.19683164594
30
6.68054495522874e-007
11
-3552.79589019586
21
-1000.32624116849
31
6.68052295949018e-007
  0
LINE
 8
GROUP0
10
-3607.79589079992
20
-983.926359099946
30
1.76582677480219e-008
11
-3607.79589079992
21
-994.926359099947
31
1.76552595487767e-008
  0
LINE
 8
GROUP0
10
-3607.79589019608
20
-843.926359099903
30
1.76958304065611e-008
11
-3607.79589019608
21
-854.926359099903
31
1.76928222073158e-008
  0
LINE
 8
GROUP0
10
-3479.18411876352
20
-990.87524786951
30
1.9412496282678e-008
11
-3479.54589019586
21
-990.725397235755
31
1.88970931236376e-008
  0
LINE
 8
GROUP0
10
-3479.85655036764
20
-990.487019301858
30
1.82561161521377e-008
11
-3480.09492830154
21
-990.176359130078
31
1.75332424190433e-008
  0
LINE
 8
GROUP0
10
-3480.09492830154
20
-990.176359130078
30
1.75332424190433e-008
11
-3480.2447789353
21
-989.814587697731
31
1.67777402637626e-008
  0
LINE
 8
GROUP0
10
-3480.2447789353
20
-989.814587697731
30
1.67777402637626e-008
11
-3480.29589019586
21
-989.426359130077
31
1.60410909944009e-008
  0
LINE
 8
GROUP0
10
-3480.29589019586
20
-989.426359130077
30
1.60410909944009e-008
11
-3480.2447789353
21
-989.038130562424
31
1.53735005892219e-008
  0
LINE
 8
GROUP0
10
-3480.2447789353
20
-989.038130562424
30
1.53735005892219e-008
11
-3480.09492830154
21
-988.676359130079
31
1.48204593375389e-008
  0
LINE
 8
GROUP0
10
-3480.09492830154
20
-988.676359130079
30
1.48204593375389e-008
11
-3479.85655036764
21
-988.365698958299
31
1.44196610263325e-008
  0
LINE
 8
GROUP0
10
-3479.85655036764
20
-988.365698958299
30
1.44196610263325e-008
11
-3479.54589019586
21
-988.127321024403
31
1.41984149160113e-008
  0
LINE
 8
GROUP0
10
-3479.54589019586
20
-988.127321024403
30
1.41984149160113e-008
11
-3479.18411876352
21
-987.977470390644
31
1.41718014823322e-008
  0
LINE
 8
GROUP0
10
-3479.18411876352
20
-987.977470390644
30
1.41718014823322e-008
11
-3478.79589019586
21
-987.926359130077
31
1.43416353737269e-008
  0
LINE
 8
GROUP0
10
-3478.79589019586
20
-987.926359130077
30
1.43416353737269e-008
11
-3478.40766162821
21
-987.977470390644
31
1.4696337807818e-008
  0
LINE
 8
GROUP0
10
-3478.40766162821
20
-987.977470390644
30
1.4696337807818e-008
11
-3478.04589019586
21
-988.127321024402
31
1.52117409668584e-008
  0
LINE
 8
GROUP0
10
-3478.04589019586
20
-988.127321024402
30
1.52117409668584e-008
11
-3477.73523002408
21
-988.365698958299
31
1.58527207583248e-008
  0
LINE
 8
GROUP0
10
-3477.73523002408
20
-988.365698958299
30
1.58527207583248e-008
11
-3477.49685209019
21
-988.676359130078
31
1.65755916714527e-008
  0
LINE
 8
GROUP0
10
-3477.49685209019
20
-988.676359130078
30
1.65755916714527e-008
11
-3477.34700145643
21
-989.038130562424
31
1.73310966467e-008
  0
LINE
 8
GROUP0
10
-3477.34700145643
20
-989.038130562424
30
1.73310966467e-008
11
-3477.29589019586
21
-989.426359130078
31
1.80677430960952e-008
  0
LINE
 8
GROUP0
10
-3477.29589019586
20
-989.426359130078
30
1.80677430960952e-008
11
-3477.34700145643
21
-989.814587697731
31
1.87353363212406e-008
  0
LINE
 8
GROUP0
10
-3477.34700145643
20
-989.814587697731
30
1.87353363212406e-008
11
-3477.49685209019
21
-990.176359130077
31
1.92883747529571e-008
  0
LINE
 8
GROUP0
10
-3477.49685209019
20
-990.176359130077
30
1.92883747529571e-008
11
-3477.73523002408
21
-990.487019301858
31
1.968917588413e-008
  0
LINE
 8
GROUP0
10
-3477.73523002408
20
-990.487019301858
30
1.968917588413e-008
11
-3478.04589019586
21
-990.725397235755
31
1.99104191744848e-008
  0
LINE
 8
GROUP0
10
-3478.04589019586
20
-990.725397235755
30
1.99104191744848e-008
11
-3478.40766162821
21
-990.875247869511
31
1.99370326081638e-008
  0
LINE
 8
GROUP0
10
-3478.40766162821
20
-990.875247869511
30
1.99370326081638e-008
11
-3478.79589019586
21
-990.926359130077
31
1.97672001267524e-008
  0
LINE
 8
GROUP0
10
-3478.79589019586
20
-990.926359130077
30
1.97672001267524e-008
11
-3479.18411876352
21
-990.87524786951
31
1.9412496282678e-008
  0
LINE
 8
GROUP0
10
-3559.54589019586
20
-990.725397235752
30
1.89007026807353e-008
11
-3559.85655036764
21
-990.487019301855
31
1.82597257092354e-008
  0
LINE
 8
GROUP0
10
-3559.85655036764
20
-990.487019301855
30
1.82597257092354e-008
11
-3560.09492830154
21
-990.176359130074
31
1.7536851976141e-008
  0
LINE
 8
GROUP0
10
-3560.09492830154
20
-990.176359130074
30
1.7536851976141e-008
11
-3560.2447789353
21
-989.814587697728
31
1.67813498208602e-008
  0
LINE
 8
GROUP0
10
-3560.2447789353
20
-989.814587697728
30
1.67813498208602e-008
11
-3560.29589019586
21
-989.426359130074
31
1.60447005514985e-008
  0
LINE
 8
GROUP0
10
-3560.29589019586
20
-989.426359130074
30
1.60447005514985e-008
11
-3560.2447789353
21
-989.03813056242
31
1.53771101463196e-008
  0
LINE
 8
GROUP0
10
-3560.2447789353
20
-989.03813056242
30
1.53771101463196e-008
11
-3560.09492830154
21
-988.676359130075
31
1.48240688946366e-008
  0
LINE
 8
GROUP0
10
-3560.09492830154
20
-988.676359130075
30
1.48240688946366e-008
11
-3559.85655036764
21
-988.365698958296
31
1.44232705834302e-008
  0
LINE
 8
GROUP0
10
-3559.85655036764
20
-988.365698958296
30
1.44232705834302e-008
11
-3559.54589019586
21
-988.1273210244
31
1.42020244731089e-008
  0
LINE
 8
GROUP0
10
-3559.54589019586
20
-988.1273210244
30
1.42020244731089e-008
11
-3559.18411876352
21
-987.977470390641
31
1.41754110394299e-008
  0
LINE
 8
GROUP0
10
-3559.18411876352
20
-987.977470390641
30
1.41754110394299e-008
11
-3558.79589019586
21
-987.926359130075
31
1.43452449308246e-008
  0
LINE
 8
GROUP0
10
-3558.79589019586
20
-987.926359130075
30
1.43452449308246e-008
11
-3558.40766162821
21
-987.977470390641
31
1.46999473649156e-008
  0
LINE
 8
GROUP0
10
-3558.40766162821
20
-987.977470390641
30
1.46999473649156e-008
11
-3558.04589019586
21
-988.1273210244
31
1.52153505239561e-008
  0
LINE
 8
GROUP0
10
-3558.04589019586
20
-988.1273210244
30
1.52153505239561e-008
11
-3557.73523002408
21
-988.365698958296
31
1.58563303154224e-008
  0
LINE
 8
GROUP0
10
-3557.73523002408
20
-988.365698958296
30
1.58563303154224e-008
11
-3557.49685209019
21
-988.676359130075
31
1.65792012285504e-008
  0
LINE
 8
GROUP0
10
-3557.49685209019
20
-988.676359130075
30
1.65792012285504e-008
11
-3557.34700145643
21
-989.038130562421
31
1.73347062037976e-008
  0
LINE
 8
GROUP0
10
-3557.34700145643
20
-989.038130562421
30
1.73347062037976e-008
11
-3557.29589019586
21
-989.426359130075
31
1.80713526531928e-008
  0
LINE
 8
GROUP0
10
-3557.29589019586
20
-989.426359130075
30
1.80713526531928e-008
11
-3557.34700145643
21
-989.814587697728
31
1.87389458783382e-008
  0
LINE
 8
GROUP0
10
-3557.34700145643
20
-989.814587697728
30
1.87389458783382e-008
11
-3557.49685209019
21
-990.176359130075
31
1.92919843100547e-008
  0
LINE
 8
GROUP0
10
-3557.49685209019
20
-990.176359130075
30
1.92919843100547e-008
11
-3557.73523002408
21
-990.487019301855
31
1.96927854412277e-008
  0
LINE
 8
GROUP0
10
-3557.73523002408
20
-990.487019301855
30
1.96927854412277e-008
11
-3558.04589019586
21
-990.725397235752
31
1.99140287315824e-008
  0
LINE
 8
GROUP0
10
-3558.04589019586
20
-990.725397235752
30
1.99140287315824e-008
11
-3558.40766162821
21
-990.875247869508
31
1.99406421652615e-008
  0
LINE
 8
GROUP0
10
-3558.40766162821
20
-990.875247869508
30
1.99406421652615e-008
11
-3558.79589019586
21
-990.926359130074
31
1.977080968385e-008
  0
LINE
 8
GROUP0
10
-3558.79589019586
20
-990.926359130074
30
1.977080968385e-008
11
-3559.18411876352
21
-990.875247869508
31
1.94161058397757e-008
  0
LINE
 8
GROUP0
10
-3559.18411876352
20
-990.875247869508
30
1.94161058397757e-008
11
-3559.54589019586
21
-990.725397235752
31
1.89007026807353e-008
  0
LINE
 8
GROUP0
10
-3207.99589304486
20
-1006.42636044326
30
7.85078668741335e-012
11
-3207.99589304479
21
-828.426360443254
31
7.85078668741335e-012
  0
LINE
 8
GROUP0
10
-3207.99589304486
20
-1006.42636044326
30
7.85078668741335e-012
11
-3207.96167249036
21
-1006.94846521214
31
7.85078668741335e-012
  0
LINE
 8
GROUP0
10
-3207.96167249036
20
-1006.94846521214
30
7.85078668741335e-012
11
-3207.85959635002
21
-1007.46163662367
31
7.76054775997181e-012
  0
LINE
 8
GROUP0
10
-3207.85959635002
20
-1007.46163662367
30
7.76054775997181e-012
11
-3207.69141117491
21
-1007.95709417272
31
7.76054775997181e-012
  0
LINE
 8
GROUP0
10
-3207.69141117491
20
-1007.95709417272
30
7.76054775997181e-012
11
-3207.45999466
21
-1008.42636044326
31
7.76054775997181e-012
  0
LINE
 8
GROUP0
10
-3207.45999466
20
-1008.42636044326
30
7.76054775997181e-012
11
-3207.16930640603
21
-1008.86140615929
31
7.76054775997181e-012
  0
LINE
 8
GROUP0
10
-3207.16930640603
20
-1008.86140615929
30
7.76054775997181e-012
11
-3206.82432016961
21
-1009.254787568
31
7.76054775997181e-012
  0
LINE
 8
GROUP0
10
-3206.82432016961
20
-1009.254787568
30
7.76054775997181e-012
11
-3206.4309387609
21
-1009.59977380442
31
7.67030883253028e-012
  0
LINE
 8
GROUP0
10
-3206.4309387609
20
-1009.59977380442
30
7.67030883253028e-012
11
-3205.99589304486
21
-1009.8904620584
31
7.67030883253028e-012
  0
LINE
 8
GROUP0
10
-3205.99589304486
20
-1009.8904620584
30
7.67030883253028e-012
11
-3205.52662677432
21
-1010.1218785733
31
7.67030883253028e-012
  0
LINE
 8
GROUP0
10
-3205.52662677432
20
-1010.1218785733
30
7.67030883253028e-012
11
-3205.03116922527
21
-1010.29006374841
31
7.67030883253028e-012
  0
LINE
 8
GROUP0
10
-3205.03116922527
20
-1010.29006374841
30
7.67030883253028e-012
11
-3204.51799781374
21
-1010.39213988875
31
7.67030883253028e-012
  0
LINE
 8
GROUP0
10
-3204.51799781374
20
-1010.39213988875
30
7.67030883253028e-012
11
-3203.99589304486
21
-1010.42636044326
31
7.67030883253028e-012
  0
LINE
 8
GROUP0
10
-3103.99589304486
20
-1010.4263604433
30
9.9262820185686e-013
11
-3203.99589304486
21
-1010.42636044326
31
7.67030883253028e-012
  0
LINE
 8
GROUP0
10
-3103.99589304486
20
-1010.4263604433
30
9.9262820185686e-013
11
-3103.47378827598
21
-1010.3921398888
31
9.9262820185686e-013
  0
LINE
 8
GROUP0
10
-3103.47378827598
20
-1010.3921398888
30
9.9262820185686e-013
11
-3102.96061686445
21
-1010.29006374846
31
9.02389274415327e-013
  0
LINE
 8
GROUP0
10
-3102.96061686445
20
-1010.29006374846
30
9.02389274415327e-013
11
-3102.4651593154
21
-1010.12187857335
31
9.02389274415327e-013
  0
LINE
 8
GROUP0
10
-3102.4651593154
20
-1010.12187857335
30
9.02389274415327e-013
11
-3101.99589304486
21
-1009.89046205844
31
9.02389274415327e-013
  0
LINE
 8
GROUP0
10
-3101.99589304486
20
-1009.89046205844
30
9.02389274415327e-013
11
-3101.56084732883
21
-1009.59977380447
31
9.02389274415327e-013
  0
LINE
 8
GROUP0
10
-3101.56084732883
20
-1009.59977380447
30
9.02389274415327e-013
11
-3101.16746592012
21
-1009.25478756805
31
9.02389274415327e-013
  0
LINE
 8
GROUP0
10
-3101.16746592012
20
-1009.25478756805
30
9.02389274415327e-013
11
-3100.8224796837
21
-1008.86140615934
31
8.12150346973794e-013
  0
LINE
 8
GROUP0
10
-3100.8224796837
20
-1008.86140615934
30
8.12150346973794e-013
11
-3100.53179142972
21
-1008.4263604433
31
8.12150346973794e-013
  0
LINE
 8
GROUP0
10
-3100.53179142972
20
-1008.4263604433
30
8.12150346973794e-013
11
-3100.30037491482
21
-1007.95709417276
31
8.12150346973794e-013
  0
LINE
 8
GROUP0
10
-3100.30037491482
20
-1007.95709417276
30
8.12150346973794e-013
11
-3100.1321897397
21
-1007.46163662371
31
8.12150346973794e-013
  0
LINE
 8
GROUP0
10
-3100.1321897397
20
-1007.46163662371
30
8.12150346973794e-013
11
-3100.03011359937
21
-1006.94846521218
31
8.12150346973794e-013
  0
LINE
 8
GROUP0
10
-3100.03011359937
20
-1006.94846521218
30
8.12150346973794e-013
11
-3099.99589304486
21
-1006.4263604433
31
8.12150346973794e-013
  0
LINE
 8
GROUP0
10
-3099.99589304479
20
-828.426360443301
30
8.12150346973794e-013
11
-3099.99589304486
21
-1006.4263604433
31
8.12150346973794e-013
  0
LINE
 8
GROUP0
10
-3099.99589304479
20
-828.426360443301
30
8.12150346973794e-013
11
-3100.03011359929
21
-827.90425567442
31
8.12150346973794e-013
  0
LINE
 8
GROUP0
10
-3100.03011359929
20
-827.90425567442
30
8.12150346973794e-013
11
-3100.13218973963
21
-827.39108426289
31
9.02389274415327e-013
  0
LINE
 8
GROUP0
10
-3100.13218973963
20
-827.39108426289
30
9.02389274415327e-013
11
-3100.30037491474
21
-826.89562671384
31
9.02389274415327e-013
  0
LINE
 8
GROUP0
10
-3100.30037491474
20
-826.89562671384
30
9.02389274415327e-013
11
-3100.53179142965
21
-826.4263604433
31
9.02389274415327e-013
  0
LINE
 8
GROUP0
10
-3100.53179142965
20
-826.4263604433
30
9.02389274415327e-013
11
-3100.82247968362
21
-825.991314727265
31
9.02389274415327e-013
  0
LINE
 8
GROUP0
10
-3100.82247968362
20
-825.991314727265
30
9.02389274415327e-013
11
-3101.16746592004
21
-825.597933318554
31
9.02389274415327e-013
  0
LINE
 8
GROUP0
10
-3101.16746592004
20
-825.597933318554
30
9.02389274415327e-013
11
-3101.56084732875
21
-825.252947082135
31
9.9262820185686e-013
  0
LINE
 8
GROUP0
10
-3101.56084732875
20
-825.252947082135
30
9.9262820185686e-013
11
-3101.99589304478
21
-824.962258828162
31
9.9262820185686e-013
  0
LINE
 8
GROUP0
10
-3101.99589304478
20
-824.962258828162
30
9.9262820185686e-013
11
-3102.46515931532
21
-824.730842313254
31
9.9262820185686e-013
  0
LINE
 8
GROUP0
10
-3102.46515931532
20
-824.730842313254
30
9.9262820185686e-013
11
-3102.96061686437
21
-824.562657138143
31
9.9262820185686e-013
  0
LINE
 8
GROUP0
10
-3102.96061686437
20
-824.562657138143
30
9.9262820185686e-013
11
-3103.4737882759
21
-824.460580997804
31
9.9262820185686e-013
  0
LINE
 8
GROUP0
10
-3103.4737882759
20
-824.460580997804
30
9.9262820185686e-013
11
-3103.99589304478
21
-824.426360443299
31
9.9262820185686e-013
  0
LINE
 8
GROUP0
10
-3203.99589304478
20
-824.426360443255
30
7.67030883253028e-012
11
-3103.99589304478
21
-824.426360443299
31
9.9262820185686e-013
  0
LINE
 8
GROUP0
10
-3204.51799781366
20
-824.46058099776
30
7.67030883253028e-012
11
-3203.99589304478
21
-824.426360443255
31
7.67030883253028e-012
  0
LINE
 8
GROUP0
10
-3205.03116922519
20
-824.562657138099
30
7.67030883253028e-012
11
-3204.51799781366
21
-824.46058099776
31
7.67030883253028e-012
  0
LINE
 8
GROUP0
10
-3205.52662677424
20
-824.73084231321
30
7.67030883253028e-012
11
-3205.03116922519
21
-824.562657138099
31
7.67030883253028e-012
  0
LINE
 8
GROUP0
10
-3205.99589304478
20
-824.962258828117
30
7.67030883253028e-012
11
-3205.52662677424
21
-824.73084231321
31
7.67030883253028e-012
  0
LINE
 8
GROUP0
10
-3206.43093876082
20
-825.252947082089
30
7.67030883253028e-012
11
-3205.99589304478
21
-824.962258828117
31
7.67030883253028e-012
  0
LINE
 8
GROUP0
10
-3206.82432016953
20
-825.597933318508
30
7.76054775997181e-012
11
-3206.43093876082
21
-825.252947082089
31
7.67030883253028e-012
  0
LINE
 8
GROUP0
10
-3207.16930640595
20
-825.991314727219
30
7.76054775997181e-012
11
-3206.82432016953
21
-825.597933318508
31
7.76054775997181e-012
  0
LINE
 8
GROUP0
10
-3207.45999465992
20
-826.426360443254
30
7.76054775997181e-012
11
-3207.16930640595
21
-825.991314727219
31
7.76054775997181e-012
  0
LINE
 8
GROUP0
10
-3207.69141117483
20
-826.895626713793
30
7.76054775997181e-012
11
-3207.45999465992
21
-826.426360443254
31
7.76054775997181e-012
  0
LINE
 8
GROUP0
10
-3207.85959634994
20
-827.391084262844
30
7.76054775997181e-012
11
-3207.69141117483
21
-826.895626713793
31
7.76054775997181e-012
  0
LINE
 8
GROUP0
10
-3207.96167249028
20
-827.904255674374
30
7.85078668741335e-012
11
-3207.85959634994
21
-827.391084262844
31
7.76054775997181e-012
  0
LINE
 8
GROUP0
10
-3207.99589304479
20
-828.426360443254
30
7.85078668741335e-012
11
-3207.96167249028
21
-827.904255674374
31
7.85078668741335e-012
  0
LINE
 8
GROUP0
10
-3199.99589304484
20
-945.026360443259
30
7.85078668741335e-012
11
-3203.99589304484
21
-945.026360443257
31
7.85078668741335e-012
  0
LINE
 8
GROUP0
10
-3203.99589304481
20
-889.826360443257
30
7.85078668741335e-012
11
-3203.99589304484
21
-945.026360443257
31
7.85078668741335e-012
  0
LINE
 8
GROUP0
10
-3199.99589304481
20
-889.826360443259
30
7.85078668741335e-012
11
-3203.99589304481
21
-889.826360443257
31
7.85078668741335e-012
  0
LINE
 8
GROUP0
10
-3199.99589304484
20
-945.026360443259
30
7.85078668741335e-012
11
-3199.99589304481
21
-889.826360443259
31
7.85078668741335e-012
  0
LINE
 8
GROUP0
10
-3103.99589304481
20
-889.826360443268
30
0.0
11
-3103.99589304484
21
-945.026360443267
31
4.06075173486897e-012
  0
LINE
 8
GROUP0
10
-3107.99589304483
20
-945.026360443267
30
1.35358391162299e-012
11
-3103.99589304484
21
-945.026360443267
31
4.06075173486897e-012
  0
LINE
 8
GROUP0
10
-3107.99589304481
20
-889.826360443266
30
0.0
11
-3107.99589304483
21
-945.026360443267
31
1.35358391162299e-012
  0
LINE
 8
GROUP0
10
-3107.99589304481
20
-889.826360443266
30
0.0
11
-3103.99589304481
21
-889.826360443268
31
0.0
  0
LINE
 8
GROUP0
10
-3181.59589304479
20
-828.426360443266
30
9.80897141289461e-011
11
-3126.39589304479
21
-828.426360443281
31
9.80897141289461e-011
  0
LINE
 8
GROUP0
10
-3126.39589304479
20
-832.426360443289
30
9.81799530563876e-011
11
-3126.39589304479
21
-828.426360443281
31
9.80897141289461e-011
  0
LINE
 8
GROUP0
10
-3181.59589304479
20
-832.426360443266
30
9.81799530563876e-011
11
-3126.39589304479
21
-832.426360443289
31
9.81799530563876e-011
  0
LINE
 8
GROUP0
10
-3181.59589304479
20
-832.426360443266
30
9.81799530563876e-011
11
-3181.59589304479
21
-828.426360443266
31
9.80897141289461e-011
  0
LINE
 8
GROUP0
10
-3126.39589304486
20
-1006.42636044329
30
9.80897141289461e-011
11
-3181.59589304486
21
-1006.42636044326
31
9.80897141289461e-011
  0
LINE
 8
GROUP0
10
-3181.59589304486
20
-1002.42636044327
30
9.81799530563876e-011
11
-3181.59589304486
21
-1006.42636044326
31
9.80897141289461e-011
  0
LINE
 8
GROUP0
10
-3126.39589304486
20
-1002.42636044329
30
9.81799530563876e-011
11
-3181.59589304486
21
-1002.42636044327
31
9.81799530563876e-011
  0
LINE
 8
GROUP0
10
-3126.39589304486
20
-1002.42636044329
30
9.81799530563876e-011
11
-3126.39589304486
21
-1006.42636044329
31
9.80897141289461e-011
  0
LINE
 8
GROUP1
10
-3364.66287822334
20
-1000.07624150073
30
4.29501207510619e-007
11
-3364.61292801606
21
-1000.19683197982
31
4.33200129346112e-007
  0
LINE
 8
GROUP1
10
-3335.62540923599
20
-995.409321528361
30
1.84087688055445e-006
11
-3335.74599971179
21
-995.359371313116
31
1.8371698950248e-006
  0
LINE
 8
GROUP1
10
-3365.09589091702
20
-999.8262414865
30
4.21883567192083e-007
11
-3364.96648139503
21
-999.843278577608
31
4.22389556598013e-007
  0
LINE
 8
GROUP1
10
-3364.74233753124
20
-999.972688107526
30
4.263338817867e-007
11
-3364.66287822334
21
-1000.07624150073
31
4.29501207510619e-007
  0
LINE
 8
GROUP1
10
-3324.59589044047
20
-1011.22634957158
30
1.96700086071977e-006
11
-3324.59589054719
21
-995.426358978771
31
2.17943212734717e-006
  0
LINE
 8
GROUP1
10
-3364.59589093345
20
-1000.32624150293
30
4.37169810968419e-007
11
-3364.59589125909
21
-1011.22634990578
31
7.53187843333114e-007
  0
LINE
 8
GROUP1
10
-3335.49599971401
20
-995.426358619494
30
1.84485104521848e-006
11
-3324.59589054719
21
-995.426358978771
31
2.17943212734717e-006
  0
LINE
 8
GROUP1
10
-3364.84589091922
20
-999.893228792824
30
4.23907954860692e-007
11
-3364.74233753124
21
-999.972688107526
31
4.263338817867e-007
  0
LINE
 8
GROUP1
10
-3364.59589125909
20
-1011.22634990578
30
7.53187843333114e-007
11
-3324.59589044047
21
-1011.22634957158
31
1.96700086071977e-006
  0
LINE
 8
GROUP1
10
-3364.61292801606
20
-1000.19683197982
30
4.33200129346112e-007
11
-3364.59589093345
21
-1000.32624150293
31
4.37169810968419e-007
  0
LINE
 8
GROUP1
10
-3364.96648139503
20
-999.843278577608
30
4.22389556598013e-007
11
-3364.84589091922
21
-999.893228792824
31
4.23907954860692e-007
  0
LINE
 8
GROUP1
10
-3335.49599971401
20
-995.426358619494
30
1.84485104521848e-006
11
-3335.62540923599
21
-995.409321528361
31
1.84087688055445e-006
  0
LINE
 8
GROUP1
10
-3335.74599971179
20
-995.359371313116
30
1.8371698950248e-006
11
-3335.84955309976
21
-995.279911998395
31
1.83398181011762e-006
  0
LINE
 8
GROUP1
10
-3318.3665853304
20
-994.927219152643
30
2.49159038839819e-006
11
-3318.39589166767
21
-990.426359542645
31
2.80118605566759e-006
  0
LINE
 8
GROUP1
10
-3335.84955309976
20
-995.279911998395
30
1.83398181011762e-006
11
-3335.92901240763
21
-995.176358605172
31
1.83152820663057e-006
  0
LINE
 8
GROUP1
10
-3320.39589179952
20
-994.426359476719
30
2.47472003197524e-006
11
-3320.39589183259
21
-995.426359476718
31
2.42276631321481e-006
  0
LINE
 8
GROUP1
10
-3335.92901240763
20
-995.176358605172
30
1.83152820663057e-006
11
-3335.97896261489
21
-995.055768126071
31
1.82997692614872e-006
  0
LINE
 8
GROUP1
10
-3335.97896260633
20
-994.796949080969
30
1.82994127472247e-006
11
-3335.92901239109
21
-994.676358605173
31
1.83145825313202e-006
  0
LINE
 8
GROUP1
10
-3335.75481850348
20
-990.392284846592
30
2.20380449629798e-006
11
-3335.4959994595
21
-990.426359028833
31
2.20952997083135e-006
  0
LINE
 8
GROUP1
10
-3335.99599969747
20
-994.926358602954
30
1.82943524090207e-006
11
-3335.97896260633
21
-994.796949080969
31
1.82994127472247e-006
  0
LINE
 8
GROUP1
10
-3320.39589183259
20
-995.426359476718
30
2.42276631321481e-006
11
-3318.3665853304
21
-994.927219152643
31
2.49159038839819e-006
  0
LINE
 8
GROUP1
10
-3318.39589166767
20
-990.426359542645
30
2.80118605566759e-006
11
-3335.4959994595
21
-990.426359028833
31
2.20952997083135e-006
  0
LINE
 8
GROUP1
10
-3335.99599945509
20
-990.292384416136
30
2.20290446733551e-006
11
-3335.75481850348
21
-990.392284846592
31
2.20380449629798e-006
  0
LINE
 8
GROUP1
10
-3335.92901239109
20
-994.676358605173
30
1.83145825313202e-006
11
-3335.84955307637
21
-994.572805217209
31
1.833882920943e-006
  0
LINE
 8
GROUP1
10
-3335.84955307637
20
-994.572805217209
30
1.833882920943e-006
11
-3335.74599968315
21
-994.493345909332
31
1.837052258713e-006
  0
LINE
 8
GROUP1
10
-3335.62540920405
20
-994.443395702072
30
1.8407477979987e-006
11
-3335.49599968093
21
-994.426358619495
31
1.84471610277237e-006
  0
LINE
 8
GROUP1
10
-3335.49599968093
20
-994.426358619495
30
1.84471610277237e-006
11
-3320.39589179952
21
-994.426359476719
31
2.47472003197524e-006
  0
LINE
 8
GROUP1
10
-3335.97896261489
20
-995.055768126071
30
1.82997692614872e-006
11
-3335.99599969747
21
-994.926358602954
31
1.82943524090207e-006
  0
LINE
 8
GROUP1
10
-3335.74599968315
20
-994.493345909332
30
1.837052258713e-006
11
-3335.62540920405
21
-994.443395702072
31
1.8407477979987e-006
  0
LINE
 8
GROUP1
10
-3336.20310623104
20
-990.133465786711
30
2.20689738266167e-006
11
-3335.99599945509
21
-990.292384416136
31
2.20290446733551e-006
  0
LINE
 8
GROUP1
10
-3336.4619252443
20
-989.167539951892
30
2.26184689351983e-006
11
-3336.49599942654
21
-989.426358995874
31
2.24394866354394e-006
  0
LINE
 8
GROUP1
10
-3336.49599942654
20
-989.426358995874
30
2.24394866354394e-006
11
-3336.46192526136
21
-989.685178042098
31
2.22813955568224e-006
  0
LINE
 8
GROUP1
10
-3336.36202481385
20
-988.926359000288
30
2.28061531650781e-006
11
-3336.4619252443
21
-989.167539951892
31
2.26184689351983e-006
  0
LINE
 8
GROUP1
10
-3336.36202484681
20
-989.926359000287
30
2.21550354460587e-006
11
-3336.20310623104
21
-990.133465786711
31
2.20689738266167e-006
  0
LINE
 8
GROUP1
10
-3336.46192526136
20
-989.685178042098
30
2.22813955568224e-006
11
-3336.36202484681
21
-989.926359000287
31
2.21550354460587e-006
  0
LINE
 8
GROUP1
10
-3335.62540882742
20
-984.409322238517
30
2.24671744763483e-006
11
-3335.74599930323
21
-984.359372023297
31
2.24300874756556e-006
  0
LINE
 8
GROUP1
10
-3335.49599939358
20
-988.426359028834
30
2.3397562676275e-006
11
-3335.75481843981
21
-988.460433194013
31
2.32959332908678e-006
  0
LINE
 8
GROUP1
10
-3336.20310618442
20
-988.71925222434
30
2.29897793080913e-006
11
-3336.36202481385
21
-988.926359000288
31
2.28061531650781e-006
  0
LINE
 8
GROUP1
10
-3335.49599939358
20
-988.426359028834
30
2.3397562676275e-006
11
-3318.39589173826
21
-988.426359635328
31
2.93141325485302e-006
  0
LINE
 8
GROUP1
10
-3318.39589157354
20
-983.926359635328
30
3.2411376493624e-006
11
-3320.39589157354
21
-983.426359569404
31
3.17781367205616e-006
  0
LINE
 8
GROUP1
10
-3320.39589157354
20
-983.426359569404
30
3.17781367205616e-006
11
-3320.39589160641
21
-984.426359569403
31
3.1258481771157e-006
  0
LINE
 8
GROUP1
10
-3320.39589160641
20
-984.426359569403
30
3.1258481771157e-006
11
-3335.49599930543
21
-984.426359329623
31
2.2506919281351e-006
  0
LINE
 8
GROUP1
10
-3318.39589173826
20
-988.426359635328
30
2.93141325485302e-006
11
-3318.39589157354
21
-983.926359635328
31
3.2411376493624e-006
  0
LINE
 8
GROUP1
10
-3335.49599930543
20
-984.426359329623
30
2.2506919281351e-006
11
-3335.62540882742
21
-984.409322238517
31
2.24671744763483e-006
  0
LINE
 8
GROUP1
10
-3335.75481843981
20
-988.460433194013
30
2.32959332908678e-006
11
-3335.995999398
21
-988.560333608568
31
2.31568573590413e-006
  0
LINE
 8
GROUP1
10
-3335.995999398
20
-988.560333608568
30
2.31568573590413e-006
11
-3336.20310618442
21
-988.71925222434
31
2.29897793080913e-006
  0
LINE
 8
GROUP1
10
-3335.74599930323
20
-984.359372023297
30
2.24300874756556e-006
11
-3335.84955269121
21
-984.279912708598
31
2.23982391125976e-006
  0
LINE
 8
GROUP1
10
-3335.84955269121
20
-984.279912708598
30
2.23982391125976e-006
11
-3335.92901199911
21
-984.176359315392
31
2.23737174948058e-006
  0
LINE
 8
GROUP1
10
-3335.97896219789
20
-983.796949791199
30
2.23578720890405e-006
11
-3335.92901198267
21
-983.676359315392
31
2.23730558813195e-006
  0
LINE
 8
GROUP1
10
-3335.99599928899
20
-983.92635931319
30
2.23528126743755e-006
11
-3335.97896219789
21
-983.796949791199
31
2.23578720890405e-006
  0
LINE
 8
GROUP1
10
-3335.74599927476
20
-983.493346619516
30
2.24289887180151e-006
11
-3335.62540879567
21
-983.443396412229
31
2.24659797552484e-006
  0
LINE
 8
GROUP1
10
-3335.84955266797
20
-983.572805927413
30
2.23973160952684e-006
11
-3335.74599927476
21
-983.493346619516
31
2.24289887180151e-006
  0
LINE
 8
GROUP1
10
-3335.92901198267
20
-983.676359315392
30
2.23730558813195e-006
11
-3335.84955266797
21
-983.572805927413
31
2.23973160952684e-006
  0
LINE
 8
GROUP1
10
-3335.62540879567
20
-983.443396412229
30
2.24659797552484e-006
11
-3335.49599927256
21
-983.426359329625
31
2.25056758876296e-006
  0
LINE
 8
GROUP1
10
-3335.49599927256
20
-983.426359329625
30
2.25056758876296e-006
11
-3324.59589050173
21
-983.426359688903
31
2.5851474977856e-006
  0
LINE
 8
GROUP1
10
-3335.92901199911
20
-984.176359315392
30
2.23737174948058e-006
11
-3335.97896220639
21
-984.055768836301
31
2.23582254660903e-006
  0
LINE
 8
GROUP1
10
-3335.97896220639
20
-984.055768836301
30
2.23582254660903e-006
11
-3335.99599928899
21
-983.92635931319
31
2.23528126743755e-006
  0
LINE
 8
GROUP1
10
-3335.74599968019
20
-854.49334592299
30
1.86099691559249e-006
11
-3335.62540920109
21
-854.44339571573
31
1.86469245487819e-006
  0
LINE
 8
GROUP1
10
-3335.62540920109
20
-854.44339571573
30
1.86469245487819e-006
11
-3335.49599967798
21
-854.426358633153
31
1.86866075965186e-006
  0
LINE
 8
GROUP1
10
-3335.49599971105
20
-855.426358633152
30
1.86879570209797e-006
11
-3324.59589054467
21
-855.426358966061
31
2.17882087705235e-006
  0
LINE
 8
GROUP1
10
-3335.62540923304
20
-855.409321542018
30
1.86482153743395e-006
11
-3335.74599970884
21
-855.359371326774
31
1.8611145519043e-006
  0
LINE
 8
GROUP1
10
-3335.74599970884
20
-855.359371326774
30
1.8611145519043e-006
11
-3335.8495530968
21
-855.279912012053
31
1.85792646699712e-006
  0
LINE
 8
GROUP1
10
-3335.8495530968
20
-855.279912012053
30
1.85792646699712e-006
11
-3335.92901240468
21
-855.176358618829
31
1.85547286139509e-006
  0
LINE
 8
GROUP1
10
-3324.59589050173
20
-983.426359688903
30
2.5851474977856e-006
11
-3324.59589054467
21
-855.426358966061
31
2.17882087705235e-006
  0
LINE
 8
GROUP1
10
-3335.92901238814
20
-854.676358618831
30
1.85540291001152e-006
11
-3335.84955307341
21
-854.572805230867
31
1.85782757570752e-006
  0
LINE
 8
GROUP1
10
-3335.99599969452
20
-854.926358616612
30
1.85337989778156e-006
11
-3335.97896260338
21
-854.796949094627
31
1.85388593089697e-006
  0
LINE
 8
GROUP1
10
-3335.49599971105
20
-855.426358633152
30
1.86879570209797e-006
11
-3335.62540923304
21
-855.409321542018
31
1.86482153743395e-006
  0
LINE
 8
GROUP1
10
-3335.97896260338
20
-854.796949094627
30
1.85388593089697e-006
11
-3335.92901238814
21
-854.676358618831
31
1.85540291001152e-006
  0
LINE
 8
GROUP1
10
-3335.84955307341
20
-854.572805230867
30
1.85782757570752e-006
11
-3335.74599968019
21
-854.49334592299
31
1.86099691559249e-006
  0
LINE
 8
GROUP1
10
-3335.97896261194
20
-855.055768139729
30
1.85392158302822e-006
11
-3335.99599969452
21
-854.926358616612
31
1.85337989778156e-006
  0
LINE
 8
GROUP1
10
-3335.92901240468
20
-855.176358618829
30
1.85547286139509e-006
11
-3335.97896261194
21
-855.055768139729
31
1.85392158302822e-006
  0
LINE
 8
GROUP1
10
-3420.79589042224
20
-854.426358295442
30
3.12586706031626e-006
11
-3405.6957828407
21
-854.426359093308
31
2.14837905546661e-006
  0
LINE
 8
GROUP1
10
-3405.6957828407
20
-854.426359093308
30
2.14837905546661e-006
11
-3405.56637331871
21
-854.443396184414
31
2.14440450164721e-006
  0
LINE
 8
GROUP1
10
-3405.69578263507
20
-850.426358836008
30
2.27386697033705e-006
11
-3422.79589029039
21
-850.426358229517
31
2.93143318426115e-006
  0
LINE
 8
GROUP1
10
-3405.69578263507
20
-850.426358836008
30
2.27386697033705e-006
11
-3405.43696358884
21
-850.392284670829
31
2.26370399654674e-006
  0
LINE
 8
GROUP1
10
-3422.79589029039
20
-850.426358229517
30
2.93143318426115e-006
11
-3422.79589043862
21
-854.926358229518
31
3.24653676564979e-006
  0
LINE
 8
GROUP1
10
-3422.79589043862
20
-854.926358229518
30
3.24653676564979e-006
11
-3420.79589045511
21
-855.426358295442
31
3.17783226480017e-006
  0
LINE
 8
GROUP1
10
-3420.79589045511
20
-855.426358295442
30
3.17783226480017e-006
11
-3420.79589042224
21
-854.426358295442
31
3.12586706031626e-006
  0
LINE
 8
GROUP1
10
-3405.4457828429
20
-854.493346399634
30
2.14069587771704e-006
11
-3405.34222945492
21
-854.572805714333
31
2.13751101673654e-006
  0
LINE
 8
GROUP1
10
-3405.26277014702
20
-854.676359107539
30
2.1350588507274e-006
11
-3405.21281993973
21
-854.79694958663
31
2.13350961119629e-006
  0
LINE
 8
GROUP1
10
-3405.19578285713
20
-854.926359109741
30
2.13296822698106e-006
11
-3405.21281994824
21
-855.055768631732
31
2.13347420017218e-006
  0
LINE
 8
GROUP1
10
-3405.56637331871
20
-854.443396184414
30
2.14440450164721e-006
11
-3405.4457828429
21
-854.493346399634
31
2.14069587771704e-006
  0
LINE
 8
GROUP1
10
-3405.21281993973
20
-854.79694958663
30
2.13350961119629e-006
11
-3405.19578285713
21
-854.926359109741
31
2.13296822698106e-006
  0
LINE
 8
GROUP1
10
-3405.34222945492
20
-854.572805714333
30
2.13751101673654e-006
11
-3405.26277014702
21
-854.676359107539
31
2.1350588507274e-006
  0
LINE
 8
GROUP1
10
-3405.21281994824
20
-855.055768631732
30
2.13347420017218e-006
11
-3405.26277016346
21
-855.17635910754
31
2.13499254133054e-006
  0
LINE
 8
GROUP1
10
-3405.26277016346
20
-855.17635910754
30
2.13499254133054e-006
11
-3405.34222947816
21
-855.279912495518
31
2.13741851126104e-006
  0
LINE
 8
GROUP1
10
-3405.44578287136
20
-855.359371803416
30
2.14058575097598e-006
11
-3405.56637335045
21
-855.409322010702
31
2.14428475036055e-006
  0
LINE
 8
GROUP1
10
-3416.59589044768
20
-886.426359130235
30
1.96105469278951e-006
11
-3416.59589044769
21
-917.426359130235
31
1.96105019917292e-006
  0
LINE
 8
GROUP1
10
-3405.69578287357
20
-855.426359093306
30
2.14825442563793e-006
11
-3416.59589044766
21
-855.426359130235
31
1.96105918499612e-006
  0
LINE
 8
GROUP1
10
-3416.59589044771
20
-948.426359130235
30
1.96104570908129e-006
11
-3416.59589089627
21
-983.426358898784
31
1.58315222454353e-006
  0
LINE
 8
GROUP1
10
-3416.59589044769
20
-917.426359130235
30
1.96105019917292e-006
11
-3416.59589044771
21
-948.426359130235
31
1.96104570908129e-006
  0
LINE
 8
GROUP1
10
-3416.59589044766
20
-855.426359130235
30
1.96105918499612e-006
11
-3416.59589044768
21
-886.426359130235
31
1.96105469278951e-006
  0
LINE
 8
GROUP1
10
-3405.34222947816
20
-855.279912495518
30
2.13741851126104e-006
11
-3405.44578287136
21
-855.359371803416
31
2.14058575097598e-006
  0
LINE
 8
GROUP1
10
-3405.56637335045
20
-855.409322010702
30
2.14428475036055e-006
11
-3405.69578287357
21
-855.426359093306
31
2.14825442563793e-006
  0
LINE
 8
GROUP1
10
-3405.21281941671
20
-983.796949725114
30
1.25825286636516e-006
11
-3405.19578233414
21
-983.926359248231
31
1.25771107748474e-006
  0
LINE
 8
GROUP1
10
-3405.19578233414
20
-983.926359248231
30
1.25771107748474e-006
11
-3405.21281942527
21
-984.055768770216
31
1.25821714091479e-006
  0
LINE
 8
GROUP1
10
-3405.6957823176
20
-983.426359231691
30
1.27312704958915e-006
11
-3405.56637279561
21
-983.443396322824
31
1.269152811606e-006
  0
LINE
 8
GROUP1
10
-3405.56637279561
20
-983.443396322824
30
1.269152811606e-006
11
-3405.44578231981
21
-983.493346538069
31
1.26544590221545e-006
  0
LINE
 8
GROUP1
10
-3405.44578231981
20
-983.493346538069
30
1.26544590221545e-006
11
-3405.34222893185
21
-983.57280585279
31
1.26225779474853e-006
  0
LINE
 8
GROUP1
10
-3405.34222893185
20
-983.57280585279
30
1.26225779474853e-006
11
-3405.26276962398
21
-983.676359246013
31
1.25980418280158e-006
  0
LINE
 8
GROUP1
10
-3405.26276962398
20
-983.676359246013
30
1.25980418280158e-006
11
-3405.21281941671
21
-983.796949725114
31
1.25825286636516e-006
  0
LINE
 8
GROUP1
10
-3405.6957823176
20
-983.426359231691
30
1.27312704958915e-006
11
-3416.59589089627
21
-983.426358898784
31
1.58315222454353e-006
  0
LINE
 8
GROUP1
10
-3404.8297572148
20
-849.926358864554
30
2.21472618700536e-006
11
-3404.72985678435
21
-849.68517791295
31
2.19595785566629e-006
  0
LINE
 8
GROUP1
10
-3404.98867584423
20
-850.133465640501
30
2.2330887406774e-006
11
-3404.8297572148
21
-849.926358864554
31
2.21472618700536e-006
  0
LINE
 8
GROUP1
10
-3405.19578263065
20
-850.292384256274
30
2.24979645482848e-006
11
-3404.98867584423
21
-850.133465640501
31
2.2330887406774e-006
  0
LINE
 8
GROUP1
10
-3405.43696358884
20
-850.392284670829
30
2.26370399654674e-006
11
-3405.19578263065
21
-850.292384256274
31
2.24979645482848e-006
  0
LINE
 8
GROUP1
10
-3405.19578257356
20
-848.560333448706
30
2.13701568821389e-006
11
-3405.43696352517
21
-848.460433018249
31
2.13791572352129e-006
  0
LINE
 8
GROUP1
10
-3420.79589022914
20
-844.426358388125
30
2.47474181269136e-006
11
-3420.79589019606
21
-843.426358388126
31
2.42278838438748e-006
  0
LINE
 8
GROUP1
10
-3420.79589019606
20
-843.426358388126
30
2.42278838438748e-006
11
-3422.79589019606
21
-843.926358322202
31
2.4860903109658e-006
  0
LINE
 8
GROUP1
10
-3422.79589036098
20
-848.4263583222
30
2.80120656457883e-006
11
-3405.69578256915
21
-848.426358836009
31
2.143641253044e-006
  0
LINE
 8
GROUP1
10
-3405.69578235938
20
-844.426359189933
30
1.88319261586467e-006
11
-3420.79589022914
21
-844.426358388125
31
2.47474181269136e-006
  0
LINE
 8
GROUP1
10
-3422.79589019606
20
-843.926358322202
30
2.4860903109658e-006
11
-3422.79589036098
21
-848.4263583222
31
2.80120656457883e-006
  0
LINE
 8
GROUP1
10
-3404.98867579761
20
-848.719252078131
30
2.14100860283506e-006
11
-3405.19578257356
21
-848.560333448706
31
2.13701568821389e-006
  0
LINE
 8
GROUP1
10
-3404.82975718184
20
-848.926358864554
30
2.14961470414998e-006
11
-3404.98867579761
21
-848.719252078131
31
2.14100860283506e-006
  0
LINE
 8
GROUP1
10
-3405.56637283627
20
-844.409322107355
30
1.87922424905174e-006
11
-3405.69578235938
21
-844.426359189933
31
1.88319261586467e-006
  0
LINE
 8
GROUP1
10
-3405.43696352517
20
-848.460433018249
30
2.13791572352129e-006
11
-3405.69578256915
21
-848.426358836009
31
2.143641253044e-006
  0
LINE
 8
GROUP1
10
-3404.72985676729
20
-849.167539822743
30
2.16225066658193e-006
11
-3404.82975718184
21
-848.926358864554
31
2.14961470414998e-006
  0
LINE
 8
GROUP1
10
-3404.69578260211
20
-849.426358868968
30
2.17805963344531e-006
11
-3404.72985676729
21
-849.167539822743
31
2.16225066658193e-006
  0
LINE
 8
GROUP1
10
-3404.72985678435
20
-849.68517791295
30
2.19595785566629e-006
11
-3404.69578260211
21
-849.426358868968
31
2.17805963344531e-006
  0
LINE
 8
GROUP1
10
-3369.62996490705
20
-1000.06742231702
30
3.9579297644865e-007
11
-3369.7298653216
21
-999.826241358833
31
3.81885433320406e-007
  0
LINE
 8
GROUP1
10
-3365.59589127292
20
-1015.42634918691
30
1.19226323466726e-006
11
-3365.59589093345
21
-1000.32624147006
31
4.3729425044936e-007
  0
LINE
 8
GROUP1
10
-3369.59589074187
20
-1000.32624136325
30
4.05955940369074e-007
11
-3369.59589133884
21
-1017.42634905507
31
9.97828602156137e-007
  0
LINE
 8
GROUP1
10
-3364.59589127292
20
-1015.42634921978
30
1.24422867461838e-006
11
-3365.59589127292
21
-1015.42634918691
31
1.19226323466726e-006
  0
LINE
 8
GROUP1
10
-3369.59589133884
20
-1017.42634905507
30
9.97828602156137e-007
11
-3365.09589133884
21
-1017.42634921978
31
1.30814617732011e-006
  0
LINE
 8
GROUP1
10
-3365.09589133884
20
-1017.42634921978
30
1.30814617732011e-006
11
-3364.59589127292
21
-1015.42634921978
31
1.24422867461838e-006
  0
LINE
 8
GROUP1
10
-3369.59589074187
20
-1000.32624136325
30
4.05955940369074e-007
11
-3369.62996490705
21
-1000.06742231702
31
3.9579297644865e-007
  0
LINE
 8
GROUP1
10
-3365.44944431243
20
-999.972688084286
30
4.264262864484e-007
11
-3365.34589091922
21
-999.893228776391
31
4.23974190233434e-007
  0
LINE
 8
GROUP1
10
-3365.57885384234
20
-1000.19683194807
30
4.33319718484704e-007
11
-3365.52890362712
21
-1000.07624147227
31
4.2961109596451e-007
  0
LINE
 8
GROUP1
10
-3365.34589091922
20
-999.893228776391
30
4.23974190233434e-007
11
-3365.22530044013
21
-999.843278569102
31
4.2242493025757e-007
  0
LINE
 8
GROUP1
10
-3365.59589093345
20
-1000.32624147006
30
4.3729425044936e-007
11
-3365.57885384234
21
-1000.19683194807
31
4.33319718484704e-007
  0
LINE
 8
GROUP1
10
-3365.52890362712
20
-1000.07624147227
30
4.2961109596451e-007
11
-3365.44944431243
21
-999.972688084286
31
4.264262864484e-007
  0
LINE
 8
GROUP1
10
-3365.22530044013
20
-999.843278569102
30
4.2242493025757e-007
11
-3365.09589091702
21
-999.8262414865
31
4.21883567192083e-007
  0
LINE
 8
GROUP1
10
-3420.79589019613
20
-983.42635838817
30
1.81893909723674e-006
11
-3422.79589019613
21
-983.926358322245
31
1.88226431532823e-006
  0
LINE
 8
GROUP1
10
-3405.44578234846
20
-984.359371941853
30
1.26532801492663e-006
11
-3405.56637282756
21
-984.409322149113
31
1.26902344987356e-006
  0
LINE
 8
GROUP1
10
-3405.34222895524
20
-984.279912633976
30
1.26215869971635e-006
11
-3405.44578234846
21
-984.359371941853
31
1.26532801492663e-006
  0
LINE
 8
GROUP1
10
-3405.69578235068
20
-984.42635923169
30
1.2729918166865e-006
11
-3420.79589022921
21
-984.426358388169
31
1.87089252554062e-006
  0
LINE
 8
GROUP1
10
-3405.21281942527
20
-984.055768770216
30
1.25821714091479e-006
11
-3405.26276964051
21
-984.176359246012
31
1.25973408336977e-006
  0
LINE
 8
GROUP1
10
-3405.26276964051
20
-984.176359246012
30
1.25973408336977e-006
11
-3405.34222895524
21
-984.279912633976
31
1.26215869971635e-006
  0
LINE
 8
GROUP1
10
-3420.79589022921
20
-984.426358388169
30
1.87089252554062e-006
11
-3420.79589019613
21
-983.42635838817
31
1.81893909723674e-006
  0
LINE
 8
GROUP1
10
-3422.79589036105
20
-988.426358322243
30
2.19735727742809e-006
11
-3405.69578256922
21
-988.426358836052
31
1.46125161300525e-006
  0
LINE
 8
GROUP1
10
-3422.79589019613
20
-983.926358322245
30
1.88226431532823e-006
11
-3422.79589036105
21
-988.426358322243
31
2.19735727742809e-006
  0
LINE
 8
GROUP1
10
-3405.43696352524
20
-988.460433018292
30
1.45552608348254e-006
11
-3405.69578256922
21
-988.426358836052
31
1.46125161300525e-006
  0
LINE
 8
GROUP1
10
-3405.19578257363
20
-988.560333448749
30
1.45462604817514e-006
11
-3405.43696352524
21
-988.460433018292
31
1.45552608348254e-006
  0
LINE
 8
GROUP1
10
-3405.56637282756
20
-984.409322149113
30
1.26902344987356e-006
11
-3405.69578235068
21
-984.42635923169
31
1.2729918166865e-006
  0
LINE
 8
GROUP1
10
-3404.82975718191
20
-988.926358864597
30
1.46722506411123e-006
11
-3404.98867579768
21
-988.719252078174
31
1.45861896279631e-006
  0
LINE
 8
GROUP1
10
-3404.82975721487
20
-989.926358864597
30
1.53233654696661e-006
11
-3404.72985678442
21
-989.685177912993
31
1.51356821562754e-006
  0
LINE
 8
GROUP1
10
-3404.72985676736
20
-989.167539822786
30
1.47986102865816e-006
11
-3404.82975718191
21
-988.926358864597
31
1.46722506411123e-006
  0
LINE
 8
GROUP1
10
-3404.69578260218
20
-989.426358869011
30
1.49566999340656e-006
11
-3404.72985676736
21
-989.167539822786
31
1.47986102865816e-006
  0
LINE
 8
GROUP1
10
-3404.98867579768
20
-988.719252078174
30
1.45861896279631e-006
11
-3405.19578257363
21
-988.560333448749
31
1.45462604817514e-006
  0
LINE
 8
GROUP1
10
-3404.72985678442
20
-989.685177912993
30
1.51356821562754e-006
11
-3404.69578260218
21
-989.426358869011
31
1.49566999340656e-006
  0
LINE
 8
GROUP1
10
-3404.9886758443
20
-990.133465640545
30
1.55069910063865e-006
11
-3404.82975721487
21
-989.926358864597
31
1.53233654696661e-006
  0
LINE
 8
GROUP1
10
-3405.69578263514
20
-990.426358836051
30
1.5914773302983e-006
11
-3422.79589029046
21
-990.42635822956
31
2.1831350168755e-006
  0
LINE
 8
GROUP1
10
-3422.76658395299
20
-994.927217839561
30
2.49835670621534e-006
11
-3420.79589045518
21
-995.426358295485
31
2.42953409741453e-006
  0
LINE
 8
GROUP1
10
-3405.69578263514
20
-990.426358836051
30
1.5914773302983e-006
11
-3405.43696358891
21
-990.392284670872
31
1.58131435650799e-006
  0
LINE
 8
GROUP1
10
-3422.79589029046
20
-990.42635822956
30
2.1831350168755e-006
11
-3422.76658395299
21
-994.927217839561
31
2.49835670621534e-006
  0
LINE
 8
GROUP1
10
-3405.43696358891
20
-990.392284670872
30
1.58131435650799e-006
11
-3405.19578263072
21
-990.292384256316
31
1.56740681478973e-006
  0
LINE
 8
GROUP1
10
-3405.19578263072
20
-990.292384256316
30
1.56740681478973e-006
11
-3404.9886758443
21
-990.133465640545
31
1.55069910063865e-006
  0
LINE
 8
GROUP1
10
-3405.56637325027
20
-994.443395859002
30
1.69366834023021e-006
11
-3405.44578277447
21
-994.493346074222
31
1.68995971630004e-006
  0
LINE
 8
GROUP1
10
-3420.79589042231
20
-994.426358295485
30
2.37756889293061e-006
11
-3405.69578277226
21
-994.426358767896
31
1.69764289404961e-006
  0
LINE
 8
GROUP1
10
-3405.69578277226
20
-994.426358767896
30
1.69764289404961e-006
11
-3405.56637325027
21
-994.443395859002
31
1.69366834023021e-006
  0
LINE
 8
GROUP1
10
-3405.34222938648
20
-994.572805388921
30
1.68677485743451e-006
11
-3405.26277007859
21
-994.676358782126
31
1.6843226893104e-006
  0
LINE
 8
GROUP1
10
-3405.44578277447
20
-994.493346074222
30
1.68995971630004e-006
11
-3405.34222938648
21
-994.572805388921
31
1.68677485743451e-006
  0
LINE
 8
GROUP1
10
-3405.26277007859
20
-994.676358782126
30
1.6843226893104e-006
11
-3405.2128198713
21
-994.796949261218
31
1.68277345048429e-006
  0
LINE
 8
GROUP1
10
-3420.79589045518
20
-995.426358295485
30
2.42953409741453e-006
11
-3420.79589042231
21
-994.426358295485
31
2.37756889293061e-006
  0
LINE
 8
GROUP1
10
-3405.1957827887
20
-994.926358784329
30
1.68223206556406e-006
11
-3405.2128198798
21
-995.055768306319
31
1.68273803875518e-006
  0
LINE
 8
GROUP1
10
-3405.34222940972
20
-995.279912170105
30
1.68668234984404e-006
11
-3405.44578280293
21
-995.359371478003
31
1.68984958955898e-006
  0
LINE
 8
GROUP1
10
-3405.26277009502
20
-995.176358782127
30
1.68425638202852e-006
11
-3405.34222940972
21
-995.279912170105
31
1.68668234984404e-006
  0
LINE
 8
GROUP1
10
-3405.44578280293
20
-995.359371478003
30
1.68984958955898e-006
11
-3405.56637328202
21
-995.40932168529
31
1.69354858894355e-006
  0
LINE
 8
GROUP1
10
-3405.56637328202
20
-995.40932168529
30
1.69354858894355e-006
11
-3405.69578280513
21
-995.426358767894
31
1.69751826422093e-006
  0
LINE
 8
GROUP1
10
-3405.2128198798
20
-995.055768306319
30
1.68273803875518e-006
11
-3405.26277009502
21
-995.176358782127
31
1.68425638202852e-006
  0
LINE
 8
GROUP1
10
-3405.2128198713
20
-994.796949261218
30
1.68277345048429e-006
11
-3405.1957827887
21
-994.926358784329
31
1.68223206556406e-006
  0
LINE
 8
GROUP1
10
-3405.69578280513
20
-995.426358767894
30
1.69751826422093e-006
11
-3416.59589110243
21
-995.426358421804
31
1.61489049399499e-006
  0
LINE
 8
GROUP1
10
-3416.59589110243
20
-995.426358421804
30
1.61489049399499e-006
11
-3416.5958911051
21
-1011.22635015327
31
1.98957024814539e-006
  0
LINE
 8
GROUP1
10
-3416.5958911051
20
-1011.22635015327
30
1.98957024814539e-006
11
-3376.59589070598
21
-1011.22635002945
31
3.54001667485226e-007
  0
LINE
 8
GROUP1
10
-3376.5958903756
20
-1000.32624104486
30
1.5415781756678e-008
11
-3376.59589070598
21
-1011.22635002945
31
3.54001667485226e-007
  0
LINE
 8
GROUP1
10
-3376.57885328446
20
-1000.19683152287
30
1.14416107477311e-008
11
-3376.52890306922
21
-1000.07624104708
31
7.73463508796368e-009
  0
LINE
 8
GROUP1
10
-3376.34589036128
20
-999.893228351237
30
2.09303693265994e-009
11
-3376.22529988218
21
-999.843278143973
31
5.41701461465038e-010
  0
LINE
 8
GROUP1
10
-3376.22529988218
20
-999.843278143973
30
5.41701461465038e-010
11
-3376.09589035906
21
-999.826241061398
31
0.0
  0
LINE
 8
GROUP1
10
-3376.4494437545
20
-999.972687659111
30
4.54657697046557e-009
11
-3376.34589036128
21
-999.893228351237
31
2.09303693265994e-009
  0
LINE
 8
GROUP1
10
-3376.5958903756
20
-1000.32624104486
30
1.5415781756678e-008
11
-3376.57885328446
21
-1000.19683152287
31
1.14416107477311e-008
  0
LINE
 8
GROUP1
10
-3376.52890306922
20
-1000.07624104708
30
7.73463508796368e-009
11
-3376.4494437545
21
-999.972687659111
31
4.54657697046557e-009
  0
LINE
 8
GROUP1
10
-3376.09589035906
20
-999.826241061398
30
0.0
11
-3375.96648083707
21
-999.843278152533
31
5.06011965661912e-010
  0
LINE
 8
GROUP1
10
-3375.96648083707
20
-999.843278152533
30
5.06011965661912e-010
11
-3375.84589036128
21
-999.893228367774
31
2.02298896523345e-009
  0
LINE
 8
GROUP1
10
-3375.74233697331
20
-999.972687682498
30
4.44756230733034e-009
11
-3375.66287766544
21
-1000.07624107572
31
7.61694096684806e-009
  0
LINE
 8
GROUP1
10
-3375.84589036128
20
-999.893228367774
30
2.02298896523345e-009
11
-3375.74233697331
21
-999.972687682498
31
4.44756230733034e-009
  0
LINE
 8
GROUP1
10
-3375.61292745818
20
-1000.19683155482
30
1.13124337230985e-008
11
-3375.5958903756
21
-1000.32624107794
31
1.52807166420299e-008
  0
LINE
 8
GROUP1
10
-3375.66287766544
20
-1000.07624107572
30
7.61694096684806e-009
11
-3375.61292745818
21
-1000.19683155482
31
1.13124337230985e-008
  0
LINE
 8
GROUP1
10
-3375.5958903756
20
-1000.32624107794
30
1.52807166420299e-008
11
-3375.59589119542
21
-1015.42634897998
31
2.24786300261903e-006
  0
LINE
 8
GROUP1
10
-3376.59589119541
20
-1015.42634894691
30
2.1959094516466e-006
11
-3376.09589126134
21
-1017.42634894691
31
2.26402141620397e-006
  0
LINE
 8
GROUP1
10
-3376.09589126134
20
-1017.42634894691
30
2.26402141620397e-006
11
-3371.59589126134
21
-1017.42634911183
31
2.57432804425806e-006
  0
LINE
 8
GROUP1
10
-3375.59589119542
20
-1015.42634897998
30
2.24786300261903e-006
11
-3376.59589119541
21
-1015.42634894691
31
2.1959094516466e-006
  0
LINE
 8
GROUP1
10
-3371.59589126134
20
-1017.42634911183
30
2.57432804425806e-006
11
-3371.59589074187
21
-1000.32624129733
31
2.75729910764744e-007
  0
LINE
 8
GROUP1
10
-3371.56181655963
20
-1000.06742225335
30
2.70004446101257e-007
11
-3371.59589074187
21
-1000.32624129733
31
2.75729910764744e-007
  0
LINE
 8
GROUP1
10
-3371.46191612917
20
-999.826241301744
30
2.69104483408e-007
11
-3371.56181655963
21
-1000.06742225335
31
2.70004446101257e-007
  0
LINE
 8
GROUP1
10
-3371.09589071332
20
-999.460215910024
30
2.81703650212295e-007
11
-3371.30299749975
21
-999.619134525795
31
2.73097450198545e-007
  0
LINE
 8
GROUP1
10
-3370.85470975513
20
-999.360315495469
30
2.94339596429438e-007
11
-3371.09589071332
21
-999.460215910024
31
2.81703650212295e-007
  0
LINE
 8
GROUP1
10
-3371.30299749975
20
-999.619134525795
30
2.73097450198545e-007
11
-3371.46191612917
21
-999.826241301744
31
2.69104483408e-007
  0
LINE
 8
GROUP1
10
-3370.33707166493
20
-999.360315512531
30
3.2804685883292e-007
11
-3370.59589070891
21
-999.326241330289
31
3.10148604182325e-007
  0
LINE
 8
GROUP1
10
-3370.09589071332
20
-999.460215942985
30
3.46815209911755e-007
11
-3370.33707166493
21
-999.360315512531
31
3.2804685883292e-007
  0
LINE
 8
GROUP1
10
-3369.88878393738
20
-999.619134572409
30
3.65177725514254e-007
11
-3370.09589071332
21
-999.460215942985
31
3.46815209911755e-007
  0
LINE
 8
GROUP1
10
-3370.59589070891
20
-999.326241330289
30
3.10148604182325e-007
11
-3370.85470975513
21
-999.360315495469
31
2.94339596429438e-007
  0
LINE
 8
GROUP1
10
-3369.7298653216
20
-999.826241358833
30
3.81885433320406e-007
11
-3369.88878393738
21
-999.619134572409
31
3.65177725514254e-007
  0
LINE
 8
GROUP1
10
-3405.44578235717
20
-844.359371900096
30
1.8755288141048e-006
11
-3405.56637283627
21
-844.409322107355
31
1.87922424905174e-006
  0
LINE
 8
GROUP1
10
-3405.44578232852
20
-843.493346496312
30
1.87564670139362e-006
11
-3405.34222894056
21
-843.572805811033
31
1.87245859181173e-006
  0
LINE
 8
GROUP1
10
-3398.09589044765
20
-828.426359130147
30
1.96103295789785e-006
11
-3416.59589044765
21
-828.426359130138
31
1.96103322861463e-006
  0
LINE
 8
GROUP1
10
-3405.21281942542
20
-843.796949683357
30
1.86845366695332e-006
11
-3405.19578234285
21
-843.926359206474
31
1.86791187666291e-006
  0
LINE
 8
GROUP1
10
-3405.34222894056
20
-843.572805811033
30
1.87245859181173e-006
11
-3405.26276963269
21
-843.676359204256
31
1.87000498197976e-006
  0
LINE
 8
GROUP1
10
-3405.19578234285
20
-843.926359206474
30
1.86791187666291e-006
11
-3405.21281943398
21
-844.055768728458
31
1.86841794009296e-006
  0
LINE
 8
GROUP1
10
-3405.56637280432
20
-843.443396281067
30
1.87935361078417e-006
11
-3405.44578232852
21
-843.493346496312
31
1.87564670139362e-006
  0
LINE
 8
GROUP1
10
-3405.26276964922
20
-844.176359204255
30
1.86993488395792e-006
11
-3405.34222896395
21
-844.279912592219
31
1.87235949889453e-006
  0
LINE
 8
GROUP1
10
-3343.09589044765
20
-824.426359130176
30
1.96103272525061e-006
11
-3398.09589044765
21
-824.426359130147
31
1.96103353740096e-006
  0
LINE
 8
GROUP1
10
-3405.34222896395
20
-844.279912592219
30
1.87235949889453e-006
11
-3405.44578235717
21
-844.359371900096
31
1.8755288141048e-006
  0
LINE
 8
GROUP1
10
-3416.59589044765
20
-828.426359130138
30
1.96103322861463e-006
11
-3416.59589035942
21
-843.426358857027
31
2.1185348461128e-006
  0
LINE
 8
GROUP1
10
-3405.69578232631
20
-843.426359189934
30
1.88332784876732e-006
11
-3416.59589035942
21
-843.426358857027
31
2.1185348461128e-006
  0
LINE
 8
GROUP1
10
-3398.09589044765
20
-824.426359130147
30
1.96103353740096e-006
11
-3398.09589044765
21
-828.426359130147
31
1.96103295789785e-006
  0
LINE
 8
GROUP1
10
-3405.26276963269
20
-843.676359204256
30
1.87000498197976e-006
11
-3405.21281942542
21
-843.796949683357
31
1.86845366695332e-006
  0
LINE
 8
GROUP1
10
-3405.69578232631
20
-843.426359189934
30
1.88332784876732e-006
11
-3405.56637280432
21
-843.443396281067
31
1.87935361078417e-006
  0
LINE
 8
GROUP1
10
-3405.21281943398
20
-844.055768728458
30
1.86841794009296e-006
11
-3405.26276964922
21
-844.176359204255
31
1.86993488395792e-006
  0
LINE
 8
GROUP1
10
-3336.20310623096
20
-850.133465786668
30
2.12647796766774e-006
11
-3335.99599945502
21
-850.292384416093
31
2.12248505234158e-006
  0
LINE
 8
GROUP1
10
-3336.36202484674
20
-849.926359000244
30
2.13508412961194e-006
11
-3336.20310623096
21
-850.133465786668
31
2.12647796766774e-006
  0
LINE
 8
GROUP1
10
-3336.49599942647
20
-849.426358995831
30
2.16352924855001e-006
11
-3336.46192526129
21
-849.685178042055
31
2.14772014068831e-006
  0
LINE
 8
GROUP1
10
-3335.99599939793
20
-848.560333608525
30
2.2352663209102e-006
11
-3336.20310618435
21
-848.719252224297
31
2.21855851581521e-006
  0
LINE
 8
GROUP1
10
-3320.39589183251
20
-855.426359476676
30
2.42278660005368e-006
11
-3318.39589181602
21
-854.9263595426
31
2.49149256728587e-006
  0
LINE
 8
GROUP1
10
-3336.20310618435
20
-848.719252224297
30
2.21855851581521e-006
11
-3336.36202481377
21
-848.926359000245
31
2.20019590151388e-006
  0
LINE
 8
GROUP1
10
-3336.46192526129
20
-849.685178042055
30
2.14772014068831e-006
11
-3336.36202484674
21
-849.926359000244
31
2.13508412961194e-006
  0
LINE
 8
GROUP1
10
-3335.49599967798
20
-854.426358633153
30
1.86866075965186e-006
11
-3320.39589179944
21
-854.426359476677
31
2.47474031881412e-006
  0
LINE
 8
GROUP1
10
-3318.3958916676
20
-850.426359542602
30
2.80120634250647e-006
11
-3335.49599945943
21
-850.42635902879
31
2.12911055583742e-006
  0
LINE
 8
GROUP1
10
-3336.36202481377
20
-848.926359000245
30
2.20019590151388e-006
11
-3336.46192524423
21
-849.167539951849
31
2.18142747641092e-006
  0
LINE
 8
GROUP1
10
-3318.39589181602
20
-854.9263595426
30
2.49149256728587e-006
11
-3318.3958916676
21
-850.426359542602
31
2.80120634250647e-006
  0
LINE
 8
GROUP1
10
-3335.75481850341
20
-850.39228484655
30
2.12338508130405e-006
11
-3335.49599945943
21
-850.42635902879
31
2.12911055583742e-006
  0
LINE
 8
GROUP1
10
-3336.46192524423
20
-849.167539951849
30
2.18142747641092e-006
11
-3336.49599942647
21
-849.426358995831
31
2.16352924855001e-006
  0
LINE
 8
GROUP1
10
-3335.99599945502
20
-850.292384416093
30
2.12248505234158e-006
11
-3335.75481850341
21
-850.39228484655
31
2.12338508130405e-006
  0
LINE
 8
GROUP1
10
-3320.39589179944
20
-854.426359476677
30
2.47474031881412e-006
11
-3320.39589183251
21
-855.426359476676
31
2.42278660005368e-006
  0
LINE
 8
GROUP1
10
-3320.39589157347
20
-843.42635956936
30
3.17783395889504e-006
11
-3320.39589160634
21
-844.42635956936
31
3.12586846395457e-006
  0
LINE
 8
GROUP1
10
-3320.39589160634
20
-844.42635956936
30
3.12586846395457e-006
11
-3335.49599927341
21
-844.426359177804
31
2.34072762059223e-006
  0
LINE
 8
GROUP1
10
-3335.49599939351
20
-848.426359028791
30
2.25933685263358e-006
11
-3335.75481843974
21
-848.46043319397
31
2.24917391409285e-006
  0
LINE
 8
GROUP1
10
-3318.39589173819
20
-848.426359635285
30
2.9314335416919e-006
11
-3318.39589157347
21
-843.926359635285
31
3.24113464468811e-006
  0
LINE
 8
GROUP1
10
-3335.49599927341
20
-844.426359177804
30
2.34072762059223e-006
11
-3335.6254087954
21
-844.409322086698
31
2.33675314009196e-006
  0
LINE
 8
GROUP1
10
-3335.75481843974
20
-848.46043319397
30
2.24917391409285e-006
11
-3335.99599939793
21
-848.560333608525
31
2.2352663209102e-006
  0
LINE
 8
GROUP1
10
-3335.6254087954
20
-844.409322086698
30
2.33675314009196e-006
11
-3335.7459992712
21
-844.359371871478
31
2.33304444002269e-006
  0
LINE
 8
GROUP1
10
-3318.39589157347
20
-843.926359635285
30
3.24113464468811e-006
11
-3320.39589157347
21
-843.42635956936
31
3.17783395889504e-006
  0
LINE
 8
GROUP1
10
-3335.7459992712
20
-844.359371871478
30
2.33304444002269e-006
11
-3335.84955265919
21
-844.279912556779
31
2.3298596037169e-006
  0
LINE
 8
GROUP1
10
-3335.49599939351
20
-848.426359028791
30
2.25933685263358e-006
11
-3318.39589173819
21
-848.426359635285
31
2.9314335416919e-006
  0
LINE
 8
GROUP1
10
-3335.84955265919
20
-844.279912556779
30
2.3298596037169e-006
11
-3335.92901196708
21
-844.176359163573
31
2.3274074433477e-006
  0
LINE
 8
GROUP1
10
-3335.97896216586
20
-843.79694963938
30
2.32582290277117e-006
11
-3335.92901195065
21
-843.676359163573
31
2.32734128058909e-006
  0
LINE
 8
GROUP1
10
-3335.97896217437
20
-844.055768684482
30
2.32585823906617e-006
11
-3335.99599925697
21
-843.926359161371
31
2.32531695989469e-006
  0
LINE
 8
GROUP1
10
-3335.99599925697
20
-843.926359161371
30
2.32531695989469e-006
11
-3335.97896216586
21
-843.79694963938
31
2.32582290277117e-006
  0
LINE
 8
GROUP1
10
-3335.92901195065
20
-843.676359163573
30
2.32734128058909e-006
11
-3335.84955263594
21
-843.572805775594
31
2.329767299869e-006
  0
LINE
 8
GROUP1
10
-3335.74599924274
20
-843.493346467697
30
2.33293456425865e-006
11
-3335.62540876365
21
-843.44339626041
31
2.33663366798198e-006
  0
LINE
 8
GROUP1
10
-3335.92901196708
20
-844.176359163573
30
2.3274074433477e-006
11
-3335.97896217437
21
-844.055768684482
31
2.32585823906617e-006
  0
LINE
 8
GROUP1
10
-3335.84955263594
20
-843.572805775594
30
2.329767299869e-006
11
-3335.74599924274
21
-843.493346467697
31
2.33293456425865e-006
  0
LINE
 8
GROUP1
10
-3335.49599924054
20
-843.426359177806
30
2.3406032812201e-006
11
-3324.59589046971
21
-843.426359510716
31
2.4029843688933e-006
  0
LINE
 8
GROUP1
10
-3343.09589044765
20
-824.426359130176
30
1.96103272525061e-006
11
-3343.09589044765
21
-828.426359130176
31
1.9610321457475e-006
  0
LINE
 8
GROUP1
10
-3324.59589046971
20
-843.426359510716
30
2.4029843688933e-006
11
-3324.59589044765
21
-828.426359130185
31
1.96103187503072e-006
  0
LINE
 8
GROUP1
10
-3335.62540876365
20
-843.44339626041
30
2.33663366798198e-006
11
-3335.49599924054
21
-843.426359177806
31
2.3406032812201e-006
  0
LINE
 8
GROUP1
10
-3324.59589044765
20
-828.426359130185
30
1.96103187503072e-006
11
-3343.09589044765
21
-828.426359130176
31
1.9610321457475e-006
  0
LINE
 8
GROUP2
10
-3257.26287960055
20
-1000.07624281382
30
2.99274365755942e-007
11
-3257.21292939326
21
-1000.19683329291
31
3.02973287591435e-007
  0
LINE
 8
GROUP2
10
-3228.2254106132
20
-995.409322841446
30
1.71065003879978e-006
11
-3228.34600108899
21
-995.359372626201
31
1.70694305327013e-006
  0
LINE
 8
GROUP2
10
-3257.69589229422
20
-999.826242799585
30
2.91656725437406e-007
11
-3257.56648277223
21
-999.843279890693
31
2.92162714843336e-007
  0
LINE
 8
GROUP2
10
-3257.34233890845
20
-999.972689420611
30
2.96107040032023e-007
11
-3257.26287960055
21
-1000.07624281382
31
2.99274365755942e-007
  0
LINE
 8
GROUP2
10
-3217.19589181767
20
-1011.22635088466
30
1.83677401896509e-006
11
-3217.1958919244
21
-995.426360291857
31
2.04920528559249e-006
  0
LINE
 8
GROUP2
10
-3257.19589231066
20
-1000.32624281602
30
3.06942969213742e-007
11
-3257.19589263629
21
-1011.22635121887
31
6.22961001578437e-007
  0
LINE
 8
GROUP2
10
-3228.09600109121
20
-995.426359932579
30
1.7146242034638e-006
11
-3217.1958919244
21
-995.426360291857
31
2.04920528559249e-006
  0
LINE
 8
GROUP2
10
-3257.44589229642
20
-999.893230105909
30
2.93681113106015e-007
11
-3257.34233890845
21
-999.972689420611
31
2.96107040032023e-007
  0
LINE
 8
GROUP2
10
-3257.19589263629
20
-1011.22635121887
30
6.22961001578437e-007
11
-3217.19589181767
21
-1011.22635088466
31
1.83677401896509e-006
  0
LINE
 8
GROUP2
10
-3257.21292939326
20
-1000.19683329291
30
3.02973287591435e-007
11
-3257.19589231066
21
-1000.32624281602
31
3.06942969213742e-007
  0
LINE
 8
GROUP2
10
-3257.56648277223
20
-999.843279890693
30
2.92162714843336e-007
11
-3257.44589229642
21
-999.893230105909
31
2.93681113106015e-007
  0
LINE
 8
GROUP2
10
-3228.09600109121
20
-995.426359932579
30
1.7146242034638e-006
11
-3228.2254106132
21
-995.409322841446
31
1.71065003879978e-006
  0
LINE
 8
GROUP2
10
-3228.34600108899
20
-995.359372626201
30
1.70694305327013e-006
11
-3228.44955447696
21
-995.27991331148
31
1.70375496836295e-006
  0
LINE
 8
GROUP2
10
-3210.9665867076
20
-994.927220465728
30
2.36136354664351e-006
11
-3210.99589304488
21
-990.42636085573
31
2.67095921391292e-006
  0
LINE
 8
GROUP2
10
-3228.44955447696
20
-995.27991331148
30
1.70375496836295e-006
11
-3228.52901378483
21
-995.176359918257
31
1.7013013648759e-006
  0
LINE
 8
GROUP2
10
-3212.99589317672
20
-994.426360789804
30
2.34449319022056e-006
11
-3212.99589320979
21
-995.426360789803
31
2.29253947146013e-006
  0
LINE
 8
GROUP2
10
-3228.52901378483
20
-995.176359918257
30
1.7013013648759e-006
11
-3228.5789639921
21
-995.055769439156
31
1.69975008439405e-006
  0
LINE
 8
GROUP2
10
-3228.57896398354
20
-994.796950394054
30
1.69971443296779e-006
11
-3228.5290137683
21
-994.676359918258
31
1.70123141137735e-006
  0
LINE
 8
GROUP2
10
-3228.35481988069
20
-990.392286159678
30
2.0735776545433e-006
11
-3228.09600083671
21
-990.426360341918
31
2.07930312907667e-006
  0
LINE
 8
GROUP2
10
-3228.59600107467
20
-994.926359916039
30
1.69920839914739e-006
11
-3228.57896398354
21
-994.796950394054
31
1.69971443296779e-006
  0
LINE
 8
GROUP2
10
-3212.99589320979
20
-995.426360789803
30
2.29253947146013e-006
11
-3210.9665867076
21
-994.927220465728
31
2.36136354664351e-006
  0
LINE
 8
GROUP2
10
-3210.99589304488
20
-990.42636085573
30
2.67095921391292e-006
11
-3228.09600083671
21
-990.426360341918
31
2.07930312907667e-006
  0
LINE
 8
GROUP2
10
-3228.59600083229
20
-990.292385729221
30
2.07267762558083e-006
11
-3228.35481988069
21
-990.392286159678
31
2.0735776545433e-006
  0
LINE
 8
GROUP2
10
-3228.5290137683
20
-994.676359918258
30
1.70123141137735e-006
11
-3228.44955445357
21
-994.572806530294
31
1.70365607918832e-006
  0
LINE
 8
GROUP2
10
-3228.44955445357
20
-994.572806530294
30
1.70365607918832e-006
11
-3228.34600106035
21
-994.493347222417
31
1.70682541695832e-006
  0
LINE
 8
GROUP2
10
-3228.22541058125
20
-994.443397015157
30
1.71052095624402e-006
11
-3228.09600105813
21
-994.42635993258
31
1.71448926101769e-006
  0
LINE
 8
GROUP2
10
-3228.09600105813
20
-994.42635993258
30
1.71448926101769e-006
11
-3212.99589317672
21
-994.426360789804
31
2.34449319022056e-006
  0
LINE
 8
GROUP2
10
-3228.5789639921
20
-995.055769439156
30
1.69975008439405e-006
11
-3228.59600107467
21
-994.926359916039
31
1.69920839914739e-006
  0
LINE
 8
GROUP2
10
-3228.34600106035
20
-994.493347222417
30
1.70682541695832e-006
11
-3228.22541058125
21
-994.443397015157
31
1.71052095624402e-006
  0
LINE
 8
GROUP2
10
-3228.80310760824
20
-990.133467099796
30
2.07667054090699e-006
11
-3228.59600083229
21
-990.292385729221
31
2.07267762558083e-006
  0
LINE
 8
GROUP2
10
-3229.0619266215
20
-989.167541264977
30
2.13162005176515e-006
11
-3229.09600080375
21
-989.426360308959
31
2.11372182178926e-006
  0
LINE
 8
GROUP2
10
-3229.09600080375
20
-989.426360308959
30
2.11372182178926e-006
11
-3229.06192663857
21
-989.685179355183
31
2.09791271392756e-006
  0
LINE
 8
GROUP2
10
-3228.96202619105
20
-988.926360313373
30
2.15038847475313e-006
11
-3229.0619266215
21
-989.167541264977
31
2.13162005176515e-006
  0
LINE
 8
GROUP2
10
-3228.96202622401
20
-989.926360313372
30
2.08527670285119e-006
11
-3228.80310760824
21
-990.133467099796
31
2.07667054090699e-006
  0
LINE
 8
GROUP2
10
-3229.06192663857
20
-989.685179355183
30
2.09791271392756e-006
11
-3228.96202622401
21
-989.926360313372
31
2.08527670285119e-006
  0
LINE
 8
GROUP2
10
-3228.22541020462
20
-984.409323551602
30
2.11649060588015e-006
11
-3228.34600068043
21
-984.359373336382
31
2.11278190581088e-006
  0
LINE
 8
GROUP2
10
-3228.09600077078
20
-988.426360341919
30
2.20952942587282e-006
11
-3228.35481981701
21
-988.460434507098
31
2.1993664873321e-006
  0
LINE
 8
GROUP2
10
-3228.80310756162
20
-988.719253537425
30
2.16875108905445e-006
11
-3228.96202619105
21
-988.926360313373
31
2.15038847475313e-006
  0
LINE
 8
GROUP2
10
-3228.09600077078
20
-988.426360341919
30
2.20952942587282e-006
11
-3210.99589311546
21
-988.426360948413
31
2.80118641309834e-006
  0
LINE
 8
GROUP2
10
-3210.99589295074
20
-983.926360948413
30
3.11091080760773e-006
11
-3212.99589295074
21
-983.426360882489
31
3.04758683030149e-006
  0
LINE
 8
GROUP2
10
-3212.99589295074
20
-983.426360882489
30
3.04758683030149e-006
11
-3212.99589298362
21
-984.426360882489
31
2.99562133536102e-006
  0
LINE
 8
GROUP2
10
-3212.99589298362
20
-984.426360882489
30
2.99562133536102e-006
11
-3228.09600068263
21
-984.426360642708
31
2.12046508638042e-006
  0
LINE
 8
GROUP2
10
-3210.99589311546
20
-988.426360948413
30
2.80118641309834e-006
11
-3210.99589295074
21
-983.926360948413
31
3.11091080760773e-006
  0
LINE
 8
GROUP2
10
-3228.09600068263
20
-984.426360642708
30
2.12046508638042e-006
11
-3228.22541020462
21
-984.409323551602
31
2.11649060588015e-006
  0
LINE
 8
GROUP2
10
-3228.35481981701
20
-988.460434507098
30
2.1993664873321e-006
11
-3228.5960007752
21
-988.560334921653
31
2.18545889414945e-006
  0
LINE
 8
GROUP2
10
-3228.5960007752
20
-988.560334921653
30
2.18545889414945e-006
11
-3228.80310756162
21
-988.719253537425
31
2.16875108905445e-006
  0
LINE
 8
GROUP2
10
-3228.34600068043
20
-984.359373336382
30
2.11278190581088e-006
11
-3228.44955406841
21
-984.279914021683
31
2.10959706950509e-006
  0
LINE
 8
GROUP2
10
-3228.44955406841
20
-984.279914021683
30
2.10959706950509e-006
11
-3228.52901337631
21
-984.176360628477
31
2.1071449077259e-006
  0
LINE
 8
GROUP2
10
-3228.57896357509
20
-983.796951104284
30
2.10556036714937e-006
11
-3228.52901335987
21
-983.676360628477
31
2.10707874637728e-006
  0
LINE
 8
GROUP2
10
-3228.5960006662
20
-983.926360626275
30
2.10505442568287e-006
11
-3228.57896357509
21
-983.796951104284
31
2.10556036714937e-006
  0
LINE
 8
GROUP2
10
-3228.34600065197
20
-983.493347932601
30
2.11267203004684e-006
11
-3228.22541017288
21
-983.443397725314
31
2.11637113377017e-006
  0
LINE
 8
GROUP2
10
-3228.44955404517
20
-983.572807240498
30
2.10950476777216e-006
11
-3228.34600065197
21
-983.493347932601
31
2.11267203004684e-006
  0
LINE
 8
GROUP2
10
-3228.52901335987
20
-983.676360628477
30
2.10707874637728e-006
11
-3228.44955404517
21
-983.572807240498
31
2.10950476777216e-006
  0
LINE
 8
GROUP2
10
-3228.22541017288
20
-983.443397725314
30
2.11637113377017e-006
11
-3228.09600064976
21
-983.426360642711
31
2.12034074700829e-006
  0
LINE
 8
GROUP2
10
-3228.09600064976
20
-983.426360642711
30
2.12034074700829e-006
11
-3217.19589187893
21
-983.426361001988
31
2.45492065603092e-006
  0
LINE
 8
GROUP2
10
-3228.52901337631
20
-984.176360628477
30
2.1071449077259e-006
11
-3228.5789635836
21
-984.055770149386
31
2.10559570485436e-006
  0
LINE
 8
GROUP2
10
-3228.5789635836
20
-984.055770149386
30
2.10559570485436e-006
11
-3228.5960006662
21
-983.926360626275
31
2.10505442568287e-006
  0
LINE
 8
GROUP2
10
-3228.34600105739
20
-854.493347236075
30
1.73077007383782e-006
11
-3228.22541057829
21
-854.443397028815
31
1.73446561312351e-006
  0
LINE
 8
GROUP2
10
-3228.22541057829
20
-854.443397028815
30
1.73446561312351e-006
11
-3228.09600105518
21
-854.426359946238
31
1.73843391789719e-006
  0
LINE
 8
GROUP2
10
-3228.09600108826
20
-855.426359946237
30
1.73856886034329e-006
11
-3217.19589192188
21
-855.426360279146
31
2.04859403529767e-006
  0
LINE
 8
GROUP2
10
-3228.22541061024
20
-855.409322855103
30
1.73459469567927e-006
11
-3228.34600108604
21
-855.359372639859
31
1.73088771014962e-006
  0
LINE
 8
GROUP2
10
-3228.34600108604
20
-855.359372639859
30
1.73088771014962e-006
11
-3228.44955447401
21
-855.279913325138
31
1.72769962524244e-006
  0
LINE
 8
GROUP2
10
-3228.44955447401
20
-855.279913325138
30
1.72769962524244e-006
11
-3228.52901378188
21
-855.176359931914
31
1.72524601964041e-006
  0
LINE
 8
GROUP2
10
-3217.19589187893
20
-983.426361001988
30
2.45492065603092e-006
11
-3217.19589192188
21
-855.426360279146
31
2.04859403529767e-006
  0
LINE
 8
GROUP2
10
-3228.52901376534
20
-854.676359931916
30
1.72517606825684e-006
11
-3228.44955445062
21
-854.572806543952
31
1.72760073395284e-006
  0
LINE
 8
GROUP2
10
-3228.59600107172
20
-854.926359929697
30
1.72315305602688e-006
11
-3228.57896398058
21
-854.796950407712
31
1.72365908914229e-006
  0
LINE
 8
GROUP2
10
-3228.09600108826
20
-855.426359946237
30
1.73856886034329e-006
11
-3228.22541061024
21
-855.409322855103
31
1.73459469567927e-006
  0
LINE
 8
GROUP2
10
-3228.57896398058
20
-854.796950407712
30
1.72365908914229e-006
11
-3228.52901376534
21
-854.676359931916
31
1.72517606825684e-006
  0
LINE
 8
GROUP2
10
-3228.44955445062
20
-854.572806543952
30
1.72760073395284e-006
11
-3228.34600105739
21
-854.493347236075
31
1.73077007383782e-006
  0
LINE
 8
GROUP2
10
-3228.57896398914
20
-855.055769452814
30
1.72369474127354e-006
11
-3228.59600107172
21
-854.926359929697
31
1.72315305602688e-006
  0
LINE
 8
GROUP2
10
-3228.52901378188
20
-855.176359931914
30
1.72524601964041e-006
11
-3228.57896398914
21
-855.055769452814
31
1.72369474127354e-006
  0
LINE
 8
GROUP2
10
-3313.39589179944
20
-854.426359608527
30
2.99564021856158e-006
11
-3298.2957842179
21
-854.426360406393
31
2.01815221371193e-006
  0
LINE
 8
GROUP2
10
-3298.2957842179
20
-854.426360406393
30
2.01815221371193e-006
11
-3298.16637469591
21
-854.443397497499
31
2.01417765989254e-006
  0
LINE
 8
GROUP2
10
-3298.29578401227
20
-850.426360149093
30
2.14364012858237e-006
11
-3315.3958916676
21
-850.426359542602
31
2.80120634250647e-006
  0
LINE
 8
GROUP2
10
-3298.29578401227
20
-850.426360149093
30
2.14364012858237e-006
11
-3298.03696496604
21
-850.392285983914
31
2.13347715479206e-006
  0
LINE
 8
GROUP2
10
-3315.3958916676
20
-850.426359542602
30
2.80120634250647e-006
11
-3315.39589181582
21
-854.926359542603
31
3.11630992389511e-006
  0
LINE
 8
GROUP2
10
-3315.39589181582
20
-854.926359542603
30
3.11630992389511e-006
11
-3313.39589183231
21
-855.426359608527
31
3.0476054230455e-006
  0
LINE
 8
GROUP2
10
-3313.39589183231
20
-855.426359608527
30
3.0476054230455e-006
11
-3313.39589179944
21
-854.426359608527
31
2.99564021856158e-006
  0
LINE
 8
GROUP2
10
-3298.0457842201
20
-854.493347712719
30
2.01046903596236e-006
11
-3297.94223083212
21
-854.572807027418
31
2.00728417498186e-006
  0
LINE
 8
GROUP2
10
-3297.86277152422
20
-854.676360420624
30
2.00483200897272e-006
11
-3297.81282131694
21
-854.796950899715
31
2.00328276944162e-006
  0
LINE
 8
GROUP2
10
-3297.79578423434
20
-854.926360422826
30
2.00274138522638e-006
11
-3297.81282132544
21
-855.055769944817
31
2.0032473584175e-006
  0
LINE
 8
GROUP2
10
-3298.16637469591
20
-854.443397497499
30
2.01417765989254e-006
11
-3298.0457842201
21
-854.493347712719
31
2.01046903596236e-006
  0
LINE
 8
GROUP2
10
-3297.81282131694
20
-854.796950899715
30
2.00328276944162e-006
11
-3297.79578423434
21
-854.926360422826
31
2.00274138522638e-006
  0
LINE
 8
GROUP2
10
-3297.94223083212
20
-854.572807027418
30
2.00728417498186e-006
11
-3297.86277152422
21
-854.676360420624
31
2.00483200897272e-006
  0
LINE
 8
GROUP2
10
-3297.81282132544
20
-855.055769944817
30
2.0032473584175e-006
11
-3297.86277154066
21
-855.176360420625
31
2.00476569957586e-006
  0
LINE
 8
GROUP2
10
-3297.86277154066
20
-855.176360420625
30
2.00476569957586e-006
11
-3297.94223085536
21
-855.279913808603
31
2.00719166950636e-006
  0
LINE
 8
GROUP2
10
-3298.04578424857
20
-855.359373116501
30
2.0103589092213e-006
11
-3298.16637472765
21
-855.409323323787
31
2.01405790860587e-006
  0
LINE
 8
GROUP2
10
-3309.19589182488
20
-886.42636044332
30
1.83082785103483e-006
11
-3309.1958918249
21
-917.42636044332
31
1.83082335741824e-006
  0
LINE
 8
GROUP2
10
-3298.29578425077
20
-855.426360406391
30
2.01802758388325e-006
11
-3309.19589182486
21
-855.42636044332
31
1.83083234324144e-006
  0
LINE
 8
GROUP2
10
-3309.19589182491
20
-948.42636044332
30
1.83081886732661e-006
11
-3309.19589227347
21
-983.426360211869
31
1.45292538278885e-006
  0
LINE
 8
GROUP2
10
-3309.1958918249
20
-917.42636044332
30
1.83082335741824e-006
11
-3309.19589182491
21
-948.42636044332
31
1.83081886732661e-006
  0
LINE
 8
GROUP2
10
-3309.19589182486
20
-855.42636044332
30
1.83083234324144e-006
11
-3309.19589182488
21
-886.42636044332
31
1.83082785103483e-006
  0
LINE
 8
GROUP2
10
-3297.94223085536
20
-855.279913808603
30
2.00719166950636e-006
11
-3298.04578424857
21
-855.359373116501
31
2.0103589092213e-006
  0
LINE
 8
GROUP2
10
-3298.16637472765
20
-855.409323323787
30
2.01405790860587e-006
11
-3298.29578425077
21
-855.426360406391
31
2.01802758388325e-006
  0
LINE
 8
GROUP2
10
-3297.81282079391
20
-983.796951038199
30
1.12802602461048e-006
11
-3297.79578371134
21
-983.926360561316
31
1.12748423573006e-006
  0
LINE
 8
GROUP2
10
-3297.79578371134
20
-983.926360561316
30
1.12748423573006e-006
11
-3297.81282080248
21
-984.055770083301
31
1.12799029916011e-006
  0
LINE
 8
GROUP2
10
-3298.2957836948
20
-983.426360544776
30
1.14290020783447e-006
11
-3298.16637417281
21
-983.443397635909
31
1.13892596985132e-006
  0
LINE
 8
GROUP2
10
-3298.16637417281
20
-983.443397635909
30
1.13892596985132e-006
11
-3298.04578369702
21
-983.493347851154
31
1.13521906046077e-006
  0
LINE
 8
GROUP2
10
-3298.04578369702
20
-983.493347851154
30
1.13521906046077e-006
11
-3297.94223030905
21
-983.572807165875
31
1.13203095299386e-006
  0
LINE
 8
GROUP2
10
-3297.94223030905
20
-983.572807165875
30
1.13203095299386e-006
11
-3297.86277100118
21
-983.676360559099
31
1.12957734104691e-006
  0
LINE
 8
GROUP2
10
-3297.86277100118
20
-983.676360559099
30
1.12957734104691e-006
11
-3297.81282079391
21
-983.796951038199
31
1.12802602461048e-006
  0
LINE
 8
GROUP2
10
-3298.2957836948
20
-983.426360544776
30
1.14290020783447e-006
11
-3309.19589227347
21
-983.426360211869
31
1.45292538278885e-006
  0
LINE
 8
GROUP2
10
-3297.42975859201
20
-849.926360177639
30
2.08449934525068e-006
11
-3297.32985816155
21
-849.685179226035
31
2.06573101391161e-006
  0
LINE
 8
GROUP2
10
-3297.58867722143
20
-850.133466953586
30
2.10286189892273e-006
11
-3297.42975859201
21
-849.926360177639
31
2.08449934525068e-006
  0
LINE
 8
GROUP2
10
-3297.79578400785
20
-850.292385569359
30
2.1195696130738e-006
11
-3297.58867722143
21
-850.133466953586
31
2.10286189892273e-006
  0
LINE
 8
GROUP2
10
-3298.03696496604
20
-850.392285983914
30
2.13347715479206e-006
11
-3297.79578400785
21
-850.292385569359
31
2.1195696130738e-006
  0
LINE
 8
GROUP2
10
-3297.79578395076
20
-848.560334761791
30
2.00678884645922e-006
11
-3298.03696490237
21
-848.460434331334
31
2.00768888176661e-006
  0
LINE
 8
GROUP2
10
-3313.39589160634
20
-844.42635970121
30
2.34451497093668e-006
11
-3313.39589157326
21
-843.426359701211
31
2.2925615426328e-006
  0
LINE
 8
GROUP2
10
-3313.39589157326
20
-843.426359701211
30
2.2925615426328e-006
11
-3315.39589157326
21
-843.926359635287
31
2.35586346921113e-006
  0
LINE
 8
GROUP2
10
-3315.39589173818
20
-848.426359635285
30
2.67097972282415e-006
11
-3298.29578394635
21
-848.426360149094
31
2.01341441128933e-006
  0
LINE
 8
GROUP2
10
-3298.29578373659
20
-844.426360503018
30
1.75296577410999e-006
11
-3313.39589160634
21
-844.42635970121
31
2.34451497093668e-006
  0
LINE
 8
GROUP2
10
-3315.39589157326
20
-843.926359635287
30
2.35586346921113e-006
11
-3315.39589173818
21
-848.426359635285
31
2.67097972282415e-006
  0
LINE
 8
GROUP2
10
-3297.58867717481
20
-848.719253391216
30
2.01078176108038e-006
11
-3297.79578395076
21
-848.560334761791
31
2.00678884645922e-006
  0
LINE
 8
GROUP2
10
-3297.42975855904
20
-848.926360177639
30
2.01938786239531e-006
11
-3297.58867717481
21
-848.719253391216
31
2.01078176108038e-006
  0
LINE
 8
GROUP2
10
-3298.16637421347
20
-844.409323420441
30
1.74899740729706e-006
11
-3298.29578373659
21
-844.426360503018
31
1.75296577410999e-006
  0
LINE
 8
GROUP2
10
-3298.03696490237
20
-848.460434331334
30
2.00768888176661e-006
11
-3298.29578394635
21
-848.426360149094
31
2.01341441128933e-006
  0
LINE
 8
GROUP2
10
-3297.32985814449
20
-849.167541135828
30
2.03202382482726e-006
11
-3297.42975855904
21
-848.926360177639
31
2.01938786239531e-006
  0
LINE
 8
GROUP2
10
-3297.29578397931
20
-849.426360182053
30
2.04783279169063e-006
11
-3297.32985814449
21
-849.167541135828
31
2.03202382482726e-006
  0
LINE
 8
GROUP2
10
-3297.32985816155
20
-849.685179226035
30
2.06573101391161e-006
11
-3297.29578397931
21
-849.426360182053
31
2.04783279169063e-006
  0
LINE
 8
GROUP2
10
-3262.22996628425
20
-1000.06742363011
30
2.65566134693973e-007
11
-3262.32986669881
21
-999.826242671918
31
2.51658591565729e-007
  0
LINE
 8
GROUP2
10
-3258.19589265012
20
-1015.42635049999
30
1.06203639291258e-006
11
-3258.19589231065
21
-1000.32624278315
31
3.07067408694683e-007
  0
LINE
 8
GROUP2
10
-3262.19589211907
20
-1000.32624267633
30
2.75729098614397e-007
11
-3262.19589271605
21
-1017.42635036815
31
8.6760176040146e-007
  0
LINE
 8
GROUP2
10
-3257.19589265012
20
-1015.42635053286
30
1.1140018328637e-006
11
-3258.19589265012
21
-1015.42635049999
31
1.06203639291258e-006
  0
LINE
 8
GROUP2
10
-3262.19589271605
20
-1017.42635036815
30
8.6760176040146e-007
11
-3257.69589271605
21
-1017.42635053286
31
1.17791933556544e-006
  0
LINE
 8
GROUP2
10
-3257.69589271605
20
-1017.42635053286
30
1.17791933556544e-006
11
-3257.19589265012
21
-1015.42635053286
31
1.1140018328637e-006
  0
LINE
 8
GROUP2
10
-3262.19589211907
20
-1000.32624267633
30
2.75729098614397e-007
11
-3262.22996628425
21
-1000.06742363011
31
2.65566134693973e-007
  0
LINE
 8
GROUP2
10
-3258.04944568963
20
-999.972689397371
30
2.96199444693723e-007
11
-3257.94589229642
21
-999.893230089476
31
2.93747348478757e-007
  0
LINE
 8
GROUP2
10
-3258.17885521955
20
-1000.19683326116
30
3.03092876730027e-007
11
-3258.12890500433
21
-1000.07624278535
31
2.99384254209833e-007
  0
LINE
 8
GROUP2
10
-3257.94589229642
20
-999.893230089476
30
2.93747348478757e-007
11
-3257.82530181733
21
-999.843279882187
31
2.92198088502893e-007
  0
LINE
 8
GROUP2
10
-3258.19589231065
20
-1000.32624278315
30
3.07067408694683e-007
11
-3258.17885521955
21
-1000.19683326116
31
3.03092876730027e-007
  0
LINE
 8
GROUP2
10
-3258.12890500433
20
-1000.07624278535
30
2.99384254209833e-007
11
-3258.04944568963
21
-999.972689397371
31
2.96199444693723e-007
  0
LINE
 8
GROUP2
10
-3257.82530181733
20
-999.843279882187
30
2.92198088502893e-007
11
-3257.69589229422
21
-999.826242799585
31
2.91656725437406e-007
  0
LINE
 8
GROUP2
10
-3313.39589157334
20
-983.426359701255
30
1.68871225548206e-006
11
-3315.39589157334
21
-983.92635963533
31
1.75203747357355e-006
  0
LINE
 8
GROUP2
10
-3298.04578372566
20
-984.359373254938
30
1.13510117317195e-006
11
-3298.16637420476
21
-984.409323462198
31
1.13879660811889e-006
  0
LINE
 8
GROUP2
10
-3297.94223033244
20
-984.279913947061
30
1.13193185796168e-006
11
-3298.04578372566
21
-984.359373254938
31
1.13510117317195e-006
  0
LINE
 8
GROUP2
10
-3298.29578372788
20
-984.426360544775
30
1.14276497493182e-006
11
-3313.39589160641
21
-984.426359701254
31
1.74066568378595e-006
  0
LINE
 8
GROUP2
10
-3297.81282080248
20
-984.055770083301
30
1.12799029916011e-006
11
-3297.86277101772
21
-984.176360559097
31
1.12950724161509e-006
  0
LINE
 8
GROUP2
10
-3297.86277101772
20
-984.176360559097
30
1.12950724161509e-006
11
-3297.94223033244
21
-984.279913947061
31
1.13193185796168e-006
  0
LINE
 8
GROUP2
10
-3313.39589160641
20
-984.426359701254
30
1.74066568378595e-006
11
-3313.39589157334
21
-983.426359701255
31
1.68871225548206e-006
  0
LINE
 8
GROUP2
10
-3315.39589173825
20
-988.426359635328
30
2.06713043567341e-006
11
-3298.29578394642
21
-988.426360149137
31
1.33102477125058e-006
  0
LINE
 8
GROUP2
10
-3315.39589157334
20
-983.92635963533
30
1.75203747357355e-006
11
-3315.39589173825
21
-988.426359635328
31
2.06713043567341e-006
  0
LINE
 8
GROUP2
10
-3298.03696490244
20
-988.460434331377
30
1.32529924172786e-006
11
-3298.29578394642
21
-988.426360149137
31
1.33102477125058e-006
  0
LINE
 8
GROUP2
10
-3297.79578395084
20
-988.560334761834
30
1.32439920642047e-006
11
-3298.03696490244
21
-988.460434331377
31
1.32529924172786e-006
  0
LINE
 8
GROUP2
10
-3298.16637420476
20
-984.409323462198
30
1.13879660811889e-006
11
-3298.29578372788
21
-984.426360544775
31
1.14276497493182e-006
  0
LINE
 8
GROUP2
10
-3297.42975855912
20
-988.926360177682
30
1.33699822235656e-006
11
-3297.58867717489
21
-988.719253391259
31
1.32839212104163e-006
  0
LINE
 8
GROUP2
10
-3297.42975859208
20
-989.926360177682
30
1.40210970521193e-006
11
-3297.32985816162
21
-989.685179226078
31
1.38334137387286e-006
  0
LINE
 8
GROUP2
10
-3297.32985814456
20
-989.167541135871
30
1.34963418690348e-006
11
-3297.42975855912
21
-988.926360177682
31
1.33699822235656e-006
  0
LINE
 8
GROUP2
10
-3297.29578397938
20
-989.426360182096
30
1.36544315165188e-006
11
-3297.32985814456
21
-989.167541135871
31
1.34963418690348e-006
  0
LINE
 8
GROUP2
10
-3297.58867717489
20
-988.719253391259
30
1.32839212104163e-006
11
-3297.79578395084
21
-988.560334761834
31
1.32439920642047e-006
  0
LINE
 8
GROUP2
10
-3297.32985816162
20
-989.685179226078
30
1.38334137387286e-006
11
-3297.29578397938
21
-989.426360182096
31
1.36544315165188e-006
  0
LINE
 8
GROUP2
10
-3297.5886772215
20
-990.13346695363
30
1.42047225888398e-006
11
-3297.42975859208
21
-989.926360177682
31
1.40210970521193e-006
  0
LINE
 8
GROUP2
10
-3298.29578401234
20
-990.426360149136
30
1.46125048854362e-006
11
-3315.39589166767
21
-990.426359542645
31
2.05290817512083e-006
  0
LINE
 8
GROUP2
10
-3315.36658533019
20
-994.927219152646
30
2.36812986446067e-006
11
-3313.39589183238
21
-995.42635960857
31
2.29930725565985e-006
  0
LINE
 8
GROUP2
10
-3298.29578401234
20
-990.426360149136
30
1.46125048854362e-006
11
-3298.03696496612
21
-990.392285983957
31
1.45108751475331e-006
  0
LINE
 8
GROUP2
10
-3315.39589166767
20
-990.426359542645
30
2.05290817512083e-006
11
-3315.36658533019
21
-994.927219152646
31
2.36812986446067e-006
  0
LINE
 8
GROUP2
10
-3298.03696496612
20
-990.392285983957
30
1.45108751475331e-006
11
-3297.79578400793
21
-990.292385569401
31
1.43717997303505e-006
  0
LINE
 8
GROUP2
10
-3297.79578400793
20
-990.292385569401
30
1.43717997303505e-006
11
-3297.5886772215
21
-990.13346695363
31
1.42047225888398e-006
  0
LINE
 8
GROUP2
10
-3298.16637462748
20
-994.443397172087
30
1.56344149847554e-006
11
-3298.04578415167
21
-994.493347387307
31
1.55973287454536e-006
  0
LINE
 8
GROUP2
10
-3313.39589179951
20
-994.42635960857
30
2.24734205117594e-006
11
-3298.29578414947
21
-994.426360080981
31
1.56741605229493e-006
  0
LINE
 8
GROUP2
10
-3298.29578414947
20
-994.426360080981
30
1.56741605229493e-006
11
-3298.16637462748
21
-994.443397172087
31
1.56344149847554e-006
  0
LINE
 8
GROUP2
10
-3297.94223076369
20
-994.572806702006
30
1.55654801567984e-006
11
-3297.86277145579
21
-994.676360095211
31
1.55409584755573e-006
  0
LINE
 8
GROUP2
10
-3298.04578415167
20
-994.493347387307
30
1.55973287454536e-006
11
-3297.94223076369
21
-994.572806702006
31
1.55654801567984e-006
  0
LINE
 8
GROUP2
10
-3297.86277145579
20
-994.676360095211
30
1.55409584755573e-006
11
-3297.8128212485
21
-994.796950574303
31
1.55254660872961e-006
  0
LINE
 8
GROUP2
10
-3313.39589183238
20
-995.42635960857
30
2.29930725565985e-006
11
-3313.39589179951
21
-994.42635960857
31
2.24734205117594e-006
  0
LINE
 8
GROUP2
10
-3297.7957841659
20
-994.926360097414
30
1.55200522380938e-006
11
-3297.81282125701
21
-995.055769619405
31
1.55251119700051e-006
  0
LINE
 8
GROUP2
10
-3297.94223078693
20
-995.279913483191
30
1.55645550808936e-006
11
-3298.04578418013
21
-995.359372791088
31
1.5596227478043e-006
  0
LINE
 8
GROUP2
10
-3297.86277147222
20
-995.176360095212
30
1.55402954027384e-006
11
-3297.94223078693
21
-995.279913483191
31
1.55645550808936e-006
  0
LINE
 8
GROUP2
10
-3298.04578418013
20
-995.359372791088
30
1.5596227478043e-006
11
-3298.16637465922
21
-995.409322998375
31
1.56332174718887e-006
  0
LINE
 8
GROUP2
10
-3298.16637465922
20
-995.409322998375
30
1.56332174718887e-006
11
-3298.29578418233
21
-995.426360080979
31
1.56729142246625e-006
  0
LINE
 8
GROUP2
10
-3297.81282125701
20
-995.055769619405
30
1.55251119700051e-006
11
-3297.86277147222
21
-995.176360095212
31
1.55402954027384e-006
  0
LINE
 8
GROUP2
10
-3297.8128212485
20
-994.796950574303
30
1.55254660872961e-006
11
-3297.7957841659
21
-994.926360097414
31
1.55200522380938e-006
  0
LINE
 8
GROUP2
10
-3298.29578418233
20
-995.426360080979
30
1.56729142246625e-006
11
-3309.19589247964
21
-995.426359734889
31
1.48466365224031e-006
  0
LINE
 8
GROUP2
10
-3309.19589247964
20
-995.426359734889
30
1.48466365224031e-006
11
-3309.1958924823
21
-1011.22635146636
31
1.85934340639071e-006
  0
LINE
 8
GROUP2
10
-3309.1958924823
20
-1011.22635146636
30
1.85934340639071e-006
11
-3269.19589208318
21
-1011.22635134254
31
2.23774825730549e-007
  0
LINE
 8
GROUP2
10
-3269.1958917528
20
-1000.32624235794
30
-1.14811059997999e-007
11
-3269.19589208318
21
-1011.22635134254
31
2.23774825730549e-007
  0
LINE
 8
GROUP2
10
-3269.17885466167
20
-1000.19683283596
30
-1.18785231006946e-007
11
-3269.12890444642
21
-1000.07624236016
31
-1.22492206666713e-007
  0
LINE
 8
GROUP2
10
-3268.94589173848
20
-999.893229664322
30
-1.28133804822017e-007
11
-3268.82530125938
21
-999.843279457058
31
-1.29685140293212e-007
  0
LINE
 8
GROUP2
10
-3268.82530125938
20
-999.843279457058
30
-1.29685140293212e-007
11
-3268.69589173626
21
-999.826242374483
31
-1.30226841754677e-007
  0
LINE
 8
GROUP2
10
-3269.0494451317
20
-999.972688972196
30
-1.25680264784211e-007
11
-3268.94589173848
21
-999.893229664322
31
-1.28133804822017e-007
  0
LINE
 8
GROUP2
10
-3269.1958917528
20
-1000.32624235794
30
-1.14811059997999e-007
11
-3269.17885466167
21
-1000.19683283596
31
-1.18785231006946e-007
  0
LINE
 8
GROUP2
10
-3269.12890444642
20
-1000.07624236016
30
-1.22492206666713e-007
11
-3269.0494451317
21
-999.972688972196
31
-1.25680264784211e-007
  0
LINE
 8
GROUP2
10
-3268.69589173626
20
-999.826242374483
30
-1.30226841754677e-007
11
-3268.56648221428
21
-999.843279465618
31
-1.29720829789015e-007
  0
LINE
 8
GROUP2
10
-3268.56648221428
20
-999.843279465618
30
-1.29720829789015e-007
11
-3268.44589173848
21
-999.893229680859
31
-1.28203852789444e-007
  0
LINE
 8
GROUP2
10
-3268.34233835052
20
-999.972688995583
30
-1.25779279447347e-007
11
-3268.26287904264
21
-1000.0762423888
31
-1.22609900787829e-007
  0
LINE
 8
GROUP2
10
-3268.44589173848
20
-999.893229680859
30
-1.28203852789444e-007
11
-3268.34233835052
21
-999.972688995583
31
-1.25779279447347e-007
  0
LINE
 8
GROUP2
10
-3268.21292883538
20
-1000.19683286791
30
-1.18914408031578e-007
11
-3268.1958917528
21
-1000.32624239102
31
-1.14946125112647e-007
  0
LINE
 8
GROUP2
10
-3268.26287904264
20
-1000.0762423888
30
-1.22609900787829e-007
11
-3268.21292883538
21
-1000.19683286791
31
-1.18914408031578e-007
  0
LINE
 8
GROUP2
10
-3268.1958917528
20
-1000.32624239102
30
-1.14946125112647e-007
11
-3268.19589257262
21
-1015.42635029307
31
2.11763616086436e-006
  0
LINE
 8
GROUP2
10
-3269.19589257262
20
-1015.42635025999
30
2.06568260989193e-006
11
-3268.69589263854
21
-1017.42635025999
31
2.13379457444929e-006
  0
LINE
 8
GROUP2
10
-3268.69589263854
20
-1017.42635025999
30
2.13379457444929e-006
11
-3264.19589263854
21
-1017.42635042491
31
2.44410120250338e-006
  0
LINE
 8
GROUP2
10
-3268.19589257262
20
-1015.42635029307
30
2.11763616086436e-006
11
-3269.19589257262
21
-1015.42635025999
31
2.06568260989193e-006
  0
LINE
 8
GROUP2
10
-3264.19589263854
20
-1017.42635042491
30
2.44410120250338e-006
11
-3264.19589211907
21
-1000.32624261041
31
1.45503069010067e-007
  0
LINE
 8
GROUP2
10
-3264.16181793683
20
-1000.06742356643
30
1.3977760434658e-007
11
-3264.19589211907
21
-1000.32624261041
31
1.45503069010067e-007
  0
LINE
 8
GROUP2
10
-3264.06191750637
20
-999.826242614829
30
1.38877641653323e-007
11
-3264.16181793683
21
-1000.06742356643
31
1.3977760434658e-007
  0
LINE
 8
GROUP2
10
-3263.69589209053
20
-999.460217223109
30
1.51476808457618e-007
11
-3263.90299887695
21
-999.61913583888
31
1.42870608443868e-007
  0
LINE
 8
GROUP2
10
-3263.45471113234
20
-999.360316808554
30
1.64112754674761e-007
11
-3263.69589209053
21
-999.460217223109
31
1.51476808457618e-007
  0
LINE
 8
GROUP2
10
-3263.90299887695
20
-999.61913583888
30
1.42870608443868e-007
11
-3264.06191750637
21
-999.826242614829
31
1.38877641653323e-007
  0
LINE
 8
GROUP2
10
-3262.93707304213
20
-999.360316825616
30
1.97820017078243e-007
11
-3263.19589208611
21
-999.326242643374
31
1.79921762427648e-007
  0
LINE
 8
GROUP2
10
-3262.69589209053
20
-999.46021725607
30
2.16588368157078e-007
11
-3262.93707304213
21
-999.360316825616
31
1.97820017078243e-007
  0
LINE
 8
GROUP2
10
-3262.48878531458
20
-999.619135885494
30
2.34950883759577e-007
11
-3262.69589209053
21
-999.46021725607
31
2.16588368157078e-007
  0
LINE
 8
GROUP2
10
-3263.19589208611
20
-999.326242643374
30
1.79921762427648e-007
11
-3263.45471113234
21
-999.360316808554
31
1.64112754674761e-007
  0
LINE
 8
GROUP2
10
-3262.32986669881
20
-999.826242671918
30
2.51658591565729e-007
11
-3262.48878531458
21
-999.619135885494
31
2.34950883759577e-007
  0
LINE
 8
GROUP2
10
-3298.04578373437
20
-844.359373213181
30
1.74530197235012e-006
11
-3298.16637421347
21
-844.409323420441
31
1.74899740729706e-006
  0
LINE
 8
GROUP2
10
-3298.04578370573
20
-843.493347809397
30
1.74541985963894e-006
11
-3297.94223031776
21
-843.572807124118
31
1.74223175005705e-006
  0
LINE
 8
GROUP2
10
-3290.69589182485
20
-828.426360443232
30
1.83080611614317e-006
11
-3309.19589182485
21
-828.426360443223
31
1.83080638685995e-006
  0
LINE
 8
GROUP2
10
-3297.81282080262
20
-843.796950996442
30
1.73822682519864e-006
11
-3297.79578372005
21
-843.926360519559
31
1.73768503490823e-006
  0
LINE
 8
GROUP2
10
-3297.94223031776
20
-843.572807124118
30
1.74223175005705e-006
11
-3297.86277100989
21
-843.676360517341
31
1.73977814022508e-006
  0
LINE
 8
GROUP2
10
-3297.79578372005
20
-843.926360519559
30
1.73768503490823e-006
11
-3297.81282081118
21
-844.055770041543
31
1.73819109833828e-006
  0
LINE
 8
GROUP2
10
-3298.16637418152
20
-843.443397594152
30
1.7491267690295e-006
11
-3298.04578370573
21
-843.493347809397
31
1.74541985963894e-006
  0
LINE
 8
GROUP2
10
-3297.86277102643
20
-844.17636051734
30
1.73970804220325e-006
11
-3297.94223034115
21
-844.279913905304
31
1.74213265713985e-006
  0
LINE
 8
GROUP2
10
-3235.69589182485
20
-824.426360443261
30
1.83080588349593e-006
11
-3290.69589182485
21
-824.426360443232
31
1.83080669564628e-006
  0
LINE
 8
GROUP2
10
-3297.94223034115
20
-844.279913905304
30
1.74213265713985e-006
11
-3298.04578373437
21
-844.359373213181
31
1.74530197235012e-006
  0
LINE
 8
GROUP2
10
-3309.19589182485
20
-828.426360443223
30
1.83080638685995e-006
11
-3309.19589173662
21
-843.426360170112
31
1.98830800435812e-006
  0
LINE
 8
GROUP2
10
-3298.29578370351
20
-843.426360503019
30
1.75310100701265e-006
11
-3309.19589173662
21
-843.426360170112
31
1.98830800435812e-006
  0
LINE
 8
GROUP2
10
-3290.69589182485
20
-824.426360443232
30
1.83080669564628e-006
11
-3290.69589182485
21
-828.426360443232
31
1.83080611614317e-006
  0
LINE
 8
GROUP2
10
-3297.86277100989
20
-843.676360517341
30
1.73977814022508e-006
11
-3297.81282080262
21
-843.796950996442
31
1.73822682519864e-006
  0
LINE
 8
GROUP2
10
-3298.29578370351
20
-843.426360503019
30
1.75310100701265e-006
11
-3298.16637418152
21
-843.443397594152
31
1.7491267690295e-006
  0
LINE
 8
GROUP2
10
-3297.81282081118
20
-844.055770041543
30
1.73819109833828e-006
11
-3297.86277102643
21
-844.17636051734
31
1.73970804220325e-006
  0
LINE
 8
GROUP2
10
-3228.80310760817
20
-850.133467099753
30
1.99625112591306e-006
11
-3228.59600083222
21
-850.292385729178
31
1.99225821058691e-006
  0
LINE
 8
GROUP2
10
-3228.96202622394
20
-849.926360313329
30
2.00485728785726e-006
11
-3228.80310760817
21
-850.133467099753
31
1.99625112591306e-006
  0
LINE
 8
GROUP2
10
-3229.09600080367
20
-849.426360308916
30
2.03330240679533e-006
11
-3229.06192663849
21
-849.68517935514
31
2.01749329893364e-006
  0
LINE
 8
GROUP2
10
-3228.59600077513
20
-848.56033492161
30
2.10503947915552e-006
11
-3228.80310756155
21
-848.719253537382
31
2.08833167406053e-006
  0
LINE
 8
GROUP2
10
-3212.99589320972
20
-855.426360789761
30
2.29255975829901e-006
11
-3210.99589319323
21
-854.926360855685
31
2.36126572553119e-006
  0
LINE
 8
GROUP2
10
-3228.80310756155
20
-848.719253537382
30
2.08833167406053e-006
11
-3228.96202619098
21
-848.92636031333
31
2.0699690597592e-006
  0
LINE
 8
GROUP2
10
-3229.06192663849
20
-849.68517935514
30
2.01749329893364e-006
11
-3228.96202622394
21
-849.926360313329
31
2.00485728785726e-006
  0
LINE
 8
GROUP2
10
-3228.09600105518
20
-854.426359946238
30
1.73843391789719e-006
11
-3212.99589317664
21
-854.426360789762
31
2.34451347705944e-006
  0
LINE
 8
GROUP2
10
-3210.9958930448
20
-850.426360855688
30
2.67097950075179e-006
11
-3228.09600083663
21
-850.426360341875
31
1.99888371408274e-006
  0
LINE
 8
GROUP2
10
-3228.96202619098
20
-848.92636031333
30
2.0699690597592e-006
11
-3229.06192662143
21
-849.167541264934
31
2.05120063465625e-006
  0
LINE
 8
GROUP2
10
-3210.99589319323
20
-854.926360855685
30
2.36126572553119e-006
11
-3210.9958930448
21
-850.426360855688
31
2.67097950075179e-006
  0
LINE
 8
GROUP2
10
-3228.35481988061
20
-850.392286159635
30
1.99315823954938e-006
11
-3228.09600083663
21
-850.426360341875
31
1.99888371408274e-006
  0
LINE
 8
GROUP2
10
-3229.06192662143
20
-849.167541264934
30
2.05120063465625e-006
11
-3229.09600080367
21
-849.426360308916
31
2.03330240679533e-006
  0
LINE
 8
GROUP2
10
-3228.59600083222
20
-850.292385729178
30
1.99225821058691e-006
11
-3228.35481988061
21
-850.392286159635
31
1.99315823954938e-006
  0
LINE
 8
GROUP2
10
-3212.99589317664
20
-854.426360789762
30
2.34451347705944e-006
11
-3212.99589320972
21
-855.426360789761
31
2.29255975829901e-006
  0
LINE
 8
GROUP2
10
-3212.99589295067
20
-843.426360882445
30
3.04760711714036e-006
11
-3212.99589298354
21
-844.426360882445
31
2.9956416221999e-006
  0
LINE
 8
GROUP2
10
-3212.99589298354
20
-844.426360882445
30
2.9956416221999e-006
11
-3228.09600065061
21
-844.426360490889
31
2.21050077883755e-006
  0
LINE
 8
GROUP2
10
-3228.09600077071
20
-848.426360341876
30
2.1291100108789e-006
11
-3228.35481981694
21
-848.460434507055
31
2.11894707233817e-006
  0
LINE
 8
GROUP2
10
-3210.99589311539
20
-848.42636094837
30
2.80120669993722e-006
11
-3210.99589295067
21
-843.92636094837
31
3.11090780293344e-006
  0
LINE
 8
GROUP2
10
-3228.09600065061
20
-844.426360490889
30
2.21050077883755e-006
11
-3228.2254101726
21
-844.409323399783
31
2.20652629833729e-006
  0
LINE
 8
GROUP2
10
-3228.35481981694
20
-848.460434507055
30
2.11894707233817e-006
11
-3228.59600077513
21
-848.56033492161
31
2.10503947915552e-006
  0
LINE
 8
GROUP2
10
-3228.2254101726
20
-844.409323399783
30
2.20652629833729e-006
11
-3228.34600064841
21
-844.359373184563
31
2.20281759826801e-006
  0
LINE
 8
GROUP2
10
-3210.99589295067
20
-843.92636094837
30
3.11090780293344e-006
11
-3212.99589295067
21
-843.426360882445
31
3.04760711714036e-006
  0
LINE
 8
GROUP2
10
-3228.34600064841
20
-844.359373184563
30
2.20281759826801e-006
11
-3228.44955403639
21
-844.279913869864
31
2.19963276196222e-006
  0
LINE
 8
GROUP2
10
-3228.09600077071
20
-848.426360341876
30
2.1291100108789e-006
11
-3210.99589311539
21
-848.42636094837
31
2.80120669993722e-006
  0
LINE
 8
GROUP2
10
-3228.44955403639
20
-844.279913869864
30
2.19963276196222e-006
11
-3228.52901334428
21
-844.176360476659
31
2.19718060159302e-006
  0
LINE
 8
GROUP2
10
-3228.57896354307
20
-843.796950952465
30
2.19559606101649e-006
11
-3228.52901332785
21
-843.676360476658
31
2.19711443883441e-006
  0
LINE
 8
GROUP2
10
-3228.57896355157
20
-844.055769997567
30
2.19563139731149e-006
11
-3228.59600063417
21
-843.926360474456
31
2.19509011814001e-006
  0
LINE
 8
GROUP2
10
-3228.59600063417
20
-843.926360474456
30
2.19509011814001e-006
11
-3228.57896354307
21
-843.796950952465
31
2.19559606101649e-006
  0
LINE
 8
GROUP2
10
-3228.52901332785
20
-843.676360476658
30
2.19711443883441e-006
11
-3228.44955401315
21
-843.572807088679
31
2.19954045811432e-006
  0
LINE
 8
GROUP2
10
-3228.34600061994
20
-843.493347780782
30
2.20270772250397e-006
11
-3228.22541014085
21
-843.443397573495
31
2.2064068262273e-006
  0
LINE
 8
GROUP2
10
-3228.52901334428
20
-844.176360476659
30
2.19718060159302e-006
11
-3228.57896355157
21
-844.055769997567
31
2.19563139731149e-006
  0
LINE
 8
GROUP2
10
-3228.44955401315
20
-843.572807088679
30
2.19954045811432e-006
11
-3228.34600061994
21
-843.493347780782
31
2.20270772250397e-006
  0
LINE
 8
GROUP2
10
-3228.09600061774
20
-843.426360490892
30
2.21037643946542e-006
11
-3217.19589184691
21
-843.426360823801
31
2.27275752713862e-006
  0
LINE
 8
GROUP2
10
-3235.69589182485
20
-824.426360443261
30
1.83080588349593e-006
11
-3235.69589182485
21
-828.426360443261
31
1.83080530399282e-006
  0
LINE
 8
GROUP2
10
-3217.19589184691
20
-843.426360823801
30
2.27275752713862e-006
11
-3217.19589182485
21
-828.42636044327
31
1.83080503327604e-006
  0
LINE
 8
GROUP2
10
-3228.22541014085
20
-843.443397573495
30
2.2064068262273e-006
11
-3228.09600061774
21
-843.426360490892
31
2.21037643946542e-006
  0
LINE
 8
GROUP2
10
-3217.19589182485
20
-828.42636044327
30
1.83080503327604e-006
11
-3235.69589182485
21
-828.426360443261
31
1.83080530399282e-006
 0
ENDSEC
 0
EOF
