 0
SECTION
 2
ENTITIES
  0
LINE
 8
GROUP0
10
-2339.3056230709
20
1900.66243897035
30
0.000135643323339263
11
-2758.30562307073
21
1900.66243897035
31
0.000136443228173544
  0
LINE
 8
GROUP0
10
-2339.3056230709
20
1925.66243897035
30
0.000133916624202879
11
-2329.3056230709
21
1925.66243897035
31
0.000135643324241652
  0
LINE
 8
GROUP0
10
-2381.30503041437
20
1990.66243897035
30
0.000150980019977698
11
-2339.3056230709
21
1990.66243897035
31
0.000135643324637857
  0
LINE
 8
GROUP0
10
-2339.3056230709
20
1925.66243897035
30
0.000133916624202879
11
-2339.3056230709
21
1900.66243897035
31
0.000135643323339263
  0
LINE
 8
GROUP0
10
-2304.3056230709
20
1960.66245634049
30
0.000103989933539439
11
-2304.3056230709
21
1950.66245634049
31
0.000113441633733224
  0
LINE
 8
GROUP0
10
-2339.3056230709
20
1990.66243897035
30
0.000135643324637857
11
-2339.3056230709
21
1985.66247371062
31
7.72063898251907e-005
  0
LINE
 8
GROUP0
10
-2758.30562307073
20
1900.66243897035
30
0.000136443228173544
11
-2758.30562307073
21
1925.66243897035
31
0.0001364432285345
  0
LINE
 8
GROUP0
10
-2381.30503041437
20
2010.66245599029
30
0.000150980020266039
11
-2381.30503041437
21
1990.66243897035
31
0.000150980019977698
  0
LINE
 8
GROUP0
10
-2339.3056230709
20
1985.66247371062
30
7.72063898251907e-005
11
-2329.3056230709
21
1985.66247371062
31
7.8933089863964e-005
  0
LINE
 8
GROUP0
10
-2716.30596065965
20
2010.66247101907
30
3.14635231985882e-005
11
-2381.30503041437
21
2010.66245599029
31
0.000150980020266039
  0
LINE
 8
GROUP0
10
-2304.3056230709
20
1950.66245634049
30
0.000113441633733224
11
-2329.3056230709
21
1925.66243897035
31
0.000135643324241652
  0
LINE
 8
GROUP0
10
-2401.30503041431
20
2002.66244697152
30
0.000277700141990833
11
-2401.82266850451
21
2002.5942986241
31
0.000277597987193501
  0
LINE
 8
GROUP0
10
-2402.30503041431
20
1998.93039616395
30
0.000276827925673234
11
-2401.82266850451
21
1998.73059531894
31
0.000276873764157909
  0
LINE
 8
GROUP0
10
-2401.82266850451
20
2002.5942986241
30
0.000277597987193501
11
-2402.30503041431
21
2002.39449777909
31
0.000277477246783853
  0
LINE
 8
GROUP0
10
-2402.71924397668
20
1999.24823340915
30
0.000276815979486589
11
-2402.30503041431
21
1998.93039616395
31
0.000276827925673234
  0
LINE
 8
GROUP0
10
-2403.30503041431
20
2000.66244697152
30
0.000276979916205561
11
-2403.23688206688
21
2000.14480888131
31
0.000276894655572923
  0
LINE
 8
GROUP0
10
-2403.23688206688
20
2001.18008506172
30
0.00027708871115259
11
-2403.30503041431
21
2000.66244697152
31
0.000276979916205561
  0
LINE
 8
GROUP0
10
-2400.7873923241
20
2002.5942986241
30
0.000277776748343028
11
-2401.30503041431
21
2002.66244697152
31
0.000277700141990833
  0
LINE
 8
GROUP0
10
-2399.89081685193
20
2002.07666053389
30
0.000277834533012233
11
-2400.30503041431
21
2002.39449777909
31
0.000277822586827703
  0
LINE
 8
GROUP0
10
-2758.30562307073
20
1990.66247371062
30
7.63970993133856e-005
11
-2716.30596065965
21
1990.66247101907
31
3.14635229102467e-005
  0
LINE
 8
GROUP0
10
-2399.37317876173
20
2001.18008506172
30
0.000277755856928014
11
-2399.57297960674
21
2001.66244697152
31
0.000277811772584063
  0
LINE
 8
GROUP0
10
-2399.30503041431
20
2000.66244697152
30
0.000277670596293261
11
-2399.37317876173
21
2001.18008506172
31
0.000277755856928014
  0
LINE
 8
GROUP0
10
-2403.23688206688
20
2000.14480888131
30
0.000276894655572923
11
-2403.03708122188
21
1999.66244697152
31
0.000276838739916874
  0
LINE
 8
GROUP0
10
-2399.57297960674
20
2001.66244697152
30
0.000277811772584063
11
-2399.89081685193
21
2002.07666053389
31
0.000277834533012233
  0
LINE
 8
GROUP0
10
-2758.30562307073
20
1985.66247371062
30
7.97329941568115e-005
11
-2758.30562307073
21
1990.66247371062
31
7.63970993133856e-005
  0
LINE
 8
GROUP0
10
-2758.30562307073
20
1925.66243897035
30
0.0001364432285345
11
-2768.30562307073
21
1925.66243897035
31
0.000134716528315248
  0
LINE
 8
GROUP0
10
-2716.30596065965
20
1990.66247101907
30
3.14635229102467e-005
11
-2716.30596065965
21
2010.66247101907
31
3.14635231985882e-005
  0
LINE
 8
GROUP0
10
-2401.30503041431
20
1998.66244697152
30
0.000276950370507989
11
-2400.7873923241
21
1998.73059531894
31
0.000277052525307436
  0
LINE
 8
GROUP0
10
-2768.30562307073
20
1925.66243897035
30
0.000134716528315248
11
-2793.30562307073
21
1950.66245634048
31
0.000109336882399724
  0
LINE
 8
GROUP0
10
-2793.30562307073
20
1950.66245634048
30
0.000109336882399724
11
-2793.30562307073
21
1960.66255145834
31
9.98850922377281e-005
  0
LINE
 8
GROUP0
10
-2400.7873923241
20
1998.73059531894
30
0.000277052525307436
11
-2400.30503041431
21
1998.93039616395
31
0.000277173265717084
  0
LINE
 8
GROUP0
10
-2401.82266850451
20
1998.73059531894
30
0.000276873764157909
11
-2401.30503041431
21
1998.66244697152
31
0.000276950370507989
  0
LINE
 8
GROUP0
10
-2793.30562307073
20
1960.66255145834
30
9.98850922377281e-005
11
-2768.30562307073
21
1985.66247371062
31
7.80062939375603e-005
  0
LINE
 8
GROUP0
10
-2403.03708122188
20
1999.66244697152
30
0.000276838739916874
11
-2402.71924397668
21
1999.24823340915
31
0.000276815979486589
  0
LINE
 8
GROUP0
10
-2329.3056230709
20
1985.66247371062
30
7.8933089863964e-005
11
-2304.3056230709
21
1960.66245634049
31
0.000103989933539439
  0
LINE
 8
GROUP0
10
-2758.30562307073
20
1985.66247371062
30
7.97329941568115e-005
11
-2768.30562307073
21
1985.66247371062
31
7.80062939375603e-005
  0
LINE
 8
GROUP0
10
-2402.30503041431
20
2002.39449777909
30
0.000277477246783853
11
-2402.71924397668
21
2002.07666053389
31
0.000277346148386337
  0
LINE
 8
GROUP0
10
-2400.30503041431
20
2002.39449777909
30
0.000277822586827703
11
-2400.7873923241
21
2002.5942986241
31
0.000277776748343028
  0
LINE
 8
GROUP0
10
-2403.03708122188
20
2001.66244697152
30
0.000277213625658296
11
-2403.23688206688
21
2001.18008506172
31
0.00027708871115259
  0
LINE
 8
GROUP0
10
-2694.37410900693
20
2001.18004813071
30
0.000298590390596093
11
-2694.57390985194
21
2001.66241004051
31
0.000298646306252143
  0
LINE
 8
GROUP0
10
-2399.57297960674
20
1999.66244697152
30
0.000277436886842641
11
-2399.37317876173
21
2000.14480888131
31
0.000277561801348347
  0
LINE
 8
GROUP0
10
-2695.30596065951
20
1998.93035923294
30
0.000298007799385164
11
-2694.89174709713
21
1999.24819647814
31
0.000298138897780564
  0
LINE
 8
GROUP0
10
-2694.37410900693
20
2000.1447719503
30
0.000298396335016426
11
-2694.30596065951
21
2000.66241004051
31
0.000298505129961341
  0
LINE
 8
GROUP0
10
-2695.7883225693
20
1998.73055838793
30
0.000297887058975516
11
-2695.30596065951
21
1998.93035923294
31
0.000298007799385164
  0
LINE
 8
GROUP0
10
-2402.71924397668
20
2002.07666053389
30
0.000277346148386337
11
-2403.03708122188
21
2001.66244697152
31
0.000277213625658296
  0
LINE
 8
GROUP0
10
-2695.30596065951
20
2002.39446084808
30
0.000298657120495782
11
-2695.7883225693
21
2002.59426169309
31
0.000298611282011108
  0
LINE
 8
GROUP0
10
-2695.7883225693
20
2002.59426169309
30
0.000298611282011108
11
-2696.30596065951
21
2002.66241004051
31
0.000298534675658912
  0
LINE
 8
GROUP0
10
-2694.57390985194
20
1999.66241004051
30
0.000298271420510721
11
-2694.37410900693
21
2000.1447719503
31
0.000298396335016426
  0
LINE
 8
GROUP0
10
-2399.37317876173
20
2000.14480888131
30
0.000277561801348347
11
-2399.30503041431
21
2000.66244697152
31
0.000277670596293261
  0
LINE
 8
GROUP0
10
-2730.62394021261
20
1911.18007706055
30
0.000132342156031984
11
-2730.82374105762
21
1911.66243897035
31
0.000132398071688034
  0
LINE
 8
GROUP0
10
-2730.55579186519
20
1910.66243897035
30
0.000132256895399346
11
-2730.62394021261
21
1911.18007706055
31
0.000132342156031984
  0
LINE
 8
GROUP0
10
-2694.30596065951
20
2000.66241004051
30
0.000298505129961341
11
-2694.37410900693
21
2001.18004813071
31
0.000298590390596093
  0
LINE
 8
GROUP0
10
-2696.30596065951
20
2002.66241004051
30
0.000298534675658912
11
-2696.82359874971
21
2002.59426169309
31
0.00029843252086158
  0
LINE
 8
GROUP0
10
-2400.30503041431
20
1998.93039616395
30
0.000277173265717084
11
-2399.89081685193
21
1999.24823340915
31
0.000277304364112485
  0
LINE
 8
GROUP0
10
-2399.89081685193
20
1999.24823340915
30
0.000277304364112485
11
-2399.57297960674
21
1999.66244697152
31
0.000277436886842641
  0
LINE
 8
GROUP0
10
-2694.57390985194
20
2001.66241004051
30
0.000298646306252143
11
-2694.89174709713
21
2002.07662360288
31
0.000298669066680313
  0
LINE
 8
GROUP0
10
-2694.89174709713
20
1999.24819647814
30
0.000298138897780564
11
-2694.57390985194
21
1999.66241004051
31
0.000298271420510721
  0
LINE
 8
GROUP0
10
-2694.89174709713
20
2002.07662360288
30
0.000298669066680313
11
-2695.30596065951
21
2002.39446084808
31
0.000298657120495782
  0
LINE
 8
GROUP0
10
-2730.62394021261
20
1910.14480088014
30
0.000132148100453022
11
-2730.55579186519
21
1910.66243897035
31
0.000132256895399346
  0
LINE
 8
GROUP0
10
-2698.23781231208
20
2000.1447719503
30
0.000297729189241003
11
-2698.03801146707
21
1999.66241004051
31
0.000297673273584953
  0
LINE
 8
GROUP0
10
-2698.23781231208
20
2001.18004813071
30
0.000297923244820669
11
-2698.30596065951
21
2000.66241004051
31
0.00029781444987364
  0
LINE
 8
GROUP0
10
-2696.82359874971
20
1998.73055838793
30
0.000297708297825988
11
-2696.30596065951
21
1998.66241004051
31
0.000297784904176068
  0
LINE
 8
GROUP0
10
-2697.30596065951
20
1998.93035923294
30
0.000297662459341313
11
-2696.82359874971
21
1998.73055838793
31
0.000297708297825988
  0
LINE
 8
GROUP0
10
-2697.30596065951
20
2002.39446084808
30
0.000298311780451932
11
-2697.72017422188
21
2002.07662360288
31
0.000298180682054416
  0
LINE
 8
GROUP0
10
-2696.82359874971
20
2002.59426169309
30
0.00029843252086158
11
-2697.30596065951
21
2002.39446084808
31
0.000298311780451932
  0
LINE
 8
GROUP0
10
-2698.30596065951
20
2000.66241004051
30
0.00029781444987364
11
-2698.23781231208
21
2000.1447719503
31
0.000297729189241003
  0
LINE
 8
GROUP0
10
-2730.82374105762
20
1911.66243897035
30
0.000132398071688034
11
-2731.14157830282
21
1912.07665253272
31
0.000132420832118318
  0
LINE
 8
GROUP0
10
-2697.72017422188
20
1999.24819647814
30
0.000297650513154668
11
-2697.30596065951
21
1998.93035923294
31
0.000297662459341313
  0
LINE
 8
GROUP0
10
-2732.55579186519
20
1908.66243897035
30
0.000131536669614074
11
-2732.03815377498
21
1908.73058731777
31
0.000131638824411406
  0
LINE
 8
GROUP0
10
-2734.55579186519
20
1910.66243897035
30
0.000131566215311646
11
-2734.48764351777
21
1910.14480088014
31
0.000131480954677599
  0
LINE
 8
GROUP0
10
-2696.30596065951
20
1998.66241004051
30
0.000297784904176068
11
-2695.7883225693
21
1998.73055838793
31
0.000297887058975516
  0
LINE
 8
GROUP0
10
-2698.03801146707
20
1999.66241004051
30
0.000297673273584953
11
-2697.72017422188
21
1999.24819647814
31
0.000297650513154668
  0
LINE
 8
GROUP0
10
-2698.03801146707
20
2001.66241004051
30
0.000298048159326375
11
-2698.23781231208
21
2001.18004813071
31
0.000297923244820669
  0
LINE
 8
GROUP0
10
-2697.72017422188
20
2002.07662360288
30
0.000298180682054416
11
-2698.03801146707
21
2001.66241004051
31
0.000298048159326375
  0
LINE
 8
GROUP0
10
-2363.32374105834
20
1911.66243897001
30
9.95793095359687e-007
11
-2363.64157830343
21
1912.07665253222
31
1.01855352564462e-006
  0
LINE
 8
GROUP0
10
-2363.05579186599
20
1910.6624389704
30
8.54616806672537e-007
11
-2363.1239402134
21
1911.1800770604
31
9.398774393099e-007
  0
LINE
 8
GROUP0
10
-2363.64157830336
20
1909.24822540855
30
4.88384625896288e-007
11
-2363.3237410583
21
1909.66243897077
31
6.20907353937605e-007
  0
LINE
 8
GROUP0
10
-2731.14157830282
20
1912.07665253272
30
0.000132420832118318
11
-2731.55579186519
21
1912.39448977791
31
0.000132408885931673
  0
LINE
 8
GROUP0
10
-2732.55579186519
20
1912.66243897035
30
0.000132286441096918
11
-2733.07342995539
21
1912.59429062292
31
0.000132184286297471
  0
LINE
 8
GROUP0
10
-2363.12394021338
20
1910.14480088039
30
7.45821860348439e-007
11
-2363.05579186599
21
1910.6624389704
31
8.54616806672537e-007
  0
LINE
 8
GROUP0
10
-2734.28784267276
20
1911.66243897035
30
0.000131799924762266
11
-2734.48764351777
21
1911.18007706055
31
0.00013167501025656
  0
LINE
 8
GROUP0
10
-2733.55579186519
20
1912.39448977791
30
0.000132063545887823
11
-2733.97000542756
21
1912.07665253272
31
0.000131932447492422
  0
LINE
 8
GROUP0
10
-2733.07342995539
20
1912.59429062292
30
0.000132184286297471
11
-2733.55579186519
21
1912.39448977791
31
0.000132063545887823
  0
LINE
 8
GROUP0
10
-2733.97000542756
20
1912.07665253272
30
0.000131932447492422
11
-2734.28784267276
21
1911.66243897035
31
0.000131799924762266
  0
LINE
 8
GROUP0
10
-2365.57342995519
20
1908.7305873185
30
5.77846692051409e-008
11
-2365.05579186518
21
1908.66243897111
31
1.34391021400226e-007
  0
LINE
 8
GROUP0
10
-2363.64157830343
20
1912.07665253222
30
1.01855352564462e-006
11
-2364.05579186565
21
1912.39448977728
31
1.00660733899915e-006
  0
LINE
 8
GROUP0
10
-2364.53815377518
20
1908.73058731852
30
2.36545818732559e-007
11
-2364.05579186557
21
1908.93038816347
31
3.57286228380715e-007
  0
LINE
 8
GROUP0
10
-2365.05579186518
20
1908.66243897111
30
1.34391021400226e-007
11
-2364.53815377518
21
1908.73058731852
31
2.36545818732559e-007
  0
LINE
 8
GROUP0
10
-2733.55579186519
20
1908.93038816278
30
0.000131414224777204
11
-2733.07342995539
21
1908.73058731777
31
0.000131460063261879
  0
LINE
 8
GROUP0
10
-2734.48764351777
20
1911.18007706055
30
0.00013167501025656
11
-2734.55579186519
21
1910.66243897035
31
0.000131566215311646
  0
LINE
 8
GROUP0
10
-2731.55579186519
20
1908.93038816278
30
0.000131759564821055
11
-2731.14157830282
21
1909.24822540797
31
0.00013189066321857
  0
LINE
 8
GROUP0
10
-2733.97000542756
20
1909.24822540797
30
0.000131402278592674
11
-2733.55579186519
21
1908.93038816278
31
0.000131414224777204
  0
LINE
 8
GROUP0
10
-2734.28784267276
20
1909.66243897035
30
0.000131425039020844
11
-2733.97000542756
21
1909.24822540797
31
0.000131402278592674
  0
LINE
 8
GROUP0
10
-2733.07342995539
20
1908.73058731777
30
0.000131460063261879
11
-2732.55579186519
21
1908.66243897035
31
0.000131536669614074
  0
LINE
 8
GROUP0
10
-2731.14157830282
20
1909.24822540797
30
0.00013189066321857
11
-2730.82374105762
21
1909.66243897035
31
0.000132023185946611
  0
LINE
 8
GROUP0
10
-2730.82374105762
20
1909.66243897035
30
0.000132023185946611
11
-2730.62394021261
21
1910.14480088014
31
0.000132148100453022
  0
LINE
 8
GROUP0
10
-2363.3237410583
20
1909.66243897077
30
6.20907353937605e-007
11
-2363.12394021338
21
1910.14480088039
31
7.45821860348439e-007
  0
LINE
 8
GROUP0
10
-2364.05579186557
20
1908.93038816347
30
3.57286228380715e-007
11
-2363.64157830336
21
1909.24822540855
31
4.88384625896288e-007
  0
LINE
 8
GROUP0
10
-2734.48764351777
20
1910.14480088014
30
0.000131480954677599
11
-2734.28784267276
21
1909.66243897035
31
0.000131425039020844
  0
LINE
 8
GROUP0
10
-2731.55579186519
20
1912.39448977791
30
0.000132408885931673
11
-2732.03815377498
21
1912.59429062292
31
0.000132363047446998
  0
LINE
 8
GROUP0
10
-2732.03815377498
20
1908.73058731777
30
0.000131638824411406
11
-2731.55579186519
21
1908.93038816278
31
0.000131759564821055
  0
LINE
 8
GROUP0
10
-2550.53767387838
20
1909.66243897035
30
0.000132623401599791
11
-2550.21983663319
21
1909.24822540797
31
0.000132600641171621
  0
LINE
 8
GROUP0
10
-2613.30562238005
20
1920.66243993071
30
0.000122228781872158
11
-2688.30562238005
21
1920.66243993071
31
0.000122228781872158
  0
LINE
 8
GROUP0
10
-2688.30562238005
20
1940.66243993071
30
0.000121175797743672
11
-2613.30562238005
21
1940.66243993071
31
0.000121175797743672
  0
LINE
 8
GROUP0
10
-2549.80562307081
20
1908.93038816278
30
0.000132612587356151
11
-2549.32326116102
21
1908.73058731777
31
0.000132658425840826
  0
LINE
 8
GROUP0
10
-2366.78784267216
20
1911.66243896993
30
3.97646169592036e-007
11
-2366.98764351708
21
1911.18007706031
31
2.72731663886194e-007
  0
LINE
 8
GROUP0
10
-2550.53767387838
20
1911.66243897035
30
0.000132998287341213
11
-2550.73747472339
21
1911.18007706055
31
0.000132873372835507
  0
LINE
 8
GROUP0
10
-2550.21983663319
20
1909.24822540797
30
0.000132600641171621
11
-2549.80562307081
21
1908.93038816278
31
0.000132612587356151
  0
LINE
 8
GROUP0
10
-2365.57342995528
20
1912.59429062218
30
7.82007704797083e-007
11
-2366.05579186489
21
1912.39448977723
31
6.61267295148926e-007
  0
LINE
 8
GROUP0
10
-2364.05579186565
20
1912.39448977728
30
1.00660733899915e-006
11
-2364.53815377527
21
1912.5942906222
31
9.60768854324501e-007
  0
LINE
 8
GROUP0
10
-2613.30562238005
20
1940.66243993071
30
0.000121175797743672
11
-2613.30562238005
21
1920.66243993071
31
0.000122228781872158
  0
LINE
 8
GROUP0
10
-2366.98764351706
20
1910.1448008803
30
7.86760849247337e-008
11
-2366.78784267211
21
1909.66243897069
31
2.27604281699545e-008
  0
LINE
 8
GROUP0
10
-2550.73747472339
20
1910.14480088014
30
0.000132679317256545
11
-2550.53767387838
21
1909.66243897035
31
0.000132623401599791
  0
LINE
 8
GROUP0
10
-2550.73747472339
20
1911.18007706055
30
0.000132873372835507
11
-2550.80562307081
21
1910.66243897035
31
0.000132764577890593
  0
LINE
 8
GROUP0
10
-2408.80549484633
20
1970.66243993078
30
3.91380723216594e-005
11
-2548.80549484633
21
1970.66243993078
31
3.91380724118984e-005
  0
LINE
 8
GROUP0
10
-2688.30562238005
20
1920.66243993071
30
0.000122228781872158
11
-2688.30562238005
21
1940.66243993071
31
0.000121175797743672
  0
LINE
 8
GROUP0
10
-2548.28798498061
20
1912.59429062293
30
0.000133561410025945
11
-2548.80562307081
21
1912.66243897035
31
0.000133484803675865
  0
LINE
 8
GROUP0
10
-2366.78784267211
20
1909.66243897069
30
2.27604281699545e-008
11
-2366.47000542703
21
1909.24822540849
31
0.0
  0
LINE
 8
GROUP0
10
-2365.05579186527
20
1912.66243896959
30
8.8416250424439e-007
11
-2365.57342995528
21
1912.59429062218
31
7.82007704797083e-007
  0
LINE
 8
GROUP0
10
-2363.1239402134
20
1911.1800770604
30
9.398774393099e-007
11
-2363.32374105834
21
1911.66243897001
31
9.95793095359687e-007
  0
LINE
 8
GROUP0
10
-2366.05579186489
20
1912.39448977723
30
6.61267295148926e-007
11
-2366.47000542709
21
1912.07665253215
31
5.30168899748329e-007
  0
LINE
 8
GROUP0
10
-2550.80562307081
20
1910.66243897035
30
0.000132764577890593
11
-2550.73747472339
21
1910.14480088014
31
0.000132679317256545
  0
LINE
 8
GROUP0
10
-2550.21983663319
20
1912.07665253272
30
0.000133130810071369
11
-2550.53767387838
21
1911.66243897035
31
0.000132998287341213
  0
LINE
 8
GROUP0
10
-2366.47000542709
20
1912.07665253215
30
5.30168899748329e-007
11
-2366.78784267216
21
1911.66243896993
31
3.97646169592036e-007
  0
LINE
 8
GROUP0
10
-2732.03815377498
20
1912.59429062292
30
0.000132363047446998
11
-2732.55579186519
21
1912.66243897035
31
0.000132286441096918
  0
LINE
 8
GROUP0
10
-2364.53815377527
20
1912.5942906222
30
9.60768854324501e-007
11
-2365.05579186527
21
1912.66243896959
31
8.8416250424439e-007
  0
LINE
 8
GROUP0
10
-2366.47000542703
20
1909.24822540849
30
0.0
11
-2366.05579186481
21
1908.93038816342
31
1.19461845304869e-008
  0
LINE
 8
GROUP0
10
-2367.05579186446
20
1910.6624389703
30
1.6393671897208e-007
11
-2366.98764351706
21
1910.1448008803
31
7.86760849247337e-008
  0
LINE
 8
GROUP0
10
-2548.80549484633
20
1970.66243993078
30
3.91380724118984e-005
11
-2548.80549484633
21
1920.66243993078
31
4.17705327814044e-005
  0
LINE
 8
GROUP0
10
-2366.05579186481
20
1908.93038816342
30
1.19461845304869e-008
11
-2365.57342995519
21
1908.7305873185
31
5.77846692051409e-008
  0
LINE
 8
GROUP0
10
-2366.98764351708
20
1911.18007706031
30
2.72731663886194e-007
11
-2367.05579186446
21
1910.6624389703
31
1.6393671897208e-007
  0
LINE
 8
GROUP0
10
-2408.805495537
20
1920.66243897035
30
3.86625531505924e-005
11
-2408.80549484633
21
1970.66243993078
31
3.91380723216594e-005
  0
LINE
 8
GROUP0
10
-2548.80562307081
20
1912.66243897035
30
0.000133484803675865
11
-2549.32326116102
21
1912.59429062293
31
0.000133382648876418
  0
LINE
 8
GROUP0
10
-2547.80562307081
20
1912.39448977792
30
0.00013360724851062
11
-2548.28798498061
21
1912.59429062293
31
0.000133561410025945
  0
LINE
 8
GROUP0
10
-2547.07357226324
20
1911.66243897035
30
0.00013359643426698
11
-2547.39140950844
21
1912.07665253272
31
0.000133619194697265
  0
LINE
 8
GROUP0
10
-2547.07357226324
20
1909.66243897035
30
0.000133221548525558
11
-2546.87377141824
21
1910.14480088014
31
0.000133346463031969
  0
LINE
 8
GROUP0
10
-2547.39140950844
20
1909.24822540797
30
0.000133089025797517
11
-2547.07357226324
21
1909.66243897035
31
0.000133221548525558
  0
LINE
 8
GROUP0
10
-2546.87377141824
20
1911.18007706055
30
0.000133540518610931
11
-2547.07357226324
21
1911.66243897035
31
0.00013359643426698
  0
LINE
 8
GROUP0
10
-2546.87377141824
20
1910.14480088014
30
0.000133346463031969
11
-2546.80562307081
21
1910.66243897035
31
0.000133455257978293
  0
LINE
 8
GROUP0
10
-2549.80562307081
20
1912.39448977792
30
0.00013326190846677
11
-2550.21983663319
21
1912.07665253272
31
0.000133130810071369
  0
LINE
 8
GROUP0
10
-2547.80562307081
20
1908.93038816278
30
0.000132957927400001
11
-2547.39140950844
21
1909.24822540797
31
0.000133089025797517
  0
LINE
 8
GROUP0
10
-2549.32326116102
20
1908.73058731777
30
0.000132658425840826
11
-2548.80562307081
21
1908.66243897035
31
0.000132735032193021
  0
LINE
 8
GROUP0
10
-2548.28798498061
20
1908.73058731777
30
0.000132837186990353
11
-2547.80562307081
21
1908.93038816278
31
0.000132957927400001
  0
LINE
 8
GROUP0
10
-2548.80562307081
20
1908.66243897035
30
0.000132735032193021
11
-2548.28798498061
21
1908.73058731777
31
0.000132837186990353
  0
LINE
 8
GROUP0
10
-2408.805495537
20
1920.66243897035
30
3.86625531505924e-005
11
-2548.80549484633
21
1920.66243993078
31
4.17705327814044e-005
  0
LINE
 8
GROUP0
10
-2547.39140950844
20
1912.07665253272
30
0.000133619194697265
11
-2547.80562307081
21
1912.39448977792
31
0.00013360724851062
  0
LINE
 8
GROUP0
10
-2549.32326116102
20
1912.59429062293
30
0.000133382648876418
11
-2549.80562307081
21
1912.39448977792
31
0.00013326190846677
  0
LINE
 8
GROUP0
10
-2546.80562307081
20
1910.66243897035
30
0.000133455257978293
11
-2546.87377141824
21
1911.18007706055
31
0.000133540518610931
 0
ENDSEC
 0
EOF
