 0
SECTION
 2
ENTITIES
  0
LINE
 8
GROUP0
10
5705.53378495049
20
2295.86090845248
30
0.000136443227947947
11
5705.53378495049
21
2320.86090845248
31
0.000136443229224666
  0
LINE
 8
GROUP0
10
6124.53378495032
20
2295.86090845249
30
0.000135643323023427
11
5705.53378495049
21
2295.86090845248
31
0.000136443227947947
  0
LINE
 8
GROUP0
10
6124.53378495032
20
2320.86090845249
30
0.000133916624802807
11
6124.53378495032
21
2295.86090845249
31
0.000135643323023427
  0
LINE
 8
GROUP0
10
6124.53378495032
20
2320.86090845249
30
0.000133916624802807
11
6134.53378495032
21
2320.86090845249
31
0.000135643325022058
  0
LINE
 8
GROUP0
10
6159.53378495032
20
2345.86092582263
30
0.000113441635430805
11
6134.53378495032
21
2320.86090845249
31
0.000135643325022058
  0
LINE
 8
GROUP0
10
6159.53378495032
20
2355.86092582262
30
0.000103989935602479
11
6159.53378495032
21
2345.86092582263
31
0.000113441635430805
  0
LINE
 8
GROUP0
10
6134.53378495032
20
2380.86094319276
30
7.8933092844179e-005
11
6159.53378495032
21
2355.86092582262
31
0.000103989935602479
  0
LINE
 8
GROUP0
10
6124.53378495032
20
2380.86094319276
30
7.72063926249279e-005
11
6134.53378495032
21
2380.86094319276
31
7.8933092844179e-005
  0
LINE
 8
GROUP0
10
6124.53378495032
20
2385.86090845249
30
0.000135643327619618
11
6124.53378495032
21
2380.86094319276
31
7.72063926249279e-005
  0
LINE
 8
GROUP0
10
6082.53437760684
20
2385.86090845248
30
0.000150980023139936
11
6124.53378495032
21
2385.86090845249
31
0.000135643327619618
  0
LINE
 8
GROUP0
10
6082.53437760684
20
2405.86092547243
30
0.000150980024161313
11
6082.53437760684
21
2385.86090845248
31
0.000150980023139936
  0
LINE
 8
GROUP0
10
5747.53344736157
20
2405.86094050121
30
3.14635271841011e-005
11
6082.53437760684
21
2405.86092547243
31
0.000150980024161313
  0
LINE
 8
GROUP0
10
5747.53344736157
20
2385.86094050121
30
3.14635261627253e-005
11
5747.53344736157
21
2405.86094050121
31
3.14635271841011e-005
  0
LINE
 8
GROUP0
10
5705.53378495049
20
2385.86094319276
30
7.63971023853865e-005
11
5747.53344736157
21
2385.86094050121
31
3.14635261627253e-005
  0
LINE
 8
GROUP0
10
5705.53378495049
20
2380.86094319276
30
7.97329970467876e-005
11
5705.53378495049
21
2385.86094319276
31
7.63971023853865e-005
  0
LINE
 8
GROUP0
10
5705.53378495049
20
2380.86094319276
30
7.97329970467876e-005
11
5695.53378495049
21
2380.86094319276
31
7.80062968275365e-005
  0
LINE
 8
GROUP0
10
5670.53378495049
20
2355.86102094048
30
9.98850942105342e-005
11
5695.53378495049
21
2380.86094319276
31
7.80062968275365e-005
  0
LINE
 8
GROUP0
10
5670.53378495049
20
2345.86092582262
30
0.000109336883916827
11
5670.53378495049
21
2355.86102094048
31
9.98850942105342e-005
  0
LINE
 8
GROUP0
10
5695.53378495049
20
2320.86090845248
30
0.000134716529005415
11
5670.53378495049
21
2345.86092582262
31
0.000109336883916827
  0
LINE
 8
GROUP0
10
5705.53378495049
20
2320.86090845248
30
0.000136443229224666
11
5695.53378495049
21
2320.86090845248
31
0.000134716529005415
  0
LINE
 8
GROUP0
10
6063.05201569712
20
2393.92906480108
30
0.000277052528765382
11
6063.53437760691
21
2394.12886564609
31
0.000277173269182414
  0
LINE
 8
GROUP0
10
6062.53437760691
20
2393.86091645366
30
0.000276950373964569
11
6063.05201569712
21
2393.92906480108
31
0.000277052528765382
  0
LINE
 8
GROUP0
10
6062.01673951671
20
2393.92906480108
30
0.000276873767615854
11
6062.53437760691
21
2393.86091645366
31
0.000276950373964569
  0
LINE
 8
GROUP0
10
6061.53437760691
20
2394.12886564609
30
0.000276827929138563
11
6062.01673951671
21
2393.92906480108
31
0.000276873767615854
  0
LINE
 8
GROUP0
10
6061.12016404454
20
2394.44670289128
30
0.000276815982964624
11
6061.53437760691
21
2394.12886564609
31
0.000276827929138563
  0
LINE
 8
GROUP0
10
6060.80232679934
20
2394.86091645366
30
0.000276838743409013
11
6061.12016404454
21
2394.44670289128
31
0.000276815982964624
  0
LINE
 8
GROUP0
10
6060.60252595433
20
2395.34327836345
30
0.000276894659082646
11
6060.80232679934
21
2394.86091645366
31
0.000276838743409013
  0
LINE
 8
GROUP0
10
6060.53437760691
20
2395.86091645366
30
0.000276979919735374
11
6060.60252595433
21
2395.34327836345
31
0.000276894659082646
  0
LINE
 8
GROUP0
10
6060.60252595433
20
2396.37855454386
30
0.000277088714700378
11
6060.53437760691
21
2395.86091645366
31
0.000276979919735374
  0
LINE
 8
GROUP0
10
6060.80232679934
20
2396.86091645366
30
0.000277213629223668
11
6060.60252595433
21
2396.37855454386
31
0.000277088714700378
  0
LINE
 8
GROUP0
10
6061.12016404454
20
2397.27513001603
30
0.000277346151967928
11
6060.80232679934
21
2396.86091645366
31
0.000277213629223668
  0
LINE
 8
GROUP0
10
6061.53437760691
20
2397.59296726123
30
0.000277477250376035
11
6061.12016404454
21
2397.27513001603
31
0.000277346151967928
  0
LINE
 8
GROUP0
10
6062.01673951671
20
2397.79276810624
30
0.000277597990793067
11
6061.53437760691
21
2397.59296726123
31
0.000277477250376035
  0
LINE
 8
GROUP0
10
6062.53437760691
20
2397.86091645366
30
0.000277700145593879
11
6062.01673951671
21
2397.79276810624
31
0.000277597990793067
  0
LINE
 8
GROUP0
10
6063.05201569712
20
2397.79276810624
30
0.000277776751942594
11
6062.53437760691
21
2397.86091645366
31
0.000277700145593879
  0
LINE
 8
GROUP0
10
6063.53437760691
20
2397.59296726123
30
0.000277822590419885
11
6063.05201569712
21
2397.79276810624
31
0.000277776751942594
  0
LINE
 8
GROUP0
10
6063.94859116928
20
2397.27513001603
30
0.000277834536593824
11
6063.53437760691
21
2397.59296726123
31
0.000277822590419885
  0
LINE
 8
GROUP0
10
6064.26642841448
20
2396.86091645366
30
0.000277811776149436
11
6063.94859116928
21
2397.27513001603
31
0.000277834536593824
  0
LINE
 8
GROUP0
10
6064.46622925949
20
2396.37855454386
30
0.000277755860475802
11
6064.26642841448
21
2396.86091645366
31
0.000277811776149436
  0
LINE
 8
GROUP0
10
6064.53437760691
20
2395.86091645366
30
0.000277670599823074
11
6064.46622925949
21
2396.37855454386
31
0.000277755860475802
  0
LINE
 8
GROUP0
10
6064.46622925949
20
2395.34327836345
30
0.00027756180485807
11
6064.53437760691
21
2395.86091645366
31
0.000277670599823074
  0
LINE
 8
GROUP0
10
6064.26642841448
20
2394.86091645366
30
0.000277436890334781
11
6064.46622925949
21
2395.34327836345
31
0.00027756180485807
  0
LINE
 8
GROUP0
10
6063.94859116928
20
2394.44670289128
30
0.000277304367590521
11
6064.26642841448
21
2394.86091645366
31
0.000277436890334781
  0
LINE
 8
GROUP0
10
6063.53437760691
20
2394.12886564609
30
0.000277173269182414
11
6063.94859116928
21
2394.44670289128
31
0.000277304367590521
  0
LINE
 8
GROUP0
10
5767.53344736171
20
2397.86087952265
30
0.000298534679171718
11
5767.01580927151
21
2397.79273117523
31
0.000298432524370905
  0
LINE
 8
GROUP0
10
5768.05108545192
20
2397.79273117523
30
0.000298611285520433
11
5767.53344736171
21
2397.86087952265
31
0.000298534679171718
  0
LINE
 8
GROUP0
10
5768.53344736171
20
2397.59293033022
30
0.000298657123997724
11
5768.05108545192
21
2397.79273117523
31
0.000298611285520433
  0
LINE
 8
GROUP0
10
5768.94766092408
20
2397.27509308502
30
0.000298669070171662
11
5768.53344736171
21
2397.59293033022
31
0.000298657123997724
  0
LINE
 8
GROUP0
10
5769.26549816928
20
2396.86087952265
30
0.000298646309727274
11
5768.94766092408
21
2397.27509308502
31
0.000298669070171662
  0
LINE
 8
GROUP0
10
5769.46529901429
20
2396.37851761285
30
0.000298590394053641
11
5769.26549816928
21
2396.86087952265
31
0.000298646309727274
  0
LINE
 8
GROUP0
10
5769.53344736171
20
2395.86087952265
30
0.000298505133400913
11
5769.46529901429
21
2396.37851761285
31
0.000298590394053641
  0
LINE
 8
GROUP0
10
5769.46529901429
20
2395.34324143244
30
0.000298396338435909
11
5769.53344736171
21
2395.86087952265
31
0.000298505133400913
  0
LINE
 8
GROUP0
10
5769.26549816928
20
2394.86087952265
30
0.000298271423912619
11
5769.46529901429
21
2395.34324143244
31
0.000298396338435909
  0
LINE
 8
GROUP0
10
5768.94766092408
20
2394.44666596027
30
0.000298138901168359
11
5769.26549816928
21
2394.86087952265
31
0.000298271423912619
  0
LINE
 8
GROUP0
10
5768.53344736171
20
2394.12882871508
30
0.000298007802760252
11
5768.94766092408
21
2394.44666596027
31
0.000298138901168359
  0
LINE
 8
GROUP0
10
5768.05108545192
20
2393.92902787007
30
0.00029788706234322
11
5768.53344736171
21
2394.12882871508
31
0.000298007802760252
  0
LINE
 8
GROUP0
10
5767.53344736171
20
2393.86087952265
30
0.000297784907542408
11
5768.05108545192
21
2393.92902787007
31
0.00029788706234322
  0
LINE
 8
GROUP0
10
5767.01580927151
20
2393.92902787007
30
0.000297708301193693
11
5767.53344736171
21
2393.86087952265
31
0.000297784907542408
  0
LINE
 8
GROUP0
10
5766.53344736171
20
2394.12882871508
30
0.000297662462716402
11
5767.01580927151
21
2393.92902787007
31
0.000297708301193693
  0
LINE
 8
GROUP0
10
5766.11923379934
20
2394.44666596027
30
0.000297650516542463
11
5766.53344736171
21
2394.12882871508
31
0.000297662462716402
  0
LINE
 8
GROUP0
10
5765.80139655414
20
2394.86087952265
30
0.000297673276986851
11
5766.11923379934
21
2394.44666596027
31
0.000297650516542463
  0
LINE
 8
GROUP0
10
5765.60159570913
20
2395.34324143244
30
0.000297729192660485
11
5765.80139655414
21
2394.86087952265
31
0.000297673276986851
  0
LINE
 8
GROUP0
10
5765.53344736171
20
2395.86087952265
30
0.000297814453313212
11
5765.60159570913
21
2395.34324143244
31
0.000297729192660485
  0
LINE
 8
GROUP0
10
5765.60159570913
20
2396.37851761285
30
0.000297923248278217
11
5765.53344736171
21
2395.86087952265
31
0.000297814453313212
  0
LINE
 8
GROUP0
10
5765.80139655414
20
2396.86087952265
30
0.000298048162801506
11
5765.60159570913
21
2396.37851761285
31
0.000297923248278217
  0
LINE
 8
GROUP0
10
5766.11923379934
20
2397.27509308502
30
0.000298180685545766
11
5765.80139655414
21
2396.86087952265
31
0.000298048162801506
  0
LINE
 8
GROUP0
10
5766.53344736171
20
2397.59293033022
30
0.000298311783953873
11
5766.11923379934
21
2397.27509308502
31
0.000298180685545766
  0
LINE
 8
GROUP0
10
5767.01580927151
20
2397.79273117523
30
0.000298432524370905
11
5766.53344736171
21
2397.59293033022
31
0.000298311783953873
  0
LINE
 8
GROUP0
10
5733.0156669636
20
2306.86090845248
30
0.000132398071866275
11
5732.6978297184
21
2307.27512201486
31
0.000132420832310663
  0
LINE
 8
GROUP0
10
5733.21546780861
20
2306.37854654269
30
0.000132342156192641
11
5733.0156669636
21
2306.86090845248
31
0.000132398071866275
  0
LINE
 8
GROUP0
10
5733.28361615603
20
2305.86090845248
30
0.000132256895539914
11
5733.21546780861
21
2306.37854654269
31
0.000132342156192641
  0
LINE
 8
GROUP0
10
5733.21546780861
20
2305.34327036228
30
0.000132148100574909
11
5733.28361615603
21
2305.86090845248
31
0.000132256895539914
  0
LINE
 8
GROUP0
10
5733.0156669636
20
2304.86090845248
30
0.00013202318605162
11
5733.21546780861
21
2305.34327036228
31
0.000132148100574909
  0
LINE
 8
GROUP0
10
5732.6978297184
20
2304.44669489011
30
0.00013189066330736
11
5733.0156669636
21
2304.86090845248
31
0.00013202318605162
  0
LINE
 8
GROUP0
10
5732.28361615603
20
2304.12885764492
30
0.000131759564899253
11
5732.6978297184
21
2304.44669489011
31
0.00013189066330736
  0
LINE
 8
GROUP0
10
5731.80125424623
20
2303.92905679991
30
0.000131638824482221
11
5732.28361615603
21
2304.12885764492
31
0.000131759564899253
  0
LINE
 8
GROUP0
10
5731.28361615603
20
2303.86090845248
30
0.000131536669681408
11
5731.80125424623
21
2303.92905679991
31
0.000131638824482221
  0
LINE
 8
GROUP0
10
5730.76597806582
20
2303.92905679991
30
0.000131460063332694
11
5731.28361615603
21
2303.86090845248
31
0.000131536669681408
  0
LINE
 8
GROUP0
10
5730.28361615603
20
2304.12885764492
30
0.000131414224855403
11
5730.76597806582
21
2303.92905679991
31
0.000131460063332694
  0
LINE
 8
GROUP0
10
5729.86940259366
20
2304.44669489011
30
0.000131402278681464
11
5730.28361615603
21
2304.12885764492
31
0.000131414224855403
  0
LINE
 8
GROUP0
10
5729.55156534846
20
2304.86090845248
30
0.000131425039125852
11
5729.86940259366
21
2304.44669489011
31
0.000131402278681464
  0
LINE
 8
GROUP0
10
5729.35176450345
20
2305.34327036228
30
0.000131480954799486
11
5729.55156534846
21
2304.86090845248
31
0.000131425039125852
  0
LINE
 8
GROUP0
10
5729.28361615603
20
2305.86090845248
30
0.000131566215452213
11
5729.35176450345
21
2305.34327036228
31
0.000131480954799486
  0
LINE
 8
GROUP0
10
5729.35176450345
20
2306.37854654269
30
0.000131675010417218
11
5729.28361615603
21
2305.86090845248
31
0.000131566215452213
  0
LINE
 8
GROUP0
10
5729.55156534846
20
2306.86090845248
30
0.000131799924940507
11
5729.35176450345
21
2306.37854654269
31
0.000131675010417218
  0
LINE
 8
GROUP0
10
5729.86940259365
20
2307.27512201486
30
0.000131932447684767
11
5729.55156534846
21
2306.86090845248
31
0.000131799924940507
  0
LINE
 8
GROUP0
10
5730.28361615603
20
2307.59295926005
30
0.000132063546092874
11
5729.86940259365
21
2307.27512201486
31
0.000131932447684767
  0
LINE
 8
GROUP0
10
5730.76597806582
20
2307.79276010506
30
0.000132184286509906
11
5730.28361615603
21
2307.59295926005
31
0.000132063546092874
  0
LINE
 8
GROUP0
10
5731.28361615603
20
2307.86090845248
30
0.000132286441310718
11
5730.76597806582
21
2307.79276010506
31
0.000132184286509906
  0
LINE
 8
GROUP0
10
5731.80125424623
20
2307.79276010506
30
0.000132363047659433
11
5731.28361615603
21
2307.86090845248
31
0.000132286441310718
  0
LINE
 8
GROUP0
10
5732.28361615603
20
2307.59295926005
30
0.000132408886136724
11
5731.80125424623
21
2307.79276010506
31
0.000132363047659433
  0
LINE
 8
GROUP0
10
5732.6978297184
20
2307.27512201486
30
0.000132420832310663
11
5732.28361615603
21
2307.59295926005
31
0.000132408886136724
  0
LINE
 8
GROUP0
10
6100.19782971779
20
2307.27512201435
30
1.01855362775042e-006
11
6099.78361615557
21
2307.59295925942
31
1.00660745381154e-006
  0
LINE
 8
GROUP0
10
6100.51566696287
20
2306.86090845215
30
9.95793183361996e-007
11
6100.19782971779
21
2307.27512201435
31
1.01855362775042e-006
  0
LINE
 8
GROUP0
10
6100.71546780782
20
2306.37854654254
30
9.39877509728511e-007
11
6100.51566696287
21
2306.86090845215
31
9.95793183361996e-007
  0
LINE
 8
GROUP0
10
6100.78361615522
20
2305.86090845253
30
8.54616857000909e-007
11
6100.71546780782
21
2306.37854654254
31
9.39877509728511e-007
  0
LINE
 8
GROUP0
10
6100.71546780784
20
2305.34327036253
30
7.45821891996556e-007
11
6100.78361615522
21
2305.86090845253
31
8.54616857000909e-007
  0
LINE
 8
GROUP0
10
6100.51566696292
20
2304.86090845291
30
6.20907368707016e-007
11
6100.71546780784
21
2305.34327036253
31
7.45821891996556e-007
  0
LINE
 8
GROUP0
10
6100.19782971785
20
2304.44669489069
30
4.88384624447234e-007
11
6100.51566696292
21
2304.86090845291
31
6.20907368707016e-007
  0
LINE
 8
GROUP0
10
6099.78361615565
20
2304.1288576456
30
3.57286216340049e-007
11
6100.19782971785
21
2304.44669489069
31
4.88384624447234e-007
  0
LINE
 8
GROUP0
10
6099.30125424604
20
2303.92905680066
30
2.36545799308241e-007
11
6099.78361615565
21
2304.1288576456
31
3.57286216340049e-007
  0
LINE
 8
GROUP0
10
6098.78361615603
20
2303.86090845325
30
1.34390998495658e-007
11
6099.30125424604
21
2303.92905680066
31
2.36545799308241e-007
  0
LINE
 8
GROUP0
10
6098.26597806603
20
2303.92905680064
30
5.77846497808231e-008
11
6098.78361615603
21
2303.86090845325
31
1.34390998495658e-007
  0
LINE
 8
GROUP0
10
6097.78361615641
20
2304.12885764556
30
1.19461724898204e-008
11
6098.26597806603
21
2303.92905680064
31
5.77846497808231e-008
  0
LINE
 8
GROUP0
10
6097.36940259419
20
2304.44669489062
30
-1.44905382181218e-015
11
6097.78361615641
21
2304.12885764556
31
1.19461724898204e-008
  0
LINE
 8
GROUP0
10
6097.0515653491
20
2304.86090845283
30
2.27604429393654e-008
11
6097.36940259419
21
2304.44669489062
31
-1.44905382181218e-015
  0
LINE
 8
GROUP0
10
6096.85176450416
20
2305.34327036244
30
7.86761165728505e-008
11
6097.0515653491
21
2304.86090845283
31
2.27604429393654e-008
  0
LINE
 8
GROUP0
10
6096.78361615675
20
2305.86090845244
30
1.63936769300452e-007
11
6096.85176450416
21
2305.34327036244
31
7.86761165728505e-008
  0
LINE
 8
GROUP0
10
6096.85176450414
20
2306.37854654245
30
2.72731734304806e-007
11
6096.78361615675
21
2305.86090845244
31
1.63936769300452e-007
  0
LINE
 8
GROUP0
10
6097.05156534906
20
2306.86090845207
30
3.97646257594345e-007
11
6096.85176450414
21
2306.37854654245
31
2.72731734304806e-007
  0
LINE
 8
GROUP0
10
6097.36940259412
20
2307.27512201429
30
5.30169001854128e-007
11
6097.05156534906
21
2306.86090845207
31
3.97646257594345e-007
  0
LINE
 8
GROUP0
10
6097.78361615633
20
2307.59295925937
30
6.61267409961312e-007
11
6097.36940259412
21
2307.27512201429
31
5.30169001854128e-007
  0
LINE
 8
GROUP0
10
6098.26597806594
20
2307.79276010432
30
7.82007826993078e-007
11
6097.78361615633
21
2307.59295925937
31
6.61267409961312e-007
  0
LINE
 8
GROUP0
10
6098.78361615594
20
2307.86090845172
30
8.84162627805703e-007
11
6098.26597806594
21
2307.79276010432
31
7.82007826993078e-007
  0
LINE
 8
GROUP0
10
6099.30125424595
20
2307.79276010434
30
9.60768976520495e-007
11
6098.78361615594
21
2307.86090845172
31
8.84162627805703e-007
  0
LINE
 8
GROUP0
10
6099.78361615557
20
2307.59295925942
30
1.00660745381154e-006
11
6099.30125424595
21
2307.79276010434
31
9.60768976520495e-007
  0
LINE
 8
GROUP0
10
5830.53378564117
20
2315.86090941284
30
0.000121030419801353
11
5755.53378564117
21
2315.86090941284
31
0.000121030419801353
  0
LINE
 8
GROUP0
10
5755.53378564117
20
2315.86090941284
30
0.000121030419801353
11
5755.53378564117
21
2335.86090941284
31
0.00011997743649473
  0
LINE
 8
GROUP0
10
5755.53378564117
20
2335.86090941284
30
0.00011997743649473
11
5830.53378564117
21
2335.86090941284
31
0.00011997743649473
  0
LINE
 8
GROUP0
10
5830.53378564117
20
2335.86090941284
30
0.00011997743649473
11
5830.53378564117
21
2315.86090941284
31
0.000121030419801353
  0
LINE
 8
GROUP0
10
6055.03391248422
20
2315.86090845249
30
3.86625535684954e-005
11
5915.03391317488
21
2315.86090941291
31
4.17705334700242e-005
  0
LINE
 8
GROUP0
10
5915.03391317488
20
2365.86090941291
30
3.91380748425123e-005
11
5915.03391317488
21
2315.86090941291
31
4.17705334700242e-005
  0
LINE
 8
GROUP0
10
6055.03391317488
20
2365.86090941291
30
3.91380744815566e-005
11
5915.03391317488
21
2365.86090941291
31
3.91380748425123e-005
  0
LINE
 8
GROUP0
10
6055.03391248422
20
2315.86090845249
30
3.86625535684954e-005
11
6055.03391317488
21
2365.86090941291
31
3.91380744815566e-005
  0
LINE
 8
GROUP0
10
5914.0337849504
20
2304.12885764492
30
0.000132612587344111
11
5914.5161468602
21
2303.92905679991
31
0.000132658425821402
  0
LINE
 8
GROUP0
10
5913.61957138803
20
2304.44669489011
30
0.000132600641170172
11
5914.0337849504
21
2304.12885764492
31
0.000132612587344111
  0
LINE
 8
GROUP0
10
5913.30173414283
20
2304.86090845248
30
0.00013262340161456
11
5913.61957138803
21
2304.44669489011
31
0.000132600641170172
  0
LINE
 8
GROUP0
10
5913.10193329783
20
2305.34327036228
30
0.000132679317288194
11
5913.30173414283
21
2304.86090845248
31
0.00013262340161456
  0
LINE
 8
GROUP0
10
5913.0337849504
20
2305.86090845249
30
0.000132764577940921
11
5913.10193329783
21
2305.34327036228
31
0.000132679317288194
  0
LINE
 8
GROUP0
10
5913.10193329783
20
2306.37854654269
30
0.000132873372905926
11
5913.0337849504
21
2305.86090845249
31
0.000132764577940921
  0
LINE
 8
GROUP0
10
5913.30173414283
20
2306.86090845248
30
0.000132998287429215
11
5913.10193329783
21
2306.37854654269
31
0.000132873372905926
  0
LINE
 8
GROUP0
10
5913.61957138803
20
2307.27512201486
30
0.000133130810173475
11
5913.30173414283
21
2306.86090845248
31
0.000132998287429215
  0
LINE
 8
GROUP0
10
5914.0337849504
20
2307.59295926005
30
0.000133261908581582
11
5913.61957138803
21
2307.27512201486
31
0.000133130810173475
  0
LINE
 8
GROUP0
10
5914.5161468602
20
2307.79276010506
30
0.000133382648998614
11
5914.0337849504
21
2307.59295926005
31
0.000133261908581582
  0
LINE
 8
GROUP0
10
5915.0337849504
20
2307.86090845248
30
0.000133484803799426
11
5914.5161468602
21
2307.79276010506
31
0.000133382648998614
  0
LINE
 8
GROUP0
10
5915.55142304061
20
2307.79276010506
30
0.000133561410148141
11
5915.0337849504
21
2307.86090845248
31
0.000133484803799426
  0
LINE
 8
GROUP0
10
5916.0337849504
20
2307.59295926005
30
0.000133607248625432
11
5915.55142304061
21
2307.79276010506
31
0.000133561410148141
  0
LINE
 8
GROUP0
10
5916.44799851278
20
2307.27512201486
30
0.000133619194799371
11
5916.0337849504
21
2307.59295926005
31
0.000133607248625432
  0
LINE
 8
GROUP0
10
5916.76583575797
20
2306.86090845249
30
0.000133596434354983
11
5916.44799851278
21
2307.27512201486
31
0.000133619194799371
  0
LINE
 8
GROUP0
10
5916.96563660298
20
2306.37854654269
30
0.000133540518681349
11
5916.76583575797
21
2306.86090845249
31
0.000133596434354983
  0
LINE
 8
GROUP0
10
5917.0337849504
20
2305.86090845249
30
0.000133455258028622
11
5916.96563660298
21
2306.37854654269
31
0.000133540518681349
  0
LINE
 8
GROUP0
10
5916.96563660298
20
2305.34327036228
30
0.000133346463063617
11
5917.0337849504
21
2305.86090845249
31
0.000133455258028622
  0
LINE
 8
GROUP0
10
5916.76583575797
20
2304.86090845249
30
0.000133221548540328
11
5916.96563660298
21
2305.34327036228
31
0.000133346463063617
  0
LINE
 8
GROUP0
10
5916.44799851278
20
2304.44669489011
30
0.000133089025796068
11
5916.76583575797
21
2304.86090845249
31
0.000133221548540328
  0
LINE
 8
GROUP0
10
5916.0337849504
20
2304.12885764492
30
0.000132957927387961
11
5916.44799851278
21
2304.44669489011
31
0.000133089025796068
  0
LINE
 8
GROUP0
10
5915.55142304061
20
2303.92905679991
30
0.000132837186970929
11
5916.0337849504
21
2304.12885764492
31
0.000132957927387961
  0
LINE
 8
GROUP0
10
5915.0337849504
20
2303.86090845249
30
0.000132735032170116
11
5915.55142304061
21
2303.92905679991
31
0.000132837186970929
  0
LINE
 8
GROUP0
10
5914.5161468602
20
2303.92905679991
30
0.000132658425821402
11
5915.0337849504
21
2303.86090845249
31
0.000132735032170116
  0
LINE
 8
GROUP0
10
5913.61957138803
20
2394.44670289128
30
0.000132600645766363
11
5914.0337849504
21
2394.12886564609
31
0.000132612591940302
  0
LINE
 8
GROUP0
10
5913.30173414283
20
2394.86091645366
30
0.000132623406210752
11
5913.61957138803
21
2394.44670289128
31
0.000132600645766363
  0
LINE
 8
GROUP0
10
5913.10193329783
20
2395.34327836345
30
0.000132679321884385
11
5913.30173414283
21
2394.86091645366
31
0.000132623406210752
  0
LINE
 8
GROUP0
10
5913.0337849504
20
2395.86091645366
30
0.000132764582537113
11
5913.10193329783
21
2395.34327836345
31
0.000132679321884385
  0
LINE
 8
GROUP0
10
5913.10193329783
20
2396.37855454386
30
0.000132873377502117
11
5913.0337849504
21
2395.86091645366
31
0.000132764582537113
  0
LINE
 8
GROUP0
10
5913.30173414283
20
2396.86091645366
30
0.000132998292025407
11
5913.10193329783
21
2396.37855454386
31
0.000132873377502117
  0
LINE
 8
GROUP0
10
5913.61957138803
20
2397.27513001603
30
0.000133130814769666
11
5913.30173414283
21
2396.86091645366
31
0.000132998292025407
  0
LINE
 8
GROUP0
10
5914.0337849504
20
2397.59296726123
30
0.000133261913177774
11
5913.61957138803
21
2397.27513001603
31
0.000133130814769666
  0
LINE
 8
GROUP0
10
5914.5161468602
20
2397.79276810623
30
0.000133382653594805
11
5914.0337849504
21
2397.59296726123
31
0.000133261913177774
  0
LINE
 8
GROUP0
10
5915.0337849504
20
2397.86091645366
30
0.000133484808395618
11
5914.5161468602
21
2397.79276810623
31
0.000133382653594805
  0
LINE
 8
GROUP0
10
5915.55142304061
20
2397.79276810624
30
0.000133561414744333
11
5915.0337849504
21
2397.86091645366
31
0.000133484808395618
  0
LINE
 8
GROUP0
10
5916.0337849504
20
2397.59296726123
30
0.000133607253221624
11
5915.55142304061
21
2397.79276810624
31
0.000133561414744333
  0
LINE
 8
GROUP0
10
5916.44799851278
20
2397.27513001603
30
0.000133619199395563
11
5916.0337849504
21
2397.59296726123
31
0.000133607253221624
  0
LINE
 8
GROUP0
10
5916.76583575797
20
2396.86091645366
30
0.000133596438951174
11
5916.44799851278
21
2397.27513001603
31
0.000133619199395563
  0
LINE
 8
GROUP0
10
5916.96563660298
20
2396.37855454386
30
0.000133540523277541
11
5916.76583575797
21
2396.86091645366
31
0.000133596438951174
  0
LINE
 8
GROUP0
10
5917.0337849504
20
2395.86091645366
30
0.000133455262624813
11
5916.96563660298
21
2396.37855454386
31
0.000133540523277541
  0
LINE
 8
GROUP0
10
5916.96563660298
20
2395.34327836345
30
0.000133346467659809
11
5917.0337849504
21
2395.86091645366
31
0.000133455262624813
  0
LINE
 8
GROUP0
10
5916.76583575797
20
2394.86091645366
30
0.000133221553136519
11
5916.96563660298
21
2395.34327836345
31
0.000133346467659809
  0
LINE
 8
GROUP0
10
5916.44799851278
20
2394.44670289128
30
0.000133089030392259
11
5916.76583575797
21
2394.86091645366
31
0.000133221553136519
  0
LINE
 8
GROUP0
10
5916.0337849504
20
2394.12886564609
30
0.000132957931984152
11
5916.44799851278
21
2394.44670289128
31
0.000133089030392259
  0
LINE
 8
GROUP0
10
5915.55142304061
20
2393.92906480108
30
0.00013283719156712
11
5916.0337849504
21
2394.12886564609
31
0.000132957931984152
  0
LINE
 8
GROUP0
10
5915.0337849504
20
2393.86091645366
30
0.000132735036766308
11
5915.55142304061
21
2393.92906480108
31
0.00013283719156712
  0
LINE
 8
GROUP0
10
5914.5161468602
20
2393.92906480108
30
0.000132658430417593
11
5915.0337849504
21
2393.86091645366
31
0.000132735036766308
  0
LINE
 8
GROUP0
10
5914.0337849504
20
2394.12886564609
30
0.000132612591940302
11
5914.5161468602
21
2393.92906480108
31
0.000132658430417593
 0
ENDSEC
 0
EOF
