 0
SECTION
 2
ENTITIES
  0
LINE
 8
GROUP0
10
4940.18403625711
20
2821.88713602793
30
0.000496257914645837
11
4898.68462546417
21
2821.88720513968
31
0.000530262088942329
  0
LINE
 8
GROUP0
10
4980.18486374739
20
3368.38712084427
30
0.00116625409101215
11
4980.18487033839
21
3373.38712084427
31
0.00116875130886574
  0
LINE
 8
GROUP0
10
4562.6836952196
20
2821.88766644365
30
0.0
11
4521.18403625782
21
2821.88774250627
31
0.000145287000787547
  0
LINE
 8
GROUP0
10
4529.45260343305
20
2832.88768601941
30
0.000137493572946645
11
4529.25280285763
21
2832.405323998
31
0.000136752393900264
  0
LINE
 8
GROUP0
10
4529.25280343621
20
2831.37004781771
30
0.000135954327253379
11
4529.45260455077
21
2830.88768601962
31
0.000135951826955477
  0
LINE
 8
GROUP0
10
4940.18408788613
20
2846.38719722828
30
0.000685020223946864
11
5007.68419282201
21
2846.38711107623
31
0.000766570690050605
  0
LINE
 8
GROUP0
10
4980.18487033839
20
3373.38712084427
30
0.00116875130886574
11
4950.18490740482
21
3403.38716215404
31
0.00115182876626362
  0
LINE
 8
GROUP0
10
4521.18403625782
20
2821.88774250627
30
0.000145287000787547
11
4521.18465156413
21
2846.38767415113
31
0.000145644632785413
  0
LINE
 8
GROUP0
10
4529.18465479951
20
2831.88768586977
30
0.000136227385961468
11
4529.25280343621
21
2831.37004781771
31
0.000135954327253379
  0
LINE
 8
GROUP0
10
4521.18465156413
20
2846.38767415113
30
0.000145644632785413
11
4453.68469458072
21
2846.38767415113
31
6.93295318137499e-005
  0
LINE
 8
GROUP0
10
4530.18465383142
20
2833.61973723601
30
0.000139411114303134
11
4529.77044044672
21
2833.30189975936
31
0.00013840041296429
  0
LINE
 8
GROUP0
10
4562.6836952196
20
2821.88766644365
30
0.0
11
4562.68419847491
21
2841.8876664371
31
9.43331377868506e-005
  0
LINE
 8
GROUP0
10
4529.77044044672
20
2833.30189975936
30
0.00013840041296429
11
4529.45260343305
21
2832.88768601941
31
0.000137493572946645
  0
LINE
 8
GROUP0
10
4898.68465190924
20
2841.88722215961
30
0.000530262126249076
11
4898.68462546417
21
2821.88720513968
31
0.000530262088942329
  0
LINE
 8
GROUP0
10
4940.18408788613
20
2846.38719722828
30
0.000685020223946864
11
4940.18403625711
21
2821.88713602793
31
0.000496257914645837
  0
LINE
 8
GROUP0
10
4530.66701562951
20
2833.81953835057
30
0.000140456799179617
11
4530.18465383142
21
2833.61973723601
31
0.000139411114303134
  0
LINE
 8
GROUP0
10
4562.68419847491
20
2841.8876664371
30
9.43331377868506e-005
11
4898.68465190924
21
2841.88722215961
31
0.000530262126249076
  0
LINE
 8
GROUP0
10
5007.68486374731
20
3368.38708636845
30
0.0012199401116071
11
5007.68419282201
21
2846.38711107623
31
0.000766570690050605
  0
LINE
 8
GROUP0
10
5007.68486374731
20
3368.38708636845
30
0.0012199401116071
11
4980.18486374739
21
3368.38712084427
31
0.00116625409101215
  0
LINE
 8
GROUP0
10
4481.18483105935
20
3368.38776004888
30
0.000496713831387419
11
4481.18483767061
21
3373.38776004888
31
0.000498605500582833
  0
LINE
 8
GROUP0
10
4940.18493435466
20
3423.8871752582
30
0.00115048647007647
11
4940.18490740483
21
3403.38717525823
31
0.00113771274802581
  0
LINE
 8
GROUP0
10
4521.18483971548
20
3403.38773282446
30
0.000576699906938605
11
4511.1848397155
21
3403.38774604699
31
0.000558645903326915
  0
LINE
 8
GROUP0
10
4929.66727924502
20
3411.95533618467
30
0.00113144705777896
11
4930.18491724564
21
3411.88718715674
31
0.0011323513966083
  0
LINE
 8
GROUP0
10
4928.4528677527
20
3412.88718943374
30
0.00112992051511187
11
4928.77070445335
21
3412.47297545353
31
0.00113018874094871
  0
LINE
 8
GROUP0
10
4521.1848322533
20
3423.88772242242
30
0.000606150698142988
11
4521.18483971548
21
3403.38773282446
31
0.000576699906938605
  0
LINE
 8
GROUP0
10
4453.68469458072
20
2846.38767415113
30
6.93295318137499e-005
11
4453.68487807074
21
3368.38774029549
31
0.000475203833815463
  0
LINE
 8
GROUP0
10
4930.18491724564
20
3411.88718715674
30
0.0011323513966083
11
4930.70255542543
21
3411.95533482367
31
0.00113336080340417
  0
LINE
 8
GROUP0
10
4481.18483105935
20
3368.38776004888
30
0.000496713831387419
11
4453.68487807074
21
3368.38774029549
31
0.000475203833815463
  0
LINE
 8
GROUP0
10
4521.1848322533
20
3423.88772242242
30
0.000606150698142988
11
4940.18493435466
21
3423.8871752582
31
0.00115048647007647
  0
LINE
 8
GROUP0
10
4928.77070445335
20
3412.47297545353
30
0.00113018874094871
11
4929.18491759789
21
3412.1551376638
31
0.00113070941636502
  0
LINE
 8
GROUP0
10
4940.18490740483
20
3403.38717525823
30
0.00113771274802581
11
4950.18490740482
21
3403.38716215404
31
0.00115182876626362
  0
LINE
 8
GROUP0
10
4928.25306754181
20
3413.3695516062
30
0.00112992301732241
11
4928.4528677527
21
3412.88718943374
31
0.00112992051511187
  0
LINE
 8
GROUP0
10
4928.18491987489
20
3413.88718978599
30
0.00113019607732063
11
4928.25306754181
21
3413.3695516062
31
0.00112992301732241
  0
LINE
 8
GROUP0
10
4929.18491759789
20
3412.1551376638
30
0.00113070941636502
11
4929.66727924502
21
3411.95533618467
31
0.00113144705777896
  0
LINE
 8
GROUP0
10
4511.1848397155
20
3403.38774604699
30
0.000558645903326915
11
4481.18483767061
21
3373.38776004888
31
0.000498605500582833
  0
LINE
 8
GROUP0
10
4928.25306890282
20
3414.40482778661
30
0.00113072108654181
11
4928.18491987489
21
3413.88718978599
31
0.00113019607732063
  0
LINE
 8
GROUP0
10
4931.18492215188
20
3415.61923664968
30
0.00113707688163022
11
4930.70256050476
21
3415.81903812882
31
0.00113633924021628
  0
LINE
 8
GROUP0
10
4932.11677220795
20
3414.40482270728
30
0.0011378632806686
11
4931.91697199707
21
3414.88718487974
31
0.00113786578288337
  0
LINE
 8
GROUP0
10
4931.91696936783
20
3412.88718487974
30
0.0011363240304937
11
4932.11677084696
21
3413.36954652687
31
0.00113706521145343
  0
LINE
 8
GROUP0
10
4929.66728432434
20
3415.81903948982
30
0.0011344254945953
11
4929.18492215189
21
3415.61923927893
31
0.00113337980994935
  0
LINE
 8
GROUP0
10
4928.77070817168
20
3415.30140257828
30
0.00113236910782303
11
4928.45287038195
21
3414.88718943374
31
0.00113146226750013
  0
LINE
 8
GROUP0
10
4931.91697199707
20
3414.88718487974
30
0.00113786578288337
11
4931.59913529642
21
3415.30139885995
31
0.00113759755705076
  0
LINE
 8
GROUP0
10
4932.18491987488
20
3413.88718452749
30
0.00113759022067884
11
4932.11677220795
21
3414.40482270728
31
0.0011378632806686
  0
LINE
 8
GROUP0
10
4931.59913529642
20
3415.30139885995
30
0.00113759755705076
11
4931.18492215188
21
3415.61923664968
31
0.00113707688163022
  0
LINE
 8
GROUP0
10
4928.45287038195
20
3414.88718943374
30
0.00113146226750013
11
4928.25306890282
21
3414.40482778661
31
0.00113072108654181
  0
LINE
 8
GROUP0
10
4930.18492250414
20
3415.88718715674
30
0.00113543490138694
11
4929.66728432434
21
3415.81903948982
31
0.0011344254945953
  0
LINE
 8
GROUP0
10
4932.11677084696
20
3413.36954652687
30
0.00113706521145343
11
4932.18491987488
21
3413.88718452749
31
0.00113759022067884
  0
LINE
 8
GROUP0
10
4930.70256050476
20
3415.81903812882
30
0.00113633924021628
11
4930.18492250414
21
3415.88718715674
31
0.00113543490138694
  0
LINE
 8
GROUP0
10
4931.59913157809
20
3412.47297173521
30
0.00113541719017926
11
4931.91696936783
21
3412.88718487974
31
0.0011363240304937
  0
LINE
 8
GROUP0
10
4929.18492215189
20
3415.61923927893
30
0.00113337980994935
11
4928.77070817168
21
3415.30140257828
31
0.00113236910782303
  0
LINE
 8
GROUP0
10
4931.18491759788
20
3412.15513503455
30
0.00113440648804589
11
4931.59913157809
21
3412.47297173521
31
0.00113541719017926
  0
LINE
 8
GROUP0
10
4529.77061825325
20
3412.47350044717
30
0.000555851479836394
11
4530.18483139779
21
3412.15566265744
31
0.000556372155260465
  0
LINE
 8
GROUP0
10
4529.4527815526
20
3412.88771442737
30
0.000555583254003078
11
4529.77061825325
21
3412.47350044717
31
0.000555851479836394
  0
LINE
 8
GROUP0
10
4532.18483139778
20
3412.15566002818
30
0.000560069226940624
11
4532.59904537798
21
3412.47349672884
31
0.000561079929071878
  0
LINE
 8
GROUP0
10
4531.70246922532
20
3411.9558598173
30
0.000559023542291853
11
4532.18483139778
21
3412.15566002818
31
0.000560069226940624
  0
LINE
 8
GROUP0
10
4529.18483367478
20
3413.88771477962
30
0.000555858816208321
11
4529.25298134171
21
3413.37007659983
31
0.000555585756214327
  0
LINE
 8
GROUP0
10
4529.25298270271
20
3414.40535278024
30
0.000556383825433726
11
4529.18483367478
21
3413.88771477962
31
0.000555858816208321
  0
LINE
 8
GROUP0
10
4930.70255542543
20
3411.95533482367
30
0.00113336080340417
11
4931.18491759788
21
3412.15513503455
31
0.00113440648804589
  0
LINE
 8
GROUP0
10
4529.45278418185
20
3414.88771442737
30
0.00055712500639275
11
4529.25298270271
21
3414.40535278024
31
0.000556383825433726
  0
LINE
 8
GROUP0
10
4530.18483139779
20
3412.15566265744
30
0.000556372155260465
11
4530.66719304491
21
3411.9558611783
31
0.000557109796670879
  0
LINE
 8
GROUP0
10
4530.18483595179
20
3415.61976427256
30
0.000559042548844796
11
4529.77062197157
21
3415.3019275719
31
0.000558031846710721
  0
LINE
 8
GROUP0
10
4530.66719812423
20
3415.81956448344
30
0.000560088233490746
11
4530.18483595179
21
3415.61976427256
31
0.000559042548844796
  0
LINE
 8
GROUP0
10
4529.25298134171
20
3413.37007659983
30
0.000555585756214327
11
4529.4527815526
21
3412.88771442737
31
0.000555583254003078
  0
LINE
 8
GROUP0
10
4530.66719304491
20
3411.9558611783
30
0.000557109796670879
11
4531.18483104554
21
3411.88771215038
31
0.000558014135503743
  0
LINE
 8
GROUP0
10
4529.77062197157
20
3415.3019275719
30
0.000558031846710721
11
4529.45278418185
21
3414.88771442737
31
0.00055712500639275
  0
LINE
 8
GROUP0
10
4531.18483104554
20
3411.88771215038
30
0.000558014135503743
11
4531.70246922532
21
3411.9558598173
31
0.000559023542291853
  0
LINE
 8
GROUP0
10
4531.18483630403
20
3415.88771215036
30
0.000561097640282382
11
4530.66719812423
21
3415.81956448344
31
0.000560088233490746
  0
LINE
 8
GROUP0
10
4532.18483595177
20
3415.61976164331
30
0.00056273962052566
11
4531.70247430464
21
3415.81956312244
31
0.00056200197911172
  0
LINE
 8
GROUP0
10
4533.18483367477
20
3413.88770952112
30
0.000563252959570049
11
4533.11668600784
21
3414.40534770091
31
0.000563526019568272
  0
LINE
 8
GROUP0
10
4533.11668600784
20
3414.40534770091
30
0.000563526019568272
11
4532.91688579696
21
3414.88770987337
31
0.000563528521774587
  0
LINE
 8
GROUP0
10
4532.91688579696
20
3414.88770987337
30
0.000563528521774587
11
4532.5990490963
21
3415.30192385358
31
0.000563260295946205
  0
LINE
 8
GROUP0
10
4532.5990490963
20
3415.30192385358
30
0.000563260295946205
11
4532.18483595177
21
3415.61976164331
31
0.00056273962052566
  0
LINE
 8
GROUP0
10
4531.70247430464
20
3415.81956312244
30
0.00056200197911172
11
4531.18483630403
21
3415.88771215036
31
0.000561097640282382
  0
LINE
 8
GROUP0
10
4532.91688316771
20
3412.88770987338
30
0.00056198676938562
11
4533.11668464684
21
3413.37007152051
31
0.000562727950344644
  0
LINE
 8
GROUP0
10
4533.11668464684
20
3413.37007152051
30
0.000562727950344644
11
4533.18483367477
21
3413.88770952112
31
0.000563252959570049
  0
LINE
 8
GROUP0
10
4532.59904537798
20
3412.47349672884
30
0.000561079929071878
11
4532.91688316771
21
3412.88770987338
31
0.00056198676938562
  0
LINE
 8
GROUP0
10
4931.91620220388
20
2830.88710760441
30
0.000684915222909421
11
4932.11600368217
21
2831.36946924935
31
0.000685656403148649
  0
LINE
 8
GROUP0
10
4931.59836441554
20
2830.47289446178
30
0.000684008381870244
11
4931.91620220388
21
2830.88710760441
31
0.000684915222909421
  0
LINE
 8
GROUP0
10
4930.70179334659
20
2833.81896084041
30
0.000684930431912906
11
4930.18415534831
21
2833.88710986808
31
0.000684026093091322
  0
LINE
 8
GROUP0
10
4932.18415270984
20
2831.88710724763
30
0.000686181412370529
11
4932.11600504328
21
2832.4047454251
31
0.000686454472360998
  0
LINE
 8
GROUP0
10
4929.66651717085
20
2833.81896220153
30
0.000683016686298277
11
4929.18415500055
21
2833.61916199159
31
0.000681971001655146
  0
LINE
 8
GROUP0
10
4930.18415534831
20
2833.88710986808
30
0.000684026093091322
11
4929.66651717085
21
2833.81896220153
31
0.000683016686298277
  0
LINE
 8
GROUP0
10
4931.59836813416
20
2833.30132157378
30
0.000686188748750211
11
4931.18415499153
21
2833.61915936213
31
0.000685668073328255
  0
LINE
 8
GROUP0
10
4931.91620483335
20
2832.8871075954
30
0.000686456975295568
11
4931.59836813416
21
2833.30132157378
31
0.000686188748750211
  0
LINE
 8
GROUP0
10
4931.18415499153
20
2833.61915936213
30
0.000685668073328255
11
4930.70179334659
21
2833.81896084041
31
0.000684930431912906
  0
LINE
 8
GROUP0
10
4932.11600504328
20
2832.4047454251
30
0.000686454472360998
11
4931.91620483335
21
2832.8871075954
31
0.000686456975295568
  0
LINE
 8
GROUP0
10
4932.11600368217
20
2831.36946924935
30
0.000685656403148649
11
4932.18415270984
21
2831.88710724763
31
0.000686181412370529
  0
LINE
 8
GROUP0
10
4928.25230175555
20
2832.40475050484
30
0.000679312278253241
11
4928.18415272787
21
2831.88711250656
31
0.000678787269035591
  0
LINE
 8
GROUP0
10
4928.76994102217
20
2833.30132529241
30
0.000680960299531647
11
4928.45210323383
21
2832.88711214978
31
0.000680053458489649
  0
LINE
 8
GROUP0
10
4928.76993730354
20
2830.47289818041
30
0.000678779932656615
11
4929.18415044618
21
2830.15506039206
31
0.00067930060807434
  0
LINE
 8
GROUP0
10
4929.66651209111
20
2829.95525891378
30
0.000680038249489689
11
4930.18415008939
21
2829.88710988611
31
0.000680942588307748
  0
LINE
 8
GROUP0
10
4929.18415044618
20
2830.15506039206
30
0.00067930060807434
11
4929.66651209111
21
2829.95525891378
31
0.000680038249489689
  0
LINE
 8
GROUP0
10
4931.18415043715
20
2830.1550577626
30
0.000682997679747449
11
4931.59836441554
21
2830.47289446178
31
0.000684008381870244
  0
LINE
 8
GROUP0
10
4928.25230039443
20
2831.36947432909
30
0.000678514209038072
11
4928.45210060436
21
2830.88711215879
31
0.000678511706104207
  0
LINE
 8
GROUP0
10
4928.45210323383
20
2832.88711214978
30
0.000680053458489649
11
4928.25230175555
21
2832.40475050484
31
0.000679312278253241
  0
LINE
 8
GROUP0
10
4928.45210060436
20
2830.88711215879
30
0.000678511706104207
11
4928.76993730354
21
2830.47289818041
31
0.000678779932656615
  0
LINE
 8
GROUP0
10
4930.70178826685
20
2829.95525755267
30
0.000681951995100794
11
4931.18415043715
21
2830.1550577626
31
0.000682997679747449
  0
LINE
 8
GROUP0
10
4930.18415008939
20
2829.88710988611
30
0.000680942588307748
11
4930.70178826685
21
2829.95525755267
31
0.000681951995100794
  0
LINE
 8
GROUP0
10
4928.18415272787
20
2831.88711250656
30
0.000678787269035591
11
4928.25230039443
21
2831.36947432909
31
0.000678514209038072
  0
LINE
 8
GROUP0
10
4929.18415500055
20
2833.61916199159
30
0.000681971001655146
11
4928.76994102217
21
2833.30132529241
31
0.000680960299531647
  0
LINE
 8
GROUP0
10
4461.68487949223
20
3358.38774762326
30
0.000422816218488431
11
4461.75302812781
21
3357.870109571
31
0.000422543160497318
  0
LINE
 8
GROUP0
10
4461.75302755149
20
3358.90538575141
30
0.000423341226432866
11
4461.68487949223
21
3358.38774762326
31
0.000422816218488431
  0
LINE
 8
GROUP0
10
4461.95282812795
20
3359.38774777242
30
0.000424082405476428
11
4461.75302755149
21
3358.90538575141
31
0.000423341226432866
  0
LINE
 8
GROUP0
10
4462.27066514256
20
3359.80196151173
30
0.000424989245491958
11
4461.95282812795
21
3359.38774777242
31
0.000424082405476428
  0
LINE
 8
GROUP0
10
4462.68487852801
20
3360.11979898752
30
0.000425999946109595
11
4462.27066514256
21
3359.80196151173
31
0.000424989245491958
  0
LINE
 8
GROUP0
10
4463.16724032656
20
3360.31960010105
30
0.000427045631708695
11
4462.68487852801
21
3360.11979898752
31
0.000425999946109595
  0
LINE
 8
GROUP0
10
4463.68487837883
20
3360.38774873664
30
0.000428055038336067
11
4463.16724032656
21
3360.31960010105
31
0.000427045631708695
  0
LINE
 8
GROUP0
10
4464.20251650697
20
3360.31960067739
30
0.00042895937805158
11
4463.68487837883
21
3360.38774873664
31
0.000428055038336067
  0
LINE
 8
GROUP0
10
4464.68487852798
20
3360.1198001009
30
0.000429697020678105
11
4464.20251650697
21
3360.31960067739
31
0.00042895937805158
  0
LINE
 8
GROUP0
10
4465.0990922673
20
3359.8019630863
30
0.000430217698332769
11
4464.68487852798
21
3360.1198001009
31
0.000429697020678105
  0
LINE
 8
GROUP0
10
4465.41692974308
20
3359.38774970087
30
0.000430485925912349
11
4465.0990922673
21
3359.8019630863
31
0.000430217698332769
  0
LINE
 8
GROUP0
10
4465.61673085662
20
3358.9053879023
30
0.000430483425617267
11
4465.41692974308
21
3359.38774970087
31
0.000430485925912349
  0
LINE
 8
GROUP0
10
4465.68487949222
20
3358.38774985004
30
0.00043021036762545
11
4465.61673085662
21
3358.9053879023
31
0.000430483425617267
  0
LINE
 8
GROUP0
10
4465.61673143296
20
3357.87011172189
30
0.000429685359685245
11
4465.68487949222
21
3358.38774985004
31
0.00043021036762545
  0
LINE
 8
GROUP0
10
4465.41693085648
20
3357.38774970087
30
0.000428944180637453
11
4465.61673143296
21
3357.87011172189
31
0.000429685359685245
  0
LINE
 8
GROUP0
10
4465.09909384187
20
3356.97353596156
30
0.000428037340622628
11
4465.41693085648
21
3357.38774970087
31
0.000428944180637453
  0
LINE
 8
GROUP0
10
4464.68488045642
20
3356.65569848578
30
0.000427026640000761
11
4465.09909384187
21
3356.97353596156
31
0.000428037340622628
  0
LINE
 8
GROUP0
10
4464.20251865788
20
3356.45589737224
30
0.000425980954408711
11
4464.68488045642
21
3356.65569848578
31
0.000427026640000761
  0
LINE
 8
GROUP0
10
4463.6848806056
20
3356.38774873665
30
0.000424971547782044
11
4464.20251865788
21
3356.45589737224
31
0.000425980954408711
  0
LINE
 8
GROUP0
10
4463.16724247746
20
3356.45589679591
30
0.000424067208066531
11
4463.6848806056
21
3356.38774873665
31
0.000424971547782044
  0
LINE
 8
GROUP0
10
4462.68488045646
20
3356.65569737239
30
0.000423329565432251
11
4463.16724247746
21
3356.45589679591
31
0.000424067208066531
  0
LINE
 8
GROUP0
10
4462.27066671713
20
3356.973534387
30
0.000422808887781112
11
4462.68488045646
21
3356.65569737239
31
0.000423329565432251
  0
LINE
 8
GROUP0
10
4461.95282924135
20
3357.38774777243
30
0.000422540660205056
11
4462.27066671713
21
3356.973534387
31
0.000422808887781112
  0
LINE
 8
GROUP0
10
4461.75302812781
20
3357.870109571
30
0.000422543160497318
11
4461.95282924135
21
3357.38774777243
31
0.000422540660205056
  0
LINE
 8
GROUP0
10
4996.27063710412
20
3356.97364376763
30
0.00109901657762826
11
4996.68485084315
21
3356.65580675326
31
0.00109953725455678
  0
LINE
 8
GROUP0
10
4995.95279962857
20
3357.38785715277
30
0.00109874834932747
11
4996.27063710412
21
3356.97364376763
31
0.00109901657762826
  0
LINE
 8
GROUP0
10
4995.75299851515
20
3357.87021895099
30
0.00109875084962255
11
4995.95279962857
21
3357.38785715277
31
0.00109874834932747
  0
LINE
 8
GROUP0
10
4995.68484987959
20
3358.38785700289
30
0.00109902390761296
11
4995.75299851515
21
3357.87021895099
31
0.00109875084962255
  0
LINE
 8
GROUP0
10
4995.75299793879
20
3358.90549513066
30
0.0010995489155581
11
4995.68484987959
21
3358.38785700289
31
0.00109902390761296
  0
LINE
 8
GROUP0
10
4995.95279851512
20
3359.38785715135
30
0.00110029009460166
11
4995.75299793879
21
3358.90549513066
31
0.0010995489155581
  0
LINE
 8
GROUP0
10
4996.27063552948
20
3359.80207089038
30
0.00110119693461649
11
4995.95279851512
21
3359.38785715135
31
0.00110029009460166
  0
LINE
 8
GROUP0
10
4996.68484891462
20
3360.11990836595
30
0.00110220763595604
11
4996.27063552948
21
3359.80207089038
31
0.00110119693461649
  0
LINE
 8
GROUP0
10
4997.16721071284
20
3360.31970947935
30
0.00110325332083252
11
4996.68484891462
21
3360.11990836595
31
0.00110220763595604
  0
LINE
 8
GROUP0
10
4997.68484876474
20
3360.38785811491
30
0.00110426272817757
11
4997.16721071284
21
3360.31970947935
31
0.00110325332083252
  0
LINE
 8
GROUP0
10
4998.20248689252
20
3360.31971005571
30
0.00110516706789661
11
4997.68484876474
21
3360.38785811491
31
0.00110426272817757
  0
LINE
 8
GROUP0
10
4998.6848489132
20
3360.11990947938
30
0.00110590471124434
11
4998.20248689252
21
3360.31971005571
31
0.00110516706789661
  0
LINE
 8
GROUP0
10
4999.09906265223
20
3359.80207246501
30
0.0011064253881771
11
4998.6848489132
21
3360.11990947938
31
0.00110590471124434
  0
LINE
 8
GROUP0
10
4999.41690012781
20
3359.38785907988
30
0.00110669361647788
11
4999.09906265223
21
3359.80207246501
31
0.0011064253881771
  0
LINE
 8
GROUP0
10
4999.61670124121
20
3358.90549728166
30
0.0011066911161828
11
4999.41690012781
21
3359.38785907988
31
0.00110669361647788
  0
LINE
 8
GROUP0
10
4999.68484987677
20
3358.38785922976
30
0.00110641805819098
11
4999.61670124121
21
3358.90549728166
31
0.0011066911161828
  0
LINE
 8
GROUP0
10
4999.61670181757
20
3357.87022110198
30
0.00110589305025007
11
4999.68484987677
21
3358.38785922976
31
0.00110641805819098
  0
LINE
 8
GROUP0
10
4999.41690124125
20
3357.38785908129
30
0.00110515187120299
11
4999.61670181757
21
3357.87022110198
31
0.00110589305025007
  0
LINE
 8
GROUP0
10
4999.09906422687
20
3356.97364534227
30
0.00110424503118464
11
4999.41690124125
21
3357.38785908129
31
0.00110515187120299
  0
LINE
 8
GROUP0
10
4998.68485084173
20
3356.6558078667
30
0.00110323432984932
11
4999.09906422687
21
3356.97364534227
31
0.00110424503118464
  0
LINE
 8
GROUP0
10
4998.20248904352
20
3356.45600675329
30
0.00110218864497283
11
4998.68485084173
21
3356.6558078667
31
0.00110323432984932
  0
LINE
 8
GROUP0
10
4997.68485099162
20
3356.38785811774
30
0.00110117923762778
11
4998.20248904352
21
3356.45600675329
31
0.00110218864497283
  0
LINE
 8
GROUP0
10
4997.16721286385
20
3356.45600617693
30
0.00110027489790874
11
4997.68485099162
21
3356.38785811774
31
0.00110117923762778
  0
LINE
 8
GROUP0
10
4996.68485084315
20
3356.65580675326
30
0.00109953725455678
11
4997.16721286385
21
3356.45600617693
31
0.00110027489790874
  0
LINE
 8
GROUP0
10
4462.27047165154
20
2857.80189150768
30
0.000124847307077669
11
4461.95263463784
21
2857.38767776767
31
0.00012394046778969
  0
LINE
 8
GROUP0
10
4462.68468503629
20
2858.11972898436
30
0.000125858008424268
11
4462.27047165154
21
2857.80189150768
31
0.000124847307077669
  0
LINE
 8
GROUP0
10
4463.1670468344
20
2858.31953009895
30
0.000126903693292996
11
4462.68468503629
21
2858.11972898436
31
0.000125858008424268
  0
LINE
 8
GROUP0
10
4463.68468488652
20
2858.38767873567
30
0.00012791310063805
11
4463.1670468344
21
2858.31953009895
31
0.000126903693292996
  0
LINE
 8
GROUP0
10
4464.20232301481
20
2858.31953067754
30
0.000128817440357792
11
4463.68468488652
21
2858.38767873567
31
0.00012791310063805
  0
LINE
 8
GROUP0
10
4464.68468503625
20
2858.11973010211
30
0.000129555082992777
11
4464.20232301481
21
2858.31953067754
31
0.000128817440357792
  0
LINE
 8
GROUP0
10
4465.09889877627
20
2857.80189308841
30
0.000130075760640391
11
4464.68468503625
21
2858.11973010211
31
0.000129555082992777
  0
LINE
 8
GROUP0
10
4465.41673625296
20
2857.38767970367
30
0.000130343988221382
11
4465.09889877627
21
2857.80189308841
31
0.000130075760640391
  0
LINE
 8
GROUP0
10
4465.61653736754
20
2856.90531790554
30
0.000130341488653146
11
4465.41673625296
21
2857.38767970367
31
0.000130343988221382
  0
LINE
 8
GROUP0
10
4465.68468600426
20
2856.38767985343
30
0.000130068429937302
11
4465.61653736754
21
2856.90531790554
31
0.000130341488653146
  0
LINE
 8
GROUP0
10
4465.61653794613
20
2855.87004172514
30
0.000129543421994277
11
4465.68468600426
21
2856.38767985343
31
0.000130068429937302
  0
LINE
 8
GROUP0
10
4465.41673737071
20
2855.38767970368
30
0.000128802242952125
11
4465.61653794613
21
2855.87004172514
31
0.000129543421994277
  0
LINE
 8
GROUP0
10
4465.09890035701
20
2854.97346596368
30
0.000127895403664147
11
4465.41673737071
21
2855.38767970368
31
0.000128802242952125
  0
LINE
 8
GROUP0
10
4464.68468697227
20
2854.65562848699
30
0.000126884702317548
11
4465.09890035701
21
2854.97346596368
31
0.000127895403664147
  0
LINE
 8
GROUP0
10
4464.20232517414
20
2854.4558273724
30
0.00012583901744459
11
4464.68468697227
21
2854.65562848699
31
0.000126884702317548
  0
LINE
 8
GROUP0
10
4463.68468712203
20
2854.38767873569
30
0.000124829610103766
11
4464.20232517414
21
2854.4558273724
31
0.00012583901744459
  0
LINE
 8
GROUP0
10
4463.16704899374
20
2854.45582679381
30
0.000123925270379793
11
4463.68468712203
21
2854.38767873569
31
0.000124829610103766
  0
LINE
 8
GROUP0
10
4462.68468697228
20
2854.65562736924
30
0.000123187627749038
11
4463.16704899374
21
2854.45582679381
31
0.000123925270379793
  0
LINE
 8
GROUP0
10
4462.27047323228
20
2854.97346438294
30
0.000122666950097194
11
4462.68468697228
21
2854.65562736924
31
0.000123187627749038
  0
LINE
 8
GROUP0
10
4461.95263575559
20
2855.38767776768
30
0.000122398722516204
11
4462.27047323228
21
2854.97346438294
31
0.000122666950097194
  0
LINE
 8
GROUP0
10
4461.752834641
20
2855.87003956581
30
0.000122401222084439
11
4461.95263575559
21
2855.38767776768
31
0.000122398722516204
  0
LINE
 8
GROUP0
10
4461.68468600429
20
2856.38767761793
30
0.000122674280800283
11
4461.752834641
21
2855.87003956581
31
0.000122401222084439
  0
LINE
 8
GROUP0
10
4461.75283406241
20
2856.90531574622
30
0.000123199288743309
11
4461.68468600429
21
2856.38767761793
31
0.000122674280800283
  0
LINE
 8
GROUP0
10
4461.95263463784
20
2857.38767776767
30
0.00012394046778969
11
4461.75283406241
21
2856.90531574622
31
0.000123199288743309
  0
LINE
 8
GROUP0
10
4995.75235225844
20
2856.90542864475
30
0.00093514455283969
11
4995.6842032623
21
2856.38779064211
31
0.000934619543652354
  0
LINE
 8
GROUP0
10
4995.95215370738
20
2857.38779030206
30
0.000935885733033093
11
4995.75235225844
21
2856.90542864475
31
0.00093514455283969
  0
LINE
 8
GROUP0
10
4996.26999147059
20
2857.80200346425
30
0.000936792574037726
11
4995.95215370738
21
2857.38779030206
31
0.000935885733033093
  0
LINE
 8
GROUP0
10
4996.68420542974
20
2858.11984018882
30
0.000937803276140076
11
4996.26999147059
21
2857.80200346425
31
0.000936792574037726
  0
LINE
 8
GROUP0
10
4997.16656758806
20
2858.31964042824
30
0.000938848960770516
11
4996.68420542974
21
2858.11984018882
31
0.000937803276140076
  0
LINE
 8
GROUP0
10
4997.68420576158
20
2858.3877881264
30
0.000939858367550872
11
4997.16656758806
21
2858.31964042824
31
0.000938848960770516
  0
LINE
 8
GROUP0
10
4998.20184376421
20
2858.31963913027
30
0.000940762706386555
11
4997.68420576158
21
2858.3877881264
31
0.000939858367550872
  0
LINE
 8
GROUP0
10
4998.68420542153
20
2858.11983768132
30
0.000941500347810364
11
4998.20184376421
21
2858.31963913027
31
0.000940762706386555
  0
LINE
 8
GROUP0
10
4999.09841858371
20
2857.80199991811
30
0.000942021023254175
11
4998.68420542153
21
2858.11983768132
31
0.000941500347810364
  0
LINE
 8
GROUP0
10
4999.41625530828
20
2857.38778595895
30
0.000942289249840422
11
4999.09841858371
21
2857.80199991811
31
0.000942021023254175
  0
LINE
 8
GROUP0
10
4999.61605554771
20
2856.90542380064
30
0.000942286747671472
11
4999.41625530828
21
2857.38778595895
31
0.000942289249840422
  0
LINE
 8
GROUP0
10
4999.68420324587
20
2856.38778562712
30
0.000942013686996457
11
4999.61605554771
21
2856.90542380064
31
0.000942286747671472
  0
LINE
 8
GROUP0
10
4999.61605424974
20
2855.87014762449
30
0.000941488677809121
11
4999.68420324587
21
2856.38778562712
31
0.000942013686996457
  0
LINE
 8
GROUP0
10
4999.41625280079
20
2855.38778596717
30
0.000940747497615718
11
4999.61605424974
21
2855.87014762449
31
0.000941488677809121
  0
LINE
 8
GROUP0
10
4999.09841503758
20
2854.97357280499
30
0.000939840656611085
11
4999.41625280079
21
2855.38778596717
31
0.000940747497615718
  0
LINE
 8
GROUP0
10
4998.68420107842
20
2854.65573608042
30
0.000938829954504505
11
4999.09841503758
21
2854.97357280499
31
0.000939840656611085
  0
LINE
 8
GROUP0
10
4998.20183892011
20
2854.45593584099
30
0.00093778426987759
11
4998.68420107842
21
2854.65573608042
31
0.000938829954504505
  0
LINE
 8
GROUP0
10
4997.68420074659
20
2854.38778814284
30
0.000936774863097939
11
4998.20183892011
21
2854.45593584099
31
0.00093778426987759
  0
LINE
 8
GROUP0
10
4997.16656274394
20
2854.45593713897
30
0.000935870524262256
11
4997.68420074659
21
2854.38778814284
31
0.000936774863097939
  0
LINE
 8
GROUP0
10
4996.68420108664
20
2854.65573858791
30
0.000935132882834921
11
4997.16656274394
21
2854.45593713897
31
0.000935870524262256
  0
LINE
 8
GROUP0
10
4996.26998792446
20
2854.97357635112
30
0.000934612207391111
11
4996.68420108664
21
2854.65573858791
31
0.000935132882834921
  0
LINE
 8
GROUP0
10
4995.95215119989
20
2855.38779031028
30
0.000934343980809094
11
4996.26998792446
21
2854.97357635112
31
0.000934612207391111
  0
LINE
 8
GROUP0
10
4995.75235096046
20
2855.87015246859
30
0.000934346482977338
11
4995.95215119989
21
2855.38779031028
31
0.000934343980809094
  0
LINE
 8
GROUP0
10
4995.6842032623
20
2856.38779064211
30
0.000934619543652354
11
4995.75235096046
21
2855.87015246859
31
0.000934346482977338
  0
LINE
 8
GROUP0
10
4531.18465368157
20
2833.88768698728
30
0.000141466206524671
11
4530.66701562951
21
2833.81953835057
31
0.000140456799179617
  0
LINE
 8
GROUP0
10
4531.7022918098
20
2833.81953892915
30
0.000142370546244414
11
4531.18465368157
21
2833.88768698728
31
0.000141466206524671
  0
LINE
 8
GROUP0
10
4532.1846538312
20
2833.61973835374
30
0.000143108188867413
11
4531.7022918098
21
2833.81953892915
31
0.000142370546244414
  0
LINE
 8
GROUP0
10
4532.59886757117
20
2833.30190134006
30
0.000143628865805101
11
4532.1846538312
21
2833.61973835374
31
0.000143108188867413
  0
LINE
 8
GROUP0
10
4532.9167050478
20
2832.88768795536
30
0.000143897094103773
11
4532.59886757117
21
2833.30190134006
31
0.000143628865805101
  0
LINE
 8
GROUP0
10
4533.11650616237
20
2832.40532615728
30
0.000143894593808691
11
4532.9167050478
21
2832.88768795536
31
0.000143897094103773
  0
LINE
 8
GROUP0
10
4533.18465479907
20
2831.88768810522
30
0.000143621535102012
11
4533.11650616237
21
2832.40532615728
31
0.000143894593808691
  0
LINE
 8
GROUP0
10
4533.11650674095
20
2831.37004997698
30
0.000143096527154757
11
4533.18465479907
21
2831.88768810522
31
0.000143621535102012
  0
LINE
 8
GROUP0
10
4532.91670616553
20
2830.88768795558
30
0.000142355348112605
11
4533.11650674095
21
2831.37004997698
31
0.000143096527154757
  0
LINE
 8
GROUP0
10
4532.59886915187
20
2830.47347421562
30
0.00014144850809778
11
4532.91670616553
21
2830.88768795558
31
0.000142355348112605
  0
LINE
 8
GROUP0
10
4532.18465576717
20
2830.15563673897
30
0.000140437806756116
11
4532.59886915187
21
2830.47347421562
31
0.00014144850809778
  0
LINE
 8
GROUP0
10
4531.70229396908
20
2829.95583562441
30
0.000139392121887388
11
4532.18465576717
21
2830.15563673897
31
0.000140437806756116
  0
LINE
 8
GROUP0
10
4531.18465591703
20
2829.88768698771
30
0.00013838271453458
11
4531.70229396908
21
2829.95583562441
31
0.000139392121887388
  0
LINE
 8
GROUP0
10
4530.66701778879
20
2829.95583504584
30
0.000137478374822592
11
4531.18465591703
21
2829.88768698771
31
0.00013838271453458
  0
LINE
 8
GROUP0
10
4530.18465576739
20
2830.15563562125
30
0.000136740732191837
11
4530.66701778879
21
2829.95583504584
31
0.000137478374822592
  0
LINE
 8
GROUP0
10
4529.77044202743
20
2830.47347263492
30
0.000136220055254149
11
4530.18465576739
21
2830.15563562125
31
0.000136740732191837
  0
LINE
 8
GROUP0
10
4529.45260455077
20
2830.88768601962
30
0.000135951826955477
11
4529.77044202743
21
2830.47347263492
31
0.000136220055254149
  0
LINE
 8
GROUP0
10
4529.25280285763
20
2832.405323998
30
0.000136752393900264
11
4529.18465479951
21
2831.88768586977
31
0.000136227385961468
 0
ENDSEC
 0
EOF
