 0
SECTION
 2
ENTITIES
  0
LINE
 8
GROUP0
10
5354.79959785239
20
2371.04316356285
30
0.000423361860341231
11
5354.46909024508
21
2369.19294371581
31
0.000423361859517801
  0
LINE
 8
GROUP0
10
5354.79959785239
20
2373.92066345725
30
0.00042336186049915
11
5360.25026486909
21
2372.99071888669
31
0.000423361861168892
  0
LINE
 8
GROUP0
10
5349.71422209735
20
2370.12974892749
30
0.000423361859567856
11
5349.99161162109
21
2371.56330303344
31
0.000423361859646815
  0
LINE
 8
GROUP0
10
5345.48873038661
20
2380.09312208023
30
0.000423361860115634
11
5344.14856925675
21
2380.67277088026
31
0.000423361860146654
  0
LINE
 8
GROUP0
10
5345.15118051673
20
2364.69885349367
30
0.000423361857827231
11
5346.40834406928
21
2365.44152632706
31
0.000423361858590032
  0
LINE
 8
GROUP0
10
5342.89467237068
20
2329.21393849637
30
0.000141085821407988
11
5342.41231046088
21
2329.41373934138
31
0.000141039982932478
  0
LINE
 8
GROUP0
10
5360.25026486909
20
2372.99071888669
30
0.000423361861168892
11
5360.25026486909
21
2371.97310508416
31
0.000423361861113902
  0
LINE
 8
GROUP0
10
5340.89467237068
20
2329.21393849637
30
0.000140740481364138
11
5340.4804588083
21
2328.89610125118
31
0.000140609382954637
  0
LINE
 8
GROUP0
10
5353.88436061803
20
2377.55711474698
30
0.000423361860698662
11
5354.46909024508
21
2375.77088044562
31
0.000423361860600668
  0
LINE
 8
GROUP0
10
5342.41231046088
20
2329.41373934138
30
0.000141039982932478
11
5341.89467237068
21
2329.4818876888
31
0.000140963376583808
  0
LINE
 8
GROUP0
10
5340.4804588083
20
2328.89610125118
30
0.000140609382954637
11
5340.16262156311
21
2328.4818876888
31
0.000140476860208971
  0
LINE
 8
GROUP0
10
5348.67321285877
20
2377.14631863799
30
0.000423361859954191
11
5347.78383409904
21
2378.3043477465
31
0.00042336186001764
  0
LINE
 8
GROUP0
10
5347.78383409904
20
2378.3043477465
30
0.00042336186001764
11
5346.71213254873
21
2379.29605809783
31
0.000423361860071925
  0
LINE
 8
GROUP0
10
5349.19937004106
20
2368.76338246982
30
0.000423361859493127
11
5349.71422209735
21
2370.12974892749
31
0.000423361859567856
  0
LINE
 8
GROUP0
10
5353.05678423016
20
2379.24461710645
30
0.000423361860791016
11
5353.88436061803
21
2377.55711474698
31
0.000423361860698662
  0
LINE
 8
GROUP0
10
5353.05678423016
20
2365.71920857961
30
0.000423361859326044
11
5352.00246345346
21
2364.16326800401
31
0.00042336185924074
  0
LINE
 8
GROUP0
10
5353.88436061803
20
2367.40670941444
30
0.000423361859419807
11
5353.05678423016
21
2365.71920857961
31
0.000423361859326044
  0
LINE
 8
GROUP0
10
5354.46909024508
20
2375.77088044562
30
0.000423361860600668
11
5354.79959785239
21
2373.92066345725
31
0.00042336186049915
  0
LINE
 8
GROUP0
10
5339.9628207181
20
2327.99952577901
30
0.000140351944963024
11
5339.89467237068
21
2327.4818876888
31
0.000140243149994845
  0
LINE
 8
GROUP0
10
5339.89467237068
20
2327.4818876888
30
0.000140243149994845
11
5339.9628207181
21
2326.9642495986
31
0.000140157889340353
  0
LINE
 8
GROUP0
10
5341.37703428047
20
2329.41373934138
30
0.000140861221782951
11
5340.89467237068
21
2329.21393849637
31
0.000140740481364138
  0
LINE
 8
GROUP0
10
5341.89467237068
20
2329.4818876888
30
0.000140963376583808
11
5341.37703428047
21
2329.41373934138
31
0.000140861221782951
  0
LINE
 8
GROUP0
10
5354.46909024508
20
2369.19294371581
30
0.000423361859517801
11
5353.88436061803
21
2367.40670941444
31
0.000423361859419807
  0
LINE
 8
GROUP0
10
5346.71213254873
20
2379.29605809783
30
0.000423361860071925
11
5345.48873038661
21
2380.09312208023
31
0.000423361860115634
  0
LINE
 8
GROUP0
10
5346.40834406928
20
2365.44152632706
30
0.000423361858590032
11
5347.52248215053
21
2366.38530843283
31
0.000423361859362703
  0
LINE
 8
GROUP0
10
5350.01175502293
20
2372.48191349814
30
0.000423361859698279
11
5350.0236212125
21
2373.02309896301
31
0.000423361859727889
  0
LINE
 8
GROUP0
10
5360.25026486909
20
2371.97310508416
30
0.000423361861113902
11
5354.79959785239
21
2371.04316356285
31
0.000423361860341231
  0
LINE
 8
GROUP0
10
5340.16262156311
20
2328.4818876888
30
0.000140476860208971
11
5339.9628207181
21
2327.99952577901
31
0.000140351944963024
  0
LINE
 8
GROUP0
10
5344.14856925675
20
2380.67277088026
30
0.000423361860146654
11
5342.72993212351
21
2381.01845312264
31
0.000423361859444482
  0
LINE
 8
GROUP0
10
5333.36298183727
20
2383.29723110491
30
0.000423361858846649
11
5334.94598915621
21
2384.31046007367
31
0.000423361858902344
  0
LINE
 8
GROUP0
10
5328.23292834627
20
2385.97777557936
30
0.000423361854663229
11
5328.9801880268
21
2386.66853326166
31
0.000423361854701298
  0
LINE
 8
GROUP0
10
5343.19025743409
20
2385.83798537136
30
0.00042336186043006
11
5345.03118609511
21
2385.45915768877
31
0.000423361860410321
  0
LINE
 8
GROUP0
10
5338.45550600719
20
2385.6313493179
30
0.000423361858975663
11
5340.31374235491
21
2385.91331120479
31
0.000423361858991172
  0
LINE
 8
GROUP0
10
5335.89095437428
20
2379.13580431585
30
0.000423361858618232
11
5334.84909286793
21
2378.11279027647
31
0.000423361858563243
  0
LINE
 8
GROUP0
10
5345.03118609511
20
2385.45915768877
30
0.000423361860410321
11
5346.80150326695
21
2384.82787350712
31
0.000423361860374366
  0
LINE
 8
GROUP0
10
5349.99457245113
20
2382.86171770627
30
0.000423361860266502
11
5354.54780228012
21
2385.99901976352
31
0.000423361861883753
  0
LINE
 8
GROUP0
10
5348.46176659997
20
2367.50323674243
30
0.000423361859424037
11
5349.19937004106
21
2368.76338246982
31
0.000423361859493127
  0
LINE
 8
GROUP0
10
5346.80150326695
20
2384.82787350712
30
0.000423361860374366
11
5348.46676281008
21
2383.95640761663
31
0.000423361860327837
  0
LINE
 8
GROUP0
10
5354.54780228012
20
2385.99901976352
30
0.000423361861883753
11
5355.25788311372
21
2385.2701044223
31
0.000423361861843569
  0
LINE
 8
GROUP0
10
5352.00246345347
20
2380.80055920668
30
0.000423361860153704
11
5353.05678423016
21
2379.24461710645
31
0.000423361860791016
  0
LINE
 8
GROUP0
10
5337.09021860589
20
2379.9687458741
30
0.000423361858664056
11
5335.89095437428
21
2379.13580431585
31
0.000423361858618232
  0
LINE
 8
GROUP0
10
5347.52248215053
20
2366.38530843283
30
0.000423361859362703
11
5348.46176659997
21
2367.50323674243
31
0.000423361859424037
  0
LINE
 8
GROUP0
10
5350.0236212125
20
2373.02309896301
30
0.000423361859727889
11
5349.80933456939
21
2374.46743200728
31
0.000423361859806143
  0
LINE
 8
GROUP0
10
5343.7868997519
20
2364.17850362425
30
0.000423361857797622
11
5345.15118051673
21
2364.69885349367
31
0.000423361857827231
  0
LINE
 8
GROUP0
10
5349.80933456939
20
2374.46743200728
30
0.000423361859806143
11
5349.35487155362
21
2375.85505522731
31
0.000423361859882282
  0
LINE
 8
GROUP0
10
5349.35487155362
20
2375.85505522731
30
0.000423361859882282
11
5348.67321285877
21
2377.14631863799
31
0.000423361859954191
  0
LINE
 8
GROUP0
10
5336.65457408914
20
2385.09357674755
30
0.000423361858945348
11
5338.45550600719
21
2385.6313493179
31
0.000423361858975663
  0
LINE
 8
GROUP0
10
5342.72993212351
20
2381.01845312264
30
0.000423361859444482
11
5341.27334097658
21
2381.12028311121
31
0.000423361858728211
  0
LINE
 8
GROUP0
10
5348.46676281008
20
2383.95640761663
30
0.000423361860327837
11
5349.99457245113
21
2382.86171770627
31
0.000423361860266502
  0
LINE
 8
GROUP0
10
5330.19864734084
20
2379.97100232541
30
0.000423361854332588
11
5331.24996764714
21
2381.34397976614
31
0.000423361854408022
  0
LINE
 8
GROUP0
10
5331.24996764714
20
2381.34397976614
30
0.000423361854408022
11
5328.23292834627
21
2385.97777557936
31
0.000423361854663229
  0
LINE
 8
GROUP0
10
5355.25788311372
20
2385.2701044223
30
0.000423361861843569
11
5352.00246345347
21
2380.80055920668
31
0.000423361860153704
  0
LINE
 8
GROUP0
10
5341.27334097658
20
2381.12028311121
30
0.000423361858728211
11
5339.82040586679
21
2380.97536405037
31
0.000423361858720456
  0
LINE
 8
GROUP0
10
5334.94598915621
20
2384.31046007367
30
0.000423361858902344
11
5336.65457408914
21
2385.09357674755
31
0.000423361858945348
  0
LINE
 8
GROUP0
10
5339.82040586679
20
2380.97536405037
30
0.000423361858720456
11
5338.41262733376
21
2380.58782768543
31
0.000423361858697896
  0
LINE
 8
GROUP0
10
5328.9801880268
20
2386.66853326166
30
0.000423361854701298
11
5333.36298183727
21
2383.29723110491
31
0.000423361858846649
  0
LINE
 8
GROUP0
10
5338.41262733376
20
2380.58782768543
30
0.000423361858697896
11
5337.09021860589
21
2379.9687458741
31
0.000423361858664056
  0
LINE
 8
GROUP0
10
5334.84909286793
20
2378.11279027647
30
0.000423361858563243
11
5330.19864734084
21
2379.97100232541
31
0.000423361854332588
  0
LINE
 8
GROUP0
10
5342.4033107962
20
2391.3111299973
30
0.000423361860730387
11
5343.19025743409
21
2385.83798537136
31
0.00042336186043006
  0
LINE
 8
GROUP0
10
5349.99161162109
20
2371.56330303344
30
0.000423361859646815
11
5350.01175502293
21
2372.48191349814
31
0.000423361859698279
  0
LINE
 8
GROUP0
10
5341.37703428047
20
2419.41371041154
30
0.000307480454233827
11
5340.89467237068
21
2419.21390956654
31
0.000307359713817129
  0
LINE
 8
GROUP0
10
5343.82652402326
20
2416.96422066876
30
0.000307444267567358
11
5343.89467237068
21
2417.48185875897
31
0.000307553062535537
  0
LINE
 8
GROUP0
10
5343.30888593305
20
2328.89610125118
30
0.000141097767580534
11
5342.89467237068
21
2329.21393849637
31
0.000141085821407988
  0
LINE
 8
GROUP0
10
5340.89467237068
20
2325.74983688123
30
0.000140091160113226
11
5341.37703428047
21
2325.55003603622
31
0.000140136998590851
  0
LINE
 8
GROUP0
10
5343.62672317824
20
2326.4818876888
30
0.000140700121312243
11
5343.82652402325
21
2326.9642495986
31
0.000140825035837688
  0
LINE
 8
GROUP0
10
5342.41231046088
20
2325.55003603622
30
0.000140315759740378
11
5342.89467237068
21
2325.74983688123
31
0.000140436500157076
  0
LINE
 8
GROUP0
10
5339.9628207181
20
2417.99949684917
30
0.000306971178135812
11
5339.89467237068
21
2417.48185875897
31
0.000306862383169748
  0
LINE
 8
GROUP0
10
5341.89467237068
20
2325.4818876888
30
0.000140213604939521
11
5342.41231046088
21
2325.55003603622
31
0.000140315759740378
  0
LINE
 8
GROUP0
10
5341.37703428047
20
2325.55003603622
30
0.000140136998590851
11
5341.89467237068
21
2325.4818876888
31
0.000140213604939521
  0
LINE
 8
GROUP0
10
5340.4804588083
20
2418.89607232134
30
0.000307228615407629
11
5340.16262156311
21
2418.48185875897
31
0.000307096092661963
  0
LINE
 8
GROUP0
10
5343.30888593305
20
2418.89607232134
30
0.000307716999311614
11
5342.89467237068
21
2419.21390956653
31
0.000307705053139068
  0
LINE
 8
GROUP0
10
5340.31374235491
20
2385.91331120479
30
0.000423361858991172
11
5341.38604767032
21
2391.33777136907
31
0.000423361860731797
  0
LINE
 8
GROUP0
10
5342.89467237068
20
2325.74983688123
30
0.000140436500157076
11
5343.30888593305
21
2326.06767412643
31
0.000140567598566577
  0
LINE
 8
GROUP0
10
5341.38604767032
20
2391.33777136907
30
0.000423361860731797
11
5342.4033107962
21
2391.3111299973
31
0.000423361860730387
  0
LINE
 8
GROUP0
10
5340.4804588083
20
2416.06764519659
30
0.000306698446393672
11
5340.89467237068
21
2415.7498079514
31
0.000306710392565512
  0
LINE
 8
GROUP0
10
5339.9628207181
20
2416.96422066876
30
0.000306777122513846
11
5340.16262156311
21
2416.48185875897
31
0.000306721206838761
  0
LINE
 8
GROUP0
10
5341.89467237068
20
2419.48185875897
30
0.000307582609034684
11
5341.37703428047
21
2419.41371041154
31
0.000307480454233827
  0
LINE
 8
GROUP0
10
5340.16262156311
20
2418.48185875897
30
0.000307096092661963
11
5339.9628207181
21
2417.99949684917
31
0.000306971178135812
  0
LINE
 8
GROUP0
10
5343.62672317825
20
2418.48185875897
30
0.000307694238865819
11
5343.30888593305
21
2418.89607232134
31
0.000307716999311614
  0
LINE
 8
GROUP0
10
5342.89467237068
20
2419.21390956653
30
0.000307705053139068
11
5342.41231046088
21
2419.41371041154
31
0.000307659214661443
  0
LINE
 8
GROUP0
10
5343.82652402325
20
2327.99952577901
30
0.000141019091460359
11
5343.62672317824
21
2328.4818876888
31
0.000141075007134739
  0
LINE
 8
GROUP0
10
5343.89467237068
20
2417.48185875897
30
0.000307553062535537
11
5343.82652402326
21
2417.99949684917
31
0.000307638323189324
  0
LINE
 8
GROUP0
10
5343.62672317824
20
2328.4818876888
30
0.000141075007134739
11
5343.30888593305
21
2328.89610125118
31
0.000141097767580534
  0
LINE
 8
GROUP0
10
5343.82652402325
20
2326.9642495986
30
0.000140825035837688
11
5343.89467237068
21
2327.4818876888
31
0.000140933830804457
  0
LINE
 8
GROUP0
10
5343.82652402326
20
2417.99949684917
30
0.000307638323189324
11
5343.62672317825
21
2418.48185875897
31
0.000307694238865819
  0
LINE
 8
GROUP0
10
5339.89467237068
20
2417.48185875897
30
0.000306862383169748
11
5339.9628207181
21
2416.96422066876
31
0.000306777122513846
  0
LINE
 8
GROUP0
10
5342.41231046088
20
2419.41371041154
30
0.000307659214661443
11
5341.89467237068
21
2419.48185875897
31
0.000307582609034684
  0
LINE
 8
GROUP0
10
5341.37703428047
20
2415.55000710639
30
0.000306756231041727
11
5341.89467237068
21
2415.48185875897
31
0.000306832837390397
  0
LINE
 8
GROUP0
10
5343.89467237068
20
2327.4818876888
30
0.000140933830804457
11
5343.82652402325
21
2327.99952577901
31
0.000141019091460359
  0
LINE
 8
GROUP0
10
5340.89467237068
20
2415.7498079514
30
0.000306710392565512
11
5341.37703428047
21
2415.55000710639
31
0.000306756231041727
  0
LINE
 8
GROUP0
10
5340.16262156311
20
2416.48185875897
30
0.000306721206838761
11
5340.4804588083
21
2416.06764519659
31
0.000306698446393672
  0
LINE
 8
GROUP0
10
5340.89467237068
20
2419.21390956654
30
0.000307359713817129
11
5340.4804588083
21
2418.89607232134
31
0.000307228615407629
  0
LINE
 8
GROUP0
10
5340.3137423549
20
2359.05051295664
30
0.00042336185751633
11
5338.45550600718
21
2359.33247636817
31
0.00042336185753184
  0
LINE
 8
GROUP0
10
5312.91690819454
20
2364.71734173687
30
0.000425533685018209
11
5315.91392049448
21
2357.48191399575
31
0.000425929328896685
  0
LINE
 8
GROUP0
10
5348.46676281007
20
2361.00741959407
30
0.000423361859067312
11
5346.80150326695
21
2360.1359552282
31
0.000423361857576959
  0
LINE
 8
GROUP0
10
5328.23292834626
20
2358.98604858209
30
0.000423361853181337
11
5331.24996764714
21
2363.6198443953
31
0.000423361853436544
  0
LINE
 8
GROUP0
10
5336.65457408913
20
2359.87024741389
30
0.000423361853229981
11
5334.9459891562
21
2360.6533656124
31
0.000423361853272985
  0
LINE
 8
GROUP0
10
5343.19025743408
20
2359.12583879008
30
0.00042336185752056
11
5342.40331079619
21
2353.65269416414
31
0.000423361857220234
  0
LINE
 8
GROUP0
10
5340.16262156311
20
2326.4818876888
30
0.000140101973664564
11
5340.4804588083
21
2326.06767412643
31
0.000140079213218769
  0
LINE
 8
GROUP0
10
5333.36298183726
20
2361.66659458116
30
0.000423361853329385
11
5328.98018802679
21
2358.29529242441
31
0.000423361853143267
  0
LINE
 8
GROUP0
10
5312.91690819454
20
2380.24648249894
30
0.000424382190232853
11
5311.89468311118
21
2372.48191211791
31
0.000425005984801718
  0
LINE
 8
GROUP0
10
5354.54780228011
20
2358.96480439791
30
0.000423361858956628
11
5349.99457245112
21
2362.10210950442
31
0.000423361859128646
  0
LINE
 8
GROUP0
10
5341.89467237068
20
2415.48185875897
30
0.000306832837390397
11
5342.41231046088
21
2415.55000710639
31
0.000306934991469343
  0
LINE
 8
GROUP0
10
5342.40331079619
20
2353.65269416414
30
0.000423361857220234
11
5341.38604767031
21
2353.62605736626
31
0.000423361857218824
  0
LINE
 8
GROUP0
10
5334.9459891562
20
2360.6533656124
30
0.000423361853272985
11
5333.36298183726
21
2361.66659458116
31
0.000423361853329385
  0
LINE
 8
GROUP0
10
5355.25788311372
20
2359.69372278839
30
0.000423361858995402
11
5354.54780228011
21
2358.96480439791
31
0.000423361858956628
  0
LINE
 8
GROUP0
10
5352.00246345346
20
2364.16326800401
30
0.00042336185924074
11
5355.25788311372
21
2359.69372278839
31
0.000423361858995402
  0
LINE
 8
GROUP0
10
5328.98018802679
20
2358.29529242441
30
0.000423361853143267
11
5328.23292834626
21
2358.98604858209
31
0.000423361853181337
  0
LINE
 8
GROUP0
10
5338.45550600718
20
2359.33247636817
30
0.00042336185753184
11
5336.65457408913
21
2359.87024741389
31
0.000423361853229981
  0
LINE
 8
GROUP0
10
5327.33824857283
20
2364.29387702706
30
0.000423361853472498
11
5327.83251813406
21
2363.49851453092
31
0.000423361853428789
  0
LINE
 8
GROUP0
10
5331.24996764714
20
2363.6198443953
30
0.000423361853436544
11
5330.52523817556
21
2364.52596205972
31
0.000423361853485188
  0
LINE
 8
GROUP0
10
5330.52523817556
20
2364.52596205972
30
0.000423361853485188
11
5329.88114329652
21
2365.49106763038
31
0.000423361853538062
  0
LINE
 8
GROUP0
10
5343.30888593305
20
2326.06767412643
30
0.000140567598566577
11
5343.62672317824
21
2326.4818876888
31
0.000140700121312243
  0
LINE
 8
GROUP0
10
5346.80150326695
20
2360.1359552282
30
0.000423361857576959
11
5345.0311860951
21
2359.50466647266
31
0.000423361857542415
  0
LINE
 8
GROUP0
10
5349.99457245112
20
2362.10210950442
30
0.000423361859128646
11
5348.46676281007
21
2361.00741959407
31
0.000423361859067312
  0
LINE
 8
GROUP0
10
5341.38604767031
20
2353.62605736626
30
0.000423361857218824
11
5340.3137423549
21
2359.05051295664
31
0.00042336185751633
  0
LINE
 8
GROUP0
10
5339.9628207181
20
2326.9642495986
30
0.000140157889340353
11
5340.16262156311
21
2326.4818876888
31
0.000140101973664564
  0
LINE
 8
GROUP0
10
5327.83251813406
20
2363.49851453092
30
0.000423361853428789
11
5324.60024615761
21
2358.53415164986
31
0.000423361853156662
  0
LINE
 8
GROUP0
10
5345.0311860951
20
2359.50466647266
30
0.000423361857542415
11
5343.19025743408
21
2359.12583879008
31
0.00042336185752056
  0
LINE
 8
GROUP0
10
5320.68147857557
20
2393.69511289783
30
0.000423020011260083
11
5315.91392049448
21
2387.48191024007
31
0.000423704811759262
  0
LINE
 8
GROUP0
10
5311.89468311118
20
2372.48191211791
30
0.000425005984801718
11
5312.91690819454
21
2364.71734173687
31
0.000425533685018209
  0
LINE
 8
GROUP0
10
5315.91392049448
20
2387.48191024007
30
0.000423704811759262
11
5312.91690819454
21
2380.24648249894
31
0.000424382190232853
  0
LINE
 8
GROUP0
10
5340.4804588083
20
2326.06767412643
30
0.000140079213218769
11
5340.89467237068
21
2325.74983688123
31
0.000140091160113226
  0
LINE
 8
GROUP0
10
5315.91392049448
20
2357.48191399575
30
0.000425929328896685
11
5324.60024615761
21
2358.53415164986
31
0.000423361853156662
  0
LINE
 8
GROUP0
10
5336.76618914832
20
2365.19124318702
30
0.000423361853521848
11
5338.06019079315
21
2364.5147911011
31
0.000423361857815951
  0
LINE
 8
GROUP0
10
5339.55897790436
20
2378.02541390581
30
0.000423361858557603
11
5340.54628198182
21
2378.26061846243
31
0.000423361858570292
  0
LINE
 8
GROUP0
10
5337.04071401592
20
2376.36906886999
30
0.000423361858466659
11
5337.77933590935
21
2377.06514445918
31
0.000423361858504728
  0
LINE
 8
GROUP0
10
5347.17549799702
20
2373.36663770912
30
0.000423361859745514
11
5347.23313508173
21
2372.48191363063
31
0.000423361859698279
  0
LINE
 8
GROUP0
10
5338.06019079315
20
2364.5147911011
30
0.000423361857815951
11
5339.44963137126
21
2364.06592042548
31
0.000423361857792687
  0
LINE
 8
GROUP0
10
5344.44939702841
20
2377.46521937519
30
0.000423361859970406
11
5345.26592423742
21
2376.86242365366
31
0.000423361859937271
  0
LINE
 8
GROUP0
10
5342.56772998758
20
2378.20588122258
30
0.000423361858567473
11
5343.54085520346
21
2377.91759212423
31
0.000423361859274579
  0
LINE
 8
GROUP0
10
5343.54085520346
20
2377.91759212423
30
0.000423361859274579
11
5344.44939702841
21
2377.46521937519
31
0.000423361859970406
  0
LINE
 8
GROUP0
10
5346.93521337569
20
2374.35271598465
30
0.000423361859799798
11
5347.17549799702
21
2373.36663770912
31
0.000423361859745514
  0
LINE
 8
GROUP0
10
5346.52788122438
20
2375.28232208752
30
0.000423361859850557
11
5346.93521337569
21
2374.35271598465
31
0.000423361859799798
  0
LINE
 8
GROUP0
10
5347.23313508173
20
2372.48191363063
30
0.000423361859698279
11
5347.24147785306
21
2372.35385392019
31
0.000423361859691229
  0
LINE
 8
GROUP0
10
5346.40020267126
20
2369.45948239498
30
0.000423361859531196
11
5345.80161797576
21
2368.63986018856
31
0.000423361858043664
  0
LINE
 8
GROUP0
10
5339.31776325918
20
2367.02449413812
30
0.000423361857954835
11
5338.40461095533
21
2367.46748736793
31
0.0004233618579781
  0
LINE
 8
GROUP0
10
5337.58191776442
20
2368.06184579111
30
0.000423361858011939
11
5336.87451722906
21
2368.78963061973
31
0.000423361858050714
  0
LINE
 8
GROUP0
10
5336.43372251466
20
2375.55565152353
30
0.000423361858422949
11
5337.04071401592
21
2376.36906886999
31
0.000423361858466659
  0
LINE
 8
GROUP0
10
5334.60857040444
20
2367.14364683191
30
0.000423361853629006
11
5335.60459240732
21
2366.07595048268
31
0.000423361853570492
  0
LINE
 8
GROUP0
10
5336.87451722906
20
2368.78963061973
30
0.000423361858050714
11
5336.30376311616
21
2369.62886870626
31
0.000423361858096538
  0
LINE
 8
GROUP0
10
5347.24147785306
20
2372.35385392019
30
0.000423361859691229
11
5347.13116787653
21
2371.3449366149
31
0.00042336185963483
  0
LINE
 8
GROUP0
10
5345.96579615347
20
2376.12739378678
30
0.000423361859897087
11
5346.52788122438
21
2375.28232208752
31
0.000423361859850557
  0
LINE
 8
GROUP0
10
5338.62729220718
20
2377.62287213965
30
0.000423361858536453
11
5339.55897790436
21
2378.02541390581
31
0.000423361858557603
  0
LINE
 8
GROUP0
10
5340.89481515867
20
2363.85745176764
30
0.000423361857779997
11
5342.3544738716
21
2363.89534032949
31
0.000423361857782112
  0
LINE
 8
GROUP0
10
5339.44963137126
20
2364.06592042548
30
0.000423361857792687
11
5340.89481515867
21
2363.85745176764
31
0.000423361857779997
  0
LINE
 8
GROUP0
10
5335.60459240732
20
2366.07595048268
30
0.000423361853570492
11
5336.76618914832
21
2365.19124318702
31
0.000423361853521848
  0
LINE
 8
GROUP0
10
5345.26592423742
20
2376.86242365366
30
0.000423361859937271
11
5345.96579615347
21
2376.12739378678
31
0.000423361859897087
  0
LINE
 8
GROUP0
10
5340.54628198182
20
2378.26061846243
30
0.000423361858570292
11
5341.55939204141
21
2378.32138713565
31
0.000423361858573817
  0
LINE
 8
GROUP0
10
5342.31570877017
20
2366.71231714846
30
0.000423361857936505
11
5341.30327871906
21
2366.64112306033
31
0.00042336185793298
  0
LINE
 8
GROUP0
10
5341.30327871906
20
2366.64112306033
30
0.00042336185793298
11
5340.29380642489
21
2366.74624014959
31
0.00042336185793862
  0
LINE
 8
GROUP0
10
5344.22803305625
20
2367.36978607541
30
0.00042336185797387
11
5343.30054008955
21
2366.95767573598
31
0.00042336185795131
  0
LINE
 8
GROUP0
10
5337.77933590935
20
2377.06514445918
30
0.000423361858504728
11
5338.62729220718
21
2377.62287213965
31
0.000423361858536453
  0
LINE
 8
GROUP0
10
5341.55939204141
20
2378.32138713565
30
0.000423361858573817
11
5342.56772998758
21
2378.20588122258
31
0.000423361858567473
  0
LINE
 8
GROUP0
10
5329.88114329652
20
2365.49106763038
30
0.000423361853538062
11
5334.60857040444
21
2367.14364683191
31
0.000423361853629006
  0
LINE
 8
GROUP0
10
5342.3544738716
20
2363.89534032949
30
0.000423361857782112
11
5343.7868997519
21
2364.17850362425
31
0.000423361857797622
  0
LINE
 8
GROUP0
10
5315.16263236937
20
2398.48191603777
30
0.000423227350256616
11
5314.96283152436
21
2397.99955412797
31
0.000423272508678174
  0
LINE
 8
GROUP0
10
5345.07020148023
20
2367.93621329046
30
0.000423361858004889
11
5344.22803305625
21
2367.36978607541
31
0.00042336185797387
  0
LINE
 8
GROUP0
10
5365.89467566558
20
2399.21396684534
30
0.000424261048761226
11
5365.48046210321
21
2398.89612960014
31
0.000424304085492877
  0
LINE
 8
GROUP0
10
5365.16262485801
20
2398.48191603777
30
0.000424349739148488
11
5364.962824013
21
2397.99955412797
31
0.000424394897570046
  0
LINE
 8
GROUP0
10
5343.30888593305
20
2416.06764519659
30
0.000307186830297657
11
5343.62672317825
21
2416.48185875897
31
0.000307319353042618
  0
LINE
 8
GROUP0
10
5314.96283152436
20
2397.99955412797
30
0.000423272508678174
11
5314.89468317694
21
2397.48191603777
31
0.000423314095077798
  0
LINE
 8
GROUP0
10
5366.89467566558
20
2399.48191603777
30
0.000424194177400033
11
5366.37703757537
21
2399.41376769035
31
0.000424223561357018
  0
LINE
 8
GROUP0
10
5342.41231046088
20
2415.55000710639
30
0.000306934991469343
11
5342.89467237068
21
2415.7498079514
31
0.000307055731887451
  0
LINE
 8
GROUP0
10
5327.33824857283
20
2364.29387702706
30
0.000423361853472498
11
5326.3589060141
21
2366.27386731386
31
0.000423361853581067
  0
LINE
 8
GROUP0
10
5345.80161797576
20
2368.63986018856
30
0.000423361858043664
11
5345.07020148023
21
2367.93621329046
31
0.000423361858004889
  0
LINE
 8
GROUP0
10
5347.13116787653
20
2371.3449366149
30
0.00042336185963483
11
5346.8478917592
21
2370.37033555789
31
0.000423361859581251
  0
LINE
 8
GROUP0
10
5315.16263236937
20
2396.48191603777
30
0.000423375651687641
11
5315.48046961457
21
2396.0677024754
31
0.000423391426151509
  0
LINE
 8
GROUP0
10
5314.96283152436
20
2396.96427794756
30
0.000423349275236895
11
5315.16263236937
21
2396.48191603777
31
0.000423375651687641
  0
LINE
 8
GROUP0
10
5336.30376311616
20
2369.62886870626
30
0.000423361858096538
11
5335.88688373639
21
2370.55423329051
31
0.000423361858148708
  0
LINE
 8
GROUP0
10
5346.8478917592
20
2370.37033555789
30
0.000423361859581251
11
5346.40020267126
21
2369.45948239498
31
0.000423361859531196
  0
LINE
 8
GROUP0
10
5343.30054008955
20
2366.95767573598
30
0.00042336185795131
11
5342.31570877017
21
2366.71231714846
31
0.000423361857936505
  0
LINE
 8
GROUP0
10
5342.89467237068
20
2415.7498079514
30
0.000307055731887451
11
5343.30888593305
21
2416.06764519659
31
0.000307186830297657
  0
LINE
 8
GROUP0
10
5315.48046961457
20
2398.89612960014
30
0.000423181696601005
11
5315.16263236937
21
2398.48191603777
31
0.000423227350256616
  0
LINE
 8
GROUP0
10
5315.48046961457
20
2396.0677024754
30
0.000423391426151509
11
5315.89468317694
21
2395.7498652302
31
0.000423395525146925
  0
LINE
 8
GROUP0
10
5340.29380642489
20
2366.74624014959
30
0.00042336185793862
11
5339.31776325918
21
2367.02449413812
31
0.000423361857954835
  0
LINE
 8
GROUP0
10
5316.89468317694
20
2395.48191603777
30
0.000423368391370915
11
5317.41232126715
21
2395.55006438519
31
0.000423339007413931
  0
LINE
 8
GROUP0
10
5364.962824013
20
2397.99955412797
30
0.000424394897570046
11
5364.89467566558
21
2397.48191603777
31
0.00042443648396967
  0
LINE
 8
GROUP0
10
5316.37704508674
20
2395.55006438519
30
0.000423387667853164
11
5316.89468317694
21
2395.48191603777
31
0.000423368391370915
  0
LINE
 8
GROUP0
10
5315.89468317694
20
2395.7498652302
30
0.000423395525146925
11
5316.37704508674
21
2395.55006438519
31
0.000423387667853164
  0
LINE
 8
GROUP0
10
5366.37703757537
20
2399.41376769035
30
0.000424223561357018
11
5365.89467566558
21
2399.21396684534
31
0.000424261048761226
  0
LINE
 8
GROUP0
10
5343.62672317825
20
2416.48185875897
30
0.000307319353042618
11
5343.82652402326
21
2416.96422066876
31
0.000307444267567358
  0
LINE
 8
GROUP0
10
5338.40461095533
20
2367.46748736793
30
0.0004233618579781
11
5337.58191776442
21
2368.06184579111
31
0.000423361858011939
  0
LINE
 8
GROUP0
10
5335.88688373639
20
2370.55423329051
30
0.000423361858148708
11
5326.0397614687
21
2367.11194992199
31
0.000423361853628301
  0
LINE
 8
GROUP0
10
5314.89468317694
20
2397.48191603777
30
0.000423314095077798
11
5314.96283152436
21
2396.96427794756
31
0.000423349275236895
  0
LINE
 8
GROUP0
10
5326.0397614687
20
2367.11194992199
30
0.000423361853628301
11
5326.3589060141
21
2366.27386731386
31
0.000423361853581067
  0
LINE
 8
GROUP0
10
5365.48046210321
20
2398.89612960014
30
0.000424304085492877
11
5365.16262485801
21
2398.48191603777
31
0.000424349739148488
  0
LINE
 8
GROUP0
10
5364.89467566558
20
2397.48191603777
30
0.00042443648396967
11
5364.962824013
21
2396.96427794756
31
0.000424471664128767
  0
LINE
 8
GROUP0
10
5367.41231375578
20
2399.41376769035
30
0.000424174900917784
11
5366.89467566558
21
2399.48191603777
31
0.000424194177400033
  0
LINE
 8
GROUP0
10
5367.89467566558
20
2395.7498652302
30
0.000424423908899479
11
5368.30888922795
21
2396.0677024754
31
0.000424380872167829
  0
LINE
 8
GROUP0
10
5368.82652731816
20
2396.96427794756
30
0.00042429006009207
11
5368.89467566558
21
2397.48191603777
31
0.000424248473691036
  0
LINE
 8
GROUP0
10
5367.41231375578
20
2395.55006438519
30
0.000424461396305803
11
5367.89467566558
21
2395.7498652302
31
0.000424423908899479
  0
LINE
 8
GROUP0
10
5192.66215644062
20
2418.48185875897
30
0.000307096094827697
11
5192.46235559561
21
2417.99949684917
31
0.000306971180301546
  0
LINE
 8
GROUP0
10
5150.1443760425
20
2327.4818876888
30
0.000140933832970191
11
5150.07622769508
21
2327.99952577901
31
0.000141019093626094
  0
LINE
 8
GROUP0
10
5149.87642685007
20
2326.4818876888
30
0.000140700123477977
11
5150.07622769508
21
2326.9642495986
31
0.000140825038003423
  0
LINE
 8
GROUP0
10
5149.55858960487
20
2326.06767412643
30
0.000140567600732311
11
5149.87642685007
21
2326.4818876888
31
0.000140700123477977
  0
LINE
 8
GROUP0
10
5368.82652731816
20
2397.99955412797
30
0.000424213293533349
11
5368.62672647315
21
2398.48191603777
31
0.000424186917081193
  0
LINE
 8
GROUP0
10
5192.66215644062
20
2416.48185875897
30
0.000306721209004496
11
5192.97999368581
21
2416.06764519659
31
0.000306698448559406
  0
LINE
 8
GROUP0
10
5149.1443760425
20
2325.74983688123
30
0.00014043650232281
11
5149.55858960487
21
2326.06767412643
31
0.000140567600732311
  0
LINE
 8
GROUP0
10
5147.6267379523
20
2325.55003603622
30
0.000140137000756585
11
5148.1443760425
21
2325.4818876888
31
0.000140213607105255
  0
LINE
 8
GROUP0
10
5147.1443760425
20
2325.74983688123
30
0.00014009116227896
11
5147.6267379523
21
2325.55003603622
31
0.000140137000756585
  0
LINE
 8
GROUP0
10
5150.07622769508
20
2326.9642495986
30
0.000140825038003423
11
5150.1443760425
21
2327.4818876888
31
0.000140933832970191
  0
LINE
 8
GROUP0
10
5148.66201413271
20
2325.55003603622
30
0.000140315761906112
11
5149.1443760425
21
2325.74983688123
31
0.00014043650232281
  0
LINE
 8
GROUP0
10
5368.30888922795
20
2398.89612960014
30
0.000424171142617324
11
5367.89467566558
21
2399.21396684534
31
0.000424167043621909
  0
LINE
 8
GROUP0
10
5192.97999368581
20
2416.06764519659
30
0.000306698448559406
11
5193.39420724818
21
2415.7498079514
31
0.000306710394731247
  0
LINE
 8
GROUP0
10
5192.97999368581
20
2418.89607232134
30
0.000307228617573363
11
5192.66215644062
21
2418.48185875897
31
0.000307096094827697
  0
LINE
 8
GROUP0
10
5193.39420724818
20
2419.21390956653
30
0.000307359715982863
11
5192.97999368581
21
2418.89607232134
31
0.000307228617573363
  0
LINE
 8
GROUP0
10
5368.62672647315
20
2396.48191603777
30
0.000424335218512217
11
5368.82652731816
21
2396.96427794756
31
0.00042429006009207
  0
LINE
 8
GROUP0
10
5193.39420724818
20
2415.7498079514
30
0.000306710394731247
11
5193.87656915798
21
2415.55000710639
31
0.000306756233207461
  0
LINE
 8
GROUP0
10
5368.89467566558
20
2397.48191603777
30
0.000424248473691036
11
5368.82652731816
21
2397.99955412797
31
0.000424213293533349
  0
LINE
 8
GROUP0
10
5366.89467566558
20
2395.48191603777
30
0.000424490780262787
11
5367.41231375578
21
2395.55006438519
31
0.000424461396305803
  0
LINE
 8
GROUP0
10
5192.39420724818
20
2417.48185875897
30
0.000306862385335482
11
5192.46235559561
21
2416.96422066876
31
0.00030677712467958
  0
LINE
 8
GROUP0
10
5192.46235559561
20
2417.99949684917
30
0.000306971180301546
11
5192.39420724818
21
2417.48185875897
31
0.000306862385335482
  0
LINE
 8
GROUP0
10
5150.07622769508
20
2327.99952577901
30
0.000141019093626094
11
5149.87642685007
21
2328.4818876888
31
0.000141075009300473
  0
LINE
 8
GROUP0
10
5149.87642685007
20
2328.4818876888
30
0.000141075009300473
11
5149.55858960487
21
2328.89610125118
31
0.000141097769746268
  0
LINE
 8
GROUP0
10
5368.62672647315
20
2398.48191603777
30
0.000424186917081193
11
5368.30888922795
21
2398.89612960014
31
0.000424171142617324
  0
LINE
 8
GROUP0
10
5193.87656915798
20
2419.41371041154
30
0.000307480456399561
11
5193.39420724818
21
2419.21390956653
31
0.000307359715982863
  0
LINE
 8
GROUP0
10
5192.46235559561
20
2416.96422066876
30
0.00030677712467958
11
5192.66215644062
21
2416.48185875897
31
0.000306721209004496
  0
LINE
 8
GROUP0
10
5367.89467566558
20
2399.21396684534
30
0.000424167043621909
11
5367.41231375578
21
2399.41376769035
31
0.000424174900917784
  0
LINE
 8
GROUP0
10
5368.30888922795
20
2396.0677024754
30
0.000424380872167829
11
5368.62672647315
21
2396.48191603777
31
0.000424335218512217
  0
LINE
 8
GROUP0
10
5535.64437604251
20
2325.48188768957
30
1.34391720751914e-007
11
5536.16201413251
21
2325.55003603698
31
2.36546521609204e-007
  0
LINE
 8
GROUP0
10
5536.16201413251
20
2325.55003603698
30
2.36546521609204e-007
11
5536.64437604212
21
2325.74983688192
31
3.57286938307277e-007
  0
LINE
 8
GROUP0
10
5146.41232523493
20
2326.4818876888
30
0.000140101975830298
11
5146.73016248013
21
2326.06767412643
31
0.000140079215384503
  0
LINE
 8
GROUP0
10
5537.57622769429
20
2327.99952577886
30
9.39878241590364e-007
11
5537.37642684935
21
2328.48188768846
31
9.95793915969934e-007
  0
LINE
 8
GROUP0
10
5146.1443760425
20
2327.4818876888
30
0.00014024315216058
11
5146.21252438992
21
2326.9642495986
31
0.000140157891506087
  0
LINE
 8
GROUP0
10
5148.6620141327
20
2329.41373934138
30
0.000141039985098212
11
5148.1443760425
21
2329.4818876888
31
0.000140963378749542
  0
LINE
 8
GROUP0
10
5536.16201413242
20
2329.41373934066
30
9.60769713709286e-007
11
5535.64437604242
21
2329.48188768804
31
8.84163365039159e-007
  0
LINE
 8
GROUP0
10
5533.91232523558
20
2326.48188768915
30
2.2760445794745e-008
11
5534.23016248066
21
2326.06767412694
31
0.0
  0
LINE
 8
GROUP0
10
5146.41232523493
20
2328.4818876888
30
0.000140476862374705
11
5146.21252438992
21
2327.99952577901
31
0.000140351947128758
  0
LINE
 8
GROUP0
10
5148.1443760425
20
2329.4818876888
30
0.000140963378749542
11
5147.6267379523
21
2329.41373934138
31
0.000140861223948685
  0
LINE
 8
GROUP0
10
5147.6267379523
20
2329.41373934138
30
0.000140861223948685
11
5147.1443760425
21
2329.21393849637
31
0.000140740483529872
  0
LINE
 8
GROUP0
10
5146.21252438992
20
2327.99952577901
30
0.000140351947128758
11
5146.1443760425
21
2327.4818876888
31
0.00014024315216058
  0
LINE
 8
GROUP0
10
5537.05858960433
20
2326.06767412701
30
4.88385347807707e-007
11
5537.37642684939
21
2326.48188768923
31
6.20908093473815e-007
  0
LINE
 8
GROUP0
10
5537.6443760417
20
2327.48188768885
30
8.54617585688278e-007
11
5537.57622769429
21
2327.99952577886
31
9.39878241590364e-007
  0
LINE
 8
GROUP0
10
5536.64437604212
20
2325.74983688192
30
3.57286938307277e-007
11
5537.05858960433
21
2326.06767412701
31
4.88385347807707e-007
  0
LINE
 8
GROUP0
10
5534.2301624806
20
2328.89610125061
30
5.30169013956971e-007
11
5533.91232523553
21
2328.48188768838
31
3.97646268290863e-007
  0
LINE
 8
GROUP0
10
5148.1443760425
20
2325.4818876888
30
0.000140213607105255
11
5148.66201413271
21
2325.55003603622
31
0.000140315761906112
  0
LINE
 8
GROUP0
10
5149.1443760425
20
2329.21393849637
30
0.000141085823573722
11
5148.6620141327
21
2329.41373934138
31
0.000141039985098212
  0
LINE
 8
GROUP0
10
5537.57622769431
20
2326.96424959884
30
7.45822618919423e-007
11
5537.6443760417
21
2327.48188768885
31
8.54617585688278e-007
  0
LINE
 8
GROUP0
10
5537.37642684935
20
2328.48188768846
30
9.95793915969934e-007
11
5537.05858960426
21
2328.89610125067
31
1.01855436176468e-006
  0
LINE
 8
GROUP0
10
5533.91232523553
20
2328.48188768838
30
3.97646268290863e-007
11
5533.71252439061
21
2327.99952577877
31
2.72731744255239e-007
  0
LINE
 8
GROUP0
10
5149.55858960487
20
2328.89610125118
30
0.000141097769746268
11
5149.1443760425
21
2329.21393849637
31
0.000141085823573722
  0
LINE
 8
GROUP0
10
5535.1267379525
20
2325.55003603695
30
5.77846501703672e-008
11
5535.64437604251
21
2325.48188768957
31
1.34391720751914e-007
  0
LINE
 8
GROUP0
10
5534.64437604288
20
2325.74983688188
30
1.19461725456294e-008
11
5535.1267379525
21
2325.55003603695
31
5.77846501703672e-008
  0
LINE
 8
GROUP0
10
5146.73016248013
20
2326.06767412643
30
0.000140079215384503
11
5147.1443760425
21
2325.74983688123
31
0.00014009116227896
  0
LINE
 8
GROUP0
10
5318.82653482952
20
2346.96427043608
30
0.000430953486726993
11
5318.89468317694
21
2347.48190852628
31
0.000430911900325959
  0
LINE
 8
GROUP0
10
5534.6443760428
20
2329.21393849569
30
6.61267423457401e-007
11
5534.2301624806
21
2328.89610125061
31
5.30169013956971e-007
  0
LINE
 8
GROUP0
10
5146.73016248013
20
2328.89610125118
30
0.000140609385120372
11
5146.41232523493
21
2328.4818876888
31
0.000140476862374705
  0
LINE
 8
GROUP0
10
5146.21252438992
20
2326.9642495986
30
0.000140157891506087
11
5146.41232523493
21
2326.4818876888
31
0.000140101975830298
  0
LINE
 8
GROUP0
10
5537.37642684939
20
2326.48188768923
30
6.20908093473815e-007
11
5537.57622769431
21
2326.96424959884
31
7.45822618919423e-007
  0
LINE
 8
GROUP0
10
5147.1443760425
20
2329.21393849637
30
0.000140740483529872
11
5146.73016248013
21
2328.89610125118
31
0.000140609385120372
  0
LINE
 8
GROUP0
10
5537.05858960426
20
2328.89610125067
30
1.01855436176468e-006
11
5536.64437604204
21
2329.21393849574
31
1.00660818921905e-006
  0
LINE
 8
GROUP0
10
5318.30889673931
20
2348.89612208866
30
0.000430834569252248
11
5317.89468317694
21
2349.21395933385
31
0.000430830470256832
  0
LINE
 8
GROUP0
10
5316.37704508674
20
2399.41376769035
30
0.000423101172465146
11
5315.89468317694
21
2399.21396684534
31
0.000423138659869354
  0
LINE
 8
GROUP0
10
5316.89468317694
20
2345.48190852628
30
0.000431154206895595
11
5317.41232126715
21
2345.55005687371
31
0.000431124822938611
  0
LINE
 8
GROUP0
10
5317.89468317694
20
2399.21396684534
30
0.000423044654730037
11
5317.41232126715
21
2399.41376769035
31
0.000423052512025912
  0
LINE
 8
GROUP0
10
5318.62673398451
20
2398.48191603777
30
0.000423064528189321
11
5318.30889673932
21
2398.89612960014
31
0.000423048753725452
  0
LINE
 8
GROUP0
10
5318.62673398451
20
2348.48190852628
30
0.000430850343716116
11
5318.30889673931
21
2348.89612208866
31
0.000430834569252248
  0
LINE
 8
GROUP0
10
5317.89468317694
20
2349.21395933385
30
0.000430830470256832
11
5317.41232126715
21
2349.41376017886
31
0.000430838327550592
  0
LINE
 8
GROUP0
10
5315.16263236937
20
2348.48190852628
30
0.000431013165783412
11
5314.96283152436
21
2347.99954661649
31
0.000431058324202854
  0
LINE
 8
GROUP0
10
5318.62673398451
20
2346.48190852628
30
0.000430998645146435
11
5318.82653482952
21
2346.96427043608
31
0.000430953486726993
  0
LINE
 8
GROUP0
10
5318.30889673932
20
2398.89612960014
30
0.000423048753725452
11
5317.89468317694
21
2399.21396684534
31
0.000423044654730037
  0
LINE
 8
GROUP0
10
5535.64437604242
20
2329.48188768804
30
8.84163365039159e-007
11
5535.12673795241
21
2329.41373934063
31
7.82008564181869e-007
  0
LINE
 8
GROUP0
10
5536.64437604204
20
2329.21393849574
30
1.00660818921905e-006
11
5536.16201413242
21
2329.41373934066
31
9.60769713709286e-007
  0
LINE
 8
GROUP0
10
5316.89468317694
20
2349.48190852628
30
0.000430857604032842
11
5316.37704508674
21
2349.41376017886
31
0.000430886987989826
  0
LINE
 8
GROUP0
10
5317.41232126715
20
2345.55005687371
30
0.000431124822938611
11
5317.89468317694
21
2345.74985771871
31
0.000431087335533697
  0
LINE
 8
GROUP0
10
5314.96283152436
20
2346.96427043608
30
0.00043113509076369
11
5315.16263236937
21
2346.48190852628
31
0.000431161467213731
  0
LINE
 8
GROUP0
10
5315.89468317694
20
2349.21395933385
30
0.000430924475396149
11
5315.48046961457
21
2348.89612208866
31
0.0004309675121278
  0
LINE
 8
GROUP0
10
5315.48046961457
20
2346.06769496391
30
0.000431177241678304
11
5315.89468317694
21
2345.74985771871
31
0.000431181340673015
  0
LINE
 8
GROUP0
10
5314.96283152436
20
2347.99954661649
30
0.000431058324202854
11
5314.89468317694
21
2347.48190852628
31
0.000431099910604593
  0
LINE
 8
GROUP0
10
5315.48046961457
20
2348.89612208866
30
0.0004309675121278
11
5315.16263236937
21
2348.48190852628
31
0.000431013165783412
  0
LINE
 8
GROUP0
10
5315.89468317694
20
2345.74985771871
30
0.000431181340673015
11
5316.37704508674
21
2345.55005687371
31
0.000431173483377845
  0
LINE
 8
GROUP0
10
5316.37704508674
20
2345.55005687371
30
0.000431173483377845
11
5316.89468317694
21
2345.48190852628
31
0.000431154206895595
  0
LINE
 8
GROUP0
10
5317.41232126715
20
2349.41376017886
30
0.000430838327550592
11
5316.89468317694
21
2349.48190852628
31
0.000430857604032842
  0
LINE
 8
GROUP0
10
5533.64437604323
20
2327.48188768876
30
1.63936776076401e-007
11
5533.71252439063
21
2326.96424959875
31
7.86761215842979e-008
  0
LINE
 8
GROUP0
10
5534.23016248066
20
2326.06767412694
30
0.0
11
5534.64437604288
21
2325.74983688188
31
1.19461725456294e-008
  0
LINE
 8
GROUP0
10
5533.71252439063
20
2326.96424959875
30
7.86761215842979e-008
11
5533.91232523558
21
2326.48188768915
31
2.2760445794745e-008
  0
LINE
 8
GROUP0
10
5314.89468317694
20
2347.48190852628
30
0.000431099910604593
11
5314.96283152436
21
2346.96427043608
31
0.00043113509076369
  0
LINE
 8
GROUP0
10
5533.71252439061
20
2327.99952577877
30
2.72731744255239e-007
11
5533.64437604323
21
2327.48188768876
31
1.63936776076401e-007
  0
LINE
 8
GROUP0
10
5315.16263236937
20
2346.48190852628
30
0.000431161467213731
11
5315.48046961457
21
2346.06769496391
31
0.000431177241678304
  0
LINE
 8
GROUP0
10
5318.30889673931
20
2346.06769496391
30
0.000431044298802752
11
5318.62673398451
21
2346.48190852628
31
0.000430998645146435
  0
LINE
 8
GROUP0
10
5317.89468317694
20
2345.74985771871
30
0.000431087335533697
11
5318.30889673931
21
2346.06769496391
31
0.000431044298802752
  0
LINE
 8
GROUP0
10
5535.12673795241
20
2329.41373934063
30
7.82008564181869e-007
11
5534.6443760428
21
2329.21393849569
31
6.61267423457401e-007
  0
LINE
 8
GROUP0
10
5318.89468317694
20
2347.48190852628
30
0.000430911900325959
11
5318.82653482952
21
2347.99954661649
31
0.000430876720166157
  0
LINE
 8
GROUP0
10
5367.41231375578
20
2345.55005687371
30
0.000424832147052823
11
5367.89467566558
21
2345.74985771871
31
0.000424794659647909
  0
LINE
 8
GROUP0
10
5368.89467566558
20
2347.48190852628
30
0.00042461922444017
11
5368.82652731816
21
2347.99954661649
31
0.000424584044280368
  0
LINE
 8
GROUP0
10
5364.962824013
20
2346.96427043608
30
0.000424842414877902
11
5365.16262485801
21
2346.48190852628
31
0.000424868791327943
  0
LINE
 8
GROUP0
10
5365.16262485801
20
2346.48190852628
30
0.000424868791327943
11
5365.48046210321
21
2346.06769496391
31
0.000424884565792516
  0
LINE
 8
GROUP0
10
5365.89467566558
20
2345.74985771871
30
0.000424888664787226
11
5366.37703757537
21
2345.55005687371
31
0.000424880807492056
  0
LINE
 8
GROUP0
10
5344.28455332798
20
2402.16727589841
30
0.000420910847166822
11
5344.22723107022
21
2402.17482251681
31
0.000420764888949582
  0
LINE
 8
GROUP0
10
5365.48046210321
20
2346.06769496391
30
0.000424884565792516
11
5365.89467566558
21
2345.74985771871
31
0.000424888664787226
  0
LINE
 8
GROUP0
10
5366.89467566558
20
2345.48190852628
30
0.000424861531009807
11
5367.41231375578
21
2345.55005687371
31
0.000424832147052823
  0
LINE
 8
GROUP0
10
5354.90445311118
20
2389.64228665395
30
0.000423361861360649
11
5364.5992997144
21
2391.75145790113
31
0.000421091876711488
  0
LINE
 8
GROUP0
10
5363.10788041893
20
2393.69511336853
30
0.000421025859463858
11
5356.89467776116
21
2398.46267144962
31
0.000420964378861277
  0
LINE
 8
GROUP0
10
5368.30888922795
20
2346.06769496391
30
0.000424751622916963
11
5368.62672647315
21
2346.48190852628
31
0.000424705969260647
  0
LINE
 8
GROUP0
10
5334.13010902572
20
2401.4596836857
30
0.000421812138375194
11
5326.89468128459
21
2398.46267138575
31
0.000422374452341479
  0
LINE
 8
GROUP0
10
5368.62672647315
20
2346.48190852628
30
0.000424705969260647
11
5368.82652731816
21
2346.96427043608
31
0.000424660810841204
  0
LINE
 8
GROUP0
10
5349.65925002004
20
2401.45968374956
30
0.000421082232508602
11
5344.83655232897
21
2394.04608070791
31
0.000423361860881255
  0
LINE
 8
GROUP0
10
5367.89467566558
20
2345.74985771871
30
0.000424794659647909
11
5368.30888922795
21
2346.06769496391
31
0.000424751622916963
  0
LINE
 8
GROUP0
10
5333.51015752292
20
2386.71366892572
30
0.000423361859034177
11
5328.81469884142
21
2390.32547296347
31
0.0004233618541789
  0
LINE
 8
GROUP0
10
5339.09928088759
20
2394.19631151325
30
0.000423361859445892
11
5344.28455332798
21
2402.16727589841
31
0.000420910847166822
  0
LINE
 8
GROUP0
10
5356.89467776116
20
2398.46267144962
30
0.000420964378861277
11
5349.65925002004
21
2401.45968374956
31
0.000421082232508602
  0
LINE
 8
GROUP0
10
5328.81469884142
20
2390.32547296347
30
0.0004233618541789
11
5326.89468128459
21
2398.46267138575
31
0.000422374452341479
  0
LINE
 8
GROUP0
10
5366.37703757537
20
2345.55005687371
30
0.000424880807492056
11
5366.89467566558
21
2345.48190852628
31
0.000424861531009807
  0
LINE
 8
GROUP0
10
5364.5992997144
20
2391.75145790113
30
0.000421091876711488
11
5363.10788041893
21
2393.69511336853
31
0.000421025859463858
  0
LINE
 8
GROUP0
10
5344.83655232897
20
2394.04608070791
30
0.000423361860881255
11
5345.67963267182
21
2388.18249072439
31
0.000423361860558369
  0
LINE
 8
GROUP0
10
5370.87245083549
20
2380.2464826848
30
0.000421658128238567
11
5367.87543853554
21
2387.48191042592
31
0.000421262484359386
  0
LINE
 8
GROUP0
10
5335.66908439871
20
2387.71196872472
30
0.000423361859089871
11
5333.51015752292
21
2386.71366892572
31
0.000423361859034177
  0
LINE
 8
GROUP0
10
5337.95047559554
20
2388.38488519537
30
0.000423361859125826
11
5335.66908439871
21
2387.71196872472
31
0.000423361859089871
  0
LINE
 8
GROUP0
10
5368.82652731816
20
2346.96427043608
30
0.000424660810841204
11
5368.89467566558
21
2347.48190852628
31
0.00042461922444017
  0
LINE
 8
GROUP0
10
5341.89467940675
20
2402.48190876905
30
0.000421371389129305
11
5334.13010902572
21
2401.4596836857
31
0.000421812138375194
  0
LINE
 8
GROUP0
10
5357.20846374329
20
2376.3478157239
30
0.000423361860630983
11
5356.68127591162
21
2378.07959636646
31
0.000423361860726157
  0
LINE
 8
GROUP0
10
5344.22723107022
20
2402.17482251681
30
0.000420764888949582
11
5341.89467940675
21
2402.48190876905
31
0.000421371389129305
  0
LINE
 8
GROUP0
10
5371.57054081681
20
2370.0198617694
30
0.000422760353583318
11
5371.89467591884
21
2372.48191230376
31
0.000422185828456467
  0
LINE
 8
GROUP0
10
5347.92268096728
20
2387.3910953136
30
0.000423361860516069
11
5345.67963267182
21
2388.18249072439
31
0.000423361860558369
  0
LINE
 8
GROUP0
10
5350.02640254203
20
2386.28117740614
30
0.00042336186045403
11
5347.92268096728
21
2387.3910953136
31
0.000423361860516069
  0
LINE
 8
GROUP0
10
5368.82652731816
20
2347.99954661649
30
0.000424584044280368
11
5368.62672647315
21
2348.48190852628
31
0.000424557667830328
  0
LINE
 8
GROUP0
10
5368.62672647315
20
2348.48190852628
30
0.000424557667830328
11
5368.30888922795
21
2348.89612208866
31
0.000424541893366459
  0
LINE
 8
GROUP0
10
5354.90445311118
20
2389.64228665395
30
0.000423361861360649
11
5350.02640254203
21
2386.28117740614
31
0.00042336186045403
  0
LINE
 8
GROUP0
10
5339.09928088759
20
2394.19631151325
30
0.000423361859445892
11
5337.95047559554
21
2388.38488519537
31
0.000423361859125826
  0
LINE
 8
GROUP0
10
5328.8146991859
20
2354.63835247136
30
0.000423361852943754
11
5319.00746386737
21
2353.45033089755
31
0.000426260642702198
  0
LINE
 8
GROUP0
10
5335.66908474319
20
2357.25185823473
30
0.000423361853086163
11
5337.95047594002
21
2356.57894023945
31
0.000423361853050208
  0
LINE
 8
GROUP0
10
5355.42158452375
20
2380.74286755366
30
0.00042336186087209
11
5358.90923952513
21
2385.53126077428
31
0.000423361861135052
  0
LINE
 8
GROUP0
10
5356.47605594832
20
2366.35301403268
30
0.00042336186008391
11
5357.20846345287
21
2368.6160090528
31
0.000423361860207988
  0
LINE
 8
GROUP0
10
5358.90923923471
20
2359.43256400242
30
0.000423361859703919
11
5355.42158423333
21
2364.2209602723
31
0.000423361859244969
  0
LINE
 8
GROUP0
10
5367.87543824513
20
2357.4819141602
30
0.000423487001496808
11
5370.87245054507
21
2364.71734190132
31
0.000422809623023923
  0
LINE
 8
GROUP0
10
5328.8146991859
20
2354.63835247136
30
0.000423361852943754
11
5333.5101578674
21
2358.25015650911
31
0.000423361853141857
  0
LINE
 8
GROUP0
10
5347.92268068043
20
2357.57273010545
30
0.000423361857435256
11
5350.02640225519
21
2358.68264953753
31
0.000423361858941118
  0
LINE
 8
GROUP0
10
5349.6592497332
20
2343.5041414789
30
0.000425379665496733
11
5356.89467747433
21
2346.50115377884
31
0.000424817355863327
  0
LINE
 8
GROUP0
10
5319.00746386737
20
2353.45033089755
30
0.000426260642702198
11
5320.68147897131
21
2351.26871193957
31
0.000426165953794327
  0
LINE
 8
GROUP0
10
5350.02640225519
20
2358.68264953753
30
0.000423361858941118
11
5354.90445282434
21
2355.32153571583
31
0.000423361858755705
  0
LINE
 8
GROUP0
10
5356.89467747433
20
2346.50115377884
30
0.000424817355863327
11
5354.90445282434
21
2355.32153571583
31
0.000423361858755705
  0
LINE
 8
GROUP0
10
5370.87245054507
20
2364.71734190132
30
0.000422809623023923
11
5363.0479734418
21
2369.61229310134
31
0.000423361860261567
  0
LINE
 8
GROUP0
10
5326.89468162908
20
2346.50115385848
30
0.000426227429343529
11
5334.13010937021
21
2343.50414155854
31
0.000426109575694794
  0
LINE
 8
GROUP0
10
5324.60024615762
20
2386.42967277655
30
0.000423361853965287
11
5322.54798444565
21
2395.12733322517
31
0.000422306445936022
  0
LINE
 8
GROUP0
10
5361.0991200021
20
2349.7273356178
30
0.000424963370565906
11
5363.10788016404
21
2351.26871150243
31
0.000424171801998102
  0
LINE
 8
GROUP0
10
5358.90923923471
20
2359.43256400242
30
0.000423361859703919
11
5361.0991200021
21
2349.7273356178
31
0.000424963370565906
  0
LINE
 8
GROUP0
10
5363.04797373221
20
2375.35153434346
30
0.000423361860577404
11
5357.20846374329
21
2376.3478157239
31
0.000423361860630983
  0
LINE
 8
GROUP0
10
5363.10788016404
20
2351.26871150243
30
0.000424171801998102
11
5367.87543824513
21
2357.4819141602
31
0.000423487001496808
  0
LINE
 8
GROUP0
10
5363.04797373221
20
2375.35153434346
30
0.000423361860577404
11
5371.57054081681
21
2370.0198617694
31
0.000422760353583318
  0
LINE
 8
GROUP0
10
5339.2990370375
20
2342.82363918911
30
0.000426423847521429
11
5341.89467935217
21
2342.48191639554
31
0.000425820419074091
  0
LINE
 8
GROUP0
10
5355.42158423333
20
2364.2209602723
30
0.000423361859244969
11
5356.47605594832
21
2366.35301403268
31
0.00042336186008391
  0
LINE
 8
GROUP0
10
5333.5101578674
20
2358.25015650911
30
0.000423361853141857
11
5335.66908474319
21
2357.25185823473
31
0.000423361853086163
  0
LINE
 8
GROUP0
10
5344.83655204212
20
2350.91774776039
30
0.00042336185707007
11
5345.67963238498
21
2356.78133469466
31
0.000423361857392956
  0
LINE
 8
GROUP0
10
5371.89467591884
20
2372.48191230376
30
0.000422185828456467
11
5370.87245083549
21
2380.2464826848
31
0.000421658128238567
  0
LINE
 8
GROUP0
10
5344.83655204212
20
2350.91774776039
30
0.00042336185707007
11
5339.2990370375
21
2342.82363918911
31
0.000426423847521429
  0
LINE
 8
GROUP0
10
5345.67963238498
20
2356.78133469466
30
0.000423361857392956
11
5347.92268068043
21
2357.57273010545
31
0.000423361857435256
  0
LINE
 8
GROUP0
10
5357.20846345287
20
2368.6160090528
30
0.000423361860207988
11
5363.0479734418
21
2369.61229310134
31
0.000423361860261567
  0
LINE
 8
GROUP0
10
5341.89467935217
20
2342.48191639554
30
0.000425820419074091
11
5349.6592497332
21
2343.5041414789
31
0.000425379665496733
  0
LINE
 8
GROUP0
10
5355.42158452375
20
2380.74286755366
30
0.00042336186087209
11
5356.44363652206
21
2378.68996034765
31
0.000423361860760701
  0
LINE
 8
GROUP0
10
5367.87543853554
20
2387.48191042592
30
0.000421262484359386
11
5358.90923952513
21
2385.53126077428
31
0.000423361861135052
  0
LINE
 8
GROUP0
10
5356.68127591162
20
2378.07959636646
30
0.000423361860726157
11
5356.44363652206
21
2378.68996034765
31
0.000423361860760701
  0
LINE
 8
GROUP0
10
5326.98579392727
20
2380.03218583028
30
0.000423361854336113
11
5326.28990739212
21
2378.5200615751
31
0.000423361854252924
  0
LINE
 8
GROUP0
10
5551.39454483679
20
2342.4818876888
30
0.00013327945465918
11
5561.39454483679
21
2342.4818876888
31
0.000135006148381228
  0
LINE
 8
GROUP0
10
5586.39454483679
20
2377.48190505894
30
0.000107199302024502
11
5586.39454483679
21
2367.48190505894
31
0.000107199301474609
  0
LINE
 8
GROUP0
10
5586.39454483679
20
2367.48190505894
30
0.000107199301474609
11
5561.39454483679
21
2342.4818876888
31
0.000135006148381228
  0
LINE
 8
GROUP0
10
5327.83251813406
20
2381.46531294475
30
0.000423361854415777
11
5326.98579392727
21
2380.03218583028
31
0.000423361854336113
  0
LINE
 8
GROUP0
10
5334.13010937021
20
2343.50414155854
30
0.000426109575694794
11
5339.09928123206
21
2350.76751087232
31
0.000423361852731552
  0
LINE
 8
GROUP0
10
5327.02743460174
20
2382.70181167225
30
0.000423361854483456
11
5327.83251813406
21
2381.46531294475
31
0.000423361854415777
  0
LINE
 8
GROUP0
10
5551.39454483679
20
2342.4818876888
30
0.00013327945465918
11
5551.39454483679
21
2317.4818876888
31
0.000135006152783901
  0
LINE
 8
GROUP0
10
5322.54798444565
20
2395.12733322517
30
0.000422306445936022
11
5320.68147857557
21
2393.69511289783
31
0.000423020011260083
  0
LINE
 8
GROUP0
10
5551.39454483679
20
2402.48192242908
30
7.65692234299842e-005
11
5561.39454483679
21
2402.48192242908
31
7.82959171520325e-005
  0
LINE
 8
GROUP0
10
5509.39513749331
20
2407.4818876888
30
0.000150342851798158
11
5551.39454483679
21
2407.4818876888
31
0.000135006158443574
  0
LINE
 8
GROUP0
10
5324.60024615762
20
2386.42967277655
30
0.000423361853965287
11
5327.02743460174
21
2382.70181167225
31
0.000423361854483456
  0
LINE
 8
GROUP0
10
5320.68147897131
20
2351.26871193957
30
0.000426165953794327
11
5326.89468162908
21
2346.50115385848
31
0.000426227429343529
  0
LINE
 8
GROUP0
10
5509.39513749331
20
2427.48190470874
30
0.000150342852895829
11
5509.39513749331
21
2407.4818876888
31
0.000150342851798158
  0
LINE
 8
GROUP0
10
5174.39420724804
20
2427.48191973753
30
4.05114588825028e-005
11
5509.39513749331
21
2427.48190470874
31
0.000150342852895829
  0
LINE
 8
GROUP0
10
5551.39454483679
20
2407.4818876888
30
0.000135006158443574
11
5551.39454483679
21
2402.48192242908
31
7.65692234299842e-005
  0
LINE
 8
GROUP0
10
5174.39420724804
20
2407.48191973753
30
4.05114577848309e-005
11
5174.39420724804
21
2427.48191973753
31
4.05114588825028e-005
  0
LINE
 8
GROUP0
10
5339.09928123206
20
2350.76751087232
30
0.000423361852731552
11
5337.95047594002
21
2356.57894023945
31
0.000423361853050208
  0
LINE
 8
GROUP0
10
5551.39454483679
20
2317.4818876888
30
0.000135006152783901
11
5132.39454483696
21
2317.4818876888
31
0.000145491158145616
  0
LINE
 8
GROUP0
10
5561.39454483679
20
2402.48192242908
30
7.82959171520325e-005
11
5586.39454483679
21
2377.48190505894
31
0.000107199302024502
  0
LINE
 8
GROUP0
10
5097.39454483696
20
2377.48190505894
30
0.000114771078611203
11
5122.39454483696
21
2402.48192242908
31
8.70542280697884e-005
  0
LINE
 8
GROUP0
10
5487.98092393101
20
2416.0676821276
30
0.000276178806603344
11
5488.39513749338
21
2415.74984488241
31
0.000276190752775185
  0
LINE
 8
GROUP0
10
5097.39454483696
20
2367.48190505894
30
0.00011477107806131
11
5097.39454483696
21
2377.48190505894
31
0.000114771078611203
  0
LINE
 8
GROUP0
10
5132.39454483696
20
2317.4818876888
30
0.000145491158145616
11
5132.39454483696
21
2342.4818876888
31
0.000145491159518235
  0
LINE
 8
GROUP0
10
5487.66308668581
20
2416.48189568997
30
0.000276201567048434
11
5487.98092393101
21
2416.0676821276
31
0.000276178806603344
  0
LINE
 8
GROUP0
10
5132.39454483696
20
2342.4818876888
30
0.000145491159518235
11
5122.39454483696
21
2342.4818876888
31
0.000143764454245604
  0
LINE
 8
GROUP0
10
5488.39513749338
20
2415.74984488241
30
0.000276190752775185
11
5488.87749940318
21
2415.5500440374
31
0.0002762365912514
  0
LINE
 8
GROUP0
10
5488.87749940318
20
2415.5500440374
30
0.0002762365912514
11
5489.39513749338
21
2415.48189568997
31
0.00027631319760007
  0
LINE
 8
GROUP0
10
5132.39454483696
20
2402.48192242908
30
8.87809282890395e-005
11
5122.39454483696
21
2402.48192242908
31
8.70542280697884e-005
  0
LINE
 8
GROUP0
10
5122.39454483696
20
2342.4818876888
30
0.000143764454245604
11
5097.39454483696
21
2367.48190505894
31
0.00011477107806131
  0
LINE
 8
GROUP0
10
5489.39513749338
20
2415.48189568997
30
0.00027631319760007
11
5489.91277558359
21
2415.5500440374
31
0.000276415352400927
  0
LINE
 8
GROUP0
10
5132.39454483696
20
2407.48192242908
30
8.54450336465362e-005
11
5174.39420724804
21
2407.48191973753
31
4.05114577848309e-005
  0
LINE
 8
GROUP0
10
5487.4632858408
20
2416.96425759977
30
0.000276257482723519
11
5487.66308668581
21
2416.48189568997
31
0.000276201567048434
  0
LINE
 8
GROUP0
10
5489.91277558359
20
2415.5500440374
30
0.000276415352400927
11
5490.39513749338
21
2415.74984488241
31
0.000276536093540947
  0
LINE
 8
GROUP0
10
5487.39513749338
20
2417.48189568997
30
0.000276342749876624
11
5487.4632858408
21
2416.96425759977
31
0.000276257482723519
  0
LINE
 8
GROUP0
10
5132.39454483696
20
2402.48192242908
30
8.87809282890395e-005
11
5132.39454483696
21
2407.48192242908
31
8.54450336465362e-005
  0
LINE
 8
GROUP0
10
5487.98092393101
20
2418.89610925235
30
0.000276708975617301
11
5487.66308668581
21
2418.48189568997
31
0.000276576452871635
  0
LINE
 8
GROUP0
10
5491.39513749338
20
2417.48189568997
30
0.000277033424189033
11
5491.32698914596
21
2417.99953378018
31
0.00027711868484282
  0
LINE
 8
GROUP0
10
5491.32698914596
20
2416.96425759977
30
0.000276924629220854
11
5491.39513749338
21
2417.48189568997
31
0.000277033424189033
  0
LINE
 8
GROUP0
10
5490.39513749338
20
2419.21394649754
30
0.000277185414792563
11
5489.91277558359
21
2419.41374734255
31
0.000277139576314939
  0
LINE
 8
GROUP0
10
5490.80935105576
20
2416.0676821276
30
0.000276667191951152
11
5491.12718830095
21
2416.48189568997
31
0.000276799714696113
  0
LINE
 8
GROUP0
10
5489.39513749338
20
2419.48189568997
30
0.000277062969966269
11
5488.87749940318
21
2419.41374734255
31
0.0002769608144435
  0
LINE
 8
GROUP0
10
5488.87749940318
20
2419.41374734255
30
0.0002769608144435
11
5488.39513749338
21
2419.21394649754
31
0.000276840074026802
  0
LINE
 8
GROUP0
10
5489.91277558359
20
2419.41374734255
30
0.000277139576314939
11
5489.39513749338
21
2419.48189568997
31
0.000277062969966269
  0
LINE
 8
GROUP0
10
5491.32698914596
20
2417.99953378018
30
0.00027711868484282
11
5491.12718830095
21
2418.48189568997
31
0.000277174600519314
  0
LINE
 8
GROUP0
10
5490.80935105576
20
2418.89610925235
30
0.000277197360965109
11
5490.39513749338
21
2419.21394649754
31
0.000277185414792563
  0
LINE
 8
GROUP0
10
5487.4632858408
20
2417.99953378018
30
0.000276451538345485
11
5487.39513749338
21
2417.48189568997
31
0.000276342749876624
  0
LINE
 8
GROUP0
10
5490.39513749338
20
2415.74984488241
30
0.000276536093540947
11
5490.80935105576
21
2416.0676821276
31
0.000276667191951152
  0
LINE
 8
GROUP0
10
5491.12718830095
20
2416.48189568997
30
0.000276799714696113
11
5491.32698914596
21
2416.96425759977
31
0.000276924629220854
  0
LINE
 8
GROUP0
10
5491.12718830095
20
2418.48189568997
30
0.000277174600519314
11
5490.80935105576
21
2418.89610925235
31
0.000277197360965109
  0
LINE
 8
GROUP0
10
5488.39513749338
20
2419.21394649754
30
0.000276840074026802
11
5487.98092393101
21
2418.89610925235
31
0.000276708975617301
  0
LINE
 8
GROUP0
10
5487.66308668581
20
2418.48189568997
30
0.000276576452871635
11
5487.4632858408
21
2417.99953378018
31
0.000276451538345485
  0
LINE
 8
GROUP0
10
5196.32605890076
20
2417.99949684917
30
0.000307638325355058
11
5196.12625805575
21
2418.48185875897
31
0.000307694241031553
  0
LINE
 8
GROUP0
10
5195.80842081056
20
2416.06764519659
30
0.000307186832463391
11
5196.12625805575
21
2416.48185875897
31
0.000307319355208352
  0
LINE
 8
GROUP0
10
5194.91184533839
20
2415.55000710639
30
0.000306934993635077
11
5195.39420724818
21
2415.7498079514
31
0.000307055734053185
  0
LINE
 8
GROUP0
10
5194.39420724818
20
2415.48185875897
30
0.000306832839556131
11
5194.91184533839
21
2415.55000710639
31
0.000306934993635077
  0
LINE
 8
GROUP0
10
5196.12625805575
20
2416.48185875897
30
0.000307319355208352
11
5196.32605890076
21
2416.96422066876
31
0.000307444269733093
  0
LINE
 8
GROUP0
10
5196.12625805575
20
2418.48185875897
30
0.000307694241031553
11
5195.80842081056
21
2418.89607232134
31
0.000307717001477348
  0
LINE
 8
GROUP0
10
5194.39420724818
20
2419.48185875897
30
0.000307582611200419
11
5193.87656915798
21
2419.41371041154
31
0.000307480456399561
  0
LINE
 8
GROUP0
10
5196.39420724818
20
2417.48185875897
30
0.000307553064701271
11
5196.32605890076
21
2417.99949684917
31
0.000307638325355058
  0
LINE
 8
GROUP0
10
5195.39420724818
20
2415.7498079514
30
0.000307055734053185
11
5195.80842081056
21
2416.06764519659
31
0.000307186832463391
  0
LINE
 8
GROUP0
10
5195.39420724818
20
2419.21390956653
30
0.000307705055304802
11
5194.91184533839
21
2419.41371041154
31
0.000307659216827177
  0
LINE
 8
GROUP0
10
5196.32605890076
20
2416.96422066876
30
0.000307444269733093
11
5196.39420724818
21
2417.48185875897
31
0.000307553064701271
  0
LINE
 8
GROUP0
10
5193.87656915798
20
2415.55000710639
30
0.000306756233207461
11
5194.39420724818
21
2415.48185875897
31
0.000306832839556131
  0
LINE
 8
GROUP0
10
5195.80842081056
20
2418.89607232134
30
0.000307717001477348
11
5195.39420724818
21
2419.21390956653
31
0.000307705055304802
  0
LINE
 8
GROUP0
10
5194.91184533839
20
2419.41371041154
30
0.000307659216827177
11
5194.39420724818
21
2419.48185875897
31
0.000307582611200419
  0
LINE
 8
GROUP0
10
5365.16262485801
20
2396.48191603777
30
0.000424498040579513
11
5365.48046210321
21
2396.0677024754
31
0.000424513815043381
  0
LINE
 8
GROUP0
10
5318.62673398451
20
2396.48191603777
30
0.000423212829620345
11
5318.82653482952
21
2396.96427794756
31
0.000423167671200197
  0
LINE
 8
GROUP0
10
5318.82653482952
20
2396.96427794756
30
0.000423167671200197
11
5318.89468317694
21
2397.48191603777
31
0.000423126084799164
  0
LINE
 8
GROUP0
10
5365.89467566558
20
2395.7498652302
30
0.000424517914038797
11
5366.37703757537
21
2395.55006438519
31
0.000424510056745037
  0
LINE
 8
GROUP0
10
5364.89467566558
20
2347.48190852628
30
0.000424807234718805
11
5364.962824013
21
2346.96427043608
31
0.000424842414877902
  0
LINE
 8
GROUP0
10
5316.37704508674
20
2349.41376017886
30
0.000430886987989826
11
5315.89468317694
21
2349.21395933385
31
0.000430924475396149
  0
LINE
 8
GROUP0
10
5317.41232126715
20
2399.41376769035
30
0.000423052512025912
11
5316.89468317694
21
2399.48191603777
31
0.000423071788508161
  0
LINE
 8
GROUP0
10
5335.97667830155
20
2374.64945457839
30
0.00042336185837219
11
5336.43372251466
21
2375.55565152353
31
0.000423361858422949
  0
LINE
 8
GROUP0
10
5366.37703757537
20
2349.41376017886
30
0.000424594312104037
11
5365.89467566558
21
2349.21395933385
31
0.000424631799510361
  0
LINE
 8
GROUP0
10
5318.82653482952
20
2347.99954661649
30
0.000430876720166157
11
5318.62673398451
21
2348.48190852628
31
0.000430850343716116
  0
LINE
 8
GROUP0
10
5364.962824013
20
2347.99954661649
30
0.000424765648317066
11
5364.89467566558
21
2347.48190852628
31
0.000424807234718805
  0
LINE
 8
GROUP0
10
5364.962824013
20
2396.96427794756
30
0.000424471664128767
11
5365.16262485801
21
2396.48191603777
31
0.000424498040579513
  0
LINE
 8
GROUP0
10
5366.89467566558
20
2349.48190852628
30
0.000424564928147053
11
5366.37703757537
21
2349.41376017886
31
0.000424594312104037
  0
LINE
 8
GROUP0
10
5326.28990739212
20
2378.5200615751
30
0.000423361854252924
11
5335.97667830155
21
2374.64945457839
31
0.00042336185837219
  0
LINE
 8
GROUP0
10
5367.41231375578
20
2349.41376017886
30
0.000424545651664804
11
5366.89467566558
21
2349.48190852628
31
0.000424564928147053
  0
LINE
 8
GROUP0
10
5316.89468317694
20
2399.48191603777
30
0.000423071788508161
11
5316.37704508674
21
2399.41376769035
31
0.000423101172465146
  0
LINE
 8
GROUP0
10
5317.41232126715
20
2395.55006438519
30
0.000423339007413931
11
5317.89468317694
21
2395.7498652302
31
0.000423301520007607
  0
LINE
 8
GROUP0
10
5368.30888922795
20
2348.89612208866
30
0.000424541893366459
11
5367.89467566558
21
2349.21395933385
31
0.000424537794371044
  0
LINE
 8
GROUP0
10
5318.89468317694
20
2397.48191603777
30
0.000423126084799164
11
5318.82653482952
21
2397.99955412797
31
0.000423090904641477
  0
LINE
 8
GROUP0
10
5366.37703757537
20
2395.55006438519
30
0.000424510056745037
11
5366.89467566558
21
2395.48191603777
31
0.000424490780262787
  0
LINE
 8
GROUP0
10
5365.48046210321
20
2348.89612208866
30
0.000424674836242012
11
5365.16262485801
21
2348.48190852628
31
0.000424720489897623
  0
LINE
 8
GROUP0
10
5318.82653482952
20
2397.99955412797
30
0.000423090904641477
11
5318.62673398451
21
2398.48191603777
31
0.000423064528189321
  0
LINE
 8
GROUP0
10
5317.89468317694
20
2395.7498652302
30
0.000423301520007607
11
5318.30889673932
21
2396.0677024754
31
0.000423258483275957
  0
LINE
 8
GROUP0
10
5365.89467566558
20
2349.21395933385
30
0.000424631799510361
11
5365.48046210321
21
2348.89612208866
31
0.000424674836242012
  0
LINE
 8
GROUP0
10
5318.30889673932
20
2396.0677024754
30
0.000423258483275957
11
5318.62673398451
21
2396.48191603777
31
0.000423212829620345
  0
LINE
 8
GROUP0
10
5365.16262485801
20
2348.48190852628
30
0.000424720489897623
11
5364.962824013
21
2347.99954661649
31
0.000424765648317066
  0
LINE
 8
GROUP0
10
5367.89467566558
20
2349.21395933385
30
0.000424537794371044
11
5367.41231375578
21
2349.41376017886
31
0.000424545651664804
  0
LINE
 8
GROUP0
10
5315.89468317694
20
2399.21396684534
30
0.000423138659869354
11
5315.48046961457
21
2398.89612960014
31
0.000423181696601005
  0
LINE
 8
GROUP0
10
5365.48046210321
20
2396.0677024754
30
0.000424513815043381
11
5365.89467566558
21
2395.7498652302
31
0.000424517914038797
 0
ENDSEC
 0
EOF
