 0
SECTION
 2
ENTITIES
  0
LINE
 8
GROUP0
10
5742.67833772052
20
3358.46000298903
30
0.00014185250156073
11
5743.0925506854
21
3358.14216496576
31
0.000142315508068169
  0
LINE
 8
GROUP0
10
5741.6783382247
20
3358.72795406024
30
0.000141119661881378
11
5742.19597618649
21
3358.65980474024
31
0.000141444620912867
  0
LINE
 8
GROUP0
10
5742.19597618649
20
3358.65980474024
30
0.000141444620912867
11
5742.67833772052
21
3358.46000298903
31
0.00014185250156073
  0
LINE
 8
GROUP0
10
5743.0925506854
20
3358.14216496576
30
0.000142315508068169
11
5743.41038715207
21
3357.72795080647
31
0.000142802087135796
  0
LINE
 8
GROUP0
10
5743.41038715207
20
3357.72795080647
30
0.000142802087135796
11
5743.6101870906
21
3357.2455885216
31
0.000143279079207786
  0
LINE
 8
GROUP0
10
5743.09254537087
20
3355.31373784302
30
0.000144495866410688
11
5742.67833121158
21
3354.99590137635
31
0.000144522884623766
  0
LINE
 8
GROUP0
10
5743.6101870906
20
3357.2455885216
30
0.000143279079207786
11
5743.67833446534
21
3356.72795030371
31
0.000143713978065907
  0
LINE
 8
GROUP0
10
5841.17844080396
20
2820.22714509791
30
0.000657324170750612
11
5841.17843830018
21
2840.22714509791
31
0.000657324173541673
  0
LINE
 8
GROUP0
10
5799.17833777397
20
3401.72719392632
30
3.16402035251628e-005
11
5789.17833860232
21
3401.7271943687
31
3.0450956972905e-005
  0
LINE
 8
GROUP0
10
6258.1783666804
20
3366.7271714804
30
0.000114794072279506
11
6258.17836668041
21
3371.72717148039
31
0.000112902413109073
  0
LINE
 8
GROUP0
10
6228.17840430306
20
3401.72719714607
30
9.25296013007171e-005
11
6258.17836668041
21
3371.72717148039
31
0.000112902413109073
  0
LINE
 8
GROUP0
10
5759.17833517279
20
3371.72719240245
30
5.34916927778295e-005
11
5789.17833860232
21
3401.7271943687
31
3.0450956972905e-005
  0
LINE
 8
GROUP0
10
6176.17844079202
20
2820.22718703627
30
0.000494734018220483
11
6176.17843828824
21
2840.22718703627
31
0.000494734021011545
  0
LINE
 8
GROUP0
10
6176.17844079202
20
2820.22718703627
30
0.000494734018220483
11
6218.17844286605
21
2820.22719825189
31
0.000474380260683133
  0
LINE
 8
GROUP0
10
5759.17833515253
20
3366.72719240245
30
5.59889006318148e-005
11
5759.17833517279
21
3371.72719240245
31
5.34916927778295e-005
  0
LINE
 8
GROUP0
10
5841.17843830018
20
2840.22714509791
30
0.000657324173541673
11
6176.17843828824
21
2840.22718703627
31
0.000494734021011545
  0
LINE
 8
GROUP0
10
6218.17840430306
20
3401.72719714607
30
8.76981239399499e-005
11
6228.17840430306
21
3401.72719714607
31
9.25296013007171e-005
  0
LINE
 8
GROUP0
10
6275.16066313249
20
3354.79528791898
30
0.000113758287266186
11
6274.67830159812
21
3354.99508967032
31
0.000113350405898527
  0
LINE
 8
GROUP0
10
6275.67830109465
20
3354.72713859894
30
0.000114083245575058
11
6275.16066313249
21
3354.79528791898
31
0.000113758287266186
  0
LINE
 8
GROUP0
10
6206.44637323972
20
3411.22719127784
30
6.86102386816323e-005
11
6206.24657239839
21
3411.70955318916
31
6.81332458856154e-005
  0
LINE
 8
GROUP0
10
6207.66078594998
20
3410.295339616
30
6.99677034593282e-005
11
6207.17842404171
21
3410.49514046469
31
6.95598235354922e-005
  0
LINE
 8
GROUP0
10
6209.1784240417
20
3410.49514044943
30
7.06123898767785e-005
11
6208.69606213038
21
3410.2953396081
31
7.05125523869032e-005
  0
LINE
 8
GROUP0
10
6277.09251575768
20
3355.31292237934
30
0.000114375957636292
11
6276.67830159811
21
3354.99508591243
31
0.000114402975127459
  0
LINE
 8
GROUP0
10
6277.41035378116
20
3355.72713534451
30
0.00011422392387106
11
6277.09251575768
21
3355.31292237934
31
0.000114375957636292
  0
LINE
 8
GROUP0
10
6276.67830159811
20
3354.99508591243
30
0.000114402975127459
11
6276.1959393129
21
3354.79528597375
31
0.000114303136915672
  0
LINE
 8
GROUP0
10
6275.16067039219
20
3358.65899122412
30
0.000110779861767074
11
6275.67830861044
21
3358.72713859893
31
0.000110999753109098
  0
LINE
 8
GROUP0
10
6275.67830861044
20
3358.72713859893
30
0.000110999753109098
11
6276.19594657259
21
3358.65898927889
31
0.000111324711416561
  0
LINE
 8
GROUP0
10
6273.94625216604
20
3355.72714185337
30
0.000112400821044667
11
6273.74645222736
21
3356.20950413858
31
0.000111923828970562
  0
LINE
 8
GROUP0
10
6277.09252107214
20
3358.14134950407
30
0.000112195598569043
11
6277.41035753905
21
3357.7271353445
31
0.000112682177636669
  0
LINE
 8
GROUP0
10
6208.69606215985
20
3414.15904291325
30
6.75341232782345e-005
11
6209.17842406812
21
3413.95924206456
31
6.79420032020705e-005
  0
LINE
 8
GROUP0
10
6206.24657239839
20
3411.70955318916
30
6.81332458856154e-005
11
6206.17842405492
21
3412.22719127988
31
6.769834702679e-005
  0
LINE
 8
GROUP0
10
6209.17842406812
20
3413.95924206456
30
6.79420032020705e-005
11
6209.59263762807
21
3413.64140481621
31
6.84050097095101e-005
  0
LINE
 8
GROUP0
10
6276.67830810697
20
3358.45918752755
30
0.000111732592784219
11
6277.09252107214
21
3358.14134950407
31
0.000112195598569043
  0
LINE
 8
GROUP0
10
6206.76421048176
20
3410.81297771304
30
6.90968170273476e-005
11
6206.44637323972
21
3411.22719127784
31
6.86102386816323e-005
  0
LINE
 8
GROUP0
10
6273.67830485255
20
3356.72714235683
30
0.000111488930111736
11
6273.74645417259
21
3357.24478031898
31
0.000111125762537995
  0
LINE
 8
GROUP0
10
6273.74645417259
20
3357.24478031898
30
0.000111125762537995
11
6273.94625592393
21
3357.72714185336
31
0.000110859074810277
  0
LINE
 8
GROUP0
10
6208.17842403966
20
3410.22719126463
30
7.02926617682009e-005
11
6207.66078594998
21
3410.295339616
31
6.99677034593282e-005
  0
LINE
 8
GROUP0
10
6208.17842407017
20
3414.22719126462
30
6.72091649686568e-005
11
6208.69606215985
21
3414.15904291325
31
6.75341232782345e-005
  0
LINE
 8
GROUP0
10
6273.74645222736
20
3356.20950413858
30
0.000111923828970562
11
6273.67830485255
21
3356.72714235683
31
0.000111488930111736
  0
LINE
 8
GROUP0
10
6209.59263760649
20
3410.81297769147
30
7.05853709417892e-005
11
6209.1784240417
21
3410.49514044943
31
7.06123898767785e-005
  0
LINE
 8
GROUP0
10
6209.59263762807
20
3413.64140481621
30
6.84050097095101e-005
11
6209.9104748701
21
3413.22719125141
31
6.88915880573404e-005
  0
LINE
 8
GROUP0
10
6210.11027571143
20
3412.7448293401
30
6.93685808519473e-005
11
6210.17842405491
21
3412.22719124937
31
6.98034797093627e-005
  0
LINE
 8
GROUP0
10
6209.9104748701
20
3413.22719125141
30
6.88915880573404e-005
11
6210.11027571143
21
3412.7448293401
31
6.93685808519473e-005
  0
LINE
 8
GROUP0
10
6277.67830485253
20
3356.72713484104
30
0.0001135940685696
11
6277.6101555325
21
3356.20949687889
31
0.000113957236144047
  0
LINE
 8
GROUP0
10
6277.6101555325
20
3356.20949687889
30
0.000113957236144047
11
6277.41035378116
21
3355.72713534451
31
0.00011422392387106
  0
LINE
 8
GROUP0
10
6274.67830810698
20
3358.45919128544
30
0.000110680023555287
11
6275.16067039219
21
3358.65899122412
31
0.000110779861767074
  0
LINE
 8
GROUP0
10
6277.61015747773
20
3357.24477305929
30
0.00011315916971148
11
6277.67830485253
21
3356.72713484104
31
0.0001135940685696
  0
LINE
 8
GROUP0
10
6273.94625592393
20
3357.72714185336
30
0.000110859074810277
11
6274.26409394741
21
3358.14135481854
31
0.000110707041045044
  0
LINE
 8
GROUP0
10
6277.41035753905
20
3357.7271353445
30
0.000112682177636669
11
6277.61015747773
21
3357.24477305929
31
0.00011315916971148
  0
LINE
 8
GROUP0
10
6274.26408863295
20
3355.3129276938
30
0.000112887400112294
11
6273.94625216604
21
3355.72714185337
31
0.000112400821044667
  0
LINE
 8
GROUP0
10
6274.67830159812
20
3354.99508967032
30
0.000113350405898527
11
6274.26408863295
21
3355.3129276938
31
0.000112887400112294
  0
LINE
 8
GROUP0
10
6276.1959393129
20
3354.79528597375
30
0.000114303136915672
11
6275.67830109465
21
3354.72713859894
31
0.000114083245575058
  0
LINE
 8
GROUP0
10
5741.67833070882
20
3354.72795406308
30
0.000144203154349454
11
5741.16069274703
21
3354.79610338308
31
0.00014387819531867
  0
LINE
 8
GROUP0
10
5741.16069274703
20
3354.79610338308
30
0.00014387819531867
11
5740.678331213
21
3354.99590513429
31
0.000143470314672922
  0
LINE
 8
GROUP0
10
6276.19594657259
20
3358.65898927889
30
0.000111324711416561
11
6276.67830810697
21
3358.45918752755
31
0.000111732592784219
  0
LINE
 8
GROUP0
10
5742.19596892671
20
3354.79610143782
30
0.000144423045690067
11
5741.67833070882
21
3354.72795406308
31
0.000144203154349454
  0
LINE
 8
GROUP0
10
6274.26409394741
20
3358.14135481854
30
0.000110707041045044
11
6274.67830810698
21
3358.45919128544
31
0.000110680023555287
  0
LINE
 8
GROUP0
10
5739.94628178145
20
3355.72795731684
30
0.000142520729097151
11
5739.74648184292
21
3356.21031960171
31
0.000142043737023045
  0
LINE
 8
GROUP0
10
5740.26411824812
20
3355.31374315756
30
0.000143007308164778
11
5739.94628178145
21
3355.72795731684
31
0.000142520729097151
  0
LINE
 8
GROUP0
10
5739.74648184292
20
3356.21031960171
30
0.000142043737023045
11
5739.67833446818
21
3356.7279578196
31
0.00014160883816422
  0
LINE
 8
GROUP0
10
5739.67833446818
20
3356.7279578196
30
0.00014160883816422
11
5739.74648378818
21
3357.24559578139
31
0.000141245670590479
  0
LINE
 8
GROUP0
10
5739.74648378818
20
3357.24559578139
30
0.000141245670590479
11
5739.94628553939
21
3357.72795731542
31
0.000140978982865581
  0
LINE
 8
GROUP0
10
5739.94628553939
20
3357.72795731542
30
0.000140978982865581
11
5740.26412356266
21
3358.1421702803
31
0.000140826949822259
  0
LINE
 8
GROUP0
10
5740.26412356266
20
3358.1421702803
30
0.000140826949822259
11
5740.67833772194
21
3358.46000674697
31
0.000140799931609886
  0
LINE
 8
GROUP0
10
5740.678331213
20
3354.99590513429
30
0.000143470314672922
11
5740.26411824812
21
3355.31374315756
31
0.000143007308164778
  0
LINE
 8
GROUP0
10
5740.67833772194
20
3358.46000674697
30
0.000140799931609886
11
5741.16070000682
21
3358.65980668549
31
0.000140899770541469
  0
LINE
 8
GROUP0
10
5742.67833121158
20
3354.99590137635
30
0.000144522884623766
11
5742.19596892671
21
3354.79610143782
31
0.000144423045690067
  0
LINE
 8
GROUP0
10
5741.16070000682
20
3358.65980668549
30
0.000140899770541469
11
5741.6783382247
21
3358.72795406024
31
0.000141119661881378
  0
LINE
 8
GROUP0
10
5743.41038339413
20
3355.72795080789
30
0.000144343833367366
11
5743.09254537087
21
3355.31373784302
31
0.000144495866410688
  0
LINE
 8
GROUP0
10
5743.67833446534
20
3356.72795030371
30
0.000143713978065907
11
5743.61018514534
21
3356.21031234193
31
0.000144077145640353
  0
LINE
 8
GROUP0
10
5743.61018514534
20
3356.21031234193
30
0.000144077145640353
11
5743.41038339413
21
3355.72795080789
31
0.000144343833367366
  0
LINE
 8
GROUP0
10
5742.19596892664
20
3103.79604388983
30
0.000144423010620964
11
5741.67833070875
21
3103.72789651508
31
0.000144203119282466
  0
LINE
 8
GROUP0
10
5741.67833070875
20
3103.72789651508
30
0.000144203119282466
11
5741.16069274696
21
3103.79604583508
31
0.000143878160249566
  0
LINE
 8
GROUP0
10
5743.410387152
20
3106.72789325848
30
0.000142802052065283
11
5743.61018709053
21
3106.24553097361
31
0.000143279044139388
  0
LINE
 8
GROUP0
10
5739.67833446811
20
3105.72790027161
30
0.000141608803095117
11
5739.74648378811
21
3106.24553823339
31
0.00014124563552208
  0
LINE
 8
GROUP0
10
5742.19597618642
20
3107.65974719224
30
0.000141444585845879
11
5742.67833772045
21
3107.45994544103
31
0.000141852466490217
  0
LINE
 8
GROUP0
10
5739.74648184285
20
3105.21026205372
30
0.000142043701953942
11
5739.67833446811
21
3105.72790027161
31
0.000141608803095117
  0
LINE
 8
GROUP0
10
5740.26411824805
20
3104.31368560956
30
0.000143007273097789
11
5739.94628178138
21
3104.72789976885
31
0.000142520694028048
  0
LINE
 8
GROUP0
10
5741.16069274696
20
3103.79604583508
30
0.000143878160249566
11
5740.67833121293
21
3103.99584758629
31
0.000143470279605934
  0
LINE
 8
GROUP0
10
5739.94628178138
20
3104.72789976885
30
0.000142520694028048
11
5739.74648184285
21
3105.21026205372
31
0.000142043701953942
  0
LINE
 8
GROUP0
10
5740.67833121293
20
3103.99584758629
30
0.000143470279605934
11
5740.26411824805
21
3104.31368560956
31
0.000143007273097789
  0
LINE
 8
GROUP0
10
5741.16070000675
20
3107.6597491375
30
0.000140899735474481
11
5741.67833822463
21
3107.72789651224
31
0.00014111962681298
  0
LINE
 8
GROUP0
10
5739.74648378811
20
3106.24553823339
30
0.00014124563552208
11
5739.94628553932
21
3106.72789976743
31
0.000140978947795067
  0
LINE
 8
GROUP0
10
5740.26412356259
20
3107.1421127323
30
0.000140826914751746
11
5740.67833772187
21
3107.45994919897
31
0.000140799896539373
  0
LINE
 8
GROUP0
10
5739.94628553932
20
3106.72789976743
30
0.000140978947795067
11
5740.26412356259
21
3107.1421127323
31
0.000140826914751746
  0
LINE
 8
GROUP0
10
5740.67833772187
20
3107.45994919897
30
0.000140799896539373
11
5741.16070000675
21
3107.6597491375
31
0.000140899735474481
  0
LINE
 8
GROUP0
10
5741.67833822463
20
3107.72789651224
30
0.00014111962681298
11
5742.19597618642
21
3107.65974719224
31
0.000141444585845879
  0
LINE
 8
GROUP0
10
5743.09255068533
20
3107.14210741777
30
0.000142315472997656
11
5743.410387152
21
3106.72789325848
31
0.000142802052065283
  0
LINE
 8
GROUP0
10
5742.67833772045
20
3107.45994544103
30
0.000141852466490217
11
5743.09255068533
21
3107.14210741777
31
0.000142315472997656
  0
LINE
 8
GROUP0
10
6277.61015747766
20
3106.2447155113
30
0.000113159134643082
11
6277.67830485246
21
3105.72707729305
31
0.000113594033502612
  0
LINE
 8
GROUP0
10
6275.67830109458
20
3103.72708105095
30
0.000114083210505955
11
6275.16066313242
21
3103.79523037099
31
0.000113758252197788
  0
LINE
 8
GROUP0
10
6277.61015553243
20
3105.20943933089
30
0.000113957201074943
11
6277.41035378109
21
3104.72707779652
31
0.000114223888804071
  0
LINE
 8
GROUP0
10
6275.16066313242
20
3103.79523037099
30
0.000113758252197788
11
6274.67830159805
21
3103.99503212233
31
0.000113350370829424
  0
LINE
 8
GROUP0
10
5743.09254537079
20
3104.31368029503
30
0.000144495831343699
11
5742.67833121151
21
3103.99584382835
31
0.000144522849556777
  0
LINE
 8
GROUP0
10
5742.67833121151
20
3103.99584382835
30
0.000144522849556777
11
5742.19596892664
21
3103.79604388983
31
0.000144423010620964
  0
LINE
 8
GROUP0
10
5743.61018514527
20
3105.21025479393
30
0.00014407711057125
11
5743.41038339406
21
3104.7278932599
31
0.000144343798298263
  0
LINE
 8
GROUP0
10
5743.67833446527
20
3105.72789275572
30
0.000143713942996804
11
5743.61018514527
21
3105.21025479393
31
0.00014407711057125
  0
LINE
 8
GROUP0
10
6277.41035378109
20
3104.72707779652
30
0.000114223888804071
11
6277.09251575761
21
3104.31286483134
31
0.000114375922567189
  0
LINE
 8
GROUP0
10
6276.67830159804
20
3103.99502836443
30
0.000114402940058356
11
6276.19593931283
21
3103.79522842576
31
0.000114303101847274
  0
LINE
 8
GROUP0
10
6277.67830485246
20
3105.72707729305
30
0.000113594033502612
11
6277.61015553243
21
3105.20943933089
31
0.000113957201074943
  0
LINE
 8
GROUP0
10
6276.19593931283
20
3103.79522842576
30
0.000114303101847274
11
6275.67830109458
21
3103.72708105095
31
0.000114083210505955
  0
LINE
 8
GROUP0
10
6274.67830159805
20
3103.99503212233
30
0.000113350370829424
11
6274.26408863287
21
3104.31287014581
31
0.000112887365043191
  0
LINE
 8
GROUP0
10
5743.61018709053
20
3106.24553097361
30
0.000143279044139388
11
5743.67833446527
21
3105.72789275572
31
0.000143713942996804
  0
LINE
 8
GROUP0
10
6277.09251575761
20
3104.31286483134
30
0.000114375922567189
11
6276.67830159804
21
3103.99502836443
31
0.000114402940058356
  0
LINE
 8
GROUP0
10
6273.67830485248
20
3105.72708480883
30
0.000111488895044748
11
6273.74645417252
21
3106.24472277099
31
0.000111125727469596
  0
LINE
 8
GROUP0
10
6274.26408863287
20
3104.31287014581
30
0.000112887365043191
11
6273.94625216596
21
3104.72708430538
31
0.000112400785977679
  0
LINE
 8
GROUP0
10
6277.41035753898
20
3106.72707779651
30
0.000112682142567566
11
6277.61015747766
21
3106.2447155113
31
0.000113159134643082
  0
LINE
 8
GROUP0
10
6275.16067039212
20
3107.65893367612
30
0.000110779826697971
11
6275.67830861037
21
3107.72708105093
31
0.000110999718038585
  0
LINE
 8
GROUP0
10
6273.74645222729
20
3105.20944659058
30
0.000111923793901458
11
6273.67830485248
21
3105.72708480883
31
0.000111488895044748
  0
LINE
 8
GROUP0
10
6273.74645417252
20
3106.24472277099
30
0.000111125727469596
11
6273.94625592386
21
3106.72708430537
31
0.000110859039741174
  0
LINE
 8
GROUP0
10
6274.26409394734
20
3107.14129727054
30
0.000110707005975941
11
6274.67830810691
21
3107.45913373745
31
0.000110679988486184
  0
LINE
 8
GROUP0
10
6273.94625216596
20
3104.72708430538
30
0.000112400785977679
11
6273.74645222729
21
3105.20944659058
31
0.000111923793901458
  0
LINE
 8
GROUP0
10
6274.67830810691
20
3107.45913373745
30
0.000110679988486184
11
6275.16067039212
21
3107.65893367612
31
0.000110779826697971
  0
LINE
 8
GROUP0
10
6275.67830861037
20
3107.72708105093
30
0.000110999718038585
11
6276.19594657252
21
3107.6589317309
31
0.000111324676347457
  0
LINE
 8
GROUP0
10
6276.19594657252
20
3107.6589317309
30
0.000111324676347457
11
6276.6783081069
21
3107.45912997956
31
0.000111732557715116
  0
LINE
 8
GROUP0
10
6276.6783081069
20
3107.45912997956
30
0.000111732557715116
11
6277.09252107207
21
3107.14129195608
31
0.000112195563499939
  0
LINE
 8
GROUP0
10
6277.09252107207
20
3107.14129195608
30
0.000112195563499939
11
6277.41035753898
21
3106.72707779651
31
0.000112682142567566
  0
LINE
 8
GROUP0
10
6273.94625592386
20
3106.72708430537
30
0.000110859039741174
11
6274.26409394734
21
3107.14129727054
31
0.000110707005975941
  0
LINE
 8
GROUP0
10
5741.678317457
20
2856.72788407127
30
0.000256064328396677
11
5742.19595554041
21
2856.65973568867
31
0.000256389286705549
  0
LINE
 8
GROUP0
10
5743.09253097343
20
2856.14209753917
30
0.00025726017313753
11
5743.41036818894
21
2855.72788395673
31
0.000257746752205157
  0
LINE
 8
GROUP0
10
5743.41036818894
20
2855.72788395673
30
0.000257746752205157
11
5743.61016900009
21
2855.24552203523
31
0.000258223744279262
  0
LINE
 8
GROUP0
10
5740.2641038603
20
2856.14209773293
30
0.000255771619223089
11
5740.67831744275
21
2856.45993494845
31
0.000255744600288099
  0
LINE
 8
GROUP0
10
5739.7464657108
20
2855.24552229991
30
0.000256190341437246
11
5739.94626658804
21
2855.72788419404
31
0.000255923652988321
  0
LINE
 8
GROUP0
10
5739.74646563988
20
2854.21024612375
30
0.00025698840931575
11
5739.6783173282
21
2854.7278842165
31
0.000256553510455515
  0
LINE
 8
GROUP0
10
5740.67831744275
20
2856.45993494845
30
0.000255744600288099
11
5741.16067936425
21
2856.65973575959
31
0.000255844437777974
  0
LINE
 8
GROUP0
10
6208.17783714192
20
2832.22716610175
30
0.000437381492843758
11
6208.69547510387
21
2832.1590167806
31
0.000437706451876657
  0
LINE
 8
GROUP0
10
5741.16067936425
20
2856.65973575959
30
0.000255844437777974
11
5741.678317457
21
2856.72788407127
31
0.000256064328396677
  0
LINE
 8
GROUP0
10
5739.6783173282
20
2854.7278842165
30
0.000256553510455515
11
5739.7464657108
21
2855.24552229991
31
0.000256190341437246
  0
LINE
 8
GROUP0
10
5739.94626658804
20
2855.72788419404
30
0.000255923652988321
11
5740.2641038603
21
2856.14209773293
31
0.000255771619223089
  0
LINE
 8
GROUP0
10
6276.677837828
20
2856.45911752453
30
0.000362415430733054
11
6277.09205079247
21
2856.14127950015
31
0.000362878437241199
  0
LINE
 8
GROUP0
10
6209.17783012139
20
2828.49511341348
30
0.000440784716307352
11
6208.6954678358
21
2828.29531347587
31
0.000440684878095565
  0
LINE
 8
GROUP0
10
6206.24598075358
20
2829.70953164586
30
0.000438305569428543
11
6206.1778333799
21
2830.2271698642
31
0.000437870670570423
  0
LINE
 8
GROUP0
10
6277.67783456978
20
2854.72706483584
30
0.000364276906519845
11
6277.60968524862
21
2854.20942687384
31
0.000364640074814793
  0
LINE
 8
GROUP0
10
6208.17782961746
20
2828.22716610219
30
0.000440464986757771
11
6207.6601916555
21
2828.29531542334
31
0.000440140027724167
  0
LINE
 8
GROUP0
10
6208.6954678358
20
2828.29531347587
30
0.000440684878095565
11
6208.17782961746
21
2828.22716610219
31
0.000440464986757771
  0
LINE
 8
GROUP0
10
6206.44578069119
20
2829.22716936027
30
0.000438782561503354
11
6206.24598075358
21
2829.70953164586
31
0.000438305569428543
  0
LINE
 8
GROUP0
10
6207.17783663798
20
2831.95921879047
30
0.000437061763291358
11
6207.66019892357
21
2832.15901872808
31
0.000437161601505259
  0
LINE
 8
GROUP0
10
6277.6096871961
20
2855.24470305424
30
0.000363842007663134
11
6277.67783456978
21
2854.72706483584
31
0.000364276906519845
  0
LINE
 8
GROUP0
10
6208.69547510387
20
2832.1590167806
30
0.000437706451876657
11
6209.17783663776
21
2831.95921502824
31
0.00043811433252029
  0
LINE
 8
GROUP0
10
6277.60968524862
20
2854.20942687384
30
0.000364640074814793
11
6277.40988349622
21
2853.7270653399
31
0.000364906761820599
  0
LINE
 8
GROUP0
10
6277.40988725848
20
2855.72706533988
30
0.000363365015586914
11
6277.6096871961
21
2855.24470305424
31
0.000363842007663134
  0
LINE
 8
GROUP0
10
6207.66019892357
20
2832.15901872808
30
0.000437161601505259
11
6208.17783714192
21
2832.22716610175
31
0.000437381492843758
  0
LINE
 8
GROUP0
10
6276.19547629406
20
2856.65891927692
30
0.000362007550087307
11
6276.677837828
21
2856.45911752453
31
0.000362415430733054
  0
LINE
 8
GROUP0
10
6207.6601916555
20
2828.29531542334
30
0.000440140027724167
11
6207.17783012161
21
2828.49511717571
31
0.00043973214707842
  0
LINE
 8
GROUP0
10
6209.5920496022
20
2831.64137700389
30
0.000438577339028434
11
6209.90988606818
21
2831.22716284368
31
0.000439063918095356
  0
LINE
 8
GROUP0
10
6210.10968405831
20
2829.70952437779
30
0.00044033897732394
11
6209.90988230595
21
2829.2271628439
31
0.000440605665051658
  0
LINE
 8
GROUP0
10
6210.10968600579
20
2830.74480055809
30
0.000439540910170166
11
6210.17783337947
21
2830.22716233974
31
0.000439975809028287
  0
LINE
 8
GROUP0
10
6277.09205079247
20
2856.14127950015
30
0.000362878437241199
11
6277.40988725848
21
2855.72706533988
31
0.000363365015586914
  0
LINE
 8
GROUP0
10
6209.5920442816
20
2828.81294987946
30
0.000440757698094979
11
6209.17783012139
21
2828.49511341348
31
0.000440784716307352
  0
LINE
 8
GROUP0
10
6206.1778333799
20
2830.2271698642
30
0.000437870670570423
11
6206.24598270106
21
2830.74480782616
31
0.00043750750227477
  0
LINE
 8
GROUP0
10
6207.17783012161
20
2828.49511717571
30
0.00043973214707842
11
6206.76361715717
21
2828.81295520005
31
0.00043926914057098
  0
LINE
 8
GROUP0
10
6206.44578445342
20
2831.22716936005
30
0.000437240814547052
11
6206.76362247777
21
2831.64138232449
31
0.000437088781504436
  0
LINE
 8
GROUP0
10
6209.17783663776
20
2831.95921502824
30
0.00043811433252029
11
6209.5920496022
21
2831.64137700389
31
0.000438577339028434
  0
LINE
 8
GROUP0
10
6210.17783337947
20
2830.22716233974
30
0.000439975809028287
11
6210.10968405831
21
2829.70952437779
31
0.00044033897732394
  0
LINE
 8
GROUP0
10
6206.24598270106
20
2830.74480782616
30
0.00043750750227477
11
6206.44578445342
21
2831.22716936005
31
0.000437240814547052
  0
LINE
 8
GROUP0
10
6209.90988230595
20
2829.2271628439
30
0.000440605665051658
11
6209.5920442816
21
2828.81294987946
31
0.000440757698094979
  0
LINE
 8
GROUP0
10
6206.76362247777
20
2831.64138232449
30
0.000437088781504436
11
6207.17783663798
21
2831.95921879047
31
0.000437061763291358
  0
LINE
 8
GROUP0
10
6209.90988606818
20
2831.22716284368
30
0.000439063918095356
11
6210.10968600579
21
2830.74480055809
31
0.000439540910170166
  0
LINE
 8
GROUP0
10
6206.76361715717
20
2828.81295520005
30
0.00043926914057098
11
6206.44578069119
21
2829.22716936027
31
0.000438782561503354
  0
LINE
 8
GROUP0
10
6273.74598389097
20
2855.24471032236
30
0.000361808599767738
11
6273.94578564336
21
2855.7270718563
31
0.000361541912760521
  0
LINE
 8
GROUP0
10
6274.67783782801
20
2856.45912128679
30
0.000361362861504122
11
6275.16020011365
21
2856.65892122441
31
0.000361462699715909
  0
LINE
 8
GROUP0
10
5731.67833515254
20
3366.72719428859
30
3.86648284539437e-005
11
5759.17833515253
21
3366.72719240245
31
5.59889006318148e-005
  0
LINE
 8
GROUP0
10
6275.67783080753
20
2852.72706859811
30
0.000364766083524598
11
6275.16019284553
21
2852.79521791928
31
0.000364441124493109
  0
LINE
 8
GROUP0
10
6218.17785877507
20
2844.72713906023
30
0.000380350415923658
11
6285.67781575847
21
2844.72704980821
31
0.000367413520001492
  0
LINE
 8
GROUP0
10
5808.66069977858
20
3414.15904550657
30
2.0475654574581e-005
11
5809.1783378693
21
3414.22719385005
31
2.06955451925783e-005
  0
LINE
 8
GROUP0
10
5810.91038865399
20
3411.22719383684
30
2.39197166785665e-005
11
5810.59255140564
21
3410.81298027689
31
2.40717511657107e-005
  0
LINE
 8
GROUP0
10
6218.17844286624
20
3422.22719118835
30
6.29764853713466e-005
11
5799.17833793032
21
3422.22719392631
31
1.88665223661344e-005
  0
LINE
 8
GROUP0
10
6218.17840430306
20
3401.72719714607
30
8.76981239399499e-005
11
6218.17844286624
21
3422.22719118835
31
6.29764853713466e-005
  0
LINE
 8
GROUP0
10
6273.74598194348
20
2854.20943414196
30
0.000362606666919396
11
6273.6778345698
21
2854.72707236036
31
0.000362171768061981
  0
LINE
 8
GROUP0
10
6276.19546902593
20
2852.79521597179
30
0.000364985974864507
11
6275.67783080753
21
2852.72706859811
31
0.000364766083524598
  0
LINE
 8
GROUP0
10
6276.67783131157
20
2852.99501590941
30
0.000365085813076293
11
6276.19546902593
21
2852.79521597179
31
0.000364985974864507
  0
LINE
 8
GROUP0
10
5799.17842156995
20
2844.72721406001
30
0.0
11
5731.67831663398
21
2844.72721716017
31
7.70172786133116e-006
  0
LINE
 8
GROUP0
10
5807.44628703886
20
3411.22719386325
30
2.20966189055538e-005
11
5807.24648619753
21
3411.70955577457
31
2.16196261095369e-005
  0
LINE
 8
GROUP0
10
5799.17844286623
20
2820.22714579755
30
0.000677677926122228
11
5841.17844080396
21
2820.22714509791
31
0.000657324170750612
  0
LINE
 8
GROUP0
10
5799.17833793032
20
3422.22719392631
30
1.88665223661344e-005
11
5799.17833777397
21
3401.72719392632
31
3.16402035251628e-005
  0
LINE
 8
GROUP0
10
6274.26361834711
20
2853.31285769605
30
0.000363570237339922
11
6273.9457818811
21
2853.72707185632
31
0.000363083658994207
  0
LINE
 8
GROUP0
10
6258.1783666804
20
3366.7271714804
30
0.000114794072279506
11
6285.67832366383
21
3366.72711980945
31
0.000104671340837809
  0
LINE
 8
GROUP0
10
6273.6778345698
20
2854.72707236036
30
0.000362171768061981
11
6273.74598389097
21
2855.24471032236
31
0.000361808599767738
  0
LINE
 8
GROUP0
10
6275.16019284553
20
2852.79521791928
30
0.000364441124493109
11
6274.67783131159
21
2852.99501967167
31
0.000364033243847361
  0
LINE
 8
GROUP0
10
6275.67783833205
20
2856.72706859809
30
0.000361682591056522
11
6276.19547629406
21
2856.65891927692
31
0.000362007550087307
  0
LINE
 8
GROUP0
10
6273.94578564336
20
2855.7270718563
30
0.000361541912760521
11
6274.26362366774
21
2856.14128482078
31
0.000361389878995288
  0
LINE
 8
GROUP0
10
6218.17844286605
20
2820.22719825189
30
0.000474380260683133
11
6218.17785877507
21
2844.72713906023
31
0.000380350415923658
  0
LINE
 8
GROUP0
10
6274.67783131159
20
2852.99501967167
30
0.000364033243847361
11
6274.26361834711
21
2853.31285769605
31
0.000363570237339922
  0
LINE
 8
GROUP0
10
6274.26362366774
20
2856.14128482078
30
0.000361389878995288
11
6274.67783782801
21
2856.45912128679
31
0.000361362861504122
  0
LINE
 8
GROUP0
10
5799.17842156995
20
2844.72721406001
30
0.0
11
5799.17844286623
21
2820.22714579755
31
0.000677677926122228
  0
LINE
 8
GROUP0
10
6285.67781575847
20
2844.72704980821
30
0.000367413520001492
11
6285.67832366383
21
3366.72711980945
31
0.000104671340837809
  0
LINE
 8
GROUP0
10
5731.67833515254
20
3366.72719428859
30
3.86648284539437e-005
11
5731.67831663398
21
2844.72721716017
31
7.70172786133116e-006
  0
LINE
 8
GROUP0
10
6277.09204547184
20
2853.31285237542
30
0.000365058795585832
11
6276.67783131157
21
2852.99501590941
31
0.000365085813076293
  0
LINE
 8
GROUP0
10
6277.40988349622
20
2853.7270653399
30
0.000364906761820599
11
6277.09204547184
21
2853.31285237542
31
0.000365058795585832
  0
LINE
 8
GROUP0
10
6273.9457818811
20
2853.72707185632
30
0.000363083658994207
11
6273.74598194348
21
2854.20943414196
31
0.000362606666919396
  0
LINE
 8
GROUP0
10
6275.16020011365
20
2856.65892122441
30
0.000361462699715909
11
6275.67783833205
21
2856.72706859809
31
0.000361682591056522
  0
LINE
 8
GROUP0
10
5811.17833785405
20
3412.22719383479
30
2.32898599332842e-005
11
5811.11018950268
21
3411.70955574511
31
2.36530282296421e-005
  0
LINE
 8
GROUP0
10
6206.24657240629
20
3412.74482936956
30
6.73351787318421e-005
11
6206.44637325498
21
3413.22719127783
31
6.70684902843277e-005
  0
LINE
 8
GROUP0
10
5810.91038866924
20
3413.22719383684
30
2.23779682812619e-005
11
5811.11018951057
21
3412.74483192552
31
2.28549610758688e-005
  0
LINE
 8
GROUP0
10
6207.66078597944
20
3414.15904292115
30
6.69892743506595e-005
11
6208.17842407017
21
3414.22719126462
31
6.72091649686568e-005
  0
LINE
 8
GROUP0
10
5808.66069974911
20
3410.29534220142
30
2.34540836832497e-005
11
5808.17833784084
21
3410.4951430501
31
2.30462037594137e-005
  0
LINE
 8
GROUP0
10
6210.11027570354
20
3411.70955315969
30
7.01666480057206e-005
11
6209.91047485485
21
3411.22719125142
31
7.0433336454645e-005
  0
LINE
 8
GROUP0
10
6209.91047485485
20
3411.22719125142
30
7.0433336454645e-005
11
6209.59263760649
21
3410.81297769147
31
7.05853709417892e-005
  0
LINE
 8
GROUP0
10
5807.24648620542
20
3412.74483195498
30
2.08215589557637e-005
11
5807.44628705411
21
3413.22719386325
31
2.05548705082492e-005
  0
LINE
 8
GROUP0
10
5807.76412428089
20
3410.81298029846
30
2.25831972512691e-005
11
5807.44628703886
21
3411.22719386325
31
2.20966189055538e-005
  0
LINE
 8
GROUP0
10
5810.59255142721
20
3413.64140740163
30
2.18913899334316e-005
11
5810.91038866924
21
3413.22719383684
31
2.23779682812619e-005
  0
LINE
 8
GROUP0
10
5807.24648619753
20
3411.70955577457
30
2.16196261095369e-005
11
5807.17833785405
21
3412.2271938653
31
2.11847272507115e-005
  0
LINE
 8
GROUP0
10
5809.1783378388
20
3410.22719385005
30
2.37790419921224e-005
11
5808.66069974911
21
3410.29534220142
31
2.34540836832497e-005
  0
LINE
 8
GROUP0
10
6206.44637325498
20
3413.22719127783
30
6.70684902843277e-005
11
6206.76421050333
21
3413.64140483778
31
6.69164557950686e-005
  0
LINE
 8
GROUP0
10
6207.17842406813
20
3413.95924207981
30
6.68894368607842e-005
11
6207.66078597944
21
3414.15904292115
31
6.69892743506595e-005
  0
LINE
 8
GROUP0
10
5807.76412430246
20
3413.6414074232
30
2.04028360189901e-005
11
5808.17833786726
21
3413.95924466524
31
2.03758170847057e-005
  0
LINE
 8
GROUP0
10
6207.17842404171
20
3410.49514046469
30
6.95598235354922e-005
11
6206.76421048176
21
3410.81297771304
31
6.90968170273476e-005
  0
LINE
 8
GROUP0
10
6208.69606213038
20
3410.2953396081
30
7.05125523869032e-005
11
6208.17842403966
21
3410.22719126463
31
7.02926617682009e-005
  0
LINE
 8
GROUP0
10
6206.76421050333
20
3413.64140483778
30
6.69164557950686e-005
11
6207.17842406813
21
3413.95924207981
31
6.68894368607842e-005
  0
LINE
 8
GROUP0
10
5810.59255140564
20
3410.81298027689
30
2.40717511657107e-005
11
5810.17833784084
21
3410.49514303485
31
2.40987701007e-005
  0
LINE
 8
GROUP0
10
6206.17842405492
20
3412.22719127988
30
6.769834702679e-005
11
6206.24657240629
21
3412.74482936956
31
6.73351787318421e-005
  0
LINE
 8
GROUP0
10
6210.17842405491
20
3412.22719124937
30
6.98034797093627e-005
11
6210.11027570354
21
3411.70955315969
31
7.01666480057206e-005
  0
LINE
 8
GROUP0
10
5809.69597595899
20
3414.15904549867
30
2.1020503502156e-005
11
5810.17833786726
21
3413.95924464999
31
2.14283834259921e-005
  0
LINE
 8
GROUP0
10
5808.17833784084
20
3410.4951430501
30
2.30462037594137e-005
11
5807.76412428089
21
3410.81298029846
31
2.25831972512691e-005
  0
LINE
 8
GROUP0
10
5810.17833784084
20
3410.49514303485
30
2.40987701007e-005
11
5809.69597592952
21
3410.29534219352
31
2.39989326108248e-005
  0
LINE
 8
GROUP0
10
5807.17833785405
20
3412.2271938653
30
2.11847272507115e-005
11
5807.24648620542
21
3412.74483195498
31
2.08215589557637e-005
  0
LINE
 8
GROUP0
10
5811.11018951057
20
3412.74483192552
30
2.28549610758688e-005
11
5811.17833785405
21
3412.22719383479
31
2.32898599332842e-005
  0
LINE
 8
GROUP0
10
5810.17833786726
20
3413.95924464999
30
2.14283834259921e-005
11
5810.59255142721
21
3413.64140740163
31
2.18913899334316e-005
  0
LINE
 8
GROUP0
10
5808.17833786726
20
3413.95924466524
30
2.03758170847057e-005
11
5808.66069977858
21
3414.15904550657
31
2.0475654574581e-005
  0
LINE
 8
GROUP0
10
5811.11018950268
20
3411.70955574511
30
2.36530282296421e-005
11
5810.91038865399
21
3411.22719383684
31
2.39197166785665e-005
  0
LINE
 8
GROUP0
10
5809.69597592952
20
3410.29534219352
30
2.39989326108248e-005
11
5809.1783378388
21
3410.22719385005
31
2.37790419921224e-005
  0
LINE
 8
GROUP0
10
5809.1783378693
20
3414.22719385005
30
2.06955451925783e-005
11
5809.69597595899
21
3414.15904549867
31
2.1020503502156e-005
  0
LINE
 8
GROUP0
10
5807.44628705411
20
3413.22719386325
30
2.05548705082492e-005
11
5807.76412430246
21
3413.6414074232
31
2.04028360189901e-005
  0
LINE
 8
GROUP0
10
5743.41038339406
20
3104.7278932599
30
0.000144343798298263
11
5743.09254537079
21
3104.31368029503
31
0.000144495831343699
  0
LINE
 8
GROUP0
10
5810.91038626663
20
2831.22711655232
30
0.000424326898509192
11
5811.11018710711
21
2830.74475464319
31
0.000424803890584002
  0
LINE
 8
GROUP0
10
5809.69597356174
20
2832.15896820983
30
0.000422969433012405
11
5810.17833546786
21
2831.95916736209
31
0.000423377312934126
  0
LINE
 8
GROUP0
10
5811.17833545033
20
2830.22711655481
30
0.000425238789442123
11
5811.11018709932
21
2829.70947846745
31
0.000425601957737776
  0
LINE
 8
GROUP0
10
5809.17833547438
20
2832.22711656084
30
0.000422644474701417
11
5809.69597356174
21
2832.15896820983
31
0.000422969433012405
  0
LINE
 8
GROUP0
10
5811.11018710711
20
2830.74475464319
30
0.000424803890584002
11
5811.17833545033
21
2830.22711655481
31
0.000425238789442123
  0
LINE
 8
GROUP0
10
5810.17833546786
20
2831.95916736209
30
0.000423377312934126
11
5810.59254902598
21
2831.64133011522
31
0.00042384031944227
  0
LINE
 8
GROUP0
10
5807.44628465206
20
2829.22711658737
30
0.000424045547692481
11
5807.24648381157
21
2829.7094784965
31
0.00042356855561767
  0
LINE
 8
GROUP0
10
5809.17833544431
20
2828.22711657886
30
0.000425727971503076
11
5808.66069735694
21
2828.29526492986
31
0.000425403013191383
  0
LINE
 8
GROUP0
10
5808.66069738599
20
2832.15896821761
30
0.00042242458408483
11
5809.17833547438
21
2832.22711656084
31
0.000422644474701417
  0
LINE
 8
GROUP0
10
5811.11018709932
20
2829.70947846745
30
0.000425601957737776
11
5810.91038625159
21
2829.22711656133
31
0.000425868646909316
  0
LINE
 8
GROUP0
10
5807.44628466709
20
2831.22711657837
30
0.000422503799292356
11
5807.76412191397
21
2831.64133013648
31
0.000422351765527829
  0
LINE
 8
GROUP0
10
5742.19595554041
20
2856.65973568867
30
0.000256389286705549
11
5742.67831743453
21
2856.45993481144
31
0.000256797166629386
  0
LINE
 8
GROUP0
10
5743.61016892917
20
2854.21024585907
30
0.000259021812157767
11
5743.41036805193
21
2853.72788396494
31
0.000259288500605281
  0
LINE
 8
GROUP0
10
5742.67831719722
20
2852.99583321053
30
0.000259467553304094
11
5742.19595527572
21
2852.79603239939
31
0.000259367715814218
  0
LINE
 8
GROUP0
10
5808.17833545082
20
2828.4950657776
30
0.000424995133267547
11
5807.7641218927
21
2828.81290302448
31
0.000424532126760108
  0
LINE
 8
GROUP0
10
5808.66069735694
20
2828.29526492986
30
0.000425403013191383
11
5808.17833545082
21
2828.4950657776
31
0.000424995133267547
  0
LINE
 8
GROUP0
10
5807.24648381936
20
2830.74475467225
30
0.000422770488463897
11
5807.44628466709
21
2831.22711657837
31
0.000422503799292356
  0
LINE
 8
GROUP0
10
5807.17833546835
20
2830.22711658488
30
0.00042313365675955
11
5807.24648381936
21
2830.74475467225
31
0.000422770488463897
  0
LINE
 8
GROUP0
10
5742.19595527572
20
2852.79603239939
30
0.000259367715814218
11
5741.67831718297
21
2852.72788408771
31
0.000259147825196221
  0
LINE
 8
GROUP0
10
5741.16067909956
20
2852.79603247031
30
0.000258822866886643
11
5740.67831720544
21
2852.99583334754
31
0.000258414986962807
  0
LINE
 8
GROUP0
10
5807.24648381157
20
2829.7094784965
30
0.00042356855561767
11
5807.17833546835
21
2830.22711658488
31
0.00042313365675955
  0
LINE
 8
GROUP0
10
5807.76412191397
20
2831.64133013648
30
0.000422351765527829
11
5808.17833547687
21
2831.95916737713
31
0.000422324746592839
  0
LINE
 8
GROUP0
10
5743.61016900009
20
2855.24552203523
30
0.000258223744279262
11
5743.67831731177
21
2854.72788394248
31
0.000258658643138088
  0
LINE
 8
GROUP0
10
5742.67831743453
20
2856.45993481144
30
0.000256797166629386
11
5743.09253097343
21
2856.14209753917
31
0.00025726017313753
  0
LINE
 8
GROUP0
10
5810.59254902598
20
2831.64133011522
30
0.00042384031944227
11
5810.91038626663
21
2831.22711655232
31
0.000424326898509192
  0
LINE
 8
GROUP0
10
5741.67831718297
20
2852.72788408771
30
0.000259147825196221
11
5741.16067909956
21
2852.79603247031
31
0.000258822866886643
  0
LINE
 8
GROUP0
10
5740.67831720544
20
2852.99583334754
30
0.000258414986962807
11
5740.26410366654
21
2853.31367061981
31
0.000257951980455368
  0
LINE
 8
GROUP0
10
5810.91038625159
20
2829.22711656133
30
0.000425868646909316
11
5810.59254900471
21
2828.81290300321
31
0.000426020680674549
  0
LINE
 8
GROUP0
10
5743.09253077967
20
2853.31367042605
30
0.000259440534369809
11
5742.67831719722
21
2852.99583321053
31
0.000259467553304094
  0
LINE
 8
GROUP0
10
5743.41036805193
20
2853.72788396494
30
0.000259288500605281
11
5743.09253077967
21
2853.31367042605
31
0.000259440534369809
  0
LINE
 8
GROUP0
10
5740.26410366654
20
2853.31367061981
30
0.000257951980455368
11
5739.94626645103
21
2853.72788420225
31
0.000257465401388446
  0
LINE
 8
GROUP0
10
5807.7641218927
20
2828.81290302448
30
0.000424532126760108
11
5807.44628465206
21
2829.22711658737
31
0.000424045547692481
  0
LINE
 8
GROUP0
10
5739.94626645103
20
2853.72788420225
30
0.000257465401388446
11
5739.74646563988
21
2854.21024612375
31
0.00025698840931575
  0
LINE
 8
GROUP0
10
5808.17833547687
20
2831.95916737713
30
0.000422324746592839
11
5808.66069738599
21
2832.15896821761
31
0.00042242458408483
  0
LINE
 8
GROUP0
10
5809.69597353269
20
2828.29526492208
30
0.000425947862118958
11
5809.17833544431
21
2828.22711657886
31
0.000425727971503076
  0
LINE
 8
GROUP0
10
5810.17833544181
20
2828.49506576256
30
0.000426047699608834
11
5809.69597353269
21
2828.29526492208
31
0.000425947862118958
  0
LINE
 8
GROUP0
10
5810.59254900471
20
2828.81290300321
30
0.000426020680674549
11
5810.17833544181
21
2828.49506576256
31
0.000426047699608834
  0
LINE
 8
GROUP0
10
5743.67831731177
20
2854.72788394248
30
0.000258658643138088
11
5743.61016892917
21
2854.21024585907
31
0.000259021812157767
 0
ENDSEC
 0
EOF
