 0
SECTION
 2
ENTITIES
  0
LINE
 8
GROUP0
10
3834.09159219672
20
3547.88842179709
30
1.97989555613398e-005
11
3834.09159222905
21
3965.88887803482
31
1.56288350585621e-005
  0
LINE
 8
GROUP0
10
3834.09159222905
20
3965.88887803482
30
1.56288350585621e-005
11
3805.09159222905
21
3965.88887803664
31
1.60113697835251e-005
  0
LINE
 8
GROUP0
10
3805.09159222905
20
3965.88887803664
30
1.60113697835251e-005
11
3805.09159222788
21
3995.88887803664
31
1.60239689425745e-005
  0
LINE
 8
GROUP0
10
3805.09159222788
20
3995.88887803664
30
1.60239689425745e-005
11
3792.09159222828
21
4008.88887803571
31
1.61570084640184e-005
  0
LINE
 8
GROUP0
10
3762.09159222828
20
4008.88887803664
30
1.67245282978123e-005
11
3792.09159222828
21
4008.88887803571
31
1.61570084640184e-005
  0
LINE
 8
GROUP0
10
3762.09159222828
20
4008.88887803664
30
1.67245282978123e-005
11
3762.09159222892
21
4037.88887803496
31
1.70191618249882e-005
  0
LINE
 8
GROUP0
10
3762.09159222892
20
4037.88887803496
30
1.70191618249882e-005
11
3344.09111340696
21
4037.88887800654
31
3.17893083921328e-005
  0
LINE
 8
GROUP0
10
3344.09111340696
20
4037.88887800654
30
3.17893083921328e-005
11
3344.09111340709
21
4008.88887803664
31
3.17273907715909e-005
  0
LINE
 8
GROUP0
10
3344.09111340709
20
4008.88887803664
30
3.17273907715909e-005
11
3314.09111340709
21
4008.88887803664
31
3.18775736137533e-005
  0
LINE
 8
GROUP0
10
3314.09111340709
20
4008.88887803664
30
3.18775736137533e-005
11
3301.09111347655
21
3995.88887803664
31
3.19570065198727e-005
  0
LINE
 8
GROUP0
10
3301.09111340709
20
3965.88887803664
30
3.17312693309313e-005
11
3301.09111347655
21
3995.88887803664
31
3.19570065198727e-005
  0
LINE
 8
GROUP0
10
3301.09111340709
20
3965.88887803664
30
3.17312693309313e-005
11
3272.09111340709
21
3965.88887800678
31
3.15952779693873e-005
  0
LINE
 8
GROUP0
10
3272.09111340709
20
3965.88887800678
30
3.15952779693873e-005
11
3272.09111335327
21
3547.88842191509
31
0.0
  0
LINE
 8
GROUP0
10
3301.09111338706
20
3547.88842191486
30
1.68401574723864e-007
11
3272.09111335327
21
3547.88842191509
31
0.0
  0
LINE
 8
GROUP0
10
3301.09111338706
20
3547.88842191486
30
1.68401574723864e-007
11
3301.09111338706
21
3517.88842191486
31
4.97811068926324e-006
  0
LINE
 8
GROUP0
10
3314.09111338706
20
3504.88842183687
30
7.1329142163401e-006
11
3301.09111338706
21
3517.88842191486
31
4.97811068926324e-006
  0
LINE
 8
GROUP0
10
3344.09111338706
20
3504.88842191486
30
7.3863714502076e-006
11
3314.09111338706
21
3504.88842183687
31
7.1329142163401e-006
  0
LINE
 8
GROUP0
10
3344.09111335276
20
3475.88842191486
30
1.20658713153532e-005
11
3344.09111338706
21
3504.88842191486
31
7.3863714502076e-006
  0
LINE
 8
GROUP0
10
3344.09111335276
20
3475.88842191486
30
1.20658713153532e-005
11
3762.09159219621
21
3475.88842179723
31
3.00799443525179e-005
  0
LINE
 8
GROUP0
10
3762.09159219621
20
3475.88842179723
30
3.00799443525179e-005
11
3762.09159219672
21
3504.88842179723
31
2.63309744103546e-005
  0
LINE
 8
GROUP0
10
3762.09159219672
20
3504.88842179723
30
2.63309744103546e-005
11
3792.09159219672
21
3504.88842179723
31
2.60059193554818e-005
  0
LINE
 8
GROUP0
10
3792.09159219672
20
3504.88842179723
30
2.60059193554818e-005
11
3805.09159197071
21
3517.88842127357
31
2.21994449458529e-005
  0
LINE
 8
GROUP0
10
3805.09159215338
20
3547.88842127357
30
2.02357196404657e-005
11
3805.09159197071
21
3517.88842127357
31
2.21994449458529e-005
  0
LINE
 8
GROUP0
10
3805.09159215338
20
3547.88842127357
30
2.02357196404657e-005
11
3834.09159219672
21
3547.88842179709
31
1.97989555613398e-005
  0
LINE
 8
GROUP0
10
3818.15974057963
20
3935.37101158211
30
1.73772718501775e-005
11
3818.35954142464
21
3934.88864967231
31
1.73754096796708e-005
  0
LINE
 8
GROUP0
10
3818.09159223221
20
3935.88864967231
30
1.73763875989275e-005
11
3818.15974057963
21
3935.37101158211
31
1.73772718501775e-005
  0
LINE
 8
GROUP0
10
3818.15974057963
20
3936.40628776252
30
1.73728172957632e-005
11
3818.09159223221
21
3935.88864967231
31
1.73763875989275e-005
  0
LINE
 8
GROUP0
10
3818.35954142464
20
3936.88864967231
30
1.73668042248332e-005
11
3818.15974057963
21
3936.40628776252
31
1.73728172957632e-005
  0
LINE
 8
GROUP0
10
3818.67737866984
20
3937.30286323469
30
1.73587581611068e-005
11
3818.35954142464
21
3936.88864967231
31
1.73668042248332e-005
  0
LINE
 8
GROUP0
10
3819.09159223221
20
3937.62070047988
30
1.73492273060682e-005
11
3818.67737866984
21
3937.30286323469
31
1.73587581611068e-005
  0
LINE
 8
GROUP0
10
3819.57395414201
20
3937.82050132489
30
1.73388613799952e-005
11
3819.09159223221
21
3937.62070047988
31
1.73492273060682e-005
  0
LINE
 8
GROUP0
10
3820.09159223221
20
3937.88864967231
30
1.73283666829727e-005
11
3819.57395414201
21
3937.82050132489
31
1.73388613799952e-005
  0
LINE
 8
GROUP0
10
3820.60923032241
20
3937.82050132489
30
1.73184584487396e-005
11
3820.09159223221
21
3937.88864967231
31
1.73283666829727e-005
  0
LINE
 8
GROUP0
10
3821.09159223221
20
3937.62070047988
30
1.730981193519e-005
11
3820.60923032241
21
3937.82050132489
31
1.73184584487396e-005
  0
LINE
 8
GROUP0
10
3821.50580579458
20
3937.30286323469
30
1.73030163122812e-005
11
3821.09159223221
21
3937.62070047988
31
1.730981193519e-005
  0
LINE
 8
GROUP0
10
3821.82364303978
20
3936.88864967231
30
1.72985346861887e-005
11
3821.50580579458
21
3937.30286323469
31
1.73030163122812e-005
  0
LINE
 8
GROUP0
10
3822.02344388479
20
3936.40628776252
30
1.7296672515682e-005
11
3821.82364303978
21
3936.88864967231
31
1.72985346861887e-005
  0
LINE
 8
GROUP0
10
3822.09159223221
20
3935.88864967231
30
1.7297556766932e-005
11
3822.02344388479
21
3936.40628776252
31
1.7296672515682e-005
  0
LINE
 8
GROUP0
10
3822.02344388479
20
3935.37101158211
30
1.73011270700962e-005
11
3822.09159223221
21
3935.88864967231
31
1.7297556766932e-005
  0
LINE
 8
GROUP0
10
3821.82364303978
20
3934.88864967231
30
1.73071401410263e-005
11
3822.02344388479
21
3935.37101158211
31
1.73011270700962e-005
  0
LINE
 8
GROUP0
10
3821.50580579458
20
3934.47443610994
30
1.73151862949916e-005
11
3821.82364303978
21
3934.88864967231
31
1.73071401410263e-005
  0
LINE
 8
GROUP0
10
3821.09159223221
20
3934.15659886474
30
1.73247170597912e-005
11
3821.50580579458
21
3934.47443610994
31
1.73151862949916e-005
  0
LINE
 8
GROUP0
10
3820.60923032241
20
3933.95679801974
30
1.73350829858643e-005
11
3821.09159223221
21
3934.15659886474
31
1.73247170597912e-005
  0
LINE
 8
GROUP0
10
3820.09159223221
20
3933.88864967231
30
1.73455776828868e-005
11
3820.60923032241
21
3933.95679801974
31
1.73350829858643e-005
  0
LINE
 8
GROUP0
10
3819.57395414201
20
3933.95679801974
30
1.73554859171199e-005
11
3820.09159223221
21
3933.88864967231
31
1.73455776828868e-005
  0
LINE
 8
GROUP0
10
3819.09159223221
20
3934.15659886474
30
1.73641325209084e-005
11
3819.57395414201
21
3933.95679801974
31
1.73554859171199e-005
  0
LINE
 8
GROUP0
10
3818.67737866984
20
3934.47443610994
30
1.73709281438172e-005
11
3819.09159223221
21
3934.15659886474
31
1.73641325209084e-005
  0
LINE
 8
GROUP0
10
3818.35954142464
20
3934.88864967231
30
1.73754096796708e-005
11
3818.67737866984
21
3934.47443610994
31
1.73709281438172e-005
  0
LINE
 8
GROUP0
10
3818.15974057963
20
3756.37101158211
30
1.82701555364539e-005
11
3818.35954142464
21
3755.88864967231
31
1.82682933659473e-005
  0
LINE
 8
GROUP0
10
3818.09159223221
20
3756.88864967231
30
1.82692712852039e-005
11
3818.15974057963
21
3756.37101158211
31
1.82701555364539e-005
  0
LINE
 8
GROUP0
10
3818.15974057963
20
3757.40628776252
30
1.82657009820397e-005
11
3818.09159223221
21
3756.88864967231
31
1.82692712852039e-005
  0
LINE
 8
GROUP0
10
3818.35954142464
20
3757.88864967231
30
1.82596879111097e-005
11
3818.15974057963
21
3757.40628776252
31
1.82657009820397e-005
  0
LINE
 8
GROUP0
10
3818.67737866984
20
3758.30286323469
30
1.82516417571443e-005
11
3818.35954142464
21
3757.88864967231
31
1.82596879111097e-005
  0
LINE
 8
GROUP0
10
3819.09159223221
20
3758.62070047988
30
1.82421109923447e-005
11
3818.67737866984
21
3758.30286323469
31
1.82516417571443e-005
  0
LINE
 8
GROUP0
10
3819.57395414201
20
3758.82050132489
30
1.82317450662717e-005
11
3819.09159223221
21
3758.62070047988
31
1.82421109923447e-005
  0
LINE
 8
GROUP0
10
3820.09159223221
20
3758.88864967231
30
1.82212503692492e-005
11
3819.57395414201
21
3758.82050132489
31
1.82317450662717e-005
  0
LINE
 8
GROUP0
10
3820.60923032241
20
3758.82050132489
30
1.82113421350161e-005
11
3820.09159223221
21
3758.88864967231
31
1.82212503692492e-005
  0
LINE
 8
GROUP0
10
3821.09159223221
20
3758.62070047988
30
1.82026956214665e-005
11
3820.60923032241
21
3758.82050132489
31
1.82113421350161e-005
  0
LINE
 8
GROUP0
10
3821.50580579458
20
3758.30286323469
30
1.81958999083187e-005
11
3821.09159223221
21
3758.62070047988
31
1.82026956214665e-005
  0
LINE
 8
GROUP0
10
3821.82364303978
20
3757.88864967231
30
1.81914183724652e-005
11
3821.50580579458
21
3758.30286323469
31
1.81958999083187e-005
  0
LINE
 8
GROUP0
10
3822.02344388479
20
3757.40628776252
30
1.81895562019585e-005
11
3821.82364303978
21
3757.88864967231
31
1.81914183724652e-005
  0
LINE
 8
GROUP0
10
3822.09159223221
20
3756.88864967231
30
1.81904404532085e-005
11
3822.02344388479
21
3757.40628776252
31
1.81895562019585e-005
  0
LINE
 8
GROUP0
10
3822.02344388479
20
3756.37101158211
30
1.81940107563727e-005
11
3822.09159223221
21
3756.88864967231
31
1.81904404532085e-005
  0
LINE
 8
GROUP0
10
3821.82364303978
20
3755.88864967231
30
1.82000238273028e-005
11
3822.02344388479
21
3756.37101158211
31
1.81940107563727e-005
  0
LINE
 8
GROUP0
10
3821.50580579458
20
3755.47443610994
30
1.82080699812681e-005
11
3821.82364303978
21
3755.88864967231
31
1.82000238273028e-005
  0
LINE
 8
GROUP0
10
3821.09159223221
20
3755.15659886475
30
1.82176007460677e-005
11
3821.50580579458
21
3755.47443610994
31
1.82080699812681e-005
  0
LINE
 8
GROUP0
10
3820.60923032241
20
3754.95679801974
30
1.82279666721408e-005
11
3821.09159223221
21
3755.15659886475
31
1.82176007460677e-005
  0
LINE
 8
GROUP0
10
3820.09159223221
20
3754.88864967231
30
1.82384613691633e-005
11
3820.60923032241
21
3754.95679801974
31
1.82279666721408e-005
  0
LINE
 8
GROUP0
10
3819.57395414201
20
3754.95679801974
30
1.82483696033964e-005
11
3820.09159223221
21
3754.88864967231
31
1.82384613691633e-005
  0
LINE
 8
GROUP0
10
3819.09159223221
20
3755.15659886475
30
1.82570162071849e-005
11
3819.57395414201
21
3754.95679801974
31
1.82483696033964e-005
  0
LINE
 8
GROUP0
10
3818.67737866984
20
3755.47443610994
30
1.82638118300937e-005
11
3819.09159223221
21
3755.15659886475
31
1.82570162071849e-005
  0
LINE
 8
GROUP0
10
3818.35954142464
20
3755.88864967231
30
1.82682933659473e-005
11
3818.67737866984
21
3755.47443610994
31
1.82638118300937e-005
  0
LINE
 8
GROUP0
10
3818.15974057963
20
3578.40605938098
30
2.00621657282463e-005
11
3818.09159223221
21
3577.88842129078
31
2.00657360314105e-005
  0
LINE
 8
GROUP0
10
3818.35954142464
20
3578.88842129078
30
2.00561526573162e-005
11
3818.15974057963
21
3578.40605938098
31
2.00621657282463e-005
  0
LINE
 8
GROUP0
10
3818.67737866984
20
3579.30263485315
30
2.00481065033509e-005
11
3818.35954142464
21
3578.88842129078
31
2.00561526573162e-005
  0
LINE
 8
GROUP0
10
3819.09159223221
20
3579.62047209835
30
2.00385757385513e-005
11
3818.67737866984
21
3579.30263485315
31
2.00481065033509e-005
  0
LINE
 8
GROUP0
10
3819.57395414201
20
3579.82027294336
30
2.00282098124782e-005
11
3819.09159223221
21
3579.62047209835
31
2.00385757385513e-005
  0
LINE
 8
GROUP0
10
3820.09159223221
20
3579.88842129078
30
2.00177151154557e-005
11
3819.57395414201
21
3579.82027294336
31
2.00282098124782e-005
  0
LINE
 8
GROUP0
10
3820.60923032241
20
3579.82027294336
30
2.00078068812226e-005
11
3820.09159223221
21
3579.88842129078
31
2.00177151154557e-005
  0
LINE
 8
GROUP0
10
3821.09159223221
20
3579.62047209835
30
1.99991602774341e-005
11
3820.60923032241
21
3579.82027294336
31
2.00078068812226e-005
  0
LINE
 8
GROUP0
10
3821.50580579458
20
3579.30263485315
30
1.99923646545253e-005
11
3821.09159223221
21
3579.62047209835
31
1.99991602774341e-005
  0
LINE
 8
GROUP0
10
3821.82364303978
20
3578.88842129078
30
1.99878831186717e-005
11
3821.50580579458
21
3579.30263485315
31
1.99923646545253e-005
  0
LINE
 8
GROUP0
10
3822.02344388479
20
3578.40605938098
30
1.9986020948165e-005
11
3821.82364303978
21
3578.88842129078
31
1.99878831186717e-005
  0
LINE
 8
GROUP0
10
3822.09159223221
20
3577.88842129078
30
1.9986905199415e-005
11
3822.02344388479
21
3578.40605938098
31
1.9986020948165e-005
  0
LINE
 8
GROUP0
10
3822.02344388479
20
3577.37078320057
30
1.99904755025793e-005
11
3822.09159223221
21
3577.88842129078
31
1.9986905199415e-005
  0
LINE
 8
GROUP0
10
3821.82364303978
20
3576.88842129078
30
1.99964885735093e-005
11
3822.02344388479
21
3577.37078320057
31
1.99904755025793e-005
  0
LINE
 8
GROUP0
10
3821.50580579458
20
3576.4742077284
30
2.00045347274747e-005
11
3821.82364303978
21
3576.88842129078
31
1.99964885735093e-005
  0
LINE
 8
GROUP0
10
3821.09159223221
20
3576.15637048321
30
2.00140654922742e-005
11
3821.50580579458
21
3576.4742077284
31
2.00045347274747e-005
  0
LINE
 8
GROUP0
10
3820.60923032241
20
3575.9565696382
30
2.00244314183473e-005
11
3821.09159223221
21
3576.15637048321
31
2.00140654922742e-005
  0
LINE
 8
GROUP0
10
3820.09159223221
20
3575.88842129078
30
2.00349261153698e-005
11
3820.60923032241
21
3575.9565696382
31
2.00244314183473e-005
  0
LINE
 8
GROUP0
10
3819.57395414201
20
3575.9565696382
30
2.00448343496029e-005
11
3820.09159223221
21
3575.88842129078
31
2.00349261153698e-005
  0
LINE
 8
GROUP0
10
3819.09159223221
20
3576.15637048321
30
2.00534809533914e-005
11
3819.57395414201
21
3575.9565696382
31
2.00448343496029e-005
  0
LINE
 8
GROUP0
10
3818.67737866984
20
3576.4742077284
30
2.00602765763003e-005
11
3819.09159223221
21
3576.15637048321
31
2.00534809533914e-005
  0
LINE
 8
GROUP0
10
3818.35954142464
20
3576.88842129078
30
2.00647581121538e-005
11
3818.67737866984
21
3576.4742077284
31
2.00602765763003e-005
  0
LINE
 8
GROUP0
10
3818.15974057963
20
3577.37078320057
30
2.00666202826605e-005
11
3818.35954142464
21
3576.88842129078
31
2.00647581121538e-005
  0
LINE
 8
GROUP0
10
3818.09159223221
20
3577.88842129078
30
2.00657360314105e-005
11
3818.15974057963
21
3577.37078320057
31
2.00666202826605e-005
  0
LINE
 8
GROUP0
10
3733.09136857872
20
3491.62047690765
30
1.73668042248332e-005
11
3732.60900666892
21
3491.82027775266
31
1.73728172957632e-005
  0
LINE
 8
GROUP0
10
3733.50558214109
20
3491.30263966246
30
1.73587581611068e-005
11
3733.09136857872
21
3491.62047690765
31
1.73668042248332e-005
  0
LINE
 8
GROUP0
10
3733.82341938629
20
3490.88842610009
30
1.73492273060682e-005
11
3733.50558214109
21
3491.30263966246
31
1.73587581611068e-005
  0
LINE
 8
GROUP0
10
3734.0232202313
20
3490.40606419029
30
1.73388613799952e-005
11
3733.82341938629
21
3490.88842610009
31
1.73492273060682e-005
  0
LINE
 8
GROUP0
10
3734.09136857872
20
3489.88842610009
30
1.73283666829727e-005
11
3734.0232202313
21
3490.40606419029
31
1.73388613799952e-005
  0
LINE
 8
GROUP0
10
3734.0232202313
20
3489.37078800988
30
1.73184584487396e-005
11
3734.09136857872
21
3489.88842610009
31
1.73283666829727e-005
  0
LINE
 8
GROUP0
10
3733.82341938629
20
3488.88842610009
30
1.730981193519e-005
11
3734.0232202313
21
3489.37078800988
31
1.73184584487396e-005
  0
LINE
 8
GROUP0
10
3733.50558214109
20
3488.47421253771
30
1.73030163122812e-005
11
3733.82341938629
21
3488.88842610009
31
1.730981193519e-005
  0
LINE
 8
GROUP0
10
3733.09136857872
20
3488.15637529252
30
1.72985346861887e-005
11
3733.50558214109
21
3488.47421253771
31
1.73030163122812e-005
  0
LINE
 8
GROUP0
10
3732.60900666892
20
3487.95657444751
30
1.7296672515682e-005
11
3733.09136857872
21
3488.15637529252
31
1.72985346861887e-005
  0
LINE
 8
GROUP0
10
3732.09136857872
20
3487.88842610009
30
1.7297556766932e-005
11
3732.60900666892
21
3487.95657444751
31
1.7296672515682e-005
  0
LINE
 8
GROUP0
10
3731.57373048851
20
3487.95657444751
30
1.73011270700962e-005
11
3732.09136857872
21
3487.88842610009
31
1.7297556766932e-005
  0
LINE
 8
GROUP0
10
3731.09136857872
20
3488.15637529252
30
1.73071401410263e-005
11
3731.57373048851
21
3487.95657444751
31
1.73011270700962e-005
  0
LINE
 8
GROUP0
10
3730.67715501635
20
3488.47421253771
30
1.73151862949916e-005
11
3731.09136857872
21
3488.15637529252
31
1.73071401410263e-005
  0
LINE
 8
GROUP0
10
3730.35931777115
20
3488.88842610009
30
1.73247170597912e-005
11
3730.67715501635
21
3488.47421253771
31
1.73151862949916e-005
  0
LINE
 8
GROUP0
10
3730.15951692614
20
3489.37078800988
30
1.73350829858643e-005
11
3730.35931777115
21
3488.88842610009
31
1.73247170597912e-005
  0
LINE
 8
GROUP0
10
3730.09136857872
20
3489.88842610009
30
1.73455776828868e-005
11
3730.15951692614
21
3489.37078800988
31
1.73350829858643e-005
  0
LINE
 8
GROUP0
10
3730.15951692614
20
3490.40606419029
30
1.73554859171199e-005
11
3730.09136857872
21
3489.88842610009
31
1.73455776828868e-005
  0
LINE
 8
GROUP0
10
3730.35931777115
20
3490.88842610009
30
1.73641325209084e-005
11
3730.15951692614
21
3490.40606419029
31
1.73554859171199e-005
  0
LINE
 8
GROUP0
10
3730.67715501635
20
3491.30263966246
30
1.73709281438172e-005
11
3730.35931777115
21
3490.88842610009
31
1.73641325209084e-005
  0
LINE
 8
GROUP0
10
3731.09136857872
20
3491.62047690765
30
1.73754096796708e-005
11
3730.67715501635
21
3491.30263966246
31
1.73709281438172e-005
  0
LINE
 8
GROUP0
10
3731.57373048851
20
3491.82027775266
30
1.73772718501775e-005
11
3731.09136857872
21
3491.62047690765
31
1.73754096796708e-005
  0
LINE
 8
GROUP0
10
3732.09136857872
20
3491.88842610009
30
1.73763875989275e-005
11
3731.57373048851
21
3491.82027775266
31
1.73772718501775e-005
  0
LINE
 8
GROUP0
10
3732.60900666892
20
3491.82027775266
30
1.73728172957632e-005
11
3732.09136857872
21
3491.88842610009
31
1.73763875989275e-005
  0
LINE
 8
GROUP0
10
3552.57373048851
20
3491.82027775266
30
1.82701555364539e-005
11
3552.09136857872
21
3491.62047690765
31
1.82682933659473e-005
  0
LINE
 8
GROUP0
10
3553.09136857872
20
3491.88842610009
30
1.82692712852039e-005
11
3552.57373048851
21
3491.82027775266
31
1.82701555364539e-005
  0
LINE
 8
GROUP0
10
3553.60900666892
20
3491.82027775266
30
1.82657009820397e-005
11
3553.09136857872
21
3491.88842610009
31
1.82692712852039e-005
  0
LINE
 8
GROUP0
10
3554.09136857872
20
3491.62047690765
30
1.82596879111097e-005
11
3553.60900666892
21
3491.82027775266
31
1.82657009820397e-005
  0
LINE
 8
GROUP0
10
3554.50558214109
20
3491.30263966246
30
1.82516417571443e-005
11
3554.09136857872
21
3491.62047690765
31
1.82596879111097e-005
  0
LINE
 8
GROUP0
10
3554.82341938629
20
3490.88842610009
30
1.82421109923447e-005
11
3554.50558214109
21
3491.30263966246
31
1.82516417571443e-005
  0
LINE
 8
GROUP0
10
3555.0232202313
20
3490.40606419029
30
1.82317450662717e-005
11
3554.82341938629
21
3490.88842610009
31
1.82421109923447e-005
  0
LINE
 8
GROUP0
10
3555.09136857872
20
3489.88842610009
30
1.82212503692492e-005
11
3555.0232202313
21
3490.40606419029
31
1.82317450662717e-005
  0
LINE
 8
GROUP0
10
3555.0232202313
20
3489.37078800988
30
1.82113421350161e-005
11
3555.09136857872
21
3489.88842610009
31
1.82212503692492e-005
  0
LINE
 8
GROUP0
10
3554.82341938629
20
3488.88842610009
30
1.82026956214665e-005
11
3555.0232202313
21
3489.37078800988
31
1.82113421350161e-005
  0
LINE
 8
GROUP0
10
3554.50558214109
20
3488.47421253771
30
1.81958999083187e-005
11
3554.82341938629
21
3488.88842610009
31
1.82026956214665e-005
  0
LINE
 8
GROUP0
10
3554.09136857872
20
3488.15637529252
30
1.81914183724652e-005
11
3554.50558214109
21
3488.47421253771
31
1.81958999083187e-005
  0
LINE
 8
GROUP0
10
3553.60900666892
20
3487.95657444751
30
1.81895562019585e-005
11
3554.09136857872
21
3488.15637529252
31
1.81914183724652e-005
  0
LINE
 8
GROUP0
10
3553.09136857872
20
3487.88842610009
30
1.81904404532085e-005
11
3553.60900666892
21
3487.95657444751
31
1.81895562019585e-005
  0
LINE
 8
GROUP0
10
3552.57373048851
20
3487.95657444751
30
1.81940107563727e-005
11
3553.09136857872
21
3487.88842610009
31
1.81904404532085e-005
  0
LINE
 8
GROUP0
10
3552.09136857872
20
3488.15637529252
30
1.82000238273028e-005
11
3552.57373048851
21
3487.95657444751
31
1.81940107563727e-005
  0
LINE
 8
GROUP0
10
3551.67715501635
20
3488.47421253771
30
1.82080699812681e-005
11
3552.09136857872
21
3488.15637529252
31
1.82000238273028e-005
  0
LINE
 8
GROUP0
10
3551.35931777115
20
3488.88842610009
30
1.82176007460677e-005
11
3551.67715501635
21
3488.47421253771
31
1.82080699812681e-005
  0
LINE
 8
GROUP0
10
3551.15951692614
20
3489.37078800988
30
1.82279666721408e-005
11
3551.35931777115
21
3488.88842610009
31
1.82176007460677e-005
  0
LINE
 8
GROUP0
10
3551.09136857872
20
3489.88842610009
30
1.82384613691633e-005
11
3551.15951692614
21
3489.37078800988
31
1.82279666721408e-005
  0
LINE
 8
GROUP0
10
3551.15951692614
20
3490.40606419029
30
1.82483696033964e-005
11
3551.09136857872
21
3489.88842610009
31
1.82384613691633e-005
  0
LINE
 8
GROUP0
10
3551.35931777115
20
3490.88842610009
30
1.82570162071849e-005
11
3551.15951692614
21
3490.40606419029
31
1.82483696033964e-005
  0
LINE
 8
GROUP0
10
3551.67715501635
20
3491.30263966246
30
1.82638118300937e-005
11
3551.35931777115
21
3490.88842610009
31
1.82570162071849e-005
  0
LINE
 8
GROUP0
10
3552.09136857872
20
3491.62047690765
30
1.82682933659473e-005
11
3551.67715501635
21
3491.30263966246
31
1.82638118300937e-005
  0
LINE
 8
GROUP0
10
3376.02299184976
20
3490.40606419029
30
2.00282098124782e-005
11
3375.82319100475
21
3490.88842610009
31
2.00385757385513e-005
  0
LINE
 8
GROUP0
10
3376.09114019718
20
3489.88842610009
30
2.00177151154557e-005
11
3376.02299184976
21
3490.40606419029
31
2.00282098124782e-005
  0
LINE
 8
GROUP0
10
3376.02299184976
20
3489.37078800988
30
2.00078068812226e-005
11
3376.09114019718
21
3489.88842610009
31
2.00177151154557e-005
  0
LINE
 8
GROUP0
10
3375.82319100475
20
3488.88842610009
30
1.99991602774341e-005
11
3376.02299184976
21
3489.37078800988
31
2.00078068812226e-005
  0
LINE
 8
GROUP0
10
3375.50535375956
20
3488.47421253771
30
1.99923646545253e-005
11
3375.82319100475
21
3488.88842610009
31
1.99991602774341e-005
  0
LINE
 8
GROUP0
10
3375.09114019718
20
3488.15637529252
30
1.99878831186717e-005
11
3375.50535375956
21
3488.47421253771
31
1.99923646545253e-005
  0
LINE
 8
GROUP0
10
3374.60877828739
20
3487.95657444751
30
1.9986020948165e-005
11
3375.09114019718
21
3488.15637529252
31
1.99878831186717e-005
  0
LINE
 8
GROUP0
10
3374.09114019718
20
3487.88842610009
30
1.9986905199415e-005
11
3374.60877828739
21
3487.95657444751
31
1.9986020948165e-005
  0
LINE
 8
GROUP0
10
3373.57350210698
20
3487.95657444751
30
1.99904755025793e-005
11
3374.09114019718
21
3487.88842610009
31
1.9986905199415e-005
  0
LINE
 8
GROUP0
10
3373.09114019718
20
3488.15637529252
30
1.99964885735093e-005
11
3373.57350210698
21
3487.95657444751
31
1.99904755025793e-005
  0
LINE
 8
GROUP0
10
3372.67692663481
20
3488.47421253771
30
2.00045347274747e-005
11
3373.09114019718
21
3488.15637529252
31
1.99964885735093e-005
  0
LINE
 8
GROUP0
10
3372.35908938961
20
3488.88842610009
30
2.00140654922742e-005
11
3372.67692663481
21
3488.47421253771
31
2.00045347274747e-005
  0
LINE
 8
GROUP0
10
3372.1592885446
20
3489.37078800988
30
2.00244314183473e-005
11
3372.35908938961
21
3488.88842610009
31
2.00140654922742e-005
  0
LINE
 8
GROUP0
10
3372.09114019718
20
3489.88842610009
30
2.00349261153698e-005
11
3372.1592885446
21
3489.37078800988
31
2.00244314183473e-005
  0
LINE
 8
GROUP0
10
3372.1592885446
20
3490.40606419029
30
2.00448343496029e-005
11
3372.09114019718
21
3489.88842610009
31
2.00349261153698e-005
  0
LINE
 8
GROUP0
10
3372.35908938961
20
3490.88842610009
30
2.00534809533914e-005
11
3372.1592885446
21
3490.40606419029
31
2.00448343496029e-005
  0
LINE
 8
GROUP0
10
3372.67692663481
20
3491.30263966246
30
2.00602765763003e-005
11
3372.35908938961
21
3490.88842610009
31
2.00534809533914e-005
  0
LINE
 8
GROUP0
10
3373.09114019718
20
3491.62047690765
30
2.00647581121538e-005
11
3372.67692663481
21
3491.30263966246
31
2.00602765763003e-005
  0
LINE
 8
GROUP0
10
3373.57350210698
20
3491.82027775266
30
2.00666202826605e-005
11
3373.09114019718
21
3491.62047690765
31
2.00647581121538e-005
  0
LINE
 8
GROUP0
10
3374.09114019718
20
3491.88842610009
30
2.00657360314105e-005
11
3373.57350210698
21
3491.82027775266
31
2.00666202826605e-005
  0
LINE
 8
GROUP0
10
3374.60877828739
20
3491.82027775266
30
2.00621657282463e-005
11
3374.09114019718
21
3491.88842610009
31
2.00657360314105e-005
  0
LINE
 8
GROUP0
10
3375.09114019718
20
3491.62047690765
30
2.00561526573162e-005
11
3374.60877828739
21
3491.82027775266
31
2.00621657282463e-005
  0
LINE
 8
GROUP0
10
3375.50535375956
20
3491.30263966246
30
2.00481065033509e-005
11
3375.09114019718
21
3491.62047690765
31
2.00561526573162e-005
  0
LINE
 8
GROUP0
10
3375.82319100475
20
3490.88842610009
30
2.00385757385513e-005
11
3375.50535375956
21
3491.30263966246
31
2.00481065033509e-005
  0
LINE
 8
GROUP0
10
3284.35909419892
20
3578.88864975358
30
1.73071401410263e-005
11
3284.15929335391
21
3578.40628784378
31
1.73011270700962e-005
  0
LINE
 8
GROUP0
10
3284.67693144412
20
3579.30286331595
30
1.73151862949916e-005
11
3284.35909419892
21
3578.88864975358
31
1.73071401410263e-005
  0
LINE
 8
GROUP0
10
3285.09114500649
20
3579.62070056115
30
1.73247170597912e-005
11
3284.67693144412
21
3579.30286331595
31
1.73151862949916e-005
  0
LINE
 8
GROUP0
10
3285.57350691629
20
3579.82050140616
30
1.73350829858643e-005
11
3285.09114500649
21
3579.62070056115
31
1.73247170597912e-005
  0
LINE
 8
GROUP0
10
3286.09114500649
20
3579.88864975358
30
1.73455776828868e-005
11
3285.57350691629
21
3579.82050140616
31
1.73350829858643e-005
  0
LINE
 8
GROUP0
10
3286.6087830967
20
3579.82050140616
30
1.73554859171199e-005
11
3286.09114500649
21
3579.88864975358
31
1.73455776828868e-005
  0
LINE
 8
GROUP0
10
3287.09114500649
20
3579.62070056115
30
1.73641325209084e-005
11
3286.6087830967
21
3579.82050140616
31
1.73554859171199e-005
  0
LINE
 8
GROUP0
10
3287.50535856886
20
3579.30286331595
30
1.73709281438172e-005
11
3287.09114500649
21
3579.62070056115
31
1.73641325209084e-005
  0
LINE
 8
GROUP0
10
3287.82319581406
20
3578.88864975358
30
1.73754096796708e-005
11
3287.50535856886
21
3579.30286331595
31
1.73709281438172e-005
  0
LINE
 8
GROUP0
10
3288.02299665907
20
3578.40628784378
30
1.73772718501775e-005
11
3287.82319581406
21
3578.88864975358
31
1.73754096796708e-005
  0
LINE
 8
GROUP0
10
3288.09114500649
20
3577.88864975358
30
1.73763875989275e-005
11
3288.02299665907
21
3578.40628784378
31
1.73772718501775e-005
  0
LINE
 8
GROUP0
10
3288.02299665907
20
3577.37101166337
30
1.73728172957632e-005
11
3288.09114500649
21
3577.88864975358
31
1.73763875989275e-005
  0
LINE
 8
GROUP0
10
3287.82319581406
20
3576.88864975358
30
1.73668042248332e-005
11
3288.02299665907
21
3577.37101166337
31
1.73728172957632e-005
  0
LINE
 8
GROUP0
10
3287.50535856886
20
3576.4744361912
30
1.73587581611068e-005
11
3287.82319581406
21
3576.88864975358
31
1.73668042248332e-005
  0
LINE
 8
GROUP0
10
3287.09114500649
20
3576.15659894601
30
1.73492273060682e-005
11
3287.50535856886
21
3576.4744361912
31
1.73587581611068e-005
  0
LINE
 8
GROUP0
10
3286.6087830967
20
3575.956798101
30
1.73388613799952e-005
11
3287.09114500649
21
3576.15659894601
31
1.73492273060682e-005
  0
LINE
 8
GROUP0
10
3286.09114500649
20
3575.88864975358
30
1.73283666829727e-005
11
3286.6087830967
21
3575.956798101
31
1.73388613799952e-005
  0
LINE
 8
GROUP0
10
3285.57350691629
20
3575.956798101
30
1.73184584487396e-005
11
3286.09114500649
21
3575.88864975358
31
1.73283666829727e-005
  0
LINE
 8
GROUP0
10
3285.09114500649
20
3576.15659894601
30
1.730981193519e-005
11
3285.57350691629
21
3575.956798101
31
1.73184584487396e-005
  0
LINE
 8
GROUP0
10
3284.67693144412
20
3576.4744361912
30
1.73030163122812e-005
11
3285.09114500649
21
3576.15659894601
31
1.730981193519e-005
  0
LINE
 8
GROUP0
10
3284.35909419892
20
3576.88864975358
30
1.72985346861887e-005
11
3284.67693144412
21
3576.4744361912
31
1.73030163122812e-005
  0
LINE
 8
GROUP0
10
3284.15929335391
20
3577.37101166337
30
1.7296672515682e-005
11
3284.35909419892
21
3576.88864975358
31
1.72985346861887e-005
  0
LINE
 8
GROUP0
10
3284.09114500649
20
3577.88864975358
30
1.7297556766932e-005
11
3284.15929335391
21
3577.37101166337
31
1.7296672515682e-005
  0
LINE
 8
GROUP0
10
3284.15929335391
20
3578.40628784378
30
1.73011270700962e-005
11
3284.09114500649
21
3577.88864975358
31
1.7297556766932e-005
  0
LINE
 8
GROUP0
10
3287.09114500649
20
3755.15659894601
30
1.82421109923447e-005
11
3287.50535856886
21
3755.4744361912
31
1.82516417571443e-005
  0
LINE
 8
GROUP0
10
3286.6087830967
20
3754.956798101
30
1.82317450662717e-005
11
3287.09114500649
21
3755.15659894601
31
1.82421109923447e-005
  0
LINE
 8
GROUP0
10
3286.09114500649
20
3754.88864975358
30
1.82212503692492e-005
11
3286.6087830967
21
3754.956798101
31
1.82317450662717e-005
  0
LINE
 8
GROUP0
10
3285.57350691629
20
3754.956798101
30
1.82113421350161e-005
11
3286.09114500649
21
3754.88864975358
31
1.82212503692492e-005
  0
LINE
 8
GROUP0
10
3285.09114500649
20
3755.15659894601
30
1.82026956214665e-005
11
3285.57350691629
21
3754.956798101
31
1.82113421350161e-005
  0
LINE
 8
GROUP0
10
3284.67693144412
20
3755.4744361912
30
1.81958999083187e-005
11
3285.09114500649
21
3755.15659894601
31
1.82026956214665e-005
  0
LINE
 8
GROUP0
10
3284.35909419892
20
3755.88864975358
30
1.81914183724652e-005
11
3284.67693144412
21
3755.4744361912
31
1.81958999083187e-005
  0
LINE
 8
GROUP0
10
3284.15929335391
20
3756.37101166337
30
1.81895562019585e-005
11
3284.35909419892
21
3755.88864975358
31
1.81914183724652e-005
  0
LINE
 8
GROUP0
10
3284.09114500649
20
3756.88864975358
30
1.81904404532085e-005
11
3284.15929335391
21
3756.37101166337
31
1.81895562019585e-005
  0
LINE
 8
GROUP0
10
3284.15929335391
20
3757.40628784378
30
1.81940107563727e-005
11
3284.09114500649
21
3756.88864975358
31
1.81904404532085e-005
  0
LINE
 8
GROUP0
10
3284.35909419892
20
3757.88864975358
30
1.82000238273028e-005
11
3284.15929335391
21
3757.40628784378
31
1.81940107563727e-005
  0
LINE
 8
GROUP0
10
3284.67693144412
20
3758.30286331595
30
1.82080699812681e-005
11
3284.35909419892
21
3757.88864975358
31
1.82000238273028e-005
  0
LINE
 8
GROUP0
10
3285.09114500649
20
3758.62070056115
30
1.82176007460677e-005
11
3284.67693144412
21
3758.30286331595
31
1.82080699812681e-005
  0
LINE
 8
GROUP0
10
3285.57350691629
20
3758.82050140616
30
1.82279666721408e-005
11
3285.09114500649
21
3758.62070056115
31
1.82176007460677e-005
  0
LINE
 8
GROUP0
10
3286.09114500649
20
3758.88864975358
30
1.82384613691633e-005
11
3285.57350691629
21
3758.82050140616
31
1.82279666721408e-005
  0
LINE
 8
GROUP0
10
3286.6087830967
20
3758.82050140616
30
1.82483696033964e-005
11
3286.09114500649
21
3758.88864975358
31
1.82384613691633e-005
  0
LINE
 8
GROUP0
10
3287.09114500649
20
3758.62070056115
30
1.82570162071849e-005
11
3286.6087830967
21
3758.82050140616
31
1.82483696033964e-005
  0
LINE
 8
GROUP0
10
3287.50535856886
20
3758.30286331595
30
1.82638118300937e-005
11
3287.09114500649
21
3758.62070056115
31
1.82570162071849e-005
  0
LINE
 8
GROUP0
10
3287.82319581406
20
3757.88864975358
30
1.82682933659473e-005
11
3287.50535856886
21
3758.30286331595
31
1.82638118300937e-005
  0
LINE
 8
GROUP0
10
3288.02299665907
20
3757.40628784378
30
1.82701555364539e-005
11
3287.82319581406
21
3757.88864975358
31
1.82682933659473e-005
  0
LINE
 8
GROUP0
10
3288.09114500649
20
3756.88864975358
30
1.82692712852039e-005
11
3288.02299665907
21
3757.40628784378
31
1.82701555364539e-005
  0
LINE
 8
GROUP0
10
3288.02299665907
20
3756.37101166337
30
1.82657009820397e-005
11
3288.09114500649
21
3756.88864975358
31
1.82692712852039e-005
  0
LINE
 8
GROUP0
10
3287.82319581406
20
3755.88864975358
30
1.82596879111097e-005
11
3288.02299665907
21
3756.37101166337
31
1.82657009820397e-005
  0
LINE
 8
GROUP0
10
3287.50535856886
20
3755.4744361912
30
1.82516417571443e-005
11
3287.82319581406
21
3755.88864975358
31
1.82596879111097e-005
  0
LINE
 8
GROUP0
10
3287.82319581406
20
3934.88887813511
30
2.00561526573162e-005
11
3288.02299665907
21
3935.37124004491
31
2.00621657282463e-005
  0
LINE
 8
GROUP0
10
3287.50535856886
20
3934.47466457274
30
2.00481065033509e-005
11
3287.82319581406
21
3934.88887813511
31
2.00561526573162e-005
  0
LINE
 8
GROUP0
10
3287.09114500649
20
3934.15682732755
30
2.00385757385513e-005
11
3287.50535856886
21
3934.47466457274
31
2.00481065033509e-005
  0
LINE
 8
GROUP0
10
3286.6087830967
20
3933.95702648254
30
2.00282098124782e-005
11
3287.09114500649
21
3934.15682732755
31
2.00385757385513e-005
  0
LINE
 8
GROUP0
10
3286.09114500649
20
3933.88887813511
30
2.00177151154557e-005
11
3286.6087830967
21
3933.95702648254
31
2.00282098124782e-005
  0
LINE
 8
GROUP0
10
3285.57350691629
20
3933.95702648254
30
2.00078068812226e-005
11
3286.09114500649
21
3933.88887813511
31
2.00177151154557e-005
  0
LINE
 8
GROUP0
10
3285.09114500649
20
3934.15682732755
30
1.99991602774341e-005
11
3285.57350691629
21
3933.95702648254
31
2.00078068812226e-005
  0
LINE
 8
GROUP0
10
3284.67693144412
20
3934.47466457274
30
1.99923646545253e-005
11
3285.09114500649
21
3934.15682732755
31
1.99991602774341e-005
  0
LINE
 8
GROUP0
10
3284.35909419892
20
3934.88887813511
30
1.99878831186717e-005
11
3284.67693144412
21
3934.47466457274
31
1.99923646545253e-005
  0
LINE
 8
GROUP0
10
3284.15929335391
20
3935.37124004491
30
1.9986020948165e-005
11
3284.35909419892
21
3934.88887813511
31
1.99878831186717e-005
  0
LINE
 8
GROUP0
10
3284.09114500649
20
3935.88887813511
30
1.9986905199415e-005
11
3284.15929335391
21
3935.37124004491
31
1.9986020948165e-005
  0
LINE
 8
GROUP0
10
3284.15929335391
20
3936.40651622532
30
1.99904755025793e-005
11
3284.09114500649
21
3935.88887813511
31
1.9986905199415e-005
  0
LINE
 8
GROUP0
10
3284.35909419892
20
3936.88887813511
30
1.99964885735093e-005
11
3284.15929335391
21
3936.40651622532
31
1.99904755025793e-005
  0
LINE
 8
GROUP0
10
3284.67693144412
20
3937.30309169749
30
2.00045347274747e-005
11
3284.35909419892
21
3936.88887813511
31
1.99964885735093e-005
  0
LINE
 8
GROUP0
10
3285.09114500649
20
3937.62092894268
30
2.00140654922742e-005
11
3284.67693144412
21
3937.30309169749
31
2.00045347274747e-005
  0
LINE
 8
GROUP0
10
3285.57350691629
20
3937.82072978769
30
2.00244314183473e-005
11
3285.09114500649
21
3937.62092894268
31
2.00140654922742e-005
  0
LINE
 8
GROUP0
10
3286.09114500649
20
3937.88887813511
30
2.00349261153698e-005
11
3285.57350691629
21
3937.82072978769
31
2.00244314183473e-005
  0
LINE
 8
GROUP0
10
3286.6087830967
20
3937.82072978769
30
2.00448343496029e-005
11
3286.09114500649
21
3937.88887813511
31
2.00349261153698e-005
  0
LINE
 8
GROUP0
10
3287.09114500649
20
3937.62092894268
30
2.00534809533914e-005
11
3286.6087830967
21
3937.82072978769
31
2.00448343496029e-005
  0
LINE
 8
GROUP0
10
3287.50535856886
20
3937.30309169749
30
2.00602765763003e-005
11
3287.09114500649
21
3937.62092894268
31
2.00534809533914e-005
  0
LINE
 8
GROUP0
10
3287.82319581406
20
3936.88887813511
30
2.00647581121538e-005
11
3287.50535856886
21
3937.30309169749
31
2.00602765763003e-005
  0
LINE
 8
GROUP0
10
3288.02299665907
20
3936.40651622532
30
2.00666202826605e-005
11
3287.82319581406
21
3936.88887813511
31
2.00647581121538e-005
  0
LINE
 8
GROUP0
10
3288.09114500649
20
3935.88887813511
30
2.00657360314105e-005
11
3288.02299665907
21
3936.40651622532
31
2.00666202826605e-005
  0
LINE
 8
GROUP0
10
3288.02299665907
20
3935.37124004491
30
2.00621657282463e-005
11
3288.09114500649
21
3935.88887813511
31
2.00657360314105e-005
  0
LINE
 8
GROUP0
10
3375.09136865998
20
4022.15682251824
30
1.73754096796708e-005
11
3375.50558222236
21
4022.47465976343
31
1.73709281438172e-005
  0
LINE
 8
GROUP0
10
3374.60900675019
20
4021.95702167323
30
1.73772718501775e-005
11
3375.09136865998
21
4022.15682251824
31
1.73754096796708e-005
  0
LINE
 8
GROUP0
10
3374.09136865998
20
4021.88887332581
30
1.73763875989275e-005
11
3374.60900675019
21
4021.95702167323
31
1.73772718501775e-005
  0
LINE
 8
GROUP0
10
3373.57373056978
20
4021.95702167323
30
1.73728172957632e-005
11
3374.09136865998
21
4021.88887332581
31
1.73763875989275e-005
  0
LINE
 8
GROUP0
10
3373.09136865998
20
4022.15682251824
30
1.73668042248332e-005
11
3373.57373056978
21
4021.95702167323
31
1.73728172957632e-005
  0
LINE
 8
GROUP0
10
3372.67715509761
20
4022.47465976343
30
1.73587581611068e-005
11
3373.09136865998
21
4022.15682251824
31
1.73668042248332e-005
  0
LINE
 8
GROUP0
10
3372.35931785241
20
4022.88887332581
30
1.73492273060682e-005
11
3372.67715509761
21
4022.47465976343
31
1.73587581611068e-005
  0
LINE
 8
GROUP0
10
3372.1595170074
20
4023.3712352356
30
1.73388613799952e-005
11
3372.35931785241
21
4022.88887332581
31
1.73492273060682e-005
  0
LINE
 8
GROUP0
10
3372.09136865998
20
4023.88887332581
30
1.73283666829727e-005
11
3372.1595170074
21
4023.3712352356
31
1.73388613799952e-005
  0
LINE
 8
GROUP0
10
3372.1595170074
20
4024.40651141601
30
1.73184584487396e-005
11
3372.09136865998
21
4023.88887332581
31
1.73283666829727e-005
  0
LINE
 8
GROUP0
10
3372.35931785241
20
4024.88887332581
30
1.730981193519e-005
11
3372.1595170074
21
4024.40651141601
31
1.73184584487396e-005
  0
LINE
 8
GROUP0
10
3372.67715509761
20
4025.30308688818
30
1.73030163122812e-005
11
3372.35931785241
21
4024.88887332581
31
1.730981193519e-005
  0
LINE
 8
GROUP0
10
3373.09136865998
20
4025.62092413337
30
1.72985346861887e-005
11
3372.67715509761
21
4025.30308688818
31
1.73030163122812e-005
  0
LINE
 8
GROUP0
10
3373.57373056978
20
4025.82072497838
30
1.7296672515682e-005
11
3373.09136865998
21
4025.62092413337
31
1.72985346861887e-005
  0
LINE
 8
GROUP0
10
3374.09136865998
20
4025.88887332581
30
1.7297556766932e-005
11
3373.57373056978
21
4025.82072497838
31
1.7296672515682e-005
  0
LINE
 8
GROUP0
10
3374.60900675019
20
4025.82072497838
30
1.73011270700962e-005
11
3374.09136865998
21
4025.88887332581
31
1.7297556766932e-005
  0
LINE
 8
GROUP0
10
3375.09136865998
20
4025.62092413337
30
1.73071401410263e-005
11
3374.60900675019
21
4025.82072497838
31
1.73011270700962e-005
  0
LINE
 8
GROUP0
10
3375.50558222236
20
4025.30308688818
30
1.73151862949916e-005
11
3375.09136865998
21
4025.62092413337
31
1.73071401410263e-005
  0
LINE
 8
GROUP0
10
3375.82341946755
20
4024.88887332581
30
1.73247170597912e-005
11
3375.50558222236
21
4025.30308688818
31
1.73151862949916e-005
  0
LINE
 8
GROUP0
10
3376.02322031256
20
4024.40651141601
30
1.73350829858643e-005
11
3375.82341946755
21
4024.88887332581
31
1.73247170597912e-005
  0
LINE
 8
GROUP0
10
3376.09136865998
20
4023.88887332581
30
1.73455776828868e-005
11
3376.02322031256
21
4024.40651141601
31
1.73350829858643e-005
  0
LINE
 8
GROUP0
10
3376.02322031256
20
4023.3712352356
30
1.73554859171199e-005
11
3376.09136865998
21
4023.88887332581
31
1.73455776828868e-005
  0
LINE
 8
GROUP0
10
3375.82341946755
20
4022.88887332581
30
1.73641325209084e-005
11
3376.02322031256
21
4023.3712352356
31
1.73554859171199e-005
  0
LINE
 8
GROUP0
10
3375.50558222236
20
4022.47465976343
30
1.73709281438172e-005
11
3375.82341946755
21
4022.88887332581
31
1.73641325209084e-005
  0
LINE
 8
GROUP0
10
3551.35931785241
20
4024.8888733258
30
1.82026956214665e-005
11
3551.15951700741
21
4024.40651141601
31
1.82113421350161e-005
  0
LINE
 8
GROUP0
10
3551.67715509761
20
4025.30308688818
30
1.81958999083187e-005
11
3551.35931785241
21
4024.8888733258
31
1.82026956214665e-005
  0
LINE
 8
GROUP0
10
3552.09136865998
20
4025.62092413337
30
1.81914183724652e-005
11
3551.67715509761
21
4025.30308688818
31
1.81958999083187e-005
  0
LINE
 8
GROUP0
10
3552.57373056978
20
4025.82072497838
30
1.81895562019585e-005
11
3552.09136865998
21
4025.62092413337
31
1.81914183724652e-005
  0
LINE
 8
GROUP0
10
3553.09136865998
20
4025.8888733258
30
1.81904404532085e-005
11
3552.57373056978
21
4025.82072497838
31
1.81895562019585e-005
  0
LINE
 8
GROUP0
10
3553.60900675019
20
4025.82072497838
30
1.81940107563727e-005
11
3553.09136865998
21
4025.8888733258
31
1.81904404532085e-005
  0
LINE
 8
GROUP0
10
3554.09136865998
20
4025.62092413337
30
1.82000238273028e-005
11
3553.60900675019
21
4025.82072497838
31
1.81940107563727e-005
  0
LINE
 8
GROUP0
10
3554.50558222236
20
4025.30308688818
30
1.82080699812681e-005
11
3554.09136865998
21
4025.62092413337
31
1.82000238273028e-005
  0
LINE
 8
GROUP0
10
3554.82341946755
20
4024.8888733258
30
1.82176007460677e-005
11
3554.50558222236
21
4025.30308688818
31
1.82080699812681e-005
  0
LINE
 8
GROUP0
10
3555.02322031256
20
4024.40651141601
30
1.82279666721408e-005
11
3554.82341946755
21
4024.8888733258
31
1.82176007460677e-005
  0
LINE
 8
GROUP0
10
3555.09136865998
20
4023.8888733258
30
1.82384613691633e-005
11
3555.02322031256
21
4024.40651141601
31
1.82279666721408e-005
  0
LINE
 8
GROUP0
10
3555.02322031256
20
4023.3712352356
30
1.82483696033964e-005
11
3555.09136865998
21
4023.8888733258
31
1.82384613691633e-005
  0
LINE
 8
GROUP0
10
3554.82341946755
20
4022.8888733258
30
1.82570162071849e-005
11
3555.02322031256
21
4023.3712352356
31
1.82483696033964e-005
  0
LINE
 8
GROUP0
10
3554.50558222236
20
4022.47465976343
30
1.82638118300937e-005
11
3554.82341946755
21
4022.8888733258
31
1.82570162071849e-005
  0
LINE
 8
GROUP0
10
3554.09136865998
20
4022.15682251824
30
1.82682933659473e-005
11
3554.50558222236
21
4022.47465976343
31
1.82638118300937e-005
  0
LINE
 8
GROUP0
10
3553.60900675019
20
4021.95702167323
30
1.82701555364539e-005
11
3554.09136865998
21
4022.15682251824
31
1.82682933659473e-005
  0
LINE
 8
GROUP0
10
3553.09136865998
20
4021.8888733258
30
1.82692712852039e-005
11
3553.60900675019
21
4021.95702167323
31
1.82701555364539e-005
  0
LINE
 8
GROUP0
10
3552.57373056978
20
4021.95702167323
30
1.82657009820397e-005
11
3553.09136865998
21
4021.8888733258
31
1.82692712852039e-005
  0
LINE
 8
GROUP0
10
3552.09136865998
20
4022.15682251824
30
1.82596879111097e-005
11
3552.57373056978
21
4021.95702167323
31
1.82657009820397e-005
  0
LINE
 8
GROUP0
10
3551.67715509761
20
4022.47465976343
30
1.82516417571443e-005
11
3552.09136865998
21
4022.15682251824
31
1.82596879111097e-005
  0
LINE
 8
GROUP0
10
3551.35931785241
20
4022.8888733258
30
1.82421109923447e-005
11
3551.67715509761
21
4022.47465976343
31
1.82516417571443e-005
  0
LINE
 8
GROUP0
10
3551.15951700741
20
4023.3712352356
30
1.82317450662717e-005
11
3551.35931785241
21
4022.8888733258
31
1.82421109923447e-005
  0
LINE
 8
GROUP0
10
3551.09136865998
20
4023.8888733258
30
1.82212503692492e-005
11
3551.15951700741
21
4023.3712352356
31
1.82317450662717e-005
  0
LINE
 8
GROUP0
10
3551.15951700741
20
4024.40651141601
30
1.82113421350161e-005
11
3551.09136865998
21
4023.8888733258
31
1.82212503692492e-005
  0
LINE
 8
GROUP0
10
3732.09159704152
20
4021.8888733258
30
2.00657360314105e-005
11
3732.60923513172
21
4021.95702167323
31
2.00666202826605e-005
  0
LINE
 8
GROUP0
10
3731.57395895131
20
4021.95702167323
30
2.00621657282463e-005
11
3732.09159704152
21
4021.8888733258
31
2.00657360314105e-005
  0
LINE
 8
GROUP0
10
3731.09159704152
20
4022.15682251824
30
2.00561526573162e-005
11
3731.57395895131
21
4021.95702167323
31
2.00621657282463e-005
  0
LINE
 8
GROUP0
10
3730.67738347915
20
4022.47465976343
30
2.00481065033509e-005
11
3731.09159704152
21
4022.15682251824
31
2.00561526573162e-005
  0
LINE
 8
GROUP0
10
3730.35954623395
20
4022.8888733258
30
2.00385757385513e-005
11
3730.67738347915
21
4022.47465976343
31
2.00481065033509e-005
  0
LINE
 8
GROUP0
10
3730.15974538894
20
4023.3712352356
30
2.00282098124782e-005
11
3730.35954623395
21
4022.8888733258
31
2.00385757385513e-005
  0
LINE
 8
GROUP0
10
3730.09159704152
20
4023.8888733258
30
2.00177151154557e-005
11
3730.15974538894
21
4023.3712352356
31
2.00282098124782e-005
  0
LINE
 8
GROUP0
10
3730.15974538894
20
4024.40651141601
30
2.00078068812226e-005
11
3730.09159704152
21
4023.8888733258
31
2.00177151154557e-005
  0
LINE
 8
GROUP0
10
3730.35954623395
20
4024.8888733258
30
1.99991602774341e-005
11
3730.15974538894
21
4024.40651141601
31
2.00078068812226e-005
  0
LINE
 8
GROUP0
10
3730.67738347915
20
4025.30308688818
30
1.99923646545253e-005
11
3730.35954623395
21
4024.8888733258
31
1.99991602774341e-005
  0
LINE
 8
GROUP0
10
3731.09159704152
20
4025.62092413337
30
1.99878831186717e-005
11
3730.67738347915
21
4025.30308688818
31
1.99923646545253e-005
  0
LINE
 8
GROUP0
10
3731.57395895131
20
4025.82072497838
30
1.9986020948165e-005
11
3731.09159704152
21
4025.62092413337
31
1.99878831186717e-005
  0
LINE
 8
GROUP0
10
3732.09159704152
20
4025.8888733258
30
1.9986905199415e-005
11
3731.57395895131
21
4025.82072497838
31
1.9986020948165e-005
  0
LINE
 8
GROUP0
10
3732.60923513172
20
4025.82072497838
30
1.99904755025793e-005
11
3732.09159704152
21
4025.8888733258
31
1.9986905199415e-005
  0
LINE
 8
GROUP0
10
3733.09159704152
20
4025.62092413337
30
1.99964885735093e-005
11
3732.60923513172
21
4025.82072497838
31
1.99904755025793e-005
  0
LINE
 8
GROUP0
10
3733.50581060389
20
4025.30308688818
30
2.00045347274747e-005
11
3733.09159704152
21
4025.62092413337
31
1.99964885735093e-005
  0
LINE
 8
GROUP0
10
3733.82364784909
20
4024.8888733258
30
2.00140654922742e-005
11
3733.50581060389
21
4025.30308688818
31
2.00045347274747e-005
  0
LINE
 8
GROUP0
10
3734.0234486941
20
4024.40651141601
30
2.00244314183473e-005
11
3733.82364784909
21
4024.8888733258
31
2.00140654922742e-005
  0
LINE
 8
GROUP0
10
3734.09159704152
20
4023.8888733258
30
2.00349261153698e-005
11
3734.0234486941
21
4024.40651141601
31
2.00244314183473e-005
  0
LINE
 8
GROUP0
10
3734.0234486941
20
4023.3712352356
30
2.00448343496029e-005
11
3734.09159704152
21
4023.8888733258
31
2.00349261153698e-005
  0
LINE
 8
GROUP0
10
3733.82364784909
20
4022.8888733258
30
2.00534809533914e-005
11
3734.0234486941
21
4023.3712352356
31
2.00448343496029e-005
  0
LINE
 8
GROUP0
10
3733.50581060389
20
4022.47465976343
30
2.00602765763003e-005
11
3733.82364784909
21
4022.8888733258
31
2.00534809533914e-005
  0
LINE
 8
GROUP0
10
3733.09159704152
20
4022.15682251824
30
2.00647581121538e-005
11
3733.50581060389
21
4022.47465976343
31
2.00602765763003e-005
  0
LINE
 8
GROUP0
10
3732.60923513172
20
4021.95702167323
30
2.00666202826605e-005
11
3733.09159704152
21
4022.15682251824
31
2.00647581121538e-005
  0
LINE
 8
GROUP0
10
3679.09135277954
20
3707.38864999353
30
1.80009933001324e-005
11
3683.09135277954
21
3707.38864999353
31
1.80056168720577e-005
  0
LINE
 8
GROUP0
10
3679.09135277954
20
3718.38864999354
30
1.80009933001324e-005
11
3679.09135277954
21
3707.38864999353
31
1.80009933001324e-005
  0
LINE
 8
GROUP0
10
3683.09135277954
20
3718.38864999354
30
1.80056168720577e-005
11
3679.09135277954
21
3718.38864999354
31
1.80009933001324e-005
  0
LINE
 8
GROUP0
10
3683.09135277954
20
3707.38864999353
30
1.80056168720577e-005
11
3683.09135277954
21
3718.38864999354
31
1.80056168720577e-005
  0
LINE
 8
GROUP0
10
3519.09135277954
20
3718.38864999354
30
1.80009933001324e-005
11
3519.09135277954
21
3707.38864999353
31
1.80009933001324e-005
  0
LINE
 8
GROUP0
10
3523.09135277954
20
3718.38864999354
30
1.80056168720577e-005
11
3519.09135277954
21
3718.38864999354
31
1.80009933001324e-005
  0
LINE
 8
GROUP0
10
3523.09135277954
20
3707.38864999353
30
1.80056168720577e-005
11
3523.09135277954
21
3718.38864999354
31
1.80056168720577e-005
  0
LINE
 8
GROUP0
10
3519.09135277954
20
3707.38864999353
30
1.80009933001324e-005
11
3523.09135277954
21
3707.38864999353
31
1.80056168720577e-005
  0
LINE
 8
GROUP0
10
3583.09135277953
20
3707.38865025399
30
1.82047674170016e-005
11
3583.09135277953
21
3718.38865025399
31
1.82047674170016e-005
  0
LINE
 8
GROUP0
10
3583.09135277953
20
3718.38865025399
30
1.82047674170016e-005
11
3587.09135277953
21
3718.38865025399
31
1.82092970502035e-005
  0
LINE
 8
GROUP0
10
3587.09135277953
20
3718.38865025399
30
1.82092970502035e-005
11
3587.09135277953
21
3707.38865025399
31
1.82092970502035e-005
  0
LINE
 8
GROUP0
10
3587.09135277953
20
3707.38865025399
30
1.82092970502035e-005
11
3583.09135277953
21
3707.38865025399
31
1.82047674170016e-005
  0
LINE
 8
GROUP0
10
3433.09135277953
20
3787.38865012668
30
1.87385285973229e-005
11
3433.09135277953
21
3798.38865012668
31
1.83884259233602e-005
  0
LINE
 8
GROUP0
10
3433.09135277953
20
3798.38865012668
30
1.83884259233602e-005
11
3437.09135277953
21
3798.38865012668
31
1.83884260135991e-005
  0
LINE
 8
GROUP0
10
3437.09135277953
20
3798.38865012668
30
1.83884260135991e-005
11
3437.09135277953
21
3787.38865012668
31
1.87385286875619e-005
  0
LINE
 8
GROUP0
10
3437.09135277953
20
3787.38865012668
30
1.87385286875619e-005
11
3433.09135277953
21
3787.38865012668
31
1.87385285973229e-005
  0
LINE
 8
GROUP0
10
3467.591352741
20
3857.88865138443
30
2.24161895549579e-005
11
3478.591352741
21
3857.88865138443
31
2.24161895549579e-005
  0
LINE
 8
GROUP0
10
3467.591352741
20
3861.88865138444
30
2.23897819449925e-005
11
3467.591352741
21
3857.88865138443
31
2.24161895549579e-005
  0
LINE
 8
GROUP0
10
3478.591352741
20
3861.88865138444
30
2.23897819449925e-005
11
3467.591352741
21
3861.88865138444
31
2.23897819449925e-005
  0
LINE
 8
GROUP0
10
3478.591352741
20
3857.88865138443
30
2.24161895549579e-005
11
3478.591352741
21
3861.88865138444
31
2.23897819449925e-005
  0
LINE
 8
GROUP0
10
3509.09135277954
20
3787.38864986622
30
1.61532905299688e-005
11
3513.09135277954
21
3787.38864986622
31
1.61533844686923e-005
  0
LINE
 8
GROUP0
10
3509.09135277954
20
3798.38864986623
30
1.5803187946245e-005
11
3509.09135277954
21
3787.38864986622
31
1.61532905299688e-005
  0
LINE
 8
GROUP0
10
3513.09135277954
20
3798.38864986623
30
1.58032817947296e-005
11
3509.09135277954
21
3798.38864986623
31
1.5803187946245e-005
  0
LINE
 8
GROUP0
10
3513.09135277954
20
3787.38864986622
30
1.61533844686923e-005
11
3513.09135277954
21
3798.38864986623
31
1.58032817947296e-005
  0
LINE
 8
GROUP0
10
3673.09135277954
20
3718.38864999354
30
1.80053822508464e-005
11
3669.09135277954
21
3718.38864999354
31
1.8000758678921e-005
  0
LINE
 8
GROUP0
10
3673.09135277954
20
3707.38864999353
30
1.80053822508464e-005
11
3673.09135277954
21
3718.38864999354
31
1.80053822508464e-005
  0
LINE
 8
GROUP0
10
3669.09135277954
20
3707.38864999353
30
1.8000758678921e-005
11
3673.09135277954
21
3707.38864999353
31
1.80053822508464e-005
  0
LINE
 8
GROUP0
10
3669.09135277954
20
3718.38864999354
30
1.8000758678921e-005
11
3669.09135277954
21
3707.38864999353
31
1.8000758678921e-005
  0
LINE
 8
GROUP0
10
3469.55580174852
20
3678.35311608741
30
1.690843423931e-005
11
3473.09133565446
21
3673.74551859466
31
1.69084343295489e-005
  0
LINE
 8
GROUP0
10
3469.55580174852
20
3678.35311608741
30
1.690843423931e-005
11
3468.76120863554
21
3679.38864999335
31
1.69084341490711e-005
  0
LINE
 8
GROUP0
10
3468.76120863554
20
3679.38864999335
30
1.69084341490711e-005
11
3468.26170652301
21
3680.59455476783
31
1.69084343295489e-005
  0
LINE
 8
GROUP0
10
3468.26170652301
20
3680.59455476783
30
1.69084343295489e-005
11
3468.09133565446
21
3681.88864999335
31
1.690843423931e-005
  0
LINE
 8
GROUP0
10
3468.09133565446
20
3681.88864999335
30
1.690843423931e-005
11
3468.26170652301
21
3683.18274521886
31
1.69084343295489e-005
  0
LINE
 8
GROUP0
10
3468.26170652301
20
3683.18274521886
30
1.69084343295489e-005
11
3468.76120863554
21
3684.38864999335
31
1.69084341490711e-005
  0
LINE
 8
GROUP0
10
3468.76120863554
20
3684.38864999335
30
1.69084341490711e-005
11
3469.55580174853
21
3685.42418389928
31
1.690843423931e-005
  0
LINE
 8
GROUP0
10
3469.55580174853
20
3685.42418389928
30
1.690843423931e-005
11
3470.59133565446
21
3686.21877701227
31
1.690843423931e-005
  0
LINE
 8
GROUP0
10
3470.59133565446
20
3686.21877701227
30
1.690843423931e-005
11
3471.79724042895
21
3686.71827912479
31
1.69084341490711e-005
  0
LINE
 8
GROUP0
10
3471.79724042895
20
3686.71827912479
30
1.69084341490711e-005
11
3473.09133565446
21
3686.88864999334
31
1.690843423931e-005
  0
LINE
 8
GROUP0
10
3473.09133565446
20
3686.88864999334
30
1.690843423931e-005
11
3474.38543087997
21
3686.71827912479
31
1.69084340588321e-005
  0
LINE
 8
GROUP0
10
3474.38543087997
20
3686.71827912479
30
1.69084340588321e-005
11
3475.59133565446
21
3686.21877701227
31
1.69084343295489e-005
  0
LINE
 8
GROUP0
10
3475.59133565446
20
3686.21877701227
30
1.69084343295489e-005
11
3476.62686956039
21
3685.42418389927
31
1.690843423931e-005
  0
LINE
 8
GROUP0
10
3476.62686956039
20
3685.42418389927
30
1.690843423931e-005
11
3477.42146267338
21
3684.38864999334
31
1.69084341490711e-005
  0
LINE
 8
GROUP0
10
3477.42146267338
20
3684.38864999334
30
1.69084341490711e-005
11
3477.9209647859
21
3683.18274521885
31
1.690843423931e-005
  0
LINE
 8
GROUP0
10
3477.9209647859
20
3683.18274521885
30
1.690843423931e-005
11
3478.09133565446
21
3681.88864999334
31
1.69084341490711e-005
  0
LINE
 8
GROUP0
10
3478.09133565446
20
3681.88864999334
30
1.69084341490711e-005
11
3477.9209647859
21
3680.59455476783
31
1.69084343295489e-005
  0
LINE
 8
GROUP0
10
3477.9209647859
20
3680.59455476783
30
1.69084343295489e-005
11
3477.42146267338
21
3679.38864999334
31
1.69084341490711e-005
  0
LINE
 8
GROUP0
10
3477.42146267338
20
3679.38864999334
30
1.69084341490711e-005
11
3476.62686956039
21
3678.35311608741
31
1.690843423931e-005
  0
LINE
 8
GROUP0
10
3473.09133565446
20
3673.74551859466
30
1.69084343295489e-005
11
3476.62686956039
21
3678.35311608741
31
1.690843423931e-005
  0
LINE
 8
GROUP0
10
3423.09135277953
20
3787.38865025399
30
1.82047674170016e-005
11
3423.09135277953
21
3798.38865025399
31
1.78546647430389e-005
  0
LINE
 8
GROUP0
10
3423.09135277953
20
3798.38865025399
30
1.78546647430389e-005
11
3427.09135277953
21
3798.38865025399
31
1.78546647430389e-005
  0
LINE
 8
GROUP0
10
3427.09135277953
20
3798.38865025399
30
1.78546647430389e-005
11
3427.09135277953
21
3787.38865025399
31
1.82047674170016e-005
  0
LINE
 8
GROUP0
10
3427.09135277953
20
3787.38865025399
30
1.82047674170016e-005
11
3423.09135277953
21
3787.38865025399
31
1.82047674170016e-005
  0
LINE
 8
GROUP0
10
3679.09135277954
20
3798.38864999353
30
1.76508906261696e-005
11
3679.09135277954
21
3787.38864999354
31
1.80009933001324e-005
  0
LINE
 8
GROUP0
10
3683.09135277954
20
3798.38864999353
30
1.76509844746542e-005
11
3679.09135277954
21
3798.38864999353
31
1.76508906261696e-005
  0
LINE
 8
GROUP0
10
3683.09135277954
20
3787.38864999354
30
1.80010871486169e-005
11
3683.09135277954
21
3798.38864999353
31
1.76509844746542e-005
  0
LINE
 8
GROUP0
10
3679.09135277954
20
3787.38864999354
30
1.80009933001324e-005
11
3683.09135277954
21
3787.38864999354
31
1.80010871486169e-005
  0
LINE
 8
GROUP0
10
3593.09135277953
20
3787.38865012085
30
1.80007657175574e-005
11
3597.09135277953
21
3787.38865012085
31
1.80008595660419e-005
  0
LINE
 8
GROUP0
10
3593.09135277953
20
3798.38865012085
30
1.76506630435946e-005
11
3593.09135277953
21
3787.38865012085
31
1.80007657175574e-005
  0
LINE
 8
GROUP0
10
3597.09135277953
20
3798.38865012085
30
1.76507568920792e-005
11
3593.09135277953
21
3798.38865012085
31
1.76506630435946e-005
  0
LINE
 8
GROUP0
10
3597.09135277953
20
3787.38865012085
30
1.80008595660419e-005
11
3597.09135277953
21
3798.38865012085
31
1.76507568920792e-005
  0
LINE
 8
GROUP0
10
3467.59135274092
20
3667.88865142537
30
2.3828997094183e-005
11
3467.59135274092
21
3663.88865142537
31
2.38554048846262e-005
  0
LINE
 8
GROUP0
10
3478.59135274092
20
3667.88865142537
30
2.3828997094183e-005
11
3467.59135274092
21
3667.88865142537
31
2.3828997094183e-005
  0
LINE
 8
GROUP0
10
3478.59135274092
20
3663.88865142537
30
2.38554047041484e-005
11
3478.59135274092
21
3667.88865142537
31
2.3828997094183e-005
  0
LINE
 8
GROUP0
10
3467.59135274092
20
3663.88865142537
30
2.38554048846262e-005
11
3478.59135274092
21
3663.88865142537
31
2.38554047041484e-005
  0
LINE
 8
GROUP0
10
3597.09135277953
20
3707.38864999354
30
1.80053892894827e-005
11
3597.09135277953
21
3718.38864999354
31
1.80053892894827e-005
  0
LINE
 8
GROUP0
10
3593.09135277953
20
3707.38864999354
30
1.80007657175574e-005
11
3597.09135277953
21
3707.38864999354
31
1.80053892894827e-005
  0
LINE
 8
GROUP0
10
3593.09135277953
20
3718.38864999354
30
1.80007657175574e-005
11
3593.09135277953
21
3707.38864999354
31
1.80007657175574e-005
  0
LINE
 8
GROUP0
10
3597.09135277953
20
3718.38864999354
30
1.80053892894827e-005
11
3593.09135277953
21
3718.38864999354
31
1.80007657175574e-005
  0
LINE
 8
GROUP0
10
3583.09135277953
20
3787.38865025399
30
1.82047674170016e-005
11
3583.09135277953
21
3798.38865025399
31
1.78546647430389e-005
  0
LINE
 8
GROUP0
10
3583.09135277953
20
3798.38865025399
30
1.78546647430389e-005
11
3587.09135277953
21
3798.38865025399
31
1.78546647430389e-005
  0
LINE
 8
GROUP0
10
3587.09135277953
20
3798.38865025399
30
1.78546647430389e-005
11
3587.09135277953
21
3787.38865025399
31
1.82047674170016e-005
  0
LINE
 8
GROUP0
10
3587.09135277953
20
3787.38865025399
30
1.82047674170016e-005
11
3583.09135277953
21
3787.38865025399
31
1.82047674170016e-005
  0
LINE
 8
GROUP0
10
3427.09135277953
20
3707.38865025399
30
1.82092970502035e-005
11
3423.09135277953
21
3707.38865025399
31
1.82047674170016e-005
  0
LINE
 8
GROUP0
10
3423.09135277953
20
3707.38865025399
30
1.82047674170016e-005
11
3423.09135277953
21
3718.38865025399
31
1.82047674170016e-005
  0
LINE
 8
GROUP0
10
3423.09135277953
20
3718.38865025399
30
1.82047674170016e-005
11
3427.09135277953
21
3718.38865025399
31
1.82092970502035e-005
  0
LINE
 8
GROUP0
10
3427.09135277953
20
3718.38865025399
30
1.82092970502035e-005
11
3427.09135277953
21
3707.38865025399
31
1.82092970502035e-005
  0
LINE
 8
GROUP0
10
3669.09135277954
20
3787.38865012084
30
1.8000758678921e-005
11
3673.09135277954
21
3787.38865012084
31
1.80008525274056e-005
  0
LINE
 8
GROUP0
10
3669.09135277954
20
3798.38865012084
30
1.76506560049583e-005
11
3669.09135277954
21
3787.38865012084
31
1.8000758678921e-005
  0
LINE
 8
GROUP0
10
3673.09135277954
20
3798.38865012084
30
1.76507498534428e-005
11
3669.09135277954
21
3798.38865012084
31
1.76506560049583e-005
  0
LINE
 8
GROUP0
10
3673.09135277954
20
3787.38865012084
30
1.80008525274056e-005
11
3673.09135277954
21
3798.38865012084
31
1.76507498534428e-005
  0
LINE
 8
GROUP0
10
3523.09135277954
20
3787.38864999354
30
1.80010871486169e-005
11
3523.09135277954
21
3798.38864999353
31
1.76509844746542e-005
  0
LINE
 8
GROUP0
10
3519.09135277954
20
3787.38864999354
30
1.80009933001324e-005
11
3523.09135277954
21
3787.38864999354
31
1.80010871486169e-005
  0
LINE
 8
GROUP0
10
3519.09135277954
20
3798.38864999353
30
1.76508906261696e-005
11
3519.09135277954
21
3787.38864999354
31
1.80009933001324e-005
  0
LINE
 8
GROUP0
10
3523.09135277954
20
3798.38864999353
30
1.76509844746542e-005
11
3519.09135277954
21
3798.38864999353
31
1.76508906261696e-005
  0
LINE
 8
GROUP0
10
3627.59135300579
20
3667.8886514663
30
2.3828997003944e-005
11
3627.59135300579
21
3663.8886514663
31
2.38554048846262e-005
  0
LINE
 8
GROUP0
10
3638.59135300579
20
3667.8886514663
30
2.3828997094183e-005
11
3627.59135300579
21
3667.8886514663
31
2.3828997003944e-005
  0
LINE
 8
GROUP0
10
3638.59135300579
20
3663.8886514663
30
2.38554047041484e-005
11
3638.59135300579
21
3667.8886514663
31
2.3828997094183e-005
  0
LINE
 8
GROUP0
10
3627.59135300579
20
3663.8886514663
30
2.38554048846262e-005
11
3638.59135300579
21
3663.8886514663
31
2.38554047041484e-005
  0
LINE
 8
GROUP0
10
3638.59135300586
20
3837.88865142537
30
2.38554047041484e-005
11
3638.59135300586
21
3841.88865142537
31
2.3828997094183e-005
  0
LINE
 8
GROUP0
10
3627.59135300586
20
3837.88865142537
30
2.38554047943873e-005
11
3638.59135300586
21
3837.88865142537
31
2.38554047041484e-005
  0
LINE
 8
GROUP0
10
3627.59135300586
20
3841.88865142537
30
2.3828997094183e-005
11
3627.59135300586
21
3837.88865142537
31
2.38554047943873e-005
  0
LINE
 8
GROUP0
10
3638.59135300586
20
3841.88865142537
30
2.3828997094183e-005
11
3627.59135300586
21
3841.88865142537
31
2.3828997094183e-005
  0
LINE
 8
GROUP0
10
3638.591352741
20
3857.8886513435
30
2.38554047041484e-005
11
3638.591352741
21
3861.8886513435
31
2.3828997094183e-005
  0
LINE
 8
GROUP0
10
3627.591352741
20
3857.8886513435
30
2.38554047041484e-005
11
3638.591352741
21
3857.8886513435
31
2.38554047041484e-005
  0
LINE
 8
GROUP0
10
3627.591352741
20
3861.8886513435
30
2.3828997094183e-005
11
3627.591352741
21
3857.8886513435
31
2.38554047041484e-005
  0
LINE
 8
GROUP0
10
3638.591352741
20
3861.8886513435
30
2.3828997094183e-005
11
3627.591352741
21
3861.8886513435
31
2.3828997094183e-005
  0
LINE
 8
GROUP0
10
3513.09135277954
20
3718.38864986622
30
1.61579141921331e-005
11
3509.09135277954
21
3718.38864986622
31
1.61532905299688e-005
  0
LINE
 8
GROUP0
10
3513.09135277954
20
3707.38864986622
30
1.61579141921331e-005
11
3513.09135277954
21
3718.38864986622
31
1.61579141921331e-005
  0
LINE
 8
GROUP0
10
3509.09135277954
20
3707.38864986622
30
1.61532906202078e-005
11
3513.09135277954
21
3707.38864986622
31
1.61579141921331e-005
  0
LINE
 8
GROUP0
10
3509.09135277954
20
3718.38864986622
30
1.61532905299688e-005
11
3509.09135277954
21
3707.38864986622
31
1.61532906202078e-005
  0
LINE
 8
GROUP0
10
3467.591352741
20
3837.88865138443
30
2.38554047943873e-005
11
3478.591352741
21
3837.88865138443
31
2.38554047041484e-005
  0
LINE
 8
GROUP0
10
3467.591352741
20
3841.88865138443
30
2.3828997094183e-005
11
3467.591352741
21
3837.88865138443
31
2.38554047943873e-005
  0
LINE
 8
GROUP0
10
3478.591352741
20
3841.88865138443
30
2.3828997094183e-005
11
3467.591352741
21
3841.88865138443
31
2.3828997094183e-005
  0
LINE
 8
GROUP0
10
3478.591352741
20
3837.88865138443
30
2.38554047041484e-005
11
3478.591352741
21
3841.88865138443
31
2.3828997094183e-005
  0
LINE
 8
GROUP0
10
3638.59135274093
20
3647.88865130257
30
2.3828997094183e-005
11
3627.59135274093
21
3647.88865130257
31
2.3828997094183e-005
  0
LINE
 8
GROUP0
10
3638.59135274093
20
3643.88865130257
30
2.38554047041484e-005
11
3638.59135274093
21
3647.88865130257
31
2.3828997094183e-005
  0
LINE
 8
GROUP0
10
3627.59135274093
20
3643.88865130257
30
2.38554047041484e-005
11
3638.59135274093
21
3643.88865130257
31
2.38554047041484e-005
  0
LINE
 8
GROUP0
10
3627.59135274093
20
3647.88865130257
30
2.3828997094183e-005
11
3627.59135274093
21
3643.88865130257
31
2.38554047041484e-005
  0
LINE
 8
GROUP0
10
3478.59135274092
20
3643.8886513435
30
2.24161895549579e-005
11
3478.59135274092
21
3647.8886513435
31
2.23897819449925e-005
  0
LINE
 8
GROUP0
10
3467.59135274092
20
3643.8886513435
30
2.24161895549579e-005
11
3478.59135274092
21
3643.8886513435
31
2.24161895549579e-005
  0
LINE
 8
GROUP0
10
3467.59135274092
20
3647.8886513435
30
2.23897819449925e-005
11
3467.59135274092
21
3643.8886513435
31
2.24161895549579e-005
  0
LINE
 8
GROUP0
10
3478.59135274092
20
3647.8886513435
30
2.23897819449925e-005
11
3467.59135274092
21
3647.8886513435
31
2.23897819449925e-005
  0
LINE
 8
GROUP0
10
3433.09135277953
20
3718.38865012668
30
1.87385285973229e-005
11
3437.09135277953
21
3718.38865012668
31
1.87430583207637e-005
  0
LINE
 8
GROUP0
10
3437.09135277953
20
3718.38865012668
30
1.87430583207637e-005
11
3437.09135277953
21
3707.38865012668
31
1.87430582305248e-005
  0
LINE
 8
GROUP0
10
3437.09135277953
20
3707.38865012668
30
1.87430582305248e-005
11
3433.09135277953
21
3707.38865012668
31
1.87385286875619e-005
  0
LINE
 8
GROUP0
10
3433.09135277953
20
3707.38865012668
30
1.87385286875619e-005
11
3433.09135277953
21
3718.38865012668
31
1.87385285973229e-005
  0
LINE
 8
GROUP0
10
3628.26170652301
20
3683.18274521886
30
1.69084343295489e-005
11
3628.76120863554
21
3684.38864999335
31
1.69084341490711e-005
  0
LINE
 8
GROUP0
10
3628.76120863554
20
3684.38864999335
30
1.69084341490711e-005
11
3629.55580174853
21
3685.42418389928
31
1.690843423931e-005
  0
LINE
 8
GROUP0
10
3629.55580174853
20
3685.42418389928
30
1.690843423931e-005
11
3630.59133565446
21
3686.21877701227
31
1.690843423931e-005
  0
LINE
 8
GROUP0
10
3630.59133565446
20
3686.21877701227
30
1.690843423931e-005
11
3631.79724042895
21
3686.71827912479
31
1.69084341490711e-005
  0
LINE
 8
GROUP0
10
3631.79724042895
20
3686.71827912479
30
1.69084341490711e-005
11
3633.09133565446
21
3686.88864999334
31
1.690843423931e-005
  0
LINE
 8
GROUP0
10
3633.09133565446
20
3686.88864999334
30
1.690843423931e-005
11
3634.38543087997
21
3686.71827912479
31
1.69084340588321e-005
  0
LINE
 8
GROUP0
10
3634.38543087997
20
3686.71827912479
30
1.69084340588321e-005
11
3635.59133565446
21
3686.21877701227
31
1.69084343295489e-005
  0
LINE
 8
GROUP0
10
3635.59133565446
20
3686.21877701227
30
1.69084343295489e-005
11
3636.62686956039
21
3685.42418389927
31
1.690843423931e-005
  0
LINE
 8
GROUP0
10
3636.62686956039
20
3685.42418389927
30
1.690843423931e-005
11
3637.42146267338
21
3684.38864999334
31
1.69084341490711e-005
  0
LINE
 8
GROUP0
10
3637.42146267338
20
3684.38864999334
30
1.69084341490711e-005
11
3637.9209647859
21
3683.18274521885
31
1.690843423931e-005
  0
LINE
 8
GROUP0
10
3637.9209647859
20
3683.18274521885
30
1.690843423931e-005
11
3638.09133565446
21
3681.88864999334
31
1.69084341490711e-005
  0
LINE
 8
GROUP0
10
3638.09133565446
20
3681.88864999334
30
1.69084341490711e-005
11
3637.9209647859
21
3680.59455476783
31
1.69084343295489e-005
  0
LINE
 8
GROUP0
10
3637.9209647859
20
3680.59455476783
30
1.69084343295489e-005
11
3637.42146267338
21
3679.38864999334
31
1.69084341490711e-005
  0
LINE
 8
GROUP0
10
3637.42146267338
20
3679.38864999334
30
1.69084341490711e-005
11
3636.62686956039
21
3678.35311608741
31
1.690843423931e-005
  0
LINE
 8
GROUP0
10
3633.09133565445
20
3673.74551859466
30
1.69084343295489e-005
11
3636.62686956039
21
3678.35311608741
31
1.690843423931e-005
  0
LINE
 8
GROUP0
10
3629.55580174852
20
3678.35311608741
30
1.690843423931e-005
11
3633.09133565445
21
3673.74551859466
31
1.69084343295489e-005
  0
LINE
 8
GROUP0
10
3629.55580174852
20
3678.35311608741
30
1.690843423931e-005
11
3628.76120863554
21
3679.38864999335
31
1.69084341490711e-005
  0
LINE
 8
GROUP0
10
3628.76120863554
20
3679.38864999335
30
1.69084341490711e-005
11
3628.26170652301
21
3680.59455476783
31
1.69084343295489e-005
  0
LINE
 8
GROUP0
10
3628.26170652301
20
3680.59455476783
30
1.69084343295489e-005
11
3628.09133565446
21
3681.88864999335
31
1.690843423931e-005
  0
LINE
 8
GROUP0
10
3628.09133565446
20
3681.88864999335
30
1.690843423931e-005
11
3628.26170652301
21
3683.18274521886
31
1.69084343295489e-005
 0
ENDSEC
 0
EOF
