 0
SECTION
 2
ENTITIES
  0
LINE
 8
GROUP0
10
3859.81295654643
20
3533.17850757993
30
1.97989555613398e-005
11
3859.81295657876
21
3951.17896381767
31
1.56288350585621e-005
  0
LINE
 8
GROUP0
10
3859.81295657876
20
3951.17896381767
30
1.56288350585621e-005
11
3830.81295657876
21
3951.17896381949
31
1.60113697835251e-005
  0
LINE
 8
GROUP0
10
3830.81295657876
20
3951.17896381949
30
1.60113697835251e-005
11
3830.81295657759
21
3981.17896381949
31
1.60239689425745e-005
  0
LINE
 8
GROUP0
10
3830.81295657759
20
3981.17896381949
30
1.60239689425745e-005
11
3817.81295657799
21
3994.17896381856
31
1.61570084640184e-005
  0
LINE
 8
GROUP0
10
3787.81295657799
20
3994.17896381949
30
1.67245282978123e-005
11
3817.81295657799
21
3994.17896381856
31
1.61570084640184e-005
  0
LINE
 8
GROUP0
10
3787.81295657799
20
3994.17896381949
30
1.67245282978123e-005
11
3787.81295657864
21
4023.17896381781
31
1.70191618249882e-005
  0
LINE
 8
GROUP0
10
3787.81295657864
20
4023.17896381781
30
1.70191618249882e-005
11
3369.81247775668
21
4023.17896378939
31
3.17893083921328e-005
  0
LINE
 8
GROUP0
10
3369.81247775668
20
4023.17896378939
30
3.17893083921328e-005
11
3369.81247775681
21
3994.17896381949
31
3.17273907715909e-005
  0
LINE
 8
GROUP0
10
3369.81247775681
20
3994.17896381949
30
3.17273907715909e-005
11
3339.81247775681
21
3994.17896381949
31
3.18775736137533e-005
  0
LINE
 8
GROUP0
10
3339.81247775681
20
3994.17896381949
30
3.18775736137533e-005
11
3326.81247782626
21
3981.17896381949
31
3.19570065198727e-005
  0
LINE
 8
GROUP0
10
3326.81247775681
20
3951.17896381949
30
3.17312693309313e-005
11
3326.81247782626
21
3981.17896381949
31
3.19570065198727e-005
  0
LINE
 8
GROUP0
10
3326.81247775681
20
3951.17896381949
30
3.17312693309313e-005
11
3297.81247775681
21
3951.17896378963
31
3.15952779693873e-005
  0
LINE
 8
GROUP0
10
3297.81247775681
20
3951.17896378963
30
3.15952779693873e-005
11
3297.81247770299
21
3533.17850769794
31
0.0
  0
LINE
 8
GROUP0
10
3326.81247773678
20
3533.17850769771
30
1.68401574723864e-007
11
3297.81247770299
21
3533.17850769794
31
0.0
  0
LINE
 8
GROUP0
10
3326.81247773678
20
3533.17850769771
30
1.68401574723864e-007
11
3326.81247773678
21
3503.17850769771
31
4.97811068926324e-006
  0
LINE
 8
GROUP0
10
3339.81247773678
20
3490.17850761972
30
7.1329142163401e-006
11
3326.81247773678
21
3503.17850769771
31
4.97811068926324e-006
  0
LINE
 8
GROUP0
10
3369.81247773678
20
3490.17850769771
30
7.3863714502076e-006
11
3339.81247773678
21
3490.17850761972
31
7.1329142163401e-006
  0
LINE
 8
GROUP0
10
3369.81247770247
20
3461.17850769771
30
1.20658713153532e-005
11
3369.81247773678
21
3490.17850769771
31
7.3863714502076e-006
  0
LINE
 8
GROUP0
10
3369.81247770247
20
3461.17850769771
30
1.20658713153532e-005
11
3787.81295654592
21
3461.17850758008
31
3.00799443525179e-005
  0
LINE
 8
GROUP0
10
3787.81295654592
20
3461.17850758008
30
3.00799443525179e-005
11
3787.81295654644
21
3490.17850758008
31
2.63309744103546e-005
  0
LINE
 8
GROUP0
10
3787.81295654644
20
3490.17850758008
30
2.63309744103546e-005
11
3817.81295654644
21
3490.17850758008
31
2.60059193554818e-005
  0
LINE
 8
GROUP0
10
3817.81295654644
20
3490.17850758008
30
2.60059193554818e-005
11
3830.81295632042
21
3503.17850705642
31
2.21994449458529e-005
  0
LINE
 8
GROUP0
10
3830.8129565031
20
3533.17850705642
30
2.02357196404657e-005
11
3830.81295632042
21
3503.17850705642
31
2.21994449458529e-005
  0
LINE
 8
GROUP0
10
3830.8129565031
20
3533.17850705642
30
2.02357196404657e-005
11
3859.81295654643
21
3533.17850757993
31
1.97989555613398e-005
  0
LINE
 8
GROUP0
10
3843.88110492935
20
3920.66109736496
30
1.73772718501775e-005
11
3844.08090577436
21
3920.17873545516
31
1.73754096796708e-005
  0
LINE
 8
GROUP0
10
3843.81295658193
20
3921.17873545516
30
1.73763875989275e-005
11
3843.88110492935
21
3920.66109736496
31
1.73772718501775e-005
  0
LINE
 8
GROUP0
10
3843.88110492935
20
3921.69637354537
30
1.73728172957632e-005
11
3843.81295658193
21
3921.17873545516
31
1.73763875989275e-005
  0
LINE
 8
GROUP0
10
3844.08090577436
20
3922.17873545516
30
1.73668042248332e-005
11
3843.88110492935
21
3921.69637354537
31
1.73728172957632e-005
  0
LINE
 8
GROUP0
10
3844.39874301955
20
3922.59294901754
30
1.73587581611068e-005
11
3844.08090577436
21
3922.17873545516
31
1.73668042248332e-005
  0
LINE
 8
GROUP0
10
3844.81295658193
20
3922.91078626273
30
1.73492273060682e-005
11
3844.39874301955
21
3922.59294901754
31
1.73587581611068e-005
  0
LINE
 8
GROUP0
10
3845.29531849172
20
3923.11058710774
30
1.73388613799952e-005
11
3844.81295658193
21
3922.91078626273
31
1.73492273060682e-005
  0
LINE
 8
GROUP0
10
3845.81295658193
20
3923.17873545516
30
1.73283666829727e-005
11
3845.29531849172
21
3923.11058710774
31
1.73388613799952e-005
  0
LINE
 8
GROUP0
10
3846.33059467213
20
3923.11058710774
30
1.73184584487396e-005
11
3845.81295658193
21
3923.17873545516
31
1.73283666829727e-005
  0
LINE
 8
GROUP0
10
3846.81295658193
20
3922.91078626273
30
1.730981193519e-005
11
3846.33059467213
21
3923.11058710774
31
1.73184584487396e-005
  0
LINE
 8
GROUP0
10
3847.2271701443
20
3922.59294901754
30
1.73030163122812e-005
11
3846.81295658193
21
3922.91078626273
31
1.730981193519e-005
  0
LINE
 8
GROUP0
10
3847.5450073895
20
3922.17873545516
30
1.72985346861887e-005
11
3847.2271701443
21
3922.59294901754
31
1.73030163122812e-005
  0
LINE
 8
GROUP0
10
3847.7448082345
20
3921.69637354537
30
1.7296672515682e-005
11
3847.5450073895
21
3922.17873545516
31
1.72985346861887e-005
  0
LINE
 8
GROUP0
10
3847.81295658193
20
3921.17873545516
30
1.7297556766932e-005
11
3847.7448082345
21
3921.69637354537
31
1.7296672515682e-005
  0
LINE
 8
GROUP0
10
3847.7448082345
20
3920.66109736496
30
1.73011270700962e-005
11
3847.81295658193
21
3921.17873545516
31
1.7297556766932e-005
  0
LINE
 8
GROUP0
10
3847.5450073895
20
3920.17873545516
30
1.73071401410263e-005
11
3847.7448082345
21
3920.66109736496
31
1.73011270700962e-005
  0
LINE
 8
GROUP0
10
3847.2271701443
20
3919.76452189279
30
1.73151862949916e-005
11
3847.5450073895
21
3920.17873545516
31
1.73071401410263e-005
  0
LINE
 8
GROUP0
10
3846.81295658193
20
3919.44668464759
30
1.73247170597912e-005
11
3847.2271701443
21
3919.76452189279
31
1.73151862949916e-005
  0
LINE
 8
GROUP0
10
3846.33059467213
20
3919.24688380258
30
1.73350829858643e-005
11
3846.81295658193
21
3919.44668464759
31
1.73247170597912e-005
  0
LINE
 8
GROUP0
10
3845.81295658193
20
3919.17873545516
30
1.73455776828868e-005
11
3846.33059467213
21
3919.24688380258
31
1.73350829858643e-005
  0
LINE
 8
GROUP0
10
3845.29531849172
20
3919.24688380258
30
1.73554859171199e-005
11
3845.81295658193
21
3919.17873545516
31
1.73455776828868e-005
  0
LINE
 8
GROUP0
10
3844.81295658193
20
3919.44668464759
30
1.73641325209084e-005
11
3845.29531849172
21
3919.24688380258
31
1.73554859171199e-005
  0
LINE
 8
GROUP0
10
3844.39874301955
20
3919.76452189279
30
1.73709281438172e-005
11
3844.81295658193
21
3919.44668464759
31
1.73641325209084e-005
  0
LINE
 8
GROUP0
10
3844.08090577436
20
3920.17873545516
30
1.73754096796708e-005
11
3844.39874301955
21
3919.76452189279
31
1.73709281438172e-005
  0
LINE
 8
GROUP0
10
3843.88110492935
20
3741.66109736496
30
1.82701555364539e-005
11
3844.08090577436
21
3741.17873545516
31
1.82682933659473e-005
  0
LINE
 8
GROUP0
10
3843.81295658193
20
3742.17873545516
30
1.82692712852039e-005
11
3843.88110492935
21
3741.66109736496
31
1.82701555364539e-005
  0
LINE
 8
GROUP0
10
3843.88110492935
20
3742.69637354537
30
1.82657009820397e-005
11
3843.81295658193
21
3742.17873545516
31
1.82692712852039e-005
  0
LINE
 8
GROUP0
10
3844.08090577436
20
3743.17873545516
30
1.82596879111097e-005
11
3843.88110492935
21
3742.69637354537
31
1.82657009820397e-005
  0
LINE
 8
GROUP0
10
3844.39874301955
20
3743.59294901754
30
1.82516417571443e-005
11
3844.08090577436
21
3743.17873545516
31
1.82596879111097e-005
  0
LINE
 8
GROUP0
10
3844.81295658193
20
3743.91078626273
30
1.82421109923447e-005
11
3844.39874301955
21
3743.59294901754
31
1.82516417571443e-005
  0
LINE
 8
GROUP0
10
3845.29531849172
20
3744.11058710774
30
1.82317450662717e-005
11
3844.81295658193
21
3743.91078626273
31
1.82421109923447e-005
  0
LINE
 8
GROUP0
10
3845.81295658193
20
3744.17873545516
30
1.82212503692492e-005
11
3845.29531849172
21
3744.11058710774
31
1.82317450662717e-005
  0
LINE
 8
GROUP0
10
3846.33059467213
20
3744.11058710774
30
1.82113421350161e-005
11
3845.81295658193
21
3744.17873545516
31
1.82212503692492e-005
  0
LINE
 8
GROUP0
10
3846.81295658193
20
3743.91078626273
30
1.82026956214665e-005
11
3846.33059467213
21
3744.11058710774
31
1.82113421350161e-005
  0
LINE
 8
GROUP0
10
3847.2271701443
20
3743.59294901754
30
1.81958999083187e-005
11
3846.81295658193
21
3743.91078626273
31
1.82026956214665e-005
  0
LINE
 8
GROUP0
10
3847.5450073895
20
3743.17873545516
30
1.81914183724652e-005
11
3847.2271701443
21
3743.59294901754
31
1.81958999083187e-005
  0
LINE
 8
GROUP0
10
3847.7448082345
20
3742.69637354537
30
1.81895562019585e-005
11
3847.5450073895
21
3743.17873545516
31
1.81914183724652e-005
  0
LINE
 8
GROUP0
10
3847.81295658193
20
3742.17873545516
30
1.81904404532085e-005
11
3847.7448082345
21
3742.69637354537
31
1.81895562019585e-005
  0
LINE
 8
GROUP0
10
3847.7448082345
20
3741.66109736496
30
1.81940107563727e-005
11
3847.81295658193
21
3742.17873545516
31
1.81904404532085e-005
  0
LINE
 8
GROUP0
10
3847.5450073895
20
3741.17873545516
30
1.82000238273028e-005
11
3847.7448082345
21
3741.66109736496
31
1.81940107563727e-005
  0
LINE
 8
GROUP0
10
3847.2271701443
20
3740.76452189279
30
1.82080699812681e-005
11
3847.5450073895
21
3741.17873545516
31
1.82000238273028e-005
  0
LINE
 8
GROUP0
10
3846.81295658193
20
3740.44668464759
30
1.82176007460677e-005
11
3847.2271701443
21
3740.76452189279
31
1.82080699812681e-005
  0
LINE
 8
GROUP0
10
3846.33059467213
20
3740.24688380258
30
1.82279666721408e-005
11
3846.81295658193
21
3740.44668464759
31
1.82176007460677e-005
  0
LINE
 8
GROUP0
10
3845.81295658193
20
3740.17873545516
30
1.82384613691633e-005
11
3846.33059467213
21
3740.24688380258
31
1.82279666721408e-005
  0
LINE
 8
GROUP0
10
3845.29531849172
20
3740.24688380258
30
1.82483696033964e-005
11
3845.81295658193
21
3740.17873545516
31
1.82384613691633e-005
  0
LINE
 8
GROUP0
10
3844.81295658193
20
3740.44668464759
30
1.82570162071849e-005
11
3845.29531849172
21
3740.24688380258
31
1.82483696033964e-005
  0
LINE
 8
GROUP0
10
3844.39874301955
20
3740.76452189279
30
1.82638118300937e-005
11
3844.81295658193
21
3740.44668464759
31
1.82570162071849e-005
  0
LINE
 8
GROUP0
10
3844.08090577436
20
3741.17873545516
30
1.82682933659473e-005
11
3844.39874301955
21
3740.76452189279
31
1.82638118300937e-005
  0
LINE
 8
GROUP0
10
3843.88110492935
20
3563.69614516383
30
2.00621657282463e-005
11
3843.81295658193
21
3563.17850707363
31
2.00657360314105e-005
  0
LINE
 8
GROUP0
10
3844.08090577436
20
3564.17850707363
30
2.00561526573162e-005
11
3843.88110492935
21
3563.69614516383
31
2.00621657282463e-005
  0
LINE
 8
GROUP0
10
3844.39874301955
20
3564.592720636
30
2.00481065033509e-005
11
3844.08090577436
21
3564.17850707363
31
2.00561526573162e-005
  0
LINE
 8
GROUP0
10
3844.81295658193
20
3564.9105578812
30
2.00385757385513e-005
11
3844.39874301955
21
3564.592720636
31
2.00481065033509e-005
  0
LINE
 8
GROUP0
10
3845.29531849172
20
3565.11035872621
30
2.00282098124782e-005
11
3844.81295658193
21
3564.9105578812
31
2.00385757385513e-005
  0
LINE
 8
GROUP0
10
3845.81295658193
20
3565.17850707363
30
2.00177151154557e-005
11
3845.29531849172
21
3565.11035872621
31
2.00282098124782e-005
  0
LINE
 8
GROUP0
10
3846.33059467213
20
3565.11035872621
30
2.00078068812226e-005
11
3845.81295658193
21
3565.17850707363
31
2.00177151154557e-005
  0
LINE
 8
GROUP0
10
3846.81295658193
20
3564.9105578812
30
1.99991602774341e-005
11
3846.33059467213
21
3565.11035872621
31
2.00078068812226e-005
  0
LINE
 8
GROUP0
10
3847.2271701443
20
3564.592720636
30
1.99923646545253e-005
11
3846.81295658193
21
3564.9105578812
31
1.99991602774341e-005
  0
LINE
 8
GROUP0
10
3847.5450073895
20
3564.17850707363
30
1.99878831186717e-005
11
3847.2271701443
21
3564.592720636
31
1.99923646545253e-005
  0
LINE
 8
GROUP0
10
3847.7448082345
20
3563.69614516383
30
1.9986020948165e-005
11
3847.5450073895
21
3564.17850707363
31
1.99878831186717e-005
  0
LINE
 8
GROUP0
10
3847.81295658193
20
3563.17850707363
30
1.9986905199415e-005
11
3847.7448082345
21
3563.69614516383
31
1.9986020948165e-005
  0
LINE
 8
GROUP0
10
3847.7448082345
20
3562.66086898342
30
1.99904755025793e-005
11
3847.81295658193
21
3563.17850707363
31
1.9986905199415e-005
  0
LINE
 8
GROUP0
10
3847.5450073895
20
3562.17850707363
30
1.99964885735093e-005
11
3847.7448082345
21
3562.66086898342
31
1.99904755025793e-005
  0
LINE
 8
GROUP0
10
3847.2271701443
20
3561.76429351125
30
2.00045347274747e-005
11
3847.5450073895
21
3562.17850707363
31
1.99964885735093e-005
  0
LINE
 8
GROUP0
10
3846.81295658193
20
3561.44645626606
30
2.00140654922742e-005
11
3847.2271701443
21
3561.76429351125
31
2.00045347274747e-005
  0
LINE
 8
GROUP0
10
3846.33059467213
20
3561.24665542105
30
2.00244314183473e-005
11
3846.81295658193
21
3561.44645626606
31
2.00140654922742e-005
  0
LINE
 8
GROUP0
10
3845.81295658193
20
3561.17850707363
30
2.00349261153698e-005
11
3846.33059467213
21
3561.24665542105
31
2.00244314183473e-005
  0
LINE
 8
GROUP0
10
3845.29531849172
20
3561.24665542105
30
2.00448343496029e-005
11
3845.81295658193
21
3561.17850707363
31
2.00349261153698e-005
  0
LINE
 8
GROUP0
10
3844.81295658193
20
3561.44645626606
30
2.00534809533914e-005
11
3845.29531849172
21
3561.24665542105
31
2.00448343496029e-005
  0
LINE
 8
GROUP0
10
3844.39874301955
20
3561.76429351125
30
2.00602765763003e-005
11
3844.81295658193
21
3561.44645626606
31
2.00534809533914e-005
  0
LINE
 8
GROUP0
10
3844.08090577436
20
3562.17850707363
30
2.00647581121538e-005
11
3844.39874301955
21
3561.76429351125
31
2.00602765763003e-005
  0
LINE
 8
GROUP0
10
3843.88110492935
20
3562.66086898342
30
2.00666202826605e-005
11
3844.08090577436
21
3562.17850707363
31
2.00647581121538e-005
  0
LINE
 8
GROUP0
10
3843.81295658193
20
3563.17850707363
30
2.00657360314105e-005
11
3843.88110492935
21
3562.66086898342
31
2.00666202826605e-005
  0
LINE
 8
GROUP0
10
3758.81273292844
20
3476.9105626905
30
1.73668042248332e-005
11
3758.33037101864
21
3477.11036353551
31
1.73728172957632e-005
  0
LINE
 8
GROUP0
10
3759.22694649081
20
3476.59272544531
30
1.73587581611068e-005
11
3758.81273292844
21
3476.9105626905
31
1.73668042248332e-005
  0
LINE
 8
GROUP0
10
3759.544783736
20
3476.17851188294
30
1.73492273060682e-005
11
3759.22694649081
21
3476.59272544531
31
1.73587581611068e-005
  0
LINE
 8
GROUP0
10
3759.74458458101
20
3475.69614997314
30
1.73388613799952e-005
11
3759.544783736
21
3476.17851188294
31
1.73492273060682e-005
  0
LINE
 8
GROUP0
10
3759.81273292844
20
3475.17851188294
30
1.73283666829727e-005
11
3759.74458458101
21
3475.69614997314
31
1.73388613799952e-005
  0
LINE
 8
GROUP0
10
3759.74458458101
20
3474.66087379273
30
1.73184584487396e-005
11
3759.81273292844
21
3475.17851188294
31
1.73283666829727e-005
  0
LINE
 8
GROUP0
10
3759.544783736
20
3474.17851188294
30
1.730981193519e-005
11
3759.74458458101
21
3474.66087379273
31
1.73184584487396e-005
  0
LINE
 8
GROUP0
10
3759.22694649081
20
3473.76429832056
30
1.73030163122812e-005
11
3759.544783736
21
3474.17851188294
31
1.730981193519e-005
  0
LINE
 8
GROUP0
10
3758.81273292844
20
3473.44646107537
30
1.72985346861887e-005
11
3759.22694649081
21
3473.76429832056
31
1.73030163122812e-005
  0
LINE
 8
GROUP0
10
3758.33037101864
20
3473.24666023036
30
1.7296672515682e-005
11
3758.81273292844
21
3473.44646107537
31
1.72985346861887e-005
  0
LINE
 8
GROUP0
10
3757.81273292844
20
3473.17851188294
30
1.7297556766932e-005
11
3758.33037101864
21
3473.24666023036
31
1.7296672515682e-005
  0
LINE
 8
GROUP0
10
3757.29509483823
20
3473.24666023036
30
1.73011270700962e-005
11
3757.81273292844
21
3473.17851188294
31
1.7297556766932e-005
  0
LINE
 8
GROUP0
10
3756.81273292844
20
3473.44646107537
30
1.73071401410263e-005
11
3757.29509483823
21
3473.24666023036
31
1.73011270700962e-005
  0
LINE
 8
GROUP0
10
3756.39851936606
20
3473.76429832056
30
1.73151862949916e-005
11
3756.81273292844
21
3473.44646107537
31
1.73071401410263e-005
  0
LINE
 8
GROUP0
10
3756.08068212087
20
3474.17851188294
30
1.73247170597912e-005
11
3756.39851936606
21
3473.76429832056
31
1.73151862949916e-005
  0
LINE
 8
GROUP0
10
3755.88088127586
20
3474.66087379273
30
1.73350829858643e-005
11
3756.08068212087
21
3474.17851188294
31
1.73247170597912e-005
  0
LINE
 8
GROUP0
10
3755.81273292844
20
3475.17851188294
30
1.73455776828868e-005
11
3755.88088127586
21
3474.66087379273
31
1.73350829858643e-005
  0
LINE
 8
GROUP0
10
3755.88088127586
20
3475.69614997314
30
1.73554859171199e-005
11
3755.81273292844
21
3475.17851188294
31
1.73455776828868e-005
  0
LINE
 8
GROUP0
10
3756.08068212087
20
3476.17851188294
30
1.73641325209084e-005
11
3755.88088127586
21
3475.69614997314
31
1.73554859171199e-005
  0
LINE
 8
GROUP0
10
3756.39851936606
20
3476.59272544531
30
1.73709281438172e-005
11
3756.08068212087
21
3476.17851188294
31
1.73641325209084e-005
  0
LINE
 8
GROUP0
10
3756.81273292844
20
3476.9105626905
30
1.73754096796708e-005
11
3756.39851936606
21
3476.59272544531
31
1.73709281438172e-005
  0
LINE
 8
GROUP0
10
3757.29509483823
20
3477.11036353551
30
1.73772718501775e-005
11
3756.81273292844
21
3476.9105626905
31
1.73754096796708e-005
  0
LINE
 8
GROUP0
10
3757.81273292844
20
3477.17851188294
30
1.73763875989275e-005
11
3757.29509483823
21
3477.11036353551
31
1.73772718501775e-005
  0
LINE
 8
GROUP0
10
3758.33037101864
20
3477.11036353551
30
1.73728172957632e-005
11
3757.81273292844
21
3477.17851188294
31
1.73763875989275e-005
  0
LINE
 8
GROUP0
10
3578.29509483823
20
3477.11036353551
30
1.82701555364539e-005
11
3577.81273292844
21
3476.9105626905
31
1.82682933659473e-005
  0
LINE
 8
GROUP0
10
3578.81273292844
20
3477.17851188294
30
1.82692712852039e-005
11
3578.29509483823
21
3477.11036353551
31
1.82701555364539e-005
  0
LINE
 8
GROUP0
10
3579.33037101864
20
3477.11036353551
30
1.82657009820397e-005
11
3578.81273292844
21
3477.17851188294
31
1.82692712852039e-005
  0
LINE
 8
GROUP0
10
3579.81273292844
20
3476.9105626905
30
1.82596879111097e-005
11
3579.33037101864
21
3477.11036353551
31
1.82657009820397e-005
  0
LINE
 8
GROUP0
10
3580.22694649081
20
3476.59272544531
30
1.82516417571443e-005
11
3579.81273292844
21
3476.9105626905
31
1.82596879111097e-005
  0
LINE
 8
GROUP0
10
3580.544783736
20
3476.17851188294
30
1.82421109923447e-005
11
3580.22694649081
21
3476.59272544531
31
1.82516417571443e-005
  0
LINE
 8
GROUP0
10
3580.74458458101
20
3475.69614997314
30
1.82317450662717e-005
11
3580.544783736
21
3476.17851188294
31
1.82421109923447e-005
  0
LINE
 8
GROUP0
10
3580.81273292844
20
3475.17851188294
30
1.82212503692492e-005
11
3580.74458458101
21
3475.69614997314
31
1.82317450662717e-005
  0
LINE
 8
GROUP0
10
3580.74458458101
20
3474.66087379273
30
1.82113421350161e-005
11
3580.81273292844
21
3475.17851188294
31
1.82212503692492e-005
  0
LINE
 8
GROUP0
10
3580.544783736
20
3474.17851188294
30
1.82026956214665e-005
11
3580.74458458101
21
3474.66087379273
31
1.82113421350161e-005
  0
LINE
 8
GROUP0
10
3580.22694649081
20
3473.76429832056
30
1.81958999083187e-005
11
3580.544783736
21
3474.17851188294
31
1.82026956214665e-005
  0
LINE
 8
GROUP0
10
3579.81273292844
20
3473.44646107537
30
1.81914183724652e-005
11
3580.22694649081
21
3473.76429832056
31
1.81958999083187e-005
  0
LINE
 8
GROUP0
10
3579.33037101864
20
3473.24666023036
30
1.81895562019585e-005
11
3579.81273292844
21
3473.44646107537
31
1.81914183724652e-005
  0
LINE
 8
GROUP0
10
3578.81273292844
20
3473.17851188294
30
1.81904404532085e-005
11
3579.33037101864
21
3473.24666023036
31
1.81895562019585e-005
  0
LINE
 8
GROUP0
10
3578.29509483823
20
3473.24666023036
30
1.81940107563727e-005
11
3578.81273292844
21
3473.17851188294
31
1.81904404532085e-005
  0
LINE
 8
GROUP0
10
3577.81273292844
20
3473.44646107537
30
1.82000238273028e-005
11
3578.29509483823
21
3473.24666023036
31
1.81940107563727e-005
  0
LINE
 8
GROUP0
10
3577.39851936606
20
3473.76429832056
30
1.82080699812681e-005
11
3577.81273292844
21
3473.44646107537
31
1.82000238273028e-005
  0
LINE
 8
GROUP0
10
3577.08068212087
20
3474.17851188294
30
1.82176007460677e-005
11
3577.39851936606
21
3473.76429832056
31
1.82080699812681e-005
  0
LINE
 8
GROUP0
10
3576.88088127586
20
3474.66087379273
30
1.82279666721408e-005
11
3577.08068212087
21
3474.17851188294
31
1.82176007460677e-005
  0
LINE
 8
GROUP0
10
3576.81273292844
20
3475.17851188294
30
1.82384613691633e-005
11
3576.88088127586
21
3474.66087379273
31
1.82279666721408e-005
  0
LINE
 8
GROUP0
10
3576.88088127586
20
3475.69614997314
30
1.82483696033964e-005
11
3576.81273292844
21
3475.17851188294
31
1.82384613691633e-005
  0
LINE
 8
GROUP0
10
3577.08068212087
20
3476.17851188294
30
1.82570162071849e-005
11
3576.88088127586
21
3475.69614997314
31
1.82483696033964e-005
  0
LINE
 8
GROUP0
10
3577.39851936606
20
3476.59272544531
30
1.82638118300937e-005
11
3577.08068212087
21
3476.17851188294
31
1.82570162071849e-005
  0
LINE
 8
GROUP0
10
3577.81273292844
20
3476.9105626905
30
1.82682933659473e-005
11
3577.39851936606
21
3476.59272544531
31
1.82638118300937e-005
  0
LINE
 8
GROUP0
10
3401.74435619948
20
3475.69614997314
30
2.00282098124782e-005
11
3401.54455535447
21
3476.17851188294
31
2.00385757385513e-005
  0
LINE
 8
GROUP0
10
3401.8125045469
20
3475.17851188294
30
2.00177151154557e-005
11
3401.74435619948
21
3475.69614997314
31
2.00282098124782e-005
  0
LINE
 8
GROUP0
10
3401.74435619948
20
3474.66087379273
30
2.00078068812226e-005
11
3401.8125045469
21
3475.17851188294
31
2.00177151154557e-005
  0
LINE
 8
GROUP0
10
3401.54455535447
20
3474.17851188294
30
1.99991602774341e-005
11
3401.74435619948
21
3474.66087379273
31
2.00078068812226e-005
  0
LINE
 8
GROUP0
10
3401.22671810927
20
3473.76429832056
30
1.99923646545253e-005
11
3401.54455535447
21
3474.17851188294
31
1.99991602774341e-005
  0
LINE
 8
GROUP0
10
3400.8125045469
20
3473.44646107537
30
1.99878831186717e-005
11
3401.22671810927
21
3473.76429832056
31
1.99923646545253e-005
  0
LINE
 8
GROUP0
10
3400.3301426371
20
3473.24666023036
30
1.9986020948165e-005
11
3400.8125045469
21
3473.44646107537
31
1.99878831186717e-005
  0
LINE
 8
GROUP0
10
3399.8125045469
20
3473.17851188294
30
1.9986905199415e-005
11
3400.3301426371
21
3473.24666023036
31
1.9986020948165e-005
  0
LINE
 8
GROUP0
10
3399.29486645669
20
3473.24666023036
30
1.99904755025793e-005
11
3399.8125045469
21
3473.17851188294
31
1.9986905199415e-005
  0
LINE
 8
GROUP0
10
3398.8125045469
20
3473.44646107537
30
1.99964885735093e-005
11
3399.29486645669
21
3473.24666023036
31
1.99904755025793e-005
  0
LINE
 8
GROUP0
10
3398.39829098453
20
3473.76429832056
30
2.00045347274747e-005
11
3398.8125045469
21
3473.44646107537
31
1.99964885735093e-005
  0
LINE
 8
GROUP0
10
3398.08045373933
20
3474.17851188294
30
2.00140654922742e-005
11
3398.39829098453
21
3473.76429832056
31
2.00045347274747e-005
  0
LINE
 8
GROUP0
10
3397.88065289432
20
3474.66087379273
30
2.00244314183473e-005
11
3398.08045373933
21
3474.17851188294
31
2.00140654922742e-005
  0
LINE
 8
GROUP0
10
3397.8125045469
20
3475.17851188294
30
2.00349261153698e-005
11
3397.88065289432
21
3474.66087379273
31
2.00244314183473e-005
  0
LINE
 8
GROUP0
10
3397.88065289432
20
3475.69614997314
30
2.00448343496029e-005
11
3397.8125045469
21
3475.17851188294
31
2.00349261153698e-005
  0
LINE
 8
GROUP0
10
3398.08045373933
20
3476.17851188294
30
2.00534809533914e-005
11
3397.88065289432
21
3475.69614997314
31
2.00448343496029e-005
  0
LINE
 8
GROUP0
10
3398.39829098453
20
3476.59272544531
30
2.00602765763003e-005
11
3398.08045373933
21
3476.17851188294
31
2.00534809533914e-005
  0
LINE
 8
GROUP0
10
3398.8125045469
20
3476.9105626905
30
2.00647581121538e-005
11
3398.39829098453
21
3476.59272544531
31
2.00602765763003e-005
  0
LINE
 8
GROUP0
10
3399.29486645669
20
3477.11036353551
30
2.00666202826605e-005
11
3398.8125045469
21
3476.9105626905
31
2.00647581121538e-005
  0
LINE
 8
GROUP0
10
3399.8125045469
20
3477.17851188294
30
2.00657360314105e-005
11
3399.29486645669
21
3477.11036353551
31
2.00666202826605e-005
  0
LINE
 8
GROUP0
10
3400.3301426371
20
3477.11036353551
30
2.00621657282463e-005
11
3399.8125045469
21
3477.17851188294
31
2.00657360314105e-005
  0
LINE
 8
GROUP0
10
3400.8125045469
20
3476.9105626905
30
2.00561526573162e-005
11
3400.3301426371
21
3477.11036353551
31
2.00621657282463e-005
  0
LINE
 8
GROUP0
10
3401.22671810927
20
3476.59272544531
30
2.00481065033509e-005
11
3400.8125045469
21
3476.9105626905
31
2.00561526573162e-005
  0
LINE
 8
GROUP0
10
3401.54455535447
20
3476.17851188294
30
2.00385757385513e-005
11
3401.22671810927
21
3476.59272544531
31
2.00481065033509e-005
  0
LINE
 8
GROUP0
10
3310.08045854864
20
3564.17873553643
30
1.73071401410263e-005
11
3309.88065770363
21
3563.69637362663
31
1.73011270700962e-005
  0
LINE
 8
GROUP0
10
3310.39829579384
20
3564.5929490988
30
1.73151862949916e-005
11
3310.08045854864
21
3564.17873553643
31
1.73071401410263e-005
  0
LINE
 8
GROUP0
10
3310.81250935621
20
3564.910786344
30
1.73247170597912e-005
11
3310.39829579384
21
3564.5929490988
31
1.73151862949916e-005
  0
LINE
 8
GROUP0
10
3311.294871266
20
3565.110587189
30
1.73350829858643e-005
11
3310.81250935621
21
3564.910786344
31
1.73247170597912e-005
  0
LINE
 8
GROUP0
10
3311.81250935621
20
3565.17873553643
30
1.73455776828868e-005
11
3311.294871266
21
3565.110587189
31
1.73350829858643e-005
  0
LINE
 8
GROUP0
10
3312.33014744641
20
3565.110587189
30
1.73554859171199e-005
11
3311.81250935621
21
3565.17873553643
31
1.73455776828868e-005
  0
LINE
 8
GROUP0
10
3312.81250935621
20
3564.910786344
30
1.73641325209084e-005
11
3312.33014744641
21
3565.110587189
31
1.73554859171199e-005
  0
LINE
 8
GROUP0
10
3313.22672291858
20
3564.5929490988
30
1.73709281438172e-005
11
3312.81250935621
21
3564.910786344
31
1.73641325209084e-005
  0
LINE
 8
GROUP0
10
3313.54456016378
20
3564.17873553643
30
1.73754096796708e-005
11
3313.22672291858
21
3564.5929490988
31
1.73709281438172e-005
  0
LINE
 8
GROUP0
10
3313.74436100879
20
3563.69637362663
30
1.73772718501775e-005
11
3313.54456016378
21
3564.17873553643
31
1.73754096796708e-005
  0
LINE
 8
GROUP0
10
3313.81250935621
20
3563.17873553643
30
1.73763875989275e-005
11
3313.74436100879
21
3563.69637362663
31
1.73772718501775e-005
  0
LINE
 8
GROUP0
10
3313.74436100879
20
3562.66109744622
30
1.73728172957632e-005
11
3313.81250935621
21
3563.17873553643
31
1.73763875989275e-005
  0
LINE
 8
GROUP0
10
3313.54456016378
20
3562.17873553643
30
1.73668042248332e-005
11
3313.74436100879
21
3562.66109744622
31
1.73728172957632e-005
  0
LINE
 8
GROUP0
10
3313.22672291858
20
3561.76452197405
30
1.73587581611068e-005
11
3313.54456016378
21
3562.17873553643
31
1.73668042248332e-005
  0
LINE
 8
GROUP0
10
3312.81250935621
20
3561.44668472886
30
1.73492273060682e-005
11
3313.22672291858
21
3561.76452197405
31
1.73587581611068e-005
  0
LINE
 8
GROUP0
10
3312.33014744641
20
3561.24688388385
30
1.73388613799952e-005
11
3312.81250935621
21
3561.44668472886
31
1.73492273060682e-005
  0
LINE
 8
GROUP0
10
3311.81250935621
20
3561.17873553643
30
1.73283666829727e-005
11
3312.33014744641
21
3561.24688388385
31
1.73388613799952e-005
  0
LINE
 8
GROUP0
10
3311.294871266
20
3561.24688388385
30
1.73184584487396e-005
11
3311.81250935621
21
3561.17873553643
31
1.73283666829727e-005
  0
LINE
 8
GROUP0
10
3310.81250935621
20
3561.44668472886
30
1.730981193519e-005
11
3311.294871266
21
3561.24688388385
31
1.73184584487396e-005
  0
LINE
 8
GROUP0
10
3310.39829579384
20
3561.76452197405
30
1.73030163122812e-005
11
3310.81250935621
21
3561.44668472886
31
1.730981193519e-005
  0
LINE
 8
GROUP0
10
3310.08045854864
20
3562.17873553643
30
1.72985346861887e-005
11
3310.39829579384
21
3561.76452197405
31
1.73030163122812e-005
  0
LINE
 8
GROUP0
10
3309.88065770363
20
3562.66109744622
30
1.7296672515682e-005
11
3310.08045854864
21
3562.17873553643
31
1.72985346861887e-005
  0
LINE
 8
GROUP0
10
3309.81250935621
20
3563.17873553643
30
1.7297556766932e-005
11
3309.88065770363
21
3562.66109744622
31
1.7296672515682e-005
  0
LINE
 8
GROUP0
10
3309.88065770363
20
3563.69637362663
30
1.73011270700962e-005
11
3309.81250935621
21
3563.17873553643
31
1.7297556766932e-005
  0
LINE
 8
GROUP0
10
3312.81250935621
20
3740.44668472886
30
1.82421109923447e-005
11
3313.22672291858
21
3740.76452197405
31
1.82516417571443e-005
  0
LINE
 8
GROUP0
10
3312.33014744641
20
3740.24688388385
30
1.82317450662717e-005
11
3312.81250935621
21
3740.44668472886
31
1.82421109923447e-005
  0
LINE
 8
GROUP0
10
3311.81250935621
20
3740.17873553643
30
1.82212503692492e-005
11
3312.33014744641
21
3740.24688388385
31
1.82317450662717e-005
  0
LINE
 8
GROUP0
10
3311.294871266
20
3740.24688388385
30
1.82113421350161e-005
11
3311.81250935621
21
3740.17873553643
31
1.82212503692492e-005
  0
LINE
 8
GROUP0
10
3310.81250935621
20
3740.44668472886
30
1.82026956214665e-005
11
3311.294871266
21
3740.24688388385
31
1.82113421350161e-005
  0
LINE
 8
GROUP0
10
3310.39829579384
20
3740.76452197405
30
1.81958999083187e-005
11
3310.81250935621
21
3740.44668472886
31
1.82026956214665e-005
  0
LINE
 8
GROUP0
10
3310.08045854864
20
3741.17873553643
30
1.81914183724652e-005
11
3310.39829579384
21
3740.76452197405
31
1.81958999083187e-005
  0
LINE
 8
GROUP0
10
3309.88065770363
20
3741.66109744622
30
1.81895562019585e-005
11
3310.08045854864
21
3741.17873553643
31
1.81914183724652e-005
  0
LINE
 8
GROUP0
10
3309.81250935621
20
3742.17873553643
30
1.81904404532085e-005
11
3309.88065770363
21
3741.66109744622
31
1.81895562019585e-005
  0
LINE
 8
GROUP0
10
3309.88065770363
20
3742.69637362663
30
1.81940107563727e-005
11
3309.81250935621
21
3742.17873553643
31
1.81904404532085e-005
  0
LINE
 8
GROUP0
10
3310.08045854864
20
3743.17873553643
30
1.82000238273028e-005
11
3309.88065770363
21
3742.69637362663
31
1.81940107563727e-005
  0
LINE
 8
GROUP0
10
3310.39829579384
20
3743.5929490988
30
1.82080699812681e-005
11
3310.08045854864
21
3743.17873553643
31
1.82000238273028e-005
  0
LINE
 8
GROUP0
10
3310.81250935621
20
3743.910786344
30
1.82176007460677e-005
11
3310.39829579384
21
3743.5929490988
31
1.82080699812681e-005
  0
LINE
 8
GROUP0
10
3311.294871266
20
3744.110587189
30
1.82279666721408e-005
11
3310.81250935621
21
3743.910786344
31
1.82176007460677e-005
  0
LINE
 8
GROUP0
10
3311.81250935621
20
3744.17873553643
30
1.82384613691633e-005
11
3311.294871266
21
3744.110587189
31
1.82279666721408e-005
  0
LINE
 8
GROUP0
10
3312.33014744641
20
3744.110587189
30
1.82483696033964e-005
11
3311.81250935621
21
3744.17873553643
31
1.82384613691633e-005
  0
LINE
 8
GROUP0
10
3312.81250935621
20
3743.910786344
30
1.82570162071849e-005
11
3312.33014744641
21
3744.110587189
31
1.82483696033964e-005
  0
LINE
 8
GROUP0
10
3313.22672291858
20
3743.5929490988
30
1.82638118300937e-005
11
3312.81250935621
21
3743.910786344
31
1.82570162071849e-005
  0
LINE
 8
GROUP0
10
3313.54456016378
20
3743.17873553643
30
1.82682933659473e-005
11
3313.22672291858
21
3743.5929490988
31
1.82638118300937e-005
  0
LINE
 8
GROUP0
10
3313.74436100879
20
3742.69637362663
30
1.82701555364539e-005
11
3313.54456016378
21
3743.17873553643
31
1.82682933659473e-005
  0
LINE
 8
GROUP0
10
3313.81250935621
20
3742.17873553643
30
1.82692712852039e-005
11
3313.74436100879
21
3742.69637362663
31
1.82701555364539e-005
  0
LINE
 8
GROUP0
10
3313.74436100879
20
3741.66109744622
30
1.82657009820397e-005
11
3313.81250935621
21
3742.17873553643
31
1.82692712852039e-005
  0
LINE
 8
GROUP0
10
3313.54456016378
20
3741.17873553643
30
1.82596879111097e-005
11
3313.74436100879
21
3741.66109744622
31
1.82657009820397e-005
  0
LINE
 8
GROUP0
10
3313.22672291858
20
3740.76452197405
30
1.82516417571443e-005
11
3313.54456016378
21
3741.17873553643
31
1.82596879111097e-005
  0
LINE
 8
GROUP0
10
3313.54456016378
20
3920.17896391796
30
2.00561526573162e-005
11
3313.74436100879
21
3920.66132582776
31
2.00621657282463e-005
  0
LINE
 8
GROUP0
10
3313.22672291858
20
3919.76475035559
30
2.00481065033509e-005
11
3313.54456016378
21
3920.17896391796
31
2.00561526573162e-005
  0
LINE
 8
GROUP0
10
3312.81250935621
20
3919.44691311039
30
2.00385757385513e-005
11
3313.22672291858
21
3919.76475035559
31
2.00481065033509e-005
  0
LINE
 8
GROUP0
10
3312.33014744641
20
3919.24711226539
30
2.00282098124782e-005
11
3312.81250935621
21
3919.44691311039
31
2.00385757385513e-005
  0
LINE
 8
GROUP0
10
3311.81250935621
20
3919.17896391796
30
2.00177151154557e-005
11
3312.33014744641
21
3919.24711226539
31
2.00282098124782e-005
  0
LINE
 8
GROUP0
10
3311.294871266
20
3919.24711226539
30
2.00078068812226e-005
11
3311.81250935621
21
3919.17896391796
31
2.00177151154557e-005
  0
LINE
 8
GROUP0
10
3310.81250935621
20
3919.44691311039
30
1.99991602774341e-005
11
3311.294871266
21
3919.24711226539
31
2.00078068812226e-005
  0
LINE
 8
GROUP0
10
3310.39829579384
20
3919.76475035559
30
1.99923646545253e-005
11
3310.81250935621
21
3919.44691311039
31
1.99991602774341e-005
  0
LINE
 8
GROUP0
10
3310.08045854864
20
3920.17896391796
30
1.99878831186717e-005
11
3310.39829579384
21
3919.76475035559
31
1.99923646545253e-005
  0
LINE
 8
GROUP0
10
3309.88065770363
20
3920.66132582776
30
1.9986020948165e-005
11
3310.08045854864
21
3920.17896391796
31
1.99878831186717e-005
  0
LINE
 8
GROUP0
10
3309.81250935621
20
3921.17896391796
30
1.9986905199415e-005
11
3309.88065770363
21
3920.66132582776
31
1.9986020948165e-005
  0
LINE
 8
GROUP0
10
3309.88065770363
20
3921.69660200817
30
1.99904755025793e-005
11
3309.81250935621
21
3921.17896391796
31
1.9986905199415e-005
  0
LINE
 8
GROUP0
10
3310.08045854864
20
3922.17896391796
30
1.99964885735093e-005
11
3309.88065770363
21
3921.69660200817
31
1.99904755025793e-005
  0
LINE
 8
GROUP0
10
3310.39829579384
20
3922.59317748034
30
2.00045347274747e-005
11
3310.08045854864
21
3922.17896391796
31
1.99964885735093e-005
  0
LINE
 8
GROUP0
10
3310.81250935621
20
3922.91101472553
30
2.00140654922742e-005
11
3310.39829579384
21
3922.59317748034
31
2.00045347274747e-005
  0
LINE
 8
GROUP0
10
3311.294871266
20
3923.11081557054
30
2.00244314183473e-005
11
3310.81250935621
21
3922.91101472553
31
2.00140654922742e-005
  0
LINE
 8
GROUP0
10
3311.81250935621
20
3923.17896391796
30
2.00349261153698e-005
11
3311.294871266
21
3923.11081557054
31
2.00244314183473e-005
  0
LINE
 8
GROUP0
10
3312.33014744641
20
3923.11081557054
30
2.00448343496029e-005
11
3311.81250935621
21
3923.17896391796
31
2.00349261153698e-005
  0
LINE
 8
GROUP0
10
3312.81250935621
20
3922.91101472553
30
2.00534809533914e-005
11
3312.33014744641
21
3923.11081557054
31
2.00448343496029e-005
  0
LINE
 8
GROUP0
10
3313.22672291858
20
3922.59317748034
30
2.00602765763003e-005
11
3312.81250935621
21
3922.91101472553
31
2.00534809533914e-005
  0
LINE
 8
GROUP0
10
3313.54456016378
20
3922.17896391796
30
2.00647581121538e-005
11
3313.22672291858
21
3922.59317748034
31
2.00602765763003e-005
  0
LINE
 8
GROUP0
10
3313.74436100879
20
3921.69660200817
30
2.00666202826605e-005
11
3313.54456016378
21
3922.17896391796
31
2.00647581121538e-005
  0
LINE
 8
GROUP0
10
3313.81250935621
20
3921.17896391796
30
2.00657360314105e-005
11
3313.74436100879
21
3921.69660200817
31
2.00666202826605e-005
  0
LINE
 8
GROUP0
10
3313.74436100879
20
3920.66132582776
30
2.00621657282463e-005
11
3313.81250935621
21
3921.17896391796
31
2.00657360314105e-005
  0
LINE
 8
GROUP0
10
3400.8127330097
20
4007.44690830109
30
1.73754096796708e-005
11
3401.22694657207
21
4007.76474554628
31
1.73709281438172e-005
  0
LINE
 8
GROUP0
10
3400.33037109991
20
4007.24710745608
30
1.73772718501775e-005
11
3400.8127330097
21
4007.44690830109
31
1.73754096796708e-005
  0
LINE
 8
GROUP0
10
3399.8127330097
20
4007.17895910865
30
1.73763875989275e-005
11
3400.33037109991
21
4007.24710745608
31
1.73772718501775e-005
  0
LINE
 8
GROUP0
10
3399.2950949195
20
4007.24710745608
30
1.73728172957632e-005
11
3399.8127330097
21
4007.17895910865
31
1.73763875989275e-005
  0
LINE
 8
GROUP0
10
3398.8127330097
20
4007.44690830109
30
1.73668042248332e-005
11
3399.2950949195
21
4007.24710745608
31
1.73728172957632e-005
  0
LINE
 8
GROUP0
10
3398.39851944733
20
4007.76474554628
30
1.73587581611068e-005
11
3398.8127330097
21
4007.44690830109
31
1.73668042248332e-005
  0
LINE
 8
GROUP0
10
3398.08068220213
20
4008.17895910865
30
1.73492273060682e-005
11
3398.39851944733
21
4007.76474554628
31
1.73587581611068e-005
  0
LINE
 8
GROUP0
10
3397.88088135712
20
4008.66132101845
30
1.73388613799952e-005
11
3398.08068220213
21
4008.17895910865
31
1.73492273060682e-005
  0
LINE
 8
GROUP0
10
3397.8127330097
20
4009.17895910865
30
1.73283666829727e-005
11
3397.88088135712
21
4008.66132101845
31
1.73388613799952e-005
  0
LINE
 8
GROUP0
10
3397.88088135712
20
4009.69659719886
30
1.73184584487396e-005
11
3397.8127330097
21
4009.17895910865
31
1.73283666829727e-005
  0
LINE
 8
GROUP0
10
3398.08068220213
20
4010.17895910865
30
1.730981193519e-005
11
3397.88088135712
21
4009.69659719886
31
1.73184584487396e-005
  0
LINE
 8
GROUP0
10
3398.39851944733
20
4010.59317267103
30
1.73030163122812e-005
11
3398.08068220213
21
4010.17895910865
31
1.730981193519e-005
  0
LINE
 8
GROUP0
10
3398.8127330097
20
4010.91100991622
30
1.72985346861887e-005
11
3398.39851944733
21
4010.59317267103
31
1.73030163122812e-005
  0
LINE
 8
GROUP0
10
3399.2950949195
20
4011.11081076123
30
1.7296672515682e-005
11
3398.8127330097
21
4010.91100991622
31
1.72985346861887e-005
  0
LINE
 8
GROUP0
10
3399.8127330097
20
4011.17895910865
30
1.7297556766932e-005
11
3399.2950949195
21
4011.11081076123
31
1.7296672515682e-005
  0
LINE
 8
GROUP0
10
3400.33037109991
20
4011.11081076123
30
1.73011270700962e-005
11
3399.8127330097
21
4011.17895910865
31
1.7297556766932e-005
  0
LINE
 8
GROUP0
10
3400.8127330097
20
4010.91100991622
30
1.73071401410263e-005
11
3400.33037109991
21
4011.11081076123
31
1.73011270700962e-005
  0
LINE
 8
GROUP0
10
3401.22694657207
20
4010.59317267103
30
1.73151862949916e-005
11
3400.8127330097
21
4010.91100991622
31
1.73071401410263e-005
  0
LINE
 8
GROUP0
10
3401.54478381727
20
4010.17895910865
30
1.73247170597912e-005
11
3401.22694657207
21
4010.59317267103
31
1.73151862949916e-005
  0
LINE
 8
GROUP0
10
3401.74458466228
20
4009.69659719886
30
1.73350829858643e-005
11
3401.54478381727
21
4010.17895910865
31
1.73247170597912e-005
  0
LINE
 8
GROUP0
10
3401.8127330097
20
4009.17895910865
30
1.73455776828868e-005
11
3401.74458466228
21
4009.69659719886
31
1.73350829858643e-005
  0
LINE
 8
GROUP0
10
3401.74458466228
20
4008.66132101845
30
1.73554859171199e-005
11
3401.8127330097
21
4009.17895910865
31
1.73455776828868e-005
  0
LINE
 8
GROUP0
10
3401.54478381727
20
4008.17895910865
30
1.73641325209084e-005
11
3401.74458466228
21
4008.66132101845
31
1.73554859171199e-005
  0
LINE
 8
GROUP0
10
3401.22694657207
20
4007.76474554628
30
1.73709281438172e-005
11
3401.54478381727
21
4008.17895910865
31
1.73641325209084e-005
  0
LINE
 8
GROUP0
10
3577.08068220213
20
4010.17895910865
30
1.82026956214665e-005
11
3576.88088135712
21
4009.69659719886
31
1.82113421350161e-005
  0
LINE
 8
GROUP0
10
3577.39851944733
20
4010.59317267103
30
1.81958999083187e-005
11
3577.08068220213
21
4010.17895910865
31
1.82026956214665e-005
  0
LINE
 8
GROUP0
10
3577.8127330097
20
4010.91100991622
30
1.81914183724652e-005
11
3577.39851944733
21
4010.59317267103
31
1.81958999083187e-005
  0
LINE
 8
GROUP0
10
3578.29509491949
20
4011.11081076123
30
1.81895562019585e-005
11
3577.8127330097
21
4010.91100991622
31
1.81914183724652e-005
  0
LINE
 8
GROUP0
10
3578.8127330097
20
4011.17895910865
30
1.81904404532085e-005
11
3578.29509491949
21
4011.11081076123
31
1.81895562019585e-005
  0
LINE
 8
GROUP0
10
3579.3303710999
20
4011.11081076123
30
1.81940107563727e-005
11
3578.8127330097
21
4011.17895910865
31
1.81904404532085e-005
  0
LINE
 8
GROUP0
10
3579.8127330097
20
4010.91100991622
30
1.82000238273028e-005
11
3579.3303710999
21
4011.11081076123
31
1.81940107563727e-005
  0
LINE
 8
GROUP0
10
3580.22694657207
20
4010.59317267103
30
1.82080699812681e-005
11
3579.8127330097
21
4010.91100991622
31
1.82000238273028e-005
  0
LINE
 8
GROUP0
10
3580.54478381727
20
4010.17895910865
30
1.82176007460677e-005
11
3580.22694657207
21
4010.59317267103
31
1.82080699812681e-005
  0
LINE
 8
GROUP0
10
3580.74458466228
20
4009.69659719886
30
1.82279666721408e-005
11
3580.54478381727
21
4010.17895910865
31
1.82176007460677e-005
  0
LINE
 8
GROUP0
10
3580.8127330097
20
4009.17895910865
30
1.82384613691633e-005
11
3580.74458466228
21
4009.69659719886
31
1.82279666721408e-005
  0
LINE
 8
GROUP0
10
3580.74458466228
20
4008.66132101845
30
1.82483696033964e-005
11
3580.8127330097
21
4009.17895910865
31
1.82384613691633e-005
  0
LINE
 8
GROUP0
10
3580.54478381727
20
4008.17895910865
30
1.82570162071849e-005
11
3580.74458466228
21
4008.66132101845
31
1.82483696033964e-005
  0
LINE
 8
GROUP0
10
3580.22694657207
20
4007.76474554628
30
1.82638118300937e-005
11
3580.54478381727
21
4008.17895910865
31
1.82570162071849e-005
  0
LINE
 8
GROUP0
10
3579.8127330097
20
4007.44690830108
30
1.82682933659473e-005
11
3580.22694657207
21
4007.76474554628
31
1.82638118300937e-005
  0
LINE
 8
GROUP0
10
3579.3303710999
20
4007.24710745608
30
1.82701555364539e-005
11
3579.8127330097
21
4007.44690830108
31
1.82682933659473e-005
  0
LINE
 8
GROUP0
10
3578.8127330097
20
4007.17895910865
30
1.82692712852039e-005
11
3579.3303710999
21
4007.24710745608
31
1.82701555364539e-005
  0
LINE
 8
GROUP0
10
3578.29509491949
20
4007.24710745608
30
1.82657009820397e-005
11
3578.8127330097
21
4007.17895910865
31
1.82692712852039e-005
  0
LINE
 8
GROUP0
10
3577.8127330097
20
4007.44690830108
30
1.82596879111097e-005
11
3578.29509491949
21
4007.24710745608
31
1.82657009820397e-005
  0
LINE
 8
GROUP0
10
3577.39851944733
20
4007.76474554628
30
1.82516417571443e-005
11
3577.8127330097
21
4007.44690830108
31
1.82596879111097e-005
  0
LINE
 8
GROUP0
10
3577.08068220213
20
4008.17895910865
30
1.82421109923447e-005
11
3577.39851944733
21
4007.76474554628
31
1.82516417571443e-005
  0
LINE
 8
GROUP0
10
3576.88088135712
20
4008.66132101845
30
1.82317450662717e-005
11
3577.08068220213
21
4008.17895910865
31
1.82421109923447e-005
  0
LINE
 8
GROUP0
10
3576.8127330097
20
4009.17895910865
30
1.82212503692492e-005
11
3576.88088135712
21
4008.66132101845
31
1.82317450662717e-005
  0
LINE
 8
GROUP0
10
3576.88088135712
20
4009.69659719886
30
1.82113421350161e-005
11
3576.8127330097
21
4009.17895910865
31
1.82212503692492e-005
  0
LINE
 8
GROUP0
10
3757.81296139124
20
4007.17895910865
30
2.00657360314105e-005
11
3758.33059948144
21
4007.24710745608
31
2.00666202826605e-005
  0
LINE
 8
GROUP0
10
3757.29532330103
20
4007.24710745608
30
2.00621657282463e-005
11
3757.81296139124
21
4007.17895910865
31
2.00657360314105e-005
  0
LINE
 8
GROUP0
10
3756.81296139124
20
4007.44690830108
30
2.00561526573162e-005
11
3757.29532330103
21
4007.24710745608
31
2.00621657282463e-005
  0
LINE
 8
GROUP0
10
3756.39874782886
20
4007.76474554628
30
2.00481065033509e-005
11
3756.81296139124
21
4007.44690830108
31
2.00561526573162e-005
  0
LINE
 8
GROUP0
10
3756.08091058367
20
4008.17895910865
30
2.00385757385513e-005
11
3756.39874782886
21
4007.76474554628
31
2.00481065033509e-005
  0
LINE
 8
GROUP0
10
3755.88110973866
20
4008.66132101845
30
2.00282098124782e-005
11
3756.08091058367
21
4008.17895910865
31
2.00385757385513e-005
  0
LINE
 8
GROUP0
10
3755.81296139124
20
4009.17895910865
30
2.00177151154557e-005
11
3755.88110973866
21
4008.66132101845
31
2.00282098124782e-005
  0
LINE
 8
GROUP0
10
3755.88110973866
20
4009.69659719886
30
2.00078068812226e-005
11
3755.81296139124
21
4009.17895910865
31
2.00177151154557e-005
  0
LINE
 8
GROUP0
10
3756.08091058367
20
4010.17895910865
30
1.99991602774341e-005
11
3755.88110973866
21
4009.69659719886
31
2.00078068812226e-005
  0
LINE
 8
GROUP0
10
3756.39874782886
20
4010.59317267103
30
1.99923646545253e-005
11
3756.08091058367
21
4010.17895910865
31
1.99991602774341e-005
  0
LINE
 8
GROUP0
10
3756.81296139124
20
4010.91100991622
30
1.99878831186717e-005
11
3756.39874782886
21
4010.59317267103
31
1.99923646545253e-005
  0
LINE
 8
GROUP0
10
3757.29532330103
20
4011.11081076123
30
1.9986020948165e-005
11
3756.81296139124
21
4010.91100991622
31
1.99878831186717e-005
  0
LINE
 8
GROUP0
10
3757.81296139124
20
4011.17895910865
30
1.9986905199415e-005
11
3757.29532330103
21
4011.11081076123
31
1.9986020948165e-005
  0
LINE
 8
GROUP0
10
3758.33059948144
20
4011.11081076123
30
1.99904755025793e-005
11
3757.81296139124
21
4011.17895910865
31
1.9986905199415e-005
  0
LINE
 8
GROUP0
10
3758.81296139124
20
4010.91100991622
30
1.99964885735093e-005
11
3758.33059948144
21
4011.11081076123
31
1.99904755025793e-005
  0
LINE
 8
GROUP0
10
3759.22717495361
20
4010.59317267103
30
2.00045347274747e-005
11
3758.81296139124
21
4010.91100991622
31
1.99964885735093e-005
  0
LINE
 8
GROUP0
10
3759.54501219881
20
4010.17895910865
30
2.00140654922742e-005
11
3759.22717495361
21
4010.59317267103
31
2.00045347274747e-005
  0
LINE
 8
GROUP0
10
3759.74481304381
20
4009.69659719886
30
2.00244314183473e-005
11
3759.54501219881
21
4010.17895910865
31
2.00140654922742e-005
  0
LINE
 8
GROUP0
10
3759.81296139124
20
4009.17895910865
30
2.00349261153698e-005
11
3759.74481304381
21
4009.69659719886
31
2.00244314183473e-005
  0
LINE
 8
GROUP0
10
3759.74481304381
20
4008.66132101845
30
2.00448343496029e-005
11
3759.81296139124
21
4009.17895910865
31
2.00349261153698e-005
  0
LINE
 8
GROUP0
10
3759.54501219881
20
4008.17895910865
30
2.00534809533914e-005
11
3759.74481304381
21
4008.66132101845
31
2.00448343496029e-005
  0
LINE
 8
GROUP0
10
3759.22717495361
20
4007.76474554628
30
2.00602765763003e-005
11
3759.54501219881
21
4008.17895910865
31
2.00534809533914e-005
  0
LINE
 8
GROUP0
10
3758.81296139124
20
4007.44690830108
30
2.00647581121538e-005
11
3759.22717495361
21
4007.76474554628
31
2.00602765763003e-005
  0
LINE
 8
GROUP0
10
3758.33059948144
20
4007.24710745608
30
2.00666202826605e-005
11
3758.81296139124
21
4007.44690830108
31
2.00647581121538e-005
  0
LINE
 8
GROUP0
10
3581.31271712855
20
3667.17873577619
30
1.21358842517461e-005
11
3581.22753169409
21
3666.53168816346
31
1.21234943567694e-005
  0
LINE
 8
GROUP0
10
3581.22753169409
20
3666.53168816346
30
1.21234943567694e-005
11
3580.97778063766
21
3665.92873577628
31
1.21113657937266e-005
  0
LINE
 8
GROUP0
10
3580.97778063766
20
3665.92873577628
30
1.21113657937266e-005
11
3580.58048408102
21
3665.41096882343
31
1.2100325241432e-005
  0
LINE
 8
GROUP0
10
3580.58048408102
20
3665.41096882343
30
1.2100325241432e-005
11
3580.06271712794
21
3665.01367226708
31
1.20911249315847e-005
  0
LINE
 8
GROUP0
10
3580.06271712794
20
3665.01367226708
30
1.20911249315847e-005
11
3579.45976474062
21
3664.76392121099
31
1.20843918442526e-005
  0
LINE
 8
GROUP0
10
3579.45976474062
20
3664.76392121099
30
1.20843918442526e-005
11
3578.81271712784
21
3664.67873577689
31
1.20805850248595e-005
  0
LINE
 8
GROUP0
10
3578.81271712784
20
3664.67873577689
30
1.20805850248595e-005
11
3578.16566951511
21
3664.76392121135
31
1.20799637298441e-005
  0
LINE
 8
GROUP0
10
3578.16566951511
20
3664.76392121135
30
1.20799637298441e-005
11
3577.56271712794
21
3665.01367226778
31
1.20825703715022e-005
  0
LINE
 8
GROUP0
10
3577.56271712794
20
3665.01367226778
30
1.20825703715022e-005
11
3577.04495017508
21
3665.41096882443
31
1.20882272693856e-005
  0
LINE
 8
GROUP0
10
3577.04495017508
20
3665.41096882443
30
1.20882272693856e-005
11
3576.64765361873
21
3665.9287357775
31
1.20965489227964e-005
  0
LINE
 8
GROUP0
10
3576.64765361873
20
3665.9287357775
30
1.20965489227964e-005
11
3576.39790256264
21
3666.53168816482
31
1.21069681800756e-005
  0
LINE
 8
GROUP0
10
3576.39790256264
20
3666.53168816482
30
1.21069681800756e-005
11
3576.31271712855
21
3667.1787357776
31
1.2118775131581e-005
  0
LINE
 8
GROUP0
10
3576.31271712855
20
3667.1787357776
30
1.2118775131581e-005
11
3576.39790256301
21
3667.82578339033
31
1.21311650265576e-005
  0
LINE
 8
GROUP0
10
3576.39790256301
20
3667.82578339033
30
1.21311650265576e-005
11
3576.64765361944
21
3668.4287357775
31
1.21432935896004e-005
  0
LINE
 8
GROUP0
10
3576.64765361944
20
3668.4287357775
30
1.21432935896004e-005
11
3577.04495017608
21
3668.94650273036
31
1.2154334141895e-005
  0
LINE
 8
GROUP0
10
3577.04495017608
20
3668.94650273036
30
1.2154334141895e-005
11
3577.56271712916
21
3669.34379928671
31
1.21635344517423e-005
  0
LINE
 8
GROUP0
10
3577.56271712916
20
3669.34379928671
30
1.21635344517423e-005
11
3578.16566951647
21
3669.5935503428
31
1.21702675390745e-005
  0
LINE
 8
GROUP0
10
3578.16566951647
20
3669.5935503428
30
1.21702675390745e-005
11
3578.81271712925
21
3669.67873577689
31
1.21740743584675e-005
  0
LINE
 8
GROUP0
10
3578.81271712925
20
3669.67873577689
30
1.21740743584675e-005
11
3579.45976474198
21
3669.59355034243
31
1.21746956534829e-005
  0
LINE
 8
GROUP0
10
3579.45976474198
20
3669.59355034243
30
1.21746956534829e-005
11
3580.06271712916
21
3669.343799286
31
1.21720890118249e-005
  0
LINE
 8
GROUP0
10
3580.06271712916
20
3669.343799286
30
1.21720890118249e-005
11
3580.58048408201
21
3668.94650272936
31
1.21664321139414e-005
  0
LINE
 8
GROUP0
10
3580.58048408201
20
3668.94650272936
30
1.21664321139414e-005
11
3580.97778063836
21
3668.42873577628
31
1.21581104605306e-005
  0
LINE
 8
GROUP0
10
3580.97778063836
20
3668.42873577628
30
1.21581104605306e-005
11
3581.22753169445
21
3667.82578338897
31
1.21476912032514e-005
  0
LINE
 8
GROUP0
10
3581.22753169445
20
3667.82578338897
30
1.21476912032514e-005
11
3581.31271712855
21
3667.17873577619
31
1.21358842517461e-005
  0
LINE
 8
GROUP0
10
3480.97778063766
20
3665.92873577628
30
1.21113657937266e-005
11
3480.58048408102
21
3665.41096882343
31
1.2100325241432e-005
  0
LINE
 8
GROUP0
10
3480.58048408102
20
3665.41096882343
30
1.2100325241432e-005
11
3480.06271712794
21
3665.01367226708
31
1.20911249315847e-005
  0
LINE
 8
GROUP0
10
3480.06271712794
20
3665.01367226708
30
1.20911249315847e-005
11
3479.45976474062
21
3664.76392121099
31
1.20843918442526e-005
  0
LINE
 8
GROUP0
10
3479.45976474062
20
3664.76392121099
30
1.20843918442526e-005
11
3478.81271712784
21
3664.67873577689
31
1.20805850248595e-005
  0
LINE
 8
GROUP0
10
3478.81271712784
20
3664.67873577689
30
1.20805850248595e-005
11
3478.16566951511
21
3664.76392121135
31
1.20799637298441e-005
  0
LINE
 8
GROUP0
10
3478.16566951511
20
3664.76392121135
30
1.20799637298441e-005
11
3477.56271712794
21
3665.01367226778
31
1.20825703715022e-005
  0
LINE
 8
GROUP0
10
3477.56271712794
20
3665.01367226778
30
1.20825703715022e-005
11
3477.04495017508
21
3665.41096882443
31
1.20882272693856e-005
  0
LINE
 8
GROUP0
10
3477.04495017508
20
3665.41096882443
30
1.20882272693856e-005
11
3476.64765361873
21
3665.9287357775
31
1.20965489227964e-005
  0
LINE
 8
GROUP0
10
3476.64765361873
20
3665.9287357775
30
1.20965489227964e-005
11
3476.39790256264
21
3666.53168816482
31
1.21069681800756e-005
  0
LINE
 8
GROUP0
10
3476.39790256264
20
3666.53168816482
30
1.21069681800756e-005
11
3476.31271712855
21
3667.1787357776
31
1.2118775131581e-005
  0
LINE
 8
GROUP0
10
3476.31271712855
20
3667.1787357776
30
1.2118775131581e-005
11
3476.39790256301
21
3667.82578339033
31
1.21311650265576e-005
  0
LINE
 8
GROUP0
10
3476.39790256301
20
3667.82578339033
30
1.21311650265576e-005
11
3476.64765361944
21
3668.4287357775
31
1.21432935896004e-005
  0
LINE
 8
GROUP0
10
3476.64765361944
20
3668.4287357775
30
1.21432935896004e-005
11
3477.04495017608
21
3668.94650273036
31
1.2154334141895e-005
  0
LINE
 8
GROUP0
10
3477.04495017608
20
3668.94650273036
30
1.2154334141895e-005
11
3477.56271712916
21
3669.34379928671
31
1.21635344517423e-005
  0
LINE
 8
GROUP0
10
3477.56271712916
20
3669.34379928671
30
1.21635344517423e-005
11
3478.16566951647
21
3669.5935503428
31
1.21702675390745e-005
  0
LINE
 8
GROUP0
10
3478.16566951647
20
3669.5935503428
30
1.21702675390745e-005
11
3478.81271712925
21
3669.67873577689
31
1.21740743584675e-005
  0
LINE
 8
GROUP0
10
3478.81271712925
20
3669.67873577689
30
1.21740743584675e-005
11
3479.45976474198
21
3669.59355034243
31
1.21746956534829e-005
  0
LINE
 8
GROUP0
10
3479.45976474198
20
3669.59355034243
30
1.21746956534829e-005
11
3480.06271712916
21
3669.343799286
31
1.21720890118249e-005
  0
LINE
 8
GROUP0
10
3480.06271712916
20
3669.343799286
30
1.21720890118249e-005
11
3480.58048408201
21
3668.94650272936
31
1.21664321139414e-005
  0
LINE
 8
GROUP0
10
3480.58048408201
20
3668.94650272936
30
1.21664321139414e-005
11
3480.97778063836
21
3668.42873577628
31
1.21581104605306e-005
  0
LINE
 8
GROUP0
10
3480.97778063836
20
3668.42873577628
30
1.21581104605306e-005
11
3481.22753169445
21
3667.82578338897
31
1.21476912032514e-005
  0
LINE
 8
GROUP0
10
3481.22753169445
20
3667.82578338897
30
1.21476912032514e-005
11
3481.31271712855
21
3667.17873577619
31
1.21358842517461e-005
  0
LINE
 8
GROUP0
10
3481.31271712855
20
3667.17873577619
30
1.21358842517461e-005
11
3481.22753169409
21
3666.53168816346
31
1.21234943567694e-005
  0
LINE
 8
GROUP0
10
3481.22753169409
20
3666.53168816346
30
1.21234943567694e-005
11
3480.97778063766
21
3665.92873577628
31
1.21113657937266e-005
  0
LINE
 8
GROUP0
10
3676.39790256264
20
3666.53168816482
30
1.21069681800756e-005
11
3676.31271712855
21
3667.1787357776
31
1.2118775131581e-005
  0
LINE
 8
GROUP0
10
3676.31271712855
20
3667.1787357776
30
1.2118775131581e-005
11
3676.39790256301
21
3667.82578339033
31
1.21311650265576e-005
  0
LINE
 8
GROUP0
10
3676.39790256301
20
3667.82578339033
30
1.21311650265576e-005
11
3676.64765361944
21
3668.4287357775
31
1.21432935896004e-005
  0
LINE
 8
GROUP0
10
3676.64765361944
20
3668.4287357775
30
1.21432935896004e-005
11
3677.04495017608
21
3668.94650273036
31
1.2154334141895e-005
  0
LINE
 8
GROUP0
10
3677.04495017608
20
3668.94650273036
30
1.2154334141895e-005
11
3677.56271712916
21
3669.34379928671
31
1.21635344517423e-005
  0
LINE
 8
GROUP0
10
3677.56271712916
20
3669.34379928671
30
1.21635344517423e-005
11
3678.16566951647
21
3669.5935503428
31
1.21702675390745e-005
  0
LINE
 8
GROUP0
10
3678.16566951647
20
3669.5935503428
30
1.21702675390745e-005
11
3678.81271712925
21
3669.67873577689
31
1.21740743584675e-005
  0
LINE
 8
GROUP0
10
3678.81271712925
20
3669.67873577689
30
1.21740743584675e-005
11
3679.45976474198
21
3669.59355034243
31
1.21746956534829e-005
  0
LINE
 8
GROUP0
10
3679.45976474198
20
3669.59355034243
30
1.21746956534829e-005
11
3680.06271712916
21
3669.343799286
31
1.21720890118249e-005
  0
LINE
 8
GROUP0
10
3680.06271712916
20
3669.343799286
30
1.21720890118249e-005
11
3680.58048408201
21
3668.94650272936
31
1.21664321139414e-005
  0
LINE
 8
GROUP0
10
3680.58048408201
20
3668.94650272936
30
1.21664321139414e-005
11
3680.97778063836
21
3668.42873577628
31
1.21581104605306e-005
  0
LINE
 8
GROUP0
10
3680.97778063836
20
3668.42873577628
30
1.21581104605306e-005
11
3681.22753169445
21
3667.82578338897
31
1.21476912032514e-005
  0
LINE
 8
GROUP0
10
3681.22753169445
20
3667.82578338897
30
1.21476912032514e-005
11
3681.31271712855
21
3667.17873577619
31
1.21358842517461e-005
  0
LINE
 8
GROUP0
10
3681.31271712855
20
3667.17873577619
30
1.21358842517461e-005
11
3681.22753169409
21
3666.53168816346
31
1.21234943567694e-005
  0
LINE
 8
GROUP0
10
3681.22753169409
20
3666.53168816346
30
1.21234943567694e-005
11
3680.97778063766
21
3665.92873577628
31
1.21113657937266e-005
  0
LINE
 8
GROUP0
10
3680.97778063766
20
3665.92873577628
30
1.21113657937266e-005
11
3680.58048408102
21
3665.41096882343
31
1.2100325241432e-005
  0
LINE
 8
GROUP0
10
3680.58048408102
20
3665.41096882343
30
1.2100325241432e-005
11
3680.06271712794
21
3665.01367226708
31
1.20911249315847e-005
  0
LINE
 8
GROUP0
10
3680.06271712794
20
3665.01367226708
30
1.20911249315847e-005
11
3679.45976474062
21
3664.76392121099
31
1.20843918442526e-005
  0
LINE
 8
GROUP0
10
3679.45976474062
20
3664.76392121099
30
1.20843918442526e-005
11
3678.81271712784
21
3664.67873577689
31
1.20805850248595e-005
  0
LINE
 8
GROUP0
10
3678.81271712784
20
3664.67873577689
30
1.20805850248595e-005
11
3678.16566951511
21
3664.76392121135
31
1.20799637298441e-005
  0
LINE
 8
GROUP0
10
3678.16566951511
20
3664.76392121135
30
1.20799637298441e-005
11
3677.56271712794
21
3665.01367226778
31
1.20825703715022e-005
  0
LINE
 8
GROUP0
10
3677.56271712794
20
3665.01367226778
30
1.20825703715022e-005
11
3677.04495017508
21
3665.41096882443
31
1.20882272693856e-005
  0
LINE
 8
GROUP0
10
3677.04495017508
20
3665.41096882443
30
1.20882272693856e-005
11
3676.64765361873
21
3665.9287357775
31
1.20965489227964e-005
  0
LINE
 8
GROUP0
10
3676.64765361873
20
3665.9287357775
30
1.20965489227964e-005
11
3676.39790256264
21
3666.53168816482
31
1.21069681800756e-005
 0
ENDSEC
 0
EOF
