 0
SECTION
 2
ENTITIES
  0
LINE
 8
GROUP0
10
-2069.65273763651
20
2020.64627763584
30
0.000135643323339263
11
-2488.65273763634
21
2020.64627763584
31
0.000136443228173544
  0
LINE
 8
GROUP0
10
-2069.65273763651
20
2045.64627763584
30
0.000133916624202879
11
-2059.65273763651
21
2045.64627763584
31
0.000135643324241652
  0
LINE
 8
GROUP0
10
-2111.65214497998
20
2110.64627763584
30
0.000150980019977698
11
-2069.65273763651
21
2110.64627763584
31
0.000135643324637857
  0
LINE
 8
GROUP0
10
-2069.65273763651
20
2045.64627763584
30
0.000133916624202879
11
-2069.65273763651
21
2020.64627763584
31
0.000135643323339263
  0
LINE
 8
GROUP0
10
-2034.65273763651
20
2080.64629500598
30
0.000103989933539439
11
-2034.65273763651
21
2070.64629500598
31
0.000113441633733224
  0
LINE
 8
GROUP0
10
-2069.65273763651
20
2110.64627763584
30
0.000135643324637857
11
-2069.65273763651
21
2105.64631237611
31
7.72063898251907e-005
  0
LINE
 8
GROUP0
10
-2488.65273763634
20
2020.64627763584
30
0.000136443228173544
11
-2488.65273763634
21
2045.64627763584
31
0.0001364432285345
  0
LINE
 8
GROUP0
10
-2111.65214497998
20
2130.64629465578
30
0.000150980020266039
11
-2111.65214497998
21
2110.64627763584
31
0.000150980019977698
  0
LINE
 8
GROUP0
10
-2069.65273763651
20
2105.64631237611
30
7.72063898251907e-005
11
-2059.65273763651
21
2105.64631237612
31
7.8933089863964e-005
  0
LINE
 8
GROUP0
10
-2446.65307522526
20
2130.64630968456
30
3.14635231985882e-005
11
-2111.65214497998
21
2130.64629465578
31
0.000150980020266039
  0
LINE
 8
GROUP0
10
-2034.65273763651
20
2070.64629500598
30
0.000113441633733224
11
-2059.65273763651
21
2045.64627763584
31
0.000135643324241652
  0
LINE
 8
GROUP0
10
-2131.65214497991
20
2122.64628563701
30
0.000277700141990833
11
-2132.16978307012
21
2122.57813728959
31
0.000277597987193501
  0
LINE
 8
GROUP0
10
-2132.65214497991
20
2118.91423482944
30
0.000276827925673234
11
-2132.16978307012
21
2118.71443398443
31
0.000276873764157909
  0
LINE
 8
GROUP0
10
-2132.16978307012
20
2122.57813728959
30
0.000277597987193501
11
-2132.65214497991
21
2122.37833644458
31
0.000277477246783853
  0
LINE
 8
GROUP0
10
-2133.06635854229
20
2119.23207207464
30
0.000276815979486589
11
-2132.65214497991
21
2118.91423482944
31
0.000276827925673234
  0
LINE
 8
GROUP0
10
-2133.65214497991
20
2120.64628563701
30
0.000276979916205561
11
-2133.58399663249
21
2120.12864754681
31
0.000276894655572923
  0
LINE
 8
GROUP0
10
-2133.58399663249
20
2121.16392372722
30
0.00027708871115259
11
-2133.65214497991
21
2120.64628563701
31
0.000276979916205561
  0
LINE
 8
GROUP0
10
-2131.13450688971
20
2122.57813728959
30
0.000277776748343028
11
-2131.65214497991
21
2122.64628563701
31
0.000277700141990833
  0
LINE
 8
GROUP0
10
-2130.23793141754
20
2122.06049919938
30
0.000277834533012233
11
-2130.65214497991
21
2122.37833644458
31
0.000277822586827703
  0
LINE
 8
GROUP0
10
-2488.65273763634
20
2110.64631237611
30
7.63970993133856e-005
11
-2446.65307522526
21
2110.64630968456
31
3.14635229102467e-005
  0
LINE
 8
GROUP0
10
-2129.72029332734
20
2121.16392372722
30
0.000277755856928014
11
-2129.92009417235
21
2121.64628563701
31
0.000277811772584063
  0
LINE
 8
GROUP0
10
-2129.65214497991
20
2120.64628563701
30
0.000277670596293261
11
-2129.72029332734
21
2121.16392372722
31
0.000277755856928014
  0
LINE
 8
GROUP0
10
-2133.58399663249
20
2120.12864754681
30
0.000276894655572923
11
-2133.38419578748
21
2119.64628563701
31
0.000276838739916874
  0
LINE
 8
GROUP0
10
-2129.92009417235
20
2121.64628563701
30
0.000277811772584063
11
-2130.23793141754
21
2122.06049919938
31
0.000277834533012233
  0
LINE
 8
GROUP0
10
-2488.65273763634
20
2105.64631237611
30
7.97329941568115e-005
11
-2488.65273763634
21
2110.64631237611
31
7.63970993133856e-005
  0
LINE
 8
GROUP0
10
-2488.65273763634
20
2045.64627763584
30
0.0001364432285345
11
-2498.65273763634
21
2045.64627763584
31
0.000134716528315248
  0
LINE
 8
GROUP0
10
-2446.65307522526
20
2110.64630968456
30
3.14635229102467e-005
11
-2446.65307522526
21
2130.64630968456
31
3.14635231985882e-005
  0
LINE
 8
GROUP0
10
-2131.65214497991
20
2118.64628563701
30
0.000276950370507989
11
-2131.13450688971
21
2118.71443398443
31
0.000277052525307436
  0
LINE
 8
GROUP0
10
-2498.65273763634
20
2045.64627763584
30
0.000134716528315248
11
-2523.65273763634
21
2070.64629500597
31
0.000109336882399724
  0
LINE
 8
GROUP0
10
-2523.65273763634
20
2070.64629500597
30
0.000109336882399724
11
-2523.65273763634
21
2080.64639012383
31
9.98850922377281e-005
  0
LINE
 8
GROUP0
10
-2131.13450688971
20
2118.71443398443
30
0.000277052525307436
11
-2130.65214497991
21
2118.91423482944
31
0.000277173265717084
  0
LINE
 8
GROUP0
10
-2132.16978307012
20
2118.71443398443
30
0.000276873764157909
11
-2131.65214497991
21
2118.64628563701
31
0.000276950370507989
  0
LINE
 8
GROUP0
10
-2523.65273763634
20
2080.64639012383
30
9.98850922377281e-005
11
-2498.65273763634
21
2105.64631237611
31
7.80062939375603e-005
  0
LINE
 8
GROUP0
10
-2133.38419578748
20
2119.64628563701
30
0.000276838739916874
11
-2133.06635854229
21
2119.23207207464
31
0.000276815979486589
  0
LINE
 8
GROUP0
10
-2059.65273763651
20
2105.64631237612
30
7.8933089863964e-005
11
-2034.65273763651
21
2080.64629500598
31
0.000103989933539439
  0
LINE
 8
GROUP0
10
-2488.65273763634
20
2105.64631237611
30
7.97329941568115e-005
11
-2498.65273763634
21
2105.64631237611
31
7.80062939375603e-005
  0
LINE
 8
GROUP0
10
-2132.65214497991
20
2122.37833644458
30
0.000277477246783853
11
-2133.06635854229
21
2122.06049919938
31
0.000277346148386337
  0
LINE
 8
GROUP0
10
-2130.65214497991
20
2122.37833644458
30
0.000277822586827703
11
-2131.13450688971
21
2122.57813728959
31
0.000277776748343028
  0
LINE
 8
GROUP0
10
-2133.38419578748
20
2121.64628563701
30
0.000277213625658296
11
-2133.58399663249
21
2121.16392372722
31
0.00027708871115259
  0
LINE
 8
GROUP0
10
-2424.72122357254
20
2121.16388679621
30
0.000298590390596093
11
-2424.92102441754
21
2121.646248706
31
0.000298646306252143
  0
LINE
 8
GROUP0
10
-2129.92009417235
20
2119.64628563701
30
0.000277436886842641
11
-2129.72029332734
21
2120.12864754681
31
0.000277561801348347
  0
LINE
 8
GROUP0
10
-2425.65307522511
20
2118.91419789843
30
0.000298007799385164
11
-2425.23886166274
21
2119.23203514363
31
0.000298138897780564
  0
LINE
 8
GROUP0
10
-2424.72122357254
20
2120.1286106158
30
0.000298396335016426
11
-2424.65307522511
21
2120.646248706
31
0.000298505129961341
  0
LINE
 8
GROUP0
10
-2426.13543713491
20
2118.71439705342
30
0.000297887058975516
11
-2425.65307522511
21
2118.91419789843
31
0.000298007799385164
  0
LINE
 8
GROUP0
10
-2133.06635854229
20
2122.06049919938
30
0.000277346148386337
11
-2133.38419578748
21
2121.64628563701
31
0.000277213625658296
  0
LINE
 8
GROUP0
10
-2425.65307522511
20
2122.37829951357
30
0.000298657120495782
11
-2426.13543713491
21
2122.57810035858
31
0.000298611282011108
  0
LINE
 8
GROUP0
10
-2426.13543713491
20
2122.57810035858
30
0.000298611282011108
11
-2426.65307522511
21
2122.646248706
31
0.000298534675658912
  0
LINE
 8
GROUP0
10
-2424.92102441754
20
2119.646248706
30
0.000298271420510721
11
-2424.72122357254
21
2120.1286106158
31
0.000298396335016426
  0
LINE
 8
GROUP0
10
-2129.72029332734
20
2120.12864754681
30
0.000277561801348347
11
-2129.65214497991
21
2120.64628563701
31
0.000277670596293261
  0
LINE
 8
GROUP0
10
-2460.97105477822
20
2031.16391572604
30
0.000132342156031984
11
-2461.17085562323
21
2031.64627763584
31
0.000132398071688034
  0
LINE
 8
GROUP0
10
-2460.9029064308
20
2030.64627763584
30
0.000132256895399346
11
-2460.97105477822
21
2031.16391572604
31
0.000132342156031984
  0
LINE
 8
GROUP0
10
-2424.65307522511
20
2120.646248706
30
0.000298505129961341
11
-2424.72122357254
21
2121.16388679621
31
0.000298590390596093
  0
LINE
 8
GROUP0
10
-2426.65307522511
20
2122.646248706
30
0.000298534675658912
11
-2427.17071331532
21
2122.57810035858
31
0.00029843252086158
  0
LINE
 8
GROUP0
10
-2130.65214497991
20
2118.91423482944
30
0.000277173265717084
11
-2130.23793141754
21
2119.23207207464
31
0.000277304364112485
  0
LINE
 8
GROUP0
10
-2130.23793141754
20
2119.23207207464
30
0.000277304364112485
11
-2129.92009417235
21
2119.64628563701
31
0.000277436886842641
  0
LINE
 8
GROUP0
10
-2424.92102441754
20
2121.646248706
30
0.000298646306252143
11
-2425.23886166274
21
2122.06046226837
31
0.000298669066680313
  0
LINE
 8
GROUP0
10
-2425.23886166274
20
2119.23203514363
30
0.000298138897780564
11
-2424.92102441754
21
2119.646248706
31
0.000298271420510721
  0
LINE
 8
GROUP0
10
-2425.23886166274
20
2122.06046226837
30
0.000298669066680313
11
-2425.65307522511
21
2122.37829951357
31
0.000298657120495782
  0
LINE
 8
GROUP0
10
-2460.97105477822
20
2030.12863954563
30
0.000132148100453022
11
-2460.9029064308
21
2030.64627763584
31
0.000132256895399346
  0
LINE
 8
GROUP0
10
-2428.58492687769
20
2120.1286106158
30
0.000297729189241003
11
-2428.38512603268
21
2119.646248706
31
0.000297673273584953
  0
LINE
 8
GROUP0
10
-2428.58492687769
20
2121.16388679621
30
0.000297923244820669
11
-2428.65307522511
21
2120.646248706
31
0.00029781444987364
  0
LINE
 8
GROUP0
10
-2427.17071331532
20
2118.71439705342
30
0.000297708297825988
11
-2426.65307522511
21
2118.646248706
31
0.000297784904176068
  0
LINE
 8
GROUP0
10
-2427.65307522511
20
2118.91419789843
30
0.000297662459341313
11
-2427.17071331532
21
2118.71439705342
31
0.000297708297825988
  0
LINE
 8
GROUP0
10
-2427.65307522511
20
2122.37829951357
30
0.000298311780451932
11
-2428.06728878749
21
2122.06046226837
31
0.000298180682054416
  0
LINE
 8
GROUP0
10
-2427.17071331532
20
2122.57810035858
30
0.00029843252086158
11
-2427.65307522511
21
2122.37829951357
31
0.000298311780451932
  0
LINE
 8
GROUP0
10
-2428.65307522511
20
2120.646248706
30
0.00029781444987364
11
-2428.58492687769
21
2120.1286106158
31
0.000297729189241003
  0
LINE
 8
GROUP0
10
-2461.17085562323
20
2031.64627763584
30
0.000132398071688034
11
-2461.48869286842
21
2032.06049119821
31
0.000132420832118318
  0
LINE
 8
GROUP0
10
-2428.06728878749
20
2119.23203514363
30
0.000297650513154668
11
-2427.65307522511
21
2118.91419789843
31
0.000297662459341313
  0
LINE
 8
GROUP0
10
-2462.9029064308
20
2028.64627763584
30
0.000131536669614074
11
-2462.38526834059
21
2028.71442598326
31
0.000131638824411406
  0
LINE
 8
GROUP0
10
-2464.9029064308
20
2030.64627763584
30
0.000131566215311646
11
-2464.83475808337
21
2030.12863954563
31
0.000131480954677599
  0
LINE
 8
GROUP0
10
-2426.65307522511
20
2118.646248706
30
0.000297784904176068
11
-2426.13543713491
21
2118.71439705342
31
0.000297887058975516
  0
LINE
 8
GROUP0
10
-2428.38512603268
20
2119.646248706
30
0.000297673273584953
11
-2428.06728878749
21
2119.23203514363
31
0.000297650513154668
  0
LINE
 8
GROUP0
10
-2428.38512603268
20
2121.646248706
30
0.000298048159326375
11
-2428.58492687769
21
2121.16388679621
31
0.000297923244820669
  0
LINE
 8
GROUP0
10
-2428.06728878749
20
2122.06046226837
30
0.000298180682054416
11
-2428.38512603268
21
2121.646248706
31
0.000298048159326375
  0
LINE
 8
GROUP0
10
-2093.67085562395
20
2031.6462776355
30
9.95793095359687e-007
11
-2093.98869286904
21
2032.06049119771
31
1.01855352564462e-006
  0
LINE
 8
GROUP0
10
-2093.4029064316
20
2030.64627763589
30
8.54616806672537e-007
11
-2093.47105477901
21
2031.16391572589
31
9.398774393099e-007
  0
LINE
 8
GROUP0
10
-2093.98869286897
20
2029.23206407404
30
4.88384625896288e-007
11
-2093.67085562391
21
2029.64627763626
31
6.20907353937605e-007
  0
LINE
 8
GROUP0
10
-2461.48869286842
20
2032.06049119821
30
0.000132420832118318
11
-2461.9029064308
21
2032.37832844341
31
0.000132408885931673
  0
LINE
 8
GROUP0
10
-2462.9029064308
20
2032.64627763584
30
0.000132286441096918
11
-2463.420544521
21
2032.57812928842
31
0.000132184286297471
  0
LINE
 8
GROUP0
10
-2093.47105477898
20
2030.12863954588
30
7.45821860348439e-007
11
-2093.4029064316
21
2030.64627763589
31
8.54616806672537e-007
  0
LINE
 8
GROUP0
10
-2464.63495723837
20
2031.64627763584
30
0.000131799924762266
11
-2464.83475808337
21
2031.16391572604
31
0.00013167501025656
  0
LINE
 8
GROUP0
10
-2463.9029064308
20
2032.37832844341
30
0.000132063545887823
11
-2464.31711999317
21
2032.06049119821
31
0.000131932447492422
  0
LINE
 8
GROUP0
10
-2463.420544521
20
2032.57812928842
30
0.000132184286297471
11
-2463.9029064308
21
2032.37832844341
31
0.000132063545887823
  0
LINE
 8
GROUP0
10
-2464.31711999317
20
2032.06049119821
30
0.000131932447492422
11
-2464.63495723837
21
2031.64627763584
31
0.000131799924762266
  0
LINE
 8
GROUP0
10
-2095.9205445208
20
2028.71442598399
30
5.77846692051409e-008
11
-2095.40290643079
21
2028.64627763661
31
1.34391021400226e-007
  0
LINE
 8
GROUP0
10
-2093.98869286904
20
2032.06049119771
30
1.01855352564462e-006
11
-2094.40290643126
21
2032.37832844277
31
1.00660733899915e-006
  0
LINE
 8
GROUP0
10
-2094.88526834078
20
2028.71442598401
30
2.36545818732559e-007
11
-2094.40290643118
21
2028.91422682896
31
3.57286228380715e-007
  0
LINE
 8
GROUP0
10
-2095.40290643079
20
2028.64627763661
30
1.34391021400226e-007
11
-2094.88526834078
21
2028.71442598401
31
2.36545818732559e-007
  0
LINE
 8
GROUP0
10
-2463.9029064308
20
2028.91422682827
30
0.000131414224777204
11
-2463.420544521
21
2028.71442598326
31
0.000131460063261879
  0
LINE
 8
GROUP0
10
-2464.83475808337
20
2031.16391572604
30
0.00013167501025656
11
-2464.9029064308
21
2030.64627763584
31
0.000131566215311646
  0
LINE
 8
GROUP0
10
-2461.9029064308
20
2028.91422682827
30
0.000131759564821055
11
-2461.48869286842
21
2029.23206407346
31
0.00013189066321857
  0
LINE
 8
GROUP0
10
-2464.31711999317
20
2029.23206407346
30
0.000131402278592674
11
-2463.9029064308
21
2028.91422682827
31
0.000131414224777204
  0
LINE
 8
GROUP0
10
-2464.63495723837
20
2029.64627763584
30
0.000131425039020844
11
-2464.31711999317
21
2029.23206407346
31
0.000131402278592674
  0
LINE
 8
GROUP0
10
-2463.420544521
20
2028.71442598326
30
0.000131460063261879
11
-2462.9029064308
21
2028.64627763584
31
0.000131536669614074
  0
LINE
 8
GROUP0
10
-2461.48869286842
20
2029.23206407346
30
0.00013189066321857
11
-2461.17085562323
21
2029.64627763584
31
0.000132023185946611
  0
LINE
 8
GROUP0
10
-2461.17085562323
20
2029.64627763584
30
0.000132023185946611
11
-2460.97105477822
21
2030.12863954563
31
0.000132148100453022
  0
LINE
 8
GROUP0
10
-2093.67085562391
20
2029.64627763626
30
6.20907353937605e-007
11
-2093.47105477898
21
2030.12863954588
31
7.45821860348439e-007
  0
LINE
 8
GROUP0
10
-2094.40290643118
20
2028.91422682896
30
3.57286228380715e-007
11
-2093.98869286897
21
2029.23206407404
31
4.88384625896288e-007
  0
LINE
 8
GROUP0
10
-2464.83475808337
20
2030.12863954563
30
0.000131480954677599
11
-2464.63495723837
21
2029.64627763584
31
0.000131425039020844
  0
LINE
 8
GROUP0
10
-2461.9029064308
20
2032.37832844341
30
0.000132408885931673
11
-2462.38526834059
21
2032.57812928842
31
0.000132363047446998
  0
LINE
 8
GROUP0
10
-2462.38526834059
20
2028.71442598326
30
0.000131638824411406
11
-2461.9029064308
21
2028.91422682827
31
0.000131759564821055
  0
LINE
 8
GROUP0
10
-2280.88478844399
20
2029.64627763584
30
0.000132623401599791
11
-2280.56695119879
21
2029.23206407347
31
0.000132600641171621
  0
LINE
 8
GROUP0
10
-2343.65273694566
20
2040.6462785962
30
0.000122228781872158
11
-2418.65273694565
21
2040.6462785962
31
0.000122228781872158
  0
LINE
 8
GROUP0
10
-2418.65273694565
20
2060.6462785962
30
0.000121175797743672
11
-2343.65273694566
21
2060.6462785962
31
0.000121175797743672
  0
LINE
 8
GROUP0
10
-2280.15273763642
20
2028.91422682827
30
0.000132612587356151
11
-2279.67037572663
21
2028.71442598326
31
0.000132658425840826
  0
LINE
 8
GROUP0
10
-2097.13495723777
20
2031.64627763542
30
3.97646169592036e-007
11
-2097.33475808269
21
2031.1639157258
31
2.72731663886194e-007
  0
LINE
 8
GROUP0
10
-2280.88478844399
20
2031.64627763584
30
0.000132998287341213
11
-2281.084589289
21
2031.16391572604
31
0.000132873372835507
  0
LINE
 8
GROUP0
10
-2280.56695119879
20
2029.23206407347
30
0.000132600641171621
11
-2280.15273763642
21
2028.91422682827
31
0.000132612587356151
  0
LINE
 8
GROUP0
10
-2095.92054452089
20
2032.57812928767
30
7.82007704797083e-007
11
-2096.40290643049
21
2032.37832844273
31
6.61267295148926e-007
  0
LINE
 8
GROUP0
10
-2094.40290643126
20
2032.37832844277
30
1.00660733899915e-006
11
-2094.88526834087
21
2032.57812928769
31
9.60768854324501e-007
  0
LINE
 8
GROUP0
10
-2343.65273694566
20
2060.6462785962
30
0.000121175797743672
11
-2343.65273694566
21
2040.6462785962
31
0.000122228781872158
  0
LINE
 8
GROUP0
10
-2097.33475808266
20
2030.12863954579
30
7.86760849247337e-008
11
-2097.13495723772
21
2029.64627763618
31
2.27604281699545e-008
  0
LINE
 8
GROUP0
10
-2281.084589289
20
2030.12863954563
30
0.000132679317256545
11
-2280.88478844399
21
2029.64627763584
31
0.000132623401599791
  0
LINE
 8
GROUP0
10
-2281.084589289
20
2031.16391572604
30
0.000132873372835507
11
-2281.15273763642
21
2030.64627763584
31
0.000132764577890593
  0
LINE
 8
GROUP0
10
-2139.15260941194
20
2090.64627859627
30
3.91380723216594e-005
11
-2279.15260941194
21
2090.64627859627
31
3.91380724118984e-005
  0
LINE
 8
GROUP0
10
-2418.65273694565
20
2040.6462785962
30
0.000122228781872158
11
-2418.65273694565
21
2060.6462785962
31
0.000121175797743672
  0
LINE
 8
GROUP0
10
-2278.63509954622
20
2032.57812928842
30
0.000133561410025945
11
-2279.15273763642
21
2032.64627763584
31
0.000133484803675865
  0
LINE
 8
GROUP0
10
-2097.13495723772
20
2029.64627763618
30
2.27604281699545e-008
11
-2096.81711999264
21
2029.23206407398
31
0.0
  0
LINE
 8
GROUP0
10
-2095.40290643088
20
2032.64627763508
30
8.8416250424439e-007
11
-2095.92054452089
21
2032.57812928767
31
7.82007704797083e-007
  0
LINE
 8
GROUP0
10
-2093.47105477901
20
2031.16391572589
30
9.398774393099e-007
11
-2093.67085562395
21
2031.6462776355
31
9.95793095359687e-007
  0
LINE
 8
GROUP0
10
-2096.40290643049
20
2032.37832844273
30
6.61267295148926e-007
11
-2096.8171199927
21
2032.06049119764
31
5.30168899748329e-007
  0
LINE
 8
GROUP0
10
-2281.15273763642
20
2030.64627763584
30
0.000132764577890593
11
-2281.084589289
21
2030.12863954563
31
0.000132679317256545
  0
LINE
 8
GROUP0
10
-2280.56695119879
20
2032.06049119821
30
0.000133130810071369
11
-2280.88478844399
21
2031.64627763584
31
0.000132998287341213
  0
LINE
 8
GROUP0
10
-2096.8171199927
20
2032.06049119764
30
5.30168899748329e-007
11
-2097.13495723777
21
2031.64627763542
31
3.97646169592036e-007
  0
LINE
 8
GROUP0
10
-2462.38526834059
20
2032.57812928842
30
0.000132363047446998
11
-2462.9029064308
21
2032.64627763584
31
0.000132286441096918
  0
LINE
 8
GROUP0
10
-2094.88526834087
20
2032.57812928769
30
9.60768854324501e-007
11
-2095.40290643088
21
2032.64627763508
31
8.8416250424439e-007
  0
LINE
 8
GROUP0
10
-2096.81711999264
20
2029.23206407398
30
0.0
11
-2096.40290643041
21
2028.91422682891
31
1.19461845304869e-008
  0
LINE
 8
GROUP0
10
-2097.40290643007
20
2030.6462776358
30
1.6393671897208e-007
11
-2097.33475808266
21
2030.12863954579
31
7.86760849247337e-008
  0
LINE
 8
GROUP0
10
-2279.15260941194
20
2090.64627859627
30
3.91380724118984e-005
11
-2279.15260941194
21
2040.64627859627
31
4.17705327814044e-005
  0
LINE
 8
GROUP0
10
-2096.40290643041
20
2028.91422682891
30
1.19461845304869e-008
11
-2095.9205445208
21
2028.71442598399
31
5.77846692051409e-008
  0
LINE
 8
GROUP0
10
-2097.33475808269
20
2031.1639157258
30
2.72731663886194e-007
11
-2097.40290643007
21
2030.6462776358
31
1.6393671897208e-007
  0
LINE
 8
GROUP0
10
-2139.15261010261
20
2040.64627763584
30
3.86625531505924e-005
11
-2139.15260941194
21
2090.64627859627
31
3.91380723216594e-005
  0
LINE
 8
GROUP0
10
-2279.15273763642
20
2032.64627763584
30
0.000133484803675865
11
-2279.67037572663
21
2032.57812928842
31
0.000133382648876418
  0
LINE
 8
GROUP0
10
-2278.15273763642
20
2032.37832844341
30
0.00013360724851062
11
-2278.63509954622
21
2032.57812928842
31
0.000133561410025945
  0
LINE
 8
GROUP0
10
-2277.42068682885
20
2031.64627763584
30
0.00013359643426698
11
-2277.73852407405
21
2032.06049119821
31
0.000133619194697265
  0
LINE
 8
GROUP0
10
-2277.42068682885
20
2029.64627763584
30
0.000133221548525558
11
-2277.22088598384
21
2030.12863954563
31
0.000133346463031969
  0
LINE
 8
GROUP0
10
-2277.73852407405
20
2029.23206407347
30
0.000133089025797517
11
-2277.42068682885
21
2029.64627763584
31
0.000133221548525558
  0
LINE
 8
GROUP0
10
-2277.22088598384
20
2031.16391572604
30
0.000133540518610931
11
-2277.42068682885
21
2031.64627763584
31
0.00013359643426698
  0
LINE
 8
GROUP0
10
-2277.22088598384
20
2030.12863954563
30
0.000133346463031969
11
-2277.15273763642
21
2030.64627763584
31
0.000133455257978293
  0
LINE
 8
GROUP0
10
-2280.15273763642
20
2032.37832844341
30
0.00013326190846677
11
-2280.56695119879
21
2032.06049119821
31
0.000133130810071369
  0
LINE
 8
GROUP0
10
-2278.15273763642
20
2028.91422682827
30
0.000132957927400001
11
-2277.73852407405
21
2029.23206407347
31
0.000133089025797517
  0
LINE
 8
GROUP0
10
-2279.67037572663
20
2028.71442598326
30
0.000132658425840826
11
-2279.15273763642
21
2028.64627763584
31
0.000132735032193021
  0
LINE
 8
GROUP0
10
-2278.63509954622
20
2028.71442598326
30
0.000132837186990353
11
-2278.15273763642
21
2028.91422682827
31
0.000132957927400001
  0
LINE
 8
GROUP0
10
-2279.15273763642
20
2028.64627763584
30
0.000132735032193021
11
-2278.63509954622
21
2028.71442598326
31
0.000132837186990353
  0
LINE
 8
GROUP0
10
-2139.15261010261
20
2040.64627763584
30
3.86625531505924e-005
11
-2279.15260941194
21
2040.64627859627
31
4.17705327814044e-005
  0
LINE
 8
GROUP0
10
-2277.73852407405
20
2032.06049119821
30
0.000133619194697265
11
-2278.15273763642
21
2032.37832844341
31
0.00013360724851062
  0
LINE
 8
GROUP0
10
-2279.67037572663
20
2032.57812928842
30
0.000133382648876418
11
-2280.15273763642
21
2032.37832844341
31
0.00013326190846677
  0
LINE
 8
GROUP0
10
-2277.15273763642
20
2030.64627763584
30
0.000133455257978293
11
-2277.22088598384
21
2031.16391572604
31
0.000133540518610931
  0
LINE
 8
GROUP0
10
-2280.56695119879
20
2119.23207207464
30
0.000132600641171621
11
-2280.15273763642
21
2118.91423482944
31
0.000132612587356151
  0
LINE
 8
GROUP0
10
-2281.15273763642
20
2120.64628563701
30
0.000132764577890593
11
-2281.084589289
21
2120.12864754681
31
0.000132679317256545
  0
LINE
 8
GROUP0
10
-2281.084589289
20
2121.16392372721
30
0.000132873372835507
11
-2281.15273763642
21
2120.64628563701
31
0.000132764577890593
  0
LINE
 8
GROUP0
10
-2281.084589289
20
2120.12864754681
30
0.000132679317256545
11
-2280.88478844399
21
2119.64628563701
31
0.000132623401599791
  0
LINE
 8
GROUP0
10
-2278.63509954622
20
2122.57813728959
30
0.000133561410025945
11
-2279.15273763642
21
2122.64628563701
31
0.000133484803675865
  0
LINE
 8
GROUP0
10
-2280.88478844399
20
2119.64628563701
30
0.000132623401599791
11
-2280.56695119879
21
2119.23207207464
31
0.000132600641171621
  0
LINE
 8
GROUP0
10
-2280.15273763642
20
2118.91423482944
30
0.000132612587356151
11
-2279.67037572663
21
2118.71443398443
31
0.000132658425840826
  0
LINE
 8
GROUP0
10
-2280.88478844399
20
2121.64628563701
30
0.000132998287341213
11
-2281.084589289
21
2121.16392372721
31
0.000132873372835507
  0
LINE
 8
GROUP0
10
-2280.56695119879
20
2122.06049919938
30
0.000133130810071369
11
-2280.88478844399
21
2121.64628563701
31
0.000132998287341213
  0
LINE
 8
GROUP0
10
-2278.15273763642
20
2118.91423482944
30
0.000132957927400001
11
-2277.73852407405
21
2119.23207207464
31
0.000133089025797517
  0
LINE
 8
GROUP0
10
-2278.63509954622
20
2118.71443398443
30
0.000132837186990353
11
-2278.15273763642
21
2118.91423482944
31
0.000132957927400001
  0
LINE
 8
GROUP0
10
-2277.42068682885
20
2119.64628563701
30
0.000133221548525558
11
-2277.22088598384
21
2120.12864754681
31
0.000133346463031969
  0
LINE
 8
GROUP0
10
-2277.42068682885
20
2121.64628563701
30
0.00013359643426698
11
-2277.73852407405
21
2122.06049919938
31
0.000133619194697265
  0
LINE
 8
GROUP0
10
-2278.15273763642
20
2122.37833644458
30
0.00013360724851062
11
-2278.63509954622
21
2122.57813728959
31
0.000133561410025945
  0
LINE
 8
GROUP0
10
-2277.15273763642
20
2120.64628563701
30
0.000133455257978293
11
-2277.22088598384
21
2121.16392372722
31
0.000133540518610931
  0
LINE
 8
GROUP0
10
-2280.15273763642
20
2122.37833644458
30
0.00013326190846677
11
-2280.56695119879
21
2122.06049919938
31
0.000133130810071369
  0
LINE
 8
GROUP0
10
-2279.15273763642
20
2118.64628563701
30
0.000132735032193021
11
-2278.63509954622
21
2118.71443398443
31
0.000132837186990353
  0
LINE
 8
GROUP0
10
-2277.73852407405
20
2122.06049919938
30
0.000133619194697265
11
-2278.15273763642
21
2122.37833644458
31
0.00013360724851062
  0
LINE
 8
GROUP0
10
-2279.15273763642
20
2122.64628563701
30
0.000133484803675865
11
-2279.67037572663
21
2122.57813728959
31
0.000133382648876418
  0
LINE
 8
GROUP0
10
-2277.22088598384
20
2120.12864754681
30
0.000133346463031969
11
-2277.15273763642
21
2120.64628563701
31
0.000133455257978293
  0
LINE
 8
GROUP0
10
-2279.67037572663
20
2122.57813728959
30
0.000133382648876418
11
-2280.15273763642
21
2122.37833644458
31
0.00013326190846677
  0
LINE
 8
GROUP0
10
-2277.73852407405
20
2119.23207207464
30
0.000133089025797517
11
-2277.42068682885
21
2119.64628563701
31
0.000133221548525558
  0
LINE
 8
GROUP0
10
-2277.22088598384
20
2121.16392372722
30
0.000133540518610931
11
-2277.42068682885
21
2121.64628563701
31
0.00013359643426698
  0
LINE
 8
GROUP0
10
-2279.67037572663
20
2118.71443398443
30
0.000132658425840826
11
-2279.15273763642
21
2118.64628563701
31
0.000132735032193021
 0
ENDSEC
 0
EOF
