 0
SECTION
 2
ENTITIES
  0
LINE
 8
GROUP0
10
-2266.15906516615
20
1500.25680428148
30
0.000186888667344826
11
-2266.57327878308
21
1499.93896710738
31
0.000186625719140115
  0
LINE
 8
GROUP0
10
-2265.67670322207
20
1500.4566050437
30
0.000187146294972135
11
-2266.15906516615
21
1500.25680428148
31
0.000186888667344826
  0
LINE
 8
GROUP0
10
-2266.57327878308
20
1499.93896710738
30
0.000186625719140115
11
-2266.89111609937
21
1499.52475359955
31
0.000186375370635183
  0
LINE
 8
GROUP0
10
-2265.15906512016
20
1500.52475330227
30
0.000187381047029928
11
-2265.67670322207
21
1500.4566050437
31
0.000187146294972135
  0
LINE
 8
GROUP0
10
-2266.89111609937
20
1499.52475359955
30
0.000186375370635183
11
-2267.09091702717
21
1499.04239172405
31
0.000186154679695188
  0
LINE
 8
GROUP0
10
-2267.15906546343
20
1498.52475364554
30
0.000185978687434091
11
-2267.09091720486
21
1498.00711554364
31
0.000185859387147486
  0
LINE
 8
GROUP0
10
-2267.09091702717
20
1499.04239172405
30
0.000186154679695188
11
-2267.15906546343
21
1498.52475364554
31
0.000185978687434091
  0
LINE
 8
GROUP0
10
-2523.42701448432
20
1499.52479454844
30
2.01134890921439e-006
11
-2523.74485165843
21
1499.93900816536
31
1.9972848135319e-006
  0
LINE
 8
GROUP0
10
-2523.74485165843
20
1499.93900816536
30
1.9972848135319e-006
11
-2524.15906516625
21
1500.25684548165
31
1.91565395926685e-006
  0
LINE
 8
GROUP0
10
-2523.42701482759
20
1497.52479454844
30
1.44088276456955e-006
11
-2523.22721389979
21
1498.00715642394
31
1.66157370456443e-006
  0
LINE
 8
GROUP0
10
-2525.1590658068
20
1496.52479484572
30
4.35215123001376e-007
11
-2524.6414277049
21
1496.59294310429
31
6.69958518562108e-007
  0
LINE
 8
GROUP0
10
-2527.09091720495
20
1498.00715708709
30
5.44776035671379e-008
11
-2526.89111644273
21
1497.524795143
31
0.0
  0
LINE
 8
GROUP0
10
-2523.15906546353
20
1498.52479450245
30
1.83757137999785e-006
11
-2523.22721372211
21
1499.04243260435
31
1.95686625226732e-006
  0
LINE
 8
GROUP0
10
-2524.15906516625
20
1500.25684548165
30
1.91565395926685e-006
11
-2524.64142704175
21
1500.45664640945
31
1.77201019215256e-006
  0
LINE
 8
GROUP0
10
-2523.22721389979
20
1498.00715642394
30
1.66157370456443e-006
11
-2523.15906546353
21
1498.52479450245
31
1.83757137999785e-006
  0
LINE
 8
GROUP0
10
-2523.74485214388
20
1497.11058104062
30
1.19053425963744e-006
11
-2523.42701482759
21
1497.52479454844
31
1.44088276456955e-006
  0
LINE
 8
GROUP0
10
-2524.15906576081
20
1496.79274386651
30
9.27586145166304e-007
11
-2523.74485214388
21
1497.11058104062
31
1.19053425963744e-006
  0
LINE
 8
GROUP0
10
-2525.67670388531
20
1496.59294328199
30
2.39338627527896e-007
11
-2525.1590658068
21
1496.52479484572
31
4.35215123001376e-007
  0
LINE
 8
GROUP0
10
-2526.15906576081
20
1496.79274420978
30
9.56901672843902e-008
11
-2525.67670388531
21
1496.59294328199
31
2.39338627527896e-007
  0
LINE
 8
GROUP0
10
-2523.22721372211
20
1499.04243260435
30
1.95686625226732e-006
11
-2523.42701448432
21
1499.52479454844
31
2.01134890921439e-006
  0
LINE
 8
GROUP0
10
-2526.57327926863
20
1497.11058152607
30
1.4060666603255e-008
11
-2526.15906576081
21
1496.79274420978
31
9.56901672843902e-008
  0
LINE
 8
GROUP0
10
-2526.89111644273
20
1497.524795143
30
0.0
11
-2526.57327926863
21
1497.11058152607
31
1.4060666603255e-008
  0
LINE
 8
GROUP0
10
-2524.6414277049
20
1496.59294310429
30
6.69958518562108e-007
11
-2524.15906576081
21
1496.79274386651
31
9.27586145166304e-007
  0
LINE
 8
GROUP0
10
-2526.15906516625
20
1500.25684582492
30
1.08376285428702e-006
11
-2526.57327878317
21
1499.93900865082
31
8.20814649576951e-007
  0
LINE
 8
GROUP0
10
-2525.67670322216
20
1500.45664658714
30
1.34138705251696e-006
11
-2526.15906516625
21
1500.25684582492
31
1.08376285428702e-006
  0
LINE
 8
GROUP0
10
-2527.09091702727
20
1499.0424332675
30
3.49770331747878e-007
11
-2527.15906546353
21
1498.52479518899
31
1.73777799933328e-007
  0
LINE
 8
GROUP0
10
-2382.63744122516
20
1467.13202305454
30
9.46398113815861e-005
11
-2383.0641028978
21
1470.37284454046
31
9.52907147528381e-005
  0
LINE
 8
GROUP0
10
-2527.15906546353
20
1498.52479518899
30
1.73777799933328e-007
11
-2527.09091720495
21
1498.00715708709
31
5.44776035671379e-008
  0
LINE
 8
GROUP0
10
-2383.0641040188
20
1463.89120171621
30
9.36884389685977e-005
11
-2382.63744122516
21
1467.13202305454
31
9.46398113815861e-005
  0
LINE
 8
GROUP0
10
-2526.89111609947
20
1499.524795143
30
5.70461271742761e-007
11
-2527.09091702727
21
1499.0424332675
31
3.49770331747878e-007
  0
LINE
 8
GROUP0
10
-2524.64142704175
20
1500.45664640945
30
1.77201019215256e-006
11
-2525.15906512026
21
1500.52479484572
31
1.57613739577012e-006
  0
LINE
 8
GROUP0
10
-2525.15906512026
20
1500.52479484572
30
1.57613739577012e-006
11
-2525.67670322216
21
1500.45664658714
31
1.34138705251696e-006
  0
LINE
 8
GROUP0
10
-2526.57327878317
20
1499.93900865082
30
8.20814649576951e-007
11
-2526.89111609947
21
1499.524795143
31
5.70461271742761e-007
  0
LINE
 8
GROUP0
10
-2384.31501491443
20
1460.87123714395
30
9.25014318609973e-005
11
-2383.0641040188
21
1463.89120171621
31
9.36884389685977e-005
  0
LINE
 8
GROUP0
10
-2386.30492640174
20
1458.27793493265
30
9.11596828735373e-005
11
-2384.31501491443
21
1460.87123714395
31
9.25014318609973e-005
  0
LINE
 8
GROUP0
10
-2391.9181943063
20
1455.03711449134
30
8.83820246477485e-005
11
-2388.89822930136
21
1456.28802434236
31
8.97546297246754e-005
  0
LINE
 8
GROUP0
10
-2401.41980170281
20
1456.28802650798
30
8.53455860614416e-005
11
-2398.39983713055
21
1455.03711561235
31
8.60997357375326e-005
  0
LINE
 8
GROUP0
10
-2395.15901579222
20
1454.6104528187
30
8.71354083794185e-005
11
-2391.9181943063
21
1455.03711449134
31
8.83820246477485e-005
  0
LINE
 8
GROUP0
10
-2388.89822930136
20
1456.28802434236
30
8.97546297246754e-005
11
-2386.30492640174
21
1458.27793493265
31
9.11596828735373e-005
  0
LINE
 8
GROUP0
10
-2398.39983713055
20
1455.03711561235
30
8.60997357375326e-005
11
-2395.15901579222
21
1454.6104528187
31
8.71354083794185e-005
  0
LINE
 8
GROUP0
10
-2404.01310391411
20
1458.27793799529
30
8.49243535103017e-005
11
-2401.41980170281
21
1456.28802650798
31
8.53455860614416e-005
  0
LINE
 8
GROUP0
10
-2395.15901370642
20
1487.52498239633
30
9.52719485019293e-005
11
-2404.21346330304
21
1475.72499817051
31
8.91667530209583e-005
  0
LINE
 8
GROUP0
10
-2386.10456156344
20
1475.72499580171
30
9.55431839190945e-005
11
-2395.15901370642
21
1487.52498239633
31
9.52719485019293e-005
  0
LINE
 8
GROUP0
10
-2404.21346330304
20
1475.72499817051
30
8.91667530209583e-005
11
-2406.00301233878
21
1473.39281329635
31
8.79601035757072e-005
  0
LINE
 8
GROUP0
10
-2406.0030145044
20
1460.87124089491
30
8.48647442367734e-005
11
-2404.01310391411
21
1458.27793799529
31
8.49243535103017e-005
  0
LINE
 8
GROUP0
10
-2407.25392435542
20
1463.89120589985
30
8.51708206725865e-005
11
-2406.0030145044
21
1460.87124089491
31
8.48647442367734e-005
  0
LINE
 8
GROUP0
10
-2406.00301233878
20
1473.39281329635
30
8.79601035757072e-005
11
-2407.25392323442
21
1470.3728487241
31
8.67730964681068e-005
  0
LINE
 8
GROUP0
10
-2407.25392323442
20
1470.3728487241
30
8.67730964681068e-005
11
-2407.68058602806
21
1467.13202738577
31
8.58217240438386e-005
  0
LINE
 8
GROUP0
10
-2407.68058602806
20
1467.13202738577
30
8.58217240438386e-005
11
-2407.25392435542
21
1463.89120589985
31
8.51708206725865e-005
  0
LINE
 8
GROUP0
10
-2383.0641028978
20
1470.37284454046
30
9.52907147528381e-005
11
-2384.31501274882
21
1473.3928095454
31
9.55967911999311e-005
  0
LINE
 8
GROUP0
10
-2384.31501274882
20
1473.3928095454
30
9.55967911999311e-005
11
-2386.10456156344
21
1475.72499580171
31
9.55431839190945e-005
  0
LINE
 8
GROUP0
10
-2267.09091720486
20
1498.00711554364
30
0.000185859387147486
11
-2266.89111644264
21
1497.52475359955
31
0.000185804909273202
  0
LINE
 8
GROUP0
10
-2568.65896124293
20
1211.0256200081
30
0.00105591454823599
11
-2501.65896124293
21
1211.0256200081
31
0.00105591454823599
  0
LINE
 8
GROUP0
10
-2568.65896124293
20
1207.0256200081
30
0.00105591454823599
11
-2501.65896124293
21
1207.0256200081
31
0.00105591454823599
  0
LINE
 8
GROUP0
10
-2568.65896124293
20
1203.0256200081
30
0.00105591454823599
11
-2501.65896124293
21
1203.0256200081
31
0.00105591454823599
  0
LINE
 8
GROUP0
10
-2568.65896124293
20
1199.0256200081
30
0.00105591454823599
11
-2501.65896124293
21
1199.0256200081
31
0.00105591454823599
  0
LINE
 8
GROUP0
10
-2568.65896124293
20
1195.0256200081
30
0.00105591454816831
11
-2501.65896124293
21
1195.0256200081
31
0.00105591454816831
  0
LINE
 8
GROUP0
10
-2568.65896124293
20
1191.0256200081
30
0.00105591454816831
11
-2501.65896124293
21
1191.0256200081
31
0.00105591454816831
  0
LINE
 8
GROUP0
10
-2568.65896124293
20
1187.0256200081
30
0.00105591454817959
11
-2501.65896124293
21
1187.0256200081
31
0.00105591454817959
  0
LINE
 8
GROUP0
10
-2568.65896124293
20
1183.0256200081
30
0.00105591454823599
11
-2501.65896124293
21
1183.0256200081
31
0.00105591454823599
  0
LINE
 8
GROUP0
10
-2568.65896124293
20
1179.0256200081
30
0.00105591454823599
11
-2501.65896124293
21
1179.0256200081
31
0.00105591454823599
  0
LINE
 8
GROUP0
10
-2568.65896124293
20
1175.0256200081
30
0.00105591454823599
11
-2501.65896124293
21
1175.0256200081
31
0.00105591454823599
  0
LINE
 8
GROUP0
10
-2568.65896124293
20
1171.0256200081
30
0.00105591454823599
11
-2501.65896124293
21
1171.0256200081
31
0.00105591454823599
  0
LINE
 8
GROUP0
10
-2568.65896124293
20
1167.0256200081
30
0.00105591454823599
11
-2501.65896124293
21
1167.0256200081
31
0.00105591454823599
  0
LINE
 8
GROUP0
10
-2568.65896124293
20
1163.0256200081
30
0.00105591454816831
11
-2501.65896124293
21
1163.0256200081
31
0.00105591454816831
  0
LINE
 8
GROUP0
10
-2568.65896124293
20
1159.0256200081
30
0.00105591454817959
11
-2501.65896124293
21
1159.0256200081
31
0.00105591454817959
  0
LINE
 8
GROUP0
10
-2568.65896124293
20
1155.0256200081
30
0.00105591454823599
11
-2501.65896124293
21
1155.0256200081
31
0.00105591454823599
  0
LINE
 8
GROUP0
10
-2568.65896124293
20
1151.0256200081
30
0.00105591454823599
11
-2501.65896124293
21
1151.0256200081
31
0.00105591454823599
  0
LINE
 8
GROUP0
10
-2533.65896124293
20
1209.0256200081
30
0.00105591454816831
11
-2466.65896124293
21
1209.0256200081
31
0.00105591454816831
  0
LINE
 8
GROUP0
10
-2533.65896124293
20
1205.0256200081
30
0.00105591454817959
11
-2466.65896124293
21
1205.0256200081
31
0.00105591454817959
  0
LINE
 8
GROUP0
10
-2533.65896124293
20
1201.0256200081
30
0.00105591454823599
11
-2466.65896124293
21
1201.0256200081
31
0.00105591454823599
  0
LINE
 8
GROUP0
10
-2533.65896124293
20
1197.0256200081
30
0.00105591454823599
11
-2466.65896124293
21
1197.0256200081
31
0.00105591454823599
  0
LINE
 8
GROUP0
10
-2533.65896124293
20
1193.0256200081
30
0.00105591454823599
11
-2466.65896124293
21
1193.0256200081
31
0.00105591454823599
  0
LINE
 8
GROUP0
10
-2533.65896124293
20
1189.0256200081
30
0.00105591454823599
11
-2466.65896124293
21
1189.0256200081
31
0.00105591454823599
  0
LINE
 8
GROUP0
10
-2533.65896124293
20
1185.0256200081
30
0.00105591454823599
11
-2466.65896124293
21
1185.0256200081
31
0.00105591454823599
  0
LINE
 8
GROUP0
10
-2533.65896124293
20
1181.0256200081
30
0.00105591454823599
11
-2466.65896124293
21
1181.0256200081
31
0.00105591454823599
  0
LINE
 8
GROUP0
10
-2533.65896124293
20
1177.0256200081
30
0.00105591454816831
11
-2466.65896124293
21
1177.0256200081
31
0.00105591454816831
  0
LINE
 8
GROUP0
10
-2533.65896124293
20
1173.0256200081
30
0.00105591454817959
11
-2466.65896124293
21
1173.0256200081
31
0.00105591454817959
  0
LINE
 8
GROUP0
10
-2533.65896124293
20
1169.0256200081
30
0.00105591454823599
11
-2466.65896124293
21
1169.0256200081
31
0.00105591454823599
  0
LINE
 8
GROUP0
10
-2533.65896124293
20
1165.0256200081
30
0.00105591454823599
11
-2466.65896124293
21
1165.0256200081
31
0.00105591454823599
  0
LINE
 8
GROUP0
10
-2533.65896124293
20
1161.0256200081
30
0.00105591454823599
11
-2466.65896124293
21
1161.0256200081
31
0.00105591454823599
  0
LINE
 8
GROUP0
10
-2533.65896124293
20
1157.0256200081
30
0.00105591454823599
11
-2466.65896124293
21
1157.0256200081
31
0.00105591454823599
  0
LINE
 8
GROUP0
10
-2533.65896124293
20
1153.0256200081
30
0.00105591454823599
11
-2466.65896124293
21
1153.0256200081
31
0.00105591454823599
  0
LINE
 8
GROUP0
10
-2498.65896124293
20
1211.0256200081
30
0.00105591454823599
11
-2431.65896124293
21
1211.0256200081
31
0.00105591454823599
  0
LINE
 8
GROUP0
10
-2498.65896124293
20
1207.0256200081
30
0.00105591454823599
11
-2431.65896124293
21
1207.0256200081
31
0.00105591454823599
  0
LINE
 8
GROUP0
10
-2498.65896124293
20
1203.0256200081
30
0.00105591454823599
11
-2431.65896124293
21
1203.0256200081
31
0.00105591454823599
  0
LINE
 8
GROUP0
10
-2498.65896124293
20
1199.0256200081
30
0.00105591454823599
11
-2431.65896124293
21
1199.0256200081
31
0.00105591454823599
  0
LINE
 8
GROUP0
10
-2498.65896124293
20
1195.0256200081
30
0.00105591454816831
11
-2431.65896124293
21
1195.0256200081
31
0.00105591454816831
  0
LINE
 8
GROUP0
10
-2498.65896124293
20
1191.0256200081
30
0.00105591454816831
11
-2431.65896124293
21
1191.0256200081
31
0.00105591454816831
  0
LINE
 8
GROUP0
10
-2498.65896124293
20
1187.0256200081
30
0.00105591454817959
11
-2431.65896124293
21
1187.0256200081
31
0.00105591454817959
  0
LINE
 8
GROUP0
10
-2498.65896124293
20
1183.0256200081
30
0.00105591454823599
11
-2431.65896124293
21
1183.0256200081
31
0.00105591454823599
  0
LINE
 8
GROUP0
10
-2498.65896124293
20
1179.0256200081
30
0.00105591454823599
11
-2431.65896124293
21
1179.0256200081
31
0.00105591454823599
  0
LINE
 8
GROUP0
10
-2498.65896124293
20
1175.0256200081
30
0.00105591454823599
11
-2431.65896124293
21
1175.0256200081
31
0.00105591454823599
  0
LINE
 8
GROUP0
10
-2498.65896124293
20
1171.0256200081
30
0.00105591454823599
11
-2431.65896124293
21
1171.0256200081
31
0.00105591454823599
  0
LINE
 8
GROUP0
10
-2498.65896124293
20
1167.0256200081
30
0.00105591454823599
11
-2431.65896124293
21
1167.0256200081
31
0.00105591454823599
  0
LINE
 8
GROUP0
10
-2498.65896124293
20
1163.0256200081
30
0.00105591454816831
11
-2431.65896124293
21
1163.0256200081
31
0.00105591454816831
  0
LINE
 8
GROUP0
10
-2498.65896124293
20
1159.0256200081
30
0.00105591454817959
11
-2431.65896124293
21
1159.0256200081
31
0.00105591454817959
  0
LINE
 8
GROUP0
10
-2498.65896124293
20
1155.0256200081
30
0.00105591454823599
11
-2431.65896124293
21
1155.0256200081
31
0.00105591454823599
  0
LINE
 8
GROUP0
10
-2498.65896124293
20
1151.0256200081
30
0.00105591454823599
11
-2431.65896124293
21
1151.0256200081
31
0.00105591454823599
  0
LINE
 8
GROUP0
10
-2463.65896124293
20
1209.0256200081
30
0.00105591454816831
11
-2396.65896124293
21
1209.0256200081
31
0.00105591454816831
  0
LINE
 8
GROUP0
10
-2463.65896124293
20
1201.0256200081
30
0.00105591454823599
11
-2396.65896124293
21
1201.0256200081
31
0.00105591454823599
  0
LINE
 8
GROUP0
10
-2463.65896124293
20
1197.0256200081
30
0.00105591454823599
11
-2396.65896124293
21
1197.0256200081
31
0.00105591454823599
  0
LINE
 8
GROUP0
10
-2463.65896124293
20
1193.0256200081
30
0.00105591454823599
11
-2396.65896124293
21
1193.0256200081
31
0.00105591454823599
  0
LINE
 8
GROUP0
10
-2463.65896124293
20
1189.0256200081
30
0.00105591454823599
11
-2396.65896124293
21
1189.0256200081
31
0.00105591454823599
  0
LINE
 8
GROUP0
10
-2463.65896124293
20
1177.0256200081
30
0.00105591454816831
11
-2396.65896124293
21
1177.0256200081
31
0.00105591454816831
  0
LINE
 8
GROUP0
10
-2463.65896124293
20
1185.0256200081
30
0.00105591454823599
11
-2396.65896124293
21
1185.0256200081
31
0.00105591454823599
  0
LINE
 8
GROUP0
10
-2463.65896124293
20
1205.0256200081
30
0.00105591454817959
11
-2396.65896124293
21
1205.0256200081
31
0.00105591454817959
  0
LINE
 8
GROUP0
10
-2428.65896124293
20
1211.0256200081
30
0.00105591454823599
11
-2361.65896124293
21
1211.0256200081
31
0.00105591454823599
  0
LINE
 8
GROUP0
10
-2463.65896124293
20
1157.0256200081
30
0.00105591454823599
11
-2396.65896124293
21
1157.0256200081
31
0.00105591454823599
  0
LINE
 8
GROUP0
10
-2463.65896124293
20
1153.0256200081
30
0.00105591454823599
11
-2396.65896124293
21
1153.0256200081
31
0.00105591454823599
  0
LINE
 8
GROUP0
10
-2428.65896124293
20
1151.0256200081
30
0.00105591454823599
11
-2361.65896124293
21
1151.0256200081
31
0.00105591454823599
  0
LINE
 8
GROUP0
10
-2463.65896124293
20
1181.0256200081
30
0.00105591454823599
11
-2396.65896124293
21
1181.0256200081
31
0.00105591454823599
  0
LINE
 8
GROUP0
10
-2428.65896124293
20
1199.0256200081
30
0.00105591454823599
11
-2361.65896124293
21
1199.0256200081
31
0.00105591454823599
  0
LINE
 8
GROUP0
10
-2463.65896124293
20
1161.0256200081
30
0.00105591454823599
11
-2396.65896124293
21
1161.0256200081
31
0.00105591454823599
  0
LINE
 8
GROUP0
10
-2428.65896124293
20
1159.0256200081
30
0.00105591454817959
11
-2361.65896124293
21
1159.0256200081
31
0.00105591454817959
  0
LINE
 8
GROUP0
10
-2463.65896124293
20
1165.0256200081
30
0.00105591454823599
11
-2396.65896124293
21
1165.0256200081
31
0.00105591454823599
  0
LINE
 8
GROUP0
10
-2463.65896124293
20
1169.0256200081
30
0.00105591454823599
11
-2396.65896124293
21
1169.0256200081
31
0.00105591454823599
  0
LINE
 8
GROUP0
10
-2428.65896124293
20
1179.0256200081
30
0.00105591454823599
11
-2361.65896124293
21
1179.0256200081
31
0.00105591454823599
  0
LINE
 8
GROUP0
10
-2428.65896124293
20
1183.0256200081
30
0.00105591454823599
11
-2361.65896124293
21
1183.0256200081
31
0.00105591454823599
  0
LINE
 8
GROUP0
10
-2463.65896124293
20
1173.0256200081
30
0.00105591454817959
11
-2396.65896124293
21
1173.0256200081
31
0.00105591454817959
  0
LINE
 8
GROUP0
10
-2428.65896124293
20
1163.0256200081
30
0.00105591454816831
11
-2361.65896124293
21
1163.0256200081
31
0.00105591454816831
  0
LINE
 8
GROUP0
10
-2428.65896124293
20
1175.0256200081
30
0.00105591454823599
11
-2361.65896124293
21
1175.0256200081
31
0.00105591454823599
  0
LINE
 8
GROUP0
10
-2428.65896124293
20
1155.0256200081
30
0.00105591454823599
11
-2361.65896124293
21
1155.0256200081
31
0.00105591454823599
  0
LINE
 8
GROUP0
10
-2428.65896124293
20
1203.0256200081
30
0.00105591454823599
11
-2361.65896124293
21
1203.0256200081
31
0.00105591454823599
  0
LINE
 8
GROUP0
10
-2428.65896124293
20
1195.0256200081
30
0.00105591454816831
11
-2361.65896124293
21
1195.0256200081
31
0.00105591454816831
  0
LINE
 8
GROUP0
10
-2428.65896124293
20
1167.0256200081
30
0.00105591454823599
11
-2361.65896124293
21
1167.0256200081
31
0.00105591454823599
  0
LINE
 8
GROUP0
10
-2428.65896124293
20
1207.0256200081
30
0.00105591454823599
11
-2361.65896124293
21
1207.0256200081
31
0.00105591454823599
  0
LINE
 8
GROUP0
10
-2428.65896124293
20
1191.0256200081
30
0.00105591454816831
11
-2361.65896124293
21
1191.0256200081
31
0.00105591454816831
  0
LINE
 8
GROUP0
10
-2428.65896124293
20
1171.0256200081
30
0.00105591454823599
11
-2361.65896124293
21
1171.0256200081
31
0.00105591454823599
  0
LINE
 8
GROUP0
10
-2428.65896124293
20
1187.0256200081
30
0.00105591454817959
11
-2361.65896124293
21
1187.0256200081
31
0.00105591454817959
  0
LINE
 8
GROUP0
10
-2393.65896124293
20
1209.0256200081
30
0.00105591454816831
11
-2326.65896124293
21
1209.0256200081
31
0.00105591454816831
  0
LINE
 8
GROUP0
10
-2393.65896124293
20
1193.0256200081
30
0.00105591454823599
11
-2326.65896124293
21
1193.0256200081
31
0.00105591454823599
  0
LINE
 8
GROUP0
10
-2393.65896124293
20
1201.0256200081
30
0.00105591454823599
11
-2326.65896124293
21
1201.0256200081
31
0.00105591454823599
  0
LINE
 8
GROUP0
10
-2393.65896124293
20
1185.0256200081
30
0.00105591454823599
11
-2326.65896124293
21
1185.0256200081
31
0.00105591454823599
  0
LINE
 8
GROUP0
10
-2358.65896124293
20
1211.0256200081
30
0.00105591454823599
11
-2291.65896124293
21
1211.0256200081
31
0.00105591454823599
  0
LINE
 8
GROUP0
10
-2393.65896124293
20
1157.0256200081
30
0.00105591454823599
11
-2326.65896124293
21
1157.0256200081
31
0.00105591454823599
  0
LINE
 8
GROUP0
10
-2393.65896124293
20
1153.0256200081
30
0.00105591454823599
11
-2326.65896124293
21
1153.0256200081
31
0.00105591454823599
  0
LINE
 8
GROUP0
10
-2393.65896124293
20
1205.0256200081
30
0.00105591454817959
11
-2326.65896124293
21
1205.0256200081
31
0.00105591454817959
  0
LINE
 8
GROUP0
10
-2393.65896124293
20
1177.0256200081
30
0.00105591454816831
11
-2326.65896124293
21
1177.0256200081
31
0.00105591454816831
  0
LINE
 8
GROUP0
10
-2393.65896124293
20
1197.0256200081
30
0.00105591454823599
11
-2326.65896124293
21
1197.0256200081
31
0.00105591454823599
  0
LINE
 8
GROUP0
10
-2393.65896124293
20
1189.0256200081
30
0.00105591454823599
11
-2326.65896124293
21
1189.0256200081
31
0.00105591454823599
  0
LINE
 8
GROUP0
10
-2358.65896124293
20
1155.0256200081
30
0.00105591454823599
11
-2291.65896124293
21
1155.0256200081
31
0.00105591454823599
  0
LINE
 8
GROUP0
10
-2358.65896124293
20
1171.0256200081
30
0.00105591454823599
11
-2291.65896124293
21
1171.0256200081
31
0.00105591454823599
  0
LINE
 8
GROUP0
10
-2358.65896124293
20
1195.0256200081
30
0.00105591454816831
11
-2291.65896124293
21
1195.0256200081
31
0.00105591454816831
  0
LINE
 8
GROUP0
10
-2393.65896124293
20
1169.0256200081
30
0.00105591454823599
11
-2326.65896124293
21
1169.0256200081
31
0.00105591454823599
  0
LINE
 8
GROUP0
10
-2358.65896124293
20
1203.0256200081
30
0.00105591454823599
11
-2291.65896124293
21
1203.0256200081
31
0.00105591454823599
  0
LINE
 8
GROUP0
10
-2358.65896124293
20
1167.0256200081
30
0.00105591454823599
11
-2291.65896124293
21
1167.0256200081
31
0.00105591454823599
  0
LINE
 8
GROUP0
10
-2358.65896124293
20
1151.0256200081
30
0.00105591454823599
11
-2291.65896124293
21
1151.0256200081
31
0.00105591454823599
  0
LINE
 8
GROUP0
10
-2358.65896124293
20
1199.0256200081
30
0.00105591454823599
11
-2291.65896124293
21
1199.0256200081
31
0.00105591454823599
  0
LINE
 8
GROUP0
10
-2358.65896124293
20
1207.0256200081
30
0.00105591454823599
11
-2291.65896124293
21
1207.0256200081
31
0.00105591454823599
  0
LINE
 8
GROUP0
10
-2358.65896124293
20
1179.0256200081
30
0.00105591454823599
11
-2291.65896124293
21
1179.0256200081
31
0.00105591454823599
  0
LINE
 8
GROUP0
10
-2358.65896124293
20
1191.0256200081
30
0.00105591454816831
11
-2291.65896124293
21
1191.0256200081
31
0.00105591454816831
  0
LINE
 8
GROUP0
10
-2393.65896124293
20
1161.0256200081
30
0.00105591454823599
11
-2326.65896124293
21
1161.0256200081
31
0.00105591454823599
  0
LINE
 8
GROUP0
10
-2358.65896124293
20
1183.0256200081
30
0.00105591454823599
11
-2291.65896124293
21
1183.0256200081
31
0.00105591454823599
  0
LINE
 8
GROUP0
10
-2358.65896124293
20
1187.0256200081
30
0.00105591454817959
11
-2291.65896124293
21
1187.0256200081
31
0.00105591454817959
  0
LINE
 8
GROUP0
10
-2393.65896124293
20
1181.0256200081
30
0.00105591454823599
11
-2326.65896124293
21
1181.0256200081
31
0.00105591454823599
  0
LINE
 8
GROUP0
10
-2358.65896124293
20
1159.0256200081
30
0.00105591454817959
11
-2291.65896124293
21
1159.0256200081
31
0.00105591454817959
  0
LINE
 8
GROUP0
10
-2358.65896124293
20
1175.0256200081
30
0.00105591454823599
11
-2291.65896124293
21
1175.0256200081
31
0.00105591454823599
  0
LINE
 8
GROUP0
10
-2393.65896124293
20
1173.0256200081
30
0.00105591454817959
11
-2326.65896124293
21
1173.0256200081
31
0.00105591454817959
  0
LINE
 8
GROUP0
10
-2358.65896124293
20
1163.0256200081
30
0.00105591454816831
11
-2291.65896124293
21
1163.0256200081
31
0.00105591454816831
  0
LINE
 8
GROUP0
10
-2393.65896124293
20
1165.0256200081
30
0.00105591454823599
11
-2326.65896124293
21
1165.0256200081
31
0.00105591454823599
  0
LINE
 8
GROUP0
10
-2323.65896124293
20
1193.0256200081
30
0.00105591454823599
11
-2256.65896124293
21
1193.0256200081
31
0.00105591454823599
  0
LINE
 8
GROUP0
10
-2323.65896124293
20
1201.0256200081
30
0.00105591454823599
11
-2256.65896124293
21
1201.0256200081
31
0.00105591454823599
  0
LINE
 8
GROUP0
10
-2323.65896124293
20
1209.0256200081
30
0.00105591454816831
11
-2256.65896124293
21
1209.0256200081
31
0.00105591454816831
  0
LINE
 8
GROUP0
10
-2323.65896124293
20
1185.0256200081
30
0.00105591454823599
11
-2256.65896124293
21
1185.0256200081
31
0.00105591454823599
  0
LINE
 8
GROUP0
10
-2323.65896124293
20
1157.0256200081
30
0.00105591454823599
11
-2256.65896124293
21
1157.0256200081
31
0.00105591454823599
  0
LINE
 8
GROUP0
10
-2323.65896124293
20
1205.0256200081
30
0.00105591454817959
11
-2256.65896124293
21
1205.0256200081
31
0.00105591454817959
  0
LINE
 8
GROUP0
10
-2323.65896124293
20
1177.0256200081
30
0.00105591454816831
11
-2256.65896124293
21
1177.0256200081
31
0.00105591454816831
  0
LINE
 8
GROUP0
10
-2323.65896124293
20
1153.0256200081
30
0.00105591454823599
11
-2256.65896124293
21
1153.0256200081
31
0.00105591454823599
  0
LINE
 8
GROUP0
10
-2288.65896124293
20
1211.0256200081
30
0.00105591454823599
11
-2221.65896124293
21
1211.0256200081
31
0.00105591454823599
  0
LINE
 8
GROUP0
10
-2323.65896124293
20
1197.0256200081
30
0.00105591454823599
11
-2256.65896124293
21
1197.0256200081
31
0.00105591454823599
  0
LINE
 8
GROUP0
10
-2288.65896124293
20
1171.0256200081
30
0.00105591454823599
11
-2221.65896124293
21
1171.0256200081
31
0.00105591454823599
  0
LINE
 8
GROUP0
10
-2288.65896124293
20
1151.0256200081
30
0.00105591454823599
11
-2221.65896124293
21
1151.0256200081
31
0.00105591454823599
  0
LINE
 8
GROUP0
10
-2288.65896124293
20
1203.0256200081
30
0.00105591454823599
11
-2221.65896124293
21
1203.0256200081
31
0.00105591454823599
  0
LINE
 8
GROUP0
10
-2288.65896124293
20
1155.0256200081
30
0.00105591454823599
11
-2221.65896124293
21
1155.0256200081
31
0.00105591454823599
  0
LINE
 8
GROUP0
10
-2288.65896124293
20
1195.0256200081
30
0.00105591454816831
11
-2221.65896124293
21
1195.0256200081
31
0.00105591454816831
  0
LINE
 8
GROUP0
10
-2288.65896124293
20
1167.0256200081
30
0.00105591454823599
11
-2221.65896124293
21
1167.0256200081
31
0.00105591454823599
  0
LINE
 8
GROUP0
10
-2288.65896124293
20
1179.0256200081
30
0.00105591454823599
11
-2221.65896124293
21
1179.0256200081
31
0.00105591454823599
  0
LINE
 8
GROUP0
10
-2288.65896124293
20
1207.0256200081
30
0.00105591454823599
11
-2221.65896124293
21
1207.0256200081
31
0.00105591454823599
  0
LINE
 8
GROUP0
10
-2323.65896124293
20
1181.0256200081
30
0.00105591454823599
11
-2256.65896124293
21
1181.0256200081
31
0.00105591454823599
  0
LINE
 8
GROUP0
10
-2288.65896124293
20
1159.0256200081
30
0.00105591454817959
11
-2221.65896124293
21
1159.0256200081
31
0.00105591454817959
  0
LINE
 8
GROUP0
10
-2323.65896124293
20
1173.0256200081
30
0.00105591454817959
11
-2256.65896124293
21
1173.0256200081
31
0.00105591454817959
  0
LINE
 8
GROUP0
10
-2288.65896124293
20
1191.0256200081
30
0.00105591454816831
11
-2221.65896124293
21
1191.0256200081
31
0.00105591454816831
  0
LINE
 8
GROUP0
10
-2323.65896124293
20
1189.0256200081
30
0.00105591454823599
11
-2256.65896124293
21
1189.0256200081
31
0.00105591454823599
  0
LINE
 8
GROUP0
10
-2323.65896124293
20
1161.0256200081
30
0.00105591454823599
11
-2256.65896124293
21
1161.0256200081
31
0.00105591454823599
  0
LINE
 8
GROUP0
10
-2288.65896124293
20
1187.0256200081
30
0.00105591454817959
11
-2221.65896124293
21
1187.0256200081
31
0.00105591454817959
  0
LINE
 8
GROUP0
10
-2288.65896124293
20
1163.0256200081
30
0.00105591454816831
11
-2221.65896124293
21
1163.0256200081
31
0.00105591454816831
  0
LINE
 8
GROUP0
10
-2323.65896124293
20
1165.0256200081
30
0.00105591454823599
11
-2256.65896124293
21
1165.0256200081
31
0.00105591454823599
  0
LINE
 8
GROUP0
10
-2323.65896124293
20
1169.0256200081
30
0.00105591454823599
11
-2256.65896124293
21
1169.0256200081
31
0.00105591454823599
  0
LINE
 8
GROUP0
10
-2288.65896124293
20
1175.0256200081
30
0.00105591454823599
11
-2221.65896124293
21
1175.0256200081
31
0.00105591454823599
  0
LINE
 8
GROUP0
10
-2288.65896124293
20
1183.0256200081
30
0.00105591454823599
11
-2221.65896124293
21
1183.0256200081
31
0.00105591454823599
  0
LINE
 8
GROUP0
10
-2288.65896124293
20
1199.0256200081
30
0.00105591454823599
11
-2221.65896124293
21
1199.0256200081
31
0.00105591454823599
  0
LINE
 8
GROUP0
10
-2568.65896124293
20
1211.0256200081
30
0.00105591454823599
11
-2569.15896124293
21
1211.0256200081
31
0.00105591454823599
  0
LINE
 8
GROUP0
10
-2568.65896124293
20
1207.0256200081
30
0.00105591454823599
11
-2569.15896124293
21
1207.0256200081
31
0.00105591454823599
  0
LINE
 8
GROUP0
10
-2568.65896124293
20
1203.0256200081
30
0.00105591454823599
11
-2569.15896124293
21
1203.0256200081
31
0.00105591454823599
  0
LINE
 8
GROUP0
10
-2568.65896124293
20
1199.0256200081
30
0.00105591454823599
11
-2569.15896124293
21
1199.0256200081
31
0.00105591454823599
  0
LINE
 8
GROUP0
10
-2568.65896124293
20
1195.0256200081
30
0.00105591454816831
11
-2569.15896124293
21
1195.0256200081
31
0.00105591454816831
  0
LINE
 8
GROUP0
10
-2568.65896124293
20
1191.0256200081
30
0.00105591454816831
11
-2569.15896124293
21
1191.0256200081
31
0.00105591454816831
  0
LINE
 8
GROUP0
10
-2568.65896124293
20
1187.0256200081
30
0.00105591454817959
11
-2569.15896124293
21
1187.0256200081
31
0.00105591454817959
  0
LINE
 8
GROUP0
10
-2568.65896124293
20
1183.0256200081
30
0.00105591454823599
11
-2569.15896124293
21
1183.0256200081
31
0.00105591454823599
  0
LINE
 8
GROUP0
10
-2568.65896124293
20
1179.0256200081
30
0.00105591454823599
11
-2569.15896124293
21
1179.0256200081
31
0.00105591454823599
  0
LINE
 8
GROUP0
10
-2568.65896124293
20
1175.0256200081
30
0.00105591454823599
11
-2569.15896124293
21
1175.0256200081
31
0.00105591454823599
  0
LINE
 8
GROUP0
10
-2568.65896124293
20
1171.0256200081
30
0.00105591454823599
11
-2569.15896124293
21
1171.0256200081
31
0.00105591454823599
  0
LINE
 8
GROUP0
10
-2568.65896124293
20
1167.0256200081
30
0.00105591454823599
11
-2569.15896124293
21
1167.0256200081
31
0.00105591454823599
  0
LINE
 8
GROUP0
10
-2568.65896124293
20
1163.0256200081
30
0.00105591454816831
11
-2569.15896124293
21
1163.0256200081
31
0.00105591454816831
  0
LINE
 8
GROUP0
10
-2568.65896124293
20
1159.0256200081
30
0.00105591454817959
11
-2569.15896124293
21
1159.0256200081
31
0.00105591454817959
  0
LINE
 8
GROUP0
10
-2568.65896124293
20
1155.0256200081
30
0.00105591454823599
11
-2569.15896124293
21
1155.0256200081
31
0.00105591454823599
  0
LINE
 8
GROUP0
10
-2568.65896124293
20
1151.0256200081
30
0.00105591454823599
11
-2569.15896124293
21
1151.0256200081
31
0.00105591454823599
  0
LINE
 8
GROUP0
10
-2221.65896124293
20
1211.0256200081
30
0.00105591454823599
11
-2221.15896124293
21
1211.0256200081
31
0.00105591454823599
  0
LINE
 8
GROUP0
10
-2221.65896124293
20
1207.0256200081
30
0.00105591454823599
11
-2221.15896124293
21
1207.0256200081
31
0.00105591454823599
  0
LINE
 8
GROUP0
10
-2221.65896124293
20
1203.0256200081
30
0.00105591454823599
11
-2221.15896124293
21
1203.0256200081
31
0.00105591454823599
  0
LINE
 8
GROUP0
10
-2221.65896124293
20
1199.0256200081
30
0.00105591454823599
11
-2221.15896124293
21
1199.0256200081
31
0.00105591454823599
  0
LINE
 8
GROUP0
10
-2221.65896124293
20
1195.0256200081
30
0.00105591454816831
11
-2221.15896124293
21
1195.0256200081
31
0.00105591454816831
  0
LINE
 8
GROUP0
10
-2221.65896124293
20
1191.0256200081
30
0.00105591454816831
11
-2221.15896124293
21
1191.0256200081
31
0.00105591454816831
  0
LINE
 8
GROUP0
10
-2221.65896124293
20
1187.0256200081
30
0.00105591454817959
11
-2221.15896124293
21
1187.0256200081
31
0.00105591454817959
  0
LINE
 8
GROUP0
10
-2221.65896124293
20
1183.0256200081
30
0.00105591454823599
11
-2221.15896124293
21
1183.0256200081
31
0.00105591454823599
  0
LINE
 8
GROUP0
10
-2221.65896124293
20
1179.0256200081
30
0.00105591454823599
11
-2221.15896124293
21
1179.0256200081
31
0.00105591454823599
  0
LINE
 8
GROUP0
10
-2221.65896124293
20
1175.0256200081
30
0.00105591454823599
11
-2221.15896124293
21
1175.0256200081
31
0.00105591454823599
  0
LINE
 8
GROUP0
10
-2221.65896124293
20
1171.0256200081
30
0.00105591454823599
11
-2221.15896124293
21
1171.0256200081
31
0.00105591454823599
  0
LINE
 8
GROUP0
10
-2221.65896124293
20
1167.0256200081
30
0.00105591454823599
11
-2221.15896124293
21
1167.0256200081
31
0.00105591454823599
  0
LINE
 8
GROUP0
10
-2221.65896124293
20
1163.0256200081
30
0.00105591454816831
11
-2221.15896124293
21
1163.0256200081
31
0.00105591454816831
  0
LINE
 8
GROUP0
10
-2221.65896124293
20
1159.0256200081
30
0.00105591454817959
11
-2221.15896124293
21
1159.0256200081
31
0.00105591454817959
  0
LINE
 8
GROUP0
10
-2221.65896124293
20
1155.0256200081
30
0.00105591454823599
11
-2221.15896124293
21
1155.0256200081
31
0.00105591454823599
  0
LINE
 8
GROUP0
10
-2221.65896124293
20
1151.0256200081
30
0.00105591454823599
11
-2221.15896124293
21
1151.0256200081
31
0.00105591454823599
  0
LINE
 8
GROUP0
10
-2533.65896124293
20
1213.0256200081
30
0.00105591454822471
11
-2466.65896124293
21
1213.0256200081
31
0.00105591454822471
  0
LINE
 8
GROUP0
10
-2393.65896124293
20
1213.0256200081
30
0.00105591454822471
11
-2326.65896124293
21
1213.0256200081
31
0.00105591454822471
  0
LINE
 8
GROUP0
10
-2428.65896124293
20
1215.0256200081
30
0.00105591454824727
11
-2361.65896124293
21
1215.0256200081
31
0.00105591454824727
  0
LINE
 8
GROUP0
10
-2221.65896124293
20
1215.0256200081
30
0.00105591454824727
11
-2221.15896124293
21
1215.0256200081
31
0.00105591454824727
  0
LINE
 8
GROUP0
10
-2568.65896124293
20
1215.0256200081
30
0.00105591454824727
11
-2569.15896124293
21
1215.0256200081
31
0.00105591454824727
  0
LINE
 8
GROUP0
10
-2498.65896124293
20
1215.0256200081
30
0.00105591454824727
11
-2431.65896124293
21
1215.0256200081
31
0.00105591454824727
  0
LINE
 8
GROUP0
10
-2288.65896124293
20
1215.0256200081
30
0.00105591454824727
11
-2221.65896124293
21
1215.0256200081
31
0.00105591454824727
  0
LINE
 8
GROUP0
10
-2358.65896124293
20
1215.0256200081
30
0.00105591454824727
11
-2291.65896124293
21
1215.0256200081
31
0.00105591454824727
  0
LINE
 8
GROUP0
10
-2568.65896124293
20
1215.0256200081
30
0.00105591454824727
11
-2501.65896124293
21
1215.0256200081
31
0.00105591454824727
  0
LINE
 8
GROUP0
10
-2463.65896124293
20
1213.0256200081
30
0.00105591454822471
11
-2396.65896124293
21
1213.0256200081
31
0.00105591454822471
  0
LINE
 8
GROUP0
10
-2323.65896124293
20
1213.0256200081
30
0.00105591454822471
11
-2256.65896124293
21
1213.0256200081
31
0.00105591454822471
  0
LINE
 8
GROUP0
10
-2428.65896124293
20
1219.0256200081
30
0.00105591454819087
11
-2361.65896124293
21
1219.0256200081
31
0.00105591454819087
  0
LINE
 8
GROUP0
10
-2498.65896124293
20
1219.0256200081
30
0.00105591454819087
11
-2431.65896124293
21
1219.0256200081
31
0.00105591454819087
  0
LINE
 8
GROUP0
10
-2533.65896124293
20
1217.0256200081
30
0.00105591454822471
11
-2466.65896124293
21
1217.0256200081
31
0.00105591454822471
  0
LINE
 8
GROUP0
10
-2568.65896124293
20
1219.0256200081
30
0.00105591454819087
11
-2569.15896124293
21
1219.0256200081
31
0.00105591454819087
  0
LINE
 8
GROUP0
10
-2221.65896124293
20
1219.0256200081
30
0.00105591454819087
11
-2221.15896124293
21
1219.0256200081
31
0.00105591454819087
  0
LINE
 8
GROUP0
10
-2358.65896124293
20
1219.0256200081
30
0.00105591454819087
11
-2291.65896124293
21
1219.0256200081
31
0.00105591454819087
  0
LINE
 8
GROUP0
10
-2288.65896124293
20
1219.0256200081
30
0.00105591454819087
11
-2221.65896124293
21
1219.0256200081
31
0.00105591454819087
  0
LINE
 8
GROUP0
10
-2393.65896124293
20
1217.0256200081
30
0.00105591454822471
11
-2326.65896124293
21
1217.0256200081
31
0.00105591454822471
  0
LINE
 8
GROUP0
10
-2463.65896124293
20
1217.0256200081
30
0.00105591454822471
11
-2396.65896124293
21
1217.0256200081
31
0.00105591454822471
  0
LINE
 8
GROUP0
10
-2323.65896124293
20
1217.0256200081
30
0.00105591454822471
11
-2256.65896124293
21
1217.0256200081
31
0.00105591454822471
  0
LINE
 8
GROUP0
10
-2568.65896124293
20
1219.0256200081
30
0.00105591454819087
11
-2501.65896124293
21
1219.0256200081
31
0.00105591454819087
  0
LINE
 8
GROUP0
10
-2218.65896124293
20
1151.0256200081
30
0.00105591454823599
11
-2151.65896124293
21
1151.0256200081
31
0.00105591454823599
  0
LINE
 8
GROUP0
10
-2218.65896124293
20
1171.0256200081
30
0.00105591454823599
11
-2151.65896124293
21
1171.0256200081
31
0.00105591454823599
  0
LINE
 8
GROUP0
10
-2253.65896124293
20
1185.0256200081
30
0.00105591454823599
11
-2186.65896124293
21
1185.0256200081
31
0.00105591454823599
  0
LINE
 8
GROUP0
10
-2253.65896124293
20
1209.0256200081
30
0.00105591454815703
11
-2186.65896124293
21
1209.0256200081
31
0.00105591454815703
  0
LINE
 8
GROUP0
10
-2253.65896124293
20
1197.0256200081
30
0.00105591454823599
11
-2186.65896124293
21
1197.0256200081
31
0.00105591454823599
  0
LINE
 8
GROUP0
10
-2218.65896124293
20
1195.0256200081
30
0.00105591454815703
11
-2151.65896124293
21
1195.0256200081
31
0.00105591454815703
  0
LINE
 8
GROUP0
10
-2218.65896124293
20
1203.0256200081
30
0.00105591454823599
11
-2151.65896124293
21
1203.0256200081
31
0.00105591454823599
  0
LINE
 8
GROUP0
10
-2218.65896124293
20
1167.0256200081
30
0.00105591454823599
11
-2151.65896124293
21
1167.0256200081
31
0.00105591454823599
  0
LINE
 8
GROUP0
10
-2218.65896124293
20
1179.0256200081
30
0.00105591454823599
11
-2151.65896124293
21
1179.0256200081
31
0.00105591454823599
  0
LINE
 8
GROUP0
10
-2218.65896124293
20
1207.0256200081
30
0.00105591454823599
11
-2151.65896124293
21
1207.0256200081
31
0.00105591454823599
  0
LINE
 8
GROUP0
10
-2253.65896124293
20
1181.0256200081
30
0.00105591454823599
11
-2186.65896124293
21
1181.0256200081
31
0.00105591454823599
  0
LINE
 8
GROUP0
10
-2218.65896124293
20
1155.0256200081
30
0.00105591454823599
11
-2151.65896124293
21
1155.0256200081
31
0.00105591454823599
  0
LINE
 8
GROUP0
10
-2218.65896124293
20
1211.0256200081
30
0.00105591454823599
11
-2151.65896124293
21
1211.0256200081
31
0.00105591454823599
  0
LINE
 8
GROUP0
10
-2253.65896124293
20
1201.0256200081
30
0.00105591454823599
11
-2186.65896124293
21
1201.0256200081
31
0.00105591454823599
  0
LINE
 8
GROUP0
10
-2218.65896124293
20
1175.0256200081
30
0.00105591454823599
11
-2151.65896124293
21
1175.0256200081
31
0.00105591454823599
  0
LINE
 8
GROUP0
10
-2253.65896124293
20
1217.0256200081
30
0.00105591454822471
11
-2186.65896124293
21
1217.0256200081
31
0.00105591454822471
  0
LINE
 8
GROUP0
10
-2218.65896124293
20
1191.0256200081
30
0.00105591454815703
11
-2151.65896124293
21
1191.0256200081
31
0.00105591454815703
  0
LINE
 8
GROUP0
10
-2218.65896124293
20
1215.0256200081
30
0.00105591454824727
11
-2151.65896124293
21
1215.0256200081
31
0.00105591454824727
  0
LINE
 8
GROUP0
10
-2253.65896124293
20
1157.0256200081
30
0.00105591454823599
11
-2186.65896124293
21
1157.0256200081
31
0.00105591454823599
  0
LINE
 8
GROUP0
10
-2253.65896124293
20
1173.0256200081
30
0.00105591454816831
11
-2186.65896124293
21
1173.0256200081
31
0.00105591454816831
  0
LINE
 8
GROUP0
10
-2218.65896124293
20
1159.0256200081
30
0.00105591454816831
11
-2151.65896124293
21
1159.0256200081
31
0.00105591454816831
  0
LINE
 8
GROUP0
10
-2218.65896124293
20
1199.0256200081
30
0.00105591454823599
11
-2151.65896124293
21
1199.0256200081
31
0.00105591454823599
  0
LINE
 8
GROUP0
10
-2253.65896124293
20
1193.0256200081
30
0.00105591454823599
11
-2186.65896124293
21
1193.0256200081
31
0.00105591454823599
  0
LINE
 8
GROUP0
10
-2253.65896124293
20
1161.0256200081
30
0.00105591454823599
11
-2186.65896124293
21
1161.0256200081
31
0.00105591454823599
  0
LINE
 8
GROUP0
10
-2253.65896124293
20
1153.0256200081
30
0.00105591454823599
11
-2186.65896124293
21
1153.0256200081
31
0.00105591454823599
  0
LINE
 8
GROUP0
10
-2253.65896124293
20
1169.0256200081
30
0.00105591454823599
11
-2186.65896124293
21
1169.0256200081
31
0.00105591454823599
  0
LINE
 8
GROUP0
10
-2253.65896124293
20
1177.0256200081
30
0.00105591454815703
11
-2186.65896124293
21
1177.0256200081
31
0.00105591454815703
  0
LINE
 8
GROUP0
10
-2253.65896124293
20
1165.0256200081
30
0.00105591454823599
11
-2186.65896124293
21
1165.0256200081
31
0.00105591454823599
  0
LINE
 8
GROUP0
10
-2253.65896124293
20
1205.0256200081
30
0.00105591454816831
11
-2186.65896124293
21
1205.0256200081
31
0.00105591454816831
  0
LINE
 8
GROUP0
10
-2218.65896124293
20
1187.0256200081
30
0.00105591454816831
11
-2151.65896124293
21
1187.0256200081
31
0.00105591454816831
  0
LINE
 8
GROUP0
10
-2218.65896124293
20
1163.0256200081
30
0.00105591454815703
11
-2151.65896124293
21
1163.0256200081
31
0.00105591454815703
  0
LINE
 8
GROUP0
10
-2218.65896124293
20
1219.0256200081
30
0.00105591454817959
11
-2151.65896124293
21
1219.0256200081
31
0.00105591454817959
  0
LINE
 8
GROUP0
10
-2218.65896124293
20
1183.0256200081
30
0.00105591454823599
11
-2151.65896124293
21
1183.0256200081
31
0.00105591454823599
  0
LINE
 8
GROUP0
10
-2253.65896124293
20
1213.0256200081
30
0.00105591454822471
11
-2186.65896124293
21
1213.0256200081
31
0.00105591454822471
  0
LINE
 8
GROUP0
10
-2253.65896124293
20
1189.0256200081
30
0.00105591454823599
11
-2186.65896124293
21
1189.0256200081
31
0.00105591454823599
  0
LINE
 8
GROUP0
10
-2148.65896124293
20
1163.0256200081
30
0.00105591454815703
11
-2118.15870364564
21
1163.02562000962
31
0.00262497073741217
  0
LINE
 8
GROUP0
10
-2183.65896124293
20
1213.0256200081
30
0.00105591454823599
11
-2121.15870205524
21
1213.02562000781
31
0.000935620052928043
  0
LINE
 8
GROUP0
10
-2183.65896124293
20
1189.0256200081
30
0.00105591454824727
11
-2121.15870205524
21
1189.02562000865
31
0.00171612072127096
  0
LINE
 8
GROUP0
10
-2148.65896124293
20
1183.0256200081
30
0.00105591454824727
11
-2118.15870364564
21
1183.02562000892
31
0.00197455351381375
  0
LINE
 8
GROUP0
10
-2148.65896124293
20
1187.0256200081
30
0.00105591454816831
11
-2118.15870364564
21
1187.02562000878
31
0.00184447006906925
  0
LINE
 8
GROUP0
10
-2148.65896124293
20
1195.0256200081
30
0.00105591454815703
11
-2118.15870364564
21
1195.0256200085
31
0.00158430317962537
  0
LINE
 8
GROUP0
10
-2148.65896124293
20
1151.0256200081
30
0.00105591454824727
11
-2118.15870364564
21
1151.02562001004
31
0.00301522107160055
  0
LINE
 8
GROUP0
10
-2183.65896124293
20
1185.0256200081
30
0.00105591454824727
11
-2121.15870205524
21
1185.02562000878
31
0.0018462041659929
  0
LINE
 8
GROUP0
10
-2183.65896124293
20
1209.0256200081
30
0.00105591454815703
11
-2121.15870205524
21
1209.02562000795
31
0.0010657034976387
  0
LINE
 8
GROUP0
10
-2148.65896124293
20
1203.0256200081
30
0.00105591454824727
11
-2118.15870364564
21
1203.02562000822
31
0.00132413629019277
  0
LINE
 8
GROUP0
10
-2148.65896124293
20
1171.0256200081
30
0.00105591454824727
11
-2118.15870364564
21
1171.02562000934
31
0.00236480384797957
  0
LINE
 8
GROUP0
10
-2183.65896124293
20
1197.0256200081
30
0.00105591454824727
11
-2121.15870205524
21
1197.02562000837
31
0.00145595383182708
  0
LINE
 8
GROUP0
10
-2183.65896124293
20
1173.0256200081
30
0.00105591454816831
11
-2121.15870205524
21
1173.0256200092
31
0.00223645450014744
  0
LINE
 8
GROUP0
10
-2148.65896124293
20
1179.0256200081
30
0.00105591454824727
11
-2118.15870364564
21
1179.02562000906
31
0.00210463695853569
  0
LINE
 8
GROUP0
10
-2183.65896124293
20
1181.0256200081
30
0.00105591454824727
11
-2121.15870205524
21
1181.02562000892
31
0.00197628761071484
  0
LINE
 8
GROUP0
10
-2148.65896124293
20
1211.0256200081
30
0.00105591454824727
11
-2118.15870364564
21
1211.02562000794
31
0.00106396940074889
  0
LINE
 8
GROUP0
10
-2148.65896124293
20
1215.0256200081
30
0.00105591454825855
11
-2118.15870364564
21
1215.0256200078
31
0.000933885956026947
  0
LINE
 8
GROUP0
10
-2148.65896124293
20
1199.0256200081
30
0.00105591454824727
11
-2118.15870364564
21
1199.02562000836
31
0.00145421973491471
  0
LINE
 8
GROUP0
10
-2183.65896124293
20
1193.0256200081
30
0.00105591454824727
11
-2121.15870205524
21
1193.02562000851
31
0.00158603727654902
  0
LINE
 8
GROUP0
10
-2148.65896124293
20
1167.0256200081
30
0.00105591454824727
11
-2118.15870364564
21
1167.02562000948
31
0.00249488729270151
  0
LINE
 8
GROUP0
10
-2183.65896124293
20
1153.0256200081
30
0.00105591454824727
11
-2121.15870205524
21
1153.0256200099
31
0.0028868717237797
  0
LINE
 8
GROUP0
10
-2148.65896124293
20
1159.0256200081
30
0.00105591454816831
11
-2118.15870364564
21
1159.02562000976
31
0.00275505418213411
  0
LINE
 8
GROUP0
10
-2148.65896124293
20
1175.0256200081
30
0.00105591454824727
11
-2118.15870364564
21
1175.0256200092
31
0.00223472040325763
  0
LINE
 8
GROUP0
10
-2183.65896124293
20
1217.0256200081
30
0.00105591454823599
11
-2121.15870205524
21
1217.02562000767
31
0.000805536608206103
  0
LINE
 8
GROUP0
10
-2148.65896124293
20
1155.0256200081
30
0.00105591454824727
11
-2118.15870364564
21
1155.0256200099
31
0.00288513762687861
  0
LINE
 8
GROUP0
10
-2148.65896124293
20
1207.0256200081
30
0.00105591454824727
11
-2118.15870364564
21
1207.02562000808
31
0.00119405284547083
  0
LINE
 8
GROUP0
10
-2148.65896124293
20
1191.0256200081
30
0.00105591454815703
11
-2118.15870364564
21
1191.02562000864
31
0.00171438662434731
  0
LINE
 8
GROUP0
10
-2183.65896124293
20
1157.0256200081
30
0.00105591454824727
11
-2121.15870205524
21
1157.02562000976
31
0.00275678827905776
  0
LINE
 8
GROUP0
10
-2183.65896124293
20
1161.0256200081
30
0.00105591454824727
11
-2121.15870205524
21
1161.02562000962
31
0.00262670483433582
  0
LINE
 8
GROUP0
10
-2183.65896124293
20
1177.0256200081
30
0.00105591454815703
11
-2121.15870205524
21
1177.02562000906
31
0.0021063710554255
  0
LINE
 8
GROUP0
10
-2183.65896124293
20
1165.0256200081
30
0.00105591454824727
11
-2121.15870205524
21
1165.02562000948
31
0.00249662138961388
  0
LINE
 8
GROUP0
10
-2183.65896124293
20
1205.0256200081
30
0.00105591454816831
11
-2121.15870205524
21
1205.02562000809
31
0.00119578694236064
  0
LINE
 8
GROUP0
10
-2183.65896124293
20
1169.0256200081
30
0.00105591454824727
11
-2121.15870205524
21
1169.02562000934
31
0.00236653794489194
  0
LINE
 8
GROUP0
10
-2638.65896124293
20
1215.0256200081
30
0.00105591454824727
11
-2571.65896124293
21
1215.0256200081
31
0.00105591454824727
  0
LINE
 8
GROUP0
10
-2603.65896124293
20
1217.0256200081
30
0.00105591454822471
11
-2536.65896124293
21
1217.0256200081
31
0.00105591454822471
  0
LINE
 8
GROUP0
10
-2603.65896124293
20
1185.0256200081
30
0.00105591454823599
11
-2536.65896124293
21
1185.0256200081
31
0.00105591454823599
  0
LINE
 8
GROUP0
10
-2638.65896124293
20
1219.0256200081
30
0.00105591454817959
11
-2571.65896124293
21
1219.0256200081
31
0.00105591454817959
  0
LINE
 8
GROUP0
10
-2603.65896124293
20
1213.0256200081
30
0.00105591454822471
11
-2536.65896124293
21
1213.0256200081
31
0.00105591454822471
  0
LINE
 8
GROUP0
10
-2603.65896124293
20
1177.0256200081
30
0.00105591454815703
11
-2536.65896124293
21
1177.0256200081
31
0.00105591454815703
  0
LINE
 8
GROUP0
10
-2638.65896124293
20
1199.0256200081
30
0.00105591454823599
11
-2571.65896124293
21
1199.0256200081
31
0.00105591454823599
  0
LINE
 8
GROUP0
10
-2638.65896124293
20
1175.0256200081
30
0.00105591454823599
11
-2571.65896124293
21
1175.0256200081
31
0.00105591454823599
  0
LINE
 8
GROUP0
10
-2638.65896124293
20
1179.0256200081
30
0.00105591454823599
11
-2571.65896124293
21
1179.0256200081
31
0.00105591454823599
  0
LINE
 8
GROUP0
10
-2638.65896124293
20
1151.0256200081
30
0.00105591454823599
11
-2571.65896124293
21
1151.0256200081
31
0.00105591454823599
  0
LINE
 8
GROUP0
10
-2638.65896124293
20
1191.0256200081
30
0.00105591454815703
11
-2571.65896124293
21
1191.0256200081
31
0.00105591454815703
  0
LINE
 8
GROUP0
10
-2638.65896124293
20
1183.0256200081
30
0.00105591454823599
11
-2571.65896124293
21
1183.0256200081
31
0.00105591454823599
  0
LINE
 8
GROUP0
10
-2603.65896124293
20
1181.0256200081
30
0.00105591454823599
11
-2536.65896124293
21
1181.0256200081
31
0.00105591454823599
  0
LINE
 8
GROUP0
10
-2638.65896124293
20
1167.0256200081
30
0.00105591454823599
11
-2571.65896124293
21
1167.0256200081
31
0.00105591454823599
  0
LINE
 8
GROUP0
10
-2603.65896124293
20
1169.0256200081
30
0.00105591454823599
11
-2536.65896124293
21
1169.0256200081
31
0.00105591454823599
  0
LINE
 8
GROUP0
10
-2638.65896124293
20
1187.0256200081
30
0.00105591454816831
11
-2571.65896124293
21
1187.0256200081
31
0.00105591454816831
  0
LINE
 8
GROUP0
10
-2603.65896124293
20
1209.0256200081
30
0.00105591454815703
11
-2536.65896124293
21
1209.0256200081
31
0.00105591454815703
  0
LINE
 8
GROUP0
10
-2603.65896124293
20
1173.0256200081
30
0.00105591454816831
11
-2536.65896124293
21
1173.0256200081
31
0.00105591454816831
  0
LINE
 8
GROUP0
10
-2638.65896124293
20
1211.0256200081
30
0.00105591454823599
11
-2571.65896124293
21
1211.0256200081
31
0.00105591454823599
  0
LINE
 8
GROUP0
10
-2603.65896124293
20
1205.0256200081
30
0.00105591454816831
11
-2536.65896124293
21
1205.0256200081
31
0.00105591454816831
  0
LINE
 8
GROUP0
10
-2603.65896124293
20
1197.0256200081
30
0.00105591454823599
11
-2536.65896124293
21
1197.0256200081
31
0.00105591454823599
  0
LINE
 8
GROUP0
10
-2603.65896124293
20
1161.0256200081
30
0.00105591454823599
11
-2536.65896124293
21
1161.0256200081
31
0.00105591454823599
  0
LINE
 8
GROUP0
10
-2638.65896124293
20
1195.0256200081
30
0.00105591454815703
11
-2571.65896124293
21
1195.0256200081
31
0.00105591454815703
  0
LINE
 8
GROUP0
10
-2603.65896124293
20
1193.0256200081
30
0.00105591454823599
11
-2536.65896124293
21
1193.0256200081
31
0.00105591454823599
  0
LINE
 8
GROUP0
10
-2638.65896124293
20
1207.0256200081
30
0.00105591454823599
11
-2571.65896124293
21
1207.0256200081
31
0.00105591454823599
  0
LINE
 8
GROUP0
10
-2603.65896124293
20
1165.0256200081
30
0.00105591454823599
11
-2536.65896124293
21
1165.0256200081
31
0.00105591454823599
  0
LINE
 8
GROUP0
10
-2638.65896124293
20
1203.0256200081
30
0.00105591454823599
11
-2571.65896124293
21
1203.0256200081
31
0.00105591454823599
  0
LINE
 8
GROUP0
10
-2638.65896124293
20
1163.0256200081
30
0.00105591454815703
11
-2571.65896124293
21
1163.0256200081
31
0.00105591454815703
  0
LINE
 8
GROUP0
10
-2638.65896124293
20
1171.0256200081
30
0.00105591454823599
11
-2571.65896124293
21
1171.0256200081
31
0.00105591454823599
  0
LINE
 8
GROUP0
10
-2638.65896124293
20
1159.0256200081
30
0.00105591454816831
11
-2571.65896124293
21
1159.0256200081
31
0.00105591454816831
  0
LINE
 8
GROUP0
10
-2638.65896124293
20
1155.0256200081
30
0.00105591454823599
11
-2571.65896124293
21
1155.0256200081
31
0.00105591454823599
  0
LINE
 8
GROUP0
10
-2603.65896124293
20
1153.0256200081
30
0.00105591454823599
11
-2536.65896124293
21
1153.0256200081
31
0.00105591454823599
  0
LINE
 8
GROUP0
10
-2603.65896124293
20
1157.0256200081
30
0.00105591454823599
11
-2536.65896124293
21
1157.0256200081
31
0.00105591454823599
  0
LINE
 8
GROUP0
10
-2603.65896124293
20
1201.0256200081
30
0.00105591454823599
11
-2536.65896124293
21
1201.0256200081
31
0.00105591454823599
  0
LINE
 8
GROUP0
10
-2603.65896124293
20
1189.0256200081
30
0.00105591454823599
11
-2536.65896124293
21
1189.0256200081
31
0.00105591454823599
  0
LINE
 8
GROUP0
10
-2183.65896124293
20
1201.0256200081
30
0.00105591454824727
11
-2121.15870205524
21
1201.02562000823
31
0.00132587038710514
  0
LINE
 8
GROUP0
10
-2148.65896124293
20
1219.0256200081
30
0.00105591454817959
11
-2118.15870364564
21
1219.02562000766
31
0.000803802511282448
  0
LINE
 8
GROUP0
10
-2669.15911640594
20
1217.02562000768
30
0.00089515190262055
11
-2606.65896124293
21
1217.0256200081
31
0.00105591454822471
  0
LINE
 8
GROUP0
10
-2672.15911472059
20
1219.02562000768
30
0.000892549983515223
11
-2641.65896124293
21
1219.0256200081
31
0.00105591454817959
  0
LINE
 8
GROUP0
10
-2669.15911640594
20
1213.02562000792
30
0.000980427700129627
11
-2606.65896124293
21
1213.0256200081
31
0.00105591454822471
  0
LINE
 8
GROUP0
10
-2672.15911472059
20
1215.02562000791
30
0.000977825781046859
11
-2641.65896124293
21
1215.0256200081
31
0.00105591454824727
  0
LINE
 8
GROUP0
10
-2669.15911640594
20
1209.02562000815
30
0.00106570349762742
11
-2606.65896124293
21
1209.0256200081
31
0.00105591454815703
  0
LINE
 8
GROUP0
10
-2672.15911472059
20
1211.02562000814
30
0.00106310157855594
11
-2641.65896124293
21
1211.0256200081
31
0.00105591454823599
  0
LINE
 8
GROUP0
10
-2669.15911640594
20
1205.02562000838
30
0.0011509792951365
11
-2606.65896124293
21
1205.0256200081
31
0.00105591454816831
  0
LINE
 8
GROUP0
10
-2672.15911472059
20
1207.02562000838
30
0.00114837737606501
11
-2641.65896124293
21
1207.0256200081
31
0.00105591454823599
  0
LINE
 8
GROUP0
10
-2669.15911640594
20
1201.02562000862
30
0.00123625509266814
11
-2606.65896124293
21
1201.0256200081
31
0.00105591454823599
  0
LINE
 8
GROUP0
10
-2672.15911472059
20
1203.02562000861
30
0.00123365317357409
11
-2641.65896124293
21
1203.0256200081
31
0.00105591454823599
  0
LINE
 8
GROUP0
10
-2669.15911640594
20
1197.02562000885
30
0.00132153089017721
11
-2606.65896124293
21
1197.0256200081
31
0.00105591454823599
  0
LINE
 8
GROUP0
10
-2672.15911472059
20
1199.02562000884
30
0.00131892897108317
11
-2641.65896124293
21
1199.0256200081
31
0.00105591454823599
  0
LINE
 8
GROUP0
10
-2669.15911640594
20
1193.02562000908
30
0.00140680668768629
11
-2606.65896124293
21
1193.0256200081
31
0.00105591454823599
  0
LINE
 8
GROUP0
10
-2672.15911472059
20
1195.02562000908
30
0.00140420476858096
11
-2641.65896124293
21
1195.0256200081
31
0.00105591454815703
  0
LINE
 8
GROUP0
10
-2669.15911640594
20
1189.02562000932
30
0.00149208248519537
11
-2606.65896124293
21
1189.0256200081
31
0.00105591454823599
  0
LINE
 8
GROUP0
10
-2672.15911472059
20
1191.02562000931
30
0.00148948056609004
11
-2641.65896124293
21
1191.0256200081
31
0.00105591454815703
  0
LINE
 8
GROUP0
10
-2669.15911640594
20
1185.02562000955
30
0.00157735828270444
11
-2606.65896124293
21
1185.0256200081
31
0.00105591454823599
  0
LINE
 8
GROUP0
10
-2672.15911472059
20
1187.02562000954
30
0.00157475636359912
11
-2641.65896124293
21
1187.0256200081
31
0.00105591454816831
  0
LINE
 8
GROUP0
10
-2669.15911640594
20
1181.02562000979
30
0.00166263408021352
11
-2606.65896124293
21
1181.0256200081
31
0.00105591454823599
  0
LINE
 8
GROUP0
10
-2672.15911472059
20
1183.02562000978
30
0.00166003216113075
11
-2641.65896124293
21
1183.0256200081
31
0.00105591454823599
  0
LINE
 8
GROUP0
10
-2669.15911640594
20
1177.02562001002
30
0.00174790987771132
11
-2606.65896124293
21
1177.0256200081
31
0.00105591454815703
  0
LINE
 8
GROUP0
10
-2672.15911472059
20
1179.02562001001
30
0.00174530795863983
11
-2641.65896124293
21
1179.0256200081
31
0.00105591454823599
  0
LINE
 8
GROUP0
10
-2669.15911640594
20
1173.02562001025
30
0.00183318567522039
11
-2606.65896124293
21
1173.0256200081
31
0.00105591454816831
  0
LINE
 8
GROUP0
10
-2672.15911472059
20
1175.02562001025
30
0.00183058375614891
11
-2641.65896124293
21
1175.0256200081
31
0.00105591454823599
  0
LINE
 8
GROUP0
10
-2669.15911640594
20
1169.02562001049
30
0.00191846147275203
11
-2606.65896124293
21
1169.0256200081
31
0.00105591454823599
  0
LINE
 8
GROUP0
10
-2672.15911472059
20
1171.02562001048
30
0.00191585955365798
11
-2641.65896124293
21
1171.0256200081
31
0.00105591454823599
  0
LINE
 8
GROUP0
10
-2669.15911640594
20
1165.02562001072
30
0.00200373727026111
11
-2606.65896124293
21
1165.0256200081
31
0.00105591454823599
  0
LINE
 8
GROUP0
10
-2672.15911472059
20
1167.02562001071
30
0.00200113535116706
11
-2641.65896124293
21
1167.0256200081
31
0.00105591454823599
  0
LINE
 8
GROUP0
10
-2669.15911640594
20
1161.02562001095
30
0.00208901306777018
11
-2606.65896124293
21
1161.0256200081
31
0.00105591454823599
  0
LINE
 8
GROUP0
10
-2672.15911472059
20
1163.02562001095
30
0.00208641114866486
11
-2641.65896124293
21
1163.0256200081
31
0.00105591454815703
  0
LINE
 8
GROUP0
10
-2669.15911640594
20
1157.02562001119
30
0.00217428886527926
11
-2606.65896124293
21
1157.0256200081
31
0.00105591454823599
  0
LINE
 8
GROUP0
10
-2672.15911472059
20
1159.02562001118
30
0.00217168694617393
11
-2641.65896124293
21
1159.0256200081
31
0.00105591454816831
  0
LINE
 8
GROUP0
10
-2669.15911640594
20
1153.02562001142
30
0.00225956466278834
11
-2606.65896124293
21
1153.0256200081
31
0.00105591454823599
  0
LINE
 8
GROUP0
10
-2672.15911472059
20
1155.02562001141
30
0.00225696274370557
11
-2641.65896124293
21
1155.0256200081
31
0.00105591454823599
  0
LINE
 8
GROUP0
10
-2672.15911472059
20
1151.02562001165
30
0.00234223854121465
11
-2641.65896124293
21
1151.0256200081
31
0.00105591454823599
  0
LINE
 8
GROUP0
10
-2118.15888972164
20
1453.02528100235
30
9.23357431461991e-005
11
-2145.65888972163
21
1453.02527818913
31
7.50116515895183e-005
  0
LINE
 8
GROUP0
10
-2145.65888972163
20
1453.02527818913
30
7.50116515895183e-005
11
-2145.65888991044
21
1458.02527818912
31
7.76658622152759e-005
  0
LINE
 8
GROUP0
10
-2145.65888991044
20
1458.02527818912
30
7.76658622152759e-005
11
-2155.15861029781
21
1467.52518401357
31
0.000116439317052752
  0
LINE
 8
GROUP0
10
-2155.15861029781
20
1467.52518401357
30
0.000116439317052752
11
-2175.65889352299
21
1488.02527881997
31
0.000101352841106384
  0
LINE
 8
GROUP0
10
-2175.65889352299
20
1488.02527881997
30
0.000101352841106384
11
-2185.65889352299
21
1488.02527836451
31
0.0001004593421711
  0
LINE
 8
GROUP0
10
-2185.65889437043
20
1508.5252783645
30
0.000113876734708213
11
-2185.65889352299
21
1488.02527836451
31
0.0001004593421711
  0
LINE
 8
GROUP0
10
-2185.65889437043
20
1508.5252783645
30
0.000113876734708213
11
-2604.65902638959
21
1508.52526412171
31
0.000126047348752784
  0
LINE
 8
GROUP0
10
-2604.65902638959
20
1508.52526412171
30
0.000126047348752784
11
-2604.65899113018
21
1488.02527452378
31
9.59528418874922e-005
  0
LINE
 8
GROUP0
10
-2604.65899113018
20
1488.02527452378
30
9.59528418874922e-005
11
-2614.65899113017
21
1488.02527418665
31
9.11213587514337e-005
  0
LINE
 8
GROUP0
10
-2614.65899113017
20
1488.02527418665
30
9.11213587514337e-005
11
-2644.65895249616
21
1458.02524750962
31
6.98065099924705e-005
  0
LINE
 8
GROUP0
10
-2644.6589523276
20
1453.02524750962
30
6.77578473283535e-005
11
-2644.65895249616
21
1458.02524750962
31
6.98065099924705e-005
  0
LINE
 8
GROUP0
10
-2672.15890531616
20
1453.02519046725
30
8.2609717821347e-005
11
-2644.6589523276
21
1453.02524750962
31
6.77578473283535e-005
  0
LINE
 8
GROUP0
10
-2672.15918887658
20
1131.02494768223
30
0.000958156050791503
11
-2672.15890531616
21
1453.02519046725
31
8.2609717821347e-005
  0
LINE
 8
GROUP0
10
-2604.65897503218
20
1131.02494768223
30
0.000958156050791503
11
-2672.15918887658
21
1131.02494768223
31
0.000958156050791503
  0
LINE
 8
GROUP0
10
-2604.65897503218
20
1106.52494768223
30
0.000958156050670245
11
-2604.65897503218
21
1131.02494768223
31
0.000958156050791503
  0
LINE
 8
GROUP0
10
-2562.65956768871
20
1106.52496299174
30
0.000942819357608937
11
-2604.65897503218
21
1106.52494768223
31
0.000958156050670245
  0
LINE
 8
GROUP0
10
-2562.65957497907
20
1126.52498001168
30
0.000940163156074858
11
-2562.65956768871
21
1106.52496299174
31
0.000942819357608937
  0
LINE
 8
GROUP0
10
-2227.65864473382
20
1126.5251171542
30
0.00105854079623273
11
-2562.65957497907
21
1126.52498001168
31
0.000940163156074858
  0
LINE
 8
GROUP0
10
-2227.65863744347
20
1106.5251171542
30
0.00106119699551084
11
-2227.65864473382
21
1126.5251171542
31
0.00105854079623273
  0
LINE
 8
GROUP0
10
-2185.65901370652
20
1106.52558171862
30
0.00115182083160408
11
-2227.65863744347
21
1106.5251171542
31
0.00106119699551084
  0
LINE
 8
GROUP0
10
-2185.65901370652
20
1106.52558171862
30
0.00115182083160408
11
-2185.65901178282
21
1131.02562185105
31
0.00111150832677196
  0
LINE
 8
GROUP0
10
-2118.15863366824
20
1131.0256245014
30
0.000704290997341817
11
-2185.65901178282
21
1131.02562185105
31
0.00111150832677196
  0
LINE
 8
GROUP0
10
-2118.15888972164
20
1453.02528100235
30
9.23357431461991e-005
11
-2118.15863366824
21
1131.0256245014
31
0.000704290997341817
  0
LINE
 8
GROUP0
10
-2581.72740091583
20
1117.04142829774
30
0.00100531132201725
11
-2581.65924600564
21
1116.52379107213
31
0.00101186041460996
  0
LINE
 8
GROUP0
10
-2581.65924600564
20
1116.52379107213
30
0.00101186041460996
11
-2581.72738779015
21
1116.00615211849
31
0.00101839932510456
  0
LINE
 8
GROUP0
10
-2581.72738779015
20
1116.00615211849
30
0.00101839932510456
11
-2581.92718251935
21
1115.52378767607
31
0.00102448243748017
  0
LINE
 8
GROUP0
10
-2581.92718251935
20
1115.52378767607
30
0.00102448243748017
11
-2582.24501451263
21
1115.10957008448
31
0.00102969519778067
  0
LINE
 8
GROUP0
10
-2582.24501451263
20
1115.10957008448
30
0.00102969519778067
11
-2582.6592240449
21
1114.79172758806
31
0.00103368236492521
  0
LINE
 8
GROUP0
10
-2582.6592240449
20
1114.79172758806
30
0.00103368236492521
11
-2583.14158342103
21
1114.59192062767
31
0.00103617222011844
  0
LINE
 8
GROUP0
10
-2583.14158342103
20
1114.59192062767
30
0.00103617222011844
11
-2583.65922064668
21
1114.52376571748
31
0.00103699508379937
  0
LINE
 8
GROUP0
10
-2583.65922064668
20
1114.52376571748
30
0.00103699508379937
11
-2584.17685960036
21
1114.59190750198
31
0.00103609487919882
  0
LINE
 8
GROUP0
10
-2584.17685960036
20
1114.59190750198
30
0.00103609487919882
11
-2584.65922404282
21
1114.79170223117
31
0.00103353295374996
  0
LINE
 8
GROUP0
10
-2584.65922404282
20
1114.79170223117
30
0.00103353295374996
11
-2585.07344163445
21
1115.10953422443
31
0.00102948389845916
  0
LINE
 8
GROUP0
10
-2585.07344163445
20
1115.10953422443
30
0.00102948389845916
11
-2585.3912841309
21
1115.52374375666
31
0.00102422364974262
  0
LINE
 8
GROUP0
10
-2585.3912841309
20
1115.52374375666
30
0.00102422364974262
11
-2585.59109109129
21
1116.00610313275
31
0.00101811068485215
  0
LINE
 8
GROUP0
10
-2585.59109109129
20
1116.00610313275
30
0.00101811068485215
11
-2585.65924600149
21
1116.52374035836
31
0.00101156159223689
  0
LINE
 8
GROUP0
10
-2585.65924600149
20
1116.52374035836
30
0.00101156159223689
11
-2585.59110421698
21
1117.041379312
31
0.0010050226817874
  0
LINE
 8
GROUP0
10
-2585.59110421698
20
1117.041379312
30
0.0010050226817874
11
-2585.39130948778
21
1117.52374375442
31
0.000998939569377949
  0
LINE
 8
GROUP0
10
-2585.39130948778
20
1117.52374375442
30
0.000998939569377949
11
-2585.07347749449
21
1117.93796134602
31
0.000993726809111295
  0
LINE
 8
GROUP0
10
-2585.07347749449
20
1117.93796134602
30
0.000993726809111295
11
-2584.65926796223
21
1118.25580384244
31
0.000989739641944187
  0
LINE
 8
GROUP0
10
-2584.65926796223
20
1118.25580384244
30
0.000989739641944187
11
-2584.1769085861
21
1118.45561080282
31
0.000987249786740385
  0
LINE
 8
GROUP0
10
-2584.1769085861
20
1118.45561080282
30
0.000987249786740385
11
-2583.65927136045
21
1118.52376571301
31
0.000986426923070027
  0
LINE
 8
GROUP0
10
-2583.65927136045
20
1118.52376571301
30
0.000986426923070027
11
-2583.14163240676
21
1118.45562392851
31
0.000987327127682569
  0
LINE
 8
GROUP0
10
-2583.14163240676
20
1118.45562392851
30
0.000987327127682569
11
-2582.6592679643
21
1118.25582919932
31
0.000989889053119441
  0
LINE
 8
GROUP0
10
-2582.6592679643
20
1118.25582919932
30
0.000989889053119441
11
-2582.24505037268
21
1117.93799720606
31
0.000993938108421522
  0
LINE
 8
GROUP0
10
-2582.24505037268
20
1117.93799720606
30
0.000993938108421522
11
-2581.92720787623
21
1117.52378767384
31
0.000999198357104219
  0
LINE
 8
GROUP0
10
-2581.92720787623
20
1117.52378767384
30
0.000999198357104219
11
-2581.72740091583
21
1117.04142829774
31
0.00100531132201725
  0
LINE
 8
GROUP0
10
-2206.14116728425
20
1118.45579474631
30
0.00107556963107784
11
-2205.65880284179
21
1118.25600001712
31
0.001078131556526
  0
LINE
 8
GROUP0
10
-2205.65880284179
20
1118.25600001712
30
0.001078131556526
11
-2205.24458525017
21
1117.93816802386
31
0.0010821806118168
  0
LINE
 8
GROUP0
10
-2205.24458525017
20
1117.93816802386
30
0.0010821806118168
11
-2204.92674275372
21
1117.52395849163
31
0.00108744086051077
  0
LINE
 8
GROUP0
10
-2204.92674275372
20
1117.52395849163
30
0.00108744086051077
11
-2204.72693579332
21
1117.04159911554
31
0.00109355382542381
  0
LINE
 8
GROUP0
10
-2204.72693579332
20
1117.04159911554
30
0.00109355382542381
11
-2204.65878088313
21
1116.52396188993
31
0.00110010291801651
  0
LINE
 8
GROUP0
10
-2204.65878088313
20
1116.52396188993
30
0.00110010291801651
11
-2204.72692266763
21
1116.00632293628
31
0.00110664182851111
  0
LINE
 8
GROUP0
10
-2204.72692266763
20
1116.00632293628
30
0.00110664182851111
11
-2204.92671739684
21
1115.52395849386
31
0.00111272494088673
  0
LINE
 8
GROUP0
10
-2204.92671739684
20
1115.52395849386
30
0.00111272494088673
11
-2205.24454939012
21
1115.10974090227
31
0.00111793770117594
  0
LINE
 8
GROUP0
10
-2205.24454939012
20
1115.10974090227
30
0.00111793770117594
11
-2205.65875892239
21
1114.79189840585
31
0.00112192486833177
  0
LINE
 8
GROUP0
10
-2205.65875892239
20
1114.79189840585
30
0.00112192486833177
11
-2206.14111829852
21
1114.59209144547
31
0.00112441472351372
  0
LINE
 8
GROUP0
10
-2206.14111829852
20
1114.59209144547
30
0.00112441472351372
11
-2206.65875552417
21
1114.52393653528
31
0.00112523758720593
  0
LINE
 8
GROUP0
10
-2206.65875552417
20
1114.52393653528
30
0.00112523758720593
11
-2207.17639447785
21
1114.59207831978
31
0.00112433738260537
  0
LINE
 8
GROUP0
10
-2207.17639447785
20
1114.59207831978
30
0.00112433738260537
11
-2207.65875892031
21
1114.79187304897
31
0.00112177545715652
  0
LINE
 8
GROUP0
10
-2207.65875892031
20
1114.79187304897
30
0.00112177545715652
11
-2208.07297651193
21
1115.10970504222
31
0.00111772640186572
  0
LINE
 8
GROUP0
10
-2208.07297651193
20
1115.10970504222
30
0.00111772640186572
11
-2208.39081900838
21
1115.52391457445
31
0.00111246615314918
  0
LINE
 8
GROUP0
10
-2208.39081900838
20
1115.52391457445
30
0.00111246615314918
11
-2208.59062596878
21
1116.00627395054
31
0.0011063531882587
  0
LINE
 8
GROUP0
10
-2208.59062596878
20
1116.00627395054
30
0.0011063531882587
11
-2208.65878087898
21
1116.52391117616
31
0.00109980409564344
  0
LINE
 8
GROUP0
10
-2208.65878087898
20
1116.52391117616
30
0.00109980409564344
11
-2208.59063909447
21
1117.0415501298
31
0.00109326518519396
  0
LINE
 8
GROUP0
10
-2208.59063909447
20
1117.0415501298
30
0.00109326518519396
11
-2208.39084436527
21
1117.52391457222
31
0.0010871820727845
  0
LINE
 8
GROUP0
10
-2208.39084436527
20
1117.52391457222
30
0.0010871820727845
11
-2208.07301237198
21
1117.93813216381
31
0.00108196931250657
  0
LINE
 8
GROUP0
10
-2208.07301237198
20
1117.93813216381
30
0.00108196931250657
11
-2207.65880283972
21
1118.25597466023
31
0.00107798214535074
  0
LINE
 8
GROUP0
10
-2207.65880283972
20
1118.25597466023
30
0.00107798214535074
11
-2207.17644346359
21
1118.45578162062
31
0.00107549229014694
  0
LINE
 8
GROUP0
10
-2207.17644346359
20
1118.45578162062
30
0.00107549229014694
11
-2206.65880623793
21
1118.52393653081
31
0.00107466942647658
  0
LINE
 8
GROUP0
10
-2206.65880623793
20
1118.52393653081
30
0.00107466942647658
11
-2206.14116728425
21
1118.45579474631
31
0.00107556963107784
  0
LINE
 8
GROUP0
10
-2658.15946690147
20
1143.0256649716
30
0.000471189831277674
11
-2657.64182791134
21
1142.9575234607
31
0.000472090032426592
  0
LINE
 8
GROUP0
10
-2657.64182791134
20
1142.9575234607
30
0.000472090032426592
11
-2657.15946336285
21
1142.75772898636
31
0.000474651954649408
  0
LINE
 8
GROUP0
10
-2657.15946336285
20
1142.75772898636
30
0.000474651954649408
11
-2656.74524560285
21
1142.43989721183
31
0.000478701007187921
  0
LINE
 8
GROUP0
10
-2656.74524560285
20
1142.43989721183
30
0.000478701007187921
11
-2656.42740288716
21
1142.02568784729
31
0.000483961253795123
  0
LINE
 8
GROUP0
10
-2656.42740288716
20
1142.02568784729
30
0.000483961253795123
11
-2656.22759567158
21
1141.54332857643
31
0.000490074217365149
  0
LINE
 8
GROUP0
10
-2656.22759567158
20
1141.54332857643
30
0.000490074217365149
11
-2656.15944048766
21
1141.02569138642
31
0.0004966233095412
  0
LINE
 8
GROUP0
10
-2656.15944048766
20
1141.02569138642
30
0.0004966233095412
11
-2656.22758199856
21
1140.50805239632
31
0.000503162220486997
  0
LINE
 8
GROUP0
10
-2656.22758199856
20
1140.50805239632
30
0.000503162220486997
11
-2656.42737647292
21
1140.02568784787
31
0.000509245334250036
  0
LINE
 8
GROUP0
10
-2656.42737647292
20
1140.02568784787
30
0.000509245334250036
11
-2656.74520824748
21
1139.61147008791
31
0.000514458096671144
  0
LINE
 8
GROUP0
10
-2656.74520824748
20
1139.61147008791
30
0.000514458096671144
11
-2657.15941761205
21
1139.29362737224
31
0.000518445266613099
  0
LINE
 8
GROUP0
10
-2657.15941761205
20
1139.29362737224
30
0.000518445266613099
11
-2657.64177688295
21
1139.09382015667
31
0.000520935125020383
  0
LINE
 8
GROUP0
10
-2657.64177688295
20
1139.09382015667
30
0.000520935125020383
11
-2658.159414073
21
1139.02566497277
31
0.000521757992176219
  0
LINE
 8
GROUP0
10
-2658.159414073
20
1139.02566497277
30
0.000521757992176219
11
-2658.67705306314
21
1139.09380648366
31
0.000520857791026597
  0
LINE
 8
GROUP0
10
-2658.67705306314
20
1139.09380648366
30
0.000520857791026597
11
-2659.15941761163
21
1139.293600958
31
0.000518295868804486
  0
LINE
 8
GROUP0
10
-2659.15941761163
20
1139.293600958
30
0.000518295868804486
11
-2659.57363537163
21
1139.61143273253
31
0.000514246816265973
  0
LINE
 8
GROUP0
10
-2659.57363537163
20
1139.61143273253
30
0.000514246816265973
11
-2659.89147808732
21
1140.02564209707
31
0.000508986569636211
  0
LINE
 8
GROUP0
10
-2659.89147808732
20
1140.02564209707
30
0.000508986569636211
11
-2660.0912853029
21
1140.50800136793
31
0.000502873606065479
  0
LINE
 8
GROUP0
10
-2660.0912853029
20
1140.50800136793
30
0.000502873606065479
11
-2660.15944048681
21
1141.02563855794
31
0.000496324513912694
  0
LINE
 8
GROUP0
10
-2660.15944048681
20
1141.02563855794
30
0.000496324513912694
11
-2660.09129897591
21
1141.54327754804
31
0.000489785602966192
  0
LINE
 8
GROUP0
10
-2660.09129897591
20
1141.54327754804
30
0.000489785602966192
11
-2659.89150450156
21
1142.02564209649
31
0.000483702489203858
  0
LINE
 8
GROUP0
10
-2659.89150450156
20
1142.02564209649
30
0.000483702489203858
11
-2659.573672727
21
1142.43985985645
31
0.000478489726805309
  0
LINE
 8
GROUP0
10
-2659.573672727
20
1142.43985985645
30
0.000478489726805309
11
-2659.15946336243
21
1142.75770257212
31
0.000474502556840795
  0
LINE
 8
GROUP0
10
-2659.15946336243
20
1142.75770257212
30
0.000474502556840795
11
-2658.67710409153
21
1142.95750978769
31
0.000472012698432805
  0
LINE
 8
GROUP0
10
-2658.67710409153
20
1142.95750978769
30
0.000472012698432805
11
-2658.15946690147
21
1143.0256649716
31
0.000471189831277674
  0
LINE
 8
GROUP0
10
-2131.1589069953
20
1142.75766034833
30
0.000497971764923599
11
-2130.74468882801
21
1142.4398291047
31
0.000502020810773152
  0
LINE
 8
GROUP0
10
-2130.74468882801
20
1142.4398291047
30
0.000502020810773152
11
-2130.42684558149
21
1142.02562014756
31
0.000507281052293135
  0
LINE
 8
GROUP0
10
-2130.42684558149
20
1142.02562014756
30
0.000507281052293135
11
-2130.22703774773
21
1141.54326113282
31
0.000513394012648399
  0
LINE
 8
GROUP0
10
-2130.22703774773
20
1141.54326113282
30
0.000513394012648399
11
-2130.15888190041
21
1141.02562403022
31
0.000519943103752862
  0
LINE
 8
GROUP0
10
-2130.15888190041
20
1141.02562403022
30
0.000519943103752862
11
-2130.22702274789
21
1140.50798495284
31
0.000526482015871765
  0
LINE
 8
GROUP0
10
-2130.22702274789
20
1140.50798495284
30
0.000526482015871765
11
-2130.42681660401
21
1140.02562014838
31
0.000532565132917245
  0
LINE
 8
GROUP0
10
-2130.42681660401
20
1140.02562014838
30
0.000532565132917245
11
-2130.74464784767
21
1139.61140198112
31
0.000537777900515812
  0
LINE
 8
GROUP0
10
-2130.74464784767
20
1139.61140198112
30
0.000537777900515812
11
-2131.15885680485
21
1139.29355873463
31
0.000541765077191847
  0
LINE
 8
GROUP0
10
-2131.15885680485
20
1139.29355873463
30
0.000541765077191847
11
-2131.64121581962
21
1139.09375090088
31
0.000544254943449918
  0
LINE
 8
GROUP0
10
-2131.64121581962
20
1139.09375090088
30
0.000544254943449918
11
-2132.15885292227
21
1139.02559505357
31
0.000545077818997974
  0
LINE
 8
GROUP0
10
-2132.15885292227
20
1139.02559505357
30
0.000545077818997974
11
-2132.67649199969
21
1139.09373590104
31
0.000544177626218012
  0
LINE
 8
GROUP0
10
-2132.67649199969
20
1139.09373590104
30
0.000544177626218012
11
-2133.15885680418
21
1139.29352975715
31
0.000541615711812848
  0
LINE
 8
GROUP0
10
-2133.15885680418
20
1139.29352975715
30
0.000541615711812848
11
-2133.57307497148
21
1139.61136100078
31
0.000537566665952016
  0
LINE
 8
GROUP0
10
-2133.57307497148
20
1139.61136100078
30
0.000537566665952016
11
-2133.890918218
21
1140.02556995793
31
0.000532306424432033
  0
LINE
 8
GROUP0
10
-2133.890918218
20
1140.02556995793
30
0.000532306424432033
11
-2134.09072605175
21
1140.50792897266
31
0.000526193464076063
  0
LINE
 8
GROUP0
10
-2134.09072605175
20
1140.50792897266
30
0.000526193464076063
11
-2134.15888189908
21
1141.02556607527
31
0.000519644372972305
  0
LINE
 8
GROUP0
10
-2134.15888189908
20
1141.02556607527
30
0.000519644372972305
11
-2134.0907410516
21
1141.54320515264
31
0.000513105460863977
  0
LINE
 8
GROUP0
10
-2134.0907410516
20
1141.54320515264
30
0.000513105460863977
11
-2133.89094719547
21
1142.0255699571
31
0.000507022343819202
  0
LINE
 8
GROUP0
10
-2133.89094719547
20
1142.0255699571
30
0.000507022343819202
11
-2133.57311595181
21
1142.43978812436
31
0.000501809576209355
  0
LINE
 8
GROUP0
10
-2133.57311595181
20
1142.43978812436
30
0.000501809576209355
11
-2133.15890699464
21
1142.75763137086
31
0.000497822399544601
  0
LINE
 8
GROUP0
10
-2133.15890699464
20
1142.75763137086
30
0.000497822399544601
11
-2132.67654797986
21
1142.9574392046
31
0.000495332533274545
  0
LINE
 8
GROUP0
10
-2132.67654797986
20
1142.9574392046
30
0.000495332533274545
11
-2132.15891087722
21
1143.02559505192
31
0.000494509657749753
  0
LINE
 8
GROUP0
10
-2132.15891087722
20
1143.02559505192
30
0.000494509657749753
11
-2131.6412717998
21
1142.95745420444
31
0.000495409850517731
  0
LINE
 8
GROUP0
10
-2131.6412717998
20
1142.95745420444
30
0.000495409850517731
11
-2131.1589069953
21
1142.75766034833
31
0.000497971764923599
  0
LINE
 8
GROUP0
10
-2264.64142704166
20
1500.45660486601
30
0.000187576914502213
11
-2265.15906512016
21
1500.52475330227
31
0.000187381047029928
  0
LINE
 8
GROUP0
10
-2264.15906516616
20
1500.25680393821
30
0.000187720563503185
11
-2264.64142704166
21
1500.45660486601
31
0.000187576914502213
  0
LINE
 8
GROUP0
10
-2263.74485165834
20
1499.93896662192
30
0.000187802197515813
11
-2264.15906516616
21
1500.25680393821
31
0.000187720563503185
  0
LINE
 8
GROUP0
10
-2263.42701448423
20
1499.52475300499
30
0.000187816258543372
11
-2263.74485165834
21
1499.93896662192
31
0.000187802197515813
  0
LINE
 8
GROUP0
10
-2263.22721372202
20
1499.04239106091
30
0.000187761777330248
11
-2263.42701448423
21
1499.52475300499
31
0.000187816258543372
  0
LINE
 8
GROUP0
10
-2263.15906546344
20
1498.524752959
30
0.000187642475690059
11
-2263.22721372202
21
1499.04239106091
31
0.000187761777330248
  0
LINE
 8
GROUP0
10
-2263.2272138997
20
1498.0071148805
30
0.000187466484782545
11
-2263.15906546344
21
1498.524752959
31
0.000187642475690059
  0
LINE
 8
GROUP0
10
-2263.4270148275
20
1497.52475300499
30
0.000187245794203506
11
-2263.2272138997
21
1498.0071148805
31
0.000187466484782545
  0
LINE
 8
GROUP0
10
-2263.74485214379
20
1497.11053949717
30
0.000186995443352361
11
-2263.4270148275
21
1497.52475300499
31
0.000187245794203506
  0
LINE
 8
GROUP0
10
-2264.15906576071
20
1496.79270232307
30
0.000186732495598846
11
-2263.74485214379
21
1497.11053949717
31
0.000186995443352361
  0
LINE
 8
GROUP0
10
-2264.6414277048
20
1496.59290156085
30
0.00018647486815272
11
-2264.15906576071
21
1496.79270232307
31
0.000186732495598846
  0
LINE
 8
GROUP0
10
-2265.1590658067
20
1496.52475330227
30
0.000186240124396203
11
-2264.6414277048
21
1496.59290156085
31
0.00018647486815272
  0
LINE
 8
GROUP0
10
-2265.67670388521
20
1496.59290173854
30
0.000186044248622641
11
-2265.1590658067
21
1496.52475330227
31
0.000186240124396203
  0
LINE
 8
GROUP0
10
-2266.15906576072
20
1496.79270266634
30
0.000185900604674344
11
-2265.67670388521
21
1496.59290173854
31
0.000186044248622641
  0
LINE
 8
GROUP0
10
-2266.57327926854
20
1497.11053998263
30
0.00018581896696192
11
-2266.15906576072
21
1496.79270266634
31
0.000185900604674344
  0
LINE
 8
GROUP0
10
-2266.89111644264
20
1497.52475359955
30
0.000185804909273202
11
-2266.57327926854
21
1497.11053998263
31
0.00018581896696192
 0
ENDSEC
 0
EOF
