 0
SECTION
 2
ENTITIES
  0
LINE
 8
GROUP0
10
-2750.29891517914
20
1964.63425374854
30
0.00042793360917992
11
-2750.78127708894
21
1964.83405459355
31
0.000427941466465925
  0
LINE
 8
GROUP0
10
-2752.71312874152
20
1964.31641650335
30
0.000428070651062873
11
-2753.03096598671
21
1963.90220294097
31
0.000428116304734699
  0
LINE
 8
GROUP0
10
-2749.88470161677
20
1964.31641650335
30
0.00042793770818732
11
-2750.29891517914
21
1964.63425374854
31
0.00042793360917992
  0
LINE
 8
GROUP0
10
-2749.36706352657
20
1963.41984103118
30
0.000427979859138594
11
-2749.56686437158
21
1963.90220294097
31
0.000427953482667404
  0
LINE
 8
GROUP0
10
-2750.78127708894
20
1960.9703512884
30
0.000428227962009042
11
-2750.29891517914
21
1961.17015213341
31
0.000428190474595669
  0
LINE
 8
GROUP0
10
-2751.29891517914
20
1960.90220294098
30
0.000428257345967437
11
-2750.78127708894
21
1960.9703512884
31
0.000428227962009042
  0
LINE
 8
GROUP0
10
-2751.29891517914
20
1964.90220294098
30
0.000427960742946765
11
-2751.81655326935
21
1964.83405459355
31
0.000427990126905159
  0
LINE
 8
GROUP0
10
-2749.29891517914
20
1962.90220294098
30
0.000428015039318136
11
-2749.36706352657
21
1963.41984103118
31
0.000427979859138594
  0
LINE
 8
GROUP0
10
-2752.29891517914
20
1964.63425374854
30
0.000428027614319237
11
-2752.71312874152
21
1964.31641650335
31
0.000428070651062873
  0
LINE
 8
GROUP0
10
-2750.78127708894
20
1964.83405459355
30
0.000427941466465925
11
-2751.29891517914
21
1964.90220294098
31
0.000427960742946765
  0
LINE
 8
GROUP0
10
-2749.36706352657
20
1962.38456485077
30
0.000428056625739615
11
-2749.29891517914
21
1962.90220294098
31
0.000428015039318136
  0
LINE
 8
GROUP0
10
-2749.56686437158
20
1963.90220294097
30
0.000427953482667404
11
-2749.88470161677
21
1964.31641650335
31
0.00042793770818732
  0
LINE
 8
GROUP0
10
-2750.29891517914
20
1961.17015213341
30
0.000428190474595669
11
-2749.88470161677
21
1961.4879893786
31
0.000428147437851328
  0
LINE
 8
GROUP0
10
-2749.56686437158
20
1961.90220294098
30
0.000428101784179502
11
-2749.36706352657
21
1962.38456485077
31
0.000428056625739615
  0
LINE
 8
GROUP0
10
-2751.81655326935
20
1964.83405459355
30
0.000427990126905159
11
-2752.29891517914
21
1964.63425374854
31
0.000428027614319237
  0
LINE
 8
GROUP0
10
-2749.88470161677
20
1961.4879893786
30
0.000428147437851328
11
-2749.56686437158
21
1961.90220294098
31
0.000428101784179502
  0
LINE
 8
GROUP0
10
-2761.29891308356
20
2013.88296586431
30
0.000424360191710277
11
-2768.53434082469
21
2016.87997816425
31
0.000424478045238458
  0
LINE
 8
GROUP0
10
-2773.90903751674
20
2017.5875703131
30
0.000424306659868479
11
-2773.96635977451
21
2017.5951169315
31
0.000424160701651943
  0
LINE
 8
GROUP0
10
-2752.71312874152
20
1961.4879893786
30
0.000428280380726881
11
-2752.29891517914
21
1961.17015213341
31
0.000428284479734986
  0
LINE
 8
GROUP0
10
-2782.52450644601
20
2003.13226313941
30
0.000426757673810624
11
-2784.6834333218
21
2002.13396334041
31
0.000426757673794409
  0
LINE
 8
GROUP0
10
-2784.6834333218
20
2002.13396334041
30
0.000426757673794409
11
-2789.3788920033
21
2005.74576737816
31
0.000426757668796723
  0
LINE
 8
GROUP0
10
-2751.81655326935
20
1960.9703512884
30
0.000428276622448276
11
-2751.29891517914
21
1960.90220294098
31
0.000428257345967437
  0
LINE
 8
GROUP0
10
-2789.3788920033
20
2005.74576737816
30
0.000426757668796723
11
-2791.29890956013
21
2013.88296580044
31
0.000425770266634301
  0
LINE
 8
GROUP0
10
-2776.29891143797
20
2017.90220318375
30
0.000424767201818271
11
-2784.06348181901
21
2016.87997810039
31
0.000425207952548873
  0
LINE
 8
GROUP0
10
-2773.96635977451
20
2017.5951169315
30
0.000424160701651943
11
-2776.29891143797
21
2017.90220318375
31
0.000424767201818271
  0
LINE
 8
GROUP0
10
-2779.09430995714
20
2009.61660592794
30
0.000426757673907208
11
-2773.90903751674
21
2017.5875703131
31
0.000424306659868479
  0
LINE
 8
GROUP0
10
-2752.29891517914
20
1961.17015213341
30
0.000428284479734986
11
-2751.81655326935
21
1960.9703512884
31
0.000428276622448276
  0
LINE
 8
GROUP0
10
-2779.09430995714
20
2009.61660592794
30
0.000426757673907208
11
-2780.24311524919
21
2003.80517961007
31
0.000426757673820494
  0
LINE
 8
GROUP0
10
-2780.24311524919
20
2003.80517961007
30
0.000426757673820494
11
-2782.52450644601
21
2003.13226313941
31
0.000426757673810624
  0
LINE
 8
GROUP0
10
-2773.35703851575
20
2009.4663751226
30
0.000426757673905798
11
-2772.5139581729
21
2003.60278513908
31
0.000426757673817674
  0
LINE
 8
GROUP0
10
-2784.06348181901
20
2016.87997810039
30
0.000425207952548873
11
-2791.29890956013
21
2013.88296580044
31
0.000425770266634301
  0
LINE
 8
GROUP0
10
-2768.53434082469
20
2016.87997816425
30
0.000424478045238458
11
-2773.35703851575
21
2009.4663751226
31
0.000426757673905798
  0
LINE
 8
GROUP0
10
-2753.59429113033
20
2007.17175231583
30
0.000424487689828384
11
-2755.08571042579
21
2009.11540778322
31
0.000424421672502501
  0
LINE
 8
GROUP0
10
-2750.31815230918
20
2002.90220484062
30
0.000424658297646185
11
-2759.28435131959
21
2000.95155518897
31
0.000426757674499401
  0
LINE
 8
GROUP0
10
-2746.29891492588
20
1987.90220671846
30
0.00042558164233828
11
-2747.32114000924
21
1995.66677709949
31
0.000425053941811593
  0
LINE
 8
GROUP0
10
-2746.62305002791
20
1985.44015618409
30
0.000426156167564534
11
-2746.29891492588
21
1987.90220671846
31
0.00042558164233828
  0
LINE
 8
GROUP0
10
-2768.16718830269
20
2001.70147182084
30
0.000426757673788064
11
-2770.27090987744
21
2002.81138972829
31
0.000426757673805689
  0
LINE
 8
GROUP0
10
-2747.32114000924
20
1995.66677709949
30
0.000425053941811593
11
-2750.31815230918
21
2002.90220484062
31
0.000424658297646185
  0
LINE
 8
GROUP0
10
-2763.28913773354
20
2005.06258106864
30
0.00042675767456144
11
-2768.16718830269
21
2001.70147182084
31
0.000426757673788064
  0
LINE
 8
GROUP0
10
-2762.77200632097
20
1996.16316196835
30
0.000426757674427491
11
-2761.74995432266
21
1994.11025476235
31
0.000426757674396472
  0
LINE
 8
GROUP0
10
-2760.98512710143
20
1991.76811013859
30
0.000426757674361222
11
-2761.51231493311
21
1993.49989078115
31
0.000426757674387307
  0
LINE
 8
GROUP0
10
-2770.27090987744
20
2002.81138972829
30
0.000426757673805689
11
-2772.5139581729
21
2003.60278513908
31
0.000426757673817674
  0
LINE
 8
GROUP0
10
-2755.14561711251
20
1990.77182875815
30
0.000426757674346417
11
-2746.62305002791
21
1985.44015618409
31
0.000426156167564534
  0
LINE
 8
GROUP0
10
-2755.08571042579
20
2009.11540778322
30
0.000424421672502501
11
-2761.29891308356
21
2013.88296586431
31
0.000424360191710277
  0
LINE
 8
GROUP0
10
-2755.14561711251
20
1990.77182875815
30
0.000426757674346417
11
-2760.98512710143
21
1991.76811013859
31
0.000426757674361222
  0
LINE
 8
GROUP0
10
-2763.28913773354
20
2005.06258106864
30
0.00042675767456144
11
-2753.59429113033
21
2007.17175231583
31
0.000424487689828384
  0
LINE
 8
GROUP0
10
-2761.51231493311
20
1993.49989078115
30
0.000426757674387307
11
-2761.74995432266
21
1994.11025476235
31
0.000426757674396472
  0
LINE
 8
GROUP0
10
-2762.77200632097
20
1996.16316196835
30
0.000426757674427491
11
-2759.28435131959
21
2000.95155518897
31
0.000426757674499401
  0
LINE
 8
GROUP0
10
-2761.7175348964
20
1981.77330844737
30
0.000426757674209649
11
-2760.98512739185
21
1984.03630346749
31
0.000426757674244899
  0
LINE
 8
GROUP0
10
-2759.28435161001
20
1974.85285841711
30
0.00042675767410531
11
-2762.77200661139
21
1979.641254687
31
0.000426757673456718
  0
LINE
 8
GROUP0
10
-2762.77200661139
20
1979.641254687
30
0.000426757673456718
11
-2761.7175348964
21
1981.77330844737
31
0.000426757674209649
  0
LINE
 8
GROUP0
10
-2773.3570388026
20
1966.33804217509
30
0.0004267576732565
11
-2778.89455380723
21
1958.2439336038
31
0.00042981966403004
  0
LINE
 8
GROUP0
10
-2759.28435161001
20
1974.85285841711
30
0.00042675767410531
11
-2757.09447084262
21
1965.14763003249
31
0.000428359185354338
  0
LINE
 8
GROUP0
10
-2770.27091016429
20
1972.99302452014
30
0.000426757673356609
11
-2768.16718858953
21
1974.10294395222
31
0.000426757673372119
  0
LINE
 8
GROUP0
10
-2773.3570388026
20
1966.33804217509
30
0.0004267576732565
11
-2772.51395845974
21
1972.20162910935
31
0.000426757673344624
  0
LINE
 8
GROUP0
10
-2757.09447084262
20
1965.14763003249
30
0.000428359185354338
11
-2755.08571068068
21
1966.68900591712
31
0.0004275676167252
  0
LINE
 8
GROUP0
10
-2750.31815259959
20
1972.90220857489
30
0.000426882815977864
11
-2747.32114029965
21
1980.13763631602
31
0.000426205437215932
  0
LINE
 8
GROUP0
10
-2760.98512739185
20
1984.03630346749
30
0.000426757674244899
11
-2755.14561740293
21
1985.03258751603
31
0.000426757674259703
  0
LINE
 8
GROUP0
10
-2772.51395845974
20
1972.20162910935
30
0.000426757673344624
11
-2770.27091016429
21
1972.99302452014
31
0.000426757673356609
  0
LINE
 8
GROUP0
10
-2768.16718858953
20
1974.10294395222
30
0.000426757673372119
11
-2763.28913802039
21
1970.74183013052
31
0.00042675767332277
  0
LINE
 8
GROUP0
10
-2755.08571068068
20
1966.68900591712
30
0.0004275676167252
11
-2750.31815259959
21
1972.90220857489
31
0.000426882815977864
  0
LINE
 8
GROUP0
10
-2747.32114029965
20
1980.13763631602
30
0.000426205437215932
11
-2755.14561740293
21
1985.03258751603
31
0.000426757674259703
  0
LINE
 8
GROUP0
10
-2789.37889165882
20
1970.05864688605
30
0.000426757668980726
11
-2799.18612697735
21
1968.87062531224
31
0.000429656457343991
  0
LINE
 8
GROUP0
10
-2761.29891337039
20
1961.92144819353
30
0.000428213170780067
11
-2763.28913802039
21
1970.74183013052
31
0.00042675767332277
  0
LINE
 8
GROUP0
10
-2799.18612697735
20
1968.87062531224
30
0.000429656457343991
11
-2797.51211187341
21
1966.68900635426
31
0.000429561768521425
  0
LINE
 8
GROUP0
10
-2768.53434111152
20
1958.92443589359
30
0.00042877548197785
11
-2761.29891337039
21
1961.92144819353
31
0.000428213170780067
  0
LINE
 8
GROUP0
10
-2776.29891149255
20
1957.90221081023
30
0.000429216235593982
11
-2768.53434111152
21
1958.92443589359
31
0.00042877548197785
  0
LINE
 8
GROUP0
10
-2789.37889165882
20
1970.05864688605
30
0.000426757668980726
11
-2784.68343297732
21
1973.6704509238
31
0.000426757669035011
  0
LINE
 8
GROUP0
10
-2784.68343297732
20
1973.6704509238
30
0.000426757669035011
11
-2782.52450610153
21
1972.67215264943
31
0.000426757669020206
  0
LINE
 8
GROUP0
10
-2778.89455380723
20
1958.2439336038
30
0.00042981966403004
11
-2776.29891149255
21
1957.90221081023
31
0.000429216235593982
  0
LINE
 8
GROUP0
10
-2781.1528768288
20
1991.78936328469
30
0.000426757673638606
11
-2780.41425493537
21
1992.48543887387
31
0.000426757673649181
  0
LINE
 8
GROUP0
10
-2791.29890921564
20
1961.92144827317
30
0.000429623245704092
11
-2784.06348147452
21
1958.92443597323
31
0.000429505392175911
  0
LINE
 8
GROUP0
10
-2791.16615624298
20
1998.12210608694
30
0.000426757669403721
11
-2790.36107271066
21
1996.88560735944
31
0.000426757669383981
  0
LINE
 8
GROUP0
10
-2791.20779691746
20
1995.45248024497
30
0.000426757669363537
11
-2791.90368345261
21
1993.94035598979
31
0.000426757669339567
  0
LINE
 8
GROUP0
10
-2782.52450610153
20
1972.67215264943
30
0.000426757669020206
11
-2780.2431149047
21
1971.99923465414
31
0.000426757669010336
  0
LINE
 8
GROUP0
10
-2784.06348147452
20
1958.92443597323
30
0.000429505392175911
11
-2779.09430961266
21
1966.18780528701
31
0.000426757668921507
  0
LINE
 8
GROUP0
10
-2797.51211187341
20
1966.68900635426
30
0.000429561768521425
11
-2791.29890921564
21
1961.92144827317
31
0.000429623245704092
  0
LINE
 8
GROUP0
10
-2781.75986833006
20
1990.97594593822
30
0.000426757673627326
11
-2781.1528768288
21
1991.78936328469
31
0.000426757673638606
  0
LINE
 8
GROUP0
10
-2793.5933446871
20
2001.84996719124
30
0.000426757668736799
11
-2795.64560639907
21
2010.54762763986
31
0.00042570225891756
  0
LINE
 8
GROUP0
10
-2791.90368345261
20
1993.94035598979
30
0.000426757669339567
11
-2782.21691254317
21
1990.06974899308
31
0.000426757673613931
  0
LINE
 8
GROUP0
10
-2790.36107271066
20
1996.88560735944
30
0.000426757669383981
11
-2791.20779691746
21
1995.45248024497
31
0.000426757669363537
  0
LINE
 8
GROUP0
10
-2779.09430961266
20
1966.18780528701
30
0.000426757668921507
11
-2780.2431149047
21
1971.99923465414
31
0.000426757669010336
  0
LINE
 8
GROUP0
10
-2793.5933446871
20
2001.84996719124
30
0.000426757668736799
11
-2791.16615624298
21
1998.12210608694
31
0.000426757669403721
  0
LINE
 8
GROUP0
10
-2780.41425493537
20
1992.48543887387
30
0.000426757673649181
11
-2779.56629863755
21
1993.04316655434
31
0.000426757673658346
  0
LINE
 8
GROUP0
10
-2795.64560639907
20
2010.54762763986
30
0.00042570225891756
11
-2797.51211226915
21
2009.11540731253
31
0.000426415824298726
  0
LINE
 8
GROUP0
10
-2782.21691254317
20
1990.06974899308
30
0.000426757673613931
11
-2781.75986833006
21
1990.97594593822
31
0.000426757673627326
  0
LINE
 8
GROUP0
10
-2772.22779469125
20
1991.54768820147
30
0.000426757673635081
11
-2771.66570962035
21
1990.70261650221
31
0.000426757673623096
  0
LINE
 8
GROUP0
10
-2779.56629863755
20
1993.04316655434
30
0.000426757673658346
11
-2778.63461294036
21
1993.4457083205
31
0.00042675767366469
  0
LINE
 8
GROUP0
10
-2771.66570962035
20
1990.70261650221
30
0.000426757673623096
11
-2771.25837746903
21
1989.77301039935
31
0.000426757673608291
  0
LINE
 8
GROUP0
10
-2777.6473088629
20
1993.68091287712
30
0.000426757673668215
11
-2776.63419880331
21
1993.74168155034
31
0.00042675767366892
  0
LINE
 8
GROUP0
10
-2774.65273564126
20
1993.33788653892
30
0.000426757673663281
11
-2773.74419381631
21
1992.88551378988
31
0.000426757673656231
  0
LINE
 8
GROUP0
10
-2772.9276666073
20
1992.28271806835
30
0.000426757673647066
11
-2772.22779469125
21
1991.54768820147
31
0.000426757673635081
  0
LINE
 8
GROUP0
10
-2771.25837746903
20
1989.77301039935
30
0.000426757673608291
11
-2771.01809284771
21
1988.78693212381
31
0.000426757673593486
  0
LINE
 8
GROUP0
10
-2771.01809284771
20
1988.78693212381
30
0.000426757673593486
11
-2770.96045576299
21
1987.90220804532
31
0.000426757673580091
  0
LINE
 8
GROUP0
10
-2770.96045576299
20
1987.90220804532
30
0.000426757673580091
11
-2770.95211299166
21
1987.77414833489
31
0.000426757673579387
  0
LINE
 8
GROUP0
10
-2773.74419381631
20
1992.88551378988
30
0.000426757673656231
11
-2772.9276666073
21
1992.28271806835
31
0.000426757673647066
  0
LINE
 8
GROUP0
10
-2770.95211299166
20
1987.77414833489
30
0.000426757673579387
11
-2771.0624229682
21
1986.76523102959
31
0.000426757673563877
  0
LINE
 8
GROUP0
10
-2771.0624229682
20
1986.76523102959
30
0.000426757673563877
11
-2771.34569908552
21
1985.79062997259
31
0.000426757673549072
  0
LINE
 8
GROUP0
10
-2778.63461294036
20
1993.4457083205
30
0.00042675767366469
11
-2777.6473088629
21
1993.68091287712
31
0.000426757673668215
  0
LINE
 8
GROUP0
10
-2775.62586085714
20
1993.62617563727
30
0.000426757673667511
11
-2774.65273564126
21
1993.33788653892
31
0.000426757673663281
  0
LINE
 8
GROUP0
10
-2776.63419880331
20
1993.74168155034
30
0.00042675767366892
11
-2775.62586085714
21
1993.62617563727
31
0.000426757673667511
  0
LINE
 8
GROUP0
10
-2779.78897988939
20
1982.88778178262
30
0.000426757673505362
11
-2780.6116730803
21
1983.4821402058
31
0.000426757673514527
  0
LINE
 8
GROUP0
10
-2771.79338817347
20
1984.87977680967
30
0.000426757673535677
11
-2772.39197286896
21
1984.06015460326
31
0.000426757673522282
  0
LINE
 8
GROUP0
10
-2772.39197286896
20
1984.06015460326
30
0.000426757673522282
11
-2773.12338936449
21
1983.35650770515
31
0.000426757673512412
  0
LINE
 8
GROUP0
10
-2775.87788207455
20
1982.13261156315
30
0.000426757673494083
11
-2776.89031212567
21
1982.06141747502
31
0.000426757673493378
  0
LINE
 8
GROUP0
10
-2780.6116730803
20
1983.4821402058
30
0.000426757673514527
11
-2781.31907361566
21
1984.20992503442
31
0.000426757673524397
  0
LINE
 8
GROUP0
10
-2774.89305075518
20
1982.37797015067
30
0.000426757673496903
11
-2775.87788207455
21
1982.13261156315
31
0.000426757673494083
  0
LINE
 8
GROUP0
10
-2771.34569908552
20
1985.79062997259
30
0.000426757673549072
11
-2771.79338817347
21
1984.87977680967
31
0.000426757673535677
  0
LINE
 8
GROUP0
10
-2781.88982772856
20
1985.04916312095
30
0.000426757673537087
11
-2782.30670710833
21
1985.9745277052
31
0.000426757673551892
  0
LINE
 8
GROUP0
10
-2778.87582758555
20
1982.44478855281
30
0.000426757673499017
11
-2779.78897988939
21
1982.88778178262
31
0.000426757673505362
  0
LINE
 8
GROUP0
10
-2781.31907361566
20
1984.20992503442
30
0.000426757673524397
11
-2781.88982772856
21
1985.04916312095
31
0.000426757673537087
  0
LINE
 8
GROUP0
10
-2773.12338936449
20
1983.35650770515
30
0.000426757673512412
11
-2773.96555778847
21
1982.7900804901
31
0.000426757673503952
  0
LINE
 8
GROUP0
10
-2773.96555778847
20
1982.7900804901
30
0.000426757673503952
11
-2774.89305075518
21
1982.37797015067
31
0.000426757673496903
  0
LINE
 8
GROUP0
10
-2777.89978441983
20
1982.16653456428
30
0.000426757673494788
11
-2778.87582758555
21
1982.44478855281
31
0.000426757673499017
  0
LINE
 8
GROUP0
10
-2776.89031212567
20
1982.06141747502
30
0.000426757673493378
11
-2777.89978441983
21
1982.16653456428
31
0.000426757673494788
  0
LINE
 8
GROUP0
10
-2782.30670710833
20
1985.9745277052
30
0.000426757673551892
11
-2792.15382937602
21
1982.53224433668
31
0.000426757669168959
  0
LINE
 8
GROUP0
10
-2792.15382937602
20
1982.53224433668
30
0.000426757669168959
11
-2791.83468483062
21
1981.69416172856
31
0.000426757669156269
  0
LINE
 8
GROUP0
10
-2763.64578856461
20
1974.3850988126
30
0.000426757673376349
11
-2768.1990183936
21
1977.52240391912
31
0.000426757673424993
  0
LINE
 8
GROUP0
10
-2769.72682803465
20
1976.42771400876
30
0.000426757673408074
11
-2771.39208757778
21
1975.55624964289
31
0.000426757673395384
  0
LINE
 8
GROUP0
10
-2766.19112739126
20
1979.5835624187
30
0.000426757673456013
11
-2762.93570773101
21
1975.11401720308
31
0.000426757673388334
  0
LINE
 8
GROUP0
10
-2790.85534227189
20
1979.71417144175
30
0.000426757669125249
11
-2791.83468483062
21
1981.69416172856
31
0.000426757669156269
  0
LINE
 8
GROUP0
10
-2805.27668265019
20
1980.13763615156
30
0.000428929499210218
11
-2802.27967035024
21
1972.90220841044
31
0.00042932514337774
  0
LINE
 8
GROUP0
10
-2768.1990183936
20
1977.52240391912
30
0.000426757673424993
11
-2769.72682803465
21
1976.42771400876
31
0.000426757673408074
  0
LINE
 8
GROUP0
10
-2797.51211226915
20
2009.11540731253
30
0.000426415824298726
11
-2802.27967035024
21
2002.90220465476
31
0.000427100625046062
  0
LINE
 8
GROUP0
10
-2802.27967035024
20
2002.90220465476
30
0.000427100625046062
11
-2805.27668265019
21
1995.66677691363
31
0.000427778003805879
  0
LINE
 8
GROUP0
10
-2762.93570773101
20
1975.11401720308
30
0.000426757673388334
11
-2763.64578856461
21
1974.3850988126
31
0.000426757673376349
  0
LINE
 8
GROUP0
10
-2790.85534227189
20
1979.71417144175
30
0.000426757669125249
11
-2790.36107271066
21
1978.91880894562
31
0.000426757669113265
  0
LINE
 8
GROUP0
10
-2805.27668265019
20
1995.66677691363
30
0.000427778003805879
11
-2806.29890773354
21
1987.9022065326
31
0.000428401798683531
  0
LINE
 8
GROUP0
10
-2790.36107271066
20
1978.91880894562
30
0.000426757669113265
11
-2793.59334468711
21
1973.95444606455
31
0.000426757669038536
  0
LINE
 8
GROUP0
10
-2802.27967035024
20
1972.90220841044
30
0.00042932514337774
11
-2793.59334468711
21
1973.95444606455
31
0.000426757669038536
  0
LINE
 8
GROUP0
10
-2806.29890773354
20
1987.9022065326
30
0.000428401798683531
11
-2805.27668265019
21
1980.13763615156
31
0.000428929499210218
  0
LINE
 8
GROUP0
10
-2788.3124475482
20
1980.91136204507
30
0.000426757669144284
11
-2783.58502044029
21
1982.5639412466
31
0.000426757669168254
  0
LINE
 8
GROUP0
10
-2775.79028004853
20
1969.07298857883
30
0.00042675767329739
11
-2776.80754317442
21
1969.04635178095
31
0.00042675767329598
  0
LINE
 8
GROUP0
10
-2779.73808483754
20
1974.75277078286
30
0.000426757673381989
11
-2781.5390167556
21
1975.29054182858
31
0.000426757669059685
  0
LINE
 8
GROUP0
10
-2781.5390167556
20
1975.29054182858
30
0.000426757669059685
11
-2783.24760168852
21
1976.07366002709
31
0.00042675766907167
  0
LINE
 8
GROUP0
10
-2771.39208757778
20
1975.55624964289
30
0.000426757673395384
11
-2773.16240474962
21
1974.92496088735
31
0.000426757673385514
  0
LINE
 8
GROUP0
10
-2777.87984848982
20
1974.47080737133
30
0.000426757673377759
11
-2779.73808483754
21
1974.75277078286
31
0.000426757673381989
  0
LINE
 8
GROUP0
10
-2784.83060900746
20
1977.08688899586
30
0.000426757669086475
11
-2789.21340281793
21
1973.7155868391
31
0.000426757669035716
  0
LINE
 8
GROUP0
10
-2775.00333341064
20
1974.54613320477
30
0.000426757673379874
11
-2775.79028004853
21
1969.07298857883
31
0.00042675767329739
  0
LINE
 8
GROUP0
10
-2783.24760168852
20
1976.07366002709
30
0.00042675766907167
11
-2784.83060900746
21
1977.08688899586
31
0.000426757669086475
  0
LINE
 8
GROUP0
10
-2789.21340281793
20
1973.7155868391
30
0.000426757669035716
11
-2789.96066249846
21
1974.40634299678
31
0.00042675766904629
  0
LINE
 8
GROUP0
10
-2783.58502044029
20
1982.5639412466
30
0.000426757669168254
11
-2782.5889984374
21
1981.49624489737
31
0.000426757669152039
  0
LINE
 8
GROUP0
10
-2789.96066249846
20
1974.40634299678
30
0.00042675766904629
11
-2786.94362319758
21
1979.04013880999
31
0.000426757669116085
  0
LINE
 8
GROUP0
10
-2786.94362319758
20
1979.04013880999
30
0.000426757669116085
11
-2787.66835266916
21
1979.94625647441
31
0.000426757669128774
  0
LINE
 8
GROUP0
10
-2776.80754317442
20
1969.04635178095
30
0.00042675767329598
11
-2777.87984848982
21
1974.47080737133
31
0.000426757673377759
  0
LINE
 8
GROUP0
10
-2773.16240474962
20
1974.92496088735
30
0.000426757673385514
11
-2775.00333341064
21
1974.54613320477
31
0.000426757673379874
  0
LINE
 8
GROUP0
10
-2787.66835266916
20
1979.94625647441
30
0.000426757669128774
11
-2788.3124475482
21
1980.91136204507
31
0.000426757669144284
  0
LINE
 8
GROUP0
10
-2768.16996963223
20
1988.4433933777
30
0.000426757673589256
11
-2768.38425627534
21
1989.88772642197
31
0.000426757673611111
  0
LINE
 8
GROUP0
10
-2777.29877568606
20
1979.27774618233
30
0.000426757673451078
11
-2775.83911697313
21
1979.31563474418
31
0.000426757673451783
  0
LINE
 8
GROUP0
10
-2780.13340005157
20
1979.93508551579
30
0.000426757673460948
11
-2778.74395947346
21
1979.48621484017
31
0.000426757673454603
  0
LINE
 8
GROUP0
10
-2768.99422080367
20
1984.18367688452
30
0.000426757673525102
11
-2768.47936874737
21
1985.55004334218
31
0.000426757673545547
  0
LINE
 8
GROUP0
10
-2782.5889984374
20
1981.49624489737
30
0.000426757669152039
11
-2781.42740169641
21
1980.61153760171
31
0.000426757669140054
  0
LINE
 8
GROUP0
10
-2778.74395947346
20
1979.48621484017
30
0.000426757673454603
11
-2777.29877568606
21
1979.27774618233
31
0.000426757673451078
  0
LINE
 8
GROUP0
10
-2770.67110869419
20
1981.80560284752
30
0.000426757673489148
11
-2769.73182424475
21
1982.92353115713
31
0.000426757673506067
  0
LINE
 8
GROUP0
10
-2774.40669109283
20
1979.59879803894
30
0.000426757673456013
11
-2773.042410328
21
1980.11914790836
31
0.000426757673463768
  0
LINE
 8
GROUP0
10
-2768.47936874737
20
1985.55004334218
30
0.000426757673545547
11
-2768.20197922363
21
1986.98359744813
31
0.000426757673567402
  0
LINE
 8
GROUP0
10
-2773.042410328
20
1980.11914790836
30
0.000426757673463768
11
-2771.78524677545
21
1980.86182074175
31
0.000426757673475048
  0
LINE
 8
GROUP0
10
-2768.20197922363
20
1986.98359744813
30
0.000426757673567402
11
-2768.18183582179
21
1987.90220791284
31
0.000426757673580091
  0
LINE
 8
GROUP0
10
-2781.42740169641
20
1980.61153760171
30
0.000426757669140054
11
-2780.13340005157
21
1979.93508551579
31
0.000426757673460948
  0
LINE
 8
GROUP0
10
-2775.83911697313
20
1979.31563474418
30
0.000426757673451783
11
-2774.40669109283
21
1979.59879803894
31
0.000426757673456013
  0
LINE
 8
GROUP0
10
-2768.18183582179
20
1987.90220791284
30
0.000426757673580091
11
-2768.16996963223
21
1988.4433933777
31
0.000426757673589256
  0
LINE
 8
GROUP0
10
-2769.73182424475
20
1982.92353115713
30
0.000426757673506067
11
-2768.99422080367
21
1984.18367688452
31
0.000426757673525102
  0
LINE
 8
GROUP0
10
-2771.78524677545
20
1980.86182074175
30
0.000426757673475048
11
-2770.67110869419
21
1981.80560284752
31
0.000426757673489148
  0
LINE
 8
GROUP0
10
-2776.92024986815
20
1996.5405775259
30
0.00042675767371122
11
-2778.37318497793
21
1996.39565846506
31
0.000426757673709105
  0
LINE
 8
GROUP0
10
-2778.37318497793
20
1996.39565846506
30
0.000426757673709105
11
-2779.78096351097
21
1996.00812210012
31
0.000426757673703465
  0
LINE
 8
GROUP0
10
-2774.04502158798
20
1996.09306529495
30
0.000426757673703465
11
-2775.46365872121
21
1996.43874753733
31
0.00042675767370981
  0
LINE
 8
GROUP0
10
-2782.30263647044
20
1994.55609873054
30
0.00042675767368161
11
-2783.34449797679
21
1993.53308469116
31
0.0004267576736661
  0
LINE
 8
GROUP0
10
-2768.8387192911
20
1991.275349642
30
0.000426757673630851
11
-2769.52037798596
21
1992.56661305268
31
0.000426757673651296
  0
LINE
 8
GROUP0
10
-2783.34449797679
20
1993.53308469116
30
0.0004267576736661
11
-2787.99494350388
21
1995.3912967401
31
0.000426757669361422
  0
LINE
 8
GROUP0
10
-2786.94362319758
20
1996.76427418083
30
0.000426757669383276
11
-2789.96066249846
21
2001.39806999405
31
0.000426757669453071
  0
LINE
 8
GROUP0
10
-2772.70486045811
20
1995.51341649492
30
0.00042675767369571
11
-2774.04502158798
21
1996.09306529495
31
0.000426757673703465
  0
LINE
 8
GROUP0
10
-2787.99494350388
20
1995.3912967401
30
0.000426757669361422
11
-2786.94362319758
21
1996.76427418083
31
0.000426757669383276
  0
LINE
 8
GROUP0
10
-2770.40975674568
20
1993.7246421612
30
0.00042675767366892
11
-2771.48145829599
21
1994.71635251252
31
0.000426757673683725
  0
LINE
 8
GROUP0
10
-2769.52037798596
20
1992.56661305268
30
0.000426757673651296
11
-2770.40975674568
21
1993.7246421612
31
0.00042675767366892
  0
LINE
 8
GROUP0
10
-2768.38425627534
20
1989.88772642197
30
0.000426757673611111
11
-2768.8387192911
21
1991.275349642
31
0.000426757673630851
  0
LINE
 8
GROUP0
10
-2781.10337223884
20
1995.38904028879
30
0.00042675767369289
11
-2782.30263647044
21
1994.55609873054
31
0.00042675767368161
  0
LINE
 8
GROUP0
10
-2775.46365872121
20
1996.43874753733
30
0.00042675767370981
11
-2776.92024986815
21
1996.5405775259
31
0.00042675767371122
  0
LINE
 8
GROUP0
10
-2779.78096351097
20
1996.00812210012
30
0.000426757673703465
11
-2781.10337223884
21
1995.38904028879
31
0.00042675767369289
  0
LINE
 8
GROUP0
10
-2771.48145829599
20
1994.71635251252
30
0.000426757673683725
11
-2772.70486045811
21
1995.51341649492
31
0.00042675767369571
  0
LINE
 8
GROUP0
10
-2771.39208757777
20
2000.24816792182
30
0.000426757673766914
11
-2769.72682803465
21
1999.37670203132
31
0.000426757673754224
  0
LINE
 8
GROUP0
10
-2763.6457885646
20
2001.41931417821
30
0.000426757675228362
11
-2762.935707731
21
2000.69039883699
31
0.000426757675217787
  0
LINE
 8
GROUP0
10
-2781.53901675559
20
2000.51387116224
30
0.000426757673771144
11
-2779.73808483753
21
2001.05164373259
31
0.000426757673778194
  0
LINE
 8
GROUP0
10
-2777.87984848982
20
2001.33360561949
30
0.000426757673782424
11
-2776.8075431744
21
2006.75806578376
31
0.000426757673864203
  0
LINE
 8
GROUP0
10
-2762.935707731
20
2000.69039883699
30
0.000426757675217787
11
-2766.19112739126
21
1996.22085362138
31
0.000426757673706285
  0
LINE
 8
GROUP0
10
-2769.72682803465
20
1999.37670203132
30
0.000426757673754224
11
-2768.1990183936
21
1998.28201212096
31
0.000426757673737305
  0
LINE
 8
GROUP0
10
-2775.00333341063
20
2001.25827978605
30
0.000426757673782424
11
-2773.16240474961
21
2000.87945210346
31
0.000426757673776784
  0
LINE
 8
GROUP0
10
-2789.96066249846
20
2001.39806999405
30
0.000426757669453071
11
-2789.21340281793
21
2002.08882767636
31
0.000426757669463645
  0
LINE
 8
GROUP0
10
-2789.21340281793
20
2002.08882767636
30
0.000426757669463645
11
-2784.83060900746
21
1998.7175255196
31
0.000426757673742945
  0
LINE
 8
GROUP0
10
-2783.24760168852
20
1999.73075448836
30
0.000426757673759159
11
-2781.53901675559
21
2000.51387116224
31
0.000426757673771144
  0
LINE
 8
GROUP0
10
-2776.8075431744
20
2006.75806578376
30
0.000426757673864203
11
-2775.79028004852
21
2006.73142441199
31
0.000426757673864908
  0
LINE
 8
GROUP0
10
-2784.83060900746
20
1998.7175255196
30
0.000426757673742945
11
-2783.24760168852
21
1999.73075448836
31
0.000426757673759159
  0
LINE
 8
GROUP0
10
-2775.79028004852
20
2006.73142441199
30
0.000426757673864908
11
-2775.00333341063
21
2001.25827978605
31
0.000426757673782424
  0
LINE
 8
GROUP0
10
-2773.16240474961
20
2000.87945210346
30
0.000426757673776784
11
-2771.39208757777
21
2000.24816792182
31
0.000426757673766914
  0
LINE
 8
GROUP0
10
-2768.1990183936
20
1998.28201212096
30
0.000426757673737305
11
-2763.6457885646
21
2001.41931417821
31
0.000426757675228362
  0
LINE
 8
GROUP0
10
-2779.73808483753
20
2001.05164373259
30
0.000426757673778194
11
-2777.87984848982
21
2001.33360561949
31
0.000426757673782424
  0
LINE
 8
GROUP0
10
-2763.39399299233
20
1989.34095787194
30
0.000426757674324563
11
-2757.94332597563
21
1988.41101330138
31
0.000426757675032374
  0
LINE
 8
GROUP0
10
-2757.94332597563
20
1988.41101330138
30
0.000426757675032374
11
-2757.94332597563
21
1987.39339949885
31
0.000426757675016159
  0
LINE
 8
GROUP0
10
-2764.3092302267
20
1982.82700382914
30
0.000426757673504657
11
-2765.13680661456
21
1981.1395029943
31
0.000426757673479278
  0
LINE
 8
GROUP0
10
-2764.3092302267
20
1992.97740916168
30
0.000426757674379552
11
-2763.72450059964
21
1991.19117486031
31
0.000426757674352762
  0
LINE
 8
GROUP0
10
-2766.19112739126
20
1996.22085362138
30
0.000426757673706285
11
-2765.13680661456
21
1994.66491152114
31
0.000426757674404932
  0
LINE
 8
GROUP0
10
-2763.72450059964
20
1984.6132381305
30
0.000426757673531447
11
-2764.3092302267
21
1982.82700382914
31
0.000426757673504657
  0
LINE
 8
GROUP0
10
-2763.72450059964
20
1991.19117486031
30
0.000426757674352762
11
-2763.39399299233
21
1989.34095787194
31
0.000426757674324563
  0
LINE
 8
GROUP0
10
-2765.13680661456
20
1994.66491152114
30
0.000426757674404932
11
-2764.3092302267
21
1992.97740916168
31
0.000426757674379552
  0
LINE
 8
GROUP0
10
-2757.94332597563
20
1987.39339949885
30
0.000426757675016159
11
-2763.39399299233
21
1986.46345797755
31
0.000426757674281558
  0
LINE
 8
GROUP0
10
-2763.39399299233
20
1986.46345797755
30
0.000426757674281558
11
-2763.72450059964
21
1984.6132381305
31
0.000426757673531447
  0
LINE
 8
GROUP0
10
-2765.13680661456
20
1981.1395029943
30
0.000426757673479278
11
-2766.19112739126
21
1979.5835624187
31
0.000426757673456013
  0
LINE
 8
GROUP0
10
-2871.78126560979
20
1941.90218210349
30
0.000144855195811239
11
-2871.4634283646
21
1941.48796854112
31
0.000144832435381659
  0
LINE
 8
GROUP0
10
-2870.56685289243
20
1940.97033045092
30
0.00014489022077348
11
-2870.04921480222
21
1940.90218210349
31
0.000144966827125675
  0
LINE
 8
GROUP0
10
-2871.9810664548
20
1942.38454401329
30
0.000144911111468699
11
-2871.78126560979
21
1941.90218210349
31
0.000144855195811239
  0
LINE
 8
GROUP0
10
-2872.04921480222
20
1942.90218210349
30
0.000144996372102746
11
-2871.9810664548
21
1942.38454401329
31
0.000144911111468699
  0
LINE
 8
GROUP0
10
-2870.04921480222
20
1940.90218210349
30
0.000144966827125675
11
-2869.53157671202
21
1940.97033045092
31
0.000145068981923008
  0
LINE
 8
GROUP0
10
-2871.4634283646
20
1941.48796854112
30
0.000144832435381659
11
-2871.04921480222
21
1941.17013129593
31
0.000144844382290216
  0
LINE
 8
GROUP0
10
-2869.04921480222
20
1941.17013129593
30
0.000145189722334066
11
-2868.63500123985
21
1941.48796854112
31
0.000145320820729467
  0
LINE
 8
GROUP0
10
-2871.9810664548
20
1943.4198201937
30
0.00014510516704907
11
-2872.04921480222
21
1942.90218210349
31
0.000144996372102746
  0
LINE
 8
GROUP0
10
-2871.04921480222
20
1941.17013129593
30
0.000144844382290216
11
-2870.56685289243
21
1940.97033045092
31
0.00014489022077348
  0
LINE
 8
GROUP0
10
-2869.53157671202
20
1940.97033045092
30
0.000145068981923008
11
-2869.04921480222
21
1941.17013129593
31
0.000145189722334066
  0
LINE
 8
GROUP0
10
-2868.63500123985
20
1944.31639566587
30
0.000145850989632035
11
-2869.04921480222
21
1944.63423291106
31
0.000145839043446799
  0
LINE
 8
GROUP0
10
-2681.13500124046
20
1944.31639566536
30
1.018554250376e-006
11
-2681.54921480268
21
1944.63423291043
31
1.00660806514052e-006
  0
LINE
 8
GROUP0
10
-2680.81716399538
20
1943.90218210315
30
9.95793820796065e-007
11
-2681.13500124046
21
1944.31639566536
31
1.018554250376e-006
  0
LINE
 8
GROUP0
10
-2870.04921480222
20
1944.90218210349
30
0.00014571659860993
11
-2870.56685289243
21
1944.83403375607
31
0.000145614443812597
  0
LINE
 8
GROUP0
10
-2871.04921480222
20
1944.63423291106
30
0.000145493703402949
11
-2871.4634283646
21
1944.31639566587
31
0.000145362605006139
  0
LINE
 8
GROUP0
10
-2869.04921480222
20
1944.63423291106
30
0.000145839043446799
11
-2869.53157671202
21
1944.83403375607
31
0.000145793204962125
  0
LINE
 8
GROUP0
10
-2870.56685289243
20
1944.83403375607
30
0.000145614443812597
11
-2871.04921480222
21
1944.63423291106
31
0.000145493703402949
  0
LINE
 8
GROUP0
10
-2871.4634283646
20
1944.31639566587
30
0.000145362605006139
11
-2871.78126560979
21
1943.90218210349
31
0.000145230082276687
  0
LINE
 8
GROUP0
10
-2871.78126560979
20
1943.90218210349
30
0.000145230082276687
11
-2871.9810664548
21
1943.4198201937
31
0.00014510516704907
  0
LINE
 8
GROUP0
10
-2869.53157671202
20
1944.83403375607
30
0.000145793204962125
11
-2870.04921480222
21
1944.90218210349
31
0.00014571659860993
  0
LINE
 8
GROUP0
10
-2682.54921480222
20
1940.90218210426
30
1.34391744016638e-007
11
-2682.03157671221
21
1940.97033045167
31
2.3654654134897e-007
  0
LINE
 8
GROUP0
10
-2680.61736315043
20
1943.41982019355
30
9.39878164746277e-007
11
-2680.81716399538
21
1943.90218210315
31
9.95793820796065e-007
  0
LINE
 8
GROUP0
10
-2681.5492148026
20
1941.17013129661
30
3.5728695240711e-007
11
-2681.1350012404
21
1941.4879685417
31
4.88385347807707e-007
  0
LINE
 8
GROUP0
10
-2683.96342836406
20
1941.48796854163
30
0.0
11
-2683.54921480184
21
1941.17013129657
31
1.19461866454618e-008
  0
LINE
 8
GROUP0
10
-2683.54921480184
20
1941.17013129657
30
1.19461866454618e-008
11
-2683.06685289222
21
1940.97033045164
31
5.77846699101325e-008
  0
LINE
 8
GROUP0
10
-2684.48106645411
20
1943.41982019346
30
2.72731667411152e-007
11
-2684.5492148015
21
1942.90218210345
31
1.63936721087055e-007
  0
LINE
 8
GROUP0
10
-2684.28126560919
20
1943.90218210307
30
3.97646173116994e-007
11
-2684.48106645411
21
1943.41982019346
31
2.72731667411152e-007
  0
LINE
 8
GROUP0
10
-2681.1350012404
20
1941.4879685417
30
4.88385347807707e-007
11
-2680.81716399533
21
1941.90218210392
31
6.20908077259008e-007
  0
LINE
 8
GROUP0
10
-2680.61736315041
20
1942.38454401353
30
7.45822584374833e-007
11
-2680.54921480303
21
1942.90218210354
31
8.54617530698931e-007
  0
LINE
 8
GROUP0
10
-2683.06685289222
20
1940.97033045164
30
5.77846699101325e-008
11
-2682.54921480222
21
1940.90218210426
31
1.34391744016638e-007
  0
LINE
 8
GROUP0
10
-2684.28126560915
20
1941.90218210384
30
2.27604295799377e-008
11
-2683.96342836406
21
1941.48796854163
31
0.0
  0
LINE
 8
GROUP0
10
-2680.81716399533
20
1941.90218210392
30
6.20908077259008e-007
11
-2680.61736315041
21
1942.38454401353
31
7.45822584374833e-007
  0
LINE
 8
GROUP0
10
-2680.54921480303
20
1942.90218210354
30
8.54617530698931e-007
11
-2680.61736315043
21
1943.41982019355
31
9.39878164746277e-007
  0
LINE
 8
GROUP0
10
-2682.03157671221
20
1940.97033045167
30
2.3654654134897e-007
11
-2681.5492148026
21
1941.17013129661
31
3.5728695240711e-007
  0
LINE
 8
GROUP0
10
-2684.48106645409
20
1942.38454401344
30
7.86760870397085e-008
11
-2684.28126560915
21
1941.90218210384
31
2.27604295799377e-008
  0
LINE
 8
GROUP0
10
-2684.5492148015
20
1942.90218210345
30
1.63936721087055e-007
11
-2684.48106645409
21
1942.38454401344
31
7.86760870397085e-008
  0
LINE
 8
GROUP0
10
-2682.0315767123
20
1944.83403375535
30
9.6076958046587e-007
11
-2682.54921480231
21
1944.90218210273
31
8.84163228270785e-007
  0
LINE
 8
GROUP0
10
-2799.88469410541
20
1961.4879893786
30
0.000434440113737117
11
-2799.56685686021
21
1961.90220294098
31
0.00043439446006529
  0
LINE
 8
GROUP0
10
-2801.29890766778
20
1960.90220294098
30
0.000434550021853225
11
-2800.78126957758
21
1960.9703512884
31
0.000434520637894831
  0
LINE
 8
GROUP0
10
-2800.29890766778
20
1961.17015213341
30
0.000434483150481457
11
-2799.88469410541
21
1961.4879893786
31
0.000434440113737117
  0
LINE
 8
GROUP0
10
-2801.81654575799
20
1960.9703512884
30
0.000434569298334064
11
-2801.29890766778
21
1960.90220294098
31
0.000434550021853225
  0
LINE
 8
GROUP0
10
-2682.54921480231
20
1944.90218210273
30
8.84163228270785e-007
11
-2683.06685289231
21
1944.83403375532
31
7.82008430938452e-007
  0
LINE
 8
GROUP0
10
-2681.54921480268
20
1944.63423291043
30
1.00660806514052e-006
11
-2682.0315767123
21
1944.83403375535
31
9.6076958046587e-007
  0
LINE
 8
GROUP0
10
-2802.29890766778
20
1961.17015213341
30
0.000434577155620774
11
-2801.81654575799
21
1960.9703512884
31
0.000434569298334064
  0
LINE
 8
GROUP0
10
-2802.71312123016
20
1961.4879893786
30
0.000434573056612669
11
-2802.29890766778
21
1961.17015213341
31
0.000434577155620774
  0
LINE
 8
GROUP0
10
-2799.29890766778
20
1962.90220294098
30
0.000434307715203924
11
-2799.3670560152
21
1963.41984103118
31
0.000434272535024383
  0
LINE
 8
GROUP0
10
-2799.56685686021
20
1961.90220294098
30
0.00043439446006529
11
-2799.3670560152
21
1962.38456485077
31
0.000434349301625403
  0
LINE
 8
GROUP0
10
-2683.54921480192
20
1944.63423291038
30
6.61267299378876e-007
11
-2683.96342836413
21
1944.3163956653
31
5.30168902568295e-007
  0
LINE
 8
GROUP0
10
-2799.3670560152
20
1962.38456485077
30
0.000434349301625403
11
-2799.29890766778
21
1962.90220294098
31
0.000434307715203924
  0
LINE
 8
GROUP0
10
-2683.06685289231
20
1944.83403375532
30
7.82008430938452e-007
11
-2683.54921480192
21
1944.63423291038
31
6.61267299378876e-007
  0
LINE
 8
GROUP0
10
-2683.96342836413
20
1944.3163956653
30
5.30168902568295e-007
11
-2684.28126560919
21
1943.90218210307
31
3.97646173116994e-007
  0
LINE
 8
GROUP0
10
-2800.78126957758
20
1960.9703512884
30
0.000434520637894831
11
-2800.29890766778
21
1961.17015213341
31
0.000434483150481457
  0
LINE
 8
GROUP0
10
-2800.78126957758
20
1964.83405459355
30
0.000434234142351714
11
-2801.29890766778
21
1964.90220294098
31
0.000434253418832553
  0
LINE
 8
GROUP0
10
-2803.29890766778
20
1962.90220294098
30
0.000434495725482559
11
-2803.23075932036
21
1962.38456485077
31
0.0004345309056621
  0
LINE
 8
GROUP0
10
-2800.29890766778
20
1964.63425374854
30
0.000434226285065709
11
-2800.78126957758
21
1964.83405459355
31
0.000434234142351714
  0
LINE
 8
GROUP0
10
-2799.88469410541
20
1964.31641650335
30
0.000434230384073109
11
-2800.29890766778
21
1964.63425374854
31
0.000434226285065709
  0
LINE
 8
GROUP0
10
-2802.29890766778
20
1964.63425374854
30
0.000434320290205026
11
-2802.71312123016
21
1964.31641650335
31
0.000434363326948661
  0
LINE
 8
GROUP0
10
-2803.23075932036
20
1962.38456485077
30
0.0004345309056621
11
-2803.03095847535
21
1961.90220294098
31
0.000434557282132586
  0
LINE
 8
GROUP0
10
-2799.56685686021
20
1963.90220294097
30
0.000434246158553192
11
-2799.88469410541
21
1964.31641650335
31
0.000434230384073109
  0
LINE
 8
GROUP0
10
-2799.3670560152
20
1963.41984103118
30
0.000434272535024383
11
-2799.56685686021
21
1963.90220294097
31
0.000434246158553192
  0
LINE
 8
GROUP0
10
-2802.29890766778
20
2014.63426126003
30
0.000426534472689449
11
-2802.71312123015
21
2014.31642401483
31
0.00042657750943379
  0
LINE
 8
GROUP0
10
-2803.03095847535
20
1963.90220294097
30
0.000434408980620488
11
-2803.23075932036
21
1963.41984103118
31
0.00043445413906108
  0
LINE
 8
GROUP0
10
-2803.23075932036
20
1963.41984103118
30
0.00043445413906108
11
-2803.29890766778
21
1962.90220294098
31
0.000434495725482559
  0
LINE
 8
GROUP0
10
-2802.71312123016
20
1964.31641650335
30
0.000434363326948661
11
-2803.03095847535
21
1963.90220294097
31
0.000434408980620488
  0
LINE
 8
GROUP0
10
-2801.81654575799
20
1964.83405459355
30
0.000434282802790947
11
-2802.29890766778
21
1964.63425374854
31
0.000434320290205026
  0
LINE
 8
GROUP0
10
-2801.29890766778
20
1964.90220294098
30
0.000434253418832553
11
-2801.81654575799
21
1964.83405459355
31
0.000434282802790947
  0
LINE
 8
GROUP0
10
-2803.03095847535
20
1961.90220294098
30
0.000434557282132586
11
-2802.71312123016
21
1961.4879893786
31
0.000434573056612669
  0
LINE
 8
GROUP0
10
-2800.29890766778
20
2011.17015964489
30
0.000426697332965881
11
-2799.88469410541
21
2011.48799689009
31
0.00042665429622013
  0
LINE
 8
GROUP0
10
-2799.88469410541
20
2014.31642401483
30
0.000426444566558237
11
-2800.29890766778
21
2014.63426126003
31
0.000426440467550132
  0
LINE
 8
GROUP0
10
-2801.29890766778
20
2014.90221045246
30
0.000426467601315567
11
-2801.81654575799
21
2014.83406210504
31
0.000426496985276076
  0
LINE
 8
GROUP0
10
-2800.29890766778
20
2014.63426126003
30
0.000426440467550132
11
-2800.78126957758
21
2014.83406210504
31
0.000426448324836842
  0
LINE
 8
GROUP0
10
-2801.29890766778
20
2010.90221045246
30
0.000426764204338353
11
-2800.78126957758
21
2010.97035879988
31
0.000426734820377844
  0
LINE
 8
GROUP0
10
-2800.78126957758
20
2010.97035879988
30
0.000426734820377844
11
-2800.29890766778
21
2011.17015964489
31
0.000426697332965881
  0
LINE
 8
GROUP0
10
-2801.81654575799
20
2010.97035879988
30
0.000426783480817078
11
-2801.29890766778
21
2010.90221045246
31
0.000426764204338353
  0
LINE
 8
GROUP0
10
-2802.29890766778
20
2011.17015964489
30
0.000426791338105198
11
-2801.81654575799
21
2010.97035879988
31
0.000426783480817078
  0
LINE
 8
GROUP0
10
-2799.56685686021
20
2013.90221045246
30
0.000426460341038321
11
-2799.88469410541
21
2014.31642401483
31
0.000426444566558237
  0
LINE
 8
GROUP0
10
-2799.3670560152
20
2013.41984854266
30
0.000426486717508806
11
-2799.56685686021
21
2013.90221045246
31
0.000426460341038321
  0
LINE
 8
GROUP0
10
-2799.56685686021
20
2011.90221045246
30
0.000426608642549009
11
-2799.3670560152
21
2012.38457236225
31
0.000426563484109826
  0
LINE
 8
GROUP0
10
-2800.78126957758
20
2014.83406210504
30
0.000426448324836842
11
-2801.29890766778
21
2014.90221045246
31
0.000426467601315567
  0
LINE
 8
GROUP0
10
-2799.3670560152
20
2012.38457236225
30
0.000426563484109826
11
-2799.29890766778
21
2012.90221045246
31
0.000426521897688348
  0
LINE
 8
GROUP0
10
-2801.81654575799
20
2014.83406210504
30
0.000426496985276076
11
-2802.29890766778
21
2014.63426126003
31
0.000426534472689449
  0
LINE
 8
GROUP0
10
-2799.29890766778
20
2012.90221045246
30
0.000426521897688348
11
-2799.3670560152
21
2013.41984854266
31
0.000426486717508806
  0
LINE
 8
GROUP0
10
-2799.88469410541
20
2011.48799689009
30
0.00042665429622013
11
-2799.56685686021
21
2011.90221045246
31
0.000426608642549009
  0
LINE
 8
GROUP0
10
-2802.71312123015
20
2011.48799689009
30
0.000426787239095683
11
-2802.29890766778
21
2011.17015964489
31
0.000426791338105198
  0
LINE
 8
GROUP0
10
-2803.03095847535
20
2011.90221045246
30
0.000426771464616305
11
-2802.71312123015
21
2011.48799689009
31
0.000426787239095683
  0
LINE
 8
GROUP0
10
-2752.71312874152
20
2014.31642401483
30
0.000427699898325662
11
-2753.03096598671
21
2013.90221045246
31
0.000427745551997488
  0
LINE
 8
GROUP0
10
-2803.23075932036
20
2013.41984854266
30
0.000426668321545504
11
-2803.29890766778
21
2012.90221045246
31
0.000426709907966982
  0
LINE
 8
GROUP0
10
-2753.23076683172
20
2013.41984854266
30
0.000427790710437376
11
-2753.29891517914
21
2012.90221045246
31
0.000427832296858854
  0
LINE
 8
GROUP0
10
-2803.23075932036
20
2012.38457236225
30
0.000426745088146524
11
-2803.03095847535
21
2011.90221045246
31
0.000426771464616305
  0
LINE
 8
GROUP0
10
-2803.29890766778
20
2012.90221045246
30
0.000426709907966982
11
-2803.23075932036
21
2012.38457236225
31
0.000426745088146524
  0
LINE
 8
GROUP0
10
-2753.29891517914
20
2012.90221045246
30
0.000427832296858854
11
-2753.23076683172
21
2012.38457236225
31
0.000427867477038396
  0
LINE
 8
GROUP0
10
-2803.03095847535
20
2013.90221045246
30
0.000426623163105616
11
-2803.23075932036
21
2013.41984854266
31
0.000426668321545504
  0
LINE
 8
GROUP0
10
-2802.71312123015
20
2014.31642401483
30
0.00042657750943379
11
-2803.03095847535
21
2013.90221045246
31
0.000426623163105616
  0
LINE
 8
GROUP0
10
-2753.03096598671
20
2013.90221045246
30
0.000427745551997488
11
-2753.23076683172
21
2013.41984854266
31
0.000427790710437376
  0
LINE
 8
GROUP0
10
-2749.29891517914
20
2012.90221045246
30
0.00042764428658022
11
-2749.36706352657
21
2013.41984854266
31
0.000427609106400678
  0
LINE
 8
GROUP0
10
-2750.29891517914
20
2014.63426126003
30
0.000427562856442004
11
-2750.78127708894
21
2014.83406210504
31
0.000427570713728714
  0
LINE
 8
GROUP0
10
-2751.29891517914
20
2014.90221045246
30
0.000427589990207439
11
-2751.81655326935
21
2014.83406210504
31
0.000427619374167948
  0
LINE
 8
GROUP0
10
-2750.29891517914
20
2011.17015964489
30
0.000427819721857753
11
-2749.88470161677
21
2011.48799689009
31
0.000427776685112002
  0
LINE
 8
GROUP0
10
-2749.36706352657
20
2013.41984854266
30
0.000427609106400678
11
-2749.56686437158
21
2013.90221045246
31
0.000427582729930193
  0
LINE
 8
GROUP0
10
-2750.78127708894
20
2010.97035879988
30
0.000427857209269716
11
-2750.29891517914
21
2011.17015964489
31
0.000427819721857753
  0
LINE
 8
GROUP0
10
-2751.29891517914
20
2010.90221045246
30
0.000427886593230226
11
-2750.78127708894
21
2010.97035879988
31
0.000427857209269716
  0
LINE
 8
GROUP0
10
-2752.29891517914
20
2014.63426126003
30
0.000427656861581321
11
-2752.71312874152
21
2014.31642401483
31
0.000427699898325662
  0
LINE
 8
GROUP0
10
-2751.81655326935
20
2010.97035879988
30
0.00042790586970895
11
-2751.29891517914
21
2010.90221045246
31
0.000427886593230226
  0
LINE
 8
GROUP0
10
-2750.78127708894
20
2014.83406210504
30
0.000427570713728714
11
-2751.29891517914
21
2014.90221045246
31
0.000427589990207439
  0
LINE
 8
GROUP0
10
-2749.88470161677
20
2014.31642401483
30
0.000427566955450109
11
-2750.29891517914
21
2014.63426126003
31
0.000427562856442004
  0
LINE
 8
GROUP0
10
-2749.88470161677
20
2011.48799689009
30
0.000427776685112002
11
-2749.56686437158
21
2011.90221045246
31
0.000427731031440881
  0
LINE
 8
GROUP0
10
-2749.56686437158
20
2013.90221045246
30
0.000427582729930193
11
-2749.88470161677
21
2014.31642401483
31
0.000427566955450109
  0
LINE
 8
GROUP0
10
-2749.36706352657
20
2012.38457236225
30
0.000427685873001699
11
-2749.29891517914
21
2012.90221045246
31
0.00042764428658022
  0
LINE
 8
GROUP0
10
-2751.81655326935
20
2014.83406210504
30
0.000427619374167948
11
-2752.29891517914
21
2014.63426126003
31
0.000427656861581321
  0
LINE
 8
GROUP0
10
-2749.56686437158
20
2011.90221045246
30
0.000427731031440881
11
-2749.36706352657
21
2012.38457236225
31
0.000427685873001699
  0
LINE
 8
GROUP0
10
-2753.03096598671
20
1961.90220294098
30
0.000428264606246798
11
-2752.71312874152
21
1961.4879893786
31
0.000428280380726881
  0
LINE
 8
GROUP0
10
-2753.23076683172
20
1962.38456485077
30
0.000428238229776312
11
-2753.03096598671
21
1961.90220294098
31
0.000428264606246798
  0
LINE
 8
GROUP0
10
-2753.23076683172
20
1963.41984103118
30
0.000428161463175292
11
-2753.29891517914
21
1962.90220294098
31
0.00042820304959677
  0
LINE
 8
GROUP0
10
-2753.29891517914
20
1962.90220294098
30
0.00042820304959677
11
-2753.23076683172
21
1962.38456485077
31
0.000428238229776312
  0
LINE
 8
GROUP0
10
-2753.03096598671
20
1963.90220294097
30
0.000428116304734699
11
-2753.23076683172
21
1963.41984103118
31
0.000428161463175292
  0
LINE
 8
GROUP0
10
-2752.29891517914
20
2011.17015964489
30
0.00042791372699707
11
-2751.81655326935
21
2010.97035879988
31
0.00042790586970895
  0
LINE
 8
GROUP0
10
-2752.71312874152
20
2011.48799689009
30
0.000427909627987555
11
-2752.29891517914
21
2011.17015964489
31
0.00042791372699707
  0
LINE
 8
GROUP0
10
-2753.03096598671
20
2011.90221045246
30
0.000427893853508177
11
-2752.71312874152
21
2011.48799689009
31
0.000427909627987555
  0
LINE
 8
GROUP0
10
-2753.23076683172
20
2012.38457236225
30
0.000427867477038396
11
-2753.03096598671
21
2011.90221045246
31
0.000427893853508177
  0
LINE
 8
GROUP0
10
-2666.79904600793
20
1932.90218210349
30
0.000135006152404615
11
-2885.79904600776
21
1932.9021821035
31
0.000150244377763487
  0
LINE
 8
GROUP0
10
-2666.79904600793
20
1957.90218210349
30
0.000133279453283036
11
-2666.79904600793
21
1932.90218210349
31
0.000135006152404615
  0
LINE
 8
GROUP0
10
-2666.79904600793
20
1957.90218210349
30
0.000133279453283036
11
-2656.79904600793
21
1957.90218210349
31
0.000135006147005085
  0
LINE
 8
GROUP0
10
-2631.79904600793
20
1982.90219947363
30
0.00010719930054966
11
-2656.79904600793
21
1957.90218210349
31
0.000135006147005085
  0
LINE
 8
GROUP0
10
-2631.79904600793
20
1992.90219947363
30
0.000107199300699823
11
-2631.79904600793
21
1982.90219947363
31
0.00010719930054966
  0
LINE
 8
GROUP0
10
-2656.79904600793
20
2017.90221684377
30
7.82959133887873e-005
11
-2631.79904600793
21
1992.90219947363
31
0.000107199300699823
  0
LINE
 8
GROUP0
10
-2666.79904600793
20
2017.90221684377
30
7.65692196667389e-005
11
-2656.79904600793
21
2017.90221684377
31
7.82959133887873e-005
  0
LINE
 8
GROUP0
10
-2666.79904600793
20
2022.90218210349
30
0.000135006154481521
11
-2666.79904600793
21
2017.90221684377
31
7.65692196667389e-005
  0
LINE
 8
GROUP0
10
-2708.79845335141
20
2022.90218210349
30
0.000150342848558016
11
-2666.79904600793
21
2022.90218210349
31
0.000135006154481521
  0
LINE
 8
GROUP0
10
-2708.79845335141
20
2042.90219912343
30
0.000150342848860457
11
-2708.79845335141
21
2022.90218210349
31
0.000150342848558016
  0
LINE
 8
GROUP0
10
-2843.79938359668
20
2042.90221415222
30
4.52646734004636e-005
11
-2708.79845335141
21
2042.90219912343
31
0.000150342848860457
  0
LINE
 8
GROUP0
10
-2843.79938359668
20
2022.90221415222
30
4.52646730980222e-005
11
-2843.79938359668
21
2042.90221415222
31
4.52646734004636e-005
  0
LINE
 8
GROUP0
10
-2885.79904600776
20
2022.90221684377
30
9.01982496816389e-005
11
-2843.79938359668
21
2022.90221415222
31
4.52646730980222e-005
  0
LINE
 8
GROUP0
10
-2885.79904600776
20
2017.90221684377
30
9.35341445229498e-005
11
-2885.79904600776
21
2022.90221684377
31
9.01982496816389e-005
  0
LINE
 8
GROUP0
10
-2885.79904600776
20
2017.90221684377
30
9.35341445229498e-005
11
-2895.79904600776
21
2017.90221684377
31
9.18074435817873e-005
  0
LINE
 8
GROUP0
10
-2920.79904600776
20
1992.90219947363
30
0.000119524295839857
11
-2895.79904600776
21
2017.90221684377
31
9.18074435817873e-005
  0
LINE
 8
GROUP0
10
-2920.79904600776
20
1982.90219947363
30
0.000119524295689694
11
-2920.79904600776
21
1992.90219947363
31
0.000119524295839857
  0
LINE
 8
GROUP0
10
-2895.79904600776
20
1957.90218210349
30
0.000148517672144705
11
-2920.79904600776
21
1982.90219947363
31
0.000119524295689694
  0
LINE
 8
GROUP0
10
-2885.79904600776
20
1957.9021821035
30
0.000150244378139247
11
-2895.79904600776
21
1957.90218210349
31
0.000148517672144705
  0
LINE
 8
GROUP0
10
-2885.79904600776
20
1932.9021821035
30
0.000150244377763487
11
-2885.79904600776
21
1957.9021821035
31
0.000150244378139247
  0
LINE
 8
GROUP0
10
-2728.28081526114
20
2030.97033845209
30
0.000276415348118808
11
-2727.79845335134
21
2031.17013929709
31
0.000276536089250368
  0
LINE
 8
GROUP0
10
-2728.79845335134
20
2030.90219010466
30
0.000276313193319361
11
-2728.28081526114
21
2030.97033845209
31
0.000276415348118808
  0
LINE
 8
GROUP0
10
-2729.31609144155
20
2030.97033845209
30
0.000276236586969281
11
-2728.79845335134
21
2030.90219010466
31
0.000276313193319361
  0
LINE
 8
GROUP0
10
-2729.79845335134
20
2031.17013929709
30
0.000276190748484606
11
-2729.31609144155
21
2030.97033845209
31
0.000276236586969281
  0
LINE
 8
GROUP0
10
-2730.21266691371
20
2031.48797654229
30
0.000276178802299371
11
-2729.79845335134
21
2031.17013929709
31
0.000276190748484606
  0
LINE
 8
GROUP0
10
-2730.53050415891
20
2031.90219010466
30
0.00027620156272895
11
-2730.21266691371
21
2031.48797654229
31
0.000276178802299371
  0
LINE
 8
GROUP0
10
-2730.73030500392
20
2032.38455201446
30
0.000276257478385
11
-2730.53050415891
21
2031.90219010466
31
0.00027620156272895
  0
LINE
 8
GROUP0
10
-2730.79845335134
20
2032.90219010466
30
0.00027634274551625
11
-2730.73030500392
21
2032.38455201446
31
0.000276257478385
  0
LINE
 8
GROUP0
10
-2730.73030500392
20
2033.41982819487
30
0.000276451533965372
11
-2730.79845335134
21
2032.90219010466
31
0.00027634274551625
  0
LINE
 8
GROUP0
10
-2730.53050415891
20
2033.90219010466
30
0.000276576448470373
11
-2730.73030500392
21
2033.41982819487
31
0.000276451533965372
  0
LINE
 8
GROUP0
10
-2730.21266691371
20
2034.31640366704
30
0.000276708971200529
11
-2730.53050415891
21
2033.90219010466
31
0.000276576448470373
  0
LINE
 8
GROUP0
10
-2729.79845335134
20
2034.63424091223
30
0.000276840069597339
11
-2730.21266691371
21
2034.31640366704
31
0.000276708971200529
  0
LINE
 8
GROUP0
10
-2729.31609144154
20
2034.83404175724
30
0.000276960810006283
11
-2729.79845335134
21
2034.63424091223
31
0.000276840069597339
  0
LINE
 8
GROUP0
10
-2728.79845335134
20
2034.90219010466
30
0.000277062965527641
11
-2729.31609144154
21
2034.83404175724
31
0.000276960810006283
  0
LINE
 8
GROUP0
10
-2728.28081526114
20
2034.83404175724
30
0.000277139571877721
11
-2728.79845335134
21
2034.90219010466
31
0.000277062965527641
  0
LINE
 8
GROUP0
10
-2727.79845335134
20
2034.63424091223
30
0.000277185410363101
11
-2728.28081526114
21
2034.83404175724
31
0.000277139571877721
  0
LINE
 8
GROUP0
10
-2727.38423978897
20
2034.31640366704
30
0.000277197356548337
11
-2727.79845335134
21
2034.63424091223
31
0.000277185410363101
  0
LINE
 8
GROUP0
10
-2727.06640254377
20
2033.90219010466
30
0.000277174596118052
11
-2727.38423978897
21
2034.31640366704
31
0.000277197356548337
  0
LINE
 8
GROUP0
10
-2726.86660169876
20
2033.41982819487
30
0.000277118680462707
11
-2727.06640254377
21
2033.90219010466
31
0.000277174596118052
  0
LINE
 8
GROUP0
10
-2726.79845335134
20
2032.90219010466
30
0.000277033419828659
11
-2726.86660169876
21
2033.41982819487
31
0.000277118680462707
  0
LINE
 8
GROUP0
10
-2726.86660169876
20
2032.38455201446
30
0.000276924624882335
11
-2726.79845335134
21
2032.90219010466
31
0.000277033419828659
  0
LINE
 8
GROUP0
10
-2727.06640254377
20
2031.90219010466
30
0.00027679971037663
11
-2726.86660169876
21
2032.38455201446
31
0.000276924624882335
  0
LINE
 8
GROUP0
10
-2727.38423978897
20
2031.48797654229
30
0.000276667187647178
11
-2727.06640254377
21
2031.90219010466
31
0.00027679971037663
  0
LINE
 8
GROUP0
10
-2727.79845335134
20
2031.17013929709
30
0.000276536089250368
11
-2727.38423978897
21
2031.48797654229
31
0.000276667187647178
  0
LINE
 8
GROUP0
10
-2823.79938359654
20
2034.90215317366
30
0.000312335826037036
11
-2824.31702168675
21
2034.83400482624
31
0.000312233671237588
  0
LINE
 8
GROUP0
10
-2823.28174550634
20
2034.83400482624
30
0.000312412432387116
11
-2823.79938359654
21
2034.90215317366
31
0.000312335826037036
  0
LINE
 8
GROUP0
10
-2822.79938359654
20
2034.63420398123
30
0.000312458270872495
11
-2823.28174550634
21
2034.83400482624
31
0.000312412432387116
  0
LINE
 8
GROUP0
10
-2822.38517003417
20
2034.31636673603
30
0.000312470217057731
11
-2822.79938359654
21
2034.63420398123
31
0.000312458270872495
  0
LINE
 8
GROUP0
10
-2822.06733278897
20
2033.90215317366
30
0.000312447456627446
11
-2822.38517003417
21
2034.31636673603
31
0.000312470217057731
  0
LINE
 8
GROUP0
10
-2821.86753194396
20
2033.41979126386
30
0.000312391540972101
11
-2822.06733278897
21
2033.90215317366
31
0.000312447456627446
  0
LINE
 8
GROUP0
10
-2821.79938359654
20
2032.90215317366
30
0.000312306280338054
11
-2821.86753194396
21
2033.41979126386
31
0.000312391540972101
  0
LINE
 8
GROUP0
10
-2821.86753194396
20
2032.38451508345
30
0.00031219748539173
11
-2821.79938359654
21
2032.90215317366
31
0.000312306280338054
  0
LINE
 8
GROUP0
10
-2822.06733278897
20
2031.90215317366
30
0.000312072570886024
11
-2821.86753194396
21
2032.38451508345
31
0.00031219748539173
  0
LINE
 8
GROUP0
10
-2822.38517003417
20
2031.48793961128
30
0.000311940048156573
11
-2822.06733278897
21
2031.90215317366
31
0.000312072570886024
  0
LINE
 8
GROUP0
10
-2822.79938359654
20
2031.17010236609
30
0.000311808949759762
11
-2822.38517003417
21
2031.48793961128
31
0.000311940048156573
  0
LINE
 8
GROUP0
10
-2823.28174550634
20
2030.97030152108
30
0.000311688209350114
11
-2822.79938359654
21
2031.17010236609
31
0.000311808949759762
  0
LINE
 8
GROUP0
10
-2823.79938359654
20
2030.90215317366
30
0.000311586054550667
11
-2823.28174550634
21
2030.97030152108
31
0.000311688209350114
  0
LINE
 8
GROUP0
10
-2824.31702168674
20
2030.97030152108
30
0.000311509448200586
11
-2823.79938359654
21
2030.90215317366
31
0.000311586054550667
  0
LINE
 8
GROUP0
10
-2824.79938359654
20
2031.17010236609
30
0.000311463609715912
11
-2824.31702168674
21
2030.97030152108
31
0.000311509448200586
  0
LINE
 8
GROUP0
10
-2825.21359715891
20
2031.48793961128
30
0.000311451663530676
11
-2824.79938359654
21
2031.17010236609
31
0.000311463609715912
  0
LINE
 8
GROUP0
10
-2825.53143440411
20
2031.90215317366
30
0.000311474423960256
11
-2825.21359715891
21
2031.48793961128
31
0.000311451663530676
  0
LINE
 8
GROUP0
10
-2825.73123524912
20
2032.38451508345
30
0.000311530339616306
11
-2825.53143440411
21
2031.90215317366
31
0.000311474423960256
  0
LINE
 8
GROUP0
10
-2825.79938359654
20
2032.90215317366
30
0.000311615600250353
11
-2825.73123524912
21
2032.38451508345
31
0.000311530339616306
  0
LINE
 8
GROUP0
10
-2825.73123524912
20
2033.41979126386
30
0.000311724395196677
11
-2825.79938359654
21
2032.90215317366
31
0.000311615600250353
  0
LINE
 8
GROUP0
10
-2825.53143440411
20
2033.90215317366
30
0.000311849309701678
11
-2825.73123524912
21
2033.41979126386
31
0.000311724395196677
  0
LINE
 8
GROUP0
10
-2825.21359715891
20
2034.31636673603
30
0.000311981832431835
11
-2825.53143440411
21
2033.90215317366
31
0.000311849309701678
  0
LINE
 8
GROUP0
10
-2824.79938359654
20
2034.63420398123
30
0.000312112930828645
11
-2825.21359715891
21
2034.31636673603
31
0.000311981832431835
  0
LINE
 8
GROUP0
10
-2824.31702168675
20
2034.83400482624
30
0.000312233671237588
11
-2824.79938359654
21
2034.63420398123
31
0.000312112930828645
  0
LINE
 8
GROUP0
10
-2868.31716399465
20
1943.90218210349
30
0.000145828229202455
11
-2868.63500123985
21
1944.31639566587
31
0.000145850989632035
  0
LINE
 8
GROUP0
10
-2868.11736314964
20
1943.4198201937
30
0.000145772313546405
11
-2868.31716399465
21
1943.90218210349
31
0.000145828229202455
  0
LINE
 8
GROUP0
10
-2868.04921480222
20
1942.90218210349
30
0.000145687052912358
11
-2868.11736314964
21
1943.4198201937
31
0.000145772313546405
  0
LINE
 8
GROUP0
10
-2868.11736314964
20
1942.38454401329
30
0.000145578257966034
11
-2868.04921480222
21
1942.90218210349
31
0.000145687052912358
  0
LINE
 8
GROUP0
10
-2868.31716399465
20
1941.90218210349
30
0.000145453343458918
11
-2868.11736314964
21
1942.38454401329
31
0.000145578257966034
  0
LINE
 8
GROUP0
10
-2868.63500123985
20
1941.48796854112
30
0.000145320820729467
11
-2868.31716399465
21
1941.90218210349
31
0.000145453343458918
 0
ENDSEC
 0
EOF
