 0
SECTION
 2
ENTITIES
  0
LINE
 8
GROUP0
10
-3132.16334632577
20
2032.45940724597
30
0.000311724392556484
11
-3132.23149467319
21
2031.94176915576
31
0.000311615597624965
  0
LINE
 8
GROUP0
10
-3128.23149467319
20
2031.94176915576
30
0.000312306277712665
11
-3128.29964302061
21
2032.45940724597
31
0.000312391538331908
  0
LINE
 8
GROUP0
10
-2963.23115708458
20
2016.94183282587
30
7.82959162489383e-005
11
-2938.23115708458
21
1991.94181545574
31
0.000107199299222865
  0
LINE
 8
GROUP0
10
-2973.23115708458
20
2016.94183282587
30
7.656921747351e-005
11
-2963.23115708458
21
2016.94183282587
31
7.82959162489383e-005
  0
LINE
 8
GROUP0
10
-2973.23115708458
20
2021.9417980856
30
0.000135006152144473
11
-2973.23115708458
21
2016.94183282587
31
7.656921747351e-005
  0
LINE
 8
GROUP0
10
-3150.23149467333
20
2041.94183013432
30
4.52646704881432e-005
11
-3015.23056442806
21
2041.94181510554
31
0.000150342845948137
  0
LINE
 8
GROUP0
10
-2973.23115708458
20
1956.9417980856
30
0.000133279452811397
11
-2963.23115708458
21
1956.9417980856
31
0.000135006151586825
  0
LINE
 8
GROUP0
10
-2973.23115708458
20
1956.9417980856
30
0.000133279452811397
11
-2973.23115708458
21
1931.9417980856
31
0.000135006152649952
  0
LINE
 8
GROUP0
10
-3227.23115708441
20
1991.94181545573
30
0.000119524299416279
11
-3202.23115708441
21
2016.94183282587
31
9.18074421104698e-005
  0
LINE
 8
GROUP0
10
-3192.23115708441
20
2016.94183282587
30
9.35341423297209e-005
11
-3192.23115708441
21
2021.94183282587
31
9.01982473445917e-005
  0
LINE
 8
GROUP0
10
-3192.23115708441
20
2016.94183282587
30
9.35341423297209e-005
11
-3202.23115708441
21
2016.94183282587
31
9.18074421104698e-005
  0
LINE
 8
GROUP0
10
-3175.96368778867
20
1940.00994643302
30
0.000145068981215901
11
-3175.48132587887
21
1940.20974727803
31
0.000145189721619909
  0
LINE
 8
GROUP0
10
-3128.29964302061
20
2032.45940724597
30
0.000312391538331908
11
-3128.49944386562
21
2032.94176915576
31
0.000312447453974563
  0
LINE
 8
GROUP0
10
-3174.7492750713
20
1942.9417980856
30
0.000145828228410044
11
-3175.0671123165
21
1943.35601164797
31
0.000145850988827639
  0
LINE
 8
GROUP0
10
-3128.49944386562
20
2030.94176915576
30
0.00031207256828954
11
-3128.29964302061
21
2031.42413106556
31
0.000312197482781146
  0
LINE
 8
GROUP0
10
-3175.0671123165
20
1940.52758452323
30
0.000145320820007555
11
-3174.7492750713
21
1940.9417980856
31
0.000145453342725022
  0
LINE
 8
GROUP0
10
-3131.64570823556
20
2033.35598271814
30
0.000311981829766261
11
-3131.96354548076
21
2032.94176915576
31
0.000311849307048795
  0
LINE
 8
GROUP0
10
-3128.29964302061
20
2031.42413106556
30
0.000312197482781146
11
-3128.23149467319
21
2031.94176915576
31
0.000312306277712665
  0
LINE
 8
GROUP0
10
-3174.7492750713
20
1940.9417980856
30
0.000145453342725022
11
-3174.54947422629
21
1941.42415999539
31
0.000145578257217333
  0
LINE
 8
GROUP0
10
-3131.23149467319
20
2030.20971834819
30
0.000311463607140577
11
-3130.74913276339
21
2030.00991750318
31
0.000311509445630892
  0
LINE
 8
GROUP0
10
-3131.23149467319
20
2033.67381996333
30
0.000312112928153907
11
-3131.64570823556
21
2033.35598271814
31
0.000311981829766261
  0
LINE
 8
GROUP0
10
-3176.48132587887
20
1939.9417980856
30
0.000144966826419274
11
-3175.96368778867
21
1940.00994643302
31
0.000145068981215901
  0
LINE
 8
GROUP0
10
-3130.74913276339
20
2030.00991750318
30
0.000311509445630892
11
-3130.23149467319
21
2029.94176915576
31
0.000311586051983792
  0
LINE
 8
GROUP0
10
-3176.99896396908
20
1940.00994643302
30
0.000144890220066374
11
-3176.48132587887
21
1939.9417980856
31
0.000144966826419274
  0
LINE
 8
GROUP0
10
-3174.54947422629
20
1941.42415999539
30
0.000145578257217333
11
-3174.48132587887
21
1941.9417980856
31
0.000145687052148852
  0
LINE
 8
GROUP0
10
-3131.96354548076
20
2032.94176915576
30
0.000311849307048795
11
-3132.16334632577
21
2032.45940724597
31
0.000311724392556484
  0
LINE
 8
GROUP0
10
-3129.71385658298
20
2030.00991750318
30
0.000311688206780419
11
-3129.23149467319
21
2030.20971834819
31
0.000311808947184428
  0
LINE
 8
GROUP0
10
-3177.48132587887
20
1940.20974727803
30
0.000144844381576059
11
-3176.99896396908
21
1940.00994643302
31
0.000144890220066374
  0
LINE
 8
GROUP0
10
-2987.56711231711
20
1943.35601164747
30
1.01855344598056e-006
11
-2987.98132587933
21
1943.67384889253
31
1.00660725158019e-006
  0
LINE
 8
GROUP0
10
-3129.23149467319
20
2030.20971834819
30
0.000311808947184428
11
-3128.81728111081
21
2030.52755559339
31
0.000311940045572073
  0
LINE
 8
GROUP0
10
-3175.96368778867
20
1943.87364973818
30
0.000145793204142924
11
-3176.48132587887
21
1943.9417980856
31
0.000145716597790024
  0
LINE
 8
GROUP0
10
-3130.74913276339
20
2033.87362080834
30
0.000312233668557915
11
-3131.23149467319
21
2033.67381996333
31
0.000312112928153907
  0
LINE
 8
GROUP0
10
-3131.96354548076
20
2030.94176915576
30
0.000311474421363772
11
-3131.64570823556
21
2030.52755559339
31
0.000311451660946177
  0
LINE
 8
GROUP0
10
-3177.89553944124
20
1943.35601164797
30
0.000145362604201743
11
-3178.21337668644
21
1942.9417980856
31
0.000145230081484277
  0
LINE
 8
GROUP0
10
-3177.89553944124
20
1940.52758452323
30
0.000144832434659747
11
-3177.48132587887
21
1940.20974727803
31
0.000144844381576059
  0
LINE
 8
GROUP0
10
-2986.98132587967
20
1941.94179808565
30
8.54616767193006e-007
11
-2987.04947422708
21
1942.45943617565
31
9.39877386435528e-007
  0
LINE
 8
GROUP0
10
-3175.48132587887
20
1940.20974727803
30
0.000145189721619909
11
-3175.0671123165
21
1940.52758452323
31
0.000145320820007555
  0
LINE
 8
GROUP0
10
-3174.48132587887
20
1941.9417980856
30
0.000145687052148852
11
-3174.54947422629
21
1942.4594361758
31
0.000145772312768094
  0
LINE
 8
GROUP0
10
-3177.48132587887
20
1943.67384889317
30
0.000145493702589389
11
-3177.89553944124
21
1943.35601164797
31
0.000145362604201743
  0
LINE
 8
GROUP0
10
-3128.81728111081
20
2030.52755559339
30
0.000311940045572073
11
-3128.49944386562
21
2030.94176915576
31
0.00031207256828954
  0
LINE
 8
GROUP0
10
-3174.54947422629
20
1942.4594361758
30
0.000145772312768094
11
-3174.7492750713
21
1942.9417980856
31
0.000145828228410044
  0
LINE
 8
GROUP0
10
-2987.04947422708
20
1942.45943617565
30
9.39877386435528e-007
11
-2987.24927507203
21
1942.94179808526
31
9.95793028385483e-007
  0
LINE
 8
GROUP0
10
-3178.48132587887
20
1941.9417980856
30
0.00014499637133924
11
-3178.41317753145
21
1941.42415999539
31
0.000144911110719997
  0
LINE
 8
GROUP0
10
-2987.24927507203
20
1942.94179808526
30
9.95793028385483e-007
11
-2987.56711231711
21
1943.35601164747
31
1.01855344598056e-006
  0
LINE
 8
GROUP0
10
-2987.98132587925
20
1940.20974727872
30
3.57286238250598e-007
11
-2987.56711231704
21
1940.5275845238
31
4.88384625896288e-007
  0
LINE
 8
GROUP0
10
-2988.98132587886
20
1939.94179808636
30
1.34391037615034e-007
11
-2988.46368778886
21
1940.00994643377
31
2.36545834242374e-007
  0
LINE
 8
GROUP0
10
-2990.98132587815
20
1941.94179808555
30
1.63936679492549e-007
11
-2990.91317753074
21
1941.42415999555
31
7.86760602500269e-008
  0
LINE
 8
GROUP0
10
-3178.41317753145
20
1942.4594361758
30
0.000145105166270759
11
-3178.48132587887
21
1941.9417980856
31
0.00014499637133924
  0
LINE
 8
GROUP0
10
-2989.49896396887
20
1940.00994643375
30
5.77846847149566e-008
11
-2988.98132587886
21
1939.94179808636
31
1.34391037615034e-007
  0
LINE
 8
GROUP0
10
-2988.98132587896
20
1943.94179808484
30
8.8416240836553e-007
11
-2989.49896396896
21
1943.87364973743
31
7.82007611738189e-007
  0
LINE
 8
GROUP0
10
-2988.46368778895
20
1943.87364973745
30
9.60768761265607e-007
11
-2988.98132587896
21
1943.94179808484
31
8.8416240836553e-007
  0
LINE
 8
GROUP0
10
-3176.48132587887
20
1943.9417980856
30
0.000145716597790024
11
-3176.99896396908
21
1943.87364973818
31
0.000145614442993397
  0
LINE
 8
GROUP0
10
-2988.46368778886
20
1940.00994643377
30
2.36545834242374e-007
11
-2987.98132587925
21
1940.20974727872
31
3.57286238250598e-007
  0
LINE
 8
GROUP0
10
-3178.21337668644
20
1940.9417980856
30
0.000144855195077342
11
-3177.89553944124
21
1940.52758452323
31
0.000144832434659747
  0
LINE
 8
GROUP0
10
-3178.41317753145
20
1941.42415999539
30
0.000144911110719997
11
-3178.21337668644
21
1940.9417980856
31
0.000144855195077342
  0
LINE
 8
GROUP0
10
-3176.99896396908
20
1943.87364973818
30
0.000145614442993397
11
-3177.48132587887
21
1943.67384889317
31
0.000145493702589389
  0
LINE
 8
GROUP0
10
-3175.48132587887
20
1943.67384889317
30
0.000145839042633239
11
-3175.96368778867
21
1943.87364973818
31
0.000145793204142924
  0
LINE
 8
GROUP0
10
-2989.98132587849
20
1940.20974727867
30
1.19461944003696e-008
11
-2989.49896396887
21
1940.00994643375
31
5.77846847149566e-008
  0
LINE
 8
GROUP0
10
-2989.49896396896
20
1943.87364973743
30
7.82007611738189e-007
11
-2989.98132587857
21
1943.67384889248
31
6.61267207729965e-007
  0
LINE
 8
GROUP0
10
-3175.0671123165
20
1943.35601164797
30
0.000145850988827639
11
-3175.48132587887
21
1943.67384889317
31
0.000145839042633239
  0
LINE
 8
GROUP0
10
-2987.98132587933
20
1943.67384889253
30
1.00660725158019e-006
11
-2988.46368778895
21
1943.87364973745
31
9.60768761265607e-007
  0
LINE
 8
GROUP0
10
-2990.39553944078
20
1943.3560116474
30
5.30168820084276e-007
11
-2990.71337668584
21
1942.94179808518
31
3.97646102617832e-007
  0
LINE
 8
GROUP0
10
-2990.71337668584
20
1942.94179808518
30
3.97646102617832e-007
11
-2990.91317753076
21
1942.45943617556
31
2.72731611011823e-007
  0
LINE
 8
GROUP0
10
-3178.21337668644
20
1942.9417980856
30
0.000145230081484277
11
-3178.41317753145
21
1942.4594361758
31
0.000145105166270759
  0
LINE
 8
GROUP0
10
-2987.24927507198
20
1940.94179808602
30
6.20907343362731e-007
11
-2987.04947422706
21
1941.42415999564
31
7.45821835673732e-007
  0
LINE
 8
GROUP0
10
-2989.98132587857
20
1943.67384889248
30
6.61267207729965e-007
11
-2990.39553944078
21
1943.3560116474
31
5.30168820084276e-007
  0
LINE
 8
GROUP0
10
-2987.56711231704
20
1940.5275845238
30
4.88384625896288e-007
11
-2987.24927507198
21
1940.94179808602
31
6.20907343362731e-007
  0
LINE
 8
GROUP0
10
-2990.91317753076
20
1942.45943617556
30
2.72731611011823e-007
11
-2990.98132587815
21
1941.94179808555
31
1.63936679492549e-007
  0
LINE
 8
GROUP0
10
-2990.71337668579
20
1940.94179808594
30
2.27604175950802e-008
11
-2990.39553944071
21
1940.52758452373
31
0.0
  0
LINE
 8
GROUP0
10
-2990.91317753074
20
1941.42415999555
30
7.86760602500269e-008
11
-2990.71337668579
21
1940.94179808594
31
2.27604175950802e-008
  0
LINE
 8
GROUP0
10
-2987.04947422706
20
1941.42415999564
30
7.45821835673732e-007
11
-2986.98132587967
21
1941.94179808565
31
8.54616767193006e-007
  0
LINE
 8
GROUP0
10
-2990.39553944071
20
1940.52758452373
30
0.0
11
-2989.98132587849
21
1940.20974727867
31
1.19461944003696e-008
  0
LINE
 8
GROUP0
10
-3131.64570823556
20
2030.52755559339
30
0.000311451660946177
11
-3131.23149467319
21
2030.20971834819
31
0.000311463607140577
  0
LINE
 8
GROUP0
10
-3132.23149467319
20
2031.94176915576
30
0.000311615597624965
11
-3132.16334632577
21
2031.42413106556
31
0.000311530337005722
  0
LINE
 8
GROUP0
10
-3128.49944386562
20
2032.94176915576
30
0.000312447453974563
11
-3128.81728111081
21
2033.35598271814
31
0.000312470214392158
  0
LINE
 8
GROUP0
10
-3132.16334632577
20
2031.42413106556
30
0.000311530337005722
11
-3131.96354548076
21
2030.94176915576
31
0.000311474421363772
  0
LINE
 8
GROUP0
10
-3130.23149467319
20
2029.94176915576
30
0.000311586051983792
11
-3129.71385658298
21
2030.00991750318
31
0.000311688206780419
  0
LINE
 8
GROUP0
10
-3129.71385658298
20
2033.87362080834
30
0.000312412429707443
11
-3130.23149467319
21
2033.94176915576
31
0.000312335823354543
  0
LINE
 8
GROUP0
10
-3036.64477799036
20
2030.5275925244
30
0.000276178804768251
11
-3036.23056442799
21
2030.2097552792
31
0.000276190750962652
  0
LINE
 8
GROUP0
10
-3037.16241608057
20
2031.42416799656
30
0.000276257480827796
11
-3036.96261523556
21
2030.94180608677
31
0.000276201565185846
  0
LINE
 8
GROUP0
10
-3036.96261523556
20
2032.94180608677
30
0.000276576450870869
11
-3037.16241608057
21
2032.45944417697
31
0.000276451536378558
  0
LINE
 8
GROUP0
10
-3035.74820251819
20
2030.00995443419
30
0.000276236589452966
11
-3035.23056442799
21
2029.94180608677
31
0.000276313195805866
  0
LINE
 8
GROUP0
10
-3202.23115708441
20
1956.9417980856
30
0.000148517676726445
11
-3227.23115708441
21
1981.94181545573
31
0.000119524299553048
  0
LINE
 8
GROUP0
10
-3129.23149467319
20
2033.67381996333
30
0.000312458268197757
11
-3129.71385658298
21
2033.87362080834
31
0.000312412429707443
  0
LINE
 8
GROUP0
10
-3037.16241608057
20
2032.45944417697
30
0.000276451536378558
11
-3037.23056442799
21
2031.94180608677
31
0.000276342742890862
  0
LINE
 8
GROUP0
10
-3033.29871277541
20
2032.45944417697
30
0.000277118682875893
11
-3033.49851362042
21
2032.94180608677
31
0.000277174598518548
  0
LINE
 8
GROUP0
10
-3128.81728111081
20
2033.35598271814
30
0.000312470214392158
11
-3129.23149467319
21
2033.67381996333
31
0.000312458268197757
  0
LINE
 8
GROUP0
10
-3036.64477799036
20
2033.35601964914
30
0.000276708973588335
11
-3036.96261523556
21
2032.94180608677
31
0.000276576450870869
  0
LINE
 8
GROUP0
10
-3034.71292633778
20
2030.00995443419
30
0.000276415350602494
11
-3034.23056442799
21
2030.2097552792
31
0.000276536091728413
  0
LINE
 8
GROUP0
10
-3192.23115708441
20
1956.9417980856
30
0.000150244377667608
11
-3202.23115708441
21
1956.9417980856
31
0.000148517676726445
  0
LINE
 8
GROUP0
10
-3034.71292633778
20
2033.87365773935
30
0.000277139574251428
11
-3035.23056442799
21
2033.94180608677
31
0.000277062967898528
  0
LINE
 8
GROUP0
10
-3034.23056442799
20
2033.67385689434
30
0.000277185412741743
11
-3034.71292633778
21
2033.87365773935
31
0.000277139574251428
  0
LINE
 8
GROUP0
10
-3034.23056442799
20
2030.2097552792
30
0.000276536091728413
11
-3033.81635086562
21
2030.5275925244
31
0.000276667190116059
  0
LINE
 8
GROUP0
10
-3035.23056442799
20
2029.94180608677
30
0.000276313195805866
11
-3034.71292633778
21
2030.00995443419
31
0.000276415350602494
  0
LINE
 8
GROUP0
10
-3033.23056442799
20
2031.94180608677
30
0.000277033422256651
11
-3033.29871277541
21
2032.45944417697
31
0.000277118682875893
  0
LINE
 8
GROUP0
10
-3227.23115708441
20
1981.94181545573
30
0.000119524299553048
11
-3227.23115708441
21
1991.94181545573
31
0.000119524299416279
  0
LINE
 8
GROUP0
10
-3035.23056442799
20
2033.94180608677
30
0.000277062967898528
11
-3035.74820251819
21
2033.87365773935
31
0.000276960812379989
  0
LINE
 8
GROUP0
10
-3033.81635086562
20
2033.35601964914
30
0.000277197358936143
11
-3034.23056442799
21
2033.67385689434
31
0.000277185412741743
  0
LINE
 8
GROUP0
10
-3033.49851362042
20
2032.94180608677
30
0.000277174598518548
11
-3033.81635086562
21
2033.35601964914
31
0.000277197358936143
  0
LINE
 8
GROUP0
10
-3036.96261523556
20
2030.94180608677
30
0.000276201565185846
11
-3036.64477799036
21
2030.5275925244
31
0.000276178804768251
  0
LINE
 8
GROUP0
10
-3130.23149467319
20
2033.94176915576
30
0.000312335823354543
11
-3130.74913276339
21
2033.87362080834
31
0.000312233668557915
  0
LINE
 8
GROUP0
10
-3036.23056442799
20
2030.2097552792
30
0.000276190750962652
11
-3035.74820251819
21
2030.00995443419
31
0.000276236589452966
  0
LINE
 8
GROUP0
10
-3192.23115708441
20
1931.9417980856
30
0.000150244378008824
11
-3192.23115708441
21
1956.9417980856
31
0.000150244377667608
  0
LINE
 8
GROUP0
10
-3037.23056442799
20
2031.94180608677
30
0.000276342742890862
11
-3037.16241608057
21
2031.42416799656
31
0.000276257480827796
  0
LINE
 8
GROUP0
10
-3036.23056442799
20
2033.67385689434
30
0.000276840071975981
11
-3036.64477799036
21
2033.35601964914
31
0.000276708973588335
  0
LINE
 8
GROUP0
10
-3033.49851362042
20
2030.94180608677
30
0.000276799712833525
11
-3033.29871277541
21
2031.42416799656
31
0.000276924627325131
  0
LINE
 8
GROUP0
10
-3033.81635086562
20
2030.5275925244
30
0.000276667190116059
11
-3033.49851362042
21
2030.94180608677
31
0.000276799712833525
  0
LINE
 8
GROUP0
10
-3033.29871277541
20
2031.42416799656
30
0.000276924627325131
11
-3033.23056442799
21
2031.94180608677
31
0.000277033422256651
  0
LINE
 8
GROUP0
10
-3035.74820251819
20
2033.87365773935
30
0.000276960812379989
11
-3036.23056442799
21
2033.67385689434
31
0.000276840071975981
  0
LINE
 8
GROUP0
10
-3192.23115708441
20
2021.94183282587
30
9.01982473445917e-005
11
-3150.23149467333
21
2021.94183013432
31
4.5264670760975e-005
  0
LINE
 8
GROUP0
10
-3150.23149467333
20
2021.94183013432
30
4.5264670760975e-005
11
-3150.23149467333
21
2041.94183013432
31
4.52646704881432e-005
  0
LINE
 8
GROUP0
10
-2973.23115708458
20
1931.9417980856
30
0.000135006152649952
11
-3192.23115708441
21
1931.9417980856
31
0.000150244378008824
  0
LINE
 8
GROUP0
10
-2938.23115708458
20
1981.94181545574
30
0.000107199299359634
11
-2963.23115708458
21
1956.9417980856
31
0.000135006151586825
  0
LINE
 8
GROUP0
10
-2938.23115708458
20
1991.94181545574
30
0.000107199299222865
11
-2938.23115708458
21
1981.94181545574
31
0.000107199299359634
  0
LINE
 8
GROUP0
10
-3015.23056442806
20
2021.9417980856
30
0.000150342846220969
11
-2973.23115708458
21
2021.9417980856
31
0.000135006152144473
  0
LINE
 8
GROUP0
10
-3015.23056442806
20
2041.94181510554
30
0.000150342845948137
11
-3015.23056442806
21
2021.9417980856
31
0.000150342846220969
 0
ENDSEC
 0
EOF
