 0
SECTION
 2
ENTITIES
  0
LINE
 8
GROUP0
10
-3949.25360354345
20
3079.65528154391
30
1.87015429652604e-005
11
-3949.25360351112
21
3297.65573778164
31
1.51061276611131e-005
  0
LINE
 8
GROUP0
10
-3949.25360351112
20
3297.65573778164
30
1.51061276611131e-005
11
-3978.25360351112
21
3297.65573778362
31
1.54886623860762e-005
  0
LINE
 8
GROUP0
10
-3978.25360351112
20
3297.65573778362
30
1.54886623860762e-005
11
-3978.25360351229
21
3327.65573778362
31
1.55012615451255e-005
  0
LINE
 8
GROUP0
10
-3978.25360351229
20
3327.65573778362
30
1.55012615451255e-005
11
-3991.25360351189
21
3340.65573778269
31
1.56343010665694e-005
  0
LINE
 8
GROUP0
10
-4021.25360351189
20
3340.65573778362
30
1.62018209003634e-005
11
-3991.25360351189
21
3340.65573778269
31
1.56343010665694e-005
  0
LINE
 8
GROUP0
10
-4021.25360351189
20
3340.65573778362
30
1.62018209003634e-005
11
-4021.25360351126
21
3369.65573778194
31
1.64964544275392e-005
  0
LINE
 8
GROUP0
10
-4021.25360351126
20
3369.65573778194
30
1.64964544275392e-005
11
-4439.25408233322
21
3369.65573775352
31
3.23640135562187e-005
  0
LINE
 8
GROUP0
10
-4439.25408233322
20
3369.65573775352
30
3.23640135562187e-005
11
-4439.25408233308
21
3340.65573778362
31
3.23020959356768e-005
  0
LINE
 8
GROUP0
10
-4439.25408233308
20
3340.65573778362
30
3.23020959356768e-005
11
-4469.25408233308
21
3340.65573778362
31
3.24522787778392e-005
  0
LINE
 8
GROUP0
10
-4469.25408233308
20
3340.65573778362
30
3.24522787778392e-005
11
-4482.25408226362
21
3327.65573778362
31
3.25317116839585e-005
  0
LINE
 8
GROUP0
10
-4482.25408233308
20
3297.65573778362
30
3.23059744950172e-005
11
-4482.25408226362
21
3327.65573778362
31
3.25317116839585e-005
  0
LINE
 8
GROUP0
10
-4482.25408233308
20
3297.65573778362
30
3.23059744950172e-005
11
-4511.25408233308
21
3297.65573775401
31
3.21699831680178e-005
  0
LINE
 8
GROUP0
10
-4511.25408233308
20
3297.65573775401
30
3.21699831680178e-005
11
-4511.2540823869
21
3079.65528166233
31
0.0
  0
LINE
 8
GROUP0
10
-4482.25408235311
20
3079.65528166183
30
1.68401540179275e-007
11
-4511.2540823869
21
3079.65528166233
31
0.0
  0
LINE
 8
GROUP0
10
-4482.25408235311
20
3079.65528166183
30
1.68401540179275e-007
11
-4482.25408235311
21
3049.65528166184
31
4.97811065471865e-006
  0
LINE
 8
GROUP0
10
-4469.25408235311
20
3036.65528158385
30
7.13291418179551e-006
11
-4482.25408235311
21
3049.65528166184
31
4.97811065471865e-006
  0
LINE
 8
GROUP0
10
-4439.25408235311
20
3036.65528166184
30
7.38637141566301e-006
11
-4469.25408235311
21
3036.65528158385
31
7.13291418179551e-006
  0
LINE
 8
GROUP0
10
-4439.25408238746
20
3007.65528166184
30
1.20658712624788e-005
11
-4439.25408235311
21
3036.65528166184
31
7.38637141566301e-006
  0
LINE
 8
GROUP0
10
-4439.25408238746
20
3007.65528166184
30
1.20658712624788e-005
11
-4021.25360354401
21
3007.6552815442
31
2.89825317381087e-005
  0
LINE
 8
GROUP0
10
-4021.25360354401
20
3007.6552815442
30
2.89825317381087e-005
11
-4021.25360354345
21
3036.6552815442
31
2.52335618142752e-005
  0
LINE
 8
GROUP0
10
-4021.25360354345
20
3036.6552815442
30
2.52335618142752e-005
11
-3991.25360354345
21
3036.6552815442
31
2.49085067594024e-005
  0
LINE
 8
GROUP0
10
-3991.25360354345
20
3036.6552815442
30
2.49085067594024e-005
11
-3978.25360376946
21
3049.65528102054
31
2.11020323497735e-005
  0
LINE
 8
GROUP0
10
-3978.25360358679
20
3079.65528102054
30
1.91383070443862e-005
11
-3978.25360376946
21
3049.65528102054
31
2.11020323497735e-005
  0
LINE
 8
GROUP0
10
-3978.25360358679
20
3079.65528102054
30
1.91383070443862e-005
11
-3949.25360354345
21
3079.65528154391
31
1.87015429652604e-005
  0
LINE
 8
GROUP0
10
-3965.18545516054
20
3267.13787132909
30
2.27017903114302e-005
11
-3964.98565431553
21
3266.65550941929
31
2.26914402674083e-005
  0
LINE
 8
GROUP0
10
-3965.25360350796
20
3267.65550941929
30
2.27135257034661e-005
11
-3965.18545516054
21
3267.13787132909
31
2.27017903114302e-005
  0
LINE
 8
GROUP0
10
-3965.18545516054
20
3268.1731475095
30
2.27258465656632e-005
11
-3965.25360350796
21
3267.65550941929
31
2.27135257034661e-005
  0
LINE
 8
GROUP0
10
-3964.98565431553
20
3268.65550941929
30
2.27379133150407e-005
11
-3965.18545516054
21
3268.1731475095
31
2.27258465656632e-005
  0
LINE
 8
GROUP0
10
-3964.66781707033
20
3269.06972298167
30
2.27489036944917e-005
11
-3964.98565431553
21
3268.65550941929
31
2.27379133150407e-005
  0
LINE
 8
GROUP0
10
-3964.25360350796
20
3269.38756022686
30
2.27580686306794e-005
11
-3964.66781707033
21
3269.06972298167
31
2.27489036944917e-005
  0
LINE
 8
GROUP0
10
-3963.77124159817
20
3269.58736107187
30
2.27647835799871e-005
11
-3964.25360350796
21
3269.38756022686
31
2.27580686306794e-005
  0
LINE
 8
GROUP0
10
-3963.25360350796
20
3269.65550941929
30
2.27685909408137e-005
11
-3963.77124159817
21
3269.58736107187
31
2.27647835799871e-005
  0
LINE
 8
GROUP0
10
-3962.73596541776
20
3269.58736107187
30
2.27692311860039e-005
11
-3963.25360350796
21
3269.65550941929
31
2.27685909408137e-005
  0
LINE
 8
GROUP0
10
-3962.25360350796
20
3269.38756022686
30
2.27666608203947e-005
11
-3962.73596541776
21
3269.58736107187
31
2.27692311860039e-005
  0
LINE
 8
GROUP0
10
-3961.83938994559
20
3269.06972298167
30
2.27610549075052e-005
11
-3962.25360350796
21
3269.38756022686
31
2.27666608203947e-005
  0
LINE
 8
GROUP0
10
-3961.52155270039
20
3268.65550941929
30
2.27527955189544e-005
11
-3961.83938994559
21
3269.06972298167
31
2.27610549075052e-005
  0
LINE
 8
GROUP0
10
-3961.32175185538
20
3268.1731475095
30
2.27424454749325e-005
11
-3961.52155270039
21
3268.65550941929
31
2.27527955189544e-005
  0
LINE
 8
GROUP0
10
-3961.25360350796
20
3267.65550941929
30
2.27307100828966e-005
11
-3961.32175185538
21
3268.1731475095
31
2.27424454749325e-005
  0
LINE
 8
GROUP0
10
-3961.32175185538
20
3267.13787132909
30
2.27183892206995e-005
11
-3961.25360350796
21
3267.65550941929
31
2.27307100828966e-005
  0
LINE
 8
GROUP0
10
-3961.52155270039
20
3266.65550941929
30
2.2706322471322e-005
11
-3961.32175185538
21
3267.13787132909
31
2.27183892206995e-005
  0
LINE
 8
GROUP0
10
-3961.83938994559
20
3266.24129585692
30
2.2695332091871e-005
11
-3961.52155270039
21
3266.65550941929
31
2.2706322471322e-005
  0
LINE
 8
GROUP0
10
-3962.25360350796
20
3265.92345861172
30
2.26861671556833e-005
11
-3961.83938994559
21
3266.24129585692
31
2.2695332091871e-005
  0
LINE
 8
GROUP0
10
-3962.73596541776
20
3265.72365776671
30
2.26794522063756e-005
11
-3962.25360350796
21
3265.92345861172
31
2.26861671556833e-005
  0
LINE
 8
GROUP0
10
-3963.25360350796
20
3265.65550941929
30
2.2675644845549e-005
11
-3962.73596541776
21
3265.72365776671
31
2.26794522063756e-005
  0
LINE
 8
GROUP0
10
-3963.77124159817
20
3265.72365776671
30
2.26750045101198e-005
11
-3963.25360350796
21
3265.65550941929
31
2.2675644845549e-005
  0
LINE
 8
GROUP0
10
-3964.25360350796
20
3265.92345861172
30
2.2677574965968e-005
11
-3963.77124159817
21
3265.72365776671
31
2.26750045101198e-005
  0
LINE
 8
GROUP0
10
-3964.66781707033
20
3266.24129585692
30
2.26831808788575e-005
11
-3964.25360350796
21
3265.92345861172
31
2.2677574965968e-005
  0
LINE
 8
GROUP0
10
-3964.98565431553
20
3266.65550941929
30
2.26914402674083e-005
11
-3964.66781707033
21
3266.24129585692
31
2.26831808788575e-005
  0
LINE
 8
GROUP0
10
-3965.18545516054
20
3110.17291912796
30
1.61561145226585e-005
11
-3965.25360350796
21
3109.65528103776
31
1.61437936604614e-005
  0
LINE
 8
GROUP0
10
-3964.98565431553
20
3110.65528103776
30
1.6168181272036e-005
11
-3965.18545516054
21
3110.17291912796
31
1.61561145226585e-005
  0
LINE
 8
GROUP0
10
-3964.66781707033
20
3111.06949460013
30
1.6179171651487e-005
11
-3964.98565431553
21
3110.65528103776
31
1.6168181272036e-005
  0
LINE
 8
GROUP0
10
-3964.25360350796
20
3111.38733184532
30
1.61883365876747e-005
11
-3964.66781707033
21
3111.06949460013
31
1.6179171651487e-005
  0
LINE
 8
GROUP0
10
-3963.77124159817
20
3111.58713269033
30
1.61950515369824e-005
11
-3964.25360350796
21
3111.38733184532
31
1.61883365876747e-005
  0
LINE
 8
GROUP0
10
-3963.25360350796
20
3111.65528103776
30
1.6198858897809e-005
11
-3963.77124159817
21
3111.58713269033
31
1.61950515369824e-005
  0
LINE
 8
GROUP0
10
-3962.73596541776
20
3111.58713269033
30
1.61994992332382e-005
11
-3963.25360350796
21
3111.65528103776
31
1.6198858897809e-005
  0
LINE
 8
GROUP0
10
-3962.25360350796
20
3111.38733184532
30
1.619692877739e-005
11
-3962.73596541776
21
3111.58713269033
31
1.61994992332382e-005
  0
LINE
 8
GROUP0
10
-3961.83938994559
20
3111.06949460013
30
1.61913228645005e-005
11
-3962.25360350796
21
3111.38733184532
31
1.619692877739e-005
  0
LINE
 8
GROUP0
10
-3961.52155270039
20
3110.65528103776
30
1.61830634759497e-005
11
-3961.83938994559
21
3111.06949460013
31
1.61913228645005e-005
  0
LINE
 8
GROUP0
10
-3961.32175185538
20
3110.17291912796
30
1.61727134319278e-005
11
-3961.52155270039
21
3110.65528103776
31
1.61830634759497e-005
  0
LINE
 8
GROUP0
10
-3961.25360350796
20
3109.65528103776
30
1.61609781301308e-005
11
-3961.32175185538
21
3110.17291912796
31
1.61727134319278e-005
  0
LINE
 8
GROUP0
10
-3961.32175185538
20
3109.13764294755
30
1.61486571776948e-005
11
-3961.25360350796
21
3109.65528103776
31
1.61609781301308e-005
  0
LINE
 8
GROUP0
10
-3961.52155270039
20
3108.65528103776
30
1.61365904283173e-005
11
-3961.32175185538
21
3109.13764294755
31
1.61486571776948e-005
  0
LINE
 8
GROUP0
10
-3961.83938994559
20
3108.24106747538
30
1.61256000488663e-005
11
-3961.52155270039
21
3108.65528103776
31
1.61365904283173e-005
  0
LINE
 8
GROUP0
10
-3962.25360350796
20
3107.92323023019
30
1.61164351126786e-005
11
-3961.83938994559
21
3108.24106747538
31
1.61256000488663e-005
  0
LINE
 8
GROUP0
10
-3962.73596541776
20
3107.72342938518
30
1.61097201633709e-005
11
-3962.25360350796
21
3107.92323023019
31
1.61164351126786e-005
  0
LINE
 8
GROUP0
10
-3963.25360350796
20
3107.65528103776
30
1.61059128025443e-005
11
-3962.73596541776
21
3107.72342938518
31
1.61097201633709e-005
  0
LINE
 8
GROUP0
10
-3963.77124159817
20
3107.72342938518
30
1.61052725573541e-005
11
-3963.25360350796
21
3107.65528103776
31
1.61059128025443e-005
  0
LINE
 8
GROUP0
10
-3964.25360350796
20
3107.92323023019
30
1.61078429229633e-005
11
-3963.77124159817
21
3107.72342938518
31
1.61052725573541e-005
  0
LINE
 8
GROUP0
10
-3964.66781707033
20
3108.24106747538
30
1.61134488358528e-005
11
-3964.25360350796
21
3107.92323023019
31
1.61078429229633e-005
  0
LINE
 8
GROUP0
10
-3964.98565431553
20
3108.65528103776
30
1.61217082244036e-005
11
-3964.66781707033
21
3108.24106747538
31
1.61134488358528e-005
  0
LINE
 8
GROUP0
10
-3965.18545516054
20
3109.13764294755
30
1.61320582684255e-005
11
-3964.98565431553
21
3108.65528103776
31
1.61217082244036e-005
  0
LINE
 8
GROUP0
10
-3965.25360350796
20
3109.65528103776
30
1.61437936604614e-005
11
-3965.18545516054
21
3109.13764294755
31
1.61320582684255e-005
  0
LINE
 8
GROUP0
10
-4050.25382716145
20
3023.38733665463
30
1.37740565293143e-005
11
-4050.73618907125
21
3023.58713749964
31
1.37766269851625e-005
  0
LINE
 8
GROUP0
10
-4049.83961359908
20
3023.06949940944
30
1.37684506164248e-005
11
-4050.25382716145
21
3023.38733665463
31
1.37740565293143e-005
  0
LINE
 8
GROUP0
10
-4049.52177635388
20
3022.65528584706
30
1.3760191227874e-005
11
-4049.83961359908
21
3023.06949940944
31
1.37684506164248e-005
  0
LINE
 8
GROUP0
10
-4049.32197550887
20
3022.17292393727
30
1.37498411838521e-005
11
-4049.52177635388
21
3022.65528584706
31
1.3760191227874e-005
  0
LINE
 8
GROUP0
10
-4049.25382716145
20
3021.65528584706
30
1.37381057918162e-005
11
-4049.32197550887
21
3022.17292393727
31
1.37498411838521e-005
  0
LINE
 8
GROUP0
10
-4049.32197550887
20
3021.13764775686
30
1.37257849296191e-005
11
-4049.25382716145
21
3021.65528584706
31
1.37381057918162e-005
  0
LINE
 8
GROUP0
10
-4049.52177635388
20
3020.65528584706
30
1.37137181802416e-005
11
-4049.32197550887
21
3021.13764775686
31
1.37257849296191e-005
  0
LINE
 8
GROUP0
10
-4049.83961359908
20
3020.24107228469
30
1.37027278007906e-005
11
-4049.52177635388
21
3020.65528584706
31
1.37137181802416e-005
  0
LINE
 8
GROUP0
10
-4050.25382716145
20
3019.9232350395
30
1.36935628646029e-005
11
-4049.83961359908
21
3020.24107228469
31
1.37027278007906e-005
  0
LINE
 8
GROUP0
10
-4050.73618907125
20
3019.72343419449
30
1.36868479152952e-005
11
-4050.25382716145
21
3019.9232350395
31
1.36935628646029e-005
  0
LINE
 8
GROUP0
10
-4051.25382716145
20
3019.65528584706
30
1.36830405544686e-005
11
-4050.73618907125
21
3019.72343419449
31
1.36868479152952e-005
  0
LINE
 8
GROUP0
10
-4051.77146525166
20
3019.72343419449
30
1.36824003092784e-005
11
-4051.25382716145
21
3019.65528584706
31
1.36830405544686e-005
  0
LINE
 8
GROUP0
10
-4052.25382716145
20
3019.9232350395
30
1.36849706748876e-005
11
-4051.77146525166
21
3019.72343419449
31
1.36824003092784e-005
  0
LINE
 8
GROUP0
10
-4052.66804072382
20
3020.24107228469
30
1.36905765877771e-005
11
-4052.25382716145
21
3019.9232350395
31
1.36849706748876e-005
  0
LINE
 8
GROUP0
10
-4052.98587796902
20
3020.65528584706
30
1.36988359763279e-005
11
-4052.66804072382
21
3020.24107228469
31
1.36905765877771e-005
  0
LINE
 8
GROUP0
10
-4053.18567881403
20
3021.13764775686
30
1.37091860203498e-005
11
-4052.98587796902
21
3020.65528584706
31
1.36988359763279e-005
  0
LINE
 8
GROUP0
10
-4053.25382716145
20
3021.65528584706
30
1.37209214123857e-005
11
-4053.18567881403
21
3021.13764775686
31
1.37091860203498e-005
  0
LINE
 8
GROUP0
10
-4053.18567881403
20
3022.17292393727
30
1.37332422745828e-005
11
-4053.25382716145
21
3021.65528584706
31
1.37209214123857e-005
  0
LINE
 8
GROUP0
10
-4052.98587796902
20
3022.65528584706
30
1.37453090239603e-005
11
-4053.18567881403
21
3022.17292393727
31
1.37332422745828e-005
  0
LINE
 8
GROUP0
10
-4052.66804072382
20
3023.06949940944
30
1.37562994034113e-005
11
-4052.98587796902
21
3022.65528584706
31
1.37453090239603e-005
  0
LINE
 8
GROUP0
10
-4052.25382716145
20
3023.38733665463
30
1.3765464339599e-005
11
-4052.66804072382
21
3023.06949940944
31
1.37562994034113e-005
  0
LINE
 8
GROUP0
10
-4051.77146525166
20
3023.58713749964
30
1.37721792889067e-005
11
-4052.25382716145
21
3023.38733665463
31
1.3765464339599e-005
  0
LINE
 8
GROUP0
10
-4051.25382716145
20
3023.65528584706
30
1.37759866497333e-005
11
-4051.77146525166
21
3023.58713749964
31
1.37721792889067e-005
  0
LINE
 8
GROUP0
10
-4050.73618907125
20
3023.58713749964
30
1.37766269851625e-005
11
-4051.25382716145
21
3023.65528584706
31
1.37759866497333e-005
  0
LINE
 8
GROUP0
10
-4230.77146525166
20
3023.58713749964
30
1.32179807962984e-005
11
-4231.25382716145
21
3023.38733665463
31
1.32112658469907e-005
  0
LINE
 8
GROUP0
10
-4230.25382716145
20
3023.65528584706
30
1.3221788157125e-005
11
-4230.77146525166
21
3023.58713749964
31
1.32179807962984e-005
  0
LINE
 8
GROUP0
10
-4229.73618907125
20
3023.58713749964
30
1.32224284925542e-005
11
-4230.25382716145
21
3023.65528584706
31
1.3221788157125e-005
  0
LINE
 8
GROUP0
10
-4229.25382716145
20
3023.38733665463
30
1.3219858036706e-005
11
-4229.73618907125
21
3023.58713749964
31
1.32224284925542e-005
  0
LINE
 8
GROUP0
10
-4228.83961359908
20
3023.06949940944
30
1.32142521238165e-005
11
-4229.25382716145
21
3023.38733665463
31
1.3219858036706e-005
  0
LINE
 8
GROUP0
10
-4228.52177635388
20
3022.65528584706
30
1.32059927352657e-005
11
-4228.83961359908
21
3023.06949940944
31
1.32142521238165e-005
  0
LINE
 8
GROUP0
10
-4228.32197550887
20
3022.17292393727
30
1.31956426912438e-005
11
-4228.52177635388
21
3022.65528584706
31
1.32059927352657e-005
  0
LINE
 8
GROUP0
10
-4228.25382716145
20
3021.65528584706
30
1.31839073894469e-005
11
-4228.32197550887
21
3022.17292393727
31
1.31956426912438e-005
  0
LINE
 8
GROUP0
10
-4228.32197550887
20
3021.13764775686
30
1.31715865272497e-005
11
-4228.25382716145
21
3021.65528584706
31
1.31839073894469e-005
  0
LINE
 8
GROUP0
10
-4228.52177635388
20
3020.65528584706
30
1.31595196876333e-005
11
-4228.32197550887
21
3021.13764775686
31
1.31715865272497e-005
  0
LINE
 8
GROUP0
10
-4228.83961359908
20
3020.24107228469
30
1.31485293984213e-005
11
-4228.52177635388
21
3020.65528584706
31
1.31595196876333e-005
  0
LINE
 8
GROUP0
10
-4229.25382716145
20
3019.9232350395
30
1.31393644622335e-005
11
-4228.83961359908
21
3020.24107228469
31
1.31485293984213e-005
  0
LINE
 8
GROUP0
10
-4229.73618907125
20
3019.72343419449
30
1.31326494226869e-005
11
-4229.25382716145
21
3019.9232350395
31
1.31393644622335e-005
  0
LINE
 8
GROUP0
10
-4230.25382716145
20
3019.65528584706
30
1.31288420618603e-005
11
-4229.73618907125
21
3019.72343419449
31
1.31326494226869e-005
  0
LINE
 8
GROUP0
10
-4230.77146525166
20
3019.72343419449
30
1.31282018166701e-005
11
-4230.25382716145
21
3019.65528584706
31
1.31288420618603e-005
  0
LINE
 8
GROUP0
10
-4231.25382716145
20
3019.9232350395
30
1.31307721822793e-005
11
-4230.77146525166
21
3019.72343419449
31
1.31282018166701e-005
  0
LINE
 8
GROUP0
10
-4231.66804072382
20
3020.24107228469
30
1.31363780951688e-005
11
-4231.25382716145
21
3019.9232350395
31
1.31307721822793e-005
  0
LINE
 8
GROUP0
10
-4231.98587796902
20
3020.65528584706
30
1.31446375739586e-005
11
-4231.66804072382
21
3020.24107228469
31
1.31363780951688e-005
  0
LINE
 8
GROUP0
10
-4232.18567881403
20
3021.13764775686
30
1.31549876179804e-005
11
-4231.98587796902
21
3020.65528584706
31
1.31446375739586e-005
  0
LINE
 8
GROUP0
10
-4232.25382716145
20
3021.65528584706
30
1.31667229197774e-005
11
-4232.18567881403
21
3021.13764775686
31
1.31549876179804e-005
  0
LINE
 8
GROUP0
10
-4232.18567881403
20
3022.17292393727
30
1.31790437819745e-005
11
-4232.25382716145
21
3021.65528584706
31
1.31667229197774e-005
  0
LINE
 8
GROUP0
10
-4231.98587796902
20
3022.65528584706
30
1.3191110531352e-005
11
-4232.18567881403
21
3022.17292393727
31
1.31790437819745e-005
  0
LINE
 8
GROUP0
10
-4231.66804072382
20
3023.06949940944
30
1.3202100910803e-005
11
-4231.98587796902
21
3022.65528584706
31
1.3191110531352e-005
  0
LINE
 8
GROUP0
10
-4231.25382716145
20
3023.38733665463
30
1.32112658469907e-005
11
-4231.66804072382
21
3023.06949940944
31
1.3202100910803e-005
  0
LINE
 8
GROUP0
10
-4407.32220389041
20
3022.17292393727
30
1.37388558577811e-005
11
-4407.52200473542
21
3022.65528584706
31
1.3749205901803e-005
  0
LINE
 8
GROUP0
10
-4407.25405554299
20
3021.65528584706
30
1.37271204657452e-005
11
-4407.32220389041
21
3022.17292393727
31
1.37388558577811e-005
  0
LINE
 8
GROUP0
10
-4407.32220389041
20
3021.13764775686
30
1.3714799603548e-005
11
-4407.25405554299
21
3021.65528584706
31
1.37271204657452e-005
  0
LINE
 8
GROUP0
10
-4407.52200473542
20
3020.65528584706
30
1.37027328541706e-005
11
-4407.32220389041
21
3021.13764775686
31
1.3714799603548e-005
  0
LINE
 8
GROUP0
10
-4407.83984198061
20
3020.24107228469
30
1.36917424747196e-005
11
-4407.52200473542
21
3020.65528584706
31
1.37027328541706e-005
  0
LINE
 8
GROUP0
10
-4408.25405554299
20
3019.9232350395
30
1.36825775385319e-005
11
-4407.83984198061
21
3020.24107228469
31
1.36917424747196e-005
  0
LINE
 8
GROUP0
10
-4408.73641745278
20
3019.72343419449
30
1.36758625892242e-005
11
-4408.25405554299
21
3019.9232350395
31
1.36825775385319e-005
  0
LINE
 8
GROUP0
10
-4409.25405554299
20
3019.65528584706
30
1.36720552283975e-005
11
-4408.73641745278
21
3019.72343419449
31
1.36758625892242e-005
  0
LINE
 8
GROUP0
10
-4409.77169363319
20
3019.72343419449
30
1.36714148929684e-005
11
-4409.25405554299
21
3019.65528584706
31
1.36720552283975e-005
  0
LINE
 8
GROUP0
10
-4410.25405554299
20
3019.9232350395
30
1.36739853488166e-005
11
-4409.77169363319
21
3019.72343419449
31
1.36714148929684e-005
  0
LINE
 8
GROUP0
10
-4410.66826910536
20
3020.24107228469
30
1.3679591261706e-005
11
-4410.25405554299
21
3019.9232350395
31
1.36739853488166e-005
  0
LINE
 8
GROUP0
10
-4410.98610635056
20
3020.65528584706
30
1.36878506502569e-005
11
-4410.66826910536
21
3020.24107228469
31
1.3679591261706e-005
  0
LINE
 8
GROUP0
10
-4411.18590719557
20
3021.13764775686
30
1.36982006942787e-005
11
-4410.98610635056
21
3020.65528584706
31
1.36878506502569e-005
  0
LINE
 8
GROUP0
10
-4411.25405554299
20
3021.65528584706
30
1.37099359960757e-005
11
-4411.18590719557
21
3021.13764775686
31
1.36982006942787e-005
  0
LINE
 8
GROUP0
10
-4411.18590719557
20
3022.17292393727
30
1.37222569485118e-005
11
-4411.25405554299
21
3021.65528584706
31
1.37099359960757e-005
  0
LINE
 8
GROUP0
10
-4410.98610635056
20
3022.65528584706
30
1.37343236978893e-005
11
-4411.18590719557
21
3022.17292393727
31
1.37222569485118e-005
  0
LINE
 8
GROUP0
10
-4410.66826910536
20
3023.06949940944
30
1.37453140773403e-005
11
-4410.98610635056
21
3022.65528584706
31
1.37343236978893e-005
  0
LINE
 8
GROUP0
10
-4410.25405554299
20
3023.38733665463
30
1.3754479013528e-005
11
-4410.66826910536
21
3023.06949940944
31
1.37453140773403e-005
  0
LINE
 8
GROUP0
10
-4409.77169363319
20
3023.58713749964
30
1.37611939628357e-005
11
-4410.25405554299
21
3023.38733665463
31
1.3754479013528e-005
  0
LINE
 8
GROUP0
10
-4409.25405554299
20
3023.65528584706
30
1.37650013236623e-005
11
-4409.77169363319
21
3023.58713749964
31
1.37611939628357e-005
  0
LINE
 8
GROUP0
10
-4408.73641745278
20
3023.58713749964
30
1.37656415688525e-005
11
-4409.25405554299
21
3023.65528584706
31
1.37650013236623e-005
  0
LINE
 8
GROUP0
10
-4408.25405554299
20
3023.38733665463
30
1.37630712032433e-005
11
-4408.73641745278
21
3023.58713749964
31
1.37656415688525e-005
  0
LINE
 8
GROUP0
10
-4407.83984198061
20
3023.06949940944
30
1.37574652903538e-005
11
-4408.25405554299
21
3023.38733665463
31
1.37630712032433e-005
  0
LINE
 8
GROUP0
10
-4407.52200473542
20
3022.65528584706
30
1.3749205901803e-005
11
-4407.83984198061
21
3023.06949940944
31
1.37574652903538e-005
  0
LINE
 8
GROUP0
10
-4498.98610154125
20
3110.65550950056
30
1.54010846046049e-005
11
-4499.18590238626
21
3110.17314759076
31
1.53890177649885e-005
  0
LINE
 8
GROUP0
10
-4498.66826429605
20
3111.06972306293
30
1.54120748938169e-005
11
-4498.98610154125
21
3110.65550950056
31
1.54010846046049e-005
  0
LINE
 8
GROUP0
10
-4498.25405073368
20
3111.38756030812
30
1.54212398300047e-005
11
-4498.66826429605
21
3111.06972306293
31
1.54120748938169e-005
  0
LINE
 8
GROUP0
10
-4497.77168882388
20
3111.58736115313
30
1.54279547793124e-005
11
-4498.25405073368
21
3111.38756030812
31
1.54212398300047e-005
  0
LINE
 8
GROUP0
10
-4497.25405073368
20
3111.65550950056
30
1.5431762140139e-005
11
-4497.77168882388
21
3111.58736115313
31
1.54279547793124e-005
  0
LINE
 8
GROUP0
10
-4496.73641264347
20
3111.58736115313
30
1.54324024755681e-005
11
-4497.25405073368
21
3111.65550950056
31
1.5431762140139e-005
  0
LINE
 8
GROUP0
10
-4496.25405073368
20
3111.38756030812
30
1.54298321099589e-005
11
-4496.73641264347
21
3111.58736115313
31
1.54324024755681e-005
  0
LINE
 8
GROUP0
10
-4495.83983717131
20
3111.06972306293
30
1.54242261970694e-005
11
-4496.25405073368
21
3111.38756030812
31
1.54298321099589e-005
  0
LINE
 8
GROUP0
10
-4495.52199992611
20
3110.65550950056
30
1.54159667182796e-005
11
-4495.83983717131
21
3111.06972306293
31
1.54242261970694e-005
  0
LINE
 8
GROUP0
10
-4495.3221990811
20
3110.17314759076
30
1.54056166742578e-005
11
-4495.52199992611
21
3110.65550950056
31
1.54159667182796e-005
  0
LINE
 8
GROUP0
10
-4495.25405073368
20
3109.65550950056
30
1.53938813724608e-005
11
-4495.3221990811
21
3110.17314759076
31
1.54056166742578e-005
  0
LINE
 8
GROUP0
10
-4495.3221990811
20
3109.13787141035
30
1.53815605102636e-005
11
-4495.25405073368
21
3109.65550950056
31
1.53938813724608e-005
  0
LINE
 8
GROUP0
10
-4495.52199992611
20
3108.65550950056
30
1.53694937608861e-005
11
-4495.3221990811
21
3109.13787141035
31
1.53815605102636e-005
  0
LINE
 8
GROUP0
10
-4495.83983717131
20
3108.24129593818
30
1.53585033814352e-005
11
-4495.52199992611
21
3108.65550950056
31
1.53694937608861e-005
  0
LINE
 8
GROUP0
10
-4496.25405073368
20
3107.92345869299
30
1.53493384452474e-005
11
-4495.83983717131
21
3108.24129593818
31
1.53585033814352e-005
  0
LINE
 8
GROUP0
10
-4496.73641264347
20
3107.72365784798
30
1.53426234959397e-005
11
-4496.25405073368
21
3107.92345869299
31
1.53493384452474e-005
  0
LINE
 8
GROUP0
10
-4497.25405073368
20
3107.65550950056
30
1.53388161351131e-005
11
-4496.73641264347
21
3107.72365784798
31
1.53426234959397e-005
  0
LINE
 8
GROUP0
10
-4497.77168882388
20
3107.72365784798
30
1.5338175799684e-005
11
-4497.25405073368
21
3107.65550950056
31
1.53388161351131e-005
  0
LINE
 8
GROUP0
10
-4498.25405073368
20
3107.92345869299
30
1.53407461652932e-005
11
-4497.77168882388
21
3107.72365784798
31
1.5338175799684e-005
  0
LINE
 8
GROUP0
10
-4498.66826429605
20
3108.24129593818
30
1.53463521684216e-005
11
-4498.25405073368
21
3107.92345869299
31
1.53407461652932e-005
  0
LINE
 8
GROUP0
10
-4498.98610154125
20
3108.65550950056
30
1.53546115569725e-005
11
-4498.66826429605
21
3108.24129593818
31
1.53463521684216e-005
  0
LINE
 8
GROUP0
10
-4499.18590238626
20
3109.13787141035
30
1.53649616009943e-005
11
-4498.98610154125
21
3108.65550950056
31
1.53546115569725e-005
  0
LINE
 8
GROUP0
10
-4499.25405073368
20
3109.65550950056
30
1.53766969027913e-005
11
-4499.18590238626
21
3109.13787141035
31
1.53649616009943e-005
  0
LINE
 8
GROUP0
10
-4499.18590238626
20
3110.17314759076
30
1.53890177649885e-005
11
-4499.25405073368
21
3109.65550950056
31
1.53766969027913e-005
  0
LINE
 8
GROUP0
10
-4495.52199992611
20
3266.65573788209
30
2.19392257136519e-005
11
-4495.3221990811
21
3267.13809979189
31
2.19512925532683e-005
  0
LINE
 8
GROUP0
10
-4495.83983717131
20
3266.24152431972
30
2.19282354244399e-005
11
-4495.52199992611
21
3266.65573788209
31
2.19392257136519e-005
  0
LINE
 8
GROUP0
10
-4496.25405073368
20
3265.92368707452
30
2.19190704882521e-005
11
-4495.83983717131
21
3266.24152431972
31
2.19282354244399e-005
  0
LINE
 8
GROUP0
10
-4496.73641264347
20
3265.72388622951
30
2.19123555389444e-005
11
-4496.25405073368
21
3265.92368707452
31
2.19190704882521e-005
  0
LINE
 8
GROUP0
10
-4497.25405073368
20
3265.65573788209
30
2.19085481781178e-005
11
-4496.73641264347
21
3265.72388622951
31
2.19123555389444e-005
  0
LINE
 8
GROUP0
10
-4497.77168882388
20
3265.72388622951
30
2.19079078426887e-005
11
-4497.25405073368
21
3265.65573788209
31
2.19085481781178e-005
  0
LINE
 8
GROUP0
10
-4498.25405073368
20
3265.92368707452
30
2.19104782082979e-005
11
-4497.77168882388
21
3265.72388622951
31
2.19079078426887e-005
  0
LINE
 8
GROUP0
10
-4498.66826429605
20
3266.24152431972
30
2.19160841211874e-005
11
-4498.25405073368
21
3265.92368707452
31
2.19104782082979e-005
  0
LINE
 8
GROUP0
10
-4498.98610154125
20
3266.65573788209
30
2.19243435999772e-005
11
-4498.66826429605
21
3266.24152431972
31
2.19160841211874e-005
  0
LINE
 8
GROUP0
10
-4499.18590238626
20
3267.13809979189
30
2.1934693643999e-005
11
-4498.98610154125
21
3266.65573788209
31
2.19243435999772e-005
  0
LINE
 8
GROUP0
10
-4499.25405073368
20
3267.65573788209
30
2.1946428945796e-005
11
-4499.18590238626
21
3267.13809979189
31
2.1934693643999e-005
  0
LINE
 8
GROUP0
10
-4499.18590238626
20
3268.1733759723
30
2.19587498079932e-005
11
-4499.25405073368
21
3267.65573788209
31
2.1946428945796e-005
  0
LINE
 8
GROUP0
10
-4498.98610154125
20
3268.65573788209
30
2.19708166476096e-005
11
-4499.18590238626
21
3268.1733759723
31
2.19587498079932e-005
  0
LINE
 8
GROUP0
10
-4498.66826429605
20
3269.06995144447
30
2.19818069368216e-005
11
-4498.98610154125
21
3268.65573788209
31
2.19708166476096e-005
  0
LINE
 8
GROUP0
10
-4498.25405073368
20
3269.38778868966
30
2.19909718730094e-005
11
-4498.66826429605
21
3269.06995144447
31
2.19818069368216e-005
  0
LINE
 8
GROUP0
10
-4497.77168882388
20
3269.58758953467
30
2.19976868223171e-005
11
-4498.25405073368
21
3269.38778868966
31
2.19909718730094e-005
  0
LINE
 8
GROUP0
10
-4497.25405073368
20
3269.65573788209
30
2.20014941831437e-005
11
-4497.77168882388
21
3269.58758953467
31
2.19976868223171e-005
  0
LINE
 8
GROUP0
10
-4496.73641264347
20
3269.58758953467
30
2.20021345185728e-005
11
-4497.25405073368
21
3269.65573788209
31
2.20014941831437e-005
  0
LINE
 8
GROUP0
10
-4496.25405073368
20
3269.38778868966
30
2.19995641529636e-005
11
-4496.73641264347
21
3269.58758953467
31
2.20021345185728e-005
  0
LINE
 8
GROUP0
10
-4495.83983717131
20
3269.06995144447
30
2.19939581498352e-005
11
-4496.25405073368
21
3269.38778868966
31
2.19995641529636e-005
  0
LINE
 8
GROUP0
10
-4495.52199992611
20
3268.65573788209
30
2.19856987612843e-005
11
-4495.83983717131
21
3269.06995144447
31
2.19939581498352e-005
  0
LINE
 8
GROUP0
10
-4495.3221990811
20
3268.1733759723
30
2.19753487172625e-005
11
-4495.52199992611
21
3268.65573788209
31
2.19856987612843e-005
  0
LINE
 8
GROUP0
10
-4495.25405073368
20
3267.65573788209
30
2.19636134154655e-005
11
-4495.3221990811
21
3268.1733759723
31
2.19753487172625e-005
  0
LINE
 8
GROUP0
10
-4495.3221990811
20
3267.13809979189
30
2.19512925532683e-005
11
-4495.25405073368
21
3267.65573788209
31
2.19636134154655e-005
  0
LINE
 8
GROUP0
10
-4408.25382708019
20
3353.92368226521
30
2.43419427363278e-005
11
-4407.83961351782
21
3354.24151951041
31
2.43511076725156e-005
  0
LINE
 8
GROUP0
10
-4408.73618898998
20
3353.7238814202
30
2.43352277870201e-005
11
-4408.25382708019
21
3353.92368226521
31
2.43419427363278e-005
  0
LINE
 8
GROUP0
10
-4409.25382708019
20
3353.65573307278
30
2.43314204261935e-005
11
-4408.73618898998
21
3353.7238814202
31
2.43352277870201e-005
  0
LINE
 8
GROUP0
10
-4409.77146517039
20
3353.7238814202
30
2.43307800907644e-005
11
-4409.25382708019
21
3353.65573307278
31
2.43314204261935e-005
  0
LINE
 8
GROUP0
10
-4410.25382708019
20
3353.92368226521
30
2.43333504563736e-005
11
-4409.77146517039
21
3353.7238814202
31
2.43307800907644e-005
  0
LINE
 8
GROUP0
10
-4410.66804064256
20
3354.24151951041
30
2.43389563692631e-005
11
-4410.25382708019
21
3353.92368226521
31
2.43333504563736e-005
  0
LINE
 8
GROUP0
10
-4410.98587788776
20
3354.65573307278
30
2.43472158480529e-005
11
-4410.66804064256
21
3354.24151951041
31
2.43389563692631e-005
  0
LINE
 8
GROUP0
10
-4411.18567873277
20
3355.13809498258
30
2.43575658920747e-005
11
-4410.98587788776
21
3354.65573307278
31
2.43472158480529e-005
  0
LINE
 8
GROUP0
10
-4411.25382708019
20
3355.65573307278
30
2.43693011938717e-005
11
-4411.18567873277
21
3355.13809498258
31
2.43575658920747e-005
  0
LINE
 8
GROUP0
10
-4411.18567873277
20
3356.17337116299
30
2.43816220560689e-005
11
-4411.25382708019
21
3355.65573307278
31
2.43693011938717e-005
  0
LINE
 8
GROUP0
10
-4410.98587788776
20
3356.65573307278
30
2.43936888956853e-005
11
-4411.18567873277
21
3356.17337116299
31
2.43816220560689e-005
  0
LINE
 8
GROUP0
10
-4410.66804064256
20
3357.06994663516
30
2.44046791848973e-005
11
-4410.98587788776
21
3356.65573307278
31
2.43936888956853e-005
  0
LINE
 8
GROUP0
10
-4410.25382708019
20
3357.38778388035
30
2.4413844121085e-005
11
-4410.66804064256
21
3357.06994663516
31
2.44046791848973e-005
  0
LINE
 8
GROUP0
10
-4409.77146517039
20
3357.58758472536
30
2.44205590703928e-005
11
-4410.25382708019
21
3357.38778388035
31
2.4413844121085e-005
  0
LINE
 8
GROUP0
10
-4409.25382708019
20
3357.65573307278
30
2.44243664312194e-005
11
-4409.77146517039
21
3357.58758472536
31
2.44205590703928e-005
  0
LINE
 8
GROUP0
10
-4408.73618898998
20
3357.58758472536
30
2.44250067666485e-005
11
-4409.25382708019
21
3357.65573307278
31
2.44243664312194e-005
  0
LINE
 8
GROUP0
10
-4408.25382708019
20
3357.38778388035
30
2.44224364010392e-005
11
-4408.73618898998
21
3357.58758472536
31
2.44250067666485e-005
  0
LINE
 8
GROUP0
10
-4407.83961351782
20
3357.06994663516
30
2.44168304881498e-005
11
-4408.25382708019
21
3357.38778388035
31
2.44224364010392e-005
  0
LINE
 8
GROUP0
10
-4407.52177627262
20
3356.65573307278
30
2.440857100936e-005
11
-4407.83961351782
21
3357.06994663516
31
2.44168304881498e-005
  0
LINE
 8
GROUP0
10
-4407.32197542761
20
3356.17337116299
30
2.43982209653382e-005
11
-4407.52177627262
21
3356.65573307278
31
2.440857100936e-005
  0
LINE
 8
GROUP0
10
-4407.25382708019
20
3355.65573307278
30
2.43864856635412e-005
11
-4407.32197542761
21
3356.17337116299
31
2.43982209653382e-005
  0
LINE
 8
GROUP0
10
-4407.32197542761
20
3355.13809498258
30
2.4374164801344e-005
11
-4407.25382708019
21
3355.65573307278
31
2.43864856635412e-005
  0
LINE
 8
GROUP0
10
-4407.52177627262
20
3354.65573307278
30
2.43620979617276e-005
11
-4407.32197542761
21
3355.13809498258
31
2.4374164801344e-005
  0
LINE
 8
GROUP0
10
-4407.83961351782
20
3354.24151951041
30
2.43511076725156e-005
11
-4407.52177627262
21
3354.65573307278
31
2.43620979617276e-005
  0
LINE
 8
GROUP0
10
-4231.98587788776
20
3356.65573307278
30
2.38504747365198e-005
11
-4232.18567873277
21
3356.17337116299
31
2.38384079871423e-005
  0
LINE
 8
GROUP0
10
-4231.66804064256
20
3357.06994663516
30
2.38614651159708e-005
11
-4231.98587788776
21
3356.65573307278
31
2.38504747365198e-005
  0
LINE
 8
GROUP0
10
-4231.25382708019
20
3357.38778388035
30
2.38706300521585e-005
11
-4231.66804064256
21
3357.06994663516
31
2.38614651159708e-005
  0
LINE
 8
GROUP0
10
-4230.77146517039
20
3357.58758472536
30
2.38773450014662e-005
11
-4231.25382708019
21
3357.38778388035
31
2.38706300521585e-005
  0
LINE
 8
GROUP0
10
-4230.25382708019
20
3357.65573307278
30
2.38811523622928e-005
11
-4230.77146517039
21
3357.58758472536
31
2.38773450014662e-005
  0
LINE
 8
GROUP0
10
-4229.73618898998
20
3357.58758472536
30
2.38817926977219e-005
11
-4230.25382708019
21
3357.65573307278
31
2.38811523622928e-005
  0
LINE
 8
GROUP0
10
-4229.25382708019
20
3357.38778388035
30
2.38792222418738e-005
11
-4229.73618898998
21
3357.58758472536
31
2.38817926977219e-005
  0
LINE
 8
GROUP0
10
-4228.83961351781
20
3357.06994663516
30
2.38736163289843e-005
11
-4229.25382708019
21
3357.38778388035
31
2.38792222418738e-005
  0
LINE
 8
GROUP0
10
-4228.52177627262
20
3356.65573307278
30
2.38653569404335e-005
11
-4228.83961351781
21
3357.06994663516
31
2.38736163289843e-005
  0
LINE
 8
GROUP0
10
-4228.32197542761
20
3356.17337116299
30
2.38550068964116e-005
11
-4228.52177627262
21
3356.65573307278
31
2.38653569404335e-005
  0
LINE
 8
GROUP0
10
-4228.25382708019
20
3355.65573307278
30
2.38432715946146e-005
11
-4228.32197542761
21
3356.17337116299
31
2.38550068964116e-005
  0
LINE
 8
GROUP0
10
-4228.32197542761
20
3355.13809498258
30
2.38309506421786e-005
11
-4228.25382708019
21
3355.65573307278
31
2.38432715946146e-005
  0
LINE
 8
GROUP0
10
-4228.52177627262
20
3354.65573307278
30
2.38188838928011e-005
11
-4228.32197542761
21
3355.13809498258
31
2.38309506421786e-005
  0
LINE
 8
GROUP0
10
-4228.83961351781
20
3354.24151951041
30
2.38078935133501e-005
11
-4228.52177627262
21
3354.65573307278
31
2.38188838928011e-005
  0
LINE
 8
GROUP0
10
-4229.25382708019
20
3353.92368226521
30
2.37987285771624e-005
11
-4228.83961351781
21
3354.24151951041
31
2.38078935133501e-005
  0
LINE
 8
GROUP0
10
-4229.73618898998
20
3353.7238814202
30
2.37920136278547e-005
11
-4229.25382708019
21
3353.92368226521
31
2.37987285771624e-005
  0
LINE
 8
GROUP0
10
-4230.25382708019
20
3353.65573307278
30
2.3788206267028e-005
11
-4229.73618898998
21
3353.7238814202
31
2.37920136278547e-005
  0
LINE
 8
GROUP0
10
-4230.77146517039
20
3353.7238814202
30
2.37875660218378e-005
11
-4230.25382708019
21
3353.65573307278
31
2.3788206267028e-005
  0
LINE
 8
GROUP0
10
-4231.25382708019
20
3353.92368226521
30
2.37901363874471e-005
11
-4230.77146517039
21
3353.7238814202
31
2.37875660218378e-005
  0
LINE
 8
GROUP0
10
-4231.66804064256
20
3354.24151951041
30
2.37957423003365e-005
11
-4231.25382708019
21
3353.92368226521
31
2.37901363874471e-005
  0
LINE
 8
GROUP0
10
-4231.98587788776
20
3354.65573307278
30
2.38040016888874e-005
11
-4231.66804064256
21
3354.24151951041
31
2.37957423003365e-005
  0
LINE
 8
GROUP0
10
-4232.18567873277
20
3355.13809498258
30
2.38143517329092e-005
11
-4231.98587788776
21
3354.65573307278
31
2.38040016888874e-005
  0
LINE
 8
GROUP0
10
-4232.25382708019
20
3355.65573307278
30
2.38260871249452e-005
11
-4232.18567873277
21
3355.13809498258
31
2.38143517329092e-005
  0
LINE
 8
GROUP0
10
-4232.18567873277
20
3356.17337116299
30
2.38384079871423e-005
11
-4232.25382708019
21
3355.65573307278
31
2.38260871249452e-005
  0
LINE
 8
GROUP0
10
-4051.25359869865
20
3353.65573307278
30
2.43424057522645e-005
11
-4050.73596060845
21
3353.7238814202
31
2.43462131130912e-005
  0
LINE
 8
GROUP0
10
-4051.77123678886
20
3353.7238814202
30
2.43417654168354e-005
11
-4051.25359869865
21
3353.65573307278
31
2.43424057522645e-005
  0
LINE
 8
GROUP0
10
-4052.25359869865
20
3353.92368226521
30
2.43443358726836e-005
11
-4051.77123678886
21
3353.7238814202
31
2.43417654168354e-005
  0
LINE
 8
GROUP0
10
-4052.66781226103
20
3354.24151951041
30
2.4349941785573e-005
11
-4052.25359869865
21
3353.92368226521
31
2.43443358726836e-005
  0
LINE
 8
GROUP0
10
-4052.98564950622
20
3354.65573307278
30
2.43582011741239e-005
11
-4052.66781226103
21
3354.24151951041
31
2.4349941785573e-005
  0
LINE
 8
GROUP0
10
-4053.18545035123
20
3355.13809498258
30
2.43685512181457e-005
11
-4052.98564950622
21
3354.65573307278
31
2.43582011741239e-005
  0
LINE
 8
GROUP0
10
-4053.25359869865
20
3355.65573307278
30
2.43802865199427e-005
11
-4053.18545035123
21
3355.13809498258
31
2.43685512181457e-005
  0
LINE
 8
GROUP0
10
-4053.18545035123
20
3356.17337116299
30
2.43926074723788e-005
11
-4053.25359869865
21
3355.65573307278
31
2.43802865199427e-005
  0
LINE
 8
GROUP0
10
-4052.98564950622
20
3356.65573307278
30
2.44046742217563e-005
11
-4053.18545035123
21
3356.17337116299
31
2.43926074723788e-005
  0
LINE
 8
GROUP0
10
-4052.66781226103
20
3357.06994663516
30
2.44156646012073e-005
11
-4052.98564950622
21
3356.65573307278
31
2.44046742217563e-005
  0
LINE
 8
GROUP0
10
-4052.25359869865
20
3357.38778388035
30
2.4424829537395e-005
11
-4052.66781226103
21
3357.06994663516
31
2.44156646012073e-005
  0
LINE
 8
GROUP0
10
-4051.77123678886
20
3357.58758472536
30
2.44315444867027e-005
11
-4052.25359869865
21
3357.38778388035
31
2.4424829537395e-005
  0
LINE
 8
GROUP0
10
-4051.25359869865
20
3357.65573307278
30
2.44353518475293e-005
11
-4051.77123678886
21
3357.58758472536
31
2.44315444867027e-005
  0
LINE
 8
GROUP0
10
-4050.73596060845
20
3357.58758472536
30
2.44359920927195e-005
11
-4051.25359869865
21
3357.65573307278
31
2.44353518475293e-005
  0
LINE
 8
GROUP0
10
-4050.25359869865
20
3357.38778388035
30
2.44334217271103e-005
11
-4050.73596060845
21
3357.58758472536
31
2.44359920927195e-005
  0
LINE
 8
GROUP0
10
-4049.83938513628
20
3357.06994663516
30
2.44278158142208e-005
11
-4050.25359869865
21
3357.38778388035
31
2.44334217271103e-005
  0
LINE
 8
GROUP0
10
-4049.52154789108
20
3356.65573307278
30
2.441955642567e-005
11
-4049.83938513628
21
3357.06994663516
31
2.44278158142208e-005
  0
LINE
 8
GROUP0
10
-4049.32174704607
20
3356.17337116299
30
2.44092063816481e-005
11
-4049.52154789108
21
3356.65573307278
31
2.441955642567e-005
  0
LINE
 8
GROUP0
10
-4049.25359869865
20
3355.65573307278
30
2.43974709896122e-005
11
-4049.32174704607
21
3356.17337116299
31
2.44092063816481e-005
  0
LINE
 8
GROUP0
10
-4049.32174704607
20
3355.13809498258
30
2.4385150127415e-005
11
-4049.25359869865
21
3355.65573307278
31
2.43974709896122e-005
  0
LINE
 8
GROUP0
10
-4049.52154789108
20
3354.65573307278
30
2.43730833780376e-005
11
-4049.32174704607
21
3355.13809498258
31
2.4385150127415e-005
  0
LINE
 8
GROUP0
10
-4049.83938513628
20
3354.24151951041
30
2.43620929985866e-005
11
-4049.52154789108
21
3354.65573307278
31
2.43730833780376e-005
  0
LINE
 8
GROUP0
10
-4050.25359869865
20
3353.92368226521
30
2.43529280623989e-005
11
-4049.83938513628
21
3354.24151951041
31
2.43620929985866e-005
  0
LINE
 8
GROUP0
10
-4050.73596060845
20
3353.7238814202
30
2.43462131130912e-005
11
-4050.25359869865
21
3353.92368226521
31
2.43529280623989e-005
  0
LINE
 8
GROUP0
10
-4155.08347209278
20
3114.94960496654
30
1.68236430013735e-005
11
-4154.58396998026
21
3116.15550974102
31
1.68236428208957e-005
  0
LINE
 8
GROUP0
10
-4154.58396998026
20
3116.15550974102
30
1.68236428208957e-005
11
-4153.78937686727
21
3117.19104364696
31
1.68236429111346e-005
  0
LINE
 8
GROUP0
10
-4153.78937686727
20
3117.19104364696
30
1.68236429111346e-005
11
-4152.75384296134
21
3117.98563675995
31
1.68236429111346e-005
  0
LINE
 8
GROUP0
10
-4152.75384296134
20
3117.98563675995
30
1.68236429111346e-005
11
-4151.54793818685
21
3118.48513887247
31
1.68236428208957e-005
  0
LINE
 8
GROUP0
10
-4151.54793818685
20
3118.48513887247
30
1.68236428208957e-005
11
-4150.25384296134
21
3118.65550974102
31
1.68236429111346e-005
  0
LINE
 8
GROUP0
10
-4150.25384296134
20
3118.65550974102
30
1.68236429111346e-005
11
-4148.95974773583
21
3118.48513887247
31
1.68236427306567e-005
  0
LINE
 8
GROUP0
10
-4148.95974773583
20
3118.48513887247
30
1.68236427306567e-005
11
-4147.75384296134
21
3117.98563675994
31
1.68236430013735e-005
  0
LINE
 8
GROUP0
10
-4147.75384296134
20
3117.98563675994
30
1.68236430013735e-005
11
-4146.71830905541
21
3117.19104364695
31
1.68236429111346e-005
  0
LINE
 8
GROUP0
10
-4146.71830905541
20
3117.19104364695
30
1.68236429111346e-005
11
-4145.92371594242
21
3116.15550974102
31
1.68236428208957e-005
  0
LINE
 8
GROUP0
10
-4145.92371594242
20
3116.15550974102
30
1.68236428208957e-005
11
-4145.42421382989
21
3114.94960496653
31
1.68236429111346e-005
  0
LINE
 8
GROUP0
10
-4145.42421382989
20
3114.94960496653
30
1.68236429111346e-005
11
-4145.25384296134
21
3113.65550974102
31
1.68236428208957e-005
  0
LINE
 8
GROUP0
10
-4145.25384296134
20
3113.65550974102
30
1.68236428208957e-005
11
-4145.4242138299
21
3112.36141451551
31
1.68236430013735e-005
  0
LINE
 8
GROUP0
10
-4145.4242138299
20
3112.36141451551
30
1.68236430013735e-005
11
-4145.92371594242
21
3111.15550974102
31
1.68236428208957e-005
  0
LINE
 8
GROUP0
10
-4145.92371594242
20
3111.15550974102
30
1.68236428208957e-005
11
-4146.71830905541
21
3110.11997583509
31
1.68236429111346e-005
  0
LINE
 8
GROUP0
10
-4150.25384296134
20
3105.51237834234
30
1.68236430013735e-005
11
-4146.71830905541
21
3110.11997583509
31
1.68236429111346e-005
  0
LINE
 8
GROUP0
10
-4153.78937686727
20
3110.11997583509
30
1.68236429111346e-005
11
-4150.25384296134
21
3105.51237834234
31
1.68236430013735e-005
  0
LINE
 8
GROUP0
10
-4153.78937686727
20
3110.11997583509
30
1.68236429111346e-005
11
-4154.58396998026
21
3111.15550974102
31
1.68236428208957e-005
  0
LINE
 8
GROUP0
10
-4154.58396998026
20
3111.15550974102
30
1.68236428208957e-005
11
-4155.08347209279
21
3112.36141451551
31
1.68236430013735e-005
  0
LINE
 8
GROUP0
10
-4155.08347209279
20
3112.36141451551
30
1.68236430013735e-005
11
-4155.25384296134
21
3113.65550974102
31
1.68236429111346e-005
  0
LINE
 8
GROUP0
10
-4155.25384296134
20
3113.65550974102
30
1.68236429111346e-005
11
-4155.08347209278
21
3114.94960496654
31
1.68236430013735e-005
  0
LINE
 8
GROUP0
10
-4315.08347209278
20
3114.94960496654
30
1.68236430013735e-005
11
-4314.58396998026
21
3116.15550974102
31
1.68236428208957e-005
  0
LINE
 8
GROUP0
10
-4314.58396998026
20
3116.15550974102
30
1.68236428208957e-005
11
-4313.78937686727
21
3117.19104364696
31
1.68236429111346e-005
  0
LINE
 8
GROUP0
10
-4313.78937686727
20
3117.19104364696
30
1.68236429111346e-005
11
-4312.75384296134
21
3117.98563675995
31
1.68236429111346e-005
  0
LINE
 8
GROUP0
10
-4312.75384296134
20
3117.98563675995
30
1.68236429111346e-005
11
-4311.54793818685
21
3118.48513887247
31
1.68236428208957e-005
  0
LINE
 8
GROUP0
10
-4311.54793818685
20
3118.48513887247
30
1.68236428208957e-005
11
-4310.25384296134
21
3118.65550974102
31
1.68236429111346e-005
  0
LINE
 8
GROUP0
10
-4310.25384296134
20
3118.65550974102
30
1.68236429111346e-005
11
-4308.95974773582
21
3118.48513887247
31
1.68236427306567e-005
  0
LINE
 8
GROUP0
10
-4308.95974773582
20
3118.48513887247
30
1.68236427306567e-005
11
-4307.75384296134
21
3117.98563675994
31
1.68236430013735e-005
  0
LINE
 8
GROUP0
10
-4307.75384296134
20
3117.98563675994
30
1.68236430013735e-005
11
-4306.71830905541
21
3117.19104364695
31
1.68236429111346e-005
  0
LINE
 8
GROUP0
10
-4306.71830905541
20
3117.19104364695
30
1.68236429111346e-005
11
-4305.92371594242
21
3116.15550974102
31
1.68236428208957e-005
  0
LINE
 8
GROUP0
10
-4305.92371594242
20
3116.15550974102
30
1.68236428208957e-005
11
-4305.42421382989
21
3114.94960496653
31
1.68236429111346e-005
  0
LINE
 8
GROUP0
10
-4305.42421382989
20
3114.94960496653
30
1.68236429111346e-005
11
-4305.25384296134
21
3113.65550974102
31
1.68236428208957e-005
  0
LINE
 8
GROUP0
10
-4305.25384296134
20
3113.65550974102
30
1.68236428208957e-005
11
-4305.4242138299
21
3112.36141451551
31
1.68236430013735e-005
  0
LINE
 8
GROUP0
10
-4305.4242138299
20
3112.36141451551
30
1.68236430013735e-005
11
-4305.92371594242
21
3111.15550974102
31
1.68236428208957e-005
  0
LINE
 8
GROUP0
10
-4305.92371594242
20
3111.15550974102
30
1.68236428208957e-005
11
-4306.71830905541
21
3110.11997583509
31
1.68236429111346e-005
  0
LINE
 8
GROUP0
10
-4310.25384296134
20
3105.51237834234
30
1.68236430013735e-005
11
-4306.71830905541
21
3110.11997583509
31
1.68236429111346e-005
  0
LINE
 8
GROUP0
10
-4313.78937686727
20
3110.11997583509
30
1.68236429111346e-005
11
-4310.25384296134
21
3105.51237834234
31
1.68236430013735e-005
  0
LINE
 8
GROUP0
10
-4313.78937686727
20
3110.11997583509
30
1.68236429111346e-005
11
-4314.58396998026
21
3111.15550974102
31
1.68236428208957e-005
  0
LINE
 8
GROUP0
10
-4314.58396998026
20
3111.15550974102
30
1.68236428208957e-005
11
-4315.08347209279
21
3112.36141451551
31
1.68236430013735e-005
  0
LINE
 8
GROUP0
10
-4315.08347209279
20
3112.36141451551
30
1.68236430013735e-005
11
-4315.25384296134
21
3113.65550974102
31
1.68236429111346e-005
  0
LINE
 8
GROUP0
10
-4315.25384296134
20
3113.65550974102
30
1.68236429111346e-005
11
-4315.08347209278
21
3114.94960496654
31
1.68236430013735e-005
  0
LINE
 8
GROUP0
10
-4100.25382583626
20
3150.15550974121
30
1.79208255438823e-005
11
-4104.25382583626
21
3150.15550974121
31
1.7916201971957e-005
  0
LINE
 8
GROUP0
10
-4100.25382583626
20
3139.15550974121
30
1.79208255438823e-005
11
-4100.25382583626
21
3150.15550974121
31
1.79208255438823e-005
  0
LINE
 8
GROUP0
10
-4104.25382583626
20
3139.15550974121
30
1.7916201971957e-005
11
-4100.25382583626
21
3139.15550974121
31
1.79208255438823e-005
  0
LINE
 8
GROUP0
10
-4104.25382583626
20
3150.15550974121
30
1.7916201971957e-005
11
-4104.25382583626
21
3139.15550974121
31
1.7916201971957e-005
  0
LINE
 8
GROUP0
10
-4100.25382583626
20
3219.15550974121
30
1.79162958204415e-005
11
-4100.25382583626
21
3230.15550974121
31
1.75661931464788e-005
  0
LINE
 8
GROUP0
10
-4104.25382583626
20
3219.15550974121
30
1.7916201971957e-005
11
-4100.25382583626
21
3219.15550974121
31
1.79162958204415e-005
  0
LINE
 8
GROUP0
10
-4104.25382583626
20
3230.15550974121
30
1.75660992979942e-005
11
-4104.25382583626
21
3219.15550974121
31
1.7916201971957e-005
  0
LINE
 8
GROUP0
10
-4100.25382583626
20
3230.15550974121
30
1.75661931464788e-005
11
-4104.25382583626
21
3230.15550974121
31
1.75660992979942e-005
  0
LINE
 8
GROUP0
10
-4200.25382583626
20
3150.15551000167
30
1.81199760888262e-005
11
-4196.25382583626
21
3150.15551000167
31
1.81245057220281e-005
  0
LINE
 8
GROUP0
10
-4196.25382583626
20
3150.15551000167
30
1.81245057220281e-005
11
-4196.25382583626
21
3139.15551000167
31
1.81245057220281e-005
  0
LINE
 8
GROUP0
10
-4196.25382583626
20
3139.15551000167
30
1.81245057220281e-005
11
-4200.25382583626
21
3139.15551000167
31
1.81199760888262e-005
  0
LINE
 8
GROUP0
10
-4200.25382583626
20
3139.15551000167
30
1.81199760888262e-005
11
-4200.25382583626
21
3150.15551000167
31
1.81199760888262e-005
  0
LINE
 8
GROUP0
10
-4196.25382583626
20
3230.15551000167
30
1.77698734148635e-005
11
-4196.25382583626
21
3219.15551000167
31
1.81199760888262e-005
  0
LINE
 8
GROUP0
10
-4196.25382583626
20
3219.15551000167
30
1.81199760888262e-005
11
-4200.25382583626
21
3219.15551000167
31
1.81199760888262e-005
  0
LINE
 8
GROUP0
10
-4200.25382583626
20
3219.15551000167
30
1.81199760888262e-005
11
-4200.25382583626
21
3230.15551000167
31
1.77698734148635e-005
  0
LINE
 8
GROUP0
10
-4200.25382583626
20
3230.15551000167
30
1.77698734148635e-005
11
-4196.25382583626
21
3230.15551000167
31
1.77698734148635e-005
  0
LINE
 8
GROUP0
10
-4360.25382583626
20
3219.15551000167
30
1.81199760888262e-005
11
-4360.25382583626
21
3230.15551000167
31
1.77698734148635e-005
  0
LINE
 8
GROUP0
10
-4360.25382583626
20
3230.15551000167
30
1.77698734148635e-005
11
-4356.25382583626
21
3230.15551000167
31
1.77698734148635e-005
  0
LINE
 8
GROUP0
10
-4356.25382583626
20
3230.15551000167
30
1.77698734148635e-005
11
-4356.25382583626
21
3219.15551000167
31
1.81199760888262e-005
  0
LINE
 8
GROUP0
10
-4356.25382583626
20
3219.15551000167
30
1.81199760888262e-005
11
-4360.25382583626
21
3219.15551000167
31
1.81199760888262e-005
  0
LINE
 8
GROUP0
10
-4264.25382583626
20
3219.15550974121
30
1.7916201971957e-005
11
-4260.25382583626
21
3219.15550974121
31
1.79162958204415e-005
  0
LINE
 8
GROUP0
10
-4264.25382583626
20
3230.15550974121
30
1.75660992979942e-005
11
-4264.25382583626
21
3219.15550974121
31
1.7916201971957e-005
  0
LINE
 8
GROUP0
10
-4260.25382583626
20
3230.15550974121
30
1.75661931464788e-005
11
-4264.25382583626
21
3230.15550974121
31
1.75660992979942e-005
  0
LINE
 8
GROUP0
10
-4260.25382583626
20
3219.15550974121
30
1.79162958204415e-005
11
-4260.25382583626
21
3230.15550974121
31
1.75661931464788e-005
  0
LINE
 8
GROUP0
10
-4264.25382583626
20
3150.15550974121
30
1.7916201971957e-005
11
-4264.25382583626
21
3139.15550974121
31
1.7916201971957e-005
  0
LINE
 8
GROUP0
10
-4260.25382583626
20
3150.15550974121
30
1.79208255438823e-005
11
-4264.25382583626
21
3150.15550974121
31
1.7916201971957e-005
  0
LINE
 8
GROUP0
10
-4260.25382583626
20
3139.15550974121
30
1.79208255438823e-005
11
-4260.25382583626
21
3150.15550974121
31
1.79208255438823e-005
  0
LINE
 8
GROUP0
10
-4264.25382583626
20
3139.15550974121
30
1.7916201971957e-005
11
-4260.25382583626
21
3139.15550974121
31
1.79208255438823e-005
  0
LINE
 8
GROUP0
10
-4356.25382583626
20
3139.15551000167
30
1.81245057220281e-005
11
-4360.25382583626
21
3139.15551000167
31
1.81199760888262e-005
  0
LINE
 8
GROUP0
10
-4360.25382583626
20
3139.15551000167
30
1.81199760888262e-005
11
-4360.25382583626
21
3150.15551000167
31
1.81199760888262e-005
  0
LINE
 8
GROUP0
10
-4360.25382583626
20
3150.15551000167
30
1.81199760888262e-005
11
-4356.25382583626
21
3150.15551000167
31
1.81245057220281e-005
  0
LINE
 8
GROUP0
10
-4356.25382583626
20
3150.15551000167
30
1.81245057220281e-005
11
-4356.25382583626
21
3139.15551000167
31
1.81245057220281e-005
  0
LINE
 8
GROUP0
10
-4110.25382583626
20
3150.15550974121
30
1.7920590922671e-005
11
-4114.25382583626
21
3150.15550974121
31
1.79159673507456e-005
  0
LINE
 8
GROUP0
10
-4110.25382583626
20
3139.15550974121
30
1.7920590922671e-005
11
-4110.25382583626
21
3150.15550974121
31
1.7920590922671e-005
  0
LINE
 8
GROUP0
10
-4114.25382583626
20
3139.15550974121
30
1.79159673507456e-005
11
-4110.25382583626
21
3139.15550974121
31
1.7920590922671e-005
  0
LINE
 8
GROUP0
10
-4114.25382583626
20
3150.15550974121
30
1.79159673507456e-005
11
-4114.25382583626
21
3139.15550974121
31
1.79159673507456e-005
  0
LINE
 8
GROUP0
10
-4114.25382583626
20
3219.15550986852
30
1.79159673507456e-005
11
-4110.25382583626
21
3219.15550986852
31
1.79160611992302e-005
  0
LINE
 8
GROUP0
10
-4114.25382583626
20
3230.15550986852
30
1.75658646767829e-005
11
-4114.25382583626
21
3219.15550986852
31
1.79159673507456e-005
  0
LINE
 8
GROUP0
10
-4110.25382583626
20
3230.15550986852
30
1.75659585252674e-005
11
-4114.25382583626
21
3230.15550986852
31
1.75658646767829e-005
  0
LINE
 8
GROUP0
10
-4110.25382583626
20
3219.15550986852
30
1.79160611992302e-005
11
-4110.25382583626
21
3230.15550986852
31
1.75659585252674e-005
  0
LINE
 8
GROUP0
10
-4190.25382583626
20
3219.15550986853
30
1.7915974389382e-005
11
-4186.25382583626
21
3219.15550986853
31
1.79160682378665e-005
  0
LINE
 8
GROUP0
10
-4190.25382583626
20
3230.15550986853
30
1.75658717154192e-005
11
-4190.25382583626
21
3219.15550986853
31
1.7915974389382e-005
  0
LINE
 8
GROUP0
10
-4186.25382583626
20
3230.15550986853
30
1.75659655639038e-005
11
-4190.25382583626
21
3230.15550986853
31
1.75658717154192e-005
  0
LINE
 8
GROUP0
10
-4186.25382583626
20
3219.15550986853
30
1.79160682378665e-005
11
-4186.25382583626
21
3230.15550986853
31
1.75659655639038e-005
  0
LINE
 8
GROUP0
10
-4186.25382583626
20
3150.15550974122
30
1.79205979613073e-005
11
-4190.25382583626
21
3150.15550974122
31
1.7915974389382e-005
  0
LINE
 8
GROUP0
10
-4186.25382583626
20
3139.15550974122
30
1.79205979613073e-005
11
-4186.25382583626
21
3150.15550974122
31
1.79205979613073e-005
  0
LINE
 8
GROUP0
10
-4190.25382583626
20
3139.15550974122
30
1.7915974389382e-005
11
-4186.25382583626
21
3139.15550974122
31
1.79205979613073e-005
  0
LINE
 8
GROUP0
10
-4190.25382583626
20
3150.15550974122
30
1.7915974389382e-005
11
-4190.25382583626
21
3139.15550974122
31
1.7915974389382e-005
  0
LINE
 8
GROUP0
10
-4274.25382583626
20
3230.1555096139
30
1.57183966180696e-005
11
-4274.25382583626
21
3219.1555096139
31
1.60684992017934e-005
  0
LINE
 8
GROUP0
10
-4270.25382583626
20
3230.1555096139
30
1.57184904665542e-005
11
-4274.25382583626
21
3230.1555096139
31
1.57183966180696e-005
  0
LINE
 8
GROUP0
10
-4270.25382583626
20
3219.1555096139
30
1.60685931405169e-005
11
-4270.25382583626
21
3230.1555096139
31
1.57184904665542e-005
  0
LINE
 8
GROUP0
10
-4274.25382583626
20
3219.1555096139
30
1.60684992017934e-005
11
-4270.25382583626
21
3219.1555096139
31
1.60685931405169e-005
  0
LINE
 8
GROUP0
10
-4274.25382583626
20
3150.1555096139
30
1.60684992017934e-005
11
-4274.25382583626
21
3139.1555096139
31
1.60684992920324e-005
  0
LINE
 8
GROUP0
10
-4270.25382583626
20
3150.1555096139
30
1.60731228639577e-005
11
-4274.25382583626
21
3150.1555096139
31
1.60684992017934e-005
  0
LINE
 8
GROUP0
10
-4270.25382583626
20
3139.1555096139
30
1.60731228639577e-005
11
-4270.25382583626
21
3150.1555096139
31
1.60731228639577e-005
  0
LINE
 8
GROUP0
10
-4274.25382583626
20
3139.1555096139
30
1.60684992920324e-005
11
-4270.25382583626
21
3139.1555096139
31
1.60731228639577e-005
  0
LINE
 8
GROUP0
10
-4350.25382583626
20
3219.15550987436
30
1.86537372691475e-005
11
-4350.25382583626
21
3230.15550987436
31
1.83036345951848e-005
  0
LINE
 8
GROUP0
10
-4350.25382583626
20
3230.15550987436
30
1.83036345951848e-005
11
-4346.25382583626
21
3230.15550987436
31
1.83036346854237e-005
  0
LINE
 8
GROUP0
10
-4346.25382583626
20
3230.15550987436
30
1.83036346854237e-005
11
-4346.25382583626
21
3219.15550987436
31
1.86537373593865e-005
  0
LINE
 8
GROUP0
10
-4346.25382583626
20
3219.15550987436
30
1.86537373593865e-005
11
-4350.25382583626
21
3219.15550987436
31
1.86537372691475e-005
  0
LINE
 8
GROUP0
10
-4350.25382583626
20
3139.15550987436
30
1.86537373593865e-005
11
-4350.25382583626
21
3150.15550987436
31
1.86537372691475e-005
  0
LINE
 8
GROUP0
10
-4350.25382583626
20
3150.15550987436
30
1.86537372691475e-005
11
-4346.25382583626
21
3150.15550987436
31
1.86582669925883e-005
  0
LINE
 8
GROUP0
10
-4346.25382583626
20
3150.15550987436
30
1.86582669925883e-005
11
-4346.25382583626
21
3139.15550987436
31
1.86582669023494e-005
  0
LINE
 8
GROUP0
10
-4346.25382583626
20
3139.15550987436
30
1.86582669023494e-005
11
-4350.25382583626
21
3139.15550987436
31
1.86537373593865e-005
  0
LINE
 8
GROUP0
10
-4315.75382587487
20
3075.65551109118
30
2.23313982267825e-005
11
-4304.75382587487
21
3075.65551109118
31
2.23313982267825e-005
  0
LINE
 8
GROUP0
10
-4315.75382587487
20
3079.65551109118
30
2.23049906168171e-005
11
-4315.75382587487
21
3075.65551109118
31
2.23313982267825e-005
  0
LINE
 8
GROUP0
10
-4304.75382587487
20
3079.65551109118
30
2.23049906168171e-005
11
-4315.75382587487
21
3079.65551109118
31
2.23049906168171e-005
  0
LINE
 8
GROUP0
10
-4304.75382587487
20
3075.65551109118
30
2.23313982267825e-005
11
-4304.75382587487
21
3079.65551109118
31
2.23049906168171e-005
  0
LINE
 8
GROUP0
10
-4315.75382587487
20
3095.65551117305
30
2.37706135564508e-005
11
-4304.75382587487
21
3095.65551117305
31
2.3770613375973e-005
  0
LINE
 8
GROUP0
10
-4315.75382587487
20
3099.65551117305
30
2.37442057660076e-005
11
-4315.75382587487
21
3095.65551117305
31
2.37706135564508e-005
  0
LINE
 8
GROUP0
10
-4304.75382587487
20
3099.65551117305
30
2.37442057660076e-005
11
-4315.75382587487
21
3099.65551117305
31
2.37442057660076e-005
  0
LINE
 8
GROUP0
10
-4304.75382587487
20
3095.65551117305
30
2.3770613375973e-005
11
-4304.75382587487
21
3099.65551117305
31
2.37442057660076e-005
  0
LINE
 8
GROUP0
10
-4155.75382587487
20
3075.65551105025
30
2.3770613375973e-005
11
-4144.75382587487
21
3075.65551105025
31
2.3770613375973e-005
  0
LINE
 8
GROUP0
10
-4155.75382587487
20
3079.65551105025
30
2.37442057660076e-005
11
-4155.75382587487
21
3075.65551105025
31
2.3770613375973e-005
  0
LINE
 8
GROUP0
10
-4144.75382587487
20
3079.65551105025
30
2.37442057660076e-005
11
-4155.75382587487
21
3079.65551105025
31
2.37442057660076e-005
  0
LINE
 8
GROUP0
10
-4144.75382587487
20
3075.65551105025
30
2.3770613375973e-005
11
-4144.75382587487
21
3079.65551105025
31
2.37442057660076e-005
  0
LINE
 8
GROUP0
10
-4155.75382561001
20
3095.65551121398
30
2.37706135564508e-005
11
-4144.75382561001
21
3095.65551121398
31
2.3770613375973e-005
  0
LINE
 8
GROUP0
10
-4155.75382561001
20
3099.65551121398
30
2.37442056757686e-005
11
-4155.75382561001
21
3095.65551121398
31
2.37706135564508e-005
  0
LINE
 8
GROUP0
10
-4144.75382561001
20
3099.65551121398
30
2.37442057660076e-005
11
-4155.75382561001
21
3099.65551121398
31
2.37442056757686e-005
  0
LINE
 8
GROUP0
10
-4144.75382561001
20
3095.65551121398
30
2.3770613375973e-005
11
-4144.75382561001
21
3099.65551121398
31
2.37442057660076e-005
  0
LINE
 8
GROUP0
10
-4155.75382560994
20
3269.65551117305
30
2.37706134662119e-005
11
-4144.75382560994
21
3269.65551117305
31
2.3770613375973e-005
  0
LINE
 8
GROUP0
10
-4155.75382560994
20
3273.65551117305
30
2.37442057660076e-005
11
-4155.75382560994
21
3269.65551117305
31
2.37706134662119e-005
  0
LINE
 8
GROUP0
10
-4144.75382560994
20
3273.65551117305
30
2.37442057660076e-005
11
-4155.75382560994
21
3273.65551117305
31
2.37442057660076e-005
  0
LINE
 8
GROUP0
10
-4144.75382560994
20
3269.65551117305
30
2.3770613375973e-005
11
-4144.75382560994
21
3273.65551117305
31
2.37442057660076e-005
  0
LINE
 8
GROUP0
10
-4155.7538258748
20
3289.65551109118
30
2.3770613375973e-005
11
-4144.7538258748
21
3289.65551109118
31
2.3770613375973e-005
  0
LINE
 8
GROUP0
10
-4155.7538258748
20
3293.65551109118
30
2.37442057660076e-005
11
-4155.7538258748
21
3289.65551109118
31
2.3770613375973e-005
  0
LINE
 8
GROUP0
10
-4144.7538258748
20
3293.65551109118
30
2.37442057660076e-005
11
-4155.7538258748
21
3293.65551109118
31
2.37442057660076e-005
  0
LINE
 8
GROUP0
10
-4144.7538258748
20
3289.65551109118
30
2.3770613375973e-005
11
-4144.7538258748
21
3293.65551109118
31
2.37442057660076e-005
  0
LINE
 8
GROUP0
10
-4315.7538258748
20
3289.65551113211
30
2.23313982267825e-005
11
-4304.7538258748
21
3289.65551113211
31
2.23313982267825e-005
  0
LINE
 8
GROUP0
10
-4315.7538258748
20
3293.65551113211
30
2.23049906168171e-005
11
-4315.7538258748
21
3289.65551113211
31
2.23313982267825e-005
  0
LINE
 8
GROUP0
10
-4304.7538258748
20
3293.65551113211
30
2.23049906168171e-005
11
-4315.7538258748
21
3293.65551113211
31
2.23049906168171e-005
  0
LINE
 8
GROUP0
10
-4304.7538258748
20
3289.65551113211
30
2.23313982267825e-005
11
-4304.7538258748
21
3293.65551113211
31
2.23049906168171e-005
  0
LINE
 8
GROUP0
10
-4315.7538258748
20
3269.65551113211
30
2.37706134662119e-005
11
-4304.7538258748
21
3269.65551113211
31
2.3770613375973e-005
  0
LINE
 8
GROUP0
10
-4315.7538258748
20
3273.65551113211
30
2.37442057660076e-005
11
-4315.7538258748
21
3269.65551113211
31
2.37706134662119e-005
  0
LINE
 8
GROUP0
10
-4304.7538258748
20
3273.65551113211
30
2.37442057660076e-005
11
-4315.7538258748
21
3273.65551113211
31
2.37442057660076e-005
  0
LINE
 8
GROUP0
10
-4304.7538258748
20
3269.65551113211
30
2.3770613375973e-005
11
-4304.7538258748
21
3273.65551113211
31
2.37442057660076e-005
 0
ENDSEC
 0
EOF
