 0
SECTION
 2
ENTITIES
  0
LINE
 8
GROUP0
10
-4176.78862755183
20
3092.72754498401
30
1.64647092195602e-005
11
-4176.87381298629
21
3092.08049737128
31
1.64493081418138e-005
  0
LINE
 8
GROUP0
10
-4079.77074519894
20
3332.7959166639
30
2.43462131476357e-005
11
-4079.28838328915
21
3332.99571750891
31
2.43529280969434e-005
  0
LINE
 8
GROUP0
10
-4178.64157993976
20
3090.31273041881
30
1.64006368739089e-005
11
-4179.28862755254
21
3090.22754498471
31
1.63958776728756e-005
  0
LINE
 8
GROUP0
10
-4177.52086059936
20
3090.95977803125
30
1.64204867307782e-005
11
-4178.03862755244
21
3090.5624814749
31
1.64090305379838e-005
  0
LINE
 8
GROUP0
10
-4181.0563945053
20
3090.95977803225
30
1.64052977145113e-005
11
-4181.45369106165
21
3091.47754498532
31
1.64156219501999e-005
  0
LINE
 8
GROUP0
10
-4181.45369106165
20
3091.47754498532
30
1.64156219501999e-005
11
-4181.70344211774
21
3092.08049737264
31
1.64285595052271e-005
  0
LINE
 8
GROUP0
10
-4176.87381298629
20
3092.08049737128
30
1.64493081418138e-005
11
-4177.12356404272
21
3091.47754498411
31
1.64342247050919e-005
  0
LINE
 8
GROUP0
10
-4179.28862755254
20
3090.22754498471
30
1.63958776728756e-005
11
-4179.93567516527
21
3090.31273041917
31
1.63950773438282e-005
  0
LINE
 8
GROUP0
10
-4178.03862755244
20
3090.5624814749
30
1.64090305379838e-005
11
-4178.64157993976
21
3090.31273041881
31
1.64006368739089e-005
  0
LINE
 8
GROUP0
10
-4078.87416972677
20
3333.3135547541
30
2.43620930331312e-005
11
-4078.55633248158
21
3333.72776831647
31
2.43730834125822e-005
  0
LINE
 8
GROUP0
10
-4179.93567516527
20
3090.31273041917
30
1.63950773438282e-005
11
-4180.53862755244
21
3090.5624814756
31
1.63982903008397e-005
  0
LINE
 8
GROUP0
10
-4177.12356404272
20
3091.47754498411
30
1.64342247050919e-005
11
-4177.52086059936
21
3090.95977803125
31
1.64204867307782e-005
  0
LINE
 8
GROUP0
10
-4180.53862755244
20
3090.5624814756
30
1.63982903008397e-005
11
-4181.0563945053
21
3090.95977803225
31
1.64052977145113e-005
  0
LINE
 8
GROUP0
10
-4181.70344211774
20
3092.08049737264
30
1.64285595052271e-005
11
-4181.78862755183
21
3092.72754498542
31
1.64432286550331e-005
  0
LINE
 8
GROUP0
10
-4078.55633248158
20
3333.72776831647
30
2.43730834125822e-005
11
-4078.35653163657
21
3334.21013022627
31
2.43851501619596e-005
  0
LINE
 8
GROUP0
10
-4079.28838328915
20
3332.99571750891
30
2.43529280969434e-005
11
-4078.87416972677
21
3333.3135547541
31
2.43620930331312e-005
  0
LINE
 8
GROUP0
10
-4181.70344211737
20
3093.37459259815
30
1.64586298230185e-005
11
-4181.45369106094
21
3093.97754498532
31
1.64737132597403e-005
  0
LINE
 8
GROUP0
10
-4177.52086059837
20
3094.49531193718
30
1.6502640250321e-005
11
-4177.12356404202
21
3093.97754498411
31
1.64923160146324e-005
  0
LINE
 8
GROUP0
10
-4177.12356404202
20
3093.97754498411
30
1.64923160146324e-005
11
-4176.87381298593
21
3093.37459259679
31
1.64793784596051e-005
  0
LINE
 8
GROUP0
10
-4337.12356404272
20
3091.47754498411
30
1.70603342380227e-005
11
-4337.52086059937
21
3090.95977803125
31
1.7046596263709e-005
  0
LINE
 8
GROUP0
10
-4176.87381298593
20
3093.37459259679
30
1.64793784596051e-005
11
-4176.78862755183
21
3092.72754498401
31
1.64647092195602e-005
  0
LINE
 8
GROUP0
10
-4338.03862755244
20
3090.5624814749
30
1.70351400709146e-005
11
-4338.64157993976
21
3090.31273041881
31
1.70267464068397e-005
  0
LINE
 8
GROUP0
10
-4337.52086059937
20
3090.95977803125
30
1.7046596263709e-005
11
-4338.03862755244
21
3090.5624814749
31
1.70351400709146e-005
  0
LINE
 8
GROUP0
10
-4181.0563945043
20
3094.49531193818
30
1.6487451234054e-005
11
-4180.53862755123
21
3094.89260849453
31
1.64989073366095e-005
  0
LINE
 8
GROUP0
10
-4178.03862755122
20
3094.89260849382
30
1.65096476639925e-005
11
-4177.52086059837
21
3094.49531193718
31
1.6502640250321e-005
  0
LINE
 8
GROUP0
10
-4180.53862755123
20
3094.89260849453
30
1.64989073366095e-005
11
-4179.93567516391
21
3095.14235955062
31
1.65073010909234e-005
  0
LINE
 8
GROUP0
10
-4178.6415799384
20
3095.14235955025
30
1.65128606210041e-005
11
-4178.03862755122
21
3094.89260849382
31
1.65096476639925e-005
  0
LINE
 8
GROUP0
10
-4179.28862755113
20
3095.22754498471
30
1.65120602919566e-005
11
-4178.6415799384
21
3095.14235955025
31
1.65128606210041e-005
  0
LINE
 8
GROUP0
10
-4338.64157993976
20
3090.31273041881
30
1.70267464068397e-005
11
-4339.28862755254
21
3090.22754498471
31
1.70219872058064e-005
  0
LINE
 8
GROUP0
10
-4181.45369106094
20
3093.97754498532
30
1.64737132597403e-005
11
-4181.0563945043
21
3094.49531193818
31
1.6487451234054e-005
  0
LINE
 8
GROUP0
10
-4179.93567516391
20
3095.14235955062
30
1.65073010909234e-005
11
-4179.28862755113
21
3095.22754498471
31
1.65120602919566e-005
  0
LINE
 8
GROUP0
10
-4181.78862755183
20
3092.72754498542
30
1.64432286550331e-005
11
-4181.70344211737
21
3093.37459259815
31
1.64586298230185e-005
  0
LINE
 8
GROUP0
10
-4338.03862755123
20
3094.89260849382
30
1.71357571969233e-005
11
-4337.52086059837
21
3094.49531193718
31
1.71287497832517e-005
  0
LINE
 8
GROUP0
10
-4337.52086059837
20
3094.49531193718
30
1.71287497832517e-005
11
-4337.12356404202
21
3093.97754498411
31
1.71184254573242e-005
  0
LINE
 8
GROUP0
10
-4341.0563945043
20
3094.49531193818
30
1.71135606767459e-005
11
-4340.53862755123
21
3094.89260849453
31
1.71250168695403e-005
  0
LINE
 8
GROUP0
10
-4341.78862755183
20
3092.72754498542
30
1.70693381879639e-005
11
-4341.70344211738
21
3093.37459259815
31
1.70847393559492e-005
  0
LINE
 8
GROUP0
10
-4339.28862755254
20
3090.22754498471
30
1.70219872058064e-005
11
-4339.93567516527
21
3090.31273041917
31
1.702118678652e-005
  0
LINE
 8
GROUP0
10
-4341.70344211738
20
3093.37459259815
30
1.70847393559492e-005
11
-4341.45369106094
21
3093.97754498532
31
1.70998227926711e-005
  0
LINE
 8
GROUP0
10
-4339.28862755113
20
3095.22754498471
30
1.71381698248874e-005
11
-4338.6415799384
21
3095.14235955025
31
1.71389701539348e-005
  0
LINE
 8
GROUP0
10
-4340.53862755123
20
3094.89260849453
30
1.71250168695403e-005
11
-4339.93567516391
21
3095.14235955062
31
1.71334106238541e-005
  0
LINE
 8
GROUP0
10
-4339.93567516527
20
3090.31273041917
30
1.702118678652e-005
11
-4340.53862755244
21
3090.5624814756
31
1.70243998337705e-005
  0
LINE
 8
GROUP0
10
-4340.53862755244
20
3090.5624814756
30
1.70243998337705e-005
11
-4341.0563945053
21
3090.95977803225
31
1.7031407247442e-005
  0
LINE
 8
GROUP0
10
-4341.45369106094
20
3093.97754498532
30
1.70998227926711e-005
11
-4341.0563945043
21
3094.49531193818
31
1.71135606767459e-005
  0
LINE
 8
GROUP0
10
-4341.70344211774
20
3092.08049737264
30
1.70546690381579e-005
11
-4341.78862755183
21
3092.72754498542
31
1.70693381879639e-005
  0
LINE
 8
GROUP0
10
-4341.45369106165
20
3091.47754498532
30
1.70417314831306e-005
11
-4341.70344211774
21
3092.08049737264
31
1.70546690381579e-005
  0
LINE
 8
GROUP0
10
-4338.6415799384
20
3095.14235955025
30
1.71389701539348e-005
11
-4338.03862755123
21
3094.89260849382
31
1.71357571969233e-005
  0
LINE
 8
GROUP0
10
-4341.0563945053
20
3090.95977803225
30
1.7031407247442e-005
11
-4341.45369106165
21
3091.47754498532
31
1.70417314831306e-005
  0
LINE
 8
GROUP0
10
-4339.93567516391
20
3095.14235955062
30
1.71334106238541e-005
11
-4339.28862755113
21
3095.22754498471
31
1.71381698248874e-005
  0
LINE
 8
GROUP0
10
-4336.87381298593
20
3093.37459259679
30
1.71054879022969e-005
11
-4336.78862755183
21
3092.72754498401
31
1.7090818752491e-005
  0
LINE
 8
GROUP0
10
-4336.78862755183
20
3092.72754498401
30
1.7090818752491e-005
11
-4336.87381298629
21
3092.08049737128
31
1.70754176747445e-005
  0
LINE
 8
GROUP0
10
-4336.87381298629
20
3092.08049737128
30
1.70754176747445e-005
11
-4337.12356404272
21
3091.47754498411
31
1.70603342380227e-005
  0
LINE
 8
GROUP0
10
-4337.12356404202
20
3093.97754498411
30
1.71184254573242e-005
11
-4336.87381298593
21
3093.37459259679
31
1.71054879022969e-005
  0
LINE
 8
GROUP0
10
-4007.28838817729
20
3058.72731626424
30
1.91383070789308e-005
11
-3978.28838813395
21
3058.7273167876
31
1.8701542999805e-005
  0
LINE
 8
GROUP0
10
-3994.22023975104
20
3246.20990657278
30
2.27017903459747e-005
11
-3994.02043890602
21
3245.72754466298
31
2.26914403019529e-005
  0
LINE
 8
GROUP0
10
-4007.28838817729
20
3058.72731626424
30
1.91383070789308e-005
11
-4007.28838835996
21
3028.72731626424
31
2.11020323843181e-005
  0
LINE
 8
GROUP0
10
-4050.28838813395
20
3015.7273167879
30
2.52335618488198e-005
11
-4020.28838813395
21
3015.7273167879
31
2.4908506793947e-005
  0
LINE
 8
GROUP0
10
-4020.28838813395
20
3015.7273167879
30
2.4908506793947e-005
11
-4007.28838835996
21
3028.72731626424
31
2.11020323843181e-005
  0
LINE
 8
GROUP0
10
-4050.28838813451
20
2986.7273167879
30
2.89825317909831e-005
11
-4050.28838813395
21
3015.7273167879
31
2.52335618488198e-005
  0
LINE
 8
GROUP0
10
-3991.28838809846
20
3248.45959547055
30
2.27666608549393e-005
11
-3991.77075000825
21
3248.65939631556
31
2.27692312205485e-005
  0
LINE
 8
GROUP0
10
-3991.77075000825
20
3248.65939631556
30
2.27692312205485e-005
11
-3992.28838809846
21
3248.72754466298
31
2.27685909753583e-005
  0
LINE
 8
GROUP0
10
-3990.35653644588
20
3246.20990657278
30
2.27183892552441e-005
11
-3990.28838809846
21
3246.72754466298
31
2.27307101174412e-005
  0
LINE
 8
GROUP0
10
-3990.87417453608
20
3248.14175822536
30
2.27610549420498e-005
11
-3991.28838809846
21
3248.45959547055
31
2.27666608549393e-005
  0
LINE
 8
GROUP0
10
-3992.80602618866
20
3248.65939631556
30
2.27647836145317e-005
11
-3993.28838809846
21
3248.45959547055
31
2.2758068665224e-005
  0
LINE
 8
GROUP0
10
-3990.55633729089
20
3245.72754466298
30
2.27063225058666e-005
11
-3990.35653644588
21
3246.20990657278
31
2.27183892552441e-005
  0
LINE
 8
GROUP0
10
-3993.70260166083
20
3248.14175822536
30
2.27489037290363e-005
11
-3994.02043890602
21
3247.72754466298
31
2.27379133495853e-005
  0
LINE
 8
GROUP0
10
-3994.28838809846
20
3246.72754466298
30
2.27135257380107e-005
11
-3994.22023975104
21
3246.20990657278
31
2.27017903459747e-005
  0
LINE
 8
GROUP0
10
-3993.28838809846
20
3248.45959547055
30
2.2758068665224e-005
11
-3993.70260166083
21
3248.14175822536
31
2.27489037290363e-005
  0
LINE
 8
GROUP0
10
-3990.55633729089
20
3247.72754466298
30
2.2752795553499e-005
11
-3990.87417453608
21
3248.14175822536
31
2.27610549420498e-005
  0
LINE
 8
GROUP0
10
-3990.35653644588
20
3247.24518275319
30
2.27424455094771e-005
11
-3990.55633729089
21
3247.72754466298
31
2.2752795553499e-005
  0
LINE
 8
GROUP0
10
-3990.87417453608
20
3245.31333110061
30
2.26953321264156e-005
11
-3990.55633729089
21
3245.72754466298
31
2.27063225058666e-005
  0
LINE
 8
GROUP0
10
-3990.28838809846
20
3246.72754466298
30
2.27307101174412e-005
11
-3990.35653644588
21
3247.24518275319
31
2.27424455094771e-005
  0
LINE
 8
GROUP0
10
-3994.22023975104
20
3247.24518275319
30
2.27258466002078e-005
11
-3994.28838809846
21
3246.72754466298
31
2.27135257380107e-005
  0
LINE
 8
GROUP0
10
-3994.02043890602
20
3247.72754466298
30
2.27379133495853e-005
11
-3994.22023975104
21
3247.24518275319
31
2.27258466002078e-005
  0
LINE
 8
GROUP0
10
-3992.28838809846
20
3248.72754466298
30
2.27685909753583e-005
11
-3992.80602618866
21
3248.65939631556
31
2.27647836145317e-005
  0
LINE
 8
GROUP0
10
-3992.80602618866
20
3244.79569301041
30
2.26750045446644e-005
11
-3992.28838809846
21
3244.72754466298
31
2.26756448800935e-005
  0
LINE
 8
GROUP0
10
-3993.28838809846
20
3090.45936708902
30
1.61883366222193e-005
11
-3993.70260166083
21
3090.14152984382
31
1.61791716860316e-005
  0
LINE
 8
GROUP0
10
-3992.80602618866
20
3090.65916793402
30
1.6195051571527e-005
11
-3993.28838809846
21
3090.45936708902
31
1.61883366222193e-005
  0
LINE
 8
GROUP0
10
-3994.02043890602
20
3245.72754466298
30
2.26914403019529e-005
11
-3993.70260166083
21
3245.31333110061
31
2.2683180913402e-005
  0
LINE
 8
GROUP0
10
-3994.02043890602
20
3089.72731628145
30
1.61681813065806e-005
11
-3994.22023975103
21
3089.24495437165
31
1.61561145572031e-005
  0
LINE
 8
GROUP0
10
-3991.77075000825
20
3090.65916793402
30
1.61994992677827e-005
11
-3992.28838809846
21
3090.72731628145
31
1.61988589323536e-005
  0
LINE
 8
GROUP0
10
-3993.70260166083
20
3090.14152984382
30
1.61791716860316e-005
11
-3994.02043890602
21
3089.72731628145
31
1.61681813065806e-005
  0
LINE
 8
GROUP0
10
-3991.28838809846
20
3090.45936708902
30
1.61969288119346e-005
11
-3991.77075000825
21
3090.65916793402
31
1.61994992677827e-005
  0
LINE
 8
GROUP0
10
-3990.87417453608
20
3090.14152984382
30
1.61913228990451e-005
11
-3991.28838809846
21
3090.45936708902
31
1.61969288119346e-005
  0
LINE
 8
GROUP0
10
-3994.22023975103
20
3089.24495437165
30
1.61561145572031e-005
11
-3994.28838809846
21
3088.72731628145
31
1.6143793695006e-005
  0
LINE
 8
GROUP0
10
-3992.28838809846
20
3090.72731628145
30
1.61988589323536e-005
11
-3992.80602618866
21
3090.65916793402
31
1.6195051571527e-005
  0
LINE
 8
GROUP0
10
-3992.28838809846
20
3244.72754466298
30
2.26756448800935e-005
11
-3991.77075000825
21
3244.79569301041
31
2.26794522409202e-005
  0
LINE
 8
GROUP0
10
-3991.77075000825
20
3244.79569301041
30
2.26794522409202e-005
11
-3991.28838809846
21
3244.99549385541
31
2.26861671902279e-005
  0
LINE
 8
GROUP0
10
-3993.28838809846
20
3244.99549385541
30
2.26775750005126e-005
11
-3992.80602618866
21
3244.79569301041
31
2.26750045446644e-005
  0
LINE
 8
GROUP0
10
-3991.28838809846
20
3244.99549385541
30
2.26861671902279e-005
11
-3990.87417453608
21
3245.31333110061
31
2.26953321264156e-005
  0
LINE
 8
GROUP0
10
-3993.70260166083
20
3245.31333110061
30
2.2683180913402e-005
11
-3993.28838809846
21
3244.99549385541
31
2.26775750005126e-005
  0
LINE
 8
GROUP0
10
-3991.77075000825
20
3086.79546462887
30
1.61097201979155e-005
11
-3991.28838809846
21
3086.99526547388
31
1.61164351472232e-005
  0
LINE
 8
GROUP0
10
-3990.35653644588
20
3088.20967819124
30
1.61486572122393e-005
11
-3990.28838809846
21
3088.72731628145
31
1.61609781646754e-005
  0
LINE
 8
GROUP0
10
-3990.55633729089
20
3087.72731628145
30
1.61365904628619e-005
11
-3990.35653644588
21
3088.20967819124
31
1.61486572122393e-005
  0
LINE
 8
GROUP0
10
-3990.87417453608
20
3087.31310271907
30
1.61256000834109e-005
11
-3990.55633729089
21
3087.72731628145
31
1.61365904628619e-005
  0
LINE
 8
GROUP0
10
-3991.28838809846
20
3086.99526547388
30
1.61164351472232e-005
11
-3990.87417453608
21
3087.31310271907
31
1.61256000834109e-005
  0
LINE
 8
GROUP0
10
-3993.70260166083
20
3087.31310271907
30
1.61134488703973e-005
11
-3993.28838809846
21
3086.99526547388
31
1.61078429575079e-005
  0
LINE
 8
GROUP0
10
-3994.02043890602
20
3087.72731628145
30
1.61217082589482e-005
11
-3993.70260166083
21
3087.31310271907
31
1.61134488703973e-005
  0
LINE
 8
GROUP0
10
-3994.28838809846
20
3088.72731628145
30
1.6143793695006e-005
11
-3994.22023975103
21
3088.20967819124
31
1.613205830297e-005
  0
LINE
 8
GROUP0
10
-3990.55633729089
20
3089.72731628145
30
1.61830635104943e-005
11
-3990.87417453608
21
3090.14152984382
31
1.61913228990451e-005
  0
LINE
 8
GROUP0
10
-3990.35653644588
20
3089.24495437165
30
1.61727134664724e-005
11
-3990.55633729089
21
3089.72731628145
31
1.61830635104943e-005
  0
LINE
 8
GROUP0
10
-3993.28838809846
20
3086.99526547388
30
1.61078429575079e-005
11
-3992.80602618866
21
3086.79546462887
31
1.61052725918986e-005
  0
LINE
 8
GROUP0
10
-3992.80602618866
20
3086.79546462887
30
1.61052725918986e-005
11
-3992.28838809846
21
3086.72731628145
31
1.61059128370888e-005
  0
LINE
 8
GROUP0
10
-3994.22023975103
20
3088.20967819124
30
1.613205830297e-005
11
-3994.02043890602
21
3087.72731628145
31
1.61217082589482e-005
  0
LINE
 8
GROUP0
10
-4079.28861175195
20
3002.45937189832
30
1.37740565638589e-005
11
-4079.77097366174
21
3002.65917274333
31
1.37766270197071e-005
  0
LINE
 8
GROUP0
10
-3992.28838809846
20
3086.72731628145
30
1.61059128370888e-005
11
-3991.77075000825
21
3086.79546462887
31
1.61097201979155e-005
  0
LINE
 8
GROUP0
10
-3990.28838809846
20
3088.72731628145
30
1.61609781646754e-005
11
-3990.35653644588
21
3089.24495437165
31
1.61727134664724e-005
  0
LINE
 8
GROUP0
10
-4078.35676009937
20
3000.20968300055
30
1.37257849641637e-005
11
-4078.28861175195
21
3000.72732109076
31
1.37381058263608e-005
  0
LINE
 8
GROUP0
10
-4079.77097366174
20
2998.79546943818
30
1.36868479498398e-005
11
-4079.28861175195
21
2998.99527028319
31
1.36935628991475e-005
  0
LINE
 8
GROUP0
10
-4078.87439818957
20
2999.31310752838
30
1.37027278353352e-005
11
-4078.55656094438
21
2999.72732109076
31
1.37137182147862e-005
  0
LINE
 8
GROUP0
10
-4078.28861175195
20
3000.72732109076
30
1.37381058263608e-005
11
-4078.35676009937
21
3001.24495918096
31
1.37498412183967e-005
  0
LINE
 8
GROUP0
10
-4078.35676009937
20
3001.24495918096
30
1.37498412183967e-005
11
-4078.55656094438
21
3001.72732109076
31
1.37601912624186e-005
  0
LINE
 8
GROUP0
10
-4081.28861175195
20
2998.99527028319
30
1.36849707094322e-005
11
-4080.80624984215
21
2998.79546943818
31
1.3682400343823e-005
  0
LINE
 8
GROUP0
10
-4080.80624984215
20
2998.79546943818
30
1.3682400343823e-005
11
-4080.28861175195
21
2998.72732109076
31
1.36830405890132e-005
  0
LINE
 8
GROUP0
10
-4082.28861175195
20
3000.72732109076
30
1.37209214469303e-005
11
-4082.22046340452
21
3000.20968300055
31
1.37091860548944e-005
  0
LINE
 8
GROUP0
10
-4078.87439818957
20
3002.14153465313
30
1.37684506509694e-005
11
-4079.28861175195
21
3002.45937189832
31
1.37740565638589e-005
  0
LINE
 8
GROUP0
10
-4081.70282531432
20
2999.31310752838
30
1.36905766223216e-005
11
-4081.28861175195
21
2998.99527028319
31
1.36849707094322e-005
  0
LINE
 8
GROUP0
10
-4078.55656094438
20
3001.72732109076
30
1.37601912624186e-005
11
-4078.87439818957
21
3002.14153465313
31
1.37684506509694e-005
  0
LINE
 8
GROUP0
10
-4079.28861175195
20
2998.99527028319
30
1.36935628991475e-005
11
-4078.87439818957
21
2999.31310752838
31
1.37027278353352e-005
  0
LINE
 8
GROUP0
10
-4082.22046340452
20
3000.20968300055
30
1.37091860548944e-005
11
-4082.02066255952
21
2999.72732109076
31
1.36988360108725e-005
  0
LINE
 8
GROUP0
10
-4080.28861175195
20
2998.72732109076
30
1.36830405890132e-005
11
-4079.77097366174
21
2998.79546943818
31
1.36868479498398e-005
  0
LINE
 8
GROUP0
10
-4078.55656094438
20
2999.72732109076
30
1.37137182147862e-005
11
-4078.35676009937
21
3000.20968300055
31
1.37257849641637e-005
  0
LINE
 8
GROUP0
10
-4082.02066255952
20
2999.72732109076
30
1.36988360108725e-005
11
-4081.70282531432
21
2999.31310752838
31
1.36905766223216e-005
  0
LINE
 8
GROUP0
10
-4257.35676009937
20
3000.20968300055
30
1.31715865617943e-005
11
-4257.28861175195
21
3000.72732109076
31
1.31839074239914e-005
  0
LINE
 8
GROUP0
10
-4258.28861175195
20
3002.45937189832
30
1.32198580712506e-005
11
-4258.77097366174
21
3002.65917274333
31
1.32224285270988e-005
  0
LINE
 8
GROUP0
10
-4081.28861175195
20
3002.45937189832
30
1.37654643741436e-005
11
-4081.70282531432
21
3002.14153465313
31
1.37562994379559e-005
  0
LINE
 8
GROUP0
10
-4082.02066255952
20
3001.72732109076
30
1.37453090585049e-005
11
-4082.22046340452
21
3001.24495918096
31
1.37332423091274e-005
  0
LINE
 8
GROUP0
10
-4079.77097366174
20
3002.65917274333
30
1.37766270197071e-005
11
-4080.28861175195
21
3002.72732109076
31
1.37759866842779e-005
  0
LINE
 8
GROUP0
10
-4081.70282531432
20
3002.14153465313
30
1.37562994379559e-005
11
-4082.02066255952
21
3001.72732109076
31
1.37453090585049e-005
  0
LINE
 8
GROUP0
10
-4257.55656094438
20
3001.72732109076
30
1.32059927698103e-005
11
-4257.87439818957
21
3002.14153465313
31
1.32142521583611e-005
  0
LINE
 8
GROUP0
10
-4080.28861175195
20
3002.72732109076
30
1.37759866842779e-005
11
-4080.80624984215
21
3002.65917274333
31
1.37721793234513e-005
  0
LINE
 8
GROUP0
10
-4080.80624984215
20
3002.65917274333
30
1.37721793234513e-005
11
-4081.28861175195
21
3002.45937189832
31
1.37654643741436e-005
  0
LINE
 8
GROUP0
10
-4258.77097366174
20
3002.65917274333
30
1.32224285270988e-005
11
-4259.28861175195
21
3002.72732109076
31
1.32217881916696e-005
  0
LINE
 8
GROUP0
10
-4257.35676009937
20
3001.24495918096
30
1.31956427257884e-005
11
-4257.55656094438
21
3001.72732109076
31
1.32059927698103e-005
  0
LINE
 8
GROUP0
10
-4082.22046340452
20
3001.24495918096
30
1.37332423091274e-005
11
-4082.28861175195
21
3000.72732109076
31
1.37209214469303e-005
  0
LINE
 8
GROUP0
10
-4259.80624984215
20
3002.65917274333
30
1.3217980830843e-005
11
-4260.28861175195
21
3002.45937189832
31
1.32112658815353e-005
  0
LINE
 8
GROUP0
10
-4259.28861175195
20
3002.72732109076
30
1.32217881916696e-005
11
-4259.80624984215
21
3002.65917274333
31
1.3217980830843e-005
  0
LINE
 8
GROUP0
10
-4257.28861175195
20
3000.72732109076
30
1.31839074239914e-005
11
-4257.35676009937
21
3001.24495918096
31
1.31956427257884e-005
  0
LINE
 8
GROUP0
10
-4257.87439818957
20
3002.14153465313
30
1.32142521583611e-005
11
-4258.28861175195
21
3002.45937189832
31
1.32198580712506e-005
  0
LINE
 8
GROUP0
10
-4258.77097366174
20
2998.79546943818
30
1.31326494572315e-005
11
-4258.28861175195
21
2998.99527028319
31
1.31393644967781e-005
  0
LINE
 8
GROUP0
10
-4261.22046340452
20
3001.24495918096
30
1.31790438165191e-005
11
-4261.28861175195
21
3000.72732109076
31
1.3166722954322e-005
  0
LINE
 8
GROUP0
10
-4260.70282531432
20
3002.14153465313
30
1.32021009453476e-005
11
-4261.02066255951
21
3001.72732109076
31
1.31911105658966e-005
  0
LINE
 8
GROUP0
10
-4261.02066255951
20
2999.72732109076
30
1.31446376085032e-005
11
-4260.70282531432
21
2999.31310752838
31
1.31363781297134e-005
  0
LINE
 8
GROUP0
10
-4260.28861175195
20
3002.45937189832
30
1.32112658815353e-005
11
-4260.70282531432
21
3002.14153465313
31
1.32021009453476e-005
  0
LINE
 8
GROUP0
10
-4436.3569884809
20
3001.24495918096
30
1.37388558923257e-005
11
-4436.55678932591
21
3001.72732109076
31
1.37492059363475e-005
  0
LINE
 8
GROUP0
10
-4259.80624984215
20
2998.79546943818
30
1.31282018512147e-005
11
-4259.28861175195
21
2998.72732109076
31
1.31288420964049e-005
  0
LINE
 8
GROUP0
10
-4257.87439818957
20
2999.31310752838
30
1.31485294329658e-005
11
-4257.55656094438
21
2999.72732109076
31
1.31595197221779e-005
  0
LINE
 8
GROUP0
10
-4259.28861175195
20
2998.72732109076
30
1.31288420964049e-005
11
-4258.77097366174
21
2998.79546943818
31
1.31326494572315e-005
  0
LINE
 8
GROUP0
10
-4261.28861175195
20
3000.72732109076
30
1.3166722954322e-005
11
-4261.22046340452
21
3000.20968300055
31
1.3154987652525e-005
  0
LINE
 8
GROUP0
10
-4261.22046340452
20
3000.20968300055
30
1.3154987652525e-005
11
-4261.02066255951
21
2999.72732109076
31
1.31446376085032e-005
  0
LINE
 8
GROUP0
10
-4258.28861175195
20
2998.99527028319
30
1.31393644967781e-005
11
-4257.87439818957
21
2999.31310752838
31
1.31485294329658e-005
  0
LINE
 8
GROUP0
10
-4257.55656094438
20
2999.72732109076
30
1.31595197221779e-005
11
-4257.35676009937
21
3000.20968300055
31
1.31715865617943e-005
  0
LINE
 8
GROUP0
10
-4260.70282531432
20
2999.31310752838
30
1.31363781297134e-005
11
-4260.28861175195
21
2998.99527028319
31
1.31307722168239e-005
  0
LINE
 8
GROUP0
10
-4261.02066255951
20
3001.72732109076
30
1.31911105658966e-005
11
-4261.22046340452
21
3001.24495918096
31
1.31790438165191e-005
  0
LINE
 8
GROUP0
10
-4260.28861175195
20
2998.99527028319
30
1.31307722168239e-005
11
-4259.80624984215
21
2998.79546943818
31
1.31282018512147e-005
  0
LINE
 8
GROUP0
10
-4437.28884013348
20
2998.99527028319
30
1.36825775730764e-005
11
-4436.87462657111
21
2999.31310752838
31
1.36917425092642e-005
  0
LINE
 8
GROUP0
10
-4438.28884013348
20
2998.72732109076
30
1.36720552629421e-005
11
-4437.77120204328
21
2998.79546943818
31
1.36758626237687e-005
  0
LINE
 8
GROUP0
10
-4440.22069178606
20
3000.20968300055
30
1.36982007288233e-005
11
-4440.02089094105
21
2999.72732109076
31
1.36878506848015e-005
  0
LINE
 8
GROUP0
10
-4440.22069178606
20
3001.24495918096
30
1.37222569830564e-005
11
-4440.28884013348
21
3000.72732109076
31
1.37099360306203e-005
  0
LINE
 8
GROUP0
10
-4438.80647822369
20
2998.79546943818
30
1.3671414927513e-005
11
-4438.28884013348
21
2998.72732109076
31
1.36720552629421e-005
  0
LINE
 8
GROUP0
10
-4440.02089094105
20
3001.72732109076
30
1.37343237324339e-005
11
-4440.22069178606
21
3001.24495918096
31
1.37222569830564e-005
  0
LINE
 8
GROUP0
10
-4439.70305369586
20
3002.14153465313
30
1.37453141118848e-005
11
-4440.02089094105
21
3001.72732109076
31
1.37343237324339e-005
  0
LINE
 8
GROUP0
10
-4437.77120204328
20
2998.79546943818
30
1.36758626237687e-005
11
-4437.28884013348
21
2998.99527028319
31
1.36825775730764e-005
  0
LINE
 8
GROUP0
10
-4436.3569884809
20
3000.20968300055
30
1.37147996380926e-005
11
-4436.28884013348
21
3000.72732109076
31
1.37271205002898e-005
  0
LINE
 8
GROUP0
10
-4439.28884013348
20
2998.99527028319
30
1.36739853833612e-005
11
-4438.80647822369
21
2998.79546943818
31
1.3671414927513e-005
  0
LINE
 8
GROUP0
10
-4439.70305369586
20
2999.31310752838
30
1.36795912962506e-005
11
-4439.28884013348
21
2998.99527028319
31
1.36739853833612e-005
  0
LINE
 8
GROUP0
10
-4440.02089094105
20
2999.72732109076
30
1.36878506848015e-005
11
-4439.70305369586
21
2999.31310752838
31
1.36795912962506e-005
  0
LINE
 8
GROUP0
10
-4440.28884013348
20
3000.72732109076
30
1.37099360306203e-005
11
-4440.22069178606
21
3000.20968300055
31
1.36982007288233e-005
  0
LINE
 8
GROUP0
10
-4436.28884013348
20
3000.72732109076
30
1.37271205002898e-005
11
-4436.3569884809
21
3001.24495918096
31
1.37388558923257e-005
  0
LINE
 8
GROUP0
10
-4436.55678932591
20
2999.72732109076
30
1.37027328887152e-005
11
-4436.3569884809
21
3000.20968300055
31
1.37147996380926e-005
  0
LINE
 8
GROUP0
10
-4436.87462657111
20
2999.31310752838
30
1.36917425092642e-005
11
-4436.55678932591
21
2999.72732109076
31
1.37027328887152e-005
  0
LINE
 8
GROUP0
10
-4524.8746217618
20
3090.14175830662
30
1.5424226231614e-005
11
-4525.28883532417
21
3090.45959555182
31
1.54298321445034e-005
  0
LINE
 8
GROUP0
10
-4528.02088613174
20
3089.72754474425
30
1.54010846391495e-005
11
-4528.22068697675
21
3089.24518283445
31
1.53890177995331e-005
  0
LINE
 8
GROUP0
10
-4524.5567845166
20
3089.72754474425
30
1.54159667528242e-005
11
-4524.8746217618
21
3090.14175830662
31
1.5424226231614e-005
  0
LINE
 8
GROUP0
10
-4437.77120204328
20
3002.65917274333
30
1.37656416033971e-005
11
-4438.28884013348
21
3002.72732109076
31
1.37650013582069e-005
  0
LINE
 8
GROUP0
10
-4438.80647822369
20
3002.65917274333
30
1.37611939973803e-005
11
-4439.28884013348
21
3002.45937189832
31
1.37544790480726e-005
  0
LINE
 8
GROUP0
10
-4436.87462657111
20
3002.14153465313
30
1.37574653248984e-005
11
-4437.28884013348
21
3002.45937189832
31
1.37630712377879e-005
  0
LINE
 8
GROUP0
10
-4436.55678932591
20
3001.72732109076
30
1.37492059363475e-005
11
-4436.87462657111
21
3002.14153465313
31
1.37574653248984e-005
  0
LINE
 8
GROUP0
10
-4527.70304888655
20
3090.14175830662
30
1.54120749283615e-005
11
-4528.02088613174
21
3089.72754474425
31
1.54010846391495e-005
  0
LINE
 8
GROUP0
10
-4439.28884013348
20
3002.45937189832
30
1.37544790480726e-005
11
-4439.70305369586
21
3002.14153465313
31
1.37453141118848e-005
  0
LINE
 8
GROUP0
10
-4437.28884013348
20
3002.45937189832
30
1.37630712377879e-005
11
-4437.77120204328
21
3002.65917274333
31
1.37656416033971e-005
  0
LINE
 8
GROUP0
10
-4527.28883532417
20
3090.45959555182
30
1.54212398645492e-005
11
-4527.70304888655
21
3090.14175830662
31
1.54120749283615e-005
  0
LINE
 8
GROUP0
10
-4526.80647341438
20
3090.65939639683
30
1.54279548138569e-005
11
-4527.28883532417
21
3090.45959555182
31
1.54212398645492e-005
  0
LINE
 8
GROUP0
10
-4438.28884013348
20
3002.72732109076
30
1.37650013582069e-005
11
-4438.80647822369
21
3002.65917274333
31
1.37611939973803e-005
  0
LINE
 8
GROUP0
10
-4526.28883532417
20
3090.72754474425
30
1.54317621746836e-005
11
-4526.80647341438
21
3090.65939639683
31
1.54279548138569e-005
  0
LINE
 8
GROUP0
10
-4525.77119723397
20
3090.65939639683
30
1.54324025101127e-005
11
-4526.28883532417
21
3090.72754474425
31
1.54317621746836e-005
  0
LINE
 8
GROUP0
10
-4525.28883532417
20
3090.45959555182
30
1.54298321445034e-005
11
-4525.77119723397
21
3090.65939639683
31
1.54324025101127e-005
  0
LINE
 8
GROUP0
10
-4524.3569836716
20
3089.24518283445
30
1.54056167088024e-005
11
-4524.5567845166
21
3089.72754474425
31
1.54159667528242e-005
  0
LINE
 8
GROUP0
10
-4528.02088613174
20
3087.72754474425
30
1.53546115915171e-005
11
-4527.70304888655
21
3087.31333118187
31
1.53463522029662e-005
  0
LINE
 8
GROUP0
10
-4524.55678451661
20
3245.72777312578
30
2.19392257481965e-005
11
-4524.3569836716
21
3246.21013503558
31
2.19512925878129e-005
  0
LINE
 8
GROUP0
10
-4526.80647341438
20
3086.79569309167
30
1.53381758342286e-005
11
-4526.28883532417
21
3086.72754474425
31
1.53388161696577e-005
  0
LINE
 8
GROUP0
10
-4524.5567845166
20
3087.72754474425
30
1.53694937954307e-005
11
-4524.3569836716
21
3088.20990665404
31
1.53815605448082e-005
  0
LINE
 8
GROUP0
10
-4527.28883532417
20
3086.99549393668
30
1.53407461998378e-005
11
-4526.80647341438
21
3086.79569309167
31
1.53381758342286e-005
  0
LINE
 8
GROUP0
10
-4528.22068697675
20
3089.24518283445
30
1.53890177995331e-005
11
-4528.28883532417
21
3088.72754474425
31
1.53766969373359e-005
  0
LINE
 8
GROUP0
10
-4524.28883532417
20
3088.72754474425
30
1.53938814070054e-005
11
-4524.3569836716
21
3089.24518283445
31
1.54056167088024e-005
  0
LINE
 8
GROUP0
10
-4526.28883532417
20
3086.72754474425
30
1.53388161696577e-005
11
-4525.77119723397
21
3086.79569309167
31
1.53426235304843e-005
  0
LINE
 8
GROUP0
10
-4528.22068697675
20
3088.20990665404
30
1.53649616355389e-005
11
-4528.02088613174
21
3087.72754474425
31
1.53546115915171e-005
  0
LINE
 8
GROUP0
10
-4528.28883532417
20
3088.72754474425
30
1.53766969373359e-005
11
-4528.22068697675
21
3088.20990665404
31
1.53649616355389e-005
  0
LINE
 8
GROUP0
10
-4525.77119723397
20
3086.79569309167
30
1.53426235304843e-005
11
-4525.28883532417
21
3086.99549393668
31
1.5349338479792e-005
  0
LINE
 8
GROUP0
10
-4524.3569836716
20
3088.20990665404
30
1.53815605448082e-005
11
-4524.28883532417
21
3088.72754474425
31
1.53938814070054e-005
  0
LINE
 8
GROUP0
10
-4524.8746217618
20
3087.31333118187
30
1.53585034159798e-005
11
-4524.5567845166
21
3087.72754474425
31
1.53694937954307e-005
  0
LINE
 8
GROUP0
10
-4525.28883532417
20
3086.99549393668
30
1.5349338479792e-005
11
-4524.8746217618
21
3087.31333118187
31
1.53585034159798e-005
  0
LINE
 8
GROUP0
10
-4527.70304888655
20
3087.31333118187
30
1.53463522029662e-005
11
-4527.28883532417
21
3086.99549393668
31
1.53407461998378e-005
  0
LINE
 8
GROUP0
10
-4528.22068697675
20
3246.21013503558
30
2.19346936785436e-005
11
-4528.02088613174
21
3245.72777312578
31
2.19243436345218e-005
  0
LINE
 8
GROUP0
10
-4528.22068697675
20
3247.24541121599
30
2.19587498425378e-005
11
-4528.28883532417
21
3246.72777312578
31
2.19464289803406e-005
  0
LINE
 8
GROUP0
10
-4526.80647341438
20
3244.79592147321
30
2.19079078772333e-005
11
-4526.28883532417
21
3244.72777312578
31
2.19085482126624e-005
  0
LINE
 8
GROUP0
10
-4527.28883532417
20
3244.99572231822
30
2.19104782428425e-005
11
-4526.80647341438
21
3244.79592147321
31
2.19079078772333e-005
  0
LINE
 8
GROUP0
10
-4525.77119723397
20
3244.79592147321
30
2.1912355573489e-005
11
-4525.28883532417
21
3244.99572231822
31
2.19190705227967e-005
  0
LINE
 8
GROUP0
10
-4527.70304888655
20
3245.31355956341
30
2.1916084155732e-005
11
-4527.28883532417
21
3244.99572231822
31
2.19104782428425e-005
  0
LINE
 8
GROUP0
10
-4526.28883532417
20
3244.72777312578
30
2.19085482126624e-005
11
-4525.77119723397
21
3244.79592147321
31
2.1912355573489e-005
  0
LINE
 8
GROUP0
10
-4528.02088613174
20
3247.72777312578
30
2.19708166821542e-005
11
-4528.22068697675
21
3247.24541121599
31
2.19587498425378e-005
  0
LINE
 8
GROUP0
10
-4527.28883532417
20
3248.45982393335
30
2.19909719075539e-005
11
-4527.70304888655
21
3248.14198668816
31
2.19818069713662e-005
  0
LINE
 8
GROUP0
10
-4526.80647341438
20
3248.65962477836
30
2.19976868568617e-005
11
-4527.28883532417
21
3248.45982393335
31
2.19909719075539e-005
  0
LINE
 8
GROUP0
10
-4525.28883532417
20
3244.99572231822
30
2.19190705227967e-005
11
-4524.8746217618
21
3245.31355956341
31
2.19282354589845e-005
  0
LINE
 8
GROUP0
10
-4527.70304888655
20
3248.14198668816
30
2.19818069713662e-005
11
-4528.02088613174
21
3247.72777312578
31
2.19708166821542e-005
  0
LINE
 8
GROUP0
10
-4524.8746217618
20
3245.31355956341
30
2.19282354589845e-005
11
-4524.55678451661
21
3245.72777312578
31
2.19392257481965e-005
  0
LINE
 8
GROUP0
10
-4528.28883532417
20
3246.72777312578
30
2.19464289803406e-005
11
-4528.22068697675
21
3246.21013503558
31
2.19346936785436e-005
  0
LINE
 8
GROUP0
10
-4528.02088613174
20
3245.72777312578
30
2.19243436345218e-005
11
-4527.70304888655
21
3245.31355956341
31
2.1916084155732e-005
  0
LINE
 8
GROUP0
10
-4437.28861167068
20
3332.99571750891
30
2.43419427708724e-005
11
-4436.87439810831
21
3333.3135547541
31
2.43511077070602e-005
  0
LINE
 8
GROUP0
10
-4524.55678451661
20
3247.72777312578
30
2.19856987958289e-005
11
-4524.8746217618
21
3248.14198668816
31
2.19939581843798e-005
  0
LINE
 8
GROUP0
10
-4437.77097358048
20
3332.7959166639
30
2.43352278215647e-005
11
-4437.28861167068
21
3332.99571750891
31
2.43419427708724e-005
  0
LINE
 8
GROUP0
10
-4524.28883532417
20
3246.72777312578
30
2.19636134500101e-005
11
-4524.3569836716
21
3247.24541121599
31
2.19753487518071e-005
  0
LINE
 8
GROUP0
10
-4438.28861167068
20
3332.72776831647
30
2.43314204607381e-005
11
-4437.77097358048
21
3332.7959166639
31
2.43352278215647e-005
  0
LINE
 8
GROUP0
10
-4438.80624976089
20
3332.7959166639
30
2.4330780125309e-005
11
-4438.28861167068
21
3332.72776831647
31
2.43314204607381e-005
  0
LINE
 8
GROUP0
10
-4526.28883532417
20
3248.72777312578
30
2.20014942176883e-005
11
-4526.80647341438
21
3248.65962477836
31
2.19976868568617e-005
  0
LINE
 8
GROUP0
10
-4525.28883532417
20
3248.45982393335
30
2.19995641875081e-005
11
-4525.77119723397
21
3248.65962477836
31
2.20021345531174e-005
  0
LINE
 8
GROUP0
10
-4524.3569836716
20
3247.24541121599
30
2.19753487518071e-005
11
-4524.55678451661
21
3247.72777312578
31
2.19856987958289e-005
  0
LINE
 8
GROUP0
10
-4524.3569836716
20
3246.21013503558
30
2.19512925878129e-005
11
-4524.28883532417
21
3246.72777312578
31
2.19636134500101e-005
  0
LINE
 8
GROUP0
10
-4439.70282523306
20
3333.3135547541
30
2.43389564038077e-005
11
-4439.28861167068
21
3332.99571750891
31
2.43333504909182e-005
  0
LINE
 8
GROUP0
10
-4440.02066247825
20
3333.72776831648
30
2.43472158825975e-005
11
-4439.70282523306
21
3333.3135547541
31
2.43389564038077e-005
  0
LINE
 8
GROUP0
10
-4439.28861167068
20
3332.99571750891
30
2.43333504909182e-005
11
-4438.80624976089
21
3332.7959166639
31
2.4330780125309e-005
  0
LINE
 8
GROUP0
10
-4440.22046332326
20
3334.21013022627
30
2.43575659266193e-005
11
-4440.02066247825
21
3333.72776831648
31
2.43472158825975e-005
  0
LINE
 8
GROUP0
10
-4525.77119723397
20
3248.65962477836
30
2.20021345531174e-005
11
-4526.28883532417
21
3248.72777312578
31
2.20014942176883e-005
  0
LINE
 8
GROUP0
10
-4524.8746217618
20
3248.14198668816
30
2.19939581843798e-005
11
-4525.28883532417
21
3248.45982393335
31
2.19995641875081e-005
  0
LINE
 8
GROUP0
10
-4437.77097358048
20
3336.65961996905
30
2.44250068011931e-005
11
-4438.28861167068
21
3336.72776831647
31
2.4424366465764e-005
  0
LINE
 8
GROUP0
10
-4437.28861167068
20
3336.45981912404
30
2.44224364355838e-005
11
-4437.77097358048
21
3336.65961996905
31
2.44250068011931e-005
  0
LINE
 8
GROUP0
10
-4438.28861167068
20
3336.72776831647
30
2.4424366465764e-005
11
-4438.80624976089
21
3336.65961996905
31
2.44205591049373e-005
  0
LINE
 8
GROUP0
10
-4436.55656086311
20
3335.72776831647
30
2.44085710439046e-005
11
-4436.87439810831
21
3336.14198187885
31
2.44168305226944e-005
  0
LINE
 8
GROUP0
10
-4436.3567600181
20
3335.24540640668
30
2.43982209998828e-005
11
-4436.55656086311
21
3335.72776831647
31
2.44085710439046e-005
  0
LINE
 8
GROUP0
10
-4440.28861167068
20
3334.72776831647
30
2.43693012284163e-005
11
-4440.22046332326
21
3334.21013022627
31
2.43575659266193e-005
  0
LINE
 8
GROUP0
10
-4436.28861167068
20
3334.72776831647
30
2.43864856980858e-005
11
-4436.3567600181
21
3335.24540640668
31
2.43982209998828e-005
  0
LINE
 8
GROUP0
10
-4439.28861167068
20
3336.45981912404
30
2.44138441556296e-005
11
-4439.70282523306
21
3336.14198187885
31
2.44046792194419e-005
  0
LINE
 8
GROUP0
10
-4436.87439810831
20
3336.14198187885
30
2.44168305226944e-005
11
-4437.28861167068
21
3336.45981912404
31
2.44224364355838e-005
  0
LINE
 8
GROUP0
10
-4440.02066247825
20
3335.72776831647
30
2.43936889302299e-005
11
-4440.22046332326
21
3335.24540640668
31
2.43816220906135e-005
  0
LINE
 8
GROUP0
10
-4438.80624976089
20
3336.65961996905
30
2.44205591049373e-005
11
-4439.28861167068
21
3336.45981912404
31
2.44138441556296e-005
  0
LINE
 8
GROUP0
10
-4436.3567600181
20
3334.21013022627
30
2.43741648358886e-005
11
-4436.28861167068
21
3334.72776831647
31
2.43864856980858e-005
  0
LINE
 8
GROUP0
10
-4436.55656086311
20
3333.72776831648
30
2.43620979962722e-005
11
-4436.3567600181
21
3334.21013022627
31
2.43741648358886e-005
  0
LINE
 8
GROUP0
10
-4439.70282523306
20
3336.14198187885
30
2.44046792194419e-005
11
-4440.02066247825
21
3335.72776831647
31
2.43936889302299e-005
  0
LINE
 8
GROUP0
10
-4436.87439810831
20
3333.3135547541
30
2.43511077070602e-005
11
-4436.55656086311
21
3333.72776831648
31
2.43620979962722e-005
  0
LINE
 8
GROUP0
10
-4440.22046332326
20
3335.24540640668
30
2.43816220906135e-005
11
-4440.28861167068
21
3334.72776831647
31
2.43693012284163e-005
  0
LINE
 8
GROUP0
10
-4258.77097358048
20
3336.65961996905
30
2.38817927322665e-005
11
-4259.28861167068
21
3336.72776831647
31
2.38811523968374e-005
  0
LINE
 8
GROUP0
10
-4257.3567600181
20
3335.24540640668
30
2.38550069309562e-005
11
-4257.55656086311
21
3335.72776831647
31
2.3865356974978e-005
  0
LINE
 8
GROUP0
10
-4257.3567600181
20
3334.21013022627
30
2.38309506767231e-005
11
-4257.28861167068
21
3334.72776831647
31
2.38432716291592e-005
  0
LINE
 8
GROUP0
10
-4259.80624976089
20
3336.65961996905
30
2.38773450360108e-005
11
-4260.28861167068
21
3336.45981912404
31
2.38706300867031e-005
  0
LINE
 8
GROUP0
10
-4258.77097358048
20
3332.7959166639
30
2.37920136623992e-005
11
-4258.28861167068
21
3332.99571750891
31
2.3798728611707e-005
  0
LINE
 8
GROUP0
10
-4257.87439810831
20
3333.3135547541
30
2.38078935478947e-005
11
-4257.55656086311
21
3333.72776831647
31
2.38188839273457e-005
  0
LINE
 8
GROUP0
10
-4260.28861167068
20
3336.45981912404
30
2.38706300867031e-005
11
-4260.70282523306
21
3336.14198187885
31
2.38614651505153e-005
  0
LINE
 8
GROUP0
10
-4257.87439810831
20
3336.14198187885
30
2.38736163635289e-005
11
-4258.28861167068
21
3336.45981912404
31
2.38792222764184e-005
  0
LINE
 8
GROUP0
10
-4257.28861167068
20
3334.72776831647
30
2.38432716291592e-005
11
-4257.3567600181
21
3335.24540640668
31
2.38550069309562e-005
  0
LINE
 8
GROUP0
10
-4259.28861167068
20
3336.72776831647
30
2.38811523968374e-005
11
-4259.80624976089
21
3336.65961996905
31
2.38773450360108e-005
  0
LINE
 8
GROUP0
10
-4260.70282523306
20
3336.14198187885
30
2.38614651505153e-005
11
-4261.02066247825
21
3335.72776831647
31
2.38504747710644e-005
  0
LINE
 8
GROUP0
10
-4257.55656086311
20
3333.72776831647
30
2.38188839273457e-005
11
-4257.3567600181
21
3334.21013022627
31
2.38309506767231e-005
  0
LINE
 8
GROUP0
10
-4258.28861167068
20
3336.45981912404
30
2.38792222764184e-005
11
-4258.77097358048
21
3336.65961996905
31
2.38817927322665e-005
  0
LINE
 8
GROUP0
10
-4257.55656086311
20
3335.72776831647
30
2.3865356974978e-005
11
-4257.87439810831
21
3336.14198187885
31
2.38736163635289e-005
  0
LINE
 8
GROUP0
10
-4261.02066247825
20
3335.72776831647
30
2.38504747710644e-005
11
-4261.22046332326
21
3335.24540640668
31
2.38384080216869e-005
  0
LINE
 8
GROUP0
10
-4258.28861167068
20
3332.99571750891
30
2.3798728611707e-005
11
-4257.87439810831
21
3333.3135547541
31
2.38078935478947e-005
  0
LINE
 8
GROUP0
10
-4081.28838328915
20
3332.99571750891
30
2.43443359072282e-005
11
-4080.80602137935
21
3332.7959166639
31
2.434176545138e-005
  0
LINE
 8
GROUP0
10
-4081.70259685152
20
3333.3135547541
30
2.43499418201176e-005
11
-4081.28838328915
21
3332.99571750891
31
2.43443359072282e-005
  0
LINE
 8
GROUP0
10
-4080.28838328915
20
3332.72776831647
30
2.43424057868091e-005
11
-4079.77074519894
21
3332.7959166639
31
2.43462131476357e-005
  0
LINE
 8
GROUP0
10
-4261.02066247825
20
3333.72776831647
30
2.3804001723432e-005
11
-4260.70282523306
21
3333.3135547541
31
2.37957423348811e-005
  0
LINE
 8
GROUP0
10
-4261.22046332326
20
3334.21013022627
30
2.38143517674538e-005
11
-4261.02066247825
21
3333.72776831647
31
2.3804001723432e-005
  0
LINE
 8
GROUP0
10
-4082.28838328915
20
3334.72776831647
30
2.43802865544873e-005
11
-4082.22023494172
21
3334.21013022627
31
2.43685512526903e-005
  0
LINE
 8
GROUP0
10
-4082.02043409672
20
3333.72776831647
30
2.43582012086685e-005
11
-4081.70259685152
21
3333.3135547541
31
2.43499418201176e-005
  0
LINE
 8
GROUP0
10
-4082.22023494172
20
3335.24540640668
30
2.43926075069234e-005
11
-4082.28838328915
21
3334.72776831647
31
2.43802865544873e-005
  0
LINE
 8
GROUP0
10
-4259.80624976089
20
3332.7959166639
30
2.37875660563824e-005
11
-4259.28861167068
21
3332.72776831647
31
2.37882063015726e-005
  0
LINE
 8
GROUP0
10
-4259.28861167068
20
3332.72776831647
30
2.37882063015726e-005
11
-4258.77097358048
21
3332.7959166639
31
2.37920136623992e-005
  0
LINE
 8
GROUP0
10
-4260.70282523306
20
3333.3135547541
30
2.37957423348811e-005
11
-4260.28861167068
21
3332.99571750891
31
2.37901364219917e-005
  0
LINE
 8
GROUP0
10
-4080.80602137935
20
3332.7959166639
30
2.434176545138e-005
11
-4080.28838328915
21
3332.72776831647
31
2.43424057868091e-005
  0
LINE
 8
GROUP0
10
-4260.28861167068
20
3332.99571750891
30
2.37901364219917e-005
11
-4259.80624976089
21
3332.7959166639
31
2.37875660563824e-005
  0
LINE
 8
GROUP0
10
-4261.28861167068
20
3334.72776831647
30
2.38260871594897e-005
11
-4261.22046332326
21
3334.21013022627
31
2.38143517674538e-005
  0
LINE
 8
GROUP0
10
-4082.22023494172
20
3334.21013022627
30
2.43685512526903e-005
11
-4082.02043409672
21
3333.72776831647
31
2.43582012086685e-005
  0
LINE
 8
GROUP0
10
-4261.22046332326
20
3335.24540640668
30
2.38384080216869e-005
11
-4261.28861167068
21
3334.72776831647
31
2.38260871594897e-005
  0
LINE
 8
GROUP0
10
-4079.28838328915
20
3336.45981912404
30
2.44334217616549e-005
11
-4079.77074519894
21
3336.65961996905
31
2.44359921272641e-005
  0
LINE
 8
GROUP0
10
-4078.55633248158
20
3335.72776831647
30
2.44195564602145e-005
11
-4078.87416972677
21
3336.14198187885
31
2.44278158487654e-005
  0
LINE
 8
GROUP0
10
-4082.02043409672
20
3335.72776831647
30
2.44046742563009e-005
11
-4082.22023494172
21
3335.24540640668
31
2.43926075069234e-005
  0
LINE
 8
GROUP0
10
-4081.70259685152
20
3336.14198187885
30
2.44156646357518e-005
11
-4082.02043409672
21
3335.72776831647
31
2.44046742563009e-005
  0
LINE
 8
GROUP0
10
-4081.28838328915
20
3336.45981912404
30
2.44248295719396e-005
11
-4081.70259685152
21
3336.14198187885
31
2.44156646357518e-005
  0
LINE
 8
GROUP0
10
-4078.87416972677
20
3336.14198187885
30
2.44278158487654e-005
11
-4079.28838328915
21
3336.45981912404
31
2.44334217616549e-005
  0
LINE
 8
GROUP0
10
-4078.35653163657
20
3335.24540640668
30
2.44092064161927e-005
11
-4078.55633248158
21
3335.72776831647
31
2.44195564602145e-005
  0
LINE
 8
GROUP0
10
-4078.28838328915
20
3334.72776831647
30
2.43974710241568e-005
11
-4078.35653163657
21
3335.24540640668
31
2.44092064161927e-005
  0
LINE
 8
GROUP0
10
-4078.35653163657
20
3334.21013022627
30
2.43851501619596e-005
11
-4078.28838328915
21
3334.72776831647
31
2.43974710241568e-005
  0
LINE
 8
GROUP0
10
-4079.77074519894
20
3336.65961996905
30
2.44359921272641e-005
11
-4080.28838328915
21
3336.72776831647
31
2.44353518820739e-005
  0
LINE
 8
GROUP0
10
-4080.80602137935
20
3336.65961996905
30
2.44315445212473e-005
11
-4081.28838328915
21
3336.45981912404
31
2.44248295719396e-005
  0
LINE
 8
GROUP0
10
-4080.28838328915
20
3336.72776831647
30
2.44353518820739e-005
11
-4080.80602137935
21
3336.65961996905
31
2.44315445212473e-005
  0
LINE
 8
GROUP0
10
-3978.28838813395
20
3058.7273167876
30
1.8701542999805e-005
11
-3978.28838810162
21
3276.72777302533
31
1.51061276956577e-005
  0
LINE
 8
GROUP0
10
-3978.28838810162
20
3276.72777302533
30
1.51061276956577e-005
11
-4007.28838810162
21
3276.72777302731
31
1.54886624206207e-005
  0
LINE
 8
GROUP0
10
-4007.28838810162
20
3276.72777302731
30
1.54886624206207e-005
11
-4007.28838810279
21
3306.72777302731
31
1.55012615796701e-005
  0
LINE
 8
GROUP0
10
-4007.28838810279
20
3306.72777302731
30
1.55012615796701e-005
11
-4020.28838810239
21
3319.72777302638
31
1.5634301101114e-005
  0
LINE
 8
GROUP0
10
-4050.28838810239
20
3319.72777302731
30
1.6201820934908e-005
11
-4020.28838810239
21
3319.72777302638
31
1.5634301101114e-005
  0
LINE
 8
GROUP0
10
-4050.28838810239
20
3319.72777302731
30
1.6201820934908e-005
11
-4050.28838810175
21
3348.72777302563
31
1.64964544620838e-005
  0
LINE
 8
GROUP0
10
-4050.28838810175
20
3348.72777302563
30
1.64964544620838e-005
11
-4468.28886692371
21
3348.72777299721
31
3.23640135907632e-005
  0
LINE
 8
GROUP0
10
-4468.28886692371
20
3348.72777299721
30
3.23640135907632e-005
11
-4468.28886692358
21
3319.72777302731
31
3.23020959702214e-005
  0
LINE
 8
GROUP0
10
-4468.28886692358
20
3319.72777302731
30
3.23020959702214e-005
11
-4498.28886692358
21
3319.72777302731
31
3.24522788123838e-005
  0
LINE
 8
GROUP0
10
-4498.28886692358
20
3319.72777302731
30
3.24522788123838e-005
11
-4511.28886685412
21
3306.72777302731
31
3.25317117185031e-005
  0
LINE
 8
GROUP0
10
-4511.28886692358
20
3276.72777302731
30
3.23059745295617e-005
11
-4511.28886685412
21
3306.72777302731
31
3.25317117185031e-005
  0
LINE
 8
GROUP0
10
-4511.28886692358
20
3276.72777302731
30
3.23059745295617e-005
11
-4540.28886692358
21
3276.7277729977
31
3.21699831680178e-005
  0
LINE
 8
GROUP0
10
-4540.28886692358
20
3276.7277729977
30
3.21699831680178e-005
11
-4540.28886697739
21
3058.72731690602
31
0.0
  0
LINE
 8
GROUP0
10
-4511.2888669436
20
3058.72731690553
30
1.68401574723864e-007
11
-4540.28886697739
21
3058.72731690602
31
0.0
  0
LINE
 8
GROUP0
10
-4511.2888669436
20
3058.72731690553
30
1.68401574723864e-007
11
-4511.2888669436
21
3028.72731690553
31
4.97811068926324e-006
  0
LINE
 8
GROUP0
10
-4498.2888669436
20
3015.72731682754
30
7.1329142163401e-006
11
-4511.2888669436
21
3028.72731690553
31
4.97811068926324e-006
  0
LINE
 8
GROUP0
10
-4468.2888669436
20
3015.72731690553
30
7.3863714502076e-006
11
-4498.2888669436
21
3015.72731682754
31
7.1329142163401e-006
  0
LINE
 8
GROUP0
10
-4468.28886697796
20
2986.72731690553
30
1.20658713153532e-005
11
-4468.2888669436
21
3015.72731690553
31
7.3863714502076e-006
  0
LINE
 8
GROUP0
10
-4468.28886697796
20
2986.72731690553
30
1.20658713153532e-005
11
-4050.28838813451
21
2986.7273167879
31
2.89825317909831e-005
 0
ENDSEC
 0
EOF
