 0
SECTION
 2
ENTITIES
  0
LINE
 8
GROUP0
10
-2429.23041044754
20
1263.20998959774
30
2.32617619296605e-005
11
-2429.74804853774
21
1263.27813794516
31
2.37565230242875e-005
  0
LINE
 8
GROUP0
10
-2428.71277235733
20
1490.27780253861
30
2.99060388165628e-005
11
-2429.23041044754
21
1490.20965419119
31
3.03343196638384e-005
  0
LINE
 8
GROUP0
10
-2428.23041044754
20
1490.47760338363
30
2.9573424891588e-005
11
-2428.71277235733
21
1490.27780253861
31
2.99060388165628e-005
  0
LINE
 8
GROUP0
10
-2427.49835963997
20
1491.20965419119
30
2.92778018177287e-005
11
-2427.81619688516
21
1490.79544062882
31
2.93591449360087e-005
  0
LINE
 8
GROUP0
10
-2427.29855879496
20
1265.72762768794
30
2.27673489591906e-005
11
-2427.23041044754
21
1265.20998959773
31
2.24541046719429e-005
  0
LINE
 8
GROUP0
10
-2431.23041044753
20
1265.20998959773
30
2.60204648575124e-005
11
-2431.16226210011
21
1265.72762768794
31
2.62121883516875e-005
  0
LINE
 8
GROUP0
10
-2430.9624612551
20
1264.20998959773
30
2.52938025939176e-005
11
-2431.16226210011
21
1264.69235150753
31
2.57072205702646e-005
  0
LINE
 8
GROUP0
10
-2430.9624612551
20
1266.20998959773
30
2.62693254459045e-005
11
-2430.6446240099
21
1266.62420316011
31
2.61879823276245e-005
  0
LINE
 8
GROUP0
10
-2431.16226210011
20
1264.69235150753
30
2.57072205702646e-005
11
-2431.23041044753
21
1265.20998959773
31
2.60204648575124e-005
  0
LINE
 8
GROUP0
10
-2428.71277235733
20
1267.14184125031
30
2.47180465164476e-005
11
-2428.23041044753
21
1266.9420404053
31
2.41905222968852e-005
  0
LINE
 8
GROUP0
10
-2430.64462400991
20
1263.79577603536
30
2.48083846749847e-005
11
-2430.9624612551
21
1264.20998959773
31
2.52938025939176e-005
  0
LINE
 8
GROUP0
10
-2430.23041044753
20
1266.9420404053
30
2.59737023727502e-005
11
-2429.74804853774
21
1267.14184125031
31
2.56410884583502e-005
  0
LINE
 8
GROUP0
10
-2429.23041044753
20
1267.20998959773
30
2.52128076336344e-005
11
-2428.71277235733
21
1267.14184125031
31
2.47180465164476e-005
  0
LINE
 8
GROUP0
10
-2429.74804853774
20
1267.14184125031
30
2.56410884583502e-005
11
-2429.23041044753
21
1267.20998959773
31
2.52128076336344e-005
  0
LINE
 8
GROUP0
10
-2431.16226210011
20
1265.72762768794
30
2.62121883516875e-005
11
-2430.9624612551
21
1266.20998959773
31
2.62693254459045e-005
  0
LINE
 8
GROUP0
10
-2428.23041044753
20
1266.9420404053
30
2.41905222968852e-005
11
-2427.81619688516
21
1266.62420316011
31
2.36661848544706e-005
  0
LINE
 8
GROUP0
10
-2430.23041044754
20
1263.47793879017
30
2.4284047233275e-005
11
-2430.64462400991
21
1263.79577603536
31
2.48083846749847e-005
  0
LINE
 8
GROUP0
10
-2430.6446240099
20
1266.62420316011
30
2.61879823276245e-005
11
-2430.23041044753
21
1266.9420404053
31
2.59737023727502e-005
  0
LINE
 8
GROUP0
10
-2429.74804853774
20
1494.14150584377
30
3.27136461925281e-005
11
-2429.23041044753
21
1494.20965419119
31
3.22853653678123e-005
  0
LINE
 8
GROUP0
10
-2428.23041044753
20
1493.94170499876
30
3.12630800303582e-005
11
-2427.81619688516
21
1493.62386775357
31
3.07387425886485e-005
  0
LINE
 8
GROUP0
10
-2427.23041044754
20
1492.20965419119
30
2.95266624061208e-005
11
-2427.29855879496
21
1491.69201610099
31
2.93349389119457e-005
  0
LINE
 8
GROUP0
10
-2427.29855879496
20
1264.69235150753
30
2.22623811777678e-005
11
-2427.49835963997
21
1264.20998959773
31
2.22052440835507e-005
  0
LINE
 8
GROUP0
10
-2427.81619688516
20
1266.62420316011
30
2.36661848544706e-005
11
-2427.49835963997
21
1266.20998959773
31
2.31807669355377e-005
  0
LINE
 8
GROUP0
10
-2428.71277235733
20
1263.27813794516
30
2.28334810823849e-005
11
-2429.23041044754
21
1263.20998959774
31
2.32617619296605e-005
  0
LINE
 8
GROUP0
10
-2427.29855879496
20
1491.69201610099
30
2.93349389119457e-005
11
-2427.49835963997
21
1491.20965419119
31
2.92778018177287e-005
  0
LINE
 8
GROUP0
10
-2427.81619688516
20
1263.79577603536
30
2.22865872243905e-005
11
-2428.23041044754
21
1263.47793879017
31
2.25008671574101e-005
  0
LINE
 8
GROUP0
10
-2428.23041044754
20
1263.47793879017
30
2.25008671574101e-005
11
-2428.71277235733
21
1263.27813794516
31
2.28334810823849e-005
  0
LINE
 8
GROUP0
10
-2427.49835963997
20
1266.20998959773
30
2.31807669355377e-005
11
-2427.29855879496
21
1265.72762768794
31
2.27673489591906e-005
  0
LINE
 8
GROUP0
10
-2427.23041044754
20
1265.20998959773
30
2.24541046719429e-005
11
-2427.29855879496
21
1264.69235150753
31
2.22623811777678e-005
  0
LINE
 8
GROUP0
10
-2431.16226210011
20
1491.69201610099
30
3.27797783044426e-005
11
-2431.23041044753
21
1492.20965419119
31
3.30930225916903e-005
  0
LINE
 8
GROUP0
10
-2427.49835963997
20
1264.20998959773
30
2.22052440835507e-005
11
-2427.81619688516
21
1263.79577603536
31
2.22865872243905e-005
  0
LINE
 8
GROUP0
10
-2427.81619688516
20
1490.79544062882
30
2.93591449360087e-005
11
-2428.23041044754
21
1490.47760338363
31
2.9573424891588e-005
  0
LINE
 8
GROUP0
10
-2429.74804853774
20
1263.27813794516
30
2.37565230242875e-005
11
-2430.23041044754
21
1263.47793879017
31
2.4284047233275e-005
  0
LINE
 8
GROUP0
10
-1980.99845588841
20
1507.71058823074
30
0.000534385549214445
11
-1981.31629391168
21
1508.12480119561
31
0.000534599828303589
  0
LINE
 8
GROUP0
10
-1980.79865219195
20
1506.19295051703
30
0.000533129894946488
11
-1980.7305048172
21
1506.71058873492
31
0.000533624655716114
  0
LINE
 8
GROUP0
10
-1982.21286309605
20
1504.77873429839
30
0.000531179196317644
11
-1981.73050156202
21
1504.97853604961
31
0.000531592614880544
  0
LINE
 8
GROUP0
10
-1981.31628859714
20
1505.29637407287
30
0.000532078033197797
11
-1980.99845213047
21
1505.71058823216
31
0.00053260237080518
  0
LINE
 8
GROUP0
10
-1980.99845213047
20
1505.71058823216
30
0.00053260237080518
11
-1980.79865219195
21
1506.19295051703
31
0.000533129894946488
  0
LINE
 8
GROUP0
10
-1982.21287035584
20
1508.64243760081
30
0.000534624032478459
11
-1982.73050857372
21
1508.71058497556
31
0.000534432308095289
  0
LINE
 8
GROUP0
10
-1983.7305015606
20
1504.97853229166
30
0.000530617088850455
11
-1983.24813927573
21
1504.77873235314
31
0.000530674226882311
  0
LINE
 8
GROUP0
10
-2518.14438033997
20
1205.12379897327
30
2.60313730123807e-006
11
-2518.46221680598
21
1204.70958481301
31
2.07879970513525e-006
  0
LINE
 8
GROUP0
10
-1981.31629391168
20
1508.12480119561
30
0.000534599828303589
11
-1981.73050807096
21
1508.44263766229
31
0.000534681170510315
  0
LINE
 8
GROUP0
10
-1983.24813927573
20
1504.77873235314
30
0.000530674226882311
11
-1982.73050105784
21
1504.71058497839
31
0.0005308659512542
  0
LINE
 8
GROUP0
10
-1982.73050105784
20
1504.71058497839
30
0.0005308659512542
11
-1982.21286309605
21
1504.77873429839
31
0.000531179196317644
  0
LINE
 8
GROUP0
10
-1980.7305048172
20
1506.71058873492
30
0.000533624655716114
11
-1980.7986541372
21
1507.22822669671
31
0.000534052936001511
  0
LINE
 8
GROUP0
10
-1981.73050807096
20
1508.44263766229
30
0.000534681170510315
11
-1982.21287035584
21
1508.64243760081
31
0.000534624032478459
  0
LINE
 8
GROUP0
10
-1980.7986541372
20
1507.22822669671
30
0.000534052936001511
11
-1980.99845588841
21
1507.71058823074
31
0.000534385549214445
  0
LINE
 8
GROUP0
10
-1982.73050857372
20
1508.71058497556
30
0.000534432308095289
11
-1983.24814653551
21
1508.64243565556
31
0.000534119063054406
  0
LINE
 8
GROUP0
10
-1981.73050156202
20
1504.97853604961
30
0.000531592614880544
11
-1981.31628859714
21
1505.29637407287
31
0.000532078033197797
  0
LINE
 8
GROUP0
10
-2516.73016035504
20
1201.70958807123
30
2.48862415025419e-007
11
-2516.21252239303
21
1201.7777373924
31
5.62107455909233e-007
  0
LINE
 8
GROUP0
10
-2516.73016787955
20
1205.70958807121
30
3.81521924483486e-006
11
-2517.24780584156
21
1205.64143875004
31
3.50197420395104e-006
  0
LINE
 8
GROUP0
10
-2515.73016737551
20
1205.44164075991
30
4.06408165986027e-006
11
-2516.21252966115
21
1205.64144069753
31
4.00694363928422e-006
  0
LINE
 8
GROUP0
10
-2514.99811519086
20
1204.70959132942
30
3.76846037526968e-006
11
-2515.31595321524
21
1205.1238042939
31
3.9827394644143e-006
  0
LINE
 8
GROUP0
10
-2515.31595321524
20
1205.1238042939
30
3.9827394644143e-006
11
-2515.73016737551
21
1205.44164075991
31
4.06408165986027e-006
  0
LINE
 8
GROUP0
10
-2514.79831149098
20
1203.19195361508
30
2.51280609603333e-006
11
-2514.7301641173
21
1203.70959183348
31
3.00756687693915e-006
  0
LINE
 8
GROUP0
10
-2516.21252966115
20
1205.64144069753
30
4.00694363928422e-006
11
-2516.73016787955
21
1205.70958807121
31
3.81521924483486e-006
  0
LINE
 8
GROUP0
10
-2515.31594789461
20
1202.29537716917
30
1.46094436990207e-006
11
-2514.99811142861
21
1202.70959132944
31
1.98528195472503e-006
  0
LINE
 8
GROUP0
10
-2515.73016085909
20
1201.97753914479
30
9.75526041369079e-007
11
-2515.31594789461
21
1202.29537716917
31
1.46094436990207e-006
  0
LINE
 8
GROUP0
10
-2516.21252239303
20
1201.7777373924
30
5.62107455909233e-007
11
-2515.73016085909
21
1201.97753914479
31
9.75526041369079e-007
  0
LINE
 8
GROUP0
10
-2517.24780584156
20
1205.64143875004
30
3.50197420395104e-006
11
-2517.7301673755
21
1205.44163699765
31
3.0885556184912e-006
  0
LINE
 8
GROUP0
10
-2517.24779857343
20
1201.77773544491
30
5.71380318559189e-008
11
-2516.73016035504
21
1201.70958807123
31
2.48862415025419e-007
  0
LINE
 8
GROUP0
10
-2514.7301641173
20
1203.70959183348
30
3.00756687693915e-006
11
-2514.79831343847
21
1204.22722979548
31
3.43584717361622e-006
  0
LINE
 8
GROUP0
10
-2514.99811142861
20
1202.70959132944
30
1.98528195472503e-006
11
-2514.79831149098
21
1203.19195361508
31
2.51280609603333e-006
  0
LINE
 8
GROUP0
10
-2517.7301673755
20
1205.44163699765
30
3.0885556184912e-006
11
-2518.14438033997
21
1205.12379897327
31
2.60313730123807e-006
  0
LINE
 8
GROUP0
10
-2514.79831343847
20
1204.22722979548
30
3.43584717361622e-006
11
-2514.99811519086
21
1204.70959132942
31
3.76846037526968e-006
  0
LINE
 8
GROUP0
10
-1981.31627420939
20
1205.12472864838
30
0.000264447965164261
11
-1981.73048779183
21
1205.4425658639
31
0.00026452930833048
  0
LINE
 8
GROUP0
10
-2518.73016411728
20
1203.70958430897
30
1.05651478292113e-006
11
-2518.66201479612
21
1203.19194634696
31
6.28234497523916e-007
  0
LINE
 8
GROUP0
10
-2517.73016085908
20
1201.97753538254
30
0.0
11
-2517.24779857343
21
1201.77773544491
31
5.71380318559189e-008
  0
LINE
 8
GROUP0
10
-2518.6620167436
20
1204.22722252736
30
1.55127556382695e-006
11
-2518.73016411728
21
1203.70958430897
31
1.05651478292113e-006
  0
LINE
 8
GROUP0
10
-2518.46221680598
20
1204.70958481301
30
2.07879970513525e-006
11
-2518.6620167436
21
1204.22722252736
31
1.55127556382695e-006
  0
LINE
 8
GROUP0
10
-1984.66233934917
20
1204.22815295068
30
0.000262016505899698
11
-1984.73048766085
21
1203.71051485793
31
0.000261521744780396
  0
LINE
 8
GROUP0
10
-1984.46253853803
20
1204.71051487218
30
0.000262544030131245
11
-1984.66233934917
21
1204.22815295068
31
0.000262016505899698
  0
LINE
 8
GROUP0
10
-2518.46221304372
20
1202.70958481302
30
2.95621284590597e-007
11
-2518.14437501934
21
1202.29537184854
31
8.1342195445977e-008
  0
LINE
 8
GROUP0
10
-1984.14470132251
20
1205.12472845462
30
0.00026306836759199
11
-1984.46253853803
21
1204.71051487218
31
0.000262544030131245
  0
LINE
 8
GROUP0
10
-1983.73048778362
20
1205.44256572689
30
0.000263553785515153
11
-1984.14470132251
21
1205.12472845462
31
0.00026306836759199
  0
LINE
 8
GROUP0
10
-2518.66201479612
20
1203.19194634696
30
6.28234497523916e-007
11
-2518.46221304372
21
1202.70958481302
31
2.95621284590597e-007
  0
LINE
 8
GROUP0
10
-1983.24812588949
20
1205.64236660412
30
0.000263967203490795
11
-1983.73048778362
21
1205.44256572689
31
0.000263553785515153
  0
LINE
 8
GROUP0
10
-1982.73048780608
20
1205.71051498672
30
0.000264280447764648
11
-1983.24812588949
21
1205.64236660412
31
0.000263967203490795
  0
LINE
 8
GROUP0
10
-1982.21284971333
20
1205.64236667504
30
0.000264472171256708
11
-1982.73048780608
21
1205.71051498672
31
0.000264280447764648
  0
LINE
 8
GROUP0
10
-2518.14437501934
20
1202.29537184854
30
8.1342195445977e-008
11
-2517.73016085908
21
1201.97753538254
31
0.0
  0
LINE
 8
GROUP0
10
-1981.73048779183
20
1205.4425658639
30
0.00026452930833048
11
-1982.21284971333
21
1205.64236667504
31
0.000264472171256708
  0
LINE
 8
GROUP0
10
-1982.73048753206
20
1201.71051500316
30
0.00026071408740424
11
-1982.21284944865
21
1201.77866338576
31
0.000261027331678093
  0
LINE
 8
GROUP0
10
-1984.14470112875
20
1202.2963013415
30
0.000260546570004627
11
-1983.73048754631
21
1201.97846412598
31
0.000260465226850393
  0
LINE
 8
GROUP0
10
-1980.73048767729
20
1203.71051513195
30
0.000263472790399771
11
-1980.79863605989
21
1204.22815321536
31
0.000263901071249162
  0
LINE
 8
GROUP0
10
-1980.99843693712
20
1204.71051510949
30
0.000264233685206566
11
-1981.31627420939
21
1205.12472864838
31
0.000264447965164261
  0
LINE
 8
GROUP0
10
-1983.24812562481
20
1201.77866331484
30
0.00026052236392346
11
-1982.73048753206
21
1201.71051500316
31
0.00026071408740424
  0
LINE
 8
GROUP0
10
-1984.46253840102
20
1202.71051488039
30
0.000260760849962322
11
-1984.14470112875
21
1202.2963013415
31
0.000260546570004627
  0
LINE
 8
GROUP0
10
-1982.21284944865
20
1201.77866338576
30
0.000261027331678093
11
-1981.73048755452
21
1201.97846426299
31
0.00026144074965444
  0
LINE
 8
GROUP0
10
-1984.66233927825
20
1203.19287677452
30
0.000261093463919726
11
-1984.46253840102
21
1202.71051488039
31
0.000260760849962322
  0
LINE
 8
GROUP0
10
-1984.73048766085
20
1203.71051485793
30
0.000261521744780396
11
-1984.66233927825
21
1203.19287677452
31
0.000261093463919726
  0
LINE
 8
GROUP0
10
-1981.73048755452
20
1201.97846426299
30
0.00026144074965444
11
-1981.31627401562
21
1202.29630153526
31
0.000261926167588178
  0
LINE
 8
GROUP0
10
-1981.31627401562
20
1202.29630153526
30
0.000261926167588178
11
-1980.99843680011
21
1202.7105151177
31
0.000262450505037642
  0
LINE
 8
GROUP0
10
-1980.99843680011
20
1202.7105151177
30
0.000262450505037642
11
-1980.79863598897
21
1203.1928770392
31
0.00026297802926919
  0
LINE
 8
GROUP0
10
-1980.79863598897
20
1203.1928770392
30
0.00026297802926919
11
-1980.73048767729
21
1203.71051513195
31
0.000263472790399771
  0
LINE
 8
GROUP0
10
-1983.73048754631
20
1201.97846412598
30
0.000260465226850393
11
-1983.24812562481
21
1201.77866331484
31
0.00026052236392346
  0
LINE
 8
GROUP0
10
-1980.79863605989
20
1204.22815321536
30
0.000263901071249162
11
-1980.99843693712
21
1204.71051510949
31
0.000264233685206566
  0
LINE
 8
GROUP0
10
-2236.17930046313
20
1536.09788653176
30
0.000330745290199785
11
-2236.02944982937
21
1536.4596579641
31
0.000331140933376794
  0
LINE
 8
GROUP0
10
-2236.02944982937
20
1536.4596579641
30
0.000331140933376794
11
-2235.79107189548
21
1536.77031813588
31
0.000331534186458077
  0
LINE
 8
GROUP0
10
-2236.2304117237
20
1535.7096579641
30
0.000330374219340745
11
-2236.17930046313
21
1536.09788653176
31
0.000330745290199785
  0
LINE
 8
GROUP0
10
-2235.79107189548
20
1536.77031813588
30
0.000331534186458077
11
-2235.4804117237
21
1537.00869606978
31
0.00033189824990274
  0
LINE
 8
GROUP0
10
-2233.66975155192
20
1536.77031813588
30
0.000332568884532941
11
-2233.43137361802
21
1536.4596579641
31
0.000332408174528187
  0
LINE
 8
GROUP0
10
-2233.66975155192
20
1534.64899779232
30
0.000330677536260288
11
-2233.9804117237
21
1534.41061985843
31
0.000330313472815624
  0
LINE
 8
GROUP0
10
-2234.34218315604
20
1537.15854670354
30
0.00033258703913594
11
-2233.9804117237
21
1537.00869606978
31
0.000332629891921177
  0
LINE
 8
GROUP0
10
-2234.7304117237
20
1534.2096579641
30
0.00032976847617327
11
-2235.11864029135
21
1534.26076922467
31
0.000329624683582425
  0
LINE
 8
GROUP0
10
-2233.2304117237
20
1535.7096579641
30
0.000331837503377619
11
-2233.28152298426
21
1535.32142939645
31
0.000331466432518579
  0
LINE
 8
GROUP0
10
-2235.11864029135
20
1537.15854670354
30
0.000332208313362264
11
-2234.7304117237
21
1537.2096579641
31
0.000332443246545094
  0
LINE
 8
GROUP0
10
-2233.9804117237
20
1537.00869606978
30
0.000332629891921177
11
-2233.66975155192
21
1536.77031813588
31
0.000332568884532941
  0
LINE
 8
GROUP0
10
-2233.43137361802
20
1536.4596579641
30
0.000332408174528187
11
-2233.28152298426
21
1536.09788653176
31
0.000332158714037045
  0
LINE
 8
GROUP0
10
-2235.4804117237
20
1537.00869606978
30
0.00033189824990274
11
-2235.11864029135
21
1537.15854670354
31
0.000332208313362264
  0
LINE
 8
GROUP0
10
-2234.7304117237
20
1537.2096579641
30
0.000332443246545094
11
-2234.34218315604
21
1537.15854670354
31
0.00033258703913594
  0
LINE
 8
GROUP0
10
-2233.28152298426
20
1536.09788653176
30
0.000332158714037045
11
-2233.2304117237
21
1535.7096579641
31
0.000331837503377619
  0
LINE
 8
GROUP0
10
-2233.28152298426
20
1535.32142939645
30
0.000331466432518579
11
-2233.43137361802
21
1534.9596579641
31
0.000331070789342275
  0
LINE
 8
GROUP0
10
-2233.43137361802
20
1534.9596579641
30
0.000331070789342275
11
-2233.66975155192
21
1534.64899779232
31
0.000330677536260288
  0
LINE
 8
GROUP0
10
-2233.9804117237
20
1534.41061985843
30
0.000330313472815624
11
-2234.34218315604
21
1534.26076922467
31
0.0003300034093561
  0
LINE
 8
GROUP0
10
-2234.34218315604
20
1534.26076922467
30
0.0003300034093561
11
-2234.7304117237
21
1534.2096579641
31
0.00032976847617327
  0
LINE
 8
GROUP0
10
-2253.66975138597
20
1534.6489948312
30
0.000297490602453904
11
-2253.98041152048
21
1534.41061684873
31
0.00029712653899796
  0
LINE
 8
GROUP0
10
-2255.11864006471
20
1534.26076603701
30
0.000296437749595563
11
-2255.48041152048
21
1534.41061661421
31
0.000296394896765206
  0
LINE
 8
GROUP0
10
-2256.029449712
20
1534.95965463404
30
0.000296616614034823
11
-2256.17930040232
21
1535.32142604296
31
0.00029686607446886
  0
LINE
 8
GROUP0
10
-2255.48041152048
20
1534.41061661421
30
0.000296394896765206
11
-2255.79107172953
21
1534.64899449953
31
0.000296455904085763
  0
LINE
 8
GROUP0
10
-2236.02944982937
20
1534.9596579641
30
0.000329803548190882
11
-2236.17930046313
21
1535.32142939645
31
0.000330053008681319
  0
LINE
 8
GROUP0
10
-2235.4804117237
20
1534.41061985843
30
0.000329581830797188
11
-2235.79107189548
21
1534.64899779233
31
0.000329642838185423
  0
LINE
 8
GROUP0
10
-2253.98041152048
20
1534.41061684873
30
0.00029712653899796
11
-2254.3421829294
21
1534.26076615841
31
0.000296816475493317
  0
LINE
 8
GROUP0
10
-2254.73041148906
20
1534.20965483715
30
0.000296581542254087
11
-2255.11864006471
21
1534.26076603701
31
0.000296437749595563
  0
LINE
 8
GROUP0
10
-2255.79107172953
20
1534.64899449953
30
0.000296455904085763
11
-2256.029449712
21
1534.95965463404
31
0.000296616614034823
  0
LINE
 8
GROUP0
10
-2235.11864029135
20
1534.26076922467
30
0.000329624683582425
11
-2235.4804117237
21
1534.41061985843
31
0.000329581830797188
  0
LINE
 8
GROUP0
10
-2253.23041172359
20
1535.70965507167
30
0.000298650569559955
11
-2253.28152292346
21
1535.32142649602
31
0.000298279498723475
  0
LINE
 8
GROUP0
10
-2253.28152292346
20
1535.32142649602
30
0.000298279498723475
11
-2253.43137350065
21
1534.95965504025
31
0.000297883855547171
  0
LINE
 8
GROUP0
10
-2254.3421829294
20
1534.26076615841
30
0.000296816475493317
11
-2254.73041148906
21
1534.20965483715
31
0.000296581542254087
  0
LINE
 8
GROUP0
10
-2235.79107189548
20
1534.64899779233
30
0.000329642838185423
11
-2236.02944982937
21
1534.9596579641
31
0.000329803548190882
  0
LINE
 8
GROUP0
10
-2253.43137350065
20
1534.95965504025
30
0.000297883855547171
11
-2253.66975138597
21
1534.6489948312
31
0.000297490602453904
  0
LINE
 8
GROUP0
10
-2236.17930046313
20
1535.32142939645
30
0.000330053008681319
11
-2236.2304117237
21
1535.7096579641
31
0.000330374219340745
  0
LINE
 8
GROUP0
10
-2255.7910720612
20
1536.77031484309
30
0.000298347252200498
11
-2255.48041192669
21
1537.00869282556
31
0.000298711315656441
  0
LINE
 8
GROUP0
10
-2255.48041192669
20
1537.00869282556
30
0.000298711315656441
11
-2255.11864051777
21
1537.15854351588
31
0.000299021379161085
  0
LINE
 8
GROUP0
10
-2253.66975155172
20
1222.77064976942
30
0.000134961240314885
11
-2253.43137361782
21
1222.45998959764
31
0.000134800530320706
  0
LINE
 8
GROUP0
10
-2256.02944994653
20
1536.45965463404
30
0.000297953999107936
11
-2255.7910720612
21
1536.77031484309
31
0.000298347252200498
  0
LINE
 8
GROUP0
10
-2255.11864051777
20
1537.15854351588
30
0.000299021379161085
11
-2254.73041195811
21
1537.20965483714
31
0.000299256312400314
  0
LINE
 8
GROUP0
10
-2253.43137361782
20
1222.45998959764
30
0.000134800530320706
11
-2253.28152298406
21
1222.09821816529
31
0.000134551069830269
  0
LINE
 8
GROUP0
10
-2253.28152298406
20
1222.09821816529
30
0.000134551069830269
11
-2253.2304117235
21
1221.70998959764
31
0.000134229859170842
  0
LINE
 8
GROUP0
10
-2253.43137373517
20
1536.45965504025
30
0.000299221240620284
11
-2253.28152304485
21
1536.09788363133
31
0.000298971780185542
  0
LINE
 8
GROUP0
10
-2253.66975171764
20
1536.77031517476
30
0.000299381950568639
11
-2253.43137373517
21
1536.45965504025
31
0.000299221240620284
  0
LINE
 8
GROUP0
10
-2253.28152304485
20
1536.09788363133
30
0.000298971780185542
11
-2253.23041172359
21
1535.70965507167
31
0.000298650569559955
  0
LINE
 8
GROUP0
10
-2254.34218338247
20
1537.15854363728
30
0.000299400105058839
11
-2253.98041192669
21
1537.00869306008
31
0.000299442957889196
  0
LINE
 8
GROUP0
10
-2256.23041172359
20
1535.70965460262
30
0.000297187285094447
11
-2256.17930052372
21
1536.09788317827
31
0.000297558355930927
  0
LINE
 8
GROUP0
10
-2256.17930052372
20
1536.09788317827
30
0.000297558355930927
11
-2256.02944994653
21
1536.45965463404
31
0.000297953999107936
  0
LINE
 8
GROUP0
10
-2254.73041195811
20
1537.20965483714
30
0.000299256312400314
11
-2254.34218338247
21
1537.15854363728
31
0.000299400105058839
  0
LINE
 8
GROUP0
10
-2253.98041192669
20
1537.00869306008
30
0.000299442957889196
11
-2253.66975171764
21
1536.77031517476
31
0.000299381950568639
  0
LINE
 8
GROUP0
10
-2256.17930040232
20
1535.32142604296
30
0.00029686607446886
11
-2256.23041172359
21
1535.70965460262
31
0.000297187285094447
  0
LINE
 8
GROUP0
10
-2255.79107189528
20
1220.64932942586
30
0.000132035193989927
11
-2256.02944982917
21
1220.95998959764
31
0.000132195903984106
  0
LINE
 8
GROUP0
10
-2256.17930046293
20
1222.09821816529
30
0.000133137645993009
11
-2256.02944982917
21
1222.45998959764
31
0.000133533289169313
  0
LINE
 8
GROUP0
10
-2254.34218315584
20
1220.26110085821
30
0.000132395765149323
11
-2254.7304117235
21
1220.20998959764
31
0.000132160831966494
  0
LINE
 8
GROUP0
10
-2255.11864029115
20
1220.26110085821
30
0.000132017039375648
11
-2255.4804117235
21
1220.41095149196
31
0.000131974186601691
  0
LINE
 8
GROUP0
10
-2255.4804117235
20
1220.41095149196
30
0.000131974186601691
11
-2255.79107189528
21
1220.64932942586
31
0.000132035193989927
  0
LINE
 8
GROUP0
10
-2253.66975155172
20
1220.64932942586
30
0.000133069892053511
11
-2253.9804117235
21
1220.41095149196
31
0.000132705828620128
  0
LINE
 8
GROUP0
10
-2256.02944982917
20
1220.95998959764
30
0.000132195903984106
11
-2256.17930046293
21
1221.32176102998
31
0.000132445364474543
  0
LINE
 8
GROUP0
10
-2256.17930046293
20
1221.32176102998
30
0.000132445364474543
11
-2256.2304117235
21
1221.70998959764
31
0.000132766575133969
  0
LINE
 8
GROUP0
10
-2256.2304117235
20
1221.70998959764
30
0.000132766575133969
11
-2256.17930046293
21
1222.09821816529
31
0.000133137645993009
  0
LINE
 8
GROUP0
10
-2255.79107189528
20
1222.77064976942
30
0.0001339265422513
11
-2255.4804117235
21
1223.00902770331
31
0.000134290605684684
  0
LINE
 8
GROUP0
10
-2256.02944982917
20
1222.45998959764
30
0.000133533289169313
11
-2255.79107189528
21
1222.77064976942
31
0.0001339265422513
  0
LINE
 8
GROUP0
10
-2253.2304117235
20
1221.70998959764
30
0.000134229859170842
11
-2253.28152298406
21
1221.32176102999
31
0.000133858788311803
  0
LINE
 8
GROUP0
10
-2253.43137361782
20
1220.95998959764
30
0.000133463145135498
11
-2253.66975155172
21
1220.64932942586
31
0.000133069892053511
  0
LINE
 8
GROUP0
10
-2254.7304117235
20
1220.20998959764
30
0.000132160831966494
11
-2255.11864029115
21
1220.26110085821
31
0.000132017039375648
  0
LINE
 8
GROUP0
10
-2253.9804117235
20
1220.41095149196
30
0.000132705828620128
11
-2254.34218315584
21
1220.26110085821
31
0.000132395765149323
  0
LINE
 8
GROUP0
10
-2253.28152298406
20
1221.32176102999
30
0.000133858788311803
11
-2253.43137361782
21
1220.95998959764
31
0.000133463145135498
  0
LINE
 8
GROUP0
10
-2254.7304117235
20
1223.20998959764
30
0.000134835602338318
11
-2254.34218315584
21
1223.15887833707
31
0.000134979394929163
  0
LINE
 8
GROUP0
10
-2253.9804117235
20
1223.00902770332
30
0.00013502224770312
11
-2253.66975155172
21
1222.77064976942
31
0.000134961240314885
  0
LINE
 8
GROUP0
10
-2233.28152298407
20
1222.09821816528
30
0.000138217044248967
11
-2233.2304117235
21
1221.70998959763
31
0.000137895833589541
  0
LINE
 8
GROUP0
10
-2233.2304117235
20
1221.70998959763
30
0.000137895833589541
11
-2233.28152298407
21
1221.32176102998
31
0.000137524762730501
  0
LINE
 8
GROUP0
10
-2255.11864029115
20
1223.15887833707
30
0.000134600669155488
11
-2254.7304117235
21
1223.20998959764
31
0.000134835602338318
  0
LINE
 8
GROUP0
10
-2233.66975155172
20
1220.64932942585
30
0.00013673586647221
11
-2233.9804117235
21
1220.41095149196
31
0.000136371803038826
  0
LINE
 8
GROUP0
10
-2233.43137361782
20
1222.45998959763
30
0.000138466504739404
11
-2233.28152298407
21
1222.09821816528
31
0.000138217044248967
  0
LINE
 8
GROUP0
10
-2234.34218315584
20
1220.2611008582
30
0.000136061739568022
11
-2234.7304117235
21
1220.20998959763
31
0.000135826806385192
  0
LINE
 8
GROUP0
10
-2234.7304117235
20
1220.20998959763
30
0.000135826806385192
11
-2235.11864029115
21
1220.2611008582
31
0.000135683013794347
  0
LINE
 8
GROUP0
10
-2233.66975155172
20
1222.77064976941
30
0.000138627214733583
11
-2233.43137361782
21
1222.45998959763
31
0.000138466504739404
  0
LINE
 8
GROUP0
10
-2233.28152298407
20
1221.32176102998
30
0.000137524762730501
11
-2233.43137361782
21
1220.95998959763
31
0.000137129119554197
  0
LINE
 8
GROUP0
10
-2233.43137361782
20
1220.95998959763
30
0.000137129119554197
11
-2233.66975155172
21
1220.64932942585
31
0.00013673586647221
  0
LINE
 8
GROUP0
10
-2254.34218315584
20
1223.15887833707
30
0.000134979394929163
11
-2253.9804117235
21
1223.00902770332
31
0.00013502224770312
  0
LINE
 8
GROUP0
10
-2233.9804117235
20
1220.41095149196
30
0.000136371803038826
11
-2234.34218315584
21
1220.2611008582
31
0.000136061739568022
  0
LINE
 8
GROUP0
10
-2233.9804117235
20
1223.00902770331
30
0.000138688222121819
11
-2233.66975155172
21
1222.77064976941
31
0.000138627214733583
  0
LINE
 8
GROUP0
10
-2255.4804117235
20
1223.00902770331
30
0.000134290605684684
11
-2255.11864029115
21
1223.15887833707
31
0.000134600669155488
  0
LINE
 8
GROUP0
10
-2236.02944982917
20
1222.45998959763
30
0.000137199263588011
11
-2235.79107189528
21
1222.77064976941
31
0.000137592516669999
  0
LINE
 8
GROUP0
10
-2235.4804117235
20
1223.00902770331
30
0.000137956580103382
11
-2235.11864029115
21
1223.15887833706
31
0.000138266643574186
  0
LINE
 8
GROUP0
10
-2236.17930046293
20
1221.32176102998
30
0.000136111338893241
11
-2236.2304117235
21
1221.70998959763
31
0.000136432549552667
  0
LINE
 8
GROUP0
10
-2234.34218315585
20
1223.15887833706
30
0.000138645369347862
11
-2233.9804117235
21
1223.00902770331
31
0.000138688222121819
  0
LINE
 8
GROUP0
10
-2236.02944982917
20
1220.95998959763
30
0.000135861878402804
11
-2236.17930046293
21
1221.32176102998
31
0.000136111338893241
  0
LINE
 8
GROUP0
10
-2292.998360916
20
1319.24932262447
30
0.000232233191066372
11
-2293.3161981612
21
1318.8351090621
31
0.000231874493530071
  0
LINE
 8
GROUP0
10
-2294.21277363337
20
1318.31747097189
30
0.000231463861440911
11
-2294.73041172357
21
1318.24932262447
31
0.000231439910771863
  0
LINE
 8
GROUP0
10
-2236.2304117235
20
1221.70998959763
30
0.000136432549552667
11
-2236.17930046293
21
1222.09821816528
31
0.000136803620411707
  0
LINE
 8
GROUP0
10
-2296.14462528595
20
1318.8351090621
30
0.000232087616061427
11
-2296.46246253114
21
1319.24932262447
31
0.000232494211788742
  0
LINE
 8
GROUP0
10
-2235.11864029115
20
1220.2611008582
30
0.000135683013794347
11
-2235.4804117235
21
1220.41095149196
31
0.000135640161020389
  0
LINE
 8
GROUP0
10
-2235.4804117235
20
1220.41095149196
30
0.000135640161020389
11
-2235.79107189528
21
1220.64932942585
31
0.000135701168408625
  0
LINE
 8
GROUP0
10
-2295.24804981378
20
1318.31747097189
30
0.000231541869699964
11
-2295.73041172357
21
1318.5172718169
31
0.000231762789917334
  0
LINE
 8
GROUP0
10
-2235.79107189528
20
1220.64932942585
30
0.000135701168408625
11
-2236.02944982917
21
1220.95998959763
31
0.000135861878402804
  0
LINE
 8
GROUP0
10
-2234.7304117235
20
1223.20998959763
30
0.000138501576757016
11
-2234.34218315585
21
1223.15887833706
31
0.000138645369347862
  0
LINE
 8
GROUP0
10
-2235.11864029115
20
1223.15887833706
30
0.000138266643574186
11
-2234.7304117235
21
1223.20998959763
31
0.000138501576757016
  0
LINE
 8
GROUP0
10
-2293.3161981612
20
1318.8351090621
30
0.000231874493530071
11
-2293.73041172357
21
1318.5172718169
31
0.000231612089532363
  0
LINE
 8
GROUP0
10
-2293.73041172357
20
1318.5172718169
30
0.000231612089532363
11
-2294.21277363337
21
1318.31747097189
31
0.000231463861440911
  0
LINE
 8
GROUP0
10
-2236.17930046293
20
1222.09821816528
30
0.000136803620411707
11
-2236.02944982917
21
1222.45998959763
31
0.000137199263588011
  0
LINE
 8
GROUP0
10
-2235.79107189528
20
1222.77064976941
30
0.000137592516669999
11
-2235.4804117235
21
1223.00902770331
31
0.000137956580103382
  0
LINE
 8
GROUP0
10
-2296.66226337615
20
1437.68796146399
30
0.000332719855989305
11
-2296.46246253114
21
1438.17032337379
31
0.000333150402374388
  0
LINE
 8
GROUP0
10
-2293.73041172357
20
1435.43827256622
30
0.000330420698817901
11
-2294.21277363337
21
1435.23847172121
31
0.00033027247072645
  0
LINE
 8
GROUP0
10
-2429.74804853774
20
1277.77813794515
30
3.08290636892083e-005
11
-2430.23041044753
21
1277.97793879016
31
3.13565878981958e-005
  0
LINE
 8
GROUP0
10
-2292.73041172357
20
1437.17032337379
30
0.000331945400972539
11
-2292.798560071
21
1436.65268528358
31
0.000331472346725714
  0
LINE
 8
GROUP0
10
-2296.46246253114
20
1319.24932262447
30
0.000232494211788742
11
-2296.66226337615
21
1319.73168453427
31
0.000232954868241864
  0
LINE
 8
GROUP0
10
-2296.14462528595
20
1321.66353618684
30
0.000234700490613871
11
-2295.73041172357
21
1321.98137343204
31
0.000234962894623564
  0
LINE
 8
GROUP0
10
-2296.66226337615
20
1436.65268528358
30
0.000331763477527403
11
-2296.73041172357
21
1437.17032337379
31
0.000332246801742481
  0
LINE
 8
GROUP0
10
-2295.73041172357
20
1435.43827256622
30
0.000330571399202872
11
-2296.14462528595
21
1435.75610981142
31
0.000330896225358246
  0
LINE
 8
GROUP0
10
-2295.73041172357
20
1438.90237418136
30
0.000333771503908398
11
-2295.24804981378
21
1439.10217502637
31
0.000333919731999849
  0
LINE
 8
GROUP0
10
-2430.23041044753
20
1277.97793879016
30
3.13565878981958e-005
11
-2430.64462400991
21
1278.29577603536
31
3.18809253399055e-005
  0
LINE
 8
GROUP0
10
-2293.3161981612
20
1438.58453693616
30
0.000333295977379333
11
-2292.998360916
21
1438.17032337379
31
0.000332889381652018
  0
LINE
 8
GROUP0
10
-2292.798560071
20
1436.65268528358
30
0.000331472346725714
11
-2292.998360916
21
1436.17032337379
31
0.000331041800340631
  0
LINE
 8
GROUP0
10
-2295.24804981378
20
1439.10217502637
30
0.000333919731999849
11
-2294.73041172357
21
1439.17032337379
31
0.000333943682668897
  0
LINE
 8
GROUP0
10
-2296.46246253114
20
1321.24932262447
30
0.000234341793100129
11
-2296.14462528595
21
1321.66353618684
31
0.000234700490613871
  0
LINE
 8
GROUP0
10
-2296.73041172357
20
1320.24932262447
30
0.000233438192468222
11
-2296.66226337615
21
1320.76696071468
31
0.000233911246703766
  0
LINE
 8
GROUP0
10
-2294.73041172357
20
1435.17032337379
30
0.000330248520046122
11
-2295.24804981378
21
1435.23847172121
31
0.000330350478985503
  0
LINE
 8
GROUP0
10
-2296.14462528595
20
1438.58453693616
30
0.000333509099899409
11
-2295.73041172357
21
1438.90237418136
31
0.000333771503908398
  0
LINE
 8
GROUP0
10
-2296.14462528595
20
1435.75610981142
30
0.000330896225358246
11
-2296.46246253114
21
1436.17032337379
31
0.000331302821063001
  0
LINE
 8
GROUP0
10
-2294.21277363337
20
1435.23847172121
30
0.00033027247072645
11
-2294.73041172357
21
1435.17032337379
31
0.000330248520046122
  0
LINE
 8
GROUP0
10
-2295.73041172357
20
1318.5172718169
30
0.000231762789917334
11
-2296.14462528595
21
1318.8351090621
31
0.000232087616061427
  0
LINE
 8
GROUP0
10
-2295.24804981378
20
1435.23847172121
30
0.000330350478985503
11
-2295.73041172357
21
1435.43827256622
31
0.000330571399202872
  0
LINE
 8
GROUP0
10
-2296.73041172357
20
1437.17032337379
30
0.000332246801742481
11
-2296.66226337615
21
1437.68796146399
31
0.000332719855989305
  0
LINE
 8
GROUP0
10
-2429.23041044754
20
1277.70998959773
30
3.03343025945812e-005
11
-2429.74804853774
21
1277.77813794515
31
3.08290636892083e-005
  0
LINE
 8
GROUP0
10
-2294.73041172357
20
1439.17032337379
30
0.000333943682668897
11
-2294.21277363337
21
1439.10217502637
31
0.000333841723729517
  0
LINE
 8
GROUP0
10
-2293.3161981612
20
1435.75610981142
30
0.00033068310282689
11
-2293.73041172357
21
1435.43827256622
31
0.000330420698817901
  0
LINE
 8
GROUP0
10
-2296.66226337615
20
1319.73168453427
30
0.000232954868241864
11
-2296.73041172357
21
1320.24932262447
31
0.000233438192468222
  0
LINE
 8
GROUP0
10
-2295.73041172357
20
1321.98137343204
30
0.000234962894623564
11
-2295.24804981378
21
1322.18117427705
31
0.00023511112271431
  0
LINE
 8
GROUP0
10
-2293.73041172357
20
1438.90237418136
30
0.000333620803523427
11
-2293.3161981612
21
1438.58453693616
31
0.000333295977379333
  0
LINE
 8
GROUP0
10
-2296.46246253114
20
1436.17032337379
30
0.000331302821063001
11
-2296.66226337615
21
1436.65268528358
31
0.000331763477527403
  0
LINE
 8
GROUP0
10
-2294.73041172357
20
1318.24932262447
30
0.000231439910771863
11
-2295.24804981378
21
1318.31747097189
31
0.000231541869699964
  0
LINE
 8
GROUP0
10
-2296.66226337615
20
1320.76696071468
30
0.000233911246703766
11
-2296.46246253114
21
1321.24932262447
31
0.000234341793100129
  0
LINE
 8
GROUP0
10
-2296.46246253114
20
1438.17032337379
30
0.000333150402374388
11
-2296.14462528595
21
1438.58453693616
31
0.000333509099899409
  0
LINE
 8
GROUP0
10
-2427.29855879496
20
1279.19235150753
30
2.93349218426886e-005
11
-2427.49835963997
21
1278.70998959773
31
2.92777847484715e-005
  0
LINE
 8
GROUP0
10
-2427.23041044754
20
1279.70998959773
30
2.95266453368637e-005
11
-2427.29855879496
21
1279.19235150753
31
2.93349218426886e-005
  0
LINE
 8
GROUP0
10
-2431.23041044753
20
1279.70998959773
30
3.30930055224332e-005
11
-2431.16226210011
21
1280.22762768794
31
3.32847290166083e-005
  0
LINE
 8
GROUP0
10
-2428.71277235733
20
1277.77813794515
30
2.99060217473057e-005
11
-2429.23041044754
21
1277.70998959773
31
3.03343025945812e-005
  0
LINE
 8
GROUP0
10
-2427.29855879496
20
1477.19201610099
30
2.22623982470249e-005
11
-2427.49835963997
21
1476.7096541912
31
2.22052611528079e-005
  0
LINE
 8
GROUP0
10
-2292.998360916
20
1436.17032337379
30
0.000331041800340631
11
-2293.3161981612
21
1435.75610981142
31
0.00033068310282689
  0
LINE
 8
GROUP0
10
-2427.23041044754
20
1477.70965419119
30
2.24541217412e-005
11
-2427.29855879496
21
1477.19201610099
31
2.22623982470249e-005
  0
LINE
 8
GROUP0
10
-2429.74804853774
20
1475.77780253862
30
2.37565400935447e-005
11
-2430.23041044754
21
1475.97760338363
31
2.42840643025322e-005
  0
LINE
 8
GROUP0
10
-2427.81619688516
20
1278.29577603536
30
2.93591278667515e-005
11
-2428.23041044754
21
1277.97793879016
31
2.95734078223309e-005
  0
LINE
 8
GROUP0
10
-2427.81619688516
20
1476.29544062882
30
2.22866042936476e-005
11
-2428.23041044754
21
1475.97760338363
31
2.25008842266672e-005
  0
LINE
 8
GROUP0
10
-2428.71277235733
20
1281.64184125031
30
3.17905871813684e-005
11
-2428.23041044753
21
1281.4420404053
31
3.1263062961806e-005
  0
LINE
 8
GROUP0
10
-2428.23041044753
20
1281.4420404053
30
3.1263062961806e-005
11
-2427.81619688516
21
1281.1242031601
31
3.07387255193914e-005
  0
LINE
 8
GROUP0
10
-2427.81619688516
20
1281.1242031601
30
3.07387255193914e-005
11
-2427.49835963997
21
1280.70998959773
31
3.02533076004585e-005
  0
LINE
 8
GROUP0
10
-2427.29855879496
20
1478.2272922814
30
2.27673660284478e-005
11
-2427.23041044754
21
1477.70965419119
31
2.24541217412e-005
  0
LINE
 8
GROUP0
10
-2428.71277235733
20
1475.77780253862
30
2.2833498151642e-005
11
-2429.23041044754
21
1475.7096541912
31
2.32617789989176e-005
  0
LINE
 8
GROUP0
10
-2430.9624612551
20
1280.70998959773
30
3.33418661108253e-005
11
-2430.64462400991
21
1281.1242031601
31
3.32605229925453e-005
  0
LINE
 8
GROUP0
10
-2430.9624612551
20
1278.70998959773
30
3.23663432588384e-005
11
-2431.16226210011
21
1279.19235150752
31
3.27797612351854e-005
  0
LINE
 8
GROUP0
10
-2427.29855879496
20
1280.22762768793
30
2.98398896241114e-005
11
-2427.23041044754
21
1279.70998959773
31
2.95266453368637e-005
  0
LINE
 8
GROUP0
10
-2430.64462400991
20
1281.1242031601
30
3.32605229925453e-005
11
-2430.23041044753
21
1281.4420404053
31
3.3046243037671e-005
  0
LINE
 8
GROUP0
10
-2292.798560071
20
1437.68796146399
30
0.000332428725198897
11
-2292.73041172357
21
1437.17032337379
31
0.000331945400972539
  0
LINE
 8
GROUP0
10
-2431.16226210011
20
1279.19235150752
30
3.27797612351854e-005
11
-2431.23041044753
21
1279.70998959773
31
3.30930055224332e-005
  0
LINE
 8
GROUP0
10
-2427.49835963997
20
1478.7096541912
30
2.31807840047948e-005
11
-2427.29855879496
21
1478.2272922814
31
2.27673660284478e-005
  0
LINE
 8
GROUP0
10
-2292.998360916
20
1438.17032337379
30
0.000332889381652018
11
-2292.798560071
21
1437.68796146399
31
0.000332428725198897
  0
LINE
 8
GROUP0
10
-2427.49835963997
20
1280.70998959773
30
3.02533076004585e-005
11
-2427.29855879496
21
1280.22762768793
31
2.98398896241114e-005
  0
LINE
 8
GROUP0
10
-2429.74804853774
20
1281.64184125031
30
3.2713629123271e-005
11
-2429.23041044753
21
1281.70998959773
31
3.22853482985552e-005
  0
LINE
 8
GROUP0
10
-2427.49835963997
20
1476.7096541912
30
2.22052611528079e-005
11
-2427.81619688516
21
1476.29544062882
31
2.22866042936476e-005
  0
LINE
 8
GROUP0
10
-2294.21277363337
20
1439.10217502637
30
0.000333841723729517
11
-2293.73041172357
21
1438.90237418136
31
0.000333620803523427
  0
LINE
 8
GROUP0
10
-2427.49835963997
20
1278.70998959773
30
2.92777847484715e-005
11
-2427.81619688516
21
1278.29577603536
31
2.93591278667515e-005
  0
LINE
 8
GROUP0
10
-2430.23041044753
20
1281.4420404053
30
3.3046243037671e-005
11
-2429.74804853774
21
1281.64184125031
31
3.2713629123271e-005
  0
LINE
 8
GROUP0
10
-2430.64462400991
20
1278.29577603536
30
3.18809253399055e-005
11
-2430.9624612551
21
1278.70998959773
31
3.23663432588384e-005
  0
LINE
 8
GROUP0
10
-2429.23041044753
20
1281.70998959773
30
3.22853482985552e-005
11
-2428.71277235733
21
1281.64184125031
31
3.17905871813684e-005
  0
LINE
 8
GROUP0
10
-2431.16226210011
20
1280.22762768794
30
3.32847290166083e-005
11
-2430.9624612551
21
1280.70998959773
31
3.33418661108253e-005
  0
LINE
 8
GROUP0
10
-2429.74804853774
20
1479.64150584377
30
2.56411055276073e-005
11
-2429.23041044753
21
1479.70965419119
31
2.52128247028915e-005
  0
LINE
 8
GROUP0
10
-2431.23041044753
20
1477.7096541912
30
2.60204819267695e-005
11
-2431.16226210011
21
1478.2272922814
31
2.62122054209446e-005
  0
LINE
 8
GROUP0
10
-2429.74804853774
20
1490.27780253862
30
3.08290807584655e-005
11
-2430.23041044753
21
1490.47760338363
31
3.1356604967453e-005
  0
LINE
 8
GROUP0
10
-2430.23041044753
20
1490.47760338363
30
3.1356604967453e-005
11
-2430.64462400991
21
1490.79544062882
31
3.18809424091626e-005
  0
LINE
 8
GROUP0
10
-2430.6446240099
20
1479.12386775357
30
2.61879993968817e-005
11
-2430.23041044753
21
1479.44170499876
31
2.59737194413023e-005
  0
LINE
 8
GROUP0
10
-2430.64462400991
20
1476.29544062883
30
2.48084017442418e-005
11
-2430.9624612551
21
1476.7096541912
31
2.52938196631747e-005
  0
LINE
 8
GROUP0
10
-2431.23041044753
20
1492.20965419119
30
3.30930225916903e-005
11
-2431.16226210011
21
1492.7272922814
31
3.32847460858654e-005
  0
LINE
 8
GROUP0
10
-2427.81619688516
20
1493.62386775357
30
3.07387425886485e-005
11
-2427.49835963997
21
1493.20965419119
31
3.02533246697156e-005
  0
LINE
 8
GROUP0
10
-2430.64462400991
20
1493.62386775356
30
3.32605400618025e-005
11
-2430.23041044753
21
1493.94170499876
31
3.30462601062231e-005
  0
LINE
 8
GROUP0
10
-2430.9624612551
20
1478.70965419119
30
2.62693425151617e-005
11
-2430.6446240099
21
1479.12386775357
31
2.61879993968817e-005
  0
LINE
 8
GROUP0
10
-2430.9624612551
20
1493.20965419119
30
3.33418831800825e-005
11
-2430.64462400991
21
1493.62386775356
31
3.32605400618025e-005
  0
LINE
 8
GROUP0
10
-2431.16226210011
20
1492.7272922814
30
3.32847460858654e-005
11
-2430.9624612551
21
1493.20965419119
31
3.33418831800825e-005
  0
LINE
 8
GROUP0
10
-2431.16226210011
20
1477.19201610099
30
2.57072376395218e-005
11
-2431.23041044753
21
1477.7096541912
31
2.60204819267695e-005
  0
LINE
 8
GROUP0
10
-2431.16226210011
20
1478.2272922814
30
2.62122054209446e-005
11
-2430.9624612551
21
1478.70965419119
31
2.62693425151617e-005
  0
LINE
 8
GROUP0
10
-2430.9624612551
20
1491.20965419119
30
3.23663603280955e-005
11
-2431.16226210011
21
1491.69201610099
31
3.27797783044426e-005
  0
LINE
 8
GROUP0
10
-2428.71277235733
20
1479.64150584377
30
2.47180635857047e-005
11
-2428.23041044753
21
1479.44170499876
31
2.41905393654374e-005
  0
LINE
 8
GROUP0
10
-2428.23041044753
20
1479.44170499876
30
2.41905393654374e-005
11
-2427.81619688516
21
1479.12386775357
31
2.36662019237277e-005
  0
LINE
 8
GROUP0
10
-2430.64462400991
20
1490.79544062882
30
3.18809424091626e-005
11
-2430.9624612551
21
1491.20965419119
31
3.23663603280955e-005
  0
LINE
 8
GROUP0
10
-2429.23041044753
20
1494.20965419119
30
3.22853653678123e-005
11
-2428.71277235733
21
1494.14150584377
31
3.17906042506255e-005
  0
LINE
 8
GROUP0
10
-2430.9624612551
20
1476.7096541912
30
2.52938196631747e-005
11
-2431.16226210011
21
1477.19201610099
31
2.57072376395218e-005
  0
LINE
 8
GROUP0
10
-2428.71277235733
20
1494.14150584377
30
3.17906042506255e-005
11
-2428.23041044753
21
1493.94170499876
31
3.12630800303582e-005
  0
LINE
 8
GROUP0
10
-2429.23041044753
20
1479.70965419119
30
2.52128247028915e-005
11
-2428.71277235733
21
1479.64150584377
31
2.47180635857047e-005
  0
LINE
 8
GROUP0
10
-2429.23041044754
20
1490.20965419119
30
3.03343196638384e-005
11
-2429.74804853774
21
1490.27780253862
31
3.08290807584655e-005
  0
LINE
 8
GROUP0
10
-2427.49835963997
20
1493.20965419119
30
3.02533246697156e-005
11
-2427.29855879496
21
1492.7272922814
31
2.98399066933686e-005
  0
LINE
 8
GROUP0
10
-2427.81619688516
20
1479.12386775357
30
2.36662019237277e-005
11
-2427.49835963997
21
1478.7096541912
31
2.31807840047948e-005
  0
LINE
 8
GROUP0
10
-2429.23041044754
20
1475.7096541912
30
2.32617789989176e-005
11
-2429.74804853774
21
1475.77780253862
31
2.37565400935447e-005
  0
LINE
 8
GROUP0
10
-2430.23041044753
20
1479.44170499876
30
2.59737194413023e-005
11
-2429.74804853774
21
1479.64150584377
31
2.56411055276073e-005
  0
LINE
 8
GROUP0
10
-2427.29855879496
20
1492.7272922814
30
2.98399066933686e-005
11
-2427.23041044754
21
1492.20965419119
31
2.95266624061208e-005
  0
LINE
 8
GROUP0
10
-2430.23041044753
20
1493.94170499876
30
3.30462601062231e-005
11
-2429.74804853774
21
1494.14150584377
31
3.27136461925281e-005
  0
LINE
 8
GROUP0
10
-2428.23041044754
20
1277.97793879016
30
2.95734078223309e-005
11
-2428.71277235733
21
1277.77813794515
31
2.99060217473057e-005
  0
LINE
 8
GROUP0
10
-2430.23041044754
20
1475.97760338363
30
2.42840643025322e-005
11
-2430.64462400991
21
1476.29544062883
31
2.48084017442418e-005
  0
LINE
 8
GROUP0
10
-2428.23041044754
20
1475.97760338363
30
2.25008842266672e-005
11
-2428.71277235733
21
1475.77780253862
31
2.2833498151642e-005
  0
LINE
 8
GROUP0
10
-2244.7304117235
20
1231.70998959763
30
0.000138278267023423
11
-2244.73041172365
21
1525.70965640063
31
0.000311565331675884
  0
LINE
 8
GROUP0
10
-2039.16226465214
20
1492.7272922812
30
0.000176990942825089
11
-2038.96246380713
21
1493.20965419099
31
0.000177048079919306
  0
LINE
 8
GROUP0
10
-2038.96246380713
20
1491.20965419099
30
0.000176072557067319
11
-2039.16226465214
21
1491.69201610079
31
0.000176485975043666
  0
LINE
 8
GROUP0
10
-2048.7305244422
20
1525.7096562478
30
0.000441052855418239
11
-2048.73041299952
21
1231.70998959753
31
0.000210131365393035
  0
LINE
 8
GROUP0
10
-2082.23058981471
20
1190.20965848615
30
0.000273626314170788
11
-2082.23058981477
21
1170.20966711481
31
0.000189472214013908
  0
LINE
 8
GROUP0
10
-2440.73041044749
20
1231.70998959773
30
6.64251686538109e-005
11
-2440.73052189017
21
1515.70965624799
31
0.000297346657875325
  0
LINE
 8
GROUP0
10
-2430.73052189018
20
1525.70965624798
30
0.000311140172582264
11
-2440.73052189017
21
1525.70965624798
31
0.000311140172582264
  0
LINE
 8
GROUP0
10
-2174.7305650188
20
1525.70966734489
30
0.000543873354658037
11
-2244.73041172365
21
1525.70965640063
31
0.000311565331675884
  0
LINE
 8
GROUP0
10
-2499.23069605523
20
1516.70969252364
30
0.000284113334624153
11
-2499.23069605523
21
1521.70969252364
31
0.000286004994926098
  0
LINE
 8
GROUP0
10
-2469.23073367788
20
1551.70971818931
30
0.000306377813345865
11
-2499.23069605523
21
1521.70969252364
31
0.000286004994926098
  0
LINE
 8
GROUP0
10
-2038.23041299956
20
1490.47760338342
30
0.000175062801706677
11
-2038.64462656194
21
1490.79544062862
31
0.000175587139148387
  0
LINE
 8
GROUP0
10
-2244.7304117235
20
1231.70998959763
30
0.000138278267023423
11
-2440.73041044749
21
1231.70998959773
31
6.64251686538109e-005
  0
LINE
 8
GROUP0
10
-2440.73052189017
20
1525.70965624798
30
0.000311140172582264
11
-2440.73052189017
21
1515.70965624799
31
0.000297346657875325
  0
LINE
 8
GROUP0
10
-2038.64462656194
20
1490.79544062862
30
0.000175587139148387
11
-2038.96246380713
21
1491.20965419099
31
0.000176072557067319
  0
LINE
 8
GROUP0
10
-2000.23050418822
20
1521.70982456557
30
0.000540918276514474
11
-2030.2305067894
21
1551.70982620779
31
0.000563663264557196
  0
LINE
 8
GROUP0
10
-2037.74805108977
20
1490.27780253841
30
0.000174535277497689
11
-2038.23041299956
21
1490.47760338342
31
0.000175062801706677
  0
LINE
 8
GROUP0
10
-2000.23050416797
20
1516.70982456557
30
0.000538421067562816
11
-2000.23050418822
21
1521.70982456557
31
0.000540918276514474
  0
LINE
 8
GROUP0
10
-2244.73041172365
20
1525.70965640063
30
0.000311565331675884
11
-2314.73056281677
21
1525.70964545632
31
0.000425831134093685
  0
LINE
 8
GROUP0
10
-2417.23018534794
20
1190.20954704373
30
1.71719084016086e-005
11
-2082.23058981471
21
1190.20965848615
31
0.000273626314170788
  0
LINE
 8
GROUP0
10
-2459.23073367788
20
1551.7097181893
30
0.000311209290672793
11
-2469.23073367788
21
1551.70971818931
31
0.000306377813345865
  0
LINE
 8
GROUP0
10
-2037.23041299957
20
1490.20965419099
30
0.000174040516403062
11
-2037.74805108977
21
1490.27780253841
31
0.000174535277497689
  0
LINE
 8
GROUP0
10
-2039.23041299956
20
1492.20965419099
30
0.000176799219330914
11
-2039.16226465214
21
1492.7272922812
31
0.000176990942825089
  0
LINE
 8
GROUP0
10
-2038.96246380713
20
1493.20965419099
30
0.000177048079919306
11
-2038.64462656194
21
1493.62386775336
31
0.000176966736801026
  0
LINE
 8
GROUP0
10
-2038.64462656194
20
1493.62386775336
30
0.000176966736801026
11
-2038.23041299956
21
1493.94170499856
31
0.000176752456845447
  0
LINE
 8
GROUP0
10
-2038.23041299956
20
1493.94170499856
30
0.000176752456845447
11
-2037.74805108976
21
1494.14150584357
31
0.000176419842931752
  0
LINE
 8
GROUP0
10
-2040.2305067894
20
1551.70982608945
30
0.000562769772367272
11
-2030.2305067894
21
1551.70982620779
31
0.000563663264557196
  0
LINE
 8
GROUP0
10
-2174.7305650188
20
1525.70966734489
30
0.000543873354658037
11
-2058.7305244422
21
1525.7096562478
31
0.000445091142431558
  0
LINE
 8
GROUP0
10
-2459.23076824623
20
1170.20960122063
30
2.54830795634264e-005
11
-2459.23018665728
21
1194.7096595161
31
2.55695746300466e-005
  0
LINE
 8
GROUP0
10
-2417.23076823349
20
1170.2095943144
30
1.13337034528316e-005
11
-2417.23018534794
21
1190.20954704373
31
1.71719084016086e-005
  0
LINE
 8
GROUP0
10
-2048.73041299952
20
1231.70998959753
30
0.000210131365393035
11
-2244.7304117235
21
1231.70998959763
31
0.000138278267023423
  0
LINE
 8
GROUP0
10
-2430.73052189018
20
1525.70965624798
30
0.000311140172582264
11
-2314.73056281677
21
1525.70964545632
31
0.000425831134093685
  0
LINE
 8
GROUP0
10
-2035.29856134699
20
1492.72729228119
30
0.000173546103432592
11
-2035.23041299957
21
1492.20965419099
31
0.000173232859145345
  0
LINE
 8
GROUP0
10
-2035.498362192
20
1478.709654191
30
0.000166886980744019
11
-2035.29856134699
21
1478.2272922812
31
0.000166473562767672
  0
LINE
 8
GROUP0
10
-2035.81619943719
20
1479.12386775337
30
0.000167372398662952
11
-2035.498362192
21
1478.709654191
31
0.000166886980744019
  0
LINE
 8
GROUP0
10
-2035.81619943719
20
1490.79544062862
30
0.000173065341675233
11
-2036.23041299957
21
1490.47760338342
31
0.000173279621630812
  0
LINE
 8
GROUP0
10
-2036.23041299957
20
1490.47760338342
30
0.000173279621630812
11
-2036.71277490936
21
1490.27780253841
31
0.000173612235555787
  0
LINE
 8
GROUP0
10
-2058.7305244422
20
1525.7096562478
30
0.000445091142431558
11
-2048.7305244422
21
1525.7096562478
31
0.000441052855418239
  0
LINE
 8
GROUP0
10
-2038.96246380713
20
1476.709654191
30
0.000169000016402399
11
-2039.16226465214
21
1477.19201610079
31
0.000169413434378746
  0
LINE
 8
GROUP0
10
-2036.23041299957
20
1475.97760338343
30
0.000166207080965891
11
-2036.71277490936
21
1475.77780253842
31
0.000166539694890866
  0
LINE
 8
GROUP0
10
-2038.64462656193
20
1479.12386775337
30
0.000169894196136106
11
-2038.23041299956
21
1479.44170499856
31
0.000169679916180526
  0
LINE
 8
GROUP0
10
-2039.16226465214
20
1478.2272922812
30
0.000169918402160169
11
-2038.96246380713
21
1478.70965419099
31
0.000169975539254386
  0
LINE
 8
GROUP0
10
-2037.23041299956
20
1494.20965419099
30
0.000175991562107036
11
-2036.71277490936
21
1494.14150584357
31
0.000175496800989849
  0
LINE
 8
GROUP0
10
-2039.16226465214
20
1477.19201610079
30
0.000169413434378746
11
-2039.23041299956
21
1477.709654191
31
0.000169726678665993
  0
LINE
 8
GROUP0
10
-2035.29856134699
20
1478.2272922812
30
0.000166473562767672
11
-2035.23041299957
21
1477.70965419099
31
0.000166160318480424
  0
LINE
 8
GROUP0
10
-2036.23041299956
20
1493.94170499856
30
0.000174969276769582
11
-2035.81619943719
21
1493.62386775336
31
0.000174444939327872
  0
LINE
 8
GROUP0
10
-2038.96246380713
20
1478.70965419099
30
0.000169975539254386
11
-2038.64462656193
21
1479.12386775337
31
0.000169894196136106
  0
LINE
 8
GROUP0
10
-2035.81619943719
20
1493.62386775336
30
0.000174444939327872
11
-2035.49836219199
21
1493.20965419099
31
0.00017395952140894
  0
LINE
 8
GROUP0
10
-2035.23041299957
20
1492.20965419099
30
0.000173232859145345
11
-2035.29856134699
21
1491.69201610079
31
0.00017304113565117
  0
LINE
 8
GROUP0
10
-2036.71277490936
20
1494.14150584357
30
0.000175496800989849
11
-2036.23041299956
21
1493.94170499856
31
0.000174969276769582
  0
LINE
 8
GROUP0
10
-2035.498362192
20
1491.20965419099
30
0.000172983998556953
11
-2035.81619943719
21
1490.79544062862
31
0.000173065341675233
  0
LINE
 8
GROUP0
10
-2035.498362192
20
1476.70965419099
30
0.000165911457892032
11
-2035.81619943719
21
1476.29544062862
31
0.000165992801032872
  0
LINE
 8
GROUP0
10
-2038.64462656194
20
1476.29544062862
30
0.000168514598483466
11
-2038.96246380713
21
1476.709654191
31
0.000169000016402399
  0
LINE
 8
GROUP0
10
-2035.23041299957
20
1477.70965419099
30
0.000166160318480424
11
-2035.29856134699
21
1477.19201610079
31
0.000165968594986249
  0
LINE
 8
GROUP0
10
-2037.74805108976
20
1494.14150584357
30
0.000176419842931752
11
-2037.23041299956
21
1494.20965419099
31
0.000175991562107036
  0
LINE
 8
GROUP0
10
-2036.71277490936
20
1475.77780253842
30
0.000166539694890866
11
-2037.23041299957
21
1475.709654191
31
0.000166967975738141
  0
LINE
 8
GROUP0
10
-2037.23041299957
20
1475.709654191
30
0.000166967975738141
11
-2037.74805108977
21
1475.77780253842
31
0.000167462736832769
  0
LINE
 8
GROUP0
10
-2037.74805108977
20
1475.77780253842
30
0.000167462736832769
11
-2038.23041299956
21
1475.97760338343
31
0.000167990261041756
  0
LINE
 8
GROUP0
10
-2035.81619943719
20
1476.29544062862
30
0.000165992801032872
11
-2036.23041299957
21
1475.97760338343
31
0.000166207080965891
  0
LINE
 8
GROUP0
10
-2035.29856134699
20
1477.19201610079
30
0.000165968594986249
11
-2035.498362192
21
1476.70965419099
31
0.000165911457892032
  0
LINE
 8
GROUP0
10
-2035.29856134699
20
1491.69201610079
30
0.00017304113565117
11
-2035.498362192
21
1491.20965419099
31
0.000172983998556953
  0
LINE
 8
GROUP0
10
-2036.71277490936
20
1490.27780253841
30
0.000173612235555787
11
-2037.23041299957
21
1490.20965419099
31
0.000174040516403062
  0
LINE
 8
GROUP0
10
-2039.16226465214
20
1491.69201610079
30
0.000176485975043666
11
-2039.23041299956
21
1492.20965419099
31
0.000176799219330914
  0
LINE
 8
GROUP0
10
-2035.49836219199
20
1493.20965419099
30
0.00017395952140894
11
-2035.29856134699
21
1492.72729228119
31
0.000173546103432592
  0
LINE
 8
GROUP0
10
-2035.498362192
20
1264.20998959753
30
0.000165911440822775
11
-2035.81619943719
21
1263.79577603516
31
0.000165992783963614
  0
LINE
 8
GROUP0
10
-2038.23041299956
20
1479.44170499856
30
0.000169679916180526
11
-2037.74805108977
21
1479.64150584357
31
0.000169347302266831
  0
LINE
 8
GROUP0
10
-2035.29856134699
20
1265.72762768774
30
0.000166473545698415
11
-2035.23041299957
21
1265.20998959753
31
0.000166160301411167
  0
LINE
 8
GROUP0
10
-2038.64462656194
20
1263.79577603516
30
0.000168514581414209
11
-2038.96246380713
21
1264.20998959753
31
0.000168999999333141
  0
LINE
 8
GROUP0
10
-2037.74805108977
20
1479.64150584357
30
0.000169347302266831
11
-2037.23041299956
21
1479.70965419099
31
0.000168919021442115
  0
LINE
 8
GROUP0
10
-2036.71277490936
20
1479.64150584357
30
0.000168424260324929
11
-2036.23041299956
21
1479.44170499856
31
0.000167896736104661
  0
LINE
 8
GROUP0
10
-2039.23041299956
20
1265.20998959753
30
0.000169726661596736
11
-2039.16226465214
21
1265.72762768774
31
0.000169918385090911
  0
LINE
 8
GROUP0
10
-2037.23041299957
20
1263.20998959753
30
0.000166967958668884
11
-2037.74805108977
21
1263.27813794495
31
0.000167462719763511
  0
LINE
 8
GROUP0
10
-2038.96246380713
20
1266.20998959753
30
0.000169975522185128
11
-2038.64462656193
21
1266.6242031599
31
0.000169894179066848
  0
LINE
 8
GROUP0
10
-2038.23041299956
20
1263.47793878996
30
0.000167990243972499
11
-2038.64462656194
21
1263.79577603516
31
0.000168514581414209
  0
LINE
 8
GROUP0
10
-2039.16226465214
20
1265.72762768774
30
0.000169918385090911
11
-2038.96246380713
21
1266.20998959753
31
0.000169975522185128
  0
LINE
 8
GROUP0
10
-2037.74805108977
20
1267.14184125011
30
0.000169347285197574
11
-2037.23041299956
21
1267.20998959753
31
0.000168919004372858
  0
LINE
 8
GROUP0
10
-2036.23041299956
20
1479.44170499856
30
0.000167896736104661
11
-2035.81619943719
21
1479.12386775337
31
0.000167372398662952
  0
LINE
 8
GROUP0
10
-2037.23041299956
20
1267.20998959753
30
0.000168919004372858
11
-2036.71277490936
21
1267.14184125011
31
0.000168424243255671
  0
LINE
 8
GROUP0
10
-2035.29856134699
20
1264.69235150732
30
0.000165968577916992
11
-2035.498362192
21
1264.20998959753
31
0.000165911440822775
  0
LINE
 8
GROUP0
10
-2038.64462656193
20
1266.6242031599
30
0.000169894179066848
11
-2038.23041299956
21
1266.9420404051
31
0.000169679899111974
  0
LINE
 8
GROUP0
10
-2038.23041299956
20
1266.9420404051
30
0.000169679899111974
11
-2037.74805108977
21
1267.14184125011
31
0.000169347285197574
  0
LINE
 8
GROUP0
10
-2036.71277490936
20
1267.14184125011
30
0.000168424243255671
11
-2036.23041299956
21
1266.9420404051
31
0.000167896719036109
  0
LINE
 8
GROUP0
10
-2037.74805108977
20
1263.27813794495
30
0.000167462719763511
11
-2038.23041299956
21
1263.47793878996
31
0.000167990243972499
  0
LINE
 8
GROUP0
10
-2039.23041299956
20
1477.709654191
30
0.000169726678665993
11
-2039.16226465214
21
1478.2272922812
31
0.000169918402160169
  0
LINE
 8
GROUP0
10
-2038.23041299956
20
1475.97760338343
30
0.000167990261041756
11
-2038.64462656194
21
1476.29544062862
31
0.000168514598483466
  0
LINE
 8
GROUP0
10
-2035.23041299957
20
1265.20998959753
30
0.000166160301411167
11
-2035.29856134699
21
1264.69235150732
31
0.000165968577916992
  0
LINE
 8
GROUP0
10
-2039.16226465214
20
1264.69235150733
30
0.000169413417309489
11
-2039.23041299956
21
1265.20998959753
31
0.000169726661596736
  0
LINE
 8
GROUP0
10
-2035.498362192
20
1266.20998959753
30
0.000166886963674762
11
-2035.29856134699
21
1265.72762768774
31
0.000166473545698415
  0
LINE
 8
GROUP0
10
-2038.23041299956
20
1277.97793878996
30
0.00017506278463742
11
-2038.64462656194
21
1278.29577603515
31
0.000175587122079129
  0
LINE
 8
GROUP0
10
-2035.81619943719
20
1266.6242031599
30
0.000167372381593694
11
-2035.498362192
21
1266.20998959753
31
0.000166886963674762
  0
LINE
 8
GROUP0
10
-2038.96246380713
20
1264.20998959753
30
0.000168999999333141
11
-2039.16226465214
21
1264.69235150733
31
0.000169413417309489
  0
LINE
 8
GROUP0
10
-2036.23041299956
20
1266.9420404051
30
0.000167896719036109
11
-2035.81619943719
21
1266.6242031599
31
0.000167372381593694
  0
LINE
 8
GROUP0
10
-2037.23041299956
20
1479.70965419099
30
0.000168919021442115
11
-2036.71277490936
21
1479.64150584357
31
0.000168424260324929
  0
LINE
 8
GROUP0
10
-2036.71277490936
20
1263.27813794496
30
0.000166539677821609
11
-2037.23041299957
21
1263.20998959753
31
0.000166967958668884
  0
LINE
 8
GROUP0
10
-2035.81619943719
20
1263.79577603516
30
0.000165992783963614
11
-2036.23041299957
21
1263.47793878996
31
0.000166207063896634
  0
LINE
 8
GROUP0
10
-2036.23041299957
20
1263.47793878996
30
0.000166207063896634
11
-2036.71277490936
21
1263.27813794496
31
0.000166539677821609
  0
LINE
 8
GROUP0
10
-2037.74805108977
20
1277.77813794495
30
0.000174535260428432
11
-2038.23041299956
21
1277.97793878996
31
0.00017506278463742
  0
LINE
 8
GROUP0
10
-2038.96246380713
20
1280.70998959753
30
0.000177048062850049
11
-2038.64462656194
21
1281.1242031599
31
0.000176966719731769
  0
LINE
 8
GROUP0
10
-2037.74805108976
20
1281.6418412501
30
0.000176419825862495
11
-2037.23041299956
21
1281.70998959753
31
0.000175991545037779
  0
LINE
 8
GROUP0
10
-2035.49836219199
20
1280.70998959753
30
0.000173959504339682
11
-2035.29856134699
21
1280.22762768773
31
0.000173546086363335
  0
LINE
 8
GROUP0
10
-2450.81619688507
20
1281.12420316007
30
0.00012501812271854
11
-2450.49835963988
21
1280.70998959769
31
0.000124309063657912
  0
LINE
 8
GROUP0
10
-2450.49835963988
20
1280.70998959769
30
0.000124309063657912
11
-2450.29855879487
21
1280.2276276879
31
0.000123760989010863
  0
LINE
 8
GROUP0
10
-2035.29856134699
20
1279.19235150733
30
0.000173041118581912
11
-2035.498362192
21
1278.70998959753
31
0.000172983981487695
  0
LINE
 8
GROUP0
10
-2039.16226465214
20
1280.22762768773
30
0.000176990925755832
11
-2038.96246380713
21
1280.70998959753
31
0.000177048062850049
  0
LINE
 8
GROUP0
10
-2035.498362192
20
1278.70998959753
30
0.000172983981487695
11
-2035.81619943719
21
1278.29577603516
31
0.000173065324605975
  0
LINE
 8
GROUP0
10
-2039.16226465214
20
1279.19235150732
30
0.000176485957974409
11
-2039.23041299956
21
1279.70998959753
31
0.000176799202261657
  0
LINE
 8
GROUP0
10
-2037.23041299957
20
1277.70998959753
30
0.000174040499333805
11
-2037.74805108977
21
1277.77813794495
31
0.000174535260428432
  0
LINE
 8
GROUP0
10
-2450.23041044744
20
1279.70998959769
30
0.000123411248942995
11
-2450.29855879487
21
1279.19235150749
31
0.0001232836778364
  0
LINE
 8
GROUP0
10
-2038.64462656194
20
1278.29577603515
30
0.000175587122079129
11
-2038.96246380713
21
1278.70998959753
31
0.000176072539998062
  0
LINE
 8
GROUP0
10
-2035.81619943719
20
1278.29577603516
30
0.000173065324605975
11
-2036.23041299957
21
1277.97793878996
31
0.000173279604561555
  0
LINE
 8
GROUP0
10
-2036.23041299956
20
1281.4420404051
30
0.00017496925970103
11
-2035.81619943719
21
1281.1242031599
31
0.000174444922258615
  0
LINE
 8
GROUP0
10
-2038.64462656194
20
1281.1242031599
30
0.000176966719731769
11
-2038.23041299956
21
1281.44204040509
31
0.000176752439776895
  0
LINE
 8
GROUP0
10
-2038.96246380713
20
1278.70998959753
30
0.000176072539998062
11
-2039.16226465214
21
1279.19235150732
31
0.000176485957974409
  0
LINE
 8
GROUP0
10
-2451.23041044744
20
1277.97793879013
30
0.000124242730652996
11
-2451.71277235724
21
1277.77813794512
31
0.000124936881629467
  0
LINE
 8
GROUP0
10
-2450.49835963988
20
1278.70998959769
30
0.000123386969379846
11
-2450.81619688507
21
1278.29577603532
31
0.000123714084443499
  0
LINE
 8
GROUP0
10
-2036.71277490936
20
1281.6418412501
30
0.000175496783920592
11
-2036.23041299956
21
1281.4420404051
31
0.00017496925970103
  0
LINE
 8
GROUP0
10
-2039.23041299956
20
1279.70998959753
30
0.000176799202261657
11
-2039.16226465214
21
1280.22762768773
31
0.000176990925755832
  0
LINE
 8
GROUP0
10
-2038.23041299956
20
1281.44204040509
30
0.000176752439776895
11
-2037.74805108976
21
1281.6418412501
31
0.000176419825862495
  0
LINE
 8
GROUP0
10
-2035.29856134699
20
1280.22762768773
30
0.000173546086363335
11
-2035.23041299957
21
1279.70998959753
31
0.000173232842076088
  0
LINE
 8
GROUP0
10
-2450.29855879487
20
1280.2276276879
30
0.000123760989010863
11
-2450.23041044744
21
1279.70998959769
31
0.000123411248942995
  0
LINE
 8
GROUP0
10
-2036.23041299957
20
1277.97793878996
30
0.000173279604561555
11
-2036.71277490936
21
1277.77813794495
31
0.00017361221848653
  0
LINE
 8
GROUP0
10
-2451.71277235724
20
1281.64184125027
30
0.000126718231078971
11
-2451.23041044744
21
1281.44204040526
31
0.00012583984486999
  0
LINE
 8
GROUP0
10
-2036.71277490936
20
1277.77813794495
30
0.00017361221848653
11
-2037.23041299957
21
1277.70998959753
31
0.000174040499333805
  0
LINE
 8
GROUP0
10
-2452.23041044744
20
1281.70998959769
30
0.000127593420879912
11
-2451.71277235724
21
1281.64184125027
31
0.000126718231078971
  0
LINE
 8
GROUP0
10
-2037.23041299956
20
1281.70998959753
30
0.000175991545037779
11
-2036.71277490936
21
1281.6418412501
31
0.000175496783920592
  0
LINE
 8
GROUP0
10
-2035.81619943719
20
1281.1242031599
30
0.000174444922258615
11
-2035.49836219199
21
1280.70998959753
31
0.000173959504339682
  0
LINE
 8
GROUP0
10
-2035.23041299957
20
1279.70998959753
30
0.000173232842076088
11
-2035.29856134699
21
1279.19235150733
31
0.000173041118581912
  0
LINE
 8
GROUP0
10
-2450.29855879487
20
1279.19235150749
30
0.0001232836778364
11
-2450.49835963988
21
1278.70998959769
31
0.000123386969379846
  0
LINE
 8
GROUP0
10
-2452.74804853763
20
1263.27813794511
30
0.000132913450482564
11
-2453.23041044743
21
1263.47793879013
31
0.000133791836714808
  0
LINE
 8
GROUP0
10
-2452.23041044745
20
1277.70998959769
30
0.000125749232210981
11
-2452.74804853765
21
1277.77813794512
31
0.000126624421989363
  0
LINE
 8
GROUP0
10
-2452.74804853765
20
1281.64184125027
30
0.000128405771371187
11
-2452.23041044744
21
1281.70998959769
31
0.000127593420879912
  0
LINE
 8
GROUP0
10
-2453.96246125501
20
1280.70998959769
30
0.000129955683665928
11
-2453.64462400981
21
1281.12420316007
31
0.000129628568647394
  0
LINE
 8
GROUP0
10
-2454.23041044744
20
1279.70998959769
30
0.000129931404080219
11
-2454.16226210002
21
1280.2276276879
31
0.000130058975186814
  0
LINE
 8
GROUP0
10
-2454.23041044743
20
1265.20998959769
30
0.000136220432595979
11
-2454.1622621
21
1265.7276276879
31
0.000136348003680015
  0
LINE
 8
GROUP0
10
-2450.23041044743
20
1265.20998959769
30
0.000129700277503875
11
-2450.29855879486
21
1264.69235150749
31
0.00012957270635216
  0
LINE
 8
GROUP0
10
-2451.23041044743
20
1266.94204040526
30
0.00013212887340831
11
-2450.81619688506
21
1266.62420316006
31
0.000131307151301979
  0
LINE
 8
GROUP0
10
-2450.81619688506
20
1266.62420316006
30
0.000131307151301979
11
-2450.49835963987
21
1266.20998959769
31
0.000130598092218792
  0
LINE
 8
GROUP0
10
-2453.962461255
20
1264.20998959769
30
0.000135322617881062
11
-2454.1622621
21
1264.69235150749
31
0.000135870692550671
  0
LINE
 8
GROUP0
10
-2453.64462400981
20
1281.12420316007
30
0.000129628568647394
11
-2453.23041044744
21
1281.44204040526
31
0.000129099922461162
  0
LINE
 8
GROUP0
10
-2453.6446240098
20
1266.62420316007
30
0.000135917597140595
11
-2453.23041044743
21
1266.94204040526
31
0.000135388950954363
  0
LINE
 8
GROUP0
10
-2454.1622621
20
1264.69235150749
30
0.000135870692550671
11
-2454.23041044743
21
1265.20998959769
31
0.000136220432595979
  0
LINE
 8
GROUP0
10
-2451.71277235722
20
1267.14184125027
30
0.00013300725961729
11
-2451.23041044743
21
1266.94204040526
31
0.00013212887340831
  0
LINE
 8
GROUP0
10
-2453.962461255
20
1266.20998959769
30
0.000136244712204248
11
-2453.6446240098
21
1266.62420316007
31
0.000135917597140595
  0
LINE
 8
GROUP0
10
-2450.81619688507
20
1278.29577603532
30
0.000123714084443499
11
-2451.23041044744
21
1277.97793879013
31
0.000124242730652996
  0
LINE
 8
GROUP0
10
-2453.6446240098
20
1263.79577603532
30
0.000134613558865554
11
-2453.962461255
21
1264.20998959769
31
0.000135322617881062
  0
LINE
 8
GROUP0
10
-2453.96246125501
20
1278.70998959769
30
0.000129033589342742
11
-2454.16226210002
21
1279.19235150749
31
0.000129581664057471
  0
LINE
 8
GROUP0
10
-2454.16226210002
20
1280.2276276879
30
0.000130058975186814
11
-2453.96246125501
21
1280.70998959769
31
0.000129955683665928
  0
LINE
 8
GROUP0
10
-2451.71277235724
20
1277.77813794512
30
0.000124936881629467
11
-2452.23041044745
21
1277.70998959769
31
0.000125749232210981
  0
LINE
 8
GROUP0
10
-2454.1622621
20
1265.7276276879
30
0.000136348003680015
11
-2453.962461255
21
1266.20998959769
31
0.000136244712204248
  0
LINE
 8
GROUP0
10
-2453.23041044744
20
1277.97793879013
30
0.000127502808199048
11
-2453.64462400981
21
1278.29577603532
31
0.000128324530349794
  0
LINE
 8
GROUP0
10
-2453.23041044743
20
1266.94204040526
30
0.000135388950954363
11
-2452.74804853763
21
1267.14184125027
31
0.000134694799909507
  0
LINE
 8
GROUP0
10
-2452.74804853763
20
1267.14184125027
30
0.000134694799909507
11
-2452.23041044743
21
1267.20998959769
31
0.000133882449373113
  0
LINE
 8
GROUP0
10
-2450.49835963987
20
1266.20998959769
30
0.000130598092218792
11
-2450.29855879485
21
1265.7276276879
31
0.000130050017458944
  0
LINE
 8
GROUP0
10
-2452.23041044743
20
1267.20998959769
30
0.000133882449373113
11
-2451.71277235722
21
1267.14184125027
31
0.00013300725961729
  0
LINE
 8
GROUP0
10
-2453.23041044744
20
1281.44204040526
30
0.000129099922461162
11
-2452.74804853765
21
1281.64184125027
31
0.000128405771371187
  0
LINE
 8
GROUP0
10
-2453.64462400981
20
1278.29577603532
30
0.000128324530349794
11
-2453.96246125501
21
1278.70998959769
31
0.000129033589342742
  0
LINE
 8
GROUP0
10
-2452.74804853765
20
1277.77813794512
30
0.000126624421989363
11
-2453.23041044744
21
1277.97793879013
31
0.000127502808199048
  0
LINE
 8
GROUP0
10
-2454.16226210002
20
1279.19235150749
30
0.000129581664057471
11
-2454.23041044744
21
1279.70998959769
31
0.000129931404080219
  0
LINE
 8
GROUP0
10
-2453.23041044743
20
1263.47793879013
30
0.000133791836714808
11
-2453.6446240098
21
1263.79577603532
31
0.000134613558865554
  0
LINE
 8
GROUP0
10
-2451.23041044744
20
1281.44204040526
30
0.00012583984486999
11
-2450.81619688507
21
1281.12420316007
31
0.00012501812271854
  0
LINE
 8
GROUP0
10
-2451.71277235724
20
1494.14150584373
30
0.000126718248148228
11
-2451.23041044744
21
1493.94170499873
31
0.000125839861938543
  0
LINE
 8
GROUP0
10
-2450.81619688507
20
1490.79544062879
30
0.000123714101512756
11
-2451.23041044744
21
1490.47760338359
31
0.000124242747722253
  0
LINE
 8
GROUP0
10
-2454.16226210002
20
1491.69201610095
30
0.000129581681126728
11
-2454.23041044744
21
1492.20965419116
31
0.000129931421149476
  0
LINE
 8
GROUP0
10
-2451.71277235723
20
1263.27813794512
30
0.000131225910167787
11
-2452.23041044743
21
1263.20998959769
31
0.000132038260681622
  0
LINE
 8
GROUP0
10
-2453.64462400981
20
1490.79544062879
30
0.000128324547419051
11
-2453.96246125501
21
1491.20965419116
31
0.000129033606411999
  0
LINE
 8
GROUP0
10
-2454.23041044744
20
1492.20965419116
30
0.000129931421149476
11
-2454.16226210002
21
1492.72729228136
31
0.000130058992256071
  0
LINE
 8
GROUP0
10
-2453.96246125501
20
1491.20965419116
30
0.000129033606411999
11
-2454.16226210002
21
1491.69201610095
31
0.000129581681126728
  0
LINE
 8
GROUP0
10
-2451.23041044744
20
1493.94170499873
30
0.000125839861938543
11
-2450.81619688507
21
1493.62386775353
31
0.000125018139787797
  0
LINE
 8
GROUP0
10
-2453.96246125501
20
1493.20965419116
30
0.000129955700735185
11
-2453.64462400981
21
1493.62386775353
31
0.000129628585716651
  0
LINE
 8
GROUP0
10
-2450.29855879487
20
1492.72729228136
30
0.00012376100608012
11
-2450.23041044744
21
1492.20965419116
31
0.000123411266012252
  0
LINE
 8
GROUP0
10
-2453.64462400981
20
1493.62386775353
30
0.000129628585716651
11
-2453.23041044744
21
1493.94170499873
31
0.000129099939529714
  0
LINE
 8
GROUP0
10
-2453.23041044744
20
1493.94170499873
30
0.000129099939529714
11
-2452.74804853765
21
1494.14150584373
31
0.000128405788440444
  0
LINE
 8
GROUP0
10
-2452.74804853765
20
1494.14150584373
30
0.000128405788440444
11
-2452.23041044744
21
1494.20965419116
31
0.000127593437949169
  0
LINE
 8
GROUP0
10
-2450.49835963987
20
1264.20998959769
30
0.000129675997873047
11
-2450.81619688506
21
1263.79577603532
31
0.000130003112959259
  0
LINE
 8
GROUP0
10
-2450.23041044744
20
1492.20965419116
30
0.000123411266012252
11
-2450.29855879487
21
1491.69201610095
31
0.000123283694905657
  0
LINE
 8
GROUP0
10
-2450.29855879486
20
1264.69235150749
30
0.00012957270635216
11
-2450.49835963987
21
1264.20998959769
31
0.000129675997873047
  0
LINE
 8
GROUP0
10
-2451.23041044743
20
1263.47793879012
30
0.000130531759191316
11
-2451.71277235723
21
1263.27813794512
31
0.000131225910167787
  0
LINE
 8
GROUP0
10
-2450.49835963988
20
1491.20965419116
30
0.000123386986449103
11
-2450.81619688507
21
1490.79544062879
31
0.000123714101512756
  0
LINE
 8
GROUP0
10
-2452.23041044744
20
1494.20965419116
30
0.000127593437949169
11
-2451.71277235724
21
1494.14150584373
31
0.000126718248148228
  0
LINE
 8
GROUP0
10
-2450.81619688506
20
1263.79577603532
30
0.000130003112959259
11
-2451.23041044743
21
1263.47793879012
31
0.000130531759191316
  0
LINE
 8
GROUP0
10
-2453.23041044743
20
1475.97760338359
30
0.000133791853784065
11
-2453.6446240098
21
1476.29544062878
31
0.000134613575934811
  0
LINE
 8
GROUP0
10
-2452.74804853765
20
1490.27780253858
30
0.00012662443905862
11
-2453.23041044744
21
1490.47760338359
31
0.000127502825268305
  0
LINE
 8
GROUP0
10
-2450.29855879485
20
1265.7276276879
30
0.000130050017458944
11
-2450.23041044743
21
1265.20998959769
31
0.000129700277503875
  0
LINE
 8
GROUP0
10
-2450.81619688507
20
1493.62386775353
30
0.000125018139787797
11
-2450.49835963988
21
1493.20965419115
31
0.00012430908072717
  0
LINE
 8
GROUP0
10
-2450.49835963988
20
1493.20965419115
30
0.00012430908072717
11
-2450.29855879487
21
1492.72729228136
31
0.00012376100608012
  0
LINE
 8
GROUP0
10
-2451.71277235724
20
1490.27780253858
30
0.000124936898698724
11
-2452.23041044745
21
1490.20965419116
31
0.000125749249280238
  0
LINE
 8
GROUP0
10
-2450.29855879487
20
1491.69201610095
30
0.000123283694905657
11
-2450.49835963988
21
1491.20965419116
31
0.000123386986449103
  0
LINE
 8
GROUP0
10
-2453.23041044744
20
1490.47760338359
30
0.000127502825268305
11
-2453.64462400981
21
1490.79544062879
31
0.000128324547419051
  0
LINE
 8
GROUP0
10
-2452.23041044745
20
1490.20965419116
30
0.000125749249280238
11
-2452.74804853765
21
1490.27780253858
31
0.00012662443905862
  0
LINE
 8
GROUP0
10
-2451.23041044744
20
1490.47760338359
30
0.000124242747722253
11
-2451.71277235724
21
1490.27780253858
31
0.000124936898698724
  0
LINE
 8
GROUP0
10
-2452.23041044743
20
1263.20998959769
30
0.000132038260681622
11
-2452.74804853763
21
1263.27813794511
31
0.000132913450482564
  0
LINE
 8
GROUP0
10
-2454.16226210002
20
1492.72729228136
30
0.000130058992256071
11
-2453.96246125501
21
1493.20965419116
31
0.000129955700735185
  0
LINE
 8
GROUP0
10
-2453.6446240098
20
1479.12386775353
30
0.000135917614209852
11
-2453.23041044743
21
1479.44170499872
31
0.000135388968022915
  0
LINE
 8
GROUP0
10
-2192.99836091601
20
1321.24932262447
30
0.000234080772389039
11
-2192.798560071
21
1320.76696071468
31
0.000233620115924638
  0
LINE
 8
GROUP0
10
-2453.962461255
20
1476.70965419116
30
0.000135322634950319
11
-2454.1622621
21
1477.19201610095
31
0.000135870709619929
  0
LINE
 8
GROUP0
10
-2454.23041044743
20
1477.70965419116
30
0.000136220449665236
11
-2454.1622621
21
1478.22729228136
31
0.000136348020749272
  0
LINE
 8
GROUP0
10
-2450.23041044743
20
1477.70965419116
30
0.000129700294573132
11
-2450.29855879486
21
1477.19201610095
31
0.000129572723421417
  0
LINE
 8
GROUP0
10
-2450.81619688506
20
1476.29544062878
30
0.000130003130028516
11
-2451.23041044743
21
1475.97760338359
31
0.000130531776260573
  0
LINE
 8
GROUP0
10
-2453.962461255
20
1478.70965419116
30
0.000136244729273505
11
-2453.6446240098
21
1479.12386775353
31
0.000135917614209852
  0
LINE
 8
GROUP0
10
-2195.24804981378
20
1322.18117427705
30
0.00023511112272559
11
-2194.73041172357
21
1322.24932262447
31
0.000235135073405918
  0
LINE
 8
GROUP0
10
-2192.99836091601
20
1319.24932262447
30
0.000232233191077652
11
-2193.3161981612
21
1318.8351090621
31
0.000231874493541351
  0
LINE
 8
GROUP0
10
-2453.23041044743
20
1479.44170499872
30
0.000135388968022915
11
-2452.74804853763
21
1479.64150584373
31
0.000134694816978764
  0
LINE
 8
GROUP0
10
-2453.6446240098
20
1476.29544062878
30
0.000134613575934811
11
-2453.962461255
21
1476.70965419116
31
0.000135322634950319
  0
LINE
 8
GROUP0
10
-2450.81619688506
20
1479.12386775353
30
0.000131307168371236
11
-2450.49835963987
21
1478.70965419115
31
0.000130598109288049
  0
LINE
 8
GROUP0
10
-2193.73041172357
20
1321.98137343204
30
0.000234812194249873
11
-2193.3161981612
21
1321.66353618684
31
0.000234487368093794
  0
LINE
 8
GROUP0
10
-2452.74804853763
20
1475.77780253858
30
0.000132913467551821
11
-2453.23041044743
21
1475.97760338359
31
0.000133791853784065
  0
LINE
 8
GROUP0
10
-2451.23041044743
20
1479.44170499873
30
0.000132128890476862
11
-2450.81619688506
21
1479.12386775353
31
0.000131307168371236
  0
LINE
 8
GROUP0
10
-2451.71277235723
20
1475.77780253858
30
0.000131225927237044
11
-2452.23041044743
21
1475.70965419116
31
0.000132038277750879
  0
LINE
 8
GROUP0
10
-2450.29855879486
20
1477.19201610095
30
0.000129572723421417
11
-2450.49835963987
21
1476.70965419115
31
0.000129676014942304
  0
LINE
 8
GROUP0
10
-2194.21277363337
20
1322.18117427705
30
0.000235033114466537
11
-2193.73041172357
21
1321.98137343204
31
0.000234812194249873
  0
LINE
 8
GROUP0
10
-2450.49835963987
20
1478.70965419115
30
0.000130598109288049
11
-2450.29855879485
21
1478.22729228136
31
0.000130050034528201
  0
LINE
 8
GROUP0
10
-2454.1622621
20
1477.19201610095
30
0.000135870709619929
11
-2454.23041044743
21
1477.70965419116
31
0.000136220449665236
  0
LINE
 8
GROUP0
10
-2452.23041044743
20
1479.70965419115
30
0.00013388246644237
11
-2451.71277235722
21
1479.64150584373
31
0.000133007276686548
  0
LINE
 8
GROUP0
10
-2452.23041044743
20
1475.70965419116
30
0.000132038277750879
11
-2452.74804853763
21
1475.77780253858
31
0.000132913467551821
  0
LINE
 8
GROUP0
10
-2452.74804853763
20
1479.64150584373
30
0.000134694816978764
11
-2452.23041044743
21
1479.70965419115
31
0.00013388246644237
  0
LINE
 8
GROUP0
10
-2450.29855879485
20
1478.22729228136
30
0.000130050034528201
11
-2450.23041044743
21
1477.70965419116
31
0.000129700294573132
  0
LINE
 8
GROUP0
10
-2194.73041172357
20
1322.24932262447
30
0.000235135073405918
11
-2194.21277363337
21
1322.18117427705
31
0.000235033114466537
  0
LINE
 8
GROUP0
10
-2451.71277235722
20
1479.64150584373
30
0.000133007276686548
11
-2451.23041044743
21
1479.44170499873
31
0.000132128890476862
  0
LINE
 8
GROUP0
10
-2192.798560071
20
1320.76696071468
30
0.000233620115924638
11
-2192.73041172357
21
1320.24932262447
31
0.000233136791709559
  0
LINE
 8
GROUP0
10
-2193.3161981612
20
1321.66353618684
30
0.000234487368093794
11
-2192.99836091601
21
1321.24932262447
31
0.000234080772389039
  0
LINE
 8
GROUP0
10
-2192.73041172357
20
1320.24932262447
30
0.000233136791709559
11
-2192.798560071
21
1319.73168453427
31
0.000232663737462735
  0
LINE
 8
GROUP0
10
-2451.23041044743
20
1475.97760338359
30
0.000130531776260573
11
-2451.71277235723
21
1475.77780253858
31
0.000131225927237044
  0
LINE
 8
GROUP0
10
-2450.49835963987
20
1476.70965419115
30
0.000129676014942304
11
-2450.81619688506
21
1476.29544062878
31
0.000130003130028516
  0
LINE
 8
GROUP0
10
-2454.1622621
20
1478.22729228136
30
0.000136348020749272
11
-2453.962461255
21
1478.70965419116
31
0.000136244729273505
  0
LINE
 8
GROUP0
10
-2196.66226337615
20
1319.73168453427
30
0.000232954868253143
11
-2196.73041172357
21
1320.24932262447
31
0.000233438192479501
  0
LINE
 8
GROUP0
10
-2196.66226337615
20
1436.65268528358
30
0.000331763477538682
11
-2196.73041172357
21
1437.17032337379
31
0.000332246801753761
  0
LINE
 8
GROUP0
10
-2195.73041172357
20
1321.98137343204
30
0.000234962894634844
11
-2195.24804981378
21
1322.18117427705
31
0.00023511112272559
  0
LINE
 8
GROUP0
10
-2196.14462528595
20
1321.66353618684
30
0.00023470049062515
11
-2195.73041172357
21
1321.98137343204
31
0.000234962894634844
  0
LINE
 8
GROUP0
10
-2194.73041172357
20
1318.24932262447
30
0.000231439910783143
11
-2195.24804981378
21
1318.31747097189
31
0.000231541869711244
  0
LINE
 8
GROUP0
10
-2195.73041172357
20
1318.5172718169
30
0.000231762789928613
11
-2196.14462528595
21
1318.8351090621
31
0.000232087616072707
  0
LINE
 8
GROUP0
10
-2196.14462528595
20
1318.8351090621
30
0.000232087616072707
11
-2196.46246253114
21
1319.24932262447
31
0.000232494211800022
  0
LINE
 8
GROUP0
10
-2196.46246253114
20
1321.24932262447
30
0.000234341793111409
11
-2196.14462528595
21
1321.66353618684
31
0.00023470049062515
  0
LINE
 8
GROUP0
10
-2192.798560071
20
1319.73168453427
30
0.000232663737462735
11
-2192.99836091601
21
1319.24932262447
31
0.000232233191077652
  0
LINE
 8
GROUP0
10
-2194.21277363337
20
1318.31747097189
30
0.000231463861452191
11
-2194.73041172357
21
1318.24932262447
31
0.000231439910783143
  0
LINE
 8
GROUP0
10
-2195.73041172357
20
1438.90237418136
30
0.000333771503919678
11
-2195.24804981378
21
1439.10217502637
31
0.000333919732011129
  0
LINE
 8
GROUP0
10
-2193.3161981612
20
1438.58453693616
30
0.000333295977390613
11
-2192.99836091601
21
1438.17032337379
31
0.000332889381663298
  0
LINE
 8
GROUP0
10
-2196.73041172357
20
1320.24932262447
30
0.000233438192479501
11
-2196.66226337615
21
1320.76696071468
31
0.000233911246715046
  0
LINE
 8
GROUP0
10
-2194.21277363337
20
1439.10217502637
30
0.000333841723740796
11
-2193.73041172357
21
1438.90237418136
31
0.000333620803534707
  0
LINE
 8
GROUP0
10
-2195.24804981378
20
1435.23847172121
30
0.000330350478996783
11
-2195.73041172357
21
1435.43827256622
31
0.000330571399214152
  0
LINE
 8
GROUP0
10
-2194.73041172357
20
1435.17032337379
30
0.000330248520057402
11
-2195.24804981378
21
1435.23847172121
31
0.000330350478996783
  0
LINE
 8
GROUP0
10
-2192.99836091601
20
1438.17032337379
30
0.000332889381663298
11
-2192.798560071
21
1437.68796146399
31
0.000332428725210176
  0
LINE
 8
GROUP0
10
-2196.73041172357
20
1437.17032337379
30
0.000332246801753761
11
-2196.66226337615
21
1437.68796146399
31
0.000332719856000585
  0
LINE
 8
GROUP0
10
-2196.66226337615
20
1437.68796146399
30
0.000332719856000585
11
-2196.46246253114
21
1438.17032337379
31
0.000333150402385668
  0
LINE
 8
GROUP0
10
-2196.46246253114
20
1319.24932262447
30
0.000232494211800022
11
-2196.66226337615
21
1319.73168453427
31
0.000232954868253143
  0
LINE
 8
GROUP0
10
-2193.73041172357
20
1438.90237418136
30
0.000333620803534707
11
-2193.3161981612
21
1438.58453693616
31
0.000333295977390613
  0
LINE
 8
GROUP0
10
-2195.73041172357
20
1435.43827256622
30
0.000330571399214152
11
-2196.14462528595
21
1435.75610981142
31
0.000330896225369526
  0
LINE
 8
GROUP0
10
-2196.14462528595
20
1438.58453693616
30
0.000333509099910689
11
-2195.73041172357
21
1438.90237418136
31
0.000333771503919678
  0
LINE
 8
GROUP0
10
-2193.3161981612
20
1318.8351090621
30
0.000231874493541351
11
-2193.73041172357
21
1318.5172718169
31
0.000231612089543642
  0
LINE
 8
GROUP0
10
-2194.73041172357
20
1439.17032337379
30
0.000333943682680177
11
-2194.21277363337
21
1439.10217502637
31
0.000333841723740796
  0
LINE
 8
GROUP0
10
-2196.46246253114
20
1438.17032337379
30
0.000333150402385668
11
-2196.14462528595
21
1438.58453693616
31
0.000333509099910689
  0
LINE
 8
GROUP0
10
-2193.73041172357
20
1318.5172718169
30
0.000231612089543642
11
-2194.21277363337
21
1318.31747097189
31
0.000231463861452191
  0
LINE
 8
GROUP0
10
-2196.14462528595
20
1435.75610981142
30
0.000330896225369526
11
-2196.46246253114
21
1436.17032337379
31
0.000331302821074281
  0
LINE
 8
GROUP0
10
-2194.21277363337
20
1435.23847172121
30
0.00033027247073773
11
-2194.73041172357
21
1435.17032337379
31
0.000330248520057402
  0
LINE
 8
GROUP0
10
-2196.66226337615
20
1320.76696071468
30
0.000233911246715046
11
-2196.46246253114
21
1321.24932262447
31
0.000234341793111409
  0
LINE
 8
GROUP0
10
-2195.24804981378
20
1439.10217502637
30
0.000333919732011129
11
-2194.73041172357
21
1439.17032337379
31
0.000333943682680177
  0
LINE
 8
GROUP0
10
-2195.24804981378
20
1318.31747097189
30
0.000231541869711244
11
-2195.73041172357
21
1318.5172718169
31
0.000231762789928613
  0
LINE
 8
GROUP0
10
-2058.23041299946
20
1265.20998959749
30
0.000273406474243099
11
-2058.29856134689
21
1264.69235150729
31
0.000273278903091384
  0
LINE
 8
GROUP0
10
-2192.798560071
20
1436.65268528358
30
0.000331472346748274
11
-2192.99836091601
21
1436.17032337379
31
0.000331041800351911
  0
LINE
 8
GROUP0
10
-2058.29856134689
20
1264.69235150729
30
0.000273278903091384
11
-2058.4983621919
21
1264.20998959749
31
0.000273382194612271
  0
LINE
 8
GROUP0
10
-2060.23041299947
20
1281.70998959749
30
0.000271299617619136
11
-2059.71277490927
21
1281.64184125007
31
0.000270424427818194
  0
LINE
 8
GROUP0
10
-2059.71277490926
20
1263.27813794491
30
0.000274932106907011
11
-2060.23041299946
21
1263.20998959749
31
0.000275744457420846
  0
LINE
 8
GROUP0
10
-2060.74805108966
20
1267.14184125007
30
0.000278400996648731
11
-2060.23041299946
21
1267.20998959749
31
0.000277588646112337
  0
LINE
 8
GROUP0
10
-2059.71277490925
20
1267.14184125007
30
0.000276713456356514
11
-2059.23041299946
21
1266.94204040506
31
0.000275835070147534
  0
LINE
 8
GROUP0
10
-2062.16226465203
20
1264.69235150729
30
0.000279576889289895
11
-2062.23041299945
21
1265.20998959749
31
0.000279926629335203
  0
LINE
 8
GROUP0
10
-2196.46246253114
20
1436.17032337379
30
0.000331302821074281
11
-2196.66226337615
21
1436.65268528358
31
0.000331763477538682
  0
LINE
 8
GROUP0
10
-2061.96246380703
20
1264.20998959749
30
0.000279028814620286
11
-2062.16226465203
21
1264.69235150729
31
0.000279576889289895
  0
LINE
 8
GROUP0
10
-2058.4983621919
20
1266.20998959749
30
0.000274304288958016
11
-2058.29856134688
21
1265.7276276877
31
0.000273756214198168
  0
LINE
 8
GROUP0
10
-2061.23041299946
20
1266.94204040506
30
0.000279095147693587
11
-2060.74805108966
21
1267.14184125007
31
0.000278400996648731
  0
LINE
 8
GROUP0
10
-2058.29856134688
20
1265.7276276877
30
0.000273756214198168
11
-2058.23041299946
21
1265.20998959749
31
0.000273406474243099
  0
LINE
 8
GROUP0
10
-2059.23041299946
20
1263.47793878992
30
0.00027423795593054
11
-2059.71277490926
21
1263.27813794491
31
0.000274932106907011
  0
LINE
 8
GROUP0
10
-2192.798560071
20
1437.68796146399
30
0.000332428725210176
11
-2192.73041172357
21
1437.17032337379
31
0.000331945400983819
  0
LINE
 8
GROUP0
10
-2192.73041172357
20
1437.17032337379
30
0.000331945400983819
11
-2192.798560071
21
1436.65268528358
31
0.000331472346748274
  0
LINE
 8
GROUP0
10
-2060.74805108966
20
1263.27813794491
30
0.000276619647221787
11
-2061.23041299946
21
1263.47793878992
31
0.000277498033454032
  0
LINE
 8
GROUP0
10
-2058.81619943709
20
1266.62420315986
30
0.000275013348041203
11
-2058.4983621919
21
1266.20998959749
31
0.000274304288958016
  0
LINE
 8
GROUP0
10
-2060.23041299946
20
1267.20998959749
30
0.000277588646112337
11
-2059.71277490925
21
1267.14184125007
31
0.000276713456356514
  0
LINE
 8
GROUP0
10
-2059.23041299946
20
1266.94204040506
30
0.000275835070147534
11
-2058.81619943709
21
1266.62420315986
31
0.000275013348041203
  0
LINE
 8
GROUP0
10
-2061.23041299946
20
1263.47793878992
30
0.000277498033454032
11
-2061.64462656183
21
1263.79577603511
31
0.000278319755604778
  0
LINE
 8
GROUP0
10
-2193.73041172357
20
1435.43827256622
30
0.000330420698829181
11
-2194.21277363337
21
1435.23847172121
31
0.00033027247073773
  0
LINE
 8
GROUP0
10
-2058.81619943709
20
1263.79577603512
30
0.000273709309698483
11
-2059.23041299946
21
1263.47793878992
31
0.00027423795593054
  0
LINE
 8
GROUP0
10
-2062.23041299945
20
1265.20998959749
30
0.000279926629335203
11
-2062.16226465203
21
1265.7276276877
31
0.000280054200419239
  0
LINE
 8
GROUP0
10
-2058.4983621919
20
1264.20998959749
30
0.000273382194612271
11
-2058.81619943709
21
1263.79577603512
31
0.000273709309698483
  0
LINE
 8
GROUP0
10
-2060.23041299946
20
1263.20998959749
30
0.000275744457420846
11
-2060.74805108966
21
1263.27813794491
31
0.000276619647221787
  0
LINE
 8
GROUP0
10
-2193.3161981612
20
1435.75610981142
30
0.00033068310283817
11
-2193.73041172357
21
1435.43827256622
31
0.000330420698829181
  0
LINE
 8
GROUP0
10
-2062.16226465203
20
1265.7276276877
30
0.000280054200419239
11
-2061.96246380702
21
1266.20998959749
31
0.000279950908943471
  0
LINE
 8
GROUP0
10
-2061.96246380702
20
1266.20998959749
30
0.000279950908943471
11
-2061.64462656183
21
1266.62420315986
31
0.000279623793879818
  0
LINE
 8
GROUP0
10
-2061.64462656183
20
1263.79577603511
30
0.000278319755604778
11
-2061.96246380703
21
1264.20998959749
31
0.000279028814620286
  0
LINE
 8
GROUP0
10
-2061.64462656183
20
1266.62420315986
30
0.000279623793879818
11
-2061.23041299946
21
1266.94204040506
31
0.000279095147693587
  0
LINE
 8
GROUP0
10
-2192.99836091601
20
1436.17032337379
30
0.000331041800351911
11
-2193.3161981612
21
1435.75610981142
31
0.00033068310283817
  0
LINE
 8
GROUP0
10
-2060.74805108966
20
1475.77780253838
30
0.000276619664291045
11
-2061.23041299946
21
1475.97760338339
31
0.000277498050523289
  0
LINE
 8
GROUP0
10
-2062.16226465205
20
1279.19235150729
30
0.000273287860796695
11
-2062.23041299947
21
1279.70998959749
31
0.000273637600819443
  0
LINE
 8
GROUP0
10
-2061.23041299946
20
1475.97760338339
30
0.000277498050523289
11
-2061.64462656183
21
1476.29544062858
31
0.000278319772674035
  0
LINE
 8
GROUP0
10
-2058.23041299947
20
1279.70998959749
30
0.000267117445682219
11
-2058.2985613469
21
1279.19235150729
31
0.000266989874575624
  0
LINE
 8
GROUP0
10
-2060.74805108968
20
1277.77813794491
30
0.000270330618728587
11
-2061.23041299947
21
1277.97793878993
31
0.000271209004938272
  0
LINE
 8
GROUP0
10
-2062.16226465205
20
1280.2276276877
30
0.000273765171926038
11
-2061.96246380704
21
1280.70998959749
31
0.000273661880405152
  0
LINE
 8
GROUP0
10
-2061.64462656184
20
1281.12420315986
30
0.000273334765386618
11
-2061.23041299947
21
1281.44204040506
31
0.000272806119200386
  0
LINE
 8
GROUP0
10
-2062.23041299945
20
1477.70965419096
30
0.00027992664640446
11
-2062.16226465203
21
1478.22729228116
31
0.000280054217488496
  0
LINE
 8
GROUP0
10
-2061.96246380704
20
1280.70998959749
30
0.000273661880405152
11
-2061.64462656184
21
1281.12420315986
31
0.000273334765386618
  0
LINE
 8
GROUP0
10
-2062.16226465203
20
1478.22729228116
30
0.000280054217488496
11
-2061.96246380702
21
1478.70965419095
31
0.000279950926012729
  0
LINE
 8
GROUP0
10
-2060.23041299947
20
1277.70998959749
30
0.000269455428950205
11
-2060.74805108968
21
1277.77813794491
31
0.000270330618728587
  0
LINE
 8
GROUP0
10
-2061.96246380703
20
1476.70965419095
30
0.000279028831689543
11
-2062.16226465203
21
1477.19201610075
31
0.000279576906359152
  0
LINE
 8
GROUP0
10
-2061.64462656183
20
1476.29544062858
30
0.000278319772674035
11
-2061.96246380703
21
1476.70965419095
31
0.000279028831689543
  0
LINE
 8
GROUP0
10
-2058.2985613469
20
1280.2276276877
30
0.000267467185750087
11
-2058.23041299947
21
1279.70998959749
31
0.000267117445682219
  0
LINE
 8
GROUP0
10
-2059.23041299947
20
1281.44204040506
30
0.000269546041609214
11
-2058.8161994371
21
1281.12420315987
31
0.000268724319457764
  0
LINE
 8
GROUP0
10
-2058.2985613469
20
1279.19235150729
30
0.000266989874575624
11
-2058.49836219191
21
1278.70998959749
31
0.00026709316611907
  0
LINE
 8
GROUP0
10
-2061.64462656184
20
1278.29577603512
30
0.000272030727089018
11
-2061.96246380704
21
1278.70998959749
31
0.000272739786081966
  0
LINE
 8
GROUP0
10
-2058.49836219191
20
1280.70998959749
30
0.000268015260397136
11
-2058.2985613469
21
1280.2276276877
31
0.000267467185750087
  0
LINE
 8
GROUP0
10
-2058.49836219191
20
1278.70998959749
30
0.00026709316611907
11
-2058.8161994371
21
1278.29577603512
31
0.000267420281182723
  0
LINE
 8
GROUP0
10
-2061.23041299947
20
1277.97793878993
30
0.000271209004938272
11
-2061.64462656184
21
1278.29577603512
31
0.000272030727089018
  0
LINE
 8
GROUP0
10
-2059.23041299947
20
1277.97793878993
30
0.00026794892739222
11
-2059.71277490927
21
1277.77813794492
31
0.000268643078368691
  0
LINE
 8
GROUP0
10
-2059.71277490927
20
1281.64184125007
30
0.000270424427818194
11
-2059.23041299947
21
1281.44204040506
31
0.000269546041609214
  0
LINE
 8
GROUP0
10
-2061.64462656183
20
1479.12386775333
30
0.000279623810949076
11
-2061.23041299946
21
1479.44170499852
31
0.000279095164762139
  0
LINE
 8
GROUP0
10
-2062.23041299947
20
1279.70998959749
30
0.000273637600819443
11
-2062.16226465205
21
1280.2276276877
31
0.000273765171926038
  0
LINE
 8
GROUP0
10
-2062.16226465203
20
1477.19201610075
30
0.000279576906359152
11
-2062.23041299945
21
1477.70965419096
31
0.00027992664640446
  0
LINE
 8
GROUP0
10
-2061.96246380704
20
1278.70998959749
30
0.000272739786081966
11
-2062.16226465205
21
1279.19235150729
31
0.000273287860796695
  0
LINE
 8
GROUP0
10
-2061.96246380702
20
1478.70965419095
30
0.000279950926012729
11
-2061.64462656183
21
1479.12386775333
31
0.000279623810949076
  0
LINE
 8
GROUP0
10
-2061.23041299947
20
1281.44204040506
30
0.000272806119200386
11
-2060.74805108968
21
1281.64184125007
31
0.000272111968110411
  0
LINE
 8
GROUP0
10
-2058.8161994371
20
1281.12420315987
30
0.000268724319457764
11
-2058.49836219191
21
1280.70998959749
31
0.000268015260397136
  0
LINE
 8
GROUP0
10
-2060.74805108968
20
1281.64184125007
30
0.000272111968110411
11
-2060.23041299947
21
1281.70998959749
31
0.000271299617619136
  0
LINE
 8
GROUP0
10
-2058.8161994371
20
1278.29577603512
30
0.000267420281182723
11
-2059.23041299947
21
1277.97793878993
31
0.00026794892739222
  0
LINE
 8
GROUP0
10
-2059.71277490927
20
1277.77813794492
30
0.000268643078368691
11
-2060.23041299947
21
1277.70998959749
31
0.000269455428950205
  0
LINE
 8
GROUP0
10
-2058.8161994371
20
1490.79544062859
30
0.00026742029825198
11
-2059.23041299947
21
1490.47760338339
31
0.000267948944461477
  0
LINE
 8
GROUP0
10
-2058.8161994371
20
1493.62386775333
30
0.000268724336527021
11
-2058.49836219191
21
1493.20965419095
31
0.000268015277466394
  0
LINE
 8
GROUP0
10
-2058.2985613469
20
1491.69201610075
30
0.000266989891644881
11
-2058.49836219191
21
1491.20965419095
31
0.000267093183188327
  0
LINE
 8
GROUP0
10
-2058.2985613469
20
1492.72729228116
30
0.000267467202819344
11
-2058.23041299947
21
1492.20965419096
31
0.000267117462751476
  0
LINE
 8
GROUP0
10
-2058.4983621919
20
1478.70965419095
30
0.000274304306027273
11
-2058.29856134688
21
1478.22729228116
31
0.000273756231267425
  0
LINE
 8
GROUP0
10
-2058.23041299947
20
1492.20965419096
30
0.000267117462751476
11
-2058.2985613469
21
1491.69201610075
31
0.000266989891644881
  0
LINE
 8
GROUP0
10
-2059.71277490927
20
1490.27780253838
30
0.000268643095437948
11
-2060.23041299947
21
1490.20965419095
31
0.000269455446019462
  0
LINE
 8
GROUP0
10
-2061.23041299946
20
1479.44170499852
30
0.000279095164762139
11
-2060.74805108966
21
1479.64150584353
31
0.000278401013717988
  0
LINE
 8
GROUP0
10
-2059.71277490925
20
1479.64150584353
30
0.000276713473425771
11
-2059.23041299946
21
1479.44170499852
31
0.000275835087216086
  0
LINE
 8
GROUP0
10
-2058.81619943709
20
1476.29544062858
30
0.00027370932676774
11
-2059.23041299946
21
1475.97760338338
31
0.000274237972999797
  0
LINE
 8
GROUP0
10
-2058.29856134688
20
1478.22729228116
30
0.000273756231267425
11
-2058.23041299946
21
1477.70965419096
31
0.000273406491312356
  0
LINE
 8
GROUP0
10
-2060.23041299946
20
1475.70965419095
30
0.000275744474490103
11
-2060.74805108966
21
1475.77780253838
31
0.000276619664291045
  0
LINE
 8
GROUP0
10
-2059.71277490926
20
1475.77780253838
30
0.000274932123976268
11
-2060.23041299946
21
1475.70965419095
31
0.000275744474490103
  0
LINE
 8
GROUP0
10
-2060.23041299947
20
1494.20965419096
30
0.000271299634688393
11
-2059.71277490927
21
1494.14150584353
31
0.000270424444887452
  0
LINE
 8
GROUP0
10
-2058.49836219191
20
1491.20965419095
30
0.000267093183188327
11
-2058.8161994371
21
1490.79544062859
31
0.00026742029825198
  0
LINE
 8
GROUP0
10
-2058.23041299946
20
1477.70965419096
30
0.000273406491312356
11
-2058.29856134689
21
1477.19201610075
31
0.000273278920160641
  0
LINE
 8
GROUP0
10
-2058.81619943709
20
1479.12386775332
30
0.00027501336511046
11
-2058.4983621919
21
1478.70965419095
31
0.000274304306027273
  0
LINE
 8
GROUP0
10
-2059.23041299946
20
1479.44170499852
30
0.000275835087216086
11
-2058.81619943709
21
1479.12386775332
31
0.00027501336511046
  0
LINE
 8
GROUP0
10
-2060.74805108966
20
1479.64150584353
30
0.000278401013717988
11
-2060.23041299946
21
1479.70965419095
31
0.000277588663181594
  0
LINE
 8
GROUP0
10
-2061.23041299947
20
1490.47760338339
30
0.000271209022007529
11
-2061.64462656184
21
1490.79544062858
31
0.000272030744158275
  0
LINE
 8
GROUP0
10
-2060.23041299947
20
1490.20965419095
30
0.000269455446019462
11
-2060.74805108968
21
1490.27780253838
31
0.000270330635797844
  0
LINE
 8
GROUP0
10
-2060.74805108968
20
1490.27780253838
30
0.000270330635797844
11
-2061.23041299947
21
1490.47760338339
31
0.000271209022007529
  0
LINE
 8
GROUP0
10
-2058.4983621919
20
1476.70965419095
30
0.000273382211681528
11
-2058.81619943709
21
1476.29544062858
31
0.00027370932676774
  0
LINE
 8
GROUP0
10
-2059.23041299946
20
1475.97760338338
30
0.000274237972999797
11
-2059.71277490926
21
1475.77780253838
31
0.000274932123976268
  0
LINE
 8
GROUP0
10
-2061.64462656184
20
1490.79544062858
30
0.000272030744158275
11
-2061.96246380704
21
1491.20965419096
31
0.000272739803151223
  0
LINE
 8
GROUP0
10
-2059.23041299947
20
1490.47760338339
30
0.000267948944461477
11
-2059.71277490927
21
1490.27780253838
31
0.000268643095437948
  0
LINE
 8
GROUP0
10
-2061.96246380704
20
1491.20965419096
30
0.000272739803151223
11
-2062.16226465205
21
1491.69201610075
31
0.000273287877865952
  0
LINE
 8
GROUP0
10
-2059.71277490927
20
1494.14150584353
30
0.000270424444887452
11
-2059.23041299947
21
1493.94170499852
31
0.000269546058677766
  0
LINE
 8
GROUP0
10
-2058.29856134689
20
1477.19201610075
30
0.000273278920160641
11
-2058.4983621919
21
1476.70965419095
31
0.000273382211681528
  0
LINE
 8
GROUP0
10
-2059.23041299947
20
1493.94170499852
30
0.000269546058677766
11
-2058.8161994371
21
1493.62386775333
31
0.000268724336527021
  0
LINE
 8
GROUP0
10
-2058.49836219191
20
1493.20965419095
30
0.000268015277466394
11
-2058.2985613469
21
1492.72729228116
31
0.000267467202819344
  0
LINE
 8
GROUP0
10
-2060.23041299946
20
1479.70965419095
30
0.000277588663181594
11
-2059.71277490925
21
1479.64150584353
31
0.000276713473425771
  0
LINE
 8
GROUP0
10
-2445.21242928406
20
1181.20968231671
30
1.68549335651913e-005
11
-2445.41222922167
21
1180.72732003112
31
1.63274094126031e-005
  0
LINE
 8
GROUP0
10
-2445.48037659534
20
1180.20968181277
30
1.5832648654257e-005
11
-2445.41222727419
21
1179.69204385082
31
1.540436835758e-005
  0
LINE
 8
GROUP0
10
-2442.48037333749
20
1178.47763664874
30
1.57516599007201e-005
11
-2442.06616037305
21
1178.79547467308
31
1.62370782179733e-005
  0
LINE
 8
GROUP0
10
-2444.89459281808
20
1181.62389647692
30
1.73792711612941e-005
11
-2445.21242928406
21
1181.20968231671
31
1.68549335651913e-005
  0
LINE
 8
GROUP0
10
-2292.798560071
20
1319.73168453427
30
0.000232663737451455
11
-2292.998360916
21
1319.24932262447
31
0.000232233191066372
  0
LINE
 8
GROUP0
10
-2292.998360916
20
1321.24932262447
30
0.000234080772377759
11
-2292.798560071
21
1320.76696071468
31
0.000233620115902078
  0
LINE
 8
GROUP0
10
-2062.16226465205
20
1491.69201610075
30
0.000273287877865952
11
-2062.23041299947
21
1492.20965419095
31
0.0002736376178887
  0
LINE
 8
GROUP0
10
-2441.7483276693
20
1181.20968883308
30
1.85445942353257e-005
11
-2442.06616569364
21
1181.62390179752
31
1.87588733131905e-005
  0
LINE
 8
GROUP0
10
-2445.21242552183
20
1179.20968231693
30
1.50717551446466e-005
11
-2444.89458749748
21
1178.79546935249
31
1.4857476054797e-005
  0
LINE
 8
GROUP0
10
-2444.48037333727
20
1178.47763288651
30
1.47761338593511e-005
11
-2443.99801105168
21
1178.2778329489
31
1.48332718799271e-005
  0
LINE
 8
GROUP0
10
-2443.48038035779
20
1182.20968557478
30
1.85913531041859e-005
11
-2443.99801831975
21
1182.14153625363
31
1.82781080527272e-005
  0
LINE
 8
GROUP0
10
-2293.3161981612
20
1321.66353618684
30
0.000234487368082514
11
-2292.998360916
21
1321.24932262447
31
0.000234080772377759
  0
LINE
 8
GROUP0
10
-2442.48037985386
20
1181.9417382635
30
1.88402155086365e-005
11
-2442.96274213945
21
1182.1415382011
31
1.87830774880604e-005
  0
LINE
 8
GROUP0
10
-2061.96246380704
20
1493.20965419095
30
0.000273661897474409
11
-2061.64462656184
21
1493.62386775333
31
0.000273334782455875
  0
LINE
 8
GROUP0
10
-2062.23041299947
20
1492.20965419095
30
0.0002736376178887
11
-2062.16226465205
21
1492.72729228116
31
0.000273765188995295
  0
LINE
 8
GROUP0
10
-2293.73041172357
20
1321.98137343204
30
0.000234812194238593
11
-2293.3161981612
21
1321.66353618684
31
0.000234487368082514
  0
LINE
 8
GROUP0
10
-2442.96273487138
20
1178.27783489637
30
1.53382413265402e-005
11
-2442.48037333749
21
1178.47763664874
31
1.57516599007201e-005
  0
LINE
 8
GROUP0
10
-2445.41222727419
20
1179.69204385082
30
1.540436835758e-005
11
-2445.21242552183
21
1179.20968231693
31
1.50717551446466e-005
  0
LINE
 8
GROUP0
10
-2441.74832390707
20
1179.2096888333
30
1.67614158147811e-005
11
-2441.54852396946
21
1179.69205111889
31
1.72889399448095e-005
  0
LINE
 8
GROUP0
10
-2062.16226465205
20
1492.72729228116
30
0.000273765188995295
11
-2061.96246380704
21
1493.20965419095
31
0.000273661897474409
  0
LINE
 8
GROUP0
10
-2061.23041299947
20
1493.94170499853
30
0.000272806136268938
11
-2060.74805108968
21
1494.14150584353
31
0.000272111985179668
  0
LINE
 8
GROUP0
10
-2292.73041172357
20
1320.24932262447
30
0.00023313679169828
11
-2292.798560071
21
1319.73168453427
31
0.000232663737451455
  0
LINE
 8
GROUP0
10
-2295.24804981378
20
1322.18117427705
30
0.00023511112271431
11
-2294.73041172357
21
1322.24932262447
31
0.000235135073394638
  0
LINE
 8
GROUP0
10
-2060.74805108968
20
1494.14150584353
30
0.000272111985179668
11
-2060.23041299947
21
1494.20965419096
31
0.000271299634688393
  0
LINE
 8
GROUP0
10
-2061.64462656184
20
1493.62386775333
30
0.000273334782455875
11
-2061.23041299947
21
1493.94170499853
31
0.000272806136268938
  0
LINE
 8
GROUP0
10
-2441.54852396946
20
1179.69205111889
30
1.72889399448095e-005
11
-2441.48037659578
21
1180.20968933723
31
1.77837007257153e-005
  0
LINE
 8
GROUP0
10
-2443.48037283333
20
1178.20968557522
30
1.50249962750815e-005
11
-2442.96273487138
21
1178.27783489637
31
1.53382413265402e-005
  0
LINE
 8
GROUP0
10
-2443.99801105168
20
1178.2778329489
30
1.48332718799271e-005
11
-2443.48037283333
21
1178.20968557522
31
1.50249962750815e-005
  0
LINE
 8
GROUP0
10
-2294.73041172357
20
1322.24932262447
30
0.000235135073394638
11
-2294.21277363337
21
1322.18117427705
31
0.000235033114455258
  0
LINE
 8
GROUP0
10
-2294.21277363337
20
1322.18117427705
30
0.000235033114455258
11
-2293.73041172357
21
1321.98137343204
31
0.000234812194238593
  0
LINE
 8
GROUP0
10
-2292.798560071
20
1320.76696071468
30
0.000233620115902078
11
-2292.73041172357
21
1320.24932262447
31
0.00023313679169828
  0
LINE
 8
GROUP0
10
-2442.96274213945
20
1182.1415382011
30
1.87830774880604e-005
11
-2443.48038035779
21
1182.20968557478
31
1.85913531041859e-005
  0
LINE
 8
GROUP0
10
-2443.99801831975
20
1182.14153625363
30
1.82781080527272e-005
11
-2444.48037985364
21
1181.94173450127
31
1.78646894785472e-005
  0
LINE
 8
GROUP0
10
-2057.71255660074
20
1179.20974747672
30
0.000204079270426594
11
-2057.39471935386
21
1178.7955339186
31
0.000203864990423075
  0
LINE
 8
GROUP0
10
-2055.98050582353
20
1182.20974747622
30
0.000207598868216935
11
-2056.49814391089
21
1182.14159912522
31
0.000207285623977627
  0
LINE
 8
GROUP0
10
-2055.46286770609
20
1178.27789584525
30
0.000204345751983742
11
-2054.98050579997
21
1178.47769669299
31
0.000204759169948809
  0
LINE
 8
GROUP0
10
-2441.54852591693
20
1180.72732729918
30
1.82119810223924e-005
11
-2441.7483276693
21
1181.20968883308
31
1.85445942353257e-005
  0
LINE
 8
GROUP0
10
-2054.56629224185
20
1178.79553393986
30
0.000205244587859987
11
-2054.24845500121
21
1179.20974750276
31
0.000205768925298877
  0
LINE
 8
GROUP0
10
-2442.06616569364
20
1181.62390179752
30
1.87588733131905e-005
11
-2442.48037985386
21
1181.9417382635
31
1.88402155086365e-005
  0
LINE
 8
GROUP0
10
-2054.98050579997
20
1178.47769669299
30
0.000204759169948809
11
-2054.56629224185
21
1178.79553393986
31
0.000205244587859987
  0
LINE
 8
GROUP0
10
-2055.98050579345
20
1178.20974749424
30
0.000204032507744434
11
-2055.46286770609
21
1178.27789584525
31
0.000204345751983742
  0
LINE
 8
GROUP0
10
-2057.39471935386
20
1178.7955339186
30
0.000203864990423075
11
-2056.98050579096
21
1178.47769667795
31
0.000203783647246281
  0
LINE
 8
GROUP0
10
-2054.98050582602
20
1181.94179829252
30
0.000207847728715088
11
-2055.46286773514
21
1182.141599133
31
0.00020779059167586
  0
LINE
 8
GROUP0
10
-2445.41222922167
20
1180.72732003112
30
1.63274094126031e-005
11
-2445.48037659534
21
1180.20968181277
31
1.5832648654257e-005
  0
LINE
 8
GROUP0
10
-2054.24845500121
20
1179.20974750276
30
0.000205768925298877
11
-2054.04865416072
21
1179.69210941189
31
0.000206296449541704
  0
LINE
 8
GROUP0
10
-2055.46286773514
20
1182.141599133
30
0.00020779059167586
11
-2055.98050582353
21
1182.20974747622
31
0.000207598868216935
  0
LINE
 8
GROUP0
10
-2054.24845501624
20
1181.20974749375
30
0.00020755210553548
11
-2054.56629226312
21
1181.62396105187
31
0.000207766385527014
  0
LINE
 8
GROUP0
10
-2056.98050579096
20
1178.47769667795
30
0.000203783647246281
11
-2056.49814388184
21
1178.27789583747
31
0.000203840784285508
  0
LINE
 8
GROUP0
10
-2054.56629226312
20
1181.62396105187
30
0.000207766385527014
11
-2054.98050582602
21
1181.94179829252
31
0.000207847728715088
  0
LINE
 8
GROUP0
10
-2053.9805058175
20
1180.20974750027
30
0.000206791210683566
11
-2054.04865416851
21
1180.72738558763
31
0.000207219491555516
  0
LINE
 8
GROUP0
10
-2054.04865416072
20
1179.69210941189
30
0.000206296449541704
11
-2053.9805058175
21
1180.20974750027
31
0.000206791210683566
  0
LINE
 8
GROUP0
10
-2056.49814388184
20
1178.27789583747
30
0.000203840784285508
11
-2055.98050579345
21
1178.20974749424
31
0.000204032507744434
  0
LINE
 8
GROUP0
10
-2057.98050579948
20
1180.2097474702
30
0.000204840165278508
11
-2057.91235744847
21
1179.69210938284
31
0.000204411884406558
  0
LINE
 8
GROUP0
10
-2441.48037659578
20
1180.20968933723
30
1.77837007257153e-005
11
-2441.54852591693
21
1180.72732729918
31
1.82119810223924e-005
  0
LINE
 8
GROUP0
10
-2056.98050581701
20
1181.94179827748
30
0.000206872206012559
11
-2057.39471937513
21
1181.6239610306
31
0.000206386788101381
  0
LINE
 8
GROUP0
10
-2054.04865416851
20
1180.72738558763
30
0.000207219491555516
11
-2054.24845501624
21
1181.20974749375
31
0.00020755210553548
  0
LINE
 8
GROUP0
10
-2057.91235745626
20
1180.72738555858
30
0.00020533492642037
11
-2057.98050579948
21
1180.2097474702
31
0.000204840165278508
  0
LINE
 8
GROUP0
10
-2442.06616037305
20
1178.79547467308
30
1.62370782179733e-005
11
-2441.74832390707
21
1179.2096888333
31
1.67614158147811e-005
  0
LINE
 8
GROUP0
10
-2056.49814391089
20
1182.14159912522
30
0.000207285623977627
11
-2056.98050581701
21
1181.94179827748
31
0.000206872206012559
  0
LINE
 8
GROUP0
10
-2057.91235744847
20
1179.69210938284
30
0.000204411884406558
11
-2057.71255660074
21
1179.20974747672
31
0.000204079270426594
  0
LINE
 8
GROUP0
10
-2057.39471937513
20
1181.6239610306
30
0.000206386788101381
11
-2057.71255661578
21
1181.20974746771
31
0.000205862450651917
  0
LINE
 8
GROUP0
10
-2057.71255661578
20
1181.20974746771
30
0.000205862450651917
11
-2057.91235745626
21
1180.72738555858
31
0.00020533492642037
  0
LINE
 8
GROUP0
10
-2444.48037985364
20
1181.94173450127
30
1.78646894785472e-005
11
-2444.89459281808
21
1181.62389647692
31
1.73792711612941e-005
  0
LINE
 8
GROUP0
10
-2444.89458749748
20
1178.79546935249
30
1.4857476054797e-005
11
-2444.48037333727
21
1178.47763288651
31
1.47761338593511e-005
  0
LINE
 8
GROUP0
10
-2040.23060904803
20
1170.20966020858
30
6.70017235368414e-005
11
-2082.23058981477
21
1170.20966711481
31
0.000189472214013908
  0
LINE
 8
GROUP0
10
-2040.23050694574
20
1572.20982608944
30
0.000575543458036837
11
-2040.2305067894
21
1551.70982608945
31
0.000562769772367272
  0
LINE
 8
GROUP0
10
-2459.23076824619
20
1572.20970778724
30
0.000340660090997652
11
-2459.23073367788
21
1551.7097181893
31
0.000311209290672793
  0
LINE
 8
GROUP0
10
-2526.73014364067
20
1194.70957026411
30
3.85064719621964e-005
11
-2526.7306490438
21
1516.70963640836
31
0.000298965223289011
  0
LINE
 8
GROUP0
10
-2459.23018665728
20
1194.7096595161
30
2.55695746300466e-005
11
-2526.73014364067
21
1194.70957026411
31
3.85064719621964e-005
  0
LINE
 8
GROUP0
10
-1972.73050416798
20
1516.70982645171
30
0.000555745139729408
11
-1972.73048492398
21
1194.70985115895
31
0.000247714601527238
  0
LINE
 8
GROUP0
10
-1972.73050416798
20
1516.70982645171
30
0.000555745139729408
11
-2000.23050416797
21
1516.70982456557
31
0.000538421067562816
  0
LINE
 8
GROUP0
10
-2499.23069605523
20
1516.70969252364
30
0.000284113334624153
11
-2526.7306490438
21
1516.70963640836
31
0.000298965223289011
  0
LINE
 8
GROUP0
10
-2040.23058985995
20
1194.7098480588
30
0.000255416329399849
11
-1972.73048492398
21
1194.70985115895
31
0.000247714601527238
  0
LINE
 8
GROUP0
10
-2040.23058985995
20
1194.7098480588
30
0.000255416329399849
11
-2040.23060904803
21
1170.20966020858
31
6.70017235368414e-005
  0
LINE
 8
GROUP0
10
-2417.23076823349
20
1170.2095943144
30
1.13337034528316e-005
11
-2459.23076824623
21
1170.20960122063
31
2.54830795634264e-005
  0
LINE
 8
GROUP0
10
-2459.23076824619
20
1572.20970778724
30
0.000340660090997652
11
-2040.23050694574
21
1572.20982608944
31
0.000575543458036837
  0
LINE
 8
GROUP0
10
-2052.230508203
20
1562.20982475021
30
0.000548232288734396
11
-2052.16235985163
21
1561.69218666053
31
0.000547804007851166
  0
LINE
 8
GROUP0
10
-2051.96255900294
20
1561.20982475226
30
0.000547471393871202
11
-2051.64472175459
21
1560.79561119231
31
0.000547257113867683
  0
LINE
 8
GROUP0
10
-2052.16235985163
20
1561.69218666053
30
0.000547804007851166
11
-2051.96255900294
21
1561.20982475226
31
0.000547471393871202
  0
LINE
 8
GROUP0
10
-2051.23050821621
20
1563.94187556541
30
0.000550264329468447
11
-2051.64472177616
21
1563.62403831705
31
0.000549778911545989
  0
LINE
 8
GROUP0
10
-2050.74814627847
20
1560.27797310894
30
0.000547232907730116
11
-2050.23050818775
21
1560.20982476547
31
0.000547424631189042
  0
LINE
 8
GROUP0
10
-2050.23050821825
20
1564.20982476546
30
0.000550990991672823
11
-2050.74814630794
21
1564.14167641409
31
0.000550677747433514
  0
LINE
 8
GROUP0
10
-2052.16235985952
20
1562.72746284094
30
0.000548727049864978
11
-2052.230508203
21
1562.20982475021
31
0.000548232288734396
  0
LINE
 8
GROUP0
10
-2049.71287012753
20
1564.14167642199
30
0.000551182715131748
11
-2050.23050821825
21
1564.20982476546
31
0.000550990991672823
  0
LINE
 8
GROUP0
10
-2051.64472177616
20
1563.62403831705
30
0.000549778911545989
11
-2051.96255901819
21
1563.20982475225
31
0.0005492545741071
  0
LINE
 8
GROUP0
10
-2049.23050821621
20
1563.94187558066
30
0.000551239852170976
11
-2049.71287012753
21
1564.14167642199
31
0.000551182715131748
  0
LINE
 8
GROUP0
10
-2051.23050818979
20
1560.47777395027
30
0.000547175770690889
11
-2050.74814627847
21
1560.27797310894
31
0.000547232907730116
  0
LINE
 8
GROUP0
10
-2051.96255901819
20
1563.20982475225
30
0.0005492545741071
11
-2052.16235985952
21
1562.72746284094
31
0.000548727049864978
  0
LINE
 8
GROUP0
10
-2050.74814630794
20
1564.14167641409
30
0.000550677747433514
11
-2051.23050821621
21
1563.94187556541
31
0.000550264329468447
  0
LINE
 8
GROUP0
10
-2051.64472175459
20
1560.79561119231
30
0.000547257113867683
11
-2051.23050818979
21
1560.47777395027
31
0.000547175770690889
  0
LINE
 8
GROUP0
10
-2050.23050818775
20
1560.20982476547
30
0.000547424631189042
11
-2049.71287009806
21
1560.27797311683
31
0.00054773787542835
  0
LINE
 8
GROUP0
10
-2450.96280440222
20
1561.20971072446
30
0.000352854395926794
11
-2450.64496715386
21
1560.79549716451
31
0.000352640115923275
  0
LINE
 8
GROUP0
10
-2049.23050818979
20
1560.47777396552
30
0.000548151293393417
11
-2048.81629462984
21
1560.79561121388
31
0.000548636711315875
  0
LINE
 8
GROUP0
10
-2048.29865655437
20
1562.7274628704
30
0.000550611615011404
11
-2048.49845740306
21
1563.20982477867
31
0.000550944228990663
  0
LINE
 8
GROUP0
10
-2048.4984573878
20
1561.20982477867
30
0.000549161048754765
11
-2048.29865654647
21
1561.69218668999
31
0.000549688572986312
  0
LINE
 8
GROUP0
10
-2048.81629465141
20
1563.62403833862
30
0.000551158508994182
11
-2049.23050821621
21
1563.94187558066
31
0.000551239852170976
  0
LINE
 8
GROUP0
10
-2048.230508203
20
1562.20982478072
30
0.000550183334128174
11
-2048.29865655437
21
1562.7274628704
31
0.000550611615011404
  0
LINE
 8
GROUP0
10
-2448.23075358908
20
1560.47765993773
30
0.000353534295449009
11
-2447.81654002913
21
1560.79549718609
31
0.000354019713348908
  0
LINE
 8
GROUP0
10
-2448.71311549734
20
1560.27785908904
30
0.000353120877483942
11
-2448.23075358908
21
1560.47765993773
31
0.000353534295449009
  0
LINE
 8
GROUP0
10
-2048.49845740306
20
1563.20982477867
30
0.000550944228990663
11
-2048.81629465141
21
1563.62403833862
31
0.000551158508994182
  0
LINE
 8
GROUP0
10
-2450.23075358907
20
1560.47765992248
30
0.000352558772746481
11
-2449.74839167775
21
1560.27785908115
31
0.000352615909785708
  0
LINE
 8
GROUP0
10
-2049.71287009806
20
1560.27797311683
30
0.00054773787542835
11
-2049.23050818979
21
1560.47777396552
31
0.000548151293393417
  0
LINE
 8
GROUP0
10
-2048.81629462984
20
1560.79561121388
30
0.000548636711315875
11
-2048.4984573878
21
1561.20982477867
31
0.000549161048754765
  0
LINE
 8
GROUP0
10
-2048.29865654647
20
1561.69218668999
30
0.000549688572986312
11
-2048.230508203
21
1562.20982478072
31
0.000550183334128174
  0
LINE
 8
GROUP0
10
-2449.74839167775
20
1560.27785908115
30
0.000352615909785708
11
-2449.23075358703
21
1560.20971073767
31
0.000352807633244634
  0
LINE
 8
GROUP0
10
-2450.64496715386
20
1560.79549716451
30
0.000352640115923275
11
-2450.23075358907
21
1560.47765992248
31
0.000352558772746481
  0
LINE
 8
GROUP0
10
-2449.23075358703
20
1560.20971073767
30
0.000352807633244634
11
-2448.71311549734
21
1560.27785908904
31
0.000353120877483942
  0
LINE
 8
GROUP0
10
-2449.23075361754
20
1564.20971073766
30
0.000356373993728415
11
-2449.74839170722
21
1564.14156238629
31
0.000356060749489107
  0
LINE
 8
GROUP0
10
-2447.23075360229
20
1562.20971075292
30
0.000355566336183766
11
-2447.29890195366
21
1562.7273488426
31
0.000355994617066996
  0
LINE
 8
GROUP0
10
-2447.49870278709
20
1561.20971075088
30
0.000354544050810357
11
-2447.29890194576
21
1561.6920726622
31
0.000355071575041904
  0
LINE
 8
GROUP0
10
-2450.64496717544
20
1563.62392428925
30
0.000355161913601582
11
-2450.96280441747
21
1563.20971072445
31
0.000354637576162692
  0
LINE
 8
GROUP0
10
-2451.1626052588
20
1562.72734881314
30
0.00035411005190929
11
-2451.23075360228
21
1562.20971072241
31
0.000353615290789988
  0
LINE
 8
GROUP0
10
-2447.29890194576
20
1561.6920726622
30
0.000355071575041904
11
-2447.23075360229
21
1562.20971075292
31
0.000355566336183766
  0
LINE
 8
GROUP0
10
-2450.96280441747
20
1563.20971072445
30
0.000354637576162692
11
-2451.1626052588
21
1562.72734881314
31
0.00035411005190929
  0
LINE
 8
GROUP0
10
-2451.16260525091
20
1561.69207263273
30
0.000353187009906758
11
-2450.96280440222
21
1561.20971072446
31
0.000352854395926794
  0
LINE
 8
GROUP0
10
-2450.23075361549
20
1563.9417615376
30
0.000355647331524039
11
-2450.64496717544
21
1563.62392428925
31
0.000355161913601582
  0
LINE
 8
GROUP0
10
-2448.2307536155
20
1563.94176155286
30
0.000356622854226568
11
-2448.71311552681
21
1564.14156239419
31
0.00035656571718734
  0
LINE
 8
GROUP0
10
-2451.23075360228
20
1562.20971072241
30
0.000353615290789988
11
-2451.16260525091
21
1561.69207263273
31
0.000353187009906758
  0
LINE
 8
GROUP0
10
-2448.71311552681
20
1564.14156239419
30
0.00035656571718734
11
-2449.23075361754
21
1564.20971073766
31
0.000356373993728415
  0
LINE
 8
GROUP0
10
-2447.8165400507
20
1563.62392431082
30
0.000356541511049774
11
-2448.2307536155
21
1563.94176155286
31
0.000356622854226568
  0
LINE
 8
GROUP0
10
-2447.49870280235
20
1563.20971075087
30
0.000356327231046255
11
-2447.8165400507
21
1563.62392431082
31
0.000356541511049774
  0
LINE
 8
GROUP0
10
-2447.29890195366
20
1562.7273488426
30
0.000355994617066996
11
-2447.49870280235
21
1563.20971075087
31
0.000356327231046255
  0
LINE
 8
GROUP0
10
-2449.74839170722
20
1564.14156238629
30
0.000356060749489107
11
-2450.23075361549
21
1563.9417615376
31
0.000355647331524039
  0
LINE
 8
GROUP0
10
-2518.7306343999
20
1506.70965431414
30
0.000271208155878089
11
-2518.66248507986
21
1506.19201635198
31
0.000270779875581412
  0
LINE
 8
GROUP0
10
-2517.73063765434
20
1508.44170700064
30
0.000273240196702379
11
-2518.14485061951
21
1508.12386897716
31
0.000272754778385126
  0
LINE
 8
GROUP0
10
-2518.46268708642
20
1507.70965481759
30
0.000272230440800303
11
-2518.66248702509
21
1507.22729253239
31
0.000271702916647715
  0
LINE
 8
GROUP0
10
-2514.79878371995
20
1507.22729979208
30
0.000273587488246224
11
-2514.9985854713
21
1507.70966132645
31
0.000273920101459157
  0
LINE
 8
GROUP0
10
-2514.79878177473
20
1506.19202361167
30
0.000272664447179921
11
-2514.73063439992
21
1506.70966182992
31
0.000273159207960827
  0
LINE
 8
GROUP0
10
-2517.24827611996
20
1508.64150875198
30
0.000273653615287839
11
-2517.73063765434
21
1508.44170700064
31
0.000273240196702379
  0
LINE
 8
GROUP0
10
-2516.7306381578
20
1508.70965807202
30
0.000273966860340002
11
-2517.24827611996
21
1508.64150875198
31
0.000273653615287839
  0
LINE
 8
GROUP0
10
-2515.73063765434
20
1508.44171075854
30
0.000274215722743748
11
-2516.21299993955
21
1508.64151069721
31
0.000274158584723172
  0
LINE
 8
GROUP0
10
-2515.31642349477
20
1508.12387429163
30
0.000274134380548302
11
-2515.73063765434
21
1508.44171075854
31
0.000274215722743748
  0
LINE
 8
GROUP0
10
-2514.9985854713
20
1507.70966132645
30
0.000273920101459157
11
-2515.31642349477
21
1508.12387429163
31
0.000274134380548302
  0
LINE
 8
GROUP0
10
-2514.9985817134
20
1505.70966132646
30
0.000272136923038613
11
-2514.79878177473
21
1506.19202361167
31
0.000272664447179921
  0
LINE
 8
GROUP0
10
-2516.21299993955
20
1508.64151069721
30
0.000274158584723172
11
-2516.7306381578
21
1508.70965807202
31
0.000273966860340002
  0
LINE
 8
GROUP0
10
-2514.73063439992
20
1506.70966182992
30
0.000273159207960827
11
-2514.79878371995
21
1507.22729979208
31
0.000273587488246224
  0
LINE
 8
GROUP0
10
-2518.66248702509
20
1507.22729253239
30
0.000271702916647715
11
-2518.7306343999
21
1506.70965431414
31
0.000271208155878089
  0
LINE
 8
GROUP0
10
-2447.81654002913
20
1560.79549718609
30
0.000354019713348908
11
-2447.49870278709
21
1561.20971075088
31
0.000354544050810357
  0
LINE
 8
GROUP0
10
-2518.14485061951
20
1508.12386897716
30
0.000272754778385126
11
-2518.46268708642
21
1507.70965481759
31
0.000272230440800303
  0
LINE
 8
GROUP0
10
-1984.14471571988
20
1505.29636875834
30
0.000530698431045901
11
-1983.7305015606
21
1504.97853229166
31
0.000530617088850455
  0
LINE
 8
GROUP0
10
-2515.73063114548
20
1504.97760914341
30
0.000271127167125257
11
-2515.31641818031
21
1505.29544716689
31
0.00027161258544251
  0
LINE
 8
GROUP0
10
-2516.73063064201
20
1504.70965807204
30
0.000270400503498913
11
-2516.21299267986
21
1504.77780739207
31
0.000270713748539797
  0
LINE
 8
GROUP0
10
-2518.14484530504
20
1505.29544185243
30
0.000270232983279334
11
-2517.73063114547
21
1504.97760538552
31
0.000270151641083888
  0
LINE
 8
GROUP0
10
-2515.31641818031
20
1505.29544716689
30
0.00027161258544251
11
-2514.9985817134
21
1505.70966132646
31
0.000272136923038613
  0
LINE
 8
GROUP0
10
-2518.66248507986
20
1506.19201635198
30
0.000270779875581412
11
-2518.46268332852
21
1505.7096548176
31
0.000270447262368478
  0
LINE
 8
GROUP0
10
-1984.46255374315
20
1505.71058172321
30
0.000530912710135045
11
-1984.14471571988
21
1505.29636875834
31
0.000530698431045901
  0
LINE
 8
GROUP0
10
-1984.66235549436
20
1506.19294325725
30
0.000531245323347979
11
-1984.46255374315
21
1505.71058172321
31
0.000530912710135045
  0
LINE
 8
GROUP0
10
-1984.73050481436
20
1506.71058121903
30
0.000531673603644656
11
-1984.66235549436
21
1506.19294325725
31
0.000531245323347979
  0
LINE
 8
GROUP0
10
-1984.66235743962
20
1507.22821943692
30
0.000532168364414282
11
-1984.73050481436
21
1506.71058121903
31
0.000531673603644656
  0
LINE
 8
GROUP0
10
-2516.21299267986
20
1504.77780739207
30
0.000270713748539797
11
-2515.73063114548
21
1504.97760914341
31
0.000271127167125257
  0
LINE
 8
GROUP0
10
-1984.46255750109
20
1507.71058172179
30
0.00053269588854431
11
-1984.66235743962
21
1507.22821943692
31
0.000532168364414282
  0
LINE
 8
GROUP0
10
-1984.14472103442
20
1508.12479588108
30
0.000533220226151693
11
-1984.46255750109
21
1507.71058172179
31
0.00053269588854431
  0
LINE
 8
GROUP0
10
-2518.46268332852
20
1505.7096548176
30
0.000270447262368478
11
-2518.14484530504
21
1505.29544185243
31
0.000270232983279334
  0
LINE
 8
GROUP0
10
-2517.73063114547
20
1504.97760538552
30
0.000270151641083888
11
-2517.24826886026
21
1504.77780544685
31
0.000270208779115744
  0
LINE
 8
GROUP0
10
-2517.24826886026
20
1504.77780544685
30
0.000270208779115744
11
-2516.73063064201
21
1504.70965807204
31
0.000270400503498913
  0
LINE
 8
GROUP0
10
-1983.73050806955
20
1508.44263390434
30
0.000533705644468946
11
-1984.14472103442
21
1508.12479588108
31
0.000533220226151693
  0
LINE
 8
GROUP0
10
-1983.24814653551
20
1508.64243565556
30
0.000534119063054406
11
-1983.73050806955
21
1508.44263390434
31
0.000533705644468946
 0
ENDSEC
 0
EOF
