 0
SECTION
 2
ENTITIES
  0
LINE
 8
GROUP0
10
-3526.26899837422
20
-46.0316953963677
30
0.0
11
-3486.26899837422
21
-46.0316953963677
31
0.0
  0
LINE
 8
GROUP0
10
-3486.26899837422
20
-46.0316953963677
30
0.0
11
-3486.26899837422
21
-26.0316953963677
31
0.0
  0
LINE
 8
GROUP0
10
-3486.26899837422
20
-26.0316953963677
30
0.0
11
-3526.26899837422
21
-26.0316953963677
31
0.0
  0
LINE
 8
GROUP0
10
-3526.26899837422
20
-26.0316953963677
30
0.0
11
-3526.26899837422
21
-46.0316953963677
31
0.0
  0
LINE
 8
GROUP0
10
-3497.32965854599
20
-31.9710352245876
30
4.34533481126209e-006
11
-3497.56803647989
21
-32.281695396367
31
4.18462505678008e-006
  0
LINE
 8
GROUP0
10
-3497.01899837421
20
-31.7326572906911
30
4.40634228198178e-006
11
-3497.32965854599
21
-31.9710352245876
31
4.34533481126209e-006
  0
LINE
 8
GROUP0
10
-3496.65722694187
20
-31.5828066569345
30
4.36348952987942e-006
11
-3497.01899837421
21
-31.7326572906911
31
4.40634228198178e-006
  0
LINE
 8
GROUP0
10
-3496.26899837421
20
-31.5316953963681
30
4.21969695736379e-006
11
-3496.65722694187
21
-31.5828066569345
31
4.36348952987942e-006
  0
LINE
 8
GROUP0
10
-3495.88076980656
20
-31.5828066569345
30
3.98476369980472e-006
11
-3496.26899837421
21
-31.5316953963681
31
4.21969695736379e-006
  0
LINE
 8
GROUP0
10
-3495.51899837422
20
-31.7326572906912
30
3.67470021842564e-006
11
-3495.88076980656
21
-31.5828066569345
31
3.98476369980472e-006
  0
LINE
 8
GROUP0
10
-3495.20833820244
20
-31.9710352245877
30
3.31063686047628e-006
11
-3495.51899837422
21
-31.7326572906912
31
3.67470021842564e-006
  0
LINE
 8
GROUP0
10
-3494.96996026854
20
-32.2816953963671
30
2.91738364595062e-006
11
-3495.20833820244
21
-31.9710352245877
31
3.31063686047628e-006
  0
LINE
 8
GROUP0
10
-3494.82010963478
20
-32.6434668287128
30
2.5217405436706e-006
11
-3494.96996026854
21
-32.2816953963671
31
2.91738364595062e-006
  0
LINE
 8
GROUP0
10
-3494.76899837422
20
-33.031695396366
30
2.1506697720497e-006
11
-3494.82010963478
21
-32.6434668287128
31
2.5217405436706e-006
  0
LINE
 8
GROUP0
10
-3494.82010963478
20
-33.4199239640192
30
1.82945907596377e-006
11
-3494.76899837422
21
-33.031695396366
31
2.1506697720497e-006
  0
LINE
 8
GROUP0
10
-3494.96996026854
20
-33.7816953963649
30
1.57999870467052e-006
11
-3494.82010963478
21
-33.4199239640192
31
1.82945907596377e-006
  0
LINE
 8
GROUP0
10
-3495.20833820244
20
-34.0923555681442
30
1.41928867947172e-006
11
-3494.96996026854
21
-33.7816953963649
31
1.57999870467052e-006
  0
LINE
 8
GROUP0
10
-3495.51899837422
20
-34.3307335020407
30
1.35828120875203e-006
11
-3495.20833820244
21
-34.0923555681442
31
1.41928867947172e-006
  0
LINE
 8
GROUP0
10
-3495.88076980656
20
-34.4805841357974
30
1.40113405109332e-006
11
-3495.51899837422
21
-34.3307335020407
31
1.35828120875203e-006
  0
LINE
 8
GROUP0
10
-3496.26899837422
20
-34.5316953963637
30
1.54492662360894e-006
11
-3495.88076980656
21
-34.4805841357974
31
1.40113405109332e-006
  0
LINE
 8
GROUP0
10
-3496.65722694187
20
-34.4805841357974
30
1.77985997140695e-006
11
-3496.26899837422
21
-34.5316953963637
31
1.54492662360894e-006
  0
LINE
 8
GROUP0
10
-3497.01899837422
20
-34.3307335020407
30
2.08992327230817e-006
11
-3496.65722694187
21
-34.4805841357974
31
1.77985997140695e-006
  0
LINE
 8
GROUP0
10
-3497.32965854599
20
-34.0923555681441
30
2.45398681073539e-006
11
-3497.01899837422
21
-34.3307335020407
31
2.08992327230817e-006
  0
LINE
 8
GROUP0
10
-3497.56803647989
20
-33.7816953963648
30
2.84723975454426e-006
11
-3497.32965854599
21
-34.0923555681441
31
2.45398681073539e-006
  0
LINE
 8
GROUP0
10
-3497.71788711365
20
-33.4199239640191
30
3.24288276658535e-006
11
-3497.56803647989
21
-33.7816953963648
31
2.84723975454426e-006
  0
LINE
 8
GROUP0
10
-3497.76899837421
20
-33.0316953963659
30
3.61395371868412e-006
11
-3497.71788711365
21
-33.4199239640191
31
3.24288276658535e-006
  0
LINE
 8
GROUP0
10
-3497.71788711365
20
-32.6434668287127
30
3.93516441477004e-006
11
-3497.76899837421
21
-33.0316953963659
31
3.61395371868412e-006
  0
LINE
 8
GROUP0
10
-3497.56803647989
20
-32.281695396367
30
4.18462505678008e-006
11
-3497.71788711365
21
-32.6434668287127
31
3.93516441477004e-006
  0
LINE
 8
GROUP0
10
-3517.01899837422
20
-34.3307335020495
30
5.75589774740592e-006
11
-3516.65722694187
21
-34.4805841358066
31
5.44583426602685e-006
  0
LINE
 8
GROUP0
10
-3517.32965854599
20
-34.0923555681527
30
6.11996119559421e-006
11
-3517.01899837422
21
-34.3307335020495
31
5.75589774740592e-006
  0
LINE
 8
GROUP0
10
-3517.56803647989
20
-33.7816953963729
30
6.51321422964202e-006
11
-3517.32965854599
21
-34.0923555681527
31
6.11996119559421e-006
  0
LINE
 8
GROUP0
10
-3517.71788711365
20
-33.4199239640269
30
6.90885742216096e-006
11
-3517.56803647989
21
-33.7816953963729
31
6.51321422964202e-006
  0
LINE
 8
GROUP0
10
-3517.76899837421
20
-33.0316953963733
30
7.2799282840208e-006
11
-3517.71788711365
21
-33.4199239640269
31
6.90885742216096e-006
  0
LINE
 8
GROUP0
10
-3517.71788711365
20
-32.6434668287197
30
7.60113870938994e-006
11
-3517.76899837421
21
-33.0316953963733
31
7.2799282840208e-006
  0
LINE
 8
GROUP0
10
-3517.56803647989
20
-32.2816953963738
30
7.85059926116105e-006
11
-3517.71788711365
21
-32.6434668287197
31
7.60113870938994e-006
  0
LINE
 8
GROUP0
10
-3517.32965854599
20
-31.9710352245943
30
8.01130928635985e-006
11
-3517.56803647989
21
-32.2816953963738
31
7.85059926116105e-006
  0
LINE
 8
GROUP0
10
-3517.01899837421
20
-31.7326572906977
30
8.07231657660168e-006
11
-3517.32965854599
21
-31.9710352245943
31
8.01130928635985e-006
  0
LINE
 8
GROUP0
10
-3516.65722694187
20
-31.5828066569411
30
8.02946382449932e-006
11
-3517.01899837421
21
-31.7326572906977
31
8.07231657660168e-006
  0
LINE
 8
GROUP0
10
-3516.26899837421
20
-31.531695396375
30
7.88567125198369e-006
11
-3516.65722694187
21
-31.5828066569411
31
8.02946382449932e-006
  0
LINE
 8
GROUP0
10
-3515.88076980656
20
-31.5828066569415
30
7.65073799442462e-006
11
-3516.26899837421
21
-31.531695396375
31
7.88567125198369e-006
  0
LINE
 8
GROUP0
10
-3515.51899837421
20
-31.7326572906986
30
7.34067451304554e-006
11
-3515.88076980656
21
-31.5828066569415
31
7.65073799442462e-006
  0
LINE
 8
GROUP0
10
-3515.20833820243
20
-31.9710352245954
30
6.97661124533511e-006
11
-3515.51899837421
21
-31.7326572906986
31
7.34067451304554e-006
  0
LINE
 8
GROUP0
10
-3514.96996026854
20
-32.2816953963752
30
6.58335803080945e-006
11
-3515.20833820243
21
-31.9710352245954
31
6.97661124533511e-006
  0
LINE
 8
GROUP0
10
-3514.82010963478
20
-32.6434668287213
30
6.18771510900729e-006
11
-3514.96996026854
21
-32.2816953963752
31
6.58335803080945e-006
  0
LINE
 8
GROUP0
10
-3514.76899837421
20
-33.0316953963748
30
5.8166440666696e-006
11
-3514.82010963478
21
-32.6434668287213
31
6.18771510900729e-006
  0
LINE
 8
GROUP0
10
-3514.82010963478
20
-33.4199239640284
30
5.49543355106152e-006
11
-3514.76899837421
21
-33.0316953963748
31
5.8166440666696e-006
  0
LINE
 8
GROUP0
10
-3514.96996026854
20
-33.7816953963743
30
5.24597299929042e-006
11
-3514.82010963478
21
-33.4199239640284
31
5.49543355106152e-006
  0
LINE
 8
GROUP0
10
-3515.20833820244
20
-34.0923555681538
30
5.08526288385269e-006
11
-3514.96996026854
21
-33.7816953963743
31
5.24597299929042e-006
  0
LINE
 8
GROUP0
10
-3515.51899837422
20
-34.3307335020504
30
5.02425577408872e-006
11
-3515.20833820244
21
-34.0923555681538
31
5.08526288385269e-006
  0
LINE
 8
GROUP0
10
-3515.88076980656
20
-34.480584135807
30
5.06710861643e-006
11
-3515.51899837422
21
-34.3307335020504
31
5.02425577408872e-006
  0
LINE
 8
GROUP0
10
-3516.26899837422
20
-34.5316953963732
30
5.21090118894563e-006
11
-3515.88076980656
21
-34.480584135807
31
5.06710861643e-006
  0
LINE
 8
GROUP0
10
-3516.65722694187
20
-34.4805841358066
30
5.44583426602685e-006
11
-3516.26899837422
21
-34.5316953963732
31
5.21090118894563e-006
 0
ENDSEC
 0
EOF
