 0
SECTION
 2
ENTITIES
  0
LINE
 8
GROUP0
10
-2335.19043954761
20
1992.95589788197
30
0.000136841687126565
11
-2335.19043954761
21
1987.95593262224
31
7.84047523146036e-005
  0
LINE
 8
GROUP0
10
-2335.19043954761
20
1987.95593262224
30
7.84047523146036e-005
11
-2325.19043954761
21
1987.95593262224
31
8.01314523533769e-005
  0
LINE
 8
GROUP0
10
-2754.19043954744
20
1902.95589788197
30
0.000137641590662252
11
-2754.19043954744
21
1927.95589788197
31
0.000137641591023208
  0
LINE
 8
GROUP0
10
-2335.19043954761
20
1927.95589788197
30
0.000135114986691587
11
-2335.19043954761
21
1902.95589788197
31
0.000136841685827971
  0
LINE
 8
GROUP0
10
-2712.19077713636
20
2012.95592993069
30
3.26618856872962e-005
11
-2377.18984689108
21
2012.95591490191
31
0.000152178382754747
  0
LINE
 8
GROUP0
10
-2335.19043954761
20
1902.95589788197
30
0.000136841685827971
11
-2754.19043954744
21
1902.95589788197
31
0.000137641590662252
  0
LINE
 8
GROUP0
10
-2754.19043954744
20
1992.95593262224
30
7.75954618020935e-005
11
-2712.19077713636
21
1992.95592993069
31
3.26618853989546e-005
  0
LINE
 8
GROUP0
10
-2335.19043954761
20
1927.95589788197
30
0.000135114986691587
11
-2325.19043954761
21
1927.95589788197
31
0.00013684168673036
  0
LINE
 8
GROUP0
10
-2377.18984689108
20
2012.95591490191
30
0.000152178382754747
11
-2377.18984689108
21
1992.95589788197
31
0.000152178382466406
  0
LINE
 8
GROUP0
10
-2377.18984689108
20
1992.95589788197
30
0.000152178382466406
11
-2335.19043954761
21
1992.95589788197
31
0.000136841687126565
  0
LINE
 8
GROUP0
10
-2300.19043954761
20
1952.95591525211
30
0.000114639996222637
11
-2325.19043954761
21
1927.95589788197
31
0.00013684168673036
  0
LINE
 8
GROUP0
10
-2397.18984689101
20
2000.95590588314
30
0.000278148732997402
11
-2396.67220880081
21
2001.02405423056
31
0.000278250887796144
  0
LINE
 8
GROUP0
10
-2300.19043954761
20
1962.95591525211
30
0.000105188296028147
11
-2300.19043954761
21
1952.95591525211
31
0.000114639996222637
  0
LINE
 8
GROUP0
10
-2712.19077713636
20
1992.95592993069
30
3.26618853989546e-005
11
-2712.19077713636
21
2012.95592993069
31
3.26618856872962e-005
  0
LINE
 8
GROUP0
10
-2325.19043954761
20
1987.95593262224
30
8.01314523533769e-005
11
-2300.19043954761
21
1962.95591525211
31
0.000105188296028147
  0
LINE
 8
GROUP0
10
-2754.19043954744
20
1987.95593262224
30
8.09313566462244e-005
11
-2764.19043954744
21
1987.95593262224
31
7.92046564269733e-005
  0
LINE
 8
GROUP0
10
-2754.19043954744
20
1987.95593262224
30
8.09313566462244e-005
11
-2754.19043954744
21
1992.95593262224
31
7.75954618020935e-005
  0
LINE
 8
GROUP0
10
-2396.67220880081
20
2001.02405423056
30
0.000278250887796144
11
-2396.18984689101
21
2001.22385507557
31
0.000278371628205792
  0
LINE
 8
GROUP0
10
-2399.12169854359
20
2002.43826779293
30
0.000278093018061631
11
-2398.92189769858
21
2001.95590588314
31
0.000278037102405582
  0
LINE
 8
GROUP0
10
-2789.19043954744
20
1952.9559152521
30
0.000110535244889137
11
-2789.19043954744
21
1962.95601036996
31
0.000101083454726436
  0
LINE
 8
GROUP0
10
-2398.92189769858
20
2003.95590588314
30
0.000278411988147004
11
-2399.12169854359
21
2003.47354397334
31
0.000278287073641298
  0
LINE
 8
GROUP0
10
-2754.19043954744
20
1927.95589788197
30
0.000137641591023208
11
-2764.19043954744
21
1927.95589788197
31
0.000135914890803956
  0
LINE
 8
GROUP0
10
-2692.19077713621
20
2004.95586895213
30
0.000299733038148325
11
-2692.70841522642
21
2004.88772060471
31
0.000299630883350288
  0
LINE
 8
GROUP0
10
-2691.67313904601
20
2004.88772060471
30
0.000299809644499816
11
-2692.19077713621
21
2004.95586895213
31
0.000299733038148325
  0
LINE
 8
GROUP0
10
-2398.18984689101
20
2004.68795669071
30
0.000278675609272561
11
-2398.60406045339
21
2004.37011944551
31
0.00027854451087575
  0
LINE
 8
GROUP0
10
-2395.25799523844
20
2003.47354397334
30
0.000278954219416722
11
-2395.45779608345
21
2003.95590588314
31
0.000279010135072771
  0
LINE
 8
GROUP0
10
-2397.70748498122
20
2004.88775753572
30
0.000278796349682209
11
-2398.18984689101
21
2004.68795669071
31
0.000278675609272561
  0
LINE
 8
GROUP0
10
-2399.18984689101
20
2002.95590588314
30
0.000278178278694974
11
-2399.12169854359
21
2002.43826779293
31
0.000278093018061631
  0
LINE
 8
GROUP0
10
-2395.45779608345
20
2003.95590588314
30
0.000279010135072771
11
-2395.77563332864
21
2004.37011944551
31
0.000279032895501646
  0
LINE
 8
GROUP0
10
-2395.18984689101
20
2002.95590588314
30
0.000278868958782674
11
-2395.25799523844
21
2003.47354397334
31
0.000278954219416722
  0
LINE
 8
GROUP0
10
-2395.25799523844
20
2002.43826779293
30
0.000278760163837055
11
-2395.18984689101
21
2002.95590588314
31
0.000278868958782674
  0
LINE
 8
GROUP0
10
-2398.18984689101
20
2001.22385507557
30
0.000278026288161942
11
-2397.70748498122
21
2001.02405423056
31
0.000278072126646617
  0
LINE
 8
GROUP0
10
-2395.77563332864
20
2001.54169232077
30
0.000278502726601898
11
-2395.45779608344
21
2001.95590588314
31
0.000278635249331349
  0
LINE
 8
GROUP0
10
-2396.18984689101
20
2001.22385507557
30
0.000278371628205792
11
-2395.77563332864
21
2001.54169232077
31
0.000278502726601898
  0
LINE
 8
GROUP0
10
-2764.19043954744
20
1927.95589788197
30
0.000135914890803956
11
-2789.19043954744
21
1952.9559152521
31
0.000110535244889137
  0
LINE
 8
GROUP0
10
-2396.18984689101
20
2004.68795669071
30
0.000279020949316411
11
-2396.67220880081
21
2004.88775753572
31
0.000278975110831736
  0
LINE
 8
GROUP0
10
-2398.60406045339
20
2001.54169232077
30
0.000278014341976002
11
-2398.18984689101
21
2001.22385507557
31
0.000278026288161942
  0
LINE
 8
GROUP0
10
-2395.45779608344
20
2001.95590588314
30
0.000278635249331349
11
-2395.25799523844
21
2002.43826779293
31
0.000278760163837055
  0
LINE
 8
GROUP0
10
-2395.77563332864
20
2004.37011944551
30
0.000279032895501646
11
-2396.18984689101
21
2004.68795669071
31
0.000279020949316411
  0
LINE
 8
GROUP0
10
-2396.67220880081
20
2004.88775753572
30
0.000278975110831736
11
-2397.18984689101
21
2004.95590588314
31
0.000278898504480246
  0
LINE
 8
GROUP0
10
-2398.92189769858
20
2001.95590588314
30
0.000278037102405582
11
-2398.60406045339
21
2001.54169232077
31
0.000278014341976002
  0
LINE
 8
GROUP0
10
-2397.18984689101
20
2004.95590588314
30
0.000278898504480246
11
-2397.70748498122
21
2004.88775753572
31
0.000278796349682209
  0
LINE
 8
GROUP0
10
-2398.60406045339
20
2004.37011944551
30
0.00027854451087575
11
-2398.92189769858
21
2003.95590588314
31
0.000278411988147004
  0
LINE
 8
GROUP0
10
-2691.67313904601
20
2001.02401729955
30
0.000299085421464224
11
-2691.19077713621
21
2001.22381814456
31
0.000299206161873872
  0
LINE
 8
GROUP0
10
-2399.12169854359
20
2003.47354397334
30
0.000278287073641298
11
-2399.18984689101
21
2002.95590588314
31
0.000278178278694974
  0
LINE
 8
GROUP0
10
-2789.19043954744
20
1962.95601036996
30
0.000101083454726436
11
-2764.19043954744
21
1987.95593262224
31
7.92046564269733e-005
  0
LINE
 8
GROUP0
10
-2397.70748498122
20
2001.02405423056
30
0.000278072126646617
11
-2397.18984689101
21
2000.95590588314
31
0.000278148732997402
  0
LINE
 8
GROUP0
10
-2706.70855753433
20
1911.95589788197
30
0.000134419910924732
11
-2706.50875668932
21
1912.43825979176
31
0.000134544825430438
  0
LINE
 8
GROUP0
10
-2706.4406083419
20
1912.95589788197
30
0.000134653620376762
11
-2706.50875668932
21
1913.47353597217
31
0.000134738881010105
  0
LINE
 8
GROUP0
10
-2690.25892548364
20
2003.47350704233
30
0.000299788753084801
11
-2690.45872632864
21
2003.95586895213
31
0.000299844668740851
  0
LINE
 8
GROUP0
10
-2707.92297025169
20
1914.88774953454
30
0.000134759772425119
11
-2708.4406083419
21
1914.95589788197
31
0.000134683166074334
  0
LINE
 8
GROUP0
10
-2693.19077713621
20
2004.6879197597
30
0.00029951014294064
11
-2693.60499069859
21
2004.3700825145
31
0.000299379044543829
  0
LINE
 8
GROUP0
10
-2694.19077713621
20
2002.95586895213
30
0.000299012812363053
11
-2694.12262878879
21
2002.43823086192
31
0.000298927551729711
  0
LINE
 8
GROUP0
10
-2691.19077713621
20
2004.6879197597
30
0.00029985548298449
11
-2691.67313904601
21
2004.88772060471
31
0.000299809644499816
  0
LINE
 8
GROUP0
10
-2690.45872632864
20
2003.95586895213
30
0.000299844668740851
11
-2690.77656357384
21
2004.3700825145
31
0.000299867429169726
  0
LINE
 8
GROUP0
10
-2692.19077713621
20
2000.95586895213
30
0.000298983266665481
11
-2691.67313904601
21
2001.02401729955
31
0.000299085421464224
  0
LINE
 8
GROUP0
10
-2706.50875668932
20
1912.43825979176
30
0.000134544825430438
11
-2706.4406083419
21
1912.95589788197
31
0.000134653620376762
  0
LINE
 8
GROUP0
10
-2692.70841522642
20
2004.88772060471
30
0.000299630883350288
11
-2693.19077713621
21
2004.6879197597
31
0.00029951014294064
  0
LINE
 8
GROUP0
10
-2707.02639477952
20
1911.54168431959
30
0.000134287388195986
11
-2706.70855753433
21
1911.95589788197
31
0.000134419910924732
  0
LINE
 8
GROUP0
10
-2690.77656357384
20
2001.54165538976
30
0.000299337260269977
11
-2690.45872632864
21
2001.95586895213
31
0.000299469782999429
  0
LINE
 8
GROUP0
10
-2693.92282794378
20
2001.95586895213
30
0.000298871636073661
11
-2693.60499069859
21
2001.54165538976
31
0.000298848875644081
  0
LINE
 8
GROUP0
10
-2706.70855753433
20
1913.95589788197
30
0.000134794796666154
11
-2707.02639477952
21
1914.37011144434
31
0.000134817557095734
  0
LINE
 8
GROUP0
10
-2707.92297025169
20
1911.02404622939
30
0.000134035549389527
11
-2707.4406083419
21
1911.2238470744
31
0.000134156289799175
  0
LINE
 8
GROUP0
10
-2690.19077713621
20
2002.95586895213
30
0.000299703492450754
11
-2690.25892548364
21
2003.47350704233
31
0.000299788753084801
  0
LINE
 8
GROUP0
10
-2708.4406083419
20
1910.95589788197
30
0.00013393339459149
11
-2707.92297025169
21
1911.02404622939
31
0.000134035549389527
  0
LINE
 8
GROUP0
10
-2707.4406083419
20
1914.68794868954
30
0.000134805610909794
11
-2707.92297025169
21
1914.88774953454
31
0.000134759772425119
  0
LINE
 8
GROUP0
10
-2692.70841522642
20
2001.02401729955
30
0.000298906660314696
11
-2692.19077713621
21
2000.95586895213
31
0.000298983266665481
  0
LINE
 8
GROUP0
10
-2693.60499069859
20
2001.54165538976
30
0.000298848875644081
11
-2693.19077713621
21
2001.22381814456
31
0.000298860821830021
  0
LINE
 8
GROUP0
10
-2694.12262878879
20
2003.47350704233
30
0.000299121607309377
11
-2694.19077713621
21
2002.95586895213
31
0.000299012812363053
  0
LINE
 8
GROUP0
10
-2693.60499069859
20
2004.3700825145
30
0.000299379044543829
11
-2693.92282794378
21
2003.95586895213
31
0.000299246521815083
  0
LINE
 8
GROUP0
10
-2690.77656357384
20
2004.3700825145
30
0.000299867429169726
11
-2691.19077713621
21
2004.6879197597
31
0.00029985548298449
  0
LINE
 8
GROUP0
10
-2690.45872632864
20
2001.95586895213
30
0.000299469782999429
11
-2690.25892548364
21
2002.43823086192
31
0.000299594697505134
  0
LINE
 8
GROUP0
10
-2690.25892548364
20
2002.43823086192
30
0.000299594697505134
11
-2690.19077713621
21
2002.95586895213
31
0.000299703492450754
  0
LINE
 8
GROUP0
10
-2691.19077713621
20
2001.22381814456
30
0.000299206161873872
11
-2690.77656357384
21
2001.54165538976
31
0.000299337260269977
  0
LINE
 8
GROUP0
10
-2707.4406083419
20
1911.2238470744
30
0.000134156289799175
11
-2707.02639477952
21
1911.54168431959
31
0.000134287388195986
  0
LINE
 8
GROUP0
10
-2693.19077713621
20
2001.22381814456
30
0.000298860821830021
11
-2692.70841522642
21
2001.02401729955
31
0.000298906660314696
  0
LINE
 8
GROUP0
10
-2693.92282794378
20
2003.95586895213
30
0.000299246521815083
11
-2694.12262878879
21
2003.47350704233
31
0.000299121607309377
  0
LINE
 8
GROUP0
10
-2694.12262878879
20
2002.43823086192
30
0.000298927551729711
11
-2693.92282794378
21
2001.95586895213
31
0.000298871636073661
  0
LINE
 8
GROUP0
10
-2706.50875668932
20
1913.47353597217
30
0.000134738881010105
11
-2706.70855753433
21
1913.95589788197
31
0.000134794796666154
  0
LINE
 8
GROUP0
10
-2379.52639478014
20
1914.37011144384
30
1.01855352564462e-006
11
-2379.94060834236
21
1914.6879486889
31
1.00660733970415e-006
  0
LINE
 8
GROUP0
10
-2382.35482190374
20
1911.5416843201
30
0.0
11
-2381.94060834151
21
1911.22384707504
31
1.19461852354785e-008
  0
LINE
 8
GROUP0
10
-2378.9406083427
20
1912.95589788202
30
8.54616806672537e-007
11
-2379.00875669011
21
1913.47353597202
31
9.39877440014891e-007
  0
LINE
 8
GROUP0
10
-2710.17265914946
20
1911.95589788197
30
0.000133821763998965
11
-2709.85482190427
21
1911.54168431959
31
0.00013379900357009
  0
LINE
 8
GROUP0
10
-2710.37245999447
20
1912.43825979176
30
0.000133877679655015
11
-2710.17265914946
21
1911.95589788197
31
0.000133821763998965
  0
LINE
 8
GROUP0
10
-2379.94060834228
20
1911.22384707509
30
3.57286229085707e-007
11
-2379.52639478007
21
1911.54168432017
31
4.88384625896288e-007
  0
LINE
 8
GROUP0
10
-2379.00875669011
20
1913.47353597202
30
9.39877440014891e-007
11
-2379.20855753505
21
1913.95589788163
31
9.95793096064679e-007
  0
LINE
 8
GROUP0
10
-2379.00875669008
20
1912.43825979201
30
7.45821860348439e-007
11
-2378.9406083427
21
1912.95589788202
31
8.54616806672537e-007
  0
LINE
 8
GROUP0
10
-2707.02639477952
20
1914.37011144434
30
0.000134817557095734
11
-2707.4406083419
21
1914.68794868954
31
0.000134805610909794
  0
LINE
 8
GROUP0
10
-2709.4406083419
20
1911.2238470744
30
0.000133810949755325
11
-2708.9582464321
21
1911.02404622939
31
0.00013385678824
  0
LINE
 8
GROUP0
10
-2379.20855753501
20
1911.95589788239
30
6.20907354642597e-007
11
-2379.00875669008
21
1912.43825979201
31
7.45821860348439e-007
  0
LINE
 8
GROUP0
10
-2709.85482190427
20
1914.37011144434
30
0.000134329172469838
11
-2710.17265914947
21
1913.95589788197
31
0.000134196649740387
  0
LINE
 8
GROUP0
10
-2708.9582464321
20
1914.88774953454
30
0.000134581011275592
11
-2709.4406083419
21
1914.68794868954
31
0.000134460270865944
  0
LINE
 8
GROUP0
10
-2708.4406083419
20
1914.95589788197
30
0.000134683166074334
11
-2708.9582464321
21
1914.88774953454
31
0.000134581011275592
  0
LINE
 8
GROUP0
10
-2382.94060834117
20
1912.95589788192
30
1.6393671897208e-007
11
-2382.87245999376
21
1912.43825979192
31
7.86760849247337e-008
  0
LINE
 8
GROUP0
10
-2380.42297025188
20
1911.02404623014
30
2.3654581943755e-007
11
-2379.94060834228
21
1911.22384707509
31
3.57286229085707e-007
  0
LINE
 8
GROUP0
10
-2709.4406083419
20
1914.68794868954
30
0.000134460270865944
11
-2709.85482190427
21
1914.37011144434
31
0.000134329172469838
  0
LINE
 8
GROUP0
10
-2381.94060834151
20
1911.22384707504
30
1.19461852354785e-008
11
-2381.4582464319
21
1911.02404623012
31
5.77846699101325e-008
  0
LINE
 8
GROUP0
10
-2382.87245999376
20
1912.43825979192
30
7.86760849247337e-008
11
-2382.67265914882
21
1911.95589788231
31
2.27604288749461e-008
  0
LINE
 8
GROUP0
10
-2709.85482190427
20
1911.54168431959
30
0.00013379900357009
11
-2709.4406083419
21
1911.2238470744
31
0.000133810949755325
  0
LINE
 8
GROUP0
10
-2379.20855753505
20
1913.95589788163
30
9.95793096064679e-007
11
-2379.52639478014
21
1914.37011144384
31
1.01855352564462e-006
  0
LINE
 8
GROUP0
10
-2379.52639478007
20
1911.54168432017
30
4.88384625896288e-007
11
-2379.20855753501
21
1911.95589788239
31
6.20907354642597e-007
  0
LINE
 8
GROUP0
10
-2710.17265914947
20
1913.95589788197
30
0.000134196649740387
11
-2710.37245999447
21
1913.47353597217
31
0.000134071735234681
  0
LINE
 8
GROUP0
10
-2382.67265914887
20
1913.95589788155
30
3.97646170297028e-007
11
-2382.87245999379
21
1913.47353597193
31
2.72731664591186e-007
  0
LINE
 8
GROUP0
10
-2382.87245999379
20
1913.47353597193
30
2.72731664591186e-007
11
-2382.94060834117
21
1912.95589788192
31
1.6393671897208e-007
  0
LINE
 8
GROUP0
10
-2381.4582464319
20
1911.02404623012
30
5.77846699101325e-008
11
-2380.94060834189
21
1910.95589788273
31
1.34391021400226e-007
  0
LINE
 8
GROUP0
10
-2382.67265914882
20
1911.95589788231
30
2.27604288749461e-008
11
-2382.35482190374
21
1911.5416843201
31
0.0
  0
LINE
 8
GROUP0
10
-2710.4406083419
20
1912.95589788197
30
0.000133962940289062
11
-2710.37245999447
21
1912.43825979176
31
0.000133877679655015
  0
LINE
 8
GROUP0
10
-2710.37245999447
20
1913.47353597217
30
0.000134071735234681
11
-2710.4406083419
21
1912.95589788197
31
0.000133962940289062
  0
LINE
 8
GROUP0
10
-2708.9582464321
20
1911.02404622939
30
0.00013385678824
11
-2708.4406083419
21
1910.95589788197
31
0.00013393339459149
  0
LINE
 8
GROUP0
10
-2380.94060834189
20
1910.95589788273
30
1.34391021400226e-007
11
-2380.42297025188
21
1911.02404623014
31
2.3654581943755e-007
  0
LINE
 8
GROUP0
10
-2382.3548219038
20
1914.37011144377
30
5.30168899748329e-007
11
-2382.67265914887
21
1913.95589788155
31
3.97646170297028e-007
  0
LINE
 8
GROUP0
10
-2494.69031201371
20
1922.95589788197
30
3.98609156400054e-005
11
-2494.69031132304
21
1972.9558988424
31
4.03364348110724e-005
  0
LINE
 8
GROUP0
10
-2684.19043885675
20
1922.95589884233
30
0.000123427144361571
11
-2684.19043885675
21
1942.95589884233
31
0.00012237416023238
  0
LINE
 8
GROUP0
10
-2494.69031132304
20
1972.9558988424
30
4.03364348110724e-005
11
-2544.69031132304
21
1972.9558988424
31
4.03364349013113e-005
  0
LINE
 8
GROUP0
10
-2380.94060834198
20
1914.95589788121
30
8.8416250424439e-007
11
-2381.45824643199
21
1914.8877495338
31
7.82007705502075e-007
  0
LINE
 8
GROUP0
10
-2629.19043885675
20
1922.95589884233
30
0.000123427144361571
11
-2684.19043885675
21
1922.95589884233
31
0.000123427144361571
  0
LINE
 8
GROUP0
10
-2494.69031201371
20
1922.95589788197
30
3.98609156400054e-005
11
-2544.69031132304
21
1922.9558988424
31
4.29688952708174e-005
  0
LINE
 8
GROUP0
10
-2544.69031132304
20
1972.9558988424
30
4.03364349013113e-005
11
-2544.69031132304
21
1922.9558988424
31
4.29688952708174e-005
  0
LINE
 8
GROUP0
10
-2381.45824643199
20
1914.8877495338
30
7.82007705502075e-007
11
-2381.94060834159
21
1914.68794868885
31
6.61267295853918e-007
  0
LINE
 8
GROUP0
10
-2381.94060834159
20
1914.68794868885
30
6.61267295853918e-007
11
-2382.3548219038
21
1914.37011144377
31
5.30168899748329e-007
  0
LINE
 8
GROUP0
10
-2379.94060834236
20
1914.6879486889
30
1.00660733970415e-006
11
-2380.42297025197
21
1914.88774953382
31
9.60768855029492e-007
  0
LINE
 8
GROUP0
10
-2380.42297025197
20
1914.88774953382
30
9.60768855029492e-007
11
-2380.94060834198
21
1914.95589788121
31
8.8416250424439e-007
  0
LINE
 8
GROUP0
10
-2684.19043885675
20
1942.95589884233
30
0.00012237416023238
11
-2629.19043885675
21
1942.95589884233
31
0.00012237416023238
  0
LINE
 8
GROUP0
10
-2629.19043885675
20
1942.95589884233
30
0.00012237416023238
11
-2629.19043885675
21
1922.95589884233
31
0.000123427144361571
 0
ENDSEC
 0
EOF
