 0
SECTION
 2
ENTITIES
  0
LINE
 8
GROUP0
10
-3416.10771218543
20
1944.03471688948
30
0.000135006152649952
11
-3835.10771218526
21
1944.03471688947
31
0.00013694491945847
  0
LINE
 8
GROUP0
10
-3416.10771218543
20
1969.03471688948
30
0.000133279452811397
11
-3416.10771218543
21
1944.03471688948
31
0.000135006152649952
  0
LINE
 8
GROUP0
10
-3416.10771218543
20
1969.03471688948
30
0.000133279452811397
11
-3406.10771218543
21
1969.03471688948
31
0.000135006152308736
  0
LINE
 8
GROUP0
10
-3381.10771218543
20
1994.03473425962
30
0.000107964459894477
11
-3406.10771218543
21
1969.03471688948
31
0.000135006152308736
  0
LINE
 8
GROUP0
10
-3381.10771218543
20
2004.03473425962
30
0.000107964459746429
11
-3381.10771218543
21
1994.03473425962
31
0.000107964459894477
  0
LINE
 8
GROUP0
10
-3406.10771218543
20
2029.03475162976
30
7.82959169821296e-005
11
-3381.10771218543
21
2004.03473425962
31
0.000107964459746429
  0
LINE
 8
GROUP0
10
-3416.10771218543
20
2029.03475162975
30
7.65692174622301e-005
11
-3406.10771218543
21
2029.03475162976
31
7.82959169821296e-005
  0
LINE
 8
GROUP0
10
-3416.10771218543
20
2034.03471688948
30
0.000135006152144473
11
-3416.10771218543
21
2029.03475162975
31
7.65692174622301e-005
  0
LINE
 8
GROUP0
10
-3458.10711952891
20
2034.03471688948
30
0.000150342846220969
11
-3416.10771218543
21
2034.03471688948
31
0.000135006152144473
  0
LINE
 8
GROUP0
10
-3458.10711952891
20
2054.03473390942
30
0.000150342845948137
11
-3458.10711952891
21
2034.03471688948
31
0.000150342846220969
  0
LINE
 8
GROUP0
10
-3793.10804977418
20
2054.0347489382
30
3.19652119265101e-005
11
-3458.10711952891
21
2054.03473390942
31
0.000150342845948137
  0
LINE
 8
GROUP0
10
-3793.10804977418
20
2034.0347489382
30
3.19652122219016e-005
11
-3793.10804977418
21
2054.0347489382
31
3.19652119265101e-005
  0
LINE
 8
GROUP0
10
-3835.10771218526
20
2034.03475162975
30
7.68987887942385e-005
11
-3793.10804977418
21
2034.0347489382
31
3.19652122219016e-005
  0
LINE
 8
GROUP0
10
-3835.10771218526
20
2029.03475162975
30
8.02346837793677e-005
11
-3835.10771218526
21
2034.03475162975
31
7.68987887942385e-005
  0
LINE
 8
GROUP0
10
-3835.10771218526
20
2029.03475162975
30
8.02346837793677e-005
11
-3845.10771218526
21
2029.03475162975
31
7.85079835488367e-005
  0
LINE
 8
GROUP0
10
-3870.10771218526
20
2004.03473425961
30
0.000105424990637476
11
-3845.10771218526
21
2029.03475162975
31
7.85079835488367e-005
  0
LINE
 8
GROUP0
10
-3870.10771218526
20
1994.03473425961
30
0.000105424990785524
11
-3870.10771218526
21
2004.03473425961
31
0.000105424990637476
  0
LINE
 8
GROUP0
10
-3845.10771218526
20
1969.03471688947
30
0.000135218218898003
11
-3870.10771218526
21
1994.03473425961
31
0.000105424990785524
  0
LINE
 8
GROUP0
10
-3835.10771218526
20
1969.03471688947
30
0.000136944919117254
11
-3845.10771218526
21
1969.03471688947
31
0.000135218218898003
  0
LINE
 8
GROUP0
10
-3835.10771218526
20
1944.03471688947
30
0.00013694491945847
11
-3835.10771218526
21
1969.03471688947
31
0.000136944919117254
  0
LINE
 8
GROUP0
10
-3477.58948143864
20
2042.10287323807
30
0.000276415351313125
11
-3477.10711952884
21
2042.30267408308
31
0.000276536092461604
  0
LINE
 8
GROUP0
10
-3478.10711952884
20
2042.03472489065
30
0.000276313196527778
11
-3477.58948143864
21
2042.10287323807
31
0.000276415351313125
  0
LINE
 8
GROUP0
10
-3478.62475761905
20
2042.10287323807
30
0.000276236590174878
11
-3478.10711952884
21
2042.03472489065
31
0.000276313196527778
  0
LINE
 8
GROUP0
10
-3479.10711952884
20
2042.30267408308
30
0.000276190751684563
11
-3478.62475761905
21
2042.10287323807
31
0.000276236590174878
  0
LINE
 8
GROUP0
10
-3479.52133309121
20
2042.62051132828
30
0.000276178805490163
11
-3479.10711952884
21
2042.30267408308
31
0.000276190751684563
  0
LINE
 8
GROUP0
10
-3479.83917033641
20
2043.03472489065
30
0.000276201565907758
11
-3479.52133309121
21
2042.62051132828
31
0.000276178805490163
  0
LINE
 8
GROUP0
10
-3480.03897118142
20
2043.51708680045
30
0.000276257481538428
11
-3479.83917033641
21
2043.03472489065
31
0.000276201565907758
  0
LINE
 8
GROUP0
10
-3480.10711952884
20
2044.03472489065
30
0.000276342742902141
11
-3480.03897118142
21
2043.51708680045
31
0.000276257481538428
  0
LINE
 8
GROUP0
10
-3480.03897118142
20
2044.55236298085
30
0.000276451537100469
11
-3480.10711952884
21
2044.03472489065
31
0.000276342742902141
  0
LINE
 8
GROUP0
10
-3479.83917033641
20
2045.03472489065
30
0.00027657645159278
11
-3480.03897118142
21
2044.55236298085
31
0.000276451537100469
  0
LINE
 8
GROUP0
10
-3479.52133309122
20
2045.44893845302
30
0.000276708974321527
11
-3479.83917033641
21
2045.03472489065
31
0.00027657645159278
  0
LINE
 8
GROUP0
10
-3479.10711952884
20
2045.76677569822
30
0.000276840072697893
11
-3479.52133309122
21
2045.44893845302
31
0.000276708974321527
  0
LINE
 8
GROUP0
10
-3478.62475761905
20
2045.96657654323
30
0.000276960813101901
11
-3479.10711952884
21
2045.76677569822
31
0.000276840072697893
  0
LINE
 8
GROUP0
10
-3478.10711952884
20
2046.03472489065
30
0.00027706296860916
11
-3478.62475761905
21
2045.96657654323
31
0.000276960813101901
  0
LINE
 8
GROUP0
10
-3477.58948143864
20
2045.96657654323
30
0.00027713957497334
11
-3478.10711952884
21
2046.03472489065
31
0.00027706296860916
  0
LINE
 8
GROUP0
10
-3477.10711952884
20
2045.76677569822
30
0.000277185413474934
11
-3477.58948143864
21
2045.96657654323
31
0.00027713957497334
  0
LINE
 8
GROUP0
10
-3476.69290596647
20
2045.44893845302
30
0.000277197359658055
11
-3477.10711952884
21
2045.76677569822
31
0.000277185413474934
  0
LINE
 8
GROUP0
10
-3476.37506872127
20
2045.03472489065
30
0.000277174599240459
11
-3476.69290596647
21
2045.44893845302
31
0.000277197359658055
  0
LINE
 8
GROUP0
10
-3476.17526787626
20
2044.55236298085
30
0.000277118683586525
11
-3476.37506872127
21
2045.03472489065
31
0.000277174599240459
  0
LINE
 8
GROUP0
10
-3476.10711952884
20
2044.03472489065
30
0.000277033422978562
11
-3476.17526787626
21
2044.55236298085
31
0.000277118683586525
  0
LINE
 8
GROUP0
10
-3476.17526787626
20
2043.51708680045
30
0.000276924628024483
11
-3476.10711952884
21
2044.03472489065
31
0.000277033422978562
  0
LINE
 8
GROUP0
10
-3476.37506872127
20
2043.03472489065
30
0.000276799713555437
11
-3476.17526787626
21
2043.51708680045
31
0.000276924628024483
  0
LINE
 8
GROUP0
10
-3476.69290596647
20
2042.62051132828
30
0.00027666719082669
11
-3476.37506872127
21
2043.03472489065
31
0.000276799713555437
  0
LINE
 8
GROUP0
10
-3477.10711952884
20
2042.30267408308
30
0.000276536092461604
11
-3476.69290596647
21
2042.62051132828
31
0.00027666719082669
  0
LINE
 8
GROUP0
10
-3773.10804977404
20
2046.03468795964
30
0.00029903636478163
11
-3773.62568786424
21
2045.96653961222
31
0.000298934210030122
  0
LINE
 8
GROUP0
10
-3772.59041168383
20
2045.96653961222
30
0.000299112971157089
11
-3773.10804977404
21
2046.03468795964
31
0.00029903636478163
  0
LINE
 8
GROUP0
10
-3772.10804977404
20
2045.76673876721
30
0.000299158809647404
11
-3772.59041168383
21
2045.96653961222
31
0.000299112971157089
  0
LINE
 8
GROUP0
10
-3771.69383621167
20
2045.44890152201
30
0.000299170755853084
11
-3772.10804977404
21
2045.76673876721
31
0.000299158809647404
  0
LINE
 8
GROUP0
10
-3771.37599896647
20
2045.03468795964
30
0.000299147995424209
11
-3771.69383621167
21
2045.44890152201
31
0.000299170755853084
  0
LINE
 8
GROUP0
10
-3771.17619812146
20
2044.55232604984
30
0.000299092079770275
11
-3771.37599896647
21
2045.03468795964
31
0.000299147995424209
  0
LINE
 8
GROUP0
10
-3771.10804977404
20
2044.03468795964
30
0.000299006819151032
11
-3771.17619812146
21
2044.55232604984
31
0.000299092079770275
  0
LINE
 8
GROUP0
10
-3771.17619812146
20
2043.51704986943
30
0.000298898024230793
11
-3771.10804977404
21
2044.03468795964
31
0.000299006819151032
  0
LINE
 8
GROUP0
10
-3771.37599896647
20
2043.03468795964
30
0.000298773109750466
11
-3771.17619812146
21
2043.51704986943
31
0.000298898024230793
  0
LINE
 8
GROUP0
10
-3771.69383621167
20
2042.62047439726
30
0.00029864058701044
11
-3771.37599896647
21
2043.03468795964
31
0.000298773109750466
  0
LINE
 8
GROUP0
10
-3772.10804977404
20
2042.30263715207
30
0.000298509488634074
11
-3771.69383621167
21
2042.62047439726
31
0.00029864058701044
  0
LINE
 8
GROUP0
10
-3772.59041168383
20
2042.10283630706
30
0.000298388748218786
11
-3772.10804977404
21
2042.30263715207
31
0.000298509488634074
  0
LINE
 8
GROUP0
10
-3773.10804977404
20
2042.03468795964
30
0.000298286593444719
11
-3772.59041168383
21
2042.10283630706
31
0.000298388748218786
  0
LINE
 8
GROUP0
10
-3773.62568786424
20
2042.10283630706
30
0.000298209987103099
11
-3773.10804977404
21
2042.03468795964
31
0.000298286593444719
  0
LINE
 8
GROUP0
10
-3774.10804977404
20
2042.30263715207
30
0.000298164148590224
11
-3773.62568786424
21
2042.10283630706
31
0.000298209987103099
  0
LINE
 8
GROUP0
10
-3774.52226333641
20
2042.62047439726
30
0.000298152202373264
11
-3774.10804977404
21
2042.30263715207
31
0.000298164148590224
  0
LINE
 8
GROUP0
10
-3774.84010058161
20
2043.03468795964
30
0.000298174962813419
11
-3774.52226333641
21
2042.62047439726
31
0.000298152202373264
  0
LINE
 8
GROUP0
10
-3775.03990142662
20
2043.51704986943
30
0.000298230878455369
11
-3774.84010058161
21
2043.03468795964
31
0.000298174962813419
  0
LINE
 8
GROUP0
10
-3775.10804977404
20
2044.03468795964
30
0.000298316139052052
11
-3775.03990142662
21
2043.51704986943
31
0.000298230878455369
  0
LINE
 8
GROUP0
10
-3775.03990142662
20
2044.55232604984
30
0.000298424934006131
11
-3775.10804977404
21
2044.03468795964
31
0.000298316139052052
  0
LINE
 8
GROUP0
10
-3774.84010058161
20
2045.03468795964
30
0.000298549848475882
11
-3775.03990142662
21
2044.55232604984
31
0.000298424934006131
  0
LINE
 8
GROUP0
10
-3774.52226333641
20
2045.44890152201
30
0.000298682371227188
11
-3774.84010058161
21
2045.03468795964
31
0.000298549848475882
  0
LINE
 8
GROUP0
10
-3774.10804977404
20
2045.76673876721
30
0.000298813469592274
11
-3774.52226333641
21
2045.44890152201
31
0.000298682371227188
  0
LINE
 8
GROUP0
10
-3773.62568786424
20
2045.96653961222
30
0.000298934210030122
11
-3774.10804977404
21
2045.76673876721
31
0.000298813469592274
  0
LINE
 8
GROUP0
10
-3817.62583017215
20
1955.03471688947
30
0.000132528769870971
11
-3817.94366741735
21
1955.44893045185
31
0.000132551530266006
  0
LINE
 8
GROUP0
10
-3817.42602932714
20
1954.55235497968
30
0.000132472854217741
11
-3817.62583017215
21
1955.03471688947
31
0.000132528769870971
  0
LINE
 8
GROUP0
10
-3817.35788097972
20
1954.03471688947
30
0.000132387593575939
11
-3817.42602932714
21
1954.55235497968
31
0.000132472854217741
  0
LINE
 8
GROUP0
10
-3817.42602932714
20
1953.51707879927
30
0.000132278798666979
11
-3817.35788097972
21
1954.03471688947
31
0.000132387593575939
  0
LINE
 8
GROUP0
10
-3817.62583017215
20
1953.03471688947
30
0.000132153884163388
11
-3817.42602932714
21
1953.51707879927
31
0.000132278798666979
  0
LINE
 8
GROUP0
10
-3817.94366741735
20
1952.6205033271
30
0.000132021361457202
11
-3817.62583017215
21
1953.03471688947
31
0.000132153884163388
  0
LINE
 8
GROUP0
10
-3818.35788097972
20
1952.3026660819
30
0.000131890263058276
11
-3817.94366741735
21
1952.6205033271
31
0.000132021361457202
  0
LINE
 8
GROUP0
10
-3818.84024288952
20
1952.1028652369
30
0.000131769522676828
11
-3818.35788097972
21
1952.3026660819
31
0.000131890263058276
  0
LINE
 8
GROUP0
10
-3819.35788097972
20
1952.03471688947
30
0.000131667367846361
11
-3818.84024288952
21
1952.1028652369
31
0.000131769522676828
  0
LINE
 8
GROUP0
10
-3819.87551906993
20
1952.1028652369
30
0.000131590761516021
11
-3819.35788097972
21
1952.03471688947
31
0.000131667367846361
  0
LINE
 8
GROUP0
10
-3820.35788097972
20
1952.3026660819
30
0.000131544923025706
11
-3819.87551906993
21
1952.1028652369
31
0.000131590761516021
  0
LINE
 8
GROUP0
10
-3820.77209454209
20
1952.6205033271
30
0.000131532976109394
11
-3820.35788097972
21
1952.3026660819
31
0.000131544923025706
  0
LINE
 8
GROUP0
10
-3821.08993178729
20
1953.03471688947
30
0.000131555736526989
11
-3820.77209454209
21
1952.6205033271
31
0.000131532976109394
  0
LINE
 8
GROUP0
10
-3821.2897326323
20
1953.51707879927
30
0.000131611652169644
11
-3821.08993178729
21
1953.03471688947
31
0.000131555736526989
  0
LINE
 8
GROUP0
10
-3821.35788097972
20
1954.03471688947
30
0.000131696912777607
11
-3821.2897326323
21
1953.51707879927
31
0.000131611652169644
  0
LINE
 8
GROUP0
10
-3821.2897326323
20
1954.55235497968
30
0.000131805707720406
11
-3821.35788097972
21
1954.03471688947
31
0.000131696912777607
  0
LINE
 8
GROUP0
10
-3821.08993178729
20
1955.03471688947
30
0.000131930622933923
11
-3821.2897326323
21
1954.55235497968
31
0.000131805707720406
  0
LINE
 8
GROUP0
10
-3820.7720945421
20
1955.44893045185
30
0.00013206314562883
11
-3821.08993178729
21
1955.03471688947
31
0.000131930622933923
  0
LINE
 8
GROUP0
10
-3820.35788097972
20
1955.76676769704
30
0.000132194244039036
11
-3820.7720945421
21
1955.44893045185
31
0.00013206314562883
  0
LINE
 8
GROUP0
10
-3819.87551906993
20
1955.96656854205
30
0.000132314984431764
11
-3820.35788097972
21
1955.76676769704
31
0.000132194244039036
  0
LINE
 8
GROUP0
10
-3819.35788097972
20
1956.03471688947
30
0.000132417139239671
11
-3819.87551906993
21
1955.96656854205
31
0.000132314984431764
  0
LINE
 8
GROUP0
10
-3818.84024288952
20
1955.96656854205
30
0.000132493745603851
11
-3819.35788097972
21
1956.03471688947
31
0.000132417139239671
  0
LINE
 8
GROUP0
10
-3818.35788097972
20
1955.76676769704
30
0.000132539584082886
11
-3818.84024288952
21
1955.96656854205
31
0.000132493745603851
  0
LINE
 8
GROUP0
10
-3817.94366741735
20
1955.44893045185
30
0.000132551530266006
11
-3818.35788097972
21
1955.76676769704
31
0.000132539584082886
  0
LINE
 8
GROUP0
10
-3430.44366741796
20
1955.44893045135
30
1.01855345726043e-006
11
-3430.85788098018
21
1955.76676769641
31
1.00660725158019e-006
  0
LINE
 8
GROUP0
10
-3430.12583017288
20
1955.03471688914
30
9.95793050945215e-007
11
-3430.44366741796
21
1955.44893045135
31
1.01855345726043e-006
  0
LINE
 8
GROUP0
10
-3429.92602932793
20
1954.55235497953
30
9.39877386435528e-007
11
-3430.12583017288
21
1955.03471688914
31
9.95793050945215e-007
  0
LINE
 8
GROUP0
10
-3429.85788098053
20
1954.03471688953
30
8.5461675591314e-007
11
-3429.92602932793
21
1954.55235497953
31
9.39877386435528e-007
  0
LINE
 8
GROUP0
10
-3429.92602932791
20
1953.51707879952
30
7.45821835673732e-007
11
-3429.85788098053
21
1954.03471688953
31
8.5461675591314e-007
  0
LINE
 8
GROUP0
10
-3430.12583017283
20
1953.0347168899
30
6.20907332082865e-007
11
-3429.92602932791
21
1953.51707879952
31
7.45821835673732e-007
  0
LINE
 8
GROUP0
10
-3430.4436674179
20
1952.62050332768
30
4.88384625896288e-007
11
-3430.12583017283
21
1953.0347168899
31
6.20907332082865e-007
  0
LINE
 8
GROUP0
10
-3430.8578809801
20
1952.3026660826
30
3.57286215690866e-007
11
-3430.4436674179
21
1952.62050332768
31
4.88384625896288e-007
  0
LINE
 8
GROUP0
10
-3431.34024288971
20
1952.10286523765
30
2.36545856802106e-007
11
-3430.8578809801
21
1952.3026660826
31
3.57286215690866e-007
  0
LINE
 8
GROUP0
10
-3431.85788097972
20
1952.03471689025
30
1.34391026335168e-007
11
-3431.34024288971
21
1952.10286523765
31
2.36545856802106e-007
  0
LINE
 8
GROUP0
10
-3432.37551906972
20
1952.10286523763
30
5.77846847149566e-008
11
-3431.85788097972
21
1952.03471689025
31
1.34391026335168e-007
  0
LINE
 8
GROUP0
10
-3432.85788097934
20
1952.30266608255
30
1.19461831205037e-008
11
-3432.37551906972
21
1952.10286523763
31
5.77846847149566e-008
  0
LINE
 8
GROUP0
10
-3433.27209454156
20
1952.62050332762
30
0.0
11
-3432.85788097934
21
1952.30266608255
31
1.19461831205037e-008
  0
LINE
 8
GROUP0
10
-3433.58993178665
20
1953.03471688982
30
2.2760440154812e-008
11
-3433.27209454156
21
1952.62050332762
31
0.0
  0
LINE
 8
GROUP0
10
-3433.78973263159
20
1953.51707879943
30
7.86760602500269e-008
11
-3433.58993178665
21
1953.03471688982
31
2.2760440154812e-008
  0
LINE
 8
GROUP0
10
-3433.857880979
20
1954.03471688944
30
1.63936679492549e-007
11
-3433.78973263159
21
1953.51707879943
31
7.86760602500269e-008
  0
LINE
 8
GROUP0
10
-3433.78973263162
20
1954.55235497944
30
2.72731611011823e-007
11
-3433.857880979
21
1954.03471688944
31
1.63936679492549e-007
  0
LINE
 8
GROUP0
10
-3433.58993178669
20
1955.03471688906
30
3.97646113897698e-007
11
-3433.78973263162
21
1954.55235497944
31
2.72731611011823e-007
  0
LINE
 8
GROUP0
10
-3433.27209454163
20
1955.44893045128
30
5.3016880880441e-007
11
-3433.58993178669
21
1955.03471688906
31
3.97646113897698e-007
  0
LINE
 8
GROUP0
10
-3432.85788097942
20
1955.76676769637
30
6.61267207729965e-007
11
-3433.27209454163
21
1955.44893045128
31
5.3016880880441e-007
  0
LINE
 8
GROUP0
10
-3432.37551906981
20
1955.96656854131
30
7.82007600458323e-007
11
-3432.85788097942
21
1955.76676769637
31
6.61267207729965e-007
  0
LINE
 8
GROUP0
10
-3431.85788097981
20
1956.03471688872
30
8.8416240836553e-007
11
-3432.37551906981
21
1955.96656854131
31
7.82007600458323e-007
  0
LINE
 8
GROUP0
10
-3431.3402428898
20
1955.96656854133
30
9.60768783825339e-007
11
-3431.85788097981
21
1956.03471688872
31
8.8416240836553e-007
  0
LINE
 8
GROUP0
10
-3430.85788098018
20
1955.76676769641
30
1.00660725158019e-006
11
-3431.3402428898
21
1955.96656854133
31
9.60768783825339e-007
 0
ENDSEC
 0
EOF
