solid Alto
facet normal -1.0 0.0 0.0
outer loop
vertex 4363.24003764066 -592.82525371497 4.0
vertex 4363.1650744585 -593.394655614195 0.0
vertex 4363.1650744585 -593.394655614195 4.0
endloop
endfacet
facet normal -0.965925826289054 0.258819045102576 0.0
outer loop
vertex 4363.1650744585 -593.394655614195 0.0
vertex 4363.24003764066 -592.82525371497 4.0
vertex 4363.24003764066 -592.82525371497 0.0
endloop
endfacet
facet normal -0.866025403784369 0.500000000000121 0.0
outer loop
vertex 4362.94529352899 -593.92525371497 4.0
vertex 4362.59567255928 -594.38088863358 0.0
vertex 4362.59567255928 -594.38088863358 4.0
endloop
endfacet
facet normal -0.707106781186731 0.707106781186365 0.0
outer loop
vertex 4362.59567255928 -594.38088863358 0.0
vertex 4362.94529352899 -593.92525371497 4.0
vertex 4362.94529352899 -593.92525371497 0.0
endloop
endfacet
facet normal 0.70710678118646 0.707106781186635 0.0
outer loop
vertex 4359.48440272205 -594.38088863358 4.0
vertex 4359.94003764066 -594.730509603296 0.0
vertex 4359.48440272205 -594.38088863358 0.0
endloop
endfacet
facet normal 0.499999999999957 0.866025403784463 0.0
outer loop
vertex 4359.94003764066 -594.730509603296 0.0
vertex 4359.48440272205 -594.38088863358 4.0
vertex 4359.94003764066 -594.730509603296 4.0
endloop
endfacet
facet normal 0.0 -1.0 0.0
outer loop
vertex 4361.04003764067 -590.62525371497 4.0
vertex 4360.47063574144 -590.700216897134 0.0
vertex 4361.04003764067 -590.62525371497 0.0
endloop
endfacet
facet normal 0.258819045102438 -0.965925826289091 0.0
outer loop
vertex 4360.47063574144 -590.700216897134 0.0
vertex 4361.04003764067 -590.62525371497 4.0
vertex 4360.47063574144 -590.700216897134 4.0
endloop
endfacet
facet normal -0.70710678118646 -0.707106781186635 0.0
outer loop
vertex 4362.59567255928 -591.269618796359 4.0
vertex 4362.94529352899 -591.72525371497 0.0
vertex 4362.94529352899 -591.72525371497 4.0
endloop
endfacet
facet normal -0.866025403784369 -0.500000000000121 0.0
outer loop
vertex 4362.94529352899 -591.72525371497 0.0
vertex 4362.59567255928 -591.269618796359 4.0
vertex 4362.59567255928 -591.269618796359 0.0
endloop
endfacet
facet normal -0.499999999999957 -0.866025403784463 0.0
outer loop
vertex 4362.14003764066 -590.919997826644 4.0
vertex 4361.60943953989 -590.700216897134 0.0
vertex 4362.14003764066 -590.919997826644 0.0
endloop
endfacet
facet normal -0.25881904510267 -0.965925826289028 0.0
outer loop
vertex 4361.60943953989 -590.700216897134 0.0
vertex 4362.14003764066 -590.919997826644 4.0
vertex 4361.60943953989 -590.700216897134 4.0
endloop
endfacet
facet normal 0.965925826289054 -0.258819045102576 0.0
outer loop
vertex 4358.91500082283 -592.255851815744 0.0
vertex 4358.84003764066 -592.82525371497 4.0
vertex 4358.84003764066 -592.82525371497 0.0
endloop
endfacet
facet normal 1.0 0.0 0.0
outer loop
vertex 4358.84003764066 -592.82525371497 4.0
vertex 4358.91500082283 -592.255851815744 0.0
vertex 4358.91500082283 -592.255851815744 4.0
endloop
endfacet
facet normal 0.25881904510267 0.965925826289028 0.0
outer loop
vertex 4360.47063574144 -594.950290532806 4.0
vertex 4361.04003764067 -595.02525371497 0.0
vertex 4360.47063574144 -594.950290532806 0.0
endloop
endfacet
facet normal 0.0 1.0 0.0
outer loop
vertex 4361.04003764067 -595.02525371497 0.0
vertex 4360.47063574144 -594.950290532806 4.0
vertex 4361.04003764067 -595.02525371497 4.0
endloop
endfacet
facet normal -0.258819045102438 0.965925826289091 0.0
outer loop
vertex 4361.60943953989 -594.950290532806 4.0
vertex 4362.14003764067 -594.730509603296 0.0
vertex 4361.60943953989 -594.950290532806 0.0
endloop
endfacet
facet normal -0.50000000000008 0.866025403784392 0.0
outer loop
vertex 4362.14003764067 -594.730509603296 0.0
vertex 4361.60943953989 -594.950290532806 4.0
vertex 4362.14003764067 -594.730509603296 4.0
endloop
endfacet
facet normal 0.866025403784369 0.500000000000121 0.0
outer loop
vertex 4359.13478175234 -593.92525371497 0.0
vertex 4359.48440272205 -594.38088863358 4.0
vertex 4359.48440272205 -594.38088863358 0.0
endloop
endfacet
facet normal 0.70710678118646 0.707106781186635 0.0
outer loop
vertex 4359.48440272205 -594.38088863358 4.0
vertex 4359.13478175234 -593.92525371497 0.0
vertex 4359.13478175234 -593.92525371497 4.0
endloop
endfacet
facet normal -0.25881904510267 -0.965925826289028 0.0
outer loop
vertex 4361.60943953989 -590.700216897134 4.0
vertex 4361.04003764067 -590.62525371497 0.0
vertex 4361.60943953989 -590.700216897134 0.0
endloop
endfacet
facet normal 0.0 -1.0 0.0
outer loop
vertex 4361.04003764067 -590.62525371497 0.0
vertex 4361.60943953989 -590.700216897134 4.0
vertex 4361.04003764067 -590.62525371497 4.0
endloop
endfacet
facet normal 0.866025403784369 -0.500000000000121 0.0
outer loop
vertex 4359.13478175234 -591.72525371497 0.0
vertex 4358.91500082283 -592.255851815744 4.0
vertex 4358.91500082283 -592.255851815744 0.0
endloop
endfacet
facet normal 0.965925826289054 -0.258819045102576 0.0
outer loop
vertex 4358.91500082283 -592.255851815744 4.0
vertex 4359.13478175234 -591.72525371497 0.0
vertex 4359.13478175234 -591.72525371497 4.0
endloop
endfacet
facet normal 0.707106781186731 -0.707106781186365 0.0
outer loop
vertex 4359.48440272205 -591.269618796359 0.0
vertex 4359.13478175234 -591.72525371497 4.0
vertex 4359.13478175234 -591.72525371497 0.0
endloop
endfacet
facet normal 0.866025403784369 -0.500000000000121 0.0
outer loop
vertex 4359.13478175234 -591.72525371497 4.0
vertex 4359.48440272205 -591.269618796359 0.0
vertex 4359.48440272205 -591.269618796359 4.0
endloop
endfacet
facet normal 0.0 1.0 0.0
outer loop
vertex 4361.04003764067 -595.02525371497 4.0
vertex 4361.60943953989 -594.950290532806 0.0
vertex 4361.04003764067 -595.02525371497 0.0
endloop
endfacet
facet normal -0.258819045102438 0.965925826289091 0.0
outer loop
vertex 4361.60943953989 -594.950290532806 0.0
vertex 4361.04003764067 -595.02525371497 4.0
vertex 4361.60943953989 -594.950290532806 4.0
endloop
endfacet
facet normal -0.50000000000008 0.866025403784392 0.0
outer loop
vertex 4362.14003764067 -594.730509603296 4.0
vertex 4362.59567255928 -594.38088863358 0.0
vertex 4362.14003764067 -594.730509603296 0.0
endloop
endfacet
facet normal -0.707106781186731 0.707106781186365 0.0
outer loop
vertex 4362.59567255928 -594.38088863358 0.0
vertex 4362.14003764067 -594.730509603296 4.0
vertex 4362.59567255928 -594.38088863358 4.0
endloop
endfacet
facet normal 0.965925826289054 0.258819045102576 0.0
outer loop
vertex 4358.91500082283 -593.394655614195 0.0
vertex 4359.13478175234 -593.92525371497 4.0
vertex 4359.13478175234 -593.92525371497 0.0
endloop
endfacet
facet normal 0.866025403784369 0.500000000000121 0.0
outer loop
vertex 4359.13478175234 -593.92525371497 4.0
vertex 4358.91500082283 -593.394655614195 0.0
vertex 4358.91500082283 -593.394655614195 4.0
endloop
endfacet
facet normal 1.0 0.0 0.0
outer loop
vertex 4358.84003764066 -592.82525371497 0.0
vertex 4358.91500082283 -593.394655614195 4.0
vertex 4358.91500082283 -593.394655614195 0.0
endloop
endfacet
facet normal 0.965925826289054 0.258819045102576 0.0
outer loop
vertex 4358.91500082283 -593.394655614195 4.0
vertex 4358.84003764066 -592.82525371497 0.0
vertex 4358.84003764066 -592.82525371497 4.0
endloop
endfacet
facet normal -0.965925826289054 0.258819045102576 0.0
outer loop
vertex 4363.1650744585 -593.394655614195 4.0
vertex 4362.94529352899 -593.92525371497 0.0
vertex 4362.94529352899 -593.92525371497 4.0
endloop
endfacet
facet normal -0.866025403784369 0.500000000000121 0.0
outer loop
vertex 4362.94529352899 -593.92525371497 0.0
vertex 4363.1650744585 -593.394655614195 4.0
vertex 4363.1650744585 -593.394655614195 0.0
endloop
endfacet
facet normal -0.866025403784369 -0.500000000000121 0.0
outer loop
vertex 4362.94529352899 -591.72525371497 4.0
vertex 4363.1650744585 -592.255851815744 0.0
vertex 4363.1650744585 -592.255851815744 4.0
endloop
endfacet
facet normal -0.965925826289054 -0.258819045102576 0.0
outer loop
vertex 4363.1650744585 -592.255851815744 0.0
vertex 4362.94529352899 -591.72525371497 4.0
vertex 4362.94529352899 -591.72525371497 0.0
endloop
endfacet
facet normal 0.258819045102438 -0.965925826289091 0.0
outer loop
vertex 4360.47063574144 -590.700216897134 4.0
vertex 4359.94003764066 -590.919997826644 0.0
vertex 4360.47063574144 -590.700216897134 0.0
endloop
endfacet
facet normal 0.50000000000008 -0.866025403784392 0.0
outer loop
vertex 4359.94003764066 -590.919997826644 0.0
vertex 4360.47063574144 -590.700216897134 4.0
vertex 4359.94003764066 -590.919997826644 4.0
endloop
endfacet
facet normal -0.70710678118646 -0.707106781186635 0.0
outer loop
vertex 4362.59567255928 -591.269618796359 4.0
vertex 4362.14003764066 -590.919997826644 0.0
vertex 4362.59567255928 -591.269618796359 0.0
endloop
endfacet
facet normal -0.499999999999957 -0.866025403784463 0.0
outer loop
vertex 4362.14003764066 -590.919997826644 0.0
vertex 4362.59567255928 -591.269618796359 4.0
vertex 4362.14003764066 -590.919997826644 4.0
endloop
endfacet
facet normal 0.499999999999957 0.866025403784463 0.0
outer loop
vertex 4359.94003764066 -594.730509603296 4.0
vertex 4360.47063574144 -594.950290532806 0.0
vertex 4359.94003764066 -594.730509603296 0.0
endloop
endfacet
facet normal 0.25881904510267 0.965925826289028 0.0
outer loop
vertex 4360.47063574144 -594.950290532806 0.0
vertex 4359.94003764066 -594.730509603296 4.0
vertex 4360.47063574144 -594.950290532806 4.0
endloop
endfacet
facet normal -0.965925826289054 -0.258819045102576 0.0
outer loop
vertex 4363.1650744585 -592.255851815744 4.0
vertex 4363.24003764066 -592.82525371497 0.0
vertex 4363.24003764066 -592.82525371497 4.0
endloop
endfacet
facet normal -1.0 0.0 0.0
outer loop
vertex 4363.24003764066 -592.82525371497 0.0
vertex 4363.1650744585 -592.255851815744 4.0
vertex 4363.1650744585 -592.255851815744 0.0
endloop
endfacet
facet normal 0.50000000000008 -0.866025403784392 0.0
outer loop
vertex 4359.94003764066 -590.919997826644 4.0
vertex 4359.48440272205 -591.269618796359 0.0
vertex 4359.94003764066 -590.919997826644 0.0
endloop
endfacet
facet normal 0.707106781186731 -0.707106781186365 0.0
outer loop
vertex 4359.48440272205 -591.269618796359 0.0
vertex 4359.94003764066 -590.919997826644 4.0
vertex 4359.48440272205 -591.269618796359 4.0
endloop
endfacet
facet normal 0.0 0.0 -1.0
outer loop
vertex 4351.54003764067 -583.32525371497 0.0
vertex 4359.13478175234 -591.72525371497 0.0
vertex 4351.54003764067 -602.32525371497 0.0
endloop
endfacet
facet normal 0.0 0.0 -1.0
outer loop
vertex 4359.13478175234 -591.72525371497 0.0
vertex 4351.54003764067 -583.32525371497 0.0
vertex 4359.48440272205 -591.269618796359 0.0
endloop
endfacet
facet normal 0.0 0.0 -1.0
outer loop
vertex 4359.48440272205 -591.269618796359 0.0
vertex 4351.54003764067 -583.32525371497 0.0
vertex 4359.94003764066 -590.919997826644 0.0
endloop
endfacet
facet normal 0.0 0.0 -1.0
outer loop
vertex 4359.94003764066 -590.919997826644 0.0
vertex 4351.54003764067 -583.32525371497 0.0
vertex 4370.54003764067 -583.32525371497 0.0
endloop
endfacet
facet normal 0.0 0.0 -1.0
outer loop
vertex 4351.54003764067 -602.32525371497 0.0
vertex 4359.13478175234 -591.72525371497 0.0
vertex 4358.91500082283 -592.255851815744 0.0
endloop
endfacet
facet normal 0.0 0.0 -1.0
outer loop
vertex 4351.54003764067 -602.32525371497 0.0
vertex 4358.91500082283 -592.255851815744 0.0
vertex 4358.84003764066 -592.82525371497 0.0
endloop
endfacet
facet normal 0.0 0.0 -1.0
outer loop
vertex 4359.94003764066 -590.919997826644 0.0
vertex 4370.54003764067 -583.32525371497 0.0
vertex 4360.47063574144 -590.700216897134 0.0
endloop
endfacet
facet normal 0.0 0.0 -1.0
outer loop
vertex 4360.47063574144 -590.700216897134 0.0
vertex 4370.54003764067 -583.32525371497 0.0
vertex 4361.04003764067 -590.62525371497 0.0
endloop
endfacet
facet normal 0.0 0.0 -1.0
outer loop
vertex 4361.04003764067 -590.62525371497 0.0
vertex 4370.54003764067 -583.32525371497 0.0
vertex 4361.60943953989 -590.700216897134 0.0
endloop
endfacet
facet normal 0.0 0.0 -1.0
outer loop
vertex 4361.60943953989 -590.700216897134 0.0
vertex 4370.54003764067 -583.32525371497 0.0
vertex 4362.14003764066 -590.919997826644 0.0
endloop
endfacet
facet normal 0.0 0.0 -1.0
outer loop
vertex 4362.14003764066 -590.919997826644 0.0
vertex 4370.54003764067 -583.32525371497 0.0
vertex 4362.59567255928 -591.269618796359 0.0
endloop
endfacet
facet normal 0.0 0.0 -1.0
outer loop
vertex 4362.59567255928 -591.269618796359 0.0
vertex 4370.54003764067 -583.32525371497 0.0
vertex 4362.94529352899 -591.72525371497 0.0
endloop
endfacet
facet normal 0.0 0.0 -1.0
outer loop
vertex 4362.94529352899 -591.72525371497 0.0
vertex 4370.54003764067 -583.32525371497 0.0
vertex 4363.1650744585 -592.255851815744 0.0
endloop
endfacet
facet normal 0.0 0.0 -1.0
outer loop
vertex 4363.1650744585 -592.255851815744 0.0
vertex 4370.54003764067 -583.32525371497 0.0
vertex 4363.24003764066 -592.82525371497 0.0
endloop
endfacet
facet normal 0.0 0.0 -1.0
outer loop
vertex 4351.54003764067 -602.32525371497 0.0
vertex 4359.94003764066 -594.730509603296 0.0
vertex 4370.54003764067 -602.32525371497 0.0
endloop
endfacet
facet normal 0.0 0.0 -1.0
outer loop
vertex 4359.94003764066 -594.730509603296 0.0
vertex 4351.54003764067 -602.32525371497 0.0
vertex 4359.48440272205 -594.38088863358 0.0
endloop
endfacet
facet normal 0.0 0.0 -1.0
outer loop
vertex 4359.48440272205 -594.38088863358 0.0
vertex 4351.54003764067 -602.32525371497 0.0
vertex 4359.13478175234 -593.92525371497 0.0
endloop
endfacet
facet normal 0.0 0.0 -1.0
outer loop
vertex 4359.13478175234 -593.92525371497 0.0
vertex 4351.54003764067 -602.32525371497 0.0
vertex 4358.91500082283 -593.394655614195 0.0
endloop
endfacet
facet normal 0.0 0.0 -1.0
outer loop
vertex 4358.91500082283 -593.394655614195 0.0
vertex 4351.54003764067 -602.32525371497 0.0
vertex 4358.84003764066 -592.82525371497 0.0
endloop
endfacet
facet normal 0.0 0.0 -1.0
outer loop
vertex 4370.54003764067 -602.32525371497 0.0
vertex 4359.94003764066 -594.730509603296 0.0
vertex 4360.47063574144 -594.950290532806 0.0
endloop
endfacet
facet normal 0.0 0.0 -1.0
outer loop
vertex 4370.54003764067 -602.32525371497 0.0
vertex 4360.47063574144 -594.950290532806 0.0
vertex 4361.04003764067 -595.02525371497 0.0
endloop
endfacet
facet normal 0.0 0.0 -1.0
outer loop
vertex 4370.54003764067 -602.32525371497 0.0
vertex 4361.04003764067 -595.02525371497 0.0
vertex 4361.60943953989 -594.950290532806 0.0
endloop
endfacet
facet normal 0.0 0.0 -1.0
outer loop
vertex 4370.54003764067 -602.32525371497 0.0
vertex 4361.60943953989 -594.950290532806 0.0
vertex 4362.14003764067 -594.730509603296 0.0
endloop
endfacet
facet normal 0.0 0.0 -1.0
outer loop
vertex 4370.54003764067 -602.32525371497 0.0
vertex 4362.14003764067 -594.730509603296 0.0
vertex 4362.59567255928 -594.38088863358 0.0
endloop
endfacet
facet normal 0.0 0.0 -1.0
outer loop
vertex 4370.54003764067 -602.32525371497 0.0
vertex 4362.59567255928 -594.38088863358 0.0
vertex 4362.94529352899 -593.92525371497 0.0
endloop
endfacet
facet normal 0.0 0.0 -1.0
outer loop
vertex 4370.54003764067 -602.32525371497 0.0
vertex 4362.94529352899 -593.92525371497 0.0
vertex 4363.1650744585 -593.394655614195 0.0
endloop
endfacet
facet normal 0.0 0.0 -1.0
outer loop
vertex 4370.54003764067 -602.32525371497 0.0
vertex 4363.1650744585 -593.394655614195 0.0
vertex 4363.24003764066 -592.82525371497 0.0
endloop
endfacet
facet normal 0.0 0.0 -1.0
outer loop
vertex 4370.54003764067 -602.32525371497 0.0
vertex 4363.24003764066 -592.82525371497 0.0
vertex 4370.54003764067 -583.32525371497 0.0
endloop
endfacet
facet normal 1.0 0.0 0.0
outer loop
vertex 4370.54003764067 -583.32525371497 0.0
vertex 4370.54003764067 -602.32525371497 3.5
vertex 4370.54003764067 -602.32525371497 0.0
endloop
endfacet
facet normal 1.0 0.0 0.0
outer loop
vertex 4370.54003764067 -602.32525371497 3.5
vertex 4370.54003764067 -583.32525371497 0.0
vertex 4370.54003764067 -583.32525371497 3.5
endloop
endfacet
facet normal 0.0 -0.707106781186564 0.707106781186531
outer loop
vertex 4370.04003764067 -601.82525371497 4.0
vertex 4351.54003764067 -602.32525371497 3.5
vertex 4370.54003764067 -602.32525371497 3.5
endloop
endfacet
facet normal 0.0 -0.707106781186564 0.707106781186531
outer loop
vertex 4351.54003764067 -602.32525371497 3.5
vertex 4370.04003764067 -601.82525371497 4.0
vertex 4352.04003764067 -601.82525371497 4.0
endloop
endfacet
facet normal 0.0 -1.0 0.0
outer loop
vertex 4370.54003764067 -602.32525371497 3.5
vertex 4351.54003764067 -602.32525371497 0.0
vertex 4370.54003764067 -602.32525371497 0.0
endloop
endfacet
facet normal 0.0 -1.0 0.0
outer loop
vertex 4351.54003764067 -602.32525371497 0.0
vertex 4370.54003764067 -602.32525371497 3.5
vertex 4351.54003764067 -602.32525371497 3.5
endloop
endfacet
facet normal 0.0 1.0 0.0
outer loop
vertex 4351.54003764067 -583.32525371497 3.5
vertex 4370.54003764067 -583.32525371497 0.0
vertex 4351.54003764067 -583.32525371497 0.0
endloop
endfacet
facet normal 0.0 1.0 0.0
outer loop
vertex 4370.54003764067 -583.32525371497 0.0
vertex 4351.54003764067 -583.32525371497 3.5
vertex 4370.54003764067 -583.32525371497 3.5
endloop
endfacet
facet normal -1.0 0.0 0.0
outer loop
vertex 4351.54003764067 -583.32525371497 3.5
vertex 4351.54003764067 -602.32525371497 0.0
vertex 4351.54003764067 -602.32525371497 3.5
endloop
endfacet
facet normal -1.0 0.0 0.0
outer loop
vertex 4351.54003764067 -602.32525371497 0.0
vertex 4351.54003764067 -583.32525371497 3.5
vertex 4351.54003764067 -583.32525371497 0.0
endloop
endfacet
facet normal 0.0 0.0 1.0
outer loop
vertex 4352.04003764067 -601.82525371497 4.0
vertex 4359.13478175234 -593.92525371497 4.0
vertex 4352.04003764067 -583.82525371497 4.0
endloop
endfacet
facet normal 0.0 0.0 1.0
outer loop
vertex 4359.13478175234 -593.92525371497 4.0
vertex 4352.04003764067 -601.82525371497 4.0
vertex 4359.48440272205 -594.38088863358 4.0
endloop
endfacet
facet normal 0.0 0.0 1.0
outer loop
vertex 4359.48440272205 -594.38088863358 4.0
vertex 4352.04003764067 -601.82525371497 4.0
vertex 4359.94003764066 -594.730509603296 4.0
endloop
endfacet
facet normal 0.0 0.0 1.0
outer loop
vertex 4359.94003764066 -594.730509603296 4.0
vertex 4352.04003764067 -601.82525371497 4.0
vertex 4370.04003764067 -601.82525371497 4.0
endloop
endfacet
facet normal 0.0 0.0 1.0
outer loop
vertex 4352.04003764067 -583.82525371497 4.0
vertex 4359.13478175234 -593.92525371497 4.0
vertex 4358.91500082283 -593.394655614195 4.0
endloop
endfacet
facet normal 0.0 0.0 1.0
outer loop
vertex 4352.04003764067 -583.82525371497 4.0
vertex 4358.91500082283 -593.394655614195 4.0
vertex 4358.84003764066 -592.82525371497 4.0
endloop
endfacet
facet normal 0.0 0.0 1.0
outer loop
vertex 4359.94003764066 -594.730509603296 4.0
vertex 4370.04003764067 -601.82525371497 4.0
vertex 4360.47063574144 -594.950290532806 4.0
endloop
endfacet
facet normal 0.0 0.0 1.0
outer loop
vertex 4360.47063574144 -594.950290532806 4.0
vertex 4370.04003764067 -601.82525371497 4.0
vertex 4361.04003764067 -595.02525371497 4.0
endloop
endfacet
facet normal 0.0 0.0 1.0
outer loop
vertex 4361.04003764067 -595.02525371497 4.0
vertex 4370.04003764067 -601.82525371497 4.0
vertex 4361.60943953989 -594.950290532806 4.0
endloop
endfacet
facet normal 0.0 0.0 1.0
outer loop
vertex 4361.60943953989 -594.950290532806 4.0
vertex 4370.04003764067 -601.82525371497 4.0
vertex 4362.14003764067 -594.730509603296 4.0
endloop
endfacet
facet normal 0.0 0.0 1.0
outer loop
vertex 4362.14003764067 -594.730509603296 4.0
vertex 4370.04003764067 -601.82525371497 4.0
vertex 4362.59567255928 -594.38088863358 4.0
endloop
endfacet
facet normal 0.0 0.0 1.0
outer loop
vertex 4362.59567255928 -594.38088863358 4.0
vertex 4370.04003764067 -601.82525371497 4.0
vertex 4362.94529352899 -593.92525371497 4.0
endloop
endfacet
facet normal 0.0 0.0 1.0
outer loop
vertex 4362.94529352899 -593.92525371497 4.0
vertex 4370.04003764067 -601.82525371497 4.0
vertex 4363.1650744585 -593.394655614195 4.0
endloop
endfacet
facet normal 0.0 0.0 1.0
outer loop
vertex 4363.1650744585 -593.394655614195 4.0
vertex 4370.04003764067 -601.82525371497 4.0
vertex 4363.24003764066 -592.82525371497 4.0
endloop
endfacet
facet normal 0.0 0.0 1.0
outer loop
vertex 4352.04003764067 -583.82525371497 4.0
vertex 4359.94003764066 -590.919997826644 4.0
vertex 4370.04003764067 -583.82525371497 4.0
endloop
endfacet
facet normal 0.0 0.0 1.0
outer loop
vertex 4359.94003764066 -590.919997826644 4.0
vertex 4352.04003764067 -583.82525371497 4.0
vertex 4359.48440272205 -591.269618796359 4.0
endloop
endfacet
facet normal 0.0 0.0 1.0
outer loop
vertex 4359.48440272205 -591.269618796359 4.0
vertex 4352.04003764067 -583.82525371497 4.0
vertex 4359.13478175234 -591.72525371497 4.0
endloop
endfacet
facet normal 0.0 0.0 1.0
outer loop
vertex 4359.13478175234 -591.72525371497 4.0
vertex 4352.04003764067 -583.82525371497 4.0
vertex 4358.91500082283 -592.255851815744 4.0
endloop
endfacet
facet normal 0.0 0.0 1.0
outer loop
vertex 4358.91500082283 -592.255851815744 4.0
vertex 4352.04003764067 -583.82525371497 4.0
vertex 4358.84003764066 -592.82525371497 4.0
endloop
endfacet
facet normal 0.0 0.0 1.0
outer loop
vertex 4370.04003764067 -583.82525371497 4.0
vertex 4359.94003764066 -590.919997826644 4.0
vertex 4360.47063574144 -590.700216897134 4.0
endloop
endfacet
facet normal 0.0 0.0 1.0
outer loop
vertex 4370.04003764067 -583.82525371497 4.0
vertex 4360.47063574144 -590.700216897134 4.0
vertex 4361.04003764067 -590.62525371497 4.0
endloop
endfacet
facet normal 0.0 0.0 1.0
outer loop
vertex 4370.04003764067 -583.82525371497 4.0
vertex 4361.04003764067 -590.62525371497 4.0
vertex 4361.60943953989 -590.700216897134 4.0
endloop
endfacet
facet normal 0.0 0.0 1.0
outer loop
vertex 4370.04003764067 -583.82525371497 4.0
vertex 4361.60943953989 -590.700216897134 4.0
vertex 4362.14003764066 -590.919997826644 4.0
endloop
endfacet
facet normal 0.0 0.0 1.0
outer loop
vertex 4370.04003764067 -583.82525371497 4.0
vertex 4362.14003764066 -590.919997826644 4.0
vertex 4362.59567255928 -591.269618796359 4.0
endloop
endfacet
facet normal 0.0 0.0 1.0
outer loop
vertex 4370.04003764067 -583.82525371497 4.0
vertex 4362.59567255928 -591.269618796359 4.0
vertex 4362.94529352899 -591.72525371497 4.0
endloop
endfacet
facet normal 0.0 0.0 1.0
outer loop
vertex 4370.04003764067 -583.82525371497 4.0
vertex 4362.94529352899 -591.72525371497 4.0
vertex 4363.1650744585 -592.255851815744 4.0
endloop
endfacet
facet normal 0.0 0.0 1.0
outer loop
vertex 4370.04003764067 -583.82525371497 4.0
vertex 4363.1650744585 -592.255851815744 4.0
vertex 4363.24003764066 -592.82525371497 4.0
endloop
endfacet
facet normal 0.0 0.0 1.0
outer loop
vertex 4370.04003764067 -583.82525371497 4.0
vertex 4363.24003764066 -592.82525371497 4.0
vertex 4370.04003764067 -601.82525371497 4.0
endloop
endfacet
facet normal 0.707106781186628 0.0 0.707106781186467
outer loop
vertex 4370.54003764067 -583.32525371497 3.5
vertex 4370.04003764067 -601.82525371497 4.0
vertex 4370.54003764067 -602.32525371497 3.5
endloop
endfacet
facet normal 0.707106781186628 0.0 0.707106781186467
outer loop
vertex 4370.04003764067 -601.82525371497 4.0
vertex 4370.54003764067 -583.32525371497 3.5
vertex 4370.04003764067 -583.82525371497 4.0
endloop
endfacet
facet normal -0.707106781186628 0.0 0.707106781186467
outer loop
vertex 4352.04003764067 -601.82525371497 4.0
vertex 4351.54003764067 -583.32525371497 3.5
vertex 4351.54003764067 -602.32525371497 3.5
endloop
endfacet
facet normal -0.707106781186628 0.0 0.707106781186467
outer loop
vertex 4351.54003764067 -583.32525371497 3.5
vertex 4352.04003764067 -601.82525371497 4.0
vertex 4352.04003764067 -583.82525371497 4.0
endloop
endfacet
facet normal 0.0 0.707106781186564 0.707106781186531
outer loop
vertex 4352.04003764067 -583.82525371497 4.0
vertex 4370.54003764067 -583.32525371497 3.5
vertex 4351.54003764067 -583.32525371497 3.5
endloop
endfacet
facet normal 0.0 0.707106781186564 0.707106781186531
outer loop
vertex 4370.54003764067 -583.32525371497 3.5
vertex 4352.04003764067 -583.82525371497 4.0
vertex 4370.04003764067 -583.82525371497 4.0
endloop
endfacet
endsolid Alto
